<svg xmlns="http://www.w3.org/2000/svg"  viewBox="0 0 48 48" width="64px" height="64px" fill="#7979d4"><path d="M 24.048828 2 A 1.50015 1.50015 0 0 0 22.998047 2.3847656 C 22.998047 2.3847656 15.490168 9 6.5 9 A 1.50015 1.50015 0 0 0 5 10.5 L 5 22.759766 C 5 29.437814 8.0894135 40.426402 23.417969 46.882812 A 1.50015 1.50015 0 0 0 24.582031 46.882812 C 39.910586 40.426403 43 29.437814 43 22.759766 L 43 10.5 A 1.50015 1.50015 0 0 0 41.5 9 C 32.509832 9 25.001953 2.3847656 25.001953 2.3847656 A 1.50015 1.50015 0 0 0 24.048828 2 z M 24 5.4277344 C 26.062966 7.0863651 32.111257 11.337189 40 11.875 L 40 22.759766 C 40 28.502023 37.793444 37.765684 24 43.826172 C 10.206556 37.765684 8 28.502023 8 22.759766 L 8 11.875 C 15.888743 11.337189 21.937034 7.0863651 24 5.4277344 z M 24.017578 13.103516 A 1.50015 1.50015 0 0 0 22.654297 13.939453 L 20.275391 18.759766 L 14.955078 19.533203 A 1.50015 1.50015 0 0 0 14.123047 22.091797 L 17.972656 25.84375 L 17.064453 31.142578 A 1.50015 1.50015 0 0 0 19.240234 32.724609 L 24 30.222656 L 28.759766 32.724609 A 1.50015 1.50015 0 0 0 30.935547 31.142578 L 30.027344 25.84375 L 33.876953 22.091797 A 1.50015 1.50015 0 0 0 33.044922 19.533203 L 27.724609 18.759766 L 25.345703 13.939453 A 1.50015 1.50015 0 0 0 24.017578 13.103516 z M 24 17.994141 L 25.382812 20.794922 A 1.50015 1.50015 0 0 0 26.511719 21.615234 L 29.605469 22.064453 L 27.367188 24.246094 A 1.50015 1.50015 0 0 0 26.9375 25.574219 L 27.464844 28.65625 L 24.697266 27.201172 A 1.50015 1.50015 0 0 0 23.302734 27.201172 L 20.535156 28.65625 L 21.0625 25.574219 A 1.50015 1.50015 0 0 0 20.632812 24.246094 L 18.394531 22.064453 L 21.488281 21.615234 A 1.50015 1.50015 0 0 0 22.617188 20.794922 L 24 17.994141 z"/></svg>