<svg xmlns="http://www.w3.org/2000/svg"  viewBox="0 0 48 48" width="64px" height="64px" fill="#7979d4"><path d="M 3.5 6 A 1.50015 1.50015 0 1 0 3.5 9 L 6.2558594 9 C 6.9837923 9 7.5905865 9.5029243 7.7285156 10.21875 L 8.0234375 11.765625 C 8.0242629 11.770214 8.0245217 11.774711 8.0253906 11.779297 L 8.8300781 16 L 11.884766 16 L 11.3125 13 L 42.6875 13 L 39.800781 28.154297 C 39.487781 29.803297 38.040328 31 36.361328 31 L 17.638672 31 C 15.960672 31 14.512219 29.803297 14.199219 28.154297 L 14.169922 28 L 11.115234 28 L 11.253906 28.716797 C 11.836906 31.777797 14.522672 34 17.638672 34 L 36.361328 34 C 39.479328 34 42.165047 31.777797 42.748047 28.716797 L 45.974609 11.779297 C 46.057609 11.341297 45.94025 10.888922 45.65625 10.544922 C 45.37125 10.199922 44.947 10 44.5 10 L 10.740234 10 L 10.675781 9.6582031 C 10.272657 7.5455321 8.4069705 6 6.2558594 6 L 3.5 6 z M 3.5 18 A 1.50015 1.50015 0 1 0 3.5 21 L 16.5 21 A 1.50015 1.50015 0 1 0 16.5 18 L 3.5 18 z M 5.5 23 A 1.50015 1.50015 0 1 0 5.5 26 L 18.5 26 A 1.50015 1.50015 0 1 0 18.5 23 L 5.5 23 z M 20 36 A 3 3 0 0 0 20 42 A 3 3 0 0 0 20 36 z M 34 36 A 3 3 0 0 0 34 42 A 3 3 0 0 0 34 36 z"/></svg>