<svg xmlns="http://www.w3.org/2000/svg"  viewBox="0 0 48 48" width="64px" height="64px" fill="#7979d4"><path d="M 10 6 A 4 4 0 0 0 6 10 L 6 38 A 4 4 0 0 0 10 42 L 38 42 A 4 4 0 0 0 42 38 L 42 10 A 4 4 0 0 0 38 6 L 10 6 z M 10 9 L 23.464844 9 L 18.181641 17.980469 A 1.341 1.341 0 0 0 19.337891 20 L 25.992188 20 L 19.992188 29 L 17.009766 29 A 1 1 0 0 0 16.089844 30.394531 L 18.289062 35.40625 A 1 1 0 0 0 19.78125 35.830078 L 27.568359 30.818359 A 1 1 0 0 0 26.992188 29 L 23.992188 29 L 30.804688 18.779297 A 1.145 1.145 0 0 0 29.853516 17 L 22.992188 17 L 27.564453 9 L 38 9 A 1 1 0 0 1 39 10 L 39 38 A 1 1 0 0 1 38 39 L 10 39 A 1 1 0 0 1 9 38 L 9 10 A 1 1 0 0 1 10 9 z"/></svg>