<svg xmlns="http://www.w3.org/2000/svg"  viewBox="0 0 48 48" width="64px" height="64px" fill="#7979d4"><path d="M 18.476562 7.9785156 A 1.50015 1.50015 0 0 0 18.257812 8 L 5.5 8 C 3.0324991 8 1 10.032499 1 12.5 C 1 14.967501 3.0324991 17 5.5 17 L 10 17 L 10 35.5 C 10 39.071938 12.928062 42 16.5 42 L 31.5 42 C 35.071938 42 38 39.071938 38 35.5 L 38 17 L 42.5 17 C 44.967501 17 47 14.967501 47 12.5 C 47 10.032499 44.967501 8 42.5 8 L 18.746094 8 A 1.50015 1.50015 0 0 0 18.476562 7.9785156 z M 5.5 11 L 10 11 L 10 14 L 5.5 14 C 4.6535009 14 4 13.346499 4 12.5 C 4 11.653501 4.6535009 11 5.5 11 z M 13 11 L 17 11 L 17 19.5 A 1.50015 1.50015 0 1 0 20 19.5 L 20 11 L 35 11 L 35 35.5 C 35 37.450062 33.450062 39 31.5 39 L 16.5 39 C 14.549938 39 13 37.450062 13 35.5 L 13 11 z M 38 11 L 42.5 11 C 43.346499 11 44 11.653501 44 12.5 C 44 13.346499 43.346499 14 42.5 14 L 38 14 L 38 11 z M 29.476562 12.978516 A 1.50015 1.50015 0 0 0 28 14.5 L 28 17.5 A 1.50015 1.50015 0 1 0 31 17.5 L 31 14.5 A 1.50015 1.50015 0 0 0 29.476562 12.978516 z M 29.476562 20.978516 A 1.50015 1.50015 0 0 0 28 22.5 L 28 25.5 A 1.50015 1.50015 0 1 0 31 25.5 L 31 22.5 A 1.50015 1.50015 0 0 0 29.476562 20.978516 z M 19 27 C 17.895 27 17 27.895 17 29 L 17 33 C 17 34.105 17.895 35 19 35 L 21 35 C 22.105 35 23 34.105 23 33 L 23 29 C 23 27.895 22.105 27 21 27 L 19 27 z M 29.476562 28.978516 A 1.50015 1.50015 0 0 0 28 30.5 L 28 33.5 A 1.50015 1.50015 0 1 0 31 33.5 L 31 30.5 A 1.50015 1.50015 0 0 0 29.476562 28.978516 z"/></svg>