<svg xmlns="http://www.w3.org/2000/svg"  viewBox="0 0 48 48" width="64px" height="64px" fill="#7979d4"><path d="M 12.5 0 C 10.585045 0 9 1.5850452 9 3.5 L 9 16.792969 C 4.8466879 20.334746 3 26.579712 3 33.5 L 3 38.5 C 3 41.519774 5.4802259 44 8.5 44 L 17.5 44 A 1.50015 1.50015 0 0 0 17.802734 43.972656 C 19.65498 45.247058 21.755899 46 24 46 C 26.319436 46 28.514655 45.271772 30.453125 44 A 1.50015 1.50015 0 0 0 30.5 44 L 39.5 44 C 42.519774 44 45 41.519774 45 38.5 L 45 33.5 C 45 26.202945 42.948363 21.058233 39 16.898438 L 39 3.5 C 39 1.5850452 37.414955 0 35.5 0 L 12.5 0 z M 12.5 3 L 35.5 3 C 35.795045 3 36 3.2049548 36 3.5 L 36 17 L 25.722656 17 A 1.50015 1.50015 0 0 0 25.472656 16.984375 A 1.50015 1.50015 0 0 0 25.298828 17 L 22.685547 17 A 1.50015 1.50015 0 0 0 22.480469 16.984375 A 1.50015 1.50015 0 0 0 22.28125 17 L 12 17 L 12 3.5 C 12 3.2049548 12.204955 3 12.5 3 z M 23.5 6 C 22.672 6 22 6.672 22 7.5 L 22 9 L 20.5 9 C 19.672 9 19 9.672 19 10.5 C 19 11.328 19.672 12 20.5 12 L 22 12 L 22 13.5 C 22 14.328 22.672 15 23.5 15 C 24.328 15 25 14.328 25 13.5 L 25 12 L 26.5 12 C 27.328 12 28 11.328 28 10.5 C 28 9.672 27.328 9 26.5 9 L 25 9 L 25 7.5 C 25 6.672 24.328 6 23.5 6 z M 10.068359 19.935547 A 1.50015 1.50015 0 0 0 10.5 20 L 21.734375 20 C 19.874757 21.509144 17.17722 23.247278 14.046875 23.78125 C 11.870681 24.1521 10.184155 25.9628 10.029297 28.175781 A 1.50015 1.50015 0 0 0 10.005859 28.636719 A 1.50015 1.50015 0 0 0 10.025391 28.802734 C 10.482224 33.510833 12.077635 37.707787 14.484375 40.810547 C 14.535549 40.87652 14.592555 40.934998 14.644531 41 L 8.5 41 C 7.1017741 41 6 39.898226 6 38.5 L 6 33.5 C 6 27.74989 7.4743236 22.828878 10.068359 19.935547 z M 37.744141 19.978516 C 40.616882 23.393802 42 27.35014 42 33.5 L 42 38.5 C 42 39.898226 40.898226 41 39.5 41 L 33.757812 41 C 36.339142 37.852725 37.962869 33.480899 37.994141 28.640625 A 1.50015 1.50015 0 0 0 38 28.5 A 1.50015 1.50015 0 0 0 37.970703 28.185547 C 37.820175 25.968123 36.132513 24.152644 33.953125 23.78125 C 30.82278 23.247278 28.125243 21.509144 26.265625 20 L 37.5 20 A 1.50015 1.50015 0 0 0 37.744141 19.978516 z M 24 22.0625 C 26.12381 23.863852 29.384685 26.044956 33.449219 26.738281 C 34.370106 26.895211 35 27.613069 35 28.5 C 35 36.844 29.534751 43 24 43 C 21.36174 43 18.872123 41.570566 16.855469 38.970703 C 14.852249 36.388162 13.403696 32.677567 13.003906 28.447266 C 13.028826 27.585225 13.64859 26.892025 14.550781 26.738281 C 18.615315 26.044956 21.87619 23.863852 24 22.0625 z M 19 28 A 2 2 0 0 0 19 32 A 2 2 0 0 0 19 28 z M 29 28 A 2 2 0 0 0 29 32 A 2 2 0 0 0 29 28 z"/></svg>