<svg xmlns="http://www.w3.org/2000/svg"  viewBox="0 0 48 48" width="64px" height="64px" fill="#7979d4"><path d="M 10 6 A 4 4 0 0 0 10 14 A 4 4 0 0 0 10 6 z M 14.462891 6 C 15.203891 6.826 15.718156 7.857 15.910156 9 L 39 9 L 39 28 L 16 28 L 16 31 L 42.5 31 C 43.328 31 44 30.329 44 29.5 C 44 28.671 43.328 28 42.5 28 L 42 28 L 42 7.5 C 42 6.671 41.328 6 40.5 6 L 14.462891 6 z M 8 16 C 6.343 16 5 17.343 5 19 L 5 31 L 14 31 L 14 19 L 24.5 19 A 1.50015 1.50015 0 1 0 24.5 16 L 14 16 L 9 16 L 8 16 z M 9 34 A 4 4 0 0 0 9 42 A 4 4 0 0 0 9 34 z M 19 34 A 4 4 0 0 0 19 42 A 4 4 0 0 0 19 34 z M 29 34 A 4 4 0 0 0 29 42 A 4 4 0 0 0 29 34 z M 39 34 A 4 4 0 0 0 39 42 A 4 4 0 0 0 39 34 z"/></svg>