<svg xmlns="http://www.w3.org/2000/svg"  viewBox="0 0 48 48" width="64px" height="64px" fill="#7979d4"><path d="M 34.5 6 A 1.50015 1.50015 0 0 0 33.667969 6.2519531 L 30 8.6972656 L 30 8.5 A 1.50015 1.50015 0 1 0 27 8.5 L 27 10 L 16.599609 10 C 16.395525 9.4994394 16.122381 9.0209794 15.746094 8.5976562 C 14.887852 7.6321335 13.541666 7 12 7 C 10.458334 7 9.1121485 7.6321335 8.2539062 8.5976562 C 7.3956642 9.5631791 7 10.791667 7 12 C 7 13.208333 7.3956642 14.436821 8.2539062 15.402344 C 8.5103886 15.690887 8.8145585 15.944996 9.1503906 16.166016 L 16.322266 29.316406 C 16.883266 28.386406 17.594641 27.576922 18.431641 26.919922 L 12.972656 16.908203 C 14.039452 16.715404 14.961623 16.213657 15.626953 15.521484 L 21.068359 25.498047 C 21.992359 25.185047 22.974 25 24 25 C 24.076 25 24.147656 25.013625 24.222656 25.015625 L 17.667969 13 L 27 13 L 27 14.5 A 1.50015 1.50015 0 1 0 30 14.5 L 30 14.302734 L 33.667969 16.748047 A 1.50015 1.50015 0 0 0 34.5 17 L 40.5 17 A 1.50015 1.50015 0 1 0 40.5 14 L 34.955078 14 L 31.205078 11.5 L 34.955078 9 L 40.5 9 A 1.50015 1.50015 0 1 0 40.5 6 L 34.5 6 z M 12 10 C 12.791666 10 13.195482 10.242867 13.503906 10.589844 C 13.714797 10.827096 13.86287 11.148896 13.939453 11.5 A 1.50015 1.50015 0 0 0 13.988281 11.873047 C 13.990358 11.911075 13.997819 11.94803 13.998047 11.986328 C 13.996087 12.005137 13.997343 12.024071 13.996094 12.042969 C 13.986334 12.568932 13.80405 13.072495 13.503906 13.410156 C 13.195482 13.757133 12.791666 14 12 14 C 11.672256 14 11.422579 13.950358 11.207031 13.876953 C 11.051747 13.743554 10.87327 13.644616 10.681641 13.583984 C 10.617203 13.528428 10.552395 13.473495 10.496094 13.410156 C 10.18767 13.063179 10 12.541667 10 12 C 10 11.458333 10.18767 10.936821 10.496094 10.589844 C 10.804518 10.242867 11.208334 10 12 10 z M 24 27 C 20.861758 27 18.299 29.136347 17.419922 32 L 11.5 32 C 8.4802259 32 6 34.480226 6 37.5 L 6 39.5 C 6 41.414955 7.5850452 43 9.5 43 L 38.5 43 C 40.414955 43 42 41.414955 42 39.5 L 42 37.5 C 42 34.480226 39.519774 32 36.5 32 L 30.580078 32 C 29.701 29.136347 27.138242 27 24 27 z M 24 30 C 26.103228 30 27.796014 31.591178 27.980469 33.634766 A 1.50015 1.50015 0 0 0 29.474609 35 L 36.5 35 C 37.898226 35 39 36.101774 39 37.5 L 39 39.5 C 39 39.795045 38.795045 40 38.5 40 L 9.5 40 C 9.2049548 40 9 39.795045 9 39.5 L 9 37.5 C 9 36.101774 10.101774 35 11.5 35 L 18.525391 35 A 1.50015 1.50015 0 0 0 20.019531 33.634766 C 20.203986 31.591178 21.896772 30 24 30 z M 24 32 A 2 2 0 0 0 24 36 A 2 2 0 0 0 24 32 z"/></svg>