<svg xmlns="http://www.w3.org/2000/svg"  viewBox="0 0 48 48" width="64px" height="64px" fill="#7979d4"><path d="M 7.5 7 C 5.5850452 7 4 8.5850452 4 10.5 L 4 37.5 C 4 39.414955 5.5850452 41 7.5 41 L 40.5 41 C 42.414955 41 44 39.414955 44 37.5 L 44 10.5 C 44 8.5850452 42.414955 7 40.5 7 L 7.5 7 z M 7.5 10 L 10 10 L 10 34.5 A 1.50015 1.50015 0 1 0 13 34.5 L 13 10 L 40.5 10 C 40.795045 10 41 10.204955 41 10.5 L 41 37.5 C 41 37.795045 40.795045 38 40.5 38 L 7.5 38 C 7.2049548 38 7 37.795045 7 37.5 L 7 10.5 C 7 10.204955 7.2049548 10 7.5 10 z M 27 12 C 20.390347 12 15 17.390352 15 24 C 15 30.609648 20.390347 36 27 36 C 33.609653 36 39 30.609648 39 24 C 39 17.390352 33.609653 12 27 12 z M 27 15 C 31.988334 15 36 19.011669 36 24 C 36 28.988331 31.988334 33 27 33 C 22.011666 33 18 28.988331 18 24 C 18 19.011669 22.011666 15 27 15 z M 27 22 A 2 2 0 0 0 27 26 A 2 2 0 0 0 27 22 z"/></svg>