<svg xmlns="http://www.w3.org/2000/svg"  viewBox="0 0 48 48" width="64px" height="64px" fill="#7979d4"><path d="M 10.980469 7.0332031 A 1.50015 1.50015 0 0 0 9.8457031 7.5917969 C 3.3859589 15.372739 3.3859589 26.678042 9.8457031 34.458984 A 1.5006838 1.5006838 0 1 0 12.154297 32.541016 C 6.6046697 25.856335 6.6046697 16.192493 12.154297 9.5078125 A 1.50015 1.50015 0 0 0 10.980469 7.0332031 z M 36.974609 7.0332031 A 1.50015 1.50015 0 0 0 35.845703 9.5078125 C 41.39533 16.192493 41.39533 25.856335 35.845703 32.541016 A 1.5006838 1.5006838 0 1 0 38.154297 34.458984 C 44.614041 26.678042 44.614041 15.372739 38.154297 7.5917969 A 1.50015 1.50015 0 0 0 36.974609 7.0332031 z M 15.052734 11.962891 A 1.50015 1.50015 0 0 0 13.798828 12.582031 C 10.077539 17.556148 10.077539 24.404789 13.798828 29.378906 A 1.50015 1.50015 0 1 0 16.201172 27.582031 C 13.269097 23.662829 13.269097 18.298108 16.201172 14.378906 A 1.50015 1.50015 0 0 0 15.052734 11.962891 z M 33.048828 11.962891 A 1.50015 1.50015 0 0 0 32.898438 11.964844 A 1.50015 1.50015 0 0 0 31.800781 14.380859 C 34.743396 18.294532 34.743396 23.664452 31.800781 27.578125 A 1.5001962 1.5001962 0 1 0 34.199219 29.380859 C 37.936634 24.410102 37.936634 17.548882 34.199219 12.578125 A 1.50015 1.50015 0 0 0 33.048828 11.962891 z M 24 17 A 4 4 0 0 0 21.052734 23.701172 L 15.074219 42.035156 A 1.50015 1.50015 0 1 0 17.925781 42.964844 L 23.787109 24.992188 A 4 4 0 0 0 24 25 A 4 4 0 0 0 24.212891 24.990234 L 30.074219 42.964844 A 1.50015 1.50015 0 1 0 32.925781 42.035156 L 26.947266 23.699219 A 4 4 0 0 0 24 17 z"/></svg>