<svg xmlns="http://www.w3.org/2000/svg"  viewBox="0 0 48 48" width="64px" height="64px" fill="#7979d4"><path d="M 4.4765625 6.9785156 A 1.50015 1.50015 0 0 0 3 8.5 L 3 27.5 L 3 33.5 C 3 35.967501 5.0324991 38 7.5 38 L 8.2148438 38 C 8.8742369 40.298413 11.000264 42 13.5 42 C 15.999736 42 18.125763 40.298413 18.785156 38 L 30.214844 38 C 30.874237 40.298413 33.000264 42 35.5 42 C 37.999736 42 40.125763 40.298413 40.785156 38 L 41.5 38 C 43.967501 38 46 35.967501 46 33.5 L 46 27.136719 C 46 26.505308 45.866775 25.885098 45.613281 25.3125 A 1.50015 1.50015 0 0 0 45.611328 25.310547 L 42.662109 18.673828 L 42.662109 18.671875 C 41.941923 17.05033 40.324799 16 38.550781 16 L 32.5 16 C 32.328862 16 32.164972 16.026358 32 16.050781 L 32 8.5 A 1.50015 1.50015 0 1 0 29 8.5 L 29 9 L 6 9 L 6 8.5 A 1.50015 1.50015 0 0 0 4.4765625 6.9785156 z M 6 12 L 29 12 L 29 26 L 6 26 L 6 12 z M 11.476562 13.978516 A 1.50015 1.50015 0 0 0 10 15.5 L 10 22.5 A 1.50015 1.50015 0 1 0 13 22.5 L 13 15.5 A 1.50015 1.50015 0 0 0 11.476562 13.978516 z M 17.476562 13.978516 A 1.50015 1.50015 0 0 0 16 15.5 L 16 22.5 A 1.50015 1.50015 0 1 0 19 22.5 L 19 15.5 A 1.50015 1.50015 0 0 0 17.476562 13.978516 z M 23.476562 13.978516 A 1.50015 1.50015 0 0 0 22 15.5 L 22 22.5 A 1.50015 1.50015 0 1 0 25 22.5 L 25 15.5 A 1.50015 1.50015 0 0 0 23.476562 13.978516 z M 32.5 19 L 38.550781 19 C 39.148248 19 39.677843 19.345067 39.919922 19.890625 L 41.746094 24 L 32 24 L 32 19.5 C 32 19.204955 32.204955 19 32.5 19 z M 32 27 L 42.986328 27 C 42.990597 27.045531 43 27.091276 43 27.136719 L 43 33.5 C 43 34.346499 42.346499 35 41.5 35 L 40.785156 35 C 40.125763 32.701587 37.999736 31 35.5 31 C 34.174012 31 32.953662 31.479254 32 32.271484 L 32 27.5 L 32 27 z M 6 29 L 29 29 L 29 35 L 18.785156 35 C 18.125763 32.701587 15.999736 31 13.5 31 C 11.000264 31 8.8742369 32.701587 8.2148438 35 L 7.5 35 C 6.6535009 35 6 34.346499 6 33.5 L 6 29 z M 13.5 34 C 14.848747 34 15.91448 35.032799 15.986328 36.361328 A 1.50015 1.50015 0 0 0 15.986328 36.638672 C 15.91448 37.967201 14.848747 39 13.5 39 C 12.151253 39 11.08552 37.967201 11.013672 36.638672 A 1.50015 1.50015 0 0 0 11.013672 36.361328 C 11.08552 35.032799 12.151253 34 13.5 34 z M 35.5 34 C 36.896406 34 38 35.103594 38 36.5 C 38 37.896406 36.896406 39 35.5 39 C 34.103594 39 33 37.896406 33 36.5 C 33 35.103594 34.103594 34 35.5 34 z"/></svg>