<svg xmlns="http://www.w3.org/2000/svg"  viewBox="0 0 48 48" width="64px" height="64px"><path d="M 12.5 4 C 10.02 4 8 6.02 8 8.5 L 8 39.5 C 8 41.98 10.02 44 12.5 44 L 25.630859 44 C 24.770859 43.12 24.050703 42.11 23.470703 41 L 12.5 41 C 11.67 41 11 40.33 11 39.5 L 11 8.5 C 11 7.67 11.67 7 12.5 7 L 35.5 7 C 36.33 7 37 7.67 37 8.5 L 37 22.150391 C 38.04 22.320391 39.05 22.6 40 23 L 40 8.5 C 40 6.02 37.98 4 35.5 4 L 12.5 4 z M 24 10 A 3.5 3.5 0 1 0 24 17 A 3.5 3.5 0 1 0 24 10 z M 19.5 19 C 18.672 19 18 19.672 18 20.5 L 18 21.5 C 18 23.433 20.686 25 24 25 C 27.314 25 30 23.433 30 21.5 L 30 20.5 C 30 19.672 29.328 19 28.5 19 L 19.5 19 z M 35 24 C 28.925 24 24 28.925 24 35 C 24 41.075 28.925 46 35 46 C 41.075 46 46 41.075 46 35 C 46 28.925 41.075 24 35 24 z M 16.5 28 C 15.67 28 15 28.67 15 29.5 C 15 30.33 15.67 31 16.5 31 L 22.640625 31 C 22.980625 29.93 23.460781 28.93 24.050781 28 L 16.5 28 z M 36 29 C 36.25575 29 36.511531 29.097469 36.707031 29.292969 L 41.707031 34.292969 C 42.098031 34.683969 42.098031 35.316031 41.707031 35.707031 L 36.707031 40.707031 C 36.316031 41.098031 35.683969 41.098031 35.292969 40.707031 C 35.097969 40.512031 35 40.256 35 40 C 35 39.744 35.097969 39.487969 35.292969 39.292969 L 38.585938 36 L 28 36 C 27.448 36 27 35.553 27 35 C 27 34.447 27.448 34 28 34 L 38.585938 34 L 35.292969 30.707031 C 34.901969 30.316031 34.901969 29.683969 35.292969 29.292969 C 35.488469 29.097469 35.74425 29 36 29 z M 16.5 34 C 15.67 34 15 34.67 15 35.5 C 15 36.33 15.67 37 16.5 37 L 22.150391 37 C 22.050391 36.34 22 35.68 22 35 C 22 34.66 22.010781 34.33 22.050781 34 L 16.5 34 z"/></svg>