<svg xmlns="http://www.w3.org/2000/svg"  viewBox="0 0 64 64" width="64px" height="64px"><linearGradient id="SQDvm9bnQhD8ackOT0jdQa" x1="32" x2="32" y1="6.167" y2="57.445" gradientUnits="userSpaceOnUse" spreadMethod="reflect"><stop offset="0" stop-color="#1a6dff"/><stop offset="1" stop-color="#c822ff"/></linearGradient><path fill="url(#SQDvm9bnQhD8ackOT0jdQa)" d="M55,17h-9v-7c0-1.654-1.346-3-3-3H9c-1.654,0-3,1.346-3,3v34.845 c0,0.859,0.504,1.611,1.314,1.963c0.292,0.127,0.599,0.189,0.905,0.189c0.577,0,1.15-0.222,1.615-0.659L16.606,39H18v7 c0,1.654,1.345,3,3,3h26.393l6.823,7.391c0.427,0.399,0.982,0.608,1.55,0.608c0.31,0,0.623-0.063,0.921-0.191 C57.497,56.456,58,55.704,58,54.845V20C58,18.346,56.654,17,55,17z M15.731,37l-7.315,7.931c-0.117,0.11-0.264,0.062-0.307,0.042 C8,44.925,8,44.864,8,44.845V10c0-0.552,0.448-1,1-1h34c0.552,0,1,0.448,1,1v26c0,0.552-0.449,1-1,1H15.731z M56,54.845 c0,0.02,0,0.08-0.11,0.128c-0.043,0.018-0.19,0.067-0.256,0.01L48.267,47H21c-0.552,0-1-0.448-1-1v-7h23c1.654,0,3-1.346,3-3V19h9 c0.552,0,1,0.448,1,1V54.845z"/><linearGradient id="SQDvm9bnQhD8ackOT0jdQb" x1="21" x2="21" y1="6.167" y2="57.445" gradientUnits="userSpaceOnUse" spreadMethod="reflect"><stop offset="0" stop-color="#1a6dff"/><stop offset="1" stop-color="#c822ff"/></linearGradient><path fill="url(#SQDvm9bnQhD8ackOT0jdQb)" d="M25.891,24.464C26.586,23.484,27,22.291,27,21v-2c0-3.309-2.691-6-6-6s-6,2.691-6,6v2 c0,1.292,0.415,2.486,1.112,3.467C13.569,26.119,12,28.941,12,32v1h18v-1C30,28.897,28.424,26.101,25.891,24.464z M17,19 c0-2.206,1.794-4,4-4s4,1.794,4,4v2c0,2.206-1.794,4-4,4s-4-1.794-4-4V19z M14.072,31c0.307-2.127,1.584-4.017,3.486-5.094 C18.533,26.593,19.719,27,21,27c1.282,0,2.469-0.407,3.445-1.095c1.896,1.067,3.179,2.943,3.485,5.095H14.072z"/><linearGradient id="SQDvm9bnQhD8ackOT0jdQc" x1="35" x2="35" y1="6.167" y2="57.445" gradientUnits="userSpaceOnUse" spreadMethod="reflect"><stop offset="0" stop-color="#1a6dff"/><stop offset="1" stop-color="#c822ff"/></linearGradient><path fill="url(#SQDvm9bnQhD8ackOT0jdQc)" d="M32 22H38V24H32z"/><linearGradient id="SQDvm9bnQhD8ackOT0jdQd" x1="36" x2="36" y1="6.167" y2="57.445" gradientUnits="userSpaceOnUse" spreadMethod="reflect"><stop offset="0" stop-color="#1a6dff"/><stop offset="1" stop-color="#c822ff"/></linearGradient><path fill="url(#SQDvm9bnQhD8ackOT0jdQd)" d="M32 18H40V20H32z"/><linearGradient id="SQDvm9bnQhD8ackOT0jdQe" x1="36" x2="36" y1="6.167" y2="57.445" gradientUnits="userSpaceOnUse" spreadMethod="reflect"><stop offset="0" stop-color="#1a6dff"/><stop offset="1" stop-color="#c822ff"/></linearGradient><path fill="url(#SQDvm9bnQhD8ackOT0jdQe)" d="M32 14H40V16H32z"/><linearGradient id="SQDvm9bnQhD8ackOT0jdQf" x1="35" x2="35" y1="25.5" y2="31.835" gradientUnits="userSpaceOnUse" spreadMethod="reflect"><stop offset="0" stop-color="#6dc7ff"/><stop offset="1" stop-color="#e6abff"/></linearGradient><path fill="url(#SQDvm9bnQhD8ackOT0jdQf)" d="M38,30c0,0.552-0.448,1-1,1h-4c-0.552,0-1-0.448-1-1v-3c0-0.552,0.448-1,1-1h4 c0.552,0,1,0.448,1,1V30z"/></svg>