<svg xmlns="http://www.w3.org/2000/svg"  viewBox="0 0 64 64" width="64px" height="64px"><linearGradient id="0RiSa85Awe0gWVb3EqXOba" x1="49" x2="49" y1="41.149" y2="56.043" gradientUnits="userSpaceOnUse"><stop offset="0" stop-color="#6dc7ff"/><stop offset="1" stop-color="#e6abff"/></linearGradient><rect width="2" height="16" x="48" y="41" fill="url(#0RiSa85Awe0gWVb3EqXOba)"/><linearGradient id="0RiSa85Awe0gWVb3EqXObb" x1="32" x2="32" y1="32.277" y2="55.239" gradientUnits="userSpaceOnUse"><stop offset="0" stop-color="#6dc7ff"/><stop offset="1" stop-color="#e6abff"/></linearGradient><rect width="2" height="25" x="31" y="32" fill="url(#0RiSa85Awe0gWVb3EqXObb)"/><linearGradient id="0RiSa85Awe0gWVb3EqXObc" x1="32" x2="32" y1="8.34" y2="12.253" gradientUnits="userSpaceOnUse"><stop offset="0" stop-color="#6dc7ff"/><stop offset="1" stop-color="#e6abff"/></linearGradient><path fill="url(#0RiSa85Awe0gWVb3EqXObc)" d="M30.908,7.556l-2.806,4.522C27.828,12.477,28.138,13,28.648,13h6.703	c0.511,0,0.82-0.523,0.546-0.922l-2.806-4.522C32.583,6.815,31.417,6.815,30.908,7.556z"/><linearGradient id="0RiSa85Awe0gWVb3EqXObd" x1="15" x2="15" y1="24.234" y2="27.9" gradientUnits="userSpaceOnUse"><stop offset="0" stop-color="#6dc7ff"/><stop offset="1" stop-color="#e6abff"/></linearGradient><path fill="url(#0RiSa85Awe0gWVb3EqXObd)" d="M13.908,23.556l-2.806,4.522C10.828,28.477,11.138,29,11.648,29h6.703	c0.511,0,0.82-0.523,0.546-0.922l-2.806-4.522C15.583,22.815,14.417,22.815,13.908,23.556z"/><linearGradient id="0RiSa85Awe0gWVb3EqXObe" x1="49" x2="49" y1="16.894" y2="20.927" gradientUnits="userSpaceOnUse"><stop offset="0" stop-color="#6dc7ff"/><stop offset="1" stop-color="#e6abff"/></linearGradient><path fill="url(#0RiSa85Awe0gWVb3EqXObe)" d="M47.908,16.556l-2.806,4.522C44.828,21.477,45.138,22,45.648,22h6.703	c0.511,0,0.82-0.523,0.546-0.922l-2.806-4.522C49.583,15.815,48.417,15.815,47.908,16.556z"/><linearGradient id="0RiSa85Awe0gWVb3EqXObf" x1="32.001" x2="32.001" y1="6.106" y2="60.066" gradientUnits="userSpaceOnUse"><stop offset="0" stop-color="#1a6dff"/><stop offset="1" stop-color="#c822ff"/></linearGradient><path fill="url(#0RiSa85Awe0gWVb3EqXObf)" d="M28.648,14H31v6h2v-6h2.352c0.622,0,1.184-0.333,1.467-0.871 c0.271-0.515,0.235-1.134-0.071-1.579l-2.831-4.561C33.491,6.37,32.774,6,32,6s-1.491,0.37-1.917,0.989 c-0.009,0.013-0.018,0.026-0.025,0.039l-2.781,4.484c-0.33,0.482-0.367,1.102-0.095,1.616C27.465,13.667,28.027,14,28.648,14z M31.74,8.11C31.82,8.008,31.958,8,32,8c0.043,0,0.19,0.009,0.243,0.083L34.674,12h-5.347L31.74,8.11z"/><linearGradient id="0RiSa85Awe0gWVb3EqXObg" x1="32" x2="32" y1="6.106" y2="60.066" gradientUnits="userSpaceOnUse"><stop offset="0" stop-color="#1a6dff"/><stop offset="1" stop-color="#c822ff"/></linearGradient><path fill="url(#0RiSa85Awe0gWVb3EqXObg)" d="M56,56V33c0-1.103-0.897-2-2-2H44c-1.103,0-2,0.897-2,2v23h-3V24c0-1.103-0.897-2-2-2H27 c-1.103,0-2,0.897-2,2v32h-3V40c0-1.103-0.897-2-2-2H10c-1.103,0-2,0.897-2,2v16H6v2h3h12h5h12h6h10h4v-2H56z M37,24v2H27v-2H37z M20,40v2H10v-2H20z M10,56V44h10v12H10z M27,56V28h10v28H27z M54,33l0,2H44v-2H54z M44,56V37h10l0.001,19H44z"/><linearGradient id="0RiSa85Awe0gWVb3EqXObh" x1="15.001" x2="15.001" y1="6.106" y2="60.066" gradientUnits="userSpaceOnUse"><stop offset="0" stop-color="#1a6dff"/><stop offset="1" stop-color="#c822ff"/></linearGradient><path fill="url(#0RiSa85Awe0gWVb3EqXObh)" d="M11.648,30H14v6h2v-6h2.352c0.622,0,1.184-0.333,1.467-0.871 c0.271-0.515,0.235-1.134-0.071-1.579l-2.831-4.561C16.491,22.37,15.774,22,15,22s-1.491,0.37-1.917,0.989 c-0.009,0.013-0.018,0.026-0.025,0.039l-2.781,4.484c-0.33,0.482-0.367,1.102-0.095,1.616C10.465,29.667,11.027,30,11.648,30z M14.74,24.11C14.82,24.008,14.958,24,15,24c0.043,0,0.19,0.009,0.243,0.083L17.674,28h-5.347L14.74,24.11z"/><linearGradient id="0RiSa85Awe0gWVb3EqXObi" x1="49.001" x2="49.001" y1="6.106" y2="60.066" gradientUnits="userSpaceOnUse"><stop offset="0" stop-color="#1a6dff"/><stop offset="1" stop-color="#c822ff"/></linearGradient><path fill="url(#0RiSa85Awe0gWVb3EqXObi)" d="M45.648,23H48v6h2v-6h2.352c0.622,0,1.184-0.333,1.467-0.871 c0.271-0.515,0.235-1.134-0.071-1.579l-2.831-4.561C50.491,15.37,49.774,15,49,15s-1.491,0.37-1.917,0.989 c-0.009,0.013-0.018,0.026-0.025,0.039l-2.781,4.484c-0.33,0.482-0.367,1.102-0.095,1.616C44.465,22.667,45.027,23,45.648,23z M48.74,17.11C48.82,17.008,48.958,17,49,17c0.043,0,0.19,0.009,0.243,0.083L51.674,21h-5.347L48.74,17.11z"/><linearGradient id="0RiSa85Awe0gWVb3EqXObj" x1="15" x2="15" y1="47.979" y2="55.896" gradientUnits="userSpaceOnUse"><stop offset="0" stop-color="#6dc7ff"/><stop offset="1" stop-color="#e6abff"/></linearGradient><rect width="2" height="8" x="14" y="48" fill="url(#0RiSa85Awe0gWVb3EqXObj)"/></svg>