<svg xmlns="http://www.w3.org/2000/svg"  viewBox="0 0 64 64" width="64px" height="64px"><linearGradient id="SVGID_1_" x1="17" x2="17" y1="27.596" y2="33.781" gradientUnits="userSpaceOnUse"><stop offset="0" stop-color="#6dc7ff"/><stop offset="1" stop-color="#e6abff"/></linearGradient><path fill="url(#SVGID_1_)" d="M18.8,34h-3.6c-0.7,0-1.2-0.5-1.2-1.2v-3.6c0-0.7,0.5-1.2,1.2-1.2h3.6c0.7,0,1.2,0.5,1.2,1.2v3.6	C20,33.5,19.5,34,18.8,34z"/><linearGradient id="SVGID_2_" x1="32" x2="32" y1="10.83" y2="54.461" gradientUnits="userSpaceOnUse"><stop offset="0" stop-color="#1a6dff"/><stop offset="1" stop-color="#c822ff"/></linearGradient><path fill="url(#SVGID_2_)" d="M55,15H9c-1.7,0-3,1.3-3,3v4c0,1.7,1.3,3,3,3c0.6,0,1,0.4,1,1v22c0,2.7,2.2,5,5,5H49c2.7,0,5-2.2,5-5V26 c0-0.6,0.4-1,1-1c1.7,0,3-1.3,3-3v-4C58,16.3,56.7,15,55,15z M31,17v6h2v-6h5v11.6c0,0.5-0.3,0.8-0.5,0.9c-0.1,0.1-0.5,0.3-1,0 l-3-1.7c-0.9-0.5-2.1-0.5-3,0l-3,1.7c-0.5,0.3-0.8,0.1-1,0c-0.1-0.1-0.5-0.3-0.5-0.9V17H31z M9,23c-0.6,0-1-0.4-1-1v-4 c0-0.6,0.4-1,1-1h15v6H9z M52,26v22c0,1.6-1.3,3-3,3H15c-1.6,0-3-1.3-3-3V26c0-0.4-0.1-0.7-0.2-1H24v3.6c0,1.1,0.6,2.1,1.5,2.6 c0.5,0.3,1,0.4,1.5,0.4c0.5,0,1-0.1,1.5-0.4l3-1.7c0.3-0.2,0.7-0.2,1,0l3,1.7c0.9,0.5,2.1,0.5,3,0c0.9-0.5,1.5-1.5,1.5-2.6V25h12.2 C52.1,25.3,52,25.6,52,26z M56,22c0,0.6-0.4,1-1,1H40v-6h15c0.6,0,1,0.4,1,1V22z"/><linearGradient id="SVGID_3_" x1="32" x2="32" y1="10.83" y2="54.461" gradientUnits="userSpaceOnUse"><stop offset="0" stop-color="#1a6dff"/><stop offset="1" stop-color="#c822ff"/></linearGradient><rect width="40" height="2" x="12" y="11" fill="url(#SVGID_3_)"/><linearGradient id="SVGID_4_" x1="20" x2="20" y1="10.83" y2="54.461" gradientUnits="userSpaceOnUse"><stop offset="0" stop-color="#1a6dff"/><stop offset="1" stop-color="#c822ff"/></linearGradient><rect width="12" height="2" x="14" y="47" fill="url(#SVGID_4_)"/><linearGradient id="SVGID_5_" x1="18" x2="18" y1="10.83" y2="54.461" gradientUnits="userSpaceOnUse"><stop offset="0" stop-color="#1a6dff"/><stop offset="1" stop-color="#c822ff"/></linearGradient><rect width="8" height="2" x="14" y="43" fill="url(#SVGID_5_)"/><linearGradient id="SVGID_6_" x1="41" x2="41" y1="10.83" y2="54.461" gradientUnits="userSpaceOnUse"><stop offset="0" stop-color="#1a6dff"/><stop offset="1" stop-color="#c822ff"/></linearGradient><rect width="2" height="4" x="40" y="45" fill="url(#SVGID_6_)"/><linearGradient id="SVGID_7_" x1="45" x2="45" y1="10.83" y2="54.461" gradientUnits="userSpaceOnUse"><stop offset="0" stop-color="#1a6dff"/><stop offset="1" stop-color="#c822ff"/></linearGradient><rect width="2" height="4" x="44" y="45" fill="url(#SVGID_7_)"/><linearGradient id="SVGID_8_" x1="49" x2="49" y1="10.83" y2="54.461" gradientUnits="userSpaceOnUse"><stop offset="0" stop-color="#1a6dff"/><stop offset="1" stop-color="#c822ff"/></linearGradient><rect width="2" height="4" x="48" y="45" fill="url(#SVGID_8_)"/></svg>