<svg xmlns="http://www.w3.org/2000/svg"  viewBox="0 0 64 64" width="64px" height="64px"><linearGradient id="v5zUD6SzrYzaifojGbqgDa" x1="32" x2="32" y1="47" y2="18" gradientUnits="userSpaceOnUse"><stop offset="0" stop-color="#e6abff"/><stop offset="1" stop-color="#6dc7ff"/></linearGradient><path fill="url(#v5zUD6SzrYzaifojGbqgDa)" d="M46.5,22.677c5.416,0,9.823,4.406,9.823,9.823s-4.406,9.823-9.823,9.823	c-4.259,0-8.379-3.9-10.612-7.24l-1.669-2.496l1.722-2.693C38.045,26.601,41.586,22.677,46.5,22.677 M17.5,22.677	c4.914,0,8.455,3.924,10.559,7.216l1.722,2.693l-1.669,2.496c-2.233,3.34-6.352,7.24-10.612,7.24c-5.416,0-9.823-4.406-9.823-9.823	S12.084,22.677,17.5,22.677 M46.5,18c-7.175,0-11.946,5.379-14.5,9.374C29.446,23.379,24.675,18,17.5,18C9.502,18,3,24.502,3,32.5	S9.502,47,17.5,47c6.062,0,11.385-4.659,14.5-9.317C35.115,42.341,40.438,47,46.5,47C54.498,47,61,40.498,61,32.5S54.498,18,46.5,18	L46.5,18z"/><linearGradient id="v5zUD6SzrYzaifojGbqgDb" x1="32" x2="32" y1="17" y2="48" gradientUnits="userSpaceOnUse"><stop offset="0" stop-color="#1a6dff"/><stop offset="1" stop-color="#c822ff"/></linearGradient><path fill="url(#v5zUD6SzrYzaifojGbqgDb)" d="M46.5,21.677c-5.367,0-9.163,4.175-11.402,7.677l-2.073,3.245l2.033,3.039	c2.369,3.545,6.788,7.685,11.442,7.685c5.968,0,10.822-4.855,10.822-10.823S52.468,21.677,46.5,21.677z M46.5,41.323	c-3.618,0-7.519-3.413-9.78-6.796l-1.307-1.953l1.37-2.142c1.97-3.081,5.255-6.754,9.717-6.754c4.864,0,8.822,3.958,8.822,8.823	S51.364,41.323,46.5,41.323z M17.5,21.677c-5.968,0-10.822,4.855-10.822,10.823S11.532,43.323,17.5,43.323	c4.654,0,9.073-4.14,11.442-7.684l2.033-3.04l-2.073-3.245C26.663,25.852,22.867,21.677,17.5,21.677z M27.28,34.527	c-2.262,3.383-6.162,6.796-9.78,6.796c-4.864,0-8.822-3.958-8.822-8.823s3.958-8.823,8.822-8.823c4.462,0,7.747,3.673,9.717,6.754	l1.37,2.142L27.28,34.527z M46.5,17c-6.798,0-11.538,4.413-14.5,8.584C29.038,21.413,24.298,17,17.5,17C8.953,17,2,23.953,2,32.5	S8.953,48,17.5,48c7.075,0,12.247-5.605,14.5-8.594C34.253,42.395,39.425,48,46.5,48C55.047,48,62,41.047,62,32.5S55.047,17,46.5,17	z M46.5,46c-5.703,0-10.801-4.583-13.669-8.873L32,35.884l-0.831,1.243C28.301,41.417,23.203,46,17.5,46C10.056,46,4,39.944,4,32.5	S10.056,19,17.5,19c6.579,0,11.059,4.847,13.657,8.912L32,29.23l0.843-1.318C35.441,23.847,39.921,19,46.5,19	C53.944,19,60,25.056,60,32.5S53.944,46,46.5,46z M22,31.21v1.58c0,0.276-0.224,0.5-0.5,0.5h-8c-0.276,0-0.5-0.224-0.5-0.5v-1.58	c0-0.276,0.224-0.5,0.5-0.5h8C21.776,30.71,22,30.934,22,31.21z M51,31.21v1.58c0,0.276-0.224,0.5-0.5,0.5h-2.71V36	c0,0.276-0.224,0.5-0.5,0.5h-1.58c-0.276,0-0.5-0.224-0.5-0.5v-2.71H42.5c-0.276,0-0.5-0.224-0.5-0.5v-1.58	c0-0.276,0.224-0.5,0.5-0.5h2.71V28c0-0.276,0.224-0.5,0.5-0.5h1.58c0.276,0,0.5,0.224,0.5,0.5v2.71h2.71	C50.776,30.71,51,30.934,51,31.21z"/></svg>