<svg xmlns="http://www.w3.org/2000/svg" xmlns:xlink="http://www.w3.org/1999/xlink" width="1650" height="1050" viewBox="0 0 1650 1050">
  <defs>
    <clipPath id="clip-agile">
      <rect width="1650" height="1050"/>
    </clipPath>
  </defs>
  <g id="agile" clip-path="url(#clip-agile)">
    <g id="Group_3966" data-name="Group 3966" transform="translate(-159.792 -112.304)">
      <g id="Group_3957" data-name="Group 3957" transform="translate(159.792 116.304)">
        <path id="Path_47617" data-name="Path 47617" d="M590.747,116.3c-104.308,0-188.866,84.561-188.866,188.932,0,104.308,84.558,188.866,188.866,188.866,104.371,0,188.929-84.558,188.929-188.866A188.9,188.9,0,0,0,590.747,116.3Zm0,333.487A144.588,144.588,0,1,1,735.364,305.236,144.589,144.589,0,0,1,590.747,449.791Z" transform="translate(490.607 -116.304)" fill="#2f4ccc"/>
        <g id="Group_3956" data-name="Group 3956" transform="translate(0 199.409)">
          <path id="Path_47618" data-name="Path 47618" d="M799,567.614h-.081l-67.957-50.634-68.039,50.634h-.081c0-144.182-116.917-261.1-261.018-261.1h-.317l-50.472-67.876,46.894-63.188-6.6-4.928c3.42-.081,6.836-.159,10.252-.159h.24C621.195,170.36,799,348.163,799,567.614Z" transform="translate(353.98 -170.36)" fill="#2f4ccc"/>
          <path id="Path_47619" data-name="Path 47619" d="M632.7,306.411C523.58,306.522,430.14,373.586,391.218,468.8l-81.931,20.88L265.06,417.522C322.936,275.535,460.68,174.605,622.514,170.4l6.6,4.943-46.883,63.191Z" transform="translate(123.024 -170.253)" fill="#121331"/>
          <path id="Path_47620" data-name="Path 47620" d="M617.857,645.865H352.811A395.111,395.111,0,0,1,257.12,387.788v-.406A396,396,0,0,1,286.41,237.39l44.227,72.156,81.931-20.88a260.6,260.6,0,0,0-19.293,98.716v.406C393.422,519.3,491.105,628.122,617.857,645.865Z" transform="translate(101.693 9.591)" fill="#2f4ccc"/>
          <path id="Path_47621" data-name="Path 47621" d="M1001.836,314.956A397.18,397.18,0,0,1,604.818,712.129v.635H275.6v-.4l50.631-68.113L275.6,576.214v-2.785H568.18a262.437,262.437,0,0,0,36.48,2.549h.159a260.25,260.25,0,0,0,36.325-2.549C767.994,555.7,865.677,446.655,865.677,314.956h.081L933.8,264.322l67.958,50.634Z" transform="translate(151.246 81.792)" fill="#121331"/>
          <path id="Path_47622" data-name="Path 47622" d="M637.64,418.936l-50.629,68.115v.4H159.792V348.115H587.011V350.9Z" transform="translate(-159.792 307.106)" fill="#fe4c1c"/>
          <path id="Path_47623" data-name="Path 47623" d="M1074.067,559.091V532.756a10.64,10.64,0,0,0-10.635-10.643H364.847v-.635a396.315,396.315,0,0,0,301.4-138.7h397.183a10.637,10.637,0,0,0,10.635-10.639V345.882a10.641,10.641,0,0,1,16.441-8.92l163.87,106.61a10.637,10.637,0,0,1,0,17.832l-163.87,106.607A10.641,10.641,0,0,1,1074.067,559.091Z" transform="translate(390.786 272.442)" fill="#2f4ccc"/>
        </g>
      </g>
      <g id="Group_3959" data-name="Group 3959" transform="translate(753.419 512.039)">
        <g id="Group_3958" data-name="Group 3958" transform="translate(0)">
          <path id="Rectangle_1234" data-name="Rectangle 1234" d="M3.705,0h50.75a3.7,3.7,0,0,1,3.7,3.7V71.853a3.7,3.7,0,0,1-3.7,3.7H3.706A3.706,3.706,0,0,1,0,71.853V3.705A3.705,3.705,0,0,1,3.705,0Z" transform="translate(132.479)" fill="#121331"/>
          <rect id="Rectangle_1235" data-name="Rectangle 1235" width="58.161" height="75.56" rx="3.705" transform="matrix(0.707, -0.707, 0.707, 0.707, 26.962, 67.387)" fill="#121331"/>
          <path id="Rectangle_1236" data-name="Rectangle 1236" d="M3.705,0H54.457a3.705,3.705,0,0,1,3.705,3.705V71.855a3.705,3.705,0,0,1-3.705,3.705H3.706A3.706,3.706,0,0,1,0,71.854V3.705A3.705,3.705,0,0,1,3.705,0Z" transform="translate(0 189.643) rotate(-90)" fill="#121331"/>
          <rect id="Rectangle_1237" data-name="Rectangle 1237" width="58.161" height="75.559" rx="3.705" transform="translate(67.386 295.16) rotate(-135)" fill="#121331"/>
          <rect id="Rectangle_1238" data-name="Rectangle 1238" width="58.16" height="75.559" rx="3.705" transform="translate(189.645 322.12) rotate(180)" fill="#121331"/>
          <rect id="Rectangle_1239" data-name="Rectangle 1239" width="58.161" height="75.559" rx="3.705" transform="translate(295.159 254.736) rotate(135)" fill="#121331"/>
          <path id="Rectangle_1240" data-name="Rectangle 1240" d="M3.706,0h50.75a3.706,3.706,0,0,1,3.706,3.706v68.15a3.706,3.706,0,0,1-3.706,3.706H3.705A3.705,3.705,0,0,1,0,71.857V3.706A3.706,3.706,0,0,1,3.706,0Z" transform="translate(322.124 132.475) rotate(90)" fill="#121331"/>
          <path id="Rectangle_1241" data-name="Rectangle 1241" d="M3.705,0H54.456a3.706,3.706,0,0,1,3.706,3.706V71.854a3.705,3.705,0,0,1-3.705,3.705H3.705A3.705,3.705,0,0,1,0,71.854V3.705A3.705,3.705,0,0,1,3.705,0Z" transform="matrix(0.707, 0.707, -0.707, 0.707, 254.738, 26.961)" fill="#121331"/>
        </g>
        <path id="Path_47624" data-name="Path 47624" d="M575.049,328.223A123.055,123.055,0,0,0,560.19,292.8a124.082,124.082,0,0,0-134.447-55.345,122.745,122.745,0,0,0-34.683,14.254,123.988,123.988,0,0,0-56.924,133.705,122.38,122.38,0,0,0,14.221,35.558,124.572,124.572,0,0,0,40.589,41.663,123.755,123.755,0,0,0,65.88,18.954,123.645,123.645,0,0,0,120.459-95.2,124.754,124.754,0,0,0-.236-58.163Zm-87.417,29.585A32.806,32.806,0,1,1,454.826,325,32.791,32.791,0,0,1,487.632,357.808Z" transform="translate(-293.281 -195.76)" fill="#3d3e67"/>
        <path id="Path_47625" data-name="Path 47625" d="M544.377,315.534a104.912,104.912,0,0,0-9.591-22.713,106.308,106.308,0,0,0-41.36-40.888,104.428,104.428,0,0,0-22.207-9.16,106.372,106.372,0,0,0-121.565,49.782A106.259,106.259,0,0,0,348.447,395.5a106.524,106.524,0,0,0,40.486,41.762,103.772,103.772,0,0,0,23.148,9.927,106.228,106.228,0,0,0,81.743-9.056,106.937,106.937,0,0,0,41.194-41.058,106.878,106.878,0,0,0,9.359-81.544ZM474.94,345.119a32.806,32.806,0,1,1-32.806-32.809A32.791,32.791,0,0,1,474.94,345.119Z" transform="translate(-280.589 -183.071)" fill="#121331"/>
        <path id="Path_47626" data-name="Path 47626" d="M522.284,308.972a91.4,91.4,0,0,0-8.053-18.987,93.7,93.7,0,0,0-36.561-36.229,91.217,91.217,0,0,0-19.691-8.016,93.835,93.835,0,0,0-70.473,8.149,94.077,94.077,0,0,0-35.893,35.425h-.033A91.494,91.494,0,0,0,343.19,308.9a93.716,93.716,0,0,0-.671,51.291,91.454,91.454,0,0,0,7.618,19.253,93.466,93.466,0,0,0,36.561,37.6,92.453,92.453,0,0,0,18.585,8.016,93.4,93.4,0,0,0,109.587-44.78,93.671,93.671,0,0,0,7.415-71.314Zm-89.564,59.539a32.808,32.808,0,1,1,32.806-32.806A32.813,32.813,0,0,1,432.721,368.511Z" transform="translate(-271.175 -173.657)" fill="#3d3e67"/>
        <path id="Path_47627" data-name="Path 47627" d="M402.648,253.435a52.193,52.193,0,1,0,52.195,52.195A52.208,52.208,0,0,0,402.648,253.435Zm0,85a32.808,32.808,0,1,1,32.806-32.806A32.813,32.813,0,0,1,402.648,338.435Z" transform="translate(-241.102 -143.582)" fill="#121331"/>
      </g>
      <text id="_2-4_WEEKS" data-name="2-4 WEEKS" transform="translate(914.481 901.126)" fill="#121331" font-size="39" font-family="NovemberPro-Blk, November Pro"><tspan x="-107.932" y="0">2-4 WEEKS</tspan></text>
      <text id="SPRINT_BACKLOG" data-name="SPRINT BACKLOG" transform="translate(181.404 1060.871)" fill="#fff" font-size="41" font-family="NovemberPro-Blk, November Pro"><tspan x="0" y="0">SPRINT BACKLOG</tspan></text>
      <text id="PLANNING" transform="translate(734.662 1060.871)" fill="#fff" font-size="41" font-family="NovemberPro-Blk, November Pro"><tspan x="0" y="0">PLANNING</tspan></text>
      <text id="_24_HOURS" data-name="24
HOURS" transform="translate(1236.371 280.344)" fill="#121331" font-size="51" font-family="NovemberPro-Blk, November Pro"><tspan x="-31.212" y="0">24</tspan><tspan x="-92.947" y="61">HOURS</tspan></text>
      <text id="DEFINITION_OF_DONE" data-name="DEFINITION OF DONE" transform="translate(1214.304 1061.871)" fill="#fff" font-size="41" font-family="NovemberPro-Blk, November Pro"><tspan x="0" y="0">DEFINITION OF DONE</tspan></text>
      <g id="Group_3961" data-name="Group 3961" transform="translate(946.06 395.129)">
        <g id="Group_3960" data-name="Group 3960">
          <path id="Path_47628" data-name="Path 47628" d="M374,191.937l6.518.218-.944,28.172-6.518-.221Z" transform="translate(-373.059 -191.937)" fill="#fff"/>
          <path id="Path_47629" data-name="Path 47629" d="M401.831,223.481l2.3-16.744-10.137,12.638-2.907-.406L384.792,204.4,382.5,220.777l-6.057-.848,3.9-27.9,5.338.745,8.02,18.8,12.7-15.9,5.3.742-3.822,27.907Z" transform="translate(-363.957 -191.679)" fill="#fff"/>
          <path id="Path_47630" data-name="Path 47630" d="M414.887,210.247c-1.686,6.05-7.271,8.547-14.523,6.526l-5.467-1.524-2.088,7.485-6.282-1.752,7.566-27.147,11.753,3.276C413.1,199.132,416.583,204.157,414.887,210.247Zm-6.36-1.774c.834-2.984-.623-5.271-4.46-6.341L398.95,200.7l-2.627,9.425,5.117,1.428C405.277,212.626,407.708,211.42,408.527,208.473Z" transform="translate(-336.847 -186.833)" fill="#fff"/>
          <path id="Path_47631" data-name="Path 47631" d="M404.211,196.247l6.076,2.391-8.378,21.293,13.162,5.176-1.951,4.951-19.227-7.566Z" transform="translate(-317.038 -180.348)" fill="#fff"/>
          <path id="Path_47632" data-name="Path 47632" d="M421.623,229.35l-2.39,4.655-19.4-9.979,12.882-25.059L431.65,208.7l-2.39,4.655-13.177-6.773-2.8,5.441,11.635,5.983-2.32,4.512-11.631-5.983-2.984,5.8Z" transform="translate(-301.076 -173.031)" fill="#fff"/>
          <path id="Path_47633" data-name="Path 47633" d="M427.277,240.5l9.565-13.948-14.737,6.766-2.42-1.671.9-15.855L411.2,229.417l-5.039-3.475,16-23.207L426.6,205.8l-1.258,20.411,18.5-8.529,4.408,3.04-15.929,23.255Z" transform="translate(-284.058 -162.902)" fill="#fff"/>
          <path id="Path_47634" data-name="Path 47634" d="M434.2,240.922l-3.482,3.907-16.29-14.52,18.755-21.042,15.9,14.173-3.482,3.907-11.063-9.857-4.073,4.567,9.768,8.71-3.375,3.785-9.768-8.706-4.338,4.869Z" transform="translate(-261.821 -145.338)" fill="#fff"/>
          <path id="Path_47635" data-name="Path 47635" d="M457.945,233.66l-20.769,19.031-3.611-3.943,3.117-21.909-12.609,11.554-4.349-4.744,20.765-19.031,3.645,3.973-3.15,21.879,12.609-11.554Z" transform="translate(-247.58 -130.949)" fill="#fff"/>
          <path id="Path_47636" data-name="Path 47636" d="M444.66,231.328l-5.449-7.19,4.235-3.209L458.28,240.5l-4.235,3.209-5.449-7.186-18.22,13.811-3.94-5.2Z" transform="translate(-229.529 -113.979)" fill="#fff"/>
          <path id="Path_47637" data-name="Path 47637" d="M445.572,249.109l-6.917-11.1-6.445,1.073-3.53-5.674,30.556-4.231,3.4,5.467-17.26,25.586-3.615-5.806Zm3.117-4.36,6.791-9.5-11.517,1.911Z" transform="translate(-223.498 -91.809)" fill="#fff"/>
          <path id="Path_47638" data-name="Path 47638" d="M454.445,244.123l-4-8.082,4.762-2.354L466.094,255.7l-4.762,2.357-4-8.083-20.5,10.134-2.892-5.843Z" transform="translate(-209.33 -79.674)" fill="#fff"/>
          <path id="Path_47639" data-name="Path 47639" d="M462.2,240.963l2.453,6.05-26.121,10.6-2.453-6.046Z" transform="translate(-203.613 -60.109)" fill="#fff"/>
          <path id="Path_47640" data-name="Path 47640" d="M448.447,245.9c8.02-2.39,15.818,2.088,18.356,10.609,2.527,8.481-1.5,16.523-9.562,18.924s-15.829-2.129-18.352-10.609C436.347,256.3,440.427,248.282,448.447,245.9Zm6.913,23.211a8.813,8.813,0,1,0-11.152-5.873A8.6,8.6,0,0,0,455.36,269.106Z" transform="translate(-198.068 -48.567)" fill="#fff"/>
          <path id="Path_47641" data-name="Path 47641" d="M471.486,280.084l-27.9,4.054-.771-5.3,14.914-16.375-16.94,2.464-.926-6.374,27.9-4.058.778,5.338-14.922,16.335,16.939-2.464Z" transform="translate(-193.425 -23.717)" fill="#fff"/>
        </g>
      </g>
      <g id="Group_3963" data-name="Group 3963" transform="translate(641.363 415.686)">
        <g id="Group_3962" data-name="Group 3962">
          <path id="Path_47642" data-name="Path 47642" d="M323.817,241.187l-9.54.365-.173.273-3.051,4.788,6.622,4.213-3.5,5.5-23.764-15.139,6.555-10.285c4.043-6.349,9.864-8.223,15.2-4.829a9.166,9.166,0,0,1,4.386,9.669l11.034-.461Zm-22.573-7.127-2.851,4.482,8.282,5.279,2.855-4.482c2.14-3.361,1.66-6.053-.918-7.7C306,229.976,303.387,230.7,301.244,234.06Z" transform="translate(-290.406 -125.174)" fill="#fff"/>
          <path id="Path_47643" data-name="Path 47643" d="M326.637,231.009l4.113,3.228-13.461,17.157-22.152-17.386,13.136-16.744,4.113,3.232-9.137,11.642,4.807,3.777,8.075-10.285,3.988,3.128-8.071,10.285,5.124,4.025Z" transform="translate(-277.685 -144.378)" fill="#fff"/>
          <path id="Path_47644" data-name="Path 47644" d="M320.771,210.406,332.5,238.785l-4.482,4.622-28.689-10.9,4.9-5.054,20.414,7.865-8.389-20.256Z" transform="translate(-266.418 -162.819)" fill="#fff"/>
          <path id="Path_47645" data-name="Path 47645" d="M306.2,212.715l5.01-4.165L329.216,230.2l-5.01,4.169Z" transform="translate(-247.934 -167.809)" fill="#fff"/>
          <path id="Path_47646" data-name="Path 47646" d="M340.335,222.445l2.951,4.32L325.28,239.079l-15.9-23.255,17.574-12.015,2.951,4.316-12.225,8.359,3.456,5.05,10.794-7.385,2.866,4.187-10.8,7.385,3.682,5.382Z" transform="translate(-239.394 -180.558)" fill="#fff"/>
          <path id="Path_47647" data-name="Path 47647" d="M356.152,197.506l3.829,29.4-6.323,3.018L339.84,215.379l2.449,19.979-6.282,3-20.5-21.436,6.105-2.914,14.273,15.128L333.34,208.4l5.445-2.6,14.424,15.243-2.686-20.85Z" transform="translate(-222.919 -197.506)" fill="#fff"/>
        </g>
      </g>
      <line id="Line_48" data-name="Line 48" x1="0.332" y1="0.517" transform="translate(547.597 562.249)" fill="none" stroke="#000" stroke-miterlimit="10" stroke-width="1"/>
      <g id="Group_3965" data-name="Group 3965" transform="translate(579.397 676.182)">
        <g id="Group_3964" data-name="Group 3964">
          <path id="Path_47648" data-name="Path 47648" d="M274.031,286.1l8.171-4.943.022-.325.347-5.666-7.835-.483.4-6.507,28.132,1.734-.753,12.177c-.461,7.514-4.648,11.974-10.96,11.587a9.159,9.159,0,0,1-8.525-6.334l-9.433,5.755Zm23.2-4.7.328-5.3-9.805-.6-.328,5.308c-.243,3.977,1.479,6.1,4.534,6.289C295.057,287.276,296.99,285.377,297.234,281.4Z" transform="translate(-273.595 -268.175)" fill="#fff"/>
          <path id="Path_47649" data-name="Path 47649" d="M279.135,298.551l-5.235.074-.3-21.816,28.172-.391.3,21.289-5.231.074-.207-14.811-6.116.089.181,13.077-5.072.07-.181-13.081-6.518.1Z" transform="translate(-273.598 -246.013)" fill="#fff"/>
          <path id="Path_47650" data-name="Path 47650" d="M296.694,292.079l-.782-8.975,5.29-.461,2.129,24.45-5.29.457-.782-8.979L274.5,300.556l-.568-6.5Z" transform="translate(-272.708 -229.271)" fill="#fff"/>
          <path id="Path_47651" data-name="Path 47651" d="M277.478,312.384l6.825-6.673-.052-.317-.955-5.6-7.736,1.317-1.1-6.43,27.778-4.725,2.047,12.026c1.265,7.415-1.8,12.716-8.027,13.778a9.165,9.165,0,0,1-9.742-4.22l-7.869,7.747Zm21.51-9.868-.889-5.238-9.683,1.649.893,5.238c.668,3.929,2.829,5.6,5.847,5.087C298.21,308.736,299.659,306.445,298.988,302.516Z" transform="translate(-271.269 -209.599)" fill="#fff"/>
          <path id="Path_47652" data-name="Path 47652" d="M287.207,298.535c8.068-2.258,15.8,2.354,18.2,10.923,2.39,8.533-1.771,16.519-9.879,18.788s-15.807-2.391-18.2-10.923C274.927,308.753,279.14,300.8,287.207,298.535Zm6.541,23.347a8.821,8.821,0,1,0-11.067-6.057A8.6,8.6,0,0,0,293.748,321.882Z" transform="translate(-265.373 -188.073)" fill="#fff"/>
          <path id="Path_47653" data-name="Path 47653" d="M279.6,312.266l5.371.38a16.594,16.594,0,0,0,.454,9.742c1.335,3.623,3.088,4.656,4.711,4.054,4.947-1.822-4.11-15.943,5.71-19.555,4.493-1.656,9.569.594,12.336,8.108a18.921,18.921,0,0,1,1.037,10.041l-5.342-.177a15.9,15.9,0,0,0-.62-8.093c-1.335-3.626-3.209-4.523-4.873-3.91-4.869,1.793,4.15,15.925-5.556,19.5-4.419,1.627-9.547-.645-12.328-8.2C278.954,319.964,278.644,315.276,279.6,312.266Z" transform="translate(-258.923 -165.464)" fill="#fff"/>
          <path id="Path_47654" data-name="Path 47654" d="M307.532,338.991c-5.755,2.527-11.225-.214-14.258-7.109l-2.287-5.2-7.116,3.128-2.623-5.976,25.808-11.347,4.91,11.174C315,330.558,313.32,336.442,307.532,338.991Zm-2.66-6.05c2.837-1.247,3.685-3.818,2.08-7.47l-2.14-4.869-8.957,3.943,2.14,4.866C299.6,333.06,302.068,334.174,304.872,332.941Z" transform="translate(-253.028 -149.015)" fill="#fff"/>
          <path id="Path_47655" data-name="Path 47655" d="M299.224,349.4l-4.652,2.394-9.979-19.4L309.657,319.5l9.735,18.939-4.652,2.39-6.777-13.173-5.441,2.8,5.983,11.635-4.512,2.32-5.983-11.635-5.8,2.981Z" transform="translate(-244.031 -130.163)" fill="#fff"/>
          <path id="Path_47656" data-name="Path 47656" d="M296.369,328.9c7.319-4.323,15.873-1.8,20.341,5.758,2.479,4.2,3.021,8.6,1.6,12.528l-5.46-1.638a9.076,9.076,0,0,0-.764-7.784,9.021,9.021,0,1,0-15.534,9.178,8.974,8.974,0,0,0,6.482,4.4l-1.2,5.574c-4.161-.627-7.758-3.228-10.255-7.455C287.136,341.934,289.054,333.224,296.369,328.9Z" transform="translate(-231.617 -110.557)" fill="#fff"/>
          <path id="Path_47657" data-name="Path 47657" d="M312.165,342.185l-5.032-7.474,4.408-2.966,13.7,20.363-4.408,2.962-5.032-7.478-18.957,12.76-3.637-5.408Z" transform="translate(-220.868 -97.24)" fill="#fff"/>
        </g>
      </g>
    </g>
  </g>
</svg>
