<svg id="Layer_1" data-name="Layer 1" xmlns="http://www.w3.org/2000/svg" xmlns:xlink="http://www.w3.org/1999/xlink" viewBox="0 0 332.28 332.28"><defs><style>.cls-1,.cls-3,.cls-4,.cls-5{fill:none;}.cls-2{clip-path:url(#clip-path);}.cls-3{stroke:#121331;}.cls-3,.cls-4,.cls-5{stroke-linecap:round;stroke-linejoin:round;}.cls-3,.cls-5{stroke-width:12.04px;}.cls-4,.cls-5{stroke:#ec0000;}.cls-4{stroke-width:15.05px;}</style><clipPath id="clip-path" transform="translate(-83.86 -83.86)"><rect class="cls-1" width="500" height="500"/></clipPath></defs><title>Agile-development</title><g class="cls-2"><g id="Agile-development"><g class="cls-2"><g id="_1326-command-window-line-outline" data-name=" 1326-command-window-line-outline"><path id="Path_47598" data-name="Path 47598" class="cls-3" d="M387.71,410.12H112.29a22.41,22.41,0,0,1-22.41-22.41V112.29a22.41,22.41,0,0,1,22.41-22.41H387.71a22.41,22.41,0,0,1,22.41,22.41h0V387.71A22.41,22.41,0,0,1,387.71,410.12Zm20.41-268.87H89.88" transform="translate(-83.86 -83.86)"/><path id="Path_47599" data-name="Path 47599" class="cls-4" d="M177.86,115.57H178m-56.43,0h.13m28,0h.13" transform="translate(-83.86 -83.86)"/><path id="Path_47600" data-name="Path 47600" class="cls-5" d="M247.76,328.34H338m-168,0,52.65-52.65L170,223" transform="translate(-83.86 -83.86)"/></g></g></g></g></svg>