<svg xmlns="http://www.w3.org/2000/svg" xmlns:xlink="http://www.w3.org/1999/xlink" width="500" height="500" viewBox="0 0 500 500">
  <defs>
    <clipPath id="clip-path">
      <path id="Path_47608" data-name="Path 47608" d="M0,0H500V500H0Z"/>
    </clipPath>
    <clipPath id="clip-Brainstorming">
      <rect width="500" height="500"/>
    </clipPath>
  </defs>
  <g id="Brainstorming" clip-path="url(#clip-Brainstorming)">
    <g id="_426-brain-outline" data-name="426-brain-outline" clip-path="url(#clip-path)">
      <g id="Group_3955" data-name="Group 3955">
        <g id="Group_3954" data-name="Group 3954">
          <path id="Path_47604" data-name="Path 47604" d="M157.143,343.37a42.075,42.075,0,0,1,42.075-42.075m16.924-55.778A32.94,32.94,0,0,1,172.8,262.6m76.643-37.928a47.843,47.843,0,0,1-85.413-12.765m197.692-57.857A42.1,42.1,0,0,0,304.714,193.4M342.632,343.37a42.075,42.075,0,0,0-42.074-42.075m-2.815,26.041a47.828,47.828,0,1,0,43.326,68.088q1.949.178,3.908.183A43.9,43.9,0,0,0,386.982,339a33.588,33.588,0,0,0,2.891-56.592,42.073,42.073,0,0,0-9.067-64.257,42.067,42.067,0,0,0-19.082-64.085A37.862,37.862,0,0,0,324.087,112.3c-.073,0-.144.006-.217.006-2.016-19-17.161-33.8-36.7-33.8-20.9,0-37.29,16.941-37.29,37.839M358.933,296.1a41.964,41.964,0,0,0,31.005-13.632" fill="none" stroke="#2f4ccc" stroke-linecap="round" stroke-linejoin="round" stroke-width="12.6" stroke-dasharray="166"/>
          <path id="Path_47605" data-name="Path 47605" d="M157.143,343.37a42.075,42.075,0,0,1,42.075-42.075m16.924-55.778A32.94,32.94,0,0,1,172.8,262.6m76.643-37.928a47.843,47.843,0,0,1-85.413-12.765m197.692-57.857A42.1,42.1,0,0,0,304.714,193.4M342.632,343.37a42.075,42.075,0,0,0-42.074-42.075m-2.815,26.041a47.828,47.828,0,1,0,43.326,68.088q1.949.178,3.908.183A43.9,43.9,0,0,0,386.982,339a33.588,33.588,0,0,0,2.891-56.592,42.073,42.073,0,0,0-9.067-64.257,42.067,42.067,0,0,0-19.082-64.085A37.862,37.862,0,0,0,324.087,112.3c-.073,0-.144.006-.217.006-2.016-19-17.161-33.8-36.7-33.8-20.9,0-37.29,16.941-37.29,37.839M358.933,296.1a41.964,41.964,0,0,0,31.005-13.632" fill="none" stroke="#2f4ccc" stroke-linecap="round" stroke-linejoin="round" stroke-width="12.6"/>
          <path id="Path_47606" data-name="Path 47606" d="M157.143,343.37a42.075,42.075,0,0,1,42.075-42.075m16.924-55.778A32.94,32.94,0,0,1,172.8,262.6m76.643-37.928a47.843,47.843,0,0,1-85.413-12.765m197.692-57.857A42.1,42.1,0,0,0,304.714,193.4M342.632,343.37a42.075,42.075,0,0,0-42.074-42.075m-2.815,26.041a47.828,47.828,0,1,0,43.326,68.088q1.949.178,3.908.183A43.9,43.9,0,0,0,386.982,339a33.588,33.588,0,0,0,2.891-56.592,42.073,42.073,0,0,0-9.067-64.257,42.067,42.067,0,0,0-19.082-64.085A37.862,37.862,0,0,0,324.087,112.3c-.073,0-.144.006-.217.006-2.016-19-17.161-33.8-36.7-33.8-20.9,0-37.29,16.941-37.29,37.839M358.933,296.1a41.964,41.964,0,0,0,31.005-13.632" fill="none"/>
        </g>
        <path id="Path_47607" data-name="Path 47607" d="M250.327,224.675a47.843,47.843,0,0,0,85.414-12.765M202.033,327.336a47.828,47.828,0,1,1-43.327,68.088q-1.949.178-3.908.183a43.9,43.9,0,0,1-42-56.611A33.588,33.588,0,0,1,109.9,282.4a42.073,42.073,0,0,1,9.067-64.257,42.066,42.066,0,0,1,19.083-64.085A37.853,37.853,0,0,1,175.689,112.3c.073,0,.144.006.217.006,2.016-19,17.161-33.8,36.7-33.8,20.9,0,37.29,16.941,37.29,37.839V377.132M138.048,154.053A42.1,42.1,0,0,1,195.062,193.4m-54.219,102.7a41.968,41.968,0,0,1-31.006-13.632M229.685,129.937a20.206,20.206,0,0,1,20.206,20.206m33.743,95.374A32.939,32.939,0,0,0,326.97,262.6M270.091,129.937a20.2,20.2,0,0,0-20.206,20.206" fill="none" stroke="#121331" stroke-linecap="round" stroke-linejoin="round" stroke-width="12.6"/>
      </g>
    </g>
  </g>
</svg>
