<svg xmlns="http://www.w3.org/2000/svg"  viewBox="0 0 48 48" width="34px" height="34px"><path d="M 10.5 7 C 6.9280619 7 4 9.9280619 4 13.5 L 4 30.5 C 4 34.071938 6.9280619 37 10.5 37 L 12 37 L 12 42.5 C 12 44.46599 14.427297 45.67893 16 44.5 L 26 37 L 37.5 37 C 41.071938 37 44 34.071938 44 30.5 L 44 13.5 C 44 9.9280619 41.071938 7 37.5 7 L 10.5 7 z M 10.5 10 L 37.5 10 C 39.450062 10 41 11.549938 41 13.5 L 41 30.5 C 41 32.450062 39.450062 34 37.5 34 L 25.5 34 A 1.50015 1.50015 0 0 0 24.599609 34.300781 L 15 41.5 L 15 35.5 A 1.50015 1.50015 0 0 0 13.5 34 L 10.5 34 C 8.5499381 34 7 32.450062 7 30.5 L 7 13.5 C 7 11.549938 8.5499381 10 10.5 10 z M 17 20 C 15.895 20 15 20.895 15 22 C 15 23.105 15.895 24 17 24 C 18.105 24 19 23.105 19 22 C 19 20.895 18.105 20 17 20 z M 24 20 C 22.895 20 22 20.895 22 22 C 22 23.105 22.895 24 24 24 C 25.105 24 26 23.105 26 22 C 26 20.895 25.105 20 24 20 z M 31 20 C 29.895 20 29 20.895 29 22 C 29 23.105 29.895 24 31 24 C 32.105 24 33 23.105 33 22 C 33 20.895 32.105 20 31 20 z"/></svg>