<svg xmlns="http://www.w3.org/2000/svg" width="500" height="500" style="width:100%;height:100%;content-visibility:visible"><defs><clipPath id="a"><path d="M0 0h500v500H0z"/></clipPath></defs><g clip-path="url(#a)"><path stroke-linecap="round" stroke-linejoin="round" stroke="#08A88A" stroke-width="12.4656" d="M302.839 337.753c39.449 6.309 66.59 19.478 66.59 34.7 0 0 0 0 0 0 0 21.357-53.42 38.669-119.319 38.669-65.898 0-119.318-17.312-119.318-38.67 0-15.22 27.14-28.39 66.59-34.7" fill="none" display="block"/><path stroke-linecap="round" stroke-linejoin="round" stroke="#121331" stroke-width="12.4656" d="M168.028 230.37c-3.133-5.46-5.915-11.138-7.912-17.112-3.15-9.434-4.85-19.526-4.85-30.02 0-54.407 45.86-98.109 101.064-94.556 46.801 3.015 84.855 40.785 88.226 87.565.878 12.21-.568 23.973-3.926 34.89-2.086 6.793-5.126 13.25-8.662 19.411L250.05 373.233 168.028 230.37z" fill="none" display="block"/><path stroke-linecap="round" stroke-linejoin="round" stroke="#08A88A" stroke-width="12.4656" d="M294.634 183.243c0 24.626-19.966 44.592-44.592 44.592-24.626 0-44.592-19.966-44.592-44.592 0-24.626 19.966-44.592 44.592-44.592 24.626 0 44.592 19.966 44.592 44.592z" fill="none" display="block"/></g></svg>