<svg xmlns="http://www.w3.org/2000/svg" xmlns:xlink="http://www.w3.org/1999/xlink" width="500" height="500" viewBox="0 0 500 500">
  <defs>
    <clipPath id="clip-path">
      <path id="Path_47576" data-name="Path 47576" d="M0,0H500V500H0Z"/>
    </clipPath>
    <clipPath id="clip-Data-Backups">
      <rect width="500" height="500"/>
    </clipPath>
  </defs>
  <g id="Data-Backups" clip-path="url(#clip-Data-Backups)">
    <g id="_59-server-connection-outline" data-name="59-server-connection-outline" clip-path="url(#clip-path)">
      <path id="Path_47507" data-name="Path 47507" d="M250.935,303.063v32.374c0,17.866,16.759,32.373,37.4,32.373H408.95M249.065,303.063v32.374c0,17.866-16.759,32.373-37.4,32.373H91.05" fill="none" stroke="#121331" stroke-width="13.09"/>
      <g id="Group_3928" data-name="Group 3928">
        <path id="Path_47508" data-name="Path 47508" d="M250.935,299.787V333.8c0,18.771,16.759,34.012,37.4,34.012H399.6" fill="none" stroke="#2f4ccc" stroke-linecap="round" stroke-linejoin="round" stroke-width="20.944" stroke-dasharray="0.1 15.9"/>
        <path id="Path_47509" data-name="Path 47509" d="M269.6,289.468c.026.4.037.8.037,1.2a19.167,19.167,0,0,1-38.335,0,19.388,19.388,0,0,1,.15-2.4" fill="none" stroke="#121331" stroke-width="10.472"/>
        <path id="Path_47510" data-name="Path 47510" d="M418.39,387.722a21.037,21.037,0,1,1,0-40.759" fill="#121331"/>
      </g>
      <g id="Group_3930" data-name="Group 3930">
        <path id="Path_47511" data-name="Path 47511" d="M249.065,299.787V333.8c0,18.771-16.759,34.012-37.4,34.012H100.4" fill="none" stroke="#2f4ccc" stroke-linecap="round" stroke-linejoin="round" stroke-width="20.944" stroke-dasharray="0.1 15.9"/>
        <path id="Path_47512" data-name="Path 47512" d="M230.515,288.271a19.386,19.386,0,0,0-.15,2.4,19.168,19.168,0,0,0,38.335,0c0-.4-.011-.8-.037-1.2" fill="#121331"/>
        <path id="Path_47513" data-name="Path 47513" d="M230.515,288.271a19.386,19.386,0,0,0-.15,2.4,19.168,19.168,0,0,0,38.335,0c0-.4-.011-.8-.037-1.2" fill="none" stroke="#121331" stroke-width="10.472"/>
        <g id="Group_3929" data-name="Group 3929">
          <path id="Path_47514" data-name="Path 47514" d="M80.342,387.355a21.037,21.037,0,1,0,0-40.025" fill="#121331"/>
        </g>
      </g>
      <path id="Path_47515" data-name="Path 47515" d="M408.95,225.754a14.967,14.967,0,0,0-14.96-14.96H106.156a14.967,14.967,0,0,0-14.96,14.96v48.541a14.967,14.967,0,0,0,14.96,14.96H393.99a14.968,14.968,0,0,0,14.96-14.96V225.754Z" fill="none" stroke="#121331" stroke-width="13.09"/>
      <g id="Group_3939" data-name="Group 3939">
        <path id="Path_47516" data-name="Path 47516" d="M241.585,233.206a7.217,7.217,0,1,1-7.48,7.212A7.353,7.353,0,0,1,241.585,233.206Z" fill="#2f4ccc"/>
        <path id="Path_47517" data-name="Path 47517" d="M241.585,233.206a7.217,7.217,0,1,1-7.48,7.212A7.353,7.353,0,0,1,241.585,233.206Z" fill="none"/>
        <path id="Path_47518" data-name="Path 47518" d="M264.96,233.206a7.217,7.217,0,1,1-7.48,7.212A7.353,7.353,0,0,1,264.96,233.206Z" fill="#2f4ccc"/>
        <path id="Path_47519" data-name="Path 47519" d="M264.96,233.206a7.217,7.217,0,1,1-7.48,7.212A7.353,7.353,0,0,1,264.96,233.206Z" fill="none"/>
        <path id="Path_47520" data-name="Path 47520" d="M288.335,233.206a7.217,7.217,0,1,1-7.48,7.212A7.353,7.353,0,0,1,288.335,233.206Z" fill="#2f4ccc"/>
        <path id="Path_47521" data-name="Path 47521" d="M288.335,233.206a7.217,7.217,0,1,1-7.48,7.212A7.353,7.353,0,0,1,288.335,233.206Z" fill="none"/>
        <path id="Path_47522" data-name="Path 47522" d="M311.71,233.206a7.217,7.217,0,1,1-7.48,7.212A7.353,7.353,0,0,1,311.71,233.206Z" fill="#2f4ccc"/>
        <path id="Path_47523" data-name="Path 47523" d="M311.71,233.206a7.217,7.217,0,1,1-7.48,7.212A7.353,7.353,0,0,1,311.71,233.206Z" fill="#2f4ccc"/>
        <path id="Path_47524" data-name="Path 47524" d="M311.71,233.206a7.217,7.217,0,1,1-7.48,7.212A7.353,7.353,0,0,1,311.71,233.206Z" fill="none"/>
        <g id="Group_3931" data-name="Group 3931">
          <path id="Path_47525" data-name="Path 47525" d="M335.085,233.206a7.217,7.217,0,1,1-7.48,7.212A7.353,7.353,0,0,1,335.085,233.206Z" fill="#2f4ccc"/>
          <path id="Path_47526" data-name="Path 47526" d="M335.085,233.206a7.217,7.217,0,1,1-7.48,7.212A7.353,7.353,0,0,1,335.085,233.206Z" fill="none"/>
        </g>
        <g id="Group_3932" data-name="Group 3932">
          <path id="Path_47527" data-name="Path 47527" d="M358.46,233.206a7.217,7.217,0,1,1-7.48,7.212A7.353,7.353,0,0,1,358.46,233.206Z" fill="#2f4ccc"/>
          <path id="Path_47528" data-name="Path 47528" d="M358.46,233.206a7.217,7.217,0,1,1-7.48,7.212A7.353,7.353,0,0,1,358.46,233.206Z" fill="none"/>
        </g>
        <g id="Group_3933" data-name="Group 3933">
          <path id="Path_47529" data-name="Path 47529" d="M381.835,233.206a7.217,7.217,0,1,1-7.48,7.212A7.353,7.353,0,0,1,381.835,233.206Z" fill="#2f4ccc"/>
          <path id="Path_47530" data-name="Path 47530" d="M381.835,233.206a7.217,7.217,0,1,1-7.48,7.212A7.353,7.353,0,0,1,381.835,233.206Z" fill="none"/>
        </g>
        <g id="Group_3937" data-name="Group 3937">
          <path id="Path_47531" data-name="Path 47531" d="M241.585,256.58a7.218,7.218,0,1,1-7.48,7.213,7.354,7.354,0,0,1,7.48-7.213Z" fill="#2f4ccc"/>
          <path id="Path_47532" data-name="Path 47532" d="M241.585,256.58a7.218,7.218,0,1,1-7.48,7.213,7.354,7.354,0,0,1,7.48-7.213Z" fill="none"/>
          <path id="Path_47533" data-name="Path 47533" d="M264.96,256.58a7.218,7.218,0,1,1-7.48,7.213,7.354,7.354,0,0,1,7.48-7.213Z" fill="#2f4ccc"/>
          <path id="Path_47534" data-name="Path 47534" d="M264.96,256.58a7.218,7.218,0,1,1-7.48,7.213,7.354,7.354,0,0,1,7.48-7.213Z" fill="none"/>
          <path id="Path_47535" data-name="Path 47535" d="M288.335,256.58a7.218,7.218,0,1,1-7.48,7.213,7.354,7.354,0,0,1,7.48-7.213Z" fill="#2f4ccc"/>
          <path id="Path_47536" data-name="Path 47536" d="M288.335,256.58a7.218,7.218,0,1,1-7.48,7.213,7.354,7.354,0,0,1,7.48-7.213Z" fill="none"/>
          <path id="Path_47537" data-name="Path 47537" d="M311.71,256.58a7.218,7.218,0,1,1-7.48,7.213,7.354,7.354,0,0,1,7.48-7.213Z" fill="#2f4ccc"/>
          <path id="Path_47538" data-name="Path 47538" d="M311.71,256.58a7.218,7.218,0,1,1-7.48,7.213,7.354,7.354,0,0,1,7.48-7.213Z" fill="none"/>
          <g id="Group_3934" data-name="Group 3934">
            <path id="Path_47539" data-name="Path 47539" d="M335.085,256.58a7.218,7.218,0,1,1-7.48,7.213,7.354,7.354,0,0,1,7.48-7.213Z" fill="#2f4ccc"/>
            <path id="Path_47540" data-name="Path 47540" d="M335.085,256.58a7.218,7.218,0,1,1-7.48,7.213,7.354,7.354,0,0,1,7.48-7.213Z" fill="none"/>
          </g>
          <g id="Group_3935" data-name="Group 3935">
            <path id="Path_47541" data-name="Path 47541" d="M358.46,256.58a7.218,7.218,0,1,1-7.48,7.213,7.354,7.354,0,0,1,7.48-7.213Z" fill="#2f4ccc"/>
            <path id="Path_47542" data-name="Path 47542" d="M358.46,256.58a7.218,7.218,0,1,1-7.48,7.213,7.354,7.354,0,0,1,7.48-7.213Z" fill="none"/>
          </g>
          <g id="Group_3936" data-name="Group 3936">
            <path id="Path_47543" data-name="Path 47543" d="M381.835,256.58a7.218,7.218,0,1,1-7.48,7.213,7.354,7.354,0,0,1,7.48-7.213Z" fill="#2f4ccc"/>
            <path id="Path_47544" data-name="Path 47544" d="M381.835,256.58a7.218,7.218,0,1,1-7.48,7.213,7.354,7.354,0,0,1,7.48-7.213Z" fill="none"/>
          </g>
        </g>
        <g id="Group_3938" data-name="Group 3938">
          <path id="Path_47545" data-name="Path 47545" d="M136.865,236.91a14.968,14.968,0,0,1,14.96,14.96h0a14.968,14.968,0,0,1-14.96,14.96h0a14.968,14.968,0,0,1-14.96-14.96h0a14.968,14.968,0,0,1,14.96-14.96Z" fill="none" stroke="#2f4ccc" stroke-width="10.472"/>
        </g>
      </g>
      <path id="Path_47546" data-name="Path 47546" d="M408.95,147.214a14.967,14.967,0,0,0-14.96-14.96H106.156a14.967,14.967,0,0,0-14.96,14.96v48.541a14.967,14.967,0,0,0,14.96,14.96H393.99a14.968,14.968,0,0,0,14.96-14.96V147.214Z" fill="none" stroke="#121331" stroke-width="13.09"/>
      <g id="Group_3948" data-name="Group 3948">
        <path id="Path_47547" data-name="Path 47547" d="M241.585,154.666a7.217,7.217,0,1,1-7.48,7.212A7.353,7.353,0,0,1,241.585,154.666Z" fill="#2f4ccc"/>
        <path id="Path_47548" data-name="Path 47548" d="M241.585,154.666a7.217,7.217,0,1,1-7.48,7.212A7.353,7.353,0,0,1,241.585,154.666Z" fill="none"/>
        <path id="Path_47549" data-name="Path 47549" d="M264.96,154.666a7.217,7.217,0,1,1-7.48,7.212A7.353,7.353,0,0,1,264.96,154.666Z" fill="#2f4ccc"/>
        <path id="Path_47550" data-name="Path 47550" d="M264.96,154.666a7.217,7.217,0,1,1-7.48,7.212A7.353,7.353,0,0,1,264.96,154.666Z" fill="none"/>
        <path id="Path_47551" data-name="Path 47551" d="M288.335,154.666a7.217,7.217,0,1,1-7.48,7.212A7.353,7.353,0,0,1,288.335,154.666Z" fill="#2f4ccc"/>
        <path id="Path_47552" data-name="Path 47552" d="M288.335,154.666a7.217,7.217,0,1,1-7.48,7.212A7.353,7.353,0,0,1,288.335,154.666Z" fill="none"/>
        <path id="Path_47553" data-name="Path 47553" d="M311.71,154.666a7.217,7.217,0,1,1-7.48,7.212A7.353,7.353,0,0,1,311.71,154.666Z" fill="#2f4ccc"/>
        <path id="Path_47554" data-name="Path 47554" d="M311.71,154.666a7.217,7.217,0,1,1-7.48,7.212A7.353,7.353,0,0,1,311.71,154.666Z" fill="none"/>
        <g id="Group_3940" data-name="Group 3940">
          <path id="Path_47555" data-name="Path 47555" d="M335.085,154.666a7.217,7.217,0,1,1-7.48,7.212A7.353,7.353,0,0,1,335.085,154.666Z" fill="#2f4ccc"/>
          <path id="Path_47556" data-name="Path 47556" d="M335.085,154.666a7.217,7.217,0,1,1-7.48,7.212A7.353,7.353,0,0,1,335.085,154.666Z" fill="none"/>
        </g>
        <g id="Group_3941" data-name="Group 3941">
          <path id="Path_47557" data-name="Path 47557" d="M358.46,154.666a7.217,7.217,0,1,1-7.48,7.212A7.353,7.353,0,0,1,358.46,154.666Z" fill="#2f4ccc"/>
          <path id="Path_47558" data-name="Path 47558" d="M358.46,154.666a7.217,7.217,0,1,1-7.48,7.212A7.353,7.353,0,0,1,358.46,154.666Z" fill="none"/>
        </g>
        <g id="Group_3942" data-name="Group 3942">
          <path id="Path_47559" data-name="Path 47559" d="M381.835,154.666a7.217,7.217,0,1,1-7.48,7.212A7.353,7.353,0,0,1,381.835,154.666Z" fill="#2f4ccc"/>
          <path id="Path_47560" data-name="Path 47560" d="M381.835,154.666a7.217,7.217,0,1,1-7.48,7.212A7.353,7.353,0,0,1,381.835,154.666Z" fill="none"/>
        </g>
        <g id="Group_3946" data-name="Group 3946">
          <path id="Path_47561" data-name="Path 47561" d="M241.585,178.04a7.218,7.218,0,1,1-7.48,7.213,7.354,7.354,0,0,1,7.48-7.213Z" fill="#2f4ccc"/>
          <path id="Path_47562" data-name="Path 47562" d="M241.585,178.04a7.218,7.218,0,1,1-7.48,7.213,7.354,7.354,0,0,1,7.48-7.213Z" fill="none"/>
          <path id="Path_47563" data-name="Path 47563" d="M264.96,178.04a7.218,7.218,0,1,1-7.48,7.213,7.354,7.354,0,0,1,7.48-7.213Z" fill="#2f4ccc"/>
          <path id="Path_47564" data-name="Path 47564" d="M264.96,178.04a7.218,7.218,0,1,1-7.48,7.213,7.354,7.354,0,0,1,7.48-7.213Z" fill="none"/>
          <path id="Path_47565" data-name="Path 47565" d="M288.335,178.04a7.218,7.218,0,1,1-7.48,7.213,7.354,7.354,0,0,1,7.48-7.213Z" fill="#2f4ccc"/>
          <path id="Path_47566" data-name="Path 47566" d="M288.335,178.04a7.218,7.218,0,1,1-7.48,7.213,7.354,7.354,0,0,1,7.48-7.213Z" fill="none"/>
          <path id="Path_47567" data-name="Path 47567" d="M311.71,178.04a7.218,7.218,0,1,1-7.48,7.213,7.354,7.354,0,0,1,7.48-7.213Z" fill="#2f4ccc"/>
          <path id="Path_47568" data-name="Path 47568" d="M311.71,178.04a7.218,7.218,0,1,1-7.48,7.213,7.354,7.354,0,0,1,7.48-7.213Z" fill="none"/>
          <g id="Group_3943" data-name="Group 3943">
            <path id="Path_47569" data-name="Path 47569" d="M335.085,178.04a7.218,7.218,0,1,1-7.48,7.213,7.354,7.354,0,0,1,7.48-7.213Z" fill="#2f4ccc"/>
            <path id="Path_47570" data-name="Path 47570" d="M335.085,178.04a7.218,7.218,0,1,1-7.48,7.213,7.354,7.354,0,0,1,7.48-7.213Z" fill="none"/>
          </g>
          <g id="Group_3944" data-name="Group 3944">
            <path id="Path_47571" data-name="Path 47571" d="M358.46,178.04a7.218,7.218,0,1,1-7.48,7.213,7.354,7.354,0,0,1,7.48-7.213Z" fill="#2f4ccc"/>
            <path id="Path_47572" data-name="Path 47572" d="M358.46,178.04a7.218,7.218,0,1,1-7.48,7.213,7.354,7.354,0,0,1,7.48-7.213Z" fill="none"/>
          </g>
          <g id="Group_3945" data-name="Group 3945">
            <path id="Path_47573" data-name="Path 47573" d="M381.835,178.04a7.218,7.218,0,1,1-7.48,7.213,7.354,7.354,0,0,1,7.48-7.213Z" fill="#2f4ccc"/>
            <path id="Path_47574" data-name="Path 47574" d="M381.835,178.04a7.218,7.218,0,1,1-7.48,7.213,7.354,7.354,0,0,1,7.48-7.213Z" fill="none"/>
          </g>
        </g>
        <g id="Group_3947" data-name="Group 3947">
          <path id="Path_47575" data-name="Path 47575" d="M136.865,158.37a14.968,14.968,0,0,1,14.96,14.96h0a14.968,14.968,0,0,1-14.96,14.96h0a14.968,14.968,0,0,1-14.96-14.96h0a14.968,14.968,0,0,1,14.96-14.96Z" fill="none" stroke="#2f4ccc" stroke-width="10.472"/>
        </g>
      </g>
    </g>
  </g>
</svg>
