<svg id="Layer_1" data-name="Layer 1" xmlns="http://www.w3.org/2000/svg" viewBox="0 0 2740 2000"><defs><style>.cls-1{fill:#fff;}.cls-2{fill:#181836;}.cls-3{fill:#e8f2fc;}.cls-4{fill:#21111d;}.cls-5{fill:#fe9f73;}.cls-6{fill:#3aa1c9;}.cls-7{fill:#4cb7d8;}.cls-8{fill:#683d46;}.cls-9{fill:#f07162;}.cls-10{fill:#e2f2f1;}.cls-11{fill:#ef3a4c;}.cls-12{fill:#49263e;}.cls-13{fill:#61a3c5;}.cls-14{fill:#aac9f8;}.cls-15{fill:#f75553;}.cls-16{fill:#258d8c;}.cls-17{fill:#7fc6a6;}.cls-18{fill:#3a1f33;}.cls-19{fill:#febac7;}.cls-20{fill:#fecc86;}.cls-21{fill:#5089a0;}.cls-22{fill:#fbfdfc;}</style></defs><title>education-app-development-banner</title><rect class="cls-1" width="2740" height="2000"/><rect class="cls-2" x="861.08" y="1094.09" width="293.37" height="614.62"/><path class="cls-2" d="M1891.27,1317.48v-842a72.43,72.43,0,0,0-72.44-72.43H186.35a72.43,72.43,0,0,0-72.43,72.43v842Z"/><path class="cls-2" d="M113.92,1317.48V1452.4c0,28.06,18.55,50.81,41.43,50.81H1849.83c22.89,0,41.44-22.75,41.44-50.81V1317.48Z"/><path class="cls-3" d="M1849.66,1280.92V477.77c0-21-17.68-38.12-39.49-38.12H195c-21.81,0-39.5,17.07-39.5,38.12v803.15Z"/><path class="cls-2" d="M1404.59,1726.25c5-29-14.53-52.6-43.58-52.6H655c-29,0-56.63,23.55-61.61,52.6h811.19Z"/><path class="cls-4" d="M1849.83,1505.34H155.35c-24,0-43.55-23.75-43.55-52.94V475.52A74.64,74.64,0,0,1,186.35,401v4.25A70.39,70.39,0,0,0,116,475.52V1452.4c0,26.85,17.64,48.69,39.31,48.69H1849.83Z"/><rect class="cls-4" x="1762.05" y="1380.06" width="69.34" height="4.25" transform="translate(-373.75 2036.19) rotate(-54.34)"/><rect class="cls-4" x="1762.67" y="1407.45" width="68.1" height="4.25" transform="translate(-404.28 2018.45) rotate(-53.58)"/><rect class="cls-4" x="921.36" y="1531.87" width="40.57" height="4.25" transform="translate(-857.42 1590.45) rotate(-60.25)"/><rect class="cls-4" x="926.07" y="1554.2" width="35.97" height="4.25" transform="translate(-876.02 1583.11) rotate(-59.6)"/><path class="cls-5" d="M945.4,398s13.59-50.78,26-56.11,26.26,3.59,26.26,3.59S1011,327.31,1020,329a14.62,14.62,0,0,1,11.25,9.82s16,1.7,17.61,14.85c0,0,12.59,3.05,12.43,13.38,0,0,6.49,2.94,6.07,15.45,0,0-21.59,42.23-53.33,57.18S945.4,398,945.4,398Z"/><path class="cls-6" d="M657.54,1280.92l3.78-359.44-8.09-46.17L457.11,945.7s6,151.93,18.76,335.22Z"/><path class="cls-7" d="M506.94,1280.92l22-253.55,37.28-185L312.7,950.2s-1.81,149.28,1.27,330.72Z"/><polygon class="cls-8" points="891.04 142.73 1097.32 486.36 1080.15 499.4 916.81 196.57 891.04 142.73"/><path class="cls-5" d="M996.14,344.35s9.13-9.42,14.61-12.23,38.11,57.24,38.11,57.24l4.73,14.83s-4.18,7.85-6.88,7.53-10.88-6.57-10.88-6.57L1033.7,397l-3.29-.92-4.3-4-2.13-6.5-4.57,2.06-6.5-2.58-3-6.05-1.29-.59-19.36-31.13Z"/><path class="cls-9" d="M1008,379.53c-2.88,0-6.2-2-9.64-4a52.4,52.4,0,0,0-7.47-4c-7.61-3-11.1-1.7-11.12-1.68a1.07,1.07,0,0,1-1.38-.58,1.05,1.05,0,0,1,.55-1.38c.17-.07,4.18-1.7,12.73,1.66a53.93,53.93,0,0,1,7.78,4.11c5.39,3.23,8.81,5.08,11.11,2.54a10.05,10.05,0,0,0,2.66-7.95c-.59-6.44-6.66-14.65-16.24-22-11.79-9-22.15-4.56-22.59-4.36a1.08,1.08,0,0,1-1.4-.54,1.05,1.05,0,0,1,.53-1.4c.48-.22,11.92-5.19,24.75,4.62,10.19,7.78,16.41,16.33,17.06,23.45a12.12,12.12,0,0,1-3.19,9.58A5.35,5.35,0,0,1,1008,379.53Z"/><path class="cls-9" d="M1011.64,361.47a1.06,1.06,0,0,1-.72-.28,1.07,1.07,0,0,1-.07-1.5l19.61-21.54a1.06,1.06,0,1,1,1.57,1.43l-19.6,21.54A1.07,1.07,0,0,1,1011.64,361.47Z"/><path class="cls-9" d="M1033.1,397.79a6.61,6.61,0,0,1-4.22-1.49c-2.15-1.2-6.16-5.16-4.88-10.89a1.06,1.06,0,0,1,1.26-.81,1.07,1.07,0,0,1,.81,1.27c-1.24,5.6,3.78,8.55,4,8.68a4.84,4.84,0,0,0,4.16,1c10.52-2,26-28.72,26.14-29a1.06,1.06,0,0,1,1.84,1.06c-.65,1.13-16.11,27.83-27.58,30A8.17,8.17,0,0,1,1033.1,397.79Z"/><path class="cls-9" d="M1018.87,388.44a9.27,9.27,0,0,1-6-2c-3.67-2.94-4.14-8.05-4.15-8.26a1.06,1.06,0,0,1,1-1.15,1.07,1.07,0,0,1,1.15,1s.42,4.43,3.38,6.8a7.94,7.94,0,0,0,6.24,1.4c7.72-1.06,22.46-24.2,27.49-33a1.06,1.06,0,0,1,1.85,1.05c-.76,1.34-18.72,32.66-29.06,34.08A13.33,13.33,0,0,1,1018.87,388.44Z"/><path class="cls-10" d="M925.14,386.28l7.66-9.61s68,19.11,92.58,74.84L1014.62,466S964.9,404,925.14,386.28Z"/><path class="cls-11" d="M682.46,972.56l1.25-1.63-6.52-365.77s120.3,80.69,156.35,82.24,185.12-219.72,185.12-219.72c-31.41-72.11-97.56-82.1-97.56-82.1L798,520.52,653.79,389.7c-19.23-11.68-167-14.2-167-14.2s-168.25-3.83-187.48,7.85-90,204-100.95,291.17,0,143.7,66.61,154l24.23.51L291,972.56s134.25,30.22,391.43,0Z"/><rect class="cls-12" x="462.39" y="627.48" width="179.55" height="227.14" rx="11.97"/><path class="cls-10" d="M597.75,618.89H514.11a8.59,8.59,0,0,0-8.58,8.59h100.8A8.59,8.59,0,0,0,597.75,618.89Z"/><path class="cls-5" d="M646.24,744.42c19.4-17.09-.92-20-.92-20,9.46-10.25,7.26-15,3.78-17.23a9.55,9.55,0,0,0-8.55-.7c-8.92,3.47-36.11,14.14-52.72,21.81-11.82-.83-8.05-20.75-2.77-31,2.73-5.25,2.91-13.94-9.9-5.19-10.48,7.14-26.22,30.67-26.22,30.67l-65.82-6.33,9.8,90.72s75.15-1,86.47-1.13,49.24-13,60.69-23c20.78-18.09,7.71-19,7.71-19C667.62,743.34,646.24,744.42,646.24,744.42Z"/><path class="cls-9" d="M621.56,739.43a1.34,1.34,0,0,1-1.36-.83,1.36,1.36,0,0,1,.73-1.78c9.75-4,23.48-13.39,23.62-13.49a1.36,1.36,0,0,1,1.54,2.25c-.58.39-14.11,9.63-24.12,13.75A1.17,1.17,0,0,1,621.56,739.43Z"/><path class="cls-9" d="M622.91,756.62a1.36,1.36,0,0,1-.46-2.67,84.91,84.91,0,0,0,23-10.64,1.36,1.36,0,1,1,1.55,2.23,85.4,85.4,0,0,1-23.86,11A1.18,1.18,0,0,1,622.91,756.62Z"/><path class="cls-9" d="M627.46,776a1.36,1.36,0,0,1-.49-2.66c10.61-3.18,19.91-10.19,20-10.26a1.36,1.36,0,0,1,1.91.26,1.38,1.38,0,0,1-.26,1.91,74.37,74.37,0,0,1-20.87,10.69A1.5,1.5,0,0,1,627.46,776Z"/><polygon class="cls-4" points="326.05 699.49 323.31 696.25 350.1 673.59 360.33 549.36 364.56 549.71 354.19 675.7 326.05 699.49"/><path class="cls-4" d="M289.12,831.16l-24.51-.54c-32.7-5.06-53.66-21.26-64.08-49.52-9-24.53-10.41-58.48-4.32-106.84l4.22.53C188,773.37,206.75,817.31,265.12,826.4l24.09.51Z"/><path class="cls-10" d="M524.68,694.89h13.23S552,785.43,532.76,827H516.31S535.5,742.05,524.68,694.89Z"/><path class="cls-11" d="M455.53,681.27l66.24,4.24s13.39,42.23-2.7,127.86c-1.57,8.32-4.86,22.53-4.86,22.53S447,841.26,436.4,819.42c-6.63-13.72,7.87-73,7.87-73Z"/><path class="cls-4" d="M515.85,838.08,289.1,831.16l.13-4.25,223.33,6.82c3.19-13.22,23.64-102.14,7.7-146.19L352,676.76l.27-4.23,171,11,.49,1.26c18.57,48.15-6.41,147.48-7.48,151.69Z"/><path class="cls-4" d="M799.5,556.61,796,521.54,656.33,394.86c-10.24-9.28-30.13-9.4-30.33-9.4v-4.25h0c.9,0,21.73.12,33.18,10.51L800,519.5l3.68,36.69Z"/><path class="cls-4" d="M799.58,522l-3.14-2.86L920.31,383.3l1.13.18c.66.11,66.14,11.56,99.15,83.31l-3.86,1.78C987,404,930.48,389.72,921.87,387.89Z"/><path class="cls-10" d="M566.57,378.41c-40.64-2.24-79.82-2.91-79.82-2.91s-32.58-.74-70.7-.58c0,.23,0,.45,0,.67a75.29,75.29,0,0,0,150.53,2.82Z"/><path class="cls-4" d="M521.7,987.29l-3.72,0,0-4.24c53.09.56,147.75-10.6,162.29-12.35L675.05,570l4.25-.06,5.31,404.49-1.89.24C681.68,974.8,580,987.29,521.7,987.29Z"/><path class="cls-4" d="M446.42,454.85a100.53,100.53,0,0,1-43.71-58.1l4.09-1.16a96.28,96.28,0,0,0,41.87,55.66Z"/><path class="cls-5" d="M462.74,223s30-12.76,56.64-3.6A38.28,38.28,0,0,1,545,255.69v15.95L463,236.58s-13,6.14-11.94,4.28S462.74,223,462.74,223Z"/><path class="cls-5" d="M545,253.9v67.25s1,24-20,27l3.92,32.06a25,25,0,0,1-17.11,26.95A65.62,65.62,0,0,1,492,410.26c-24,0-37.05-18-39.05-27s4-52.07,4-52.07L456.19,310l2.74-82Z"/><path class="cls-4" d="M487,285.61a1,1,0,0,1-.69-.28,1,1,0,0,1,0-1.42c.13-.14,13.9-14.23,26.49-4.09a1,1,0,0,1-1.26,1.56c-11.15-9-23.28,3.39-23.79,3.92A1,1,0,0,1,487,285.61Z"/><path class="cls-4" d="M528.29,279.6a1,1,0,0,1-.66-1.76c.41-.35,10-8.52,16-3.34a1,1,0,0,1,.11,1.41,1,1,0,0,1-1.42.11c-4.73-4-13.29,3.26-13.37,3.34A1,1,0,0,1,528.29,279.6Z"/><path d="M507.27,289.65a3,3,0,1,1-3-3A3,3,0,0,1,507.27,289.65Z"/><path d="M539.19,286.65a3,3,0,1,1-3-3A3,3,0,0,1,539.19,286.65Z"/><path class="cls-4" d="M462.74,222s-25.43-1.22-31.88,21,4.54,34,4.76,40.65-4.27,51.35,27.12,48l8.48-73.86-10.93-29.41Z"/><circle class="cls-5" cx="464.44" cy="288.61" r="18.02" transform="translate(-68.05 412.94) rotate(-45)"/><path class="cls-9" d="M463.1,299.65A7.5,7.5,0,0,1,456,294a7.05,7.05,0,0,1,2.84-8.24,8.47,8.47,0,0,1,9.46.34,8.13,8.13,0,0,0-3.64-4.44c-3.55-2-7.95-.53-8-.52a.49.49,0,0,1-.63-.32.5.5,0,0,1,.32-.63c.19-.06,4.85-1.57,8.79.59a9.75,9.75,0,0,1,4.6,6.56l.43,1.75-1.27-1.27c-.18-.18-4.47-4.35-9.53-1.21a6.13,6.13,0,0,0-2.41,7.11,6.45,6.45,0,0,0,6.1,4.9h.1a.5.5,0,0,1,.5.5.49.49,0,0,1-.49.5Z"/><path class="cls-9" d="M476.27,327.77s1.41,40.22,51.63,44.06L525,348.18S492.43,354.73,476.27,327.77Z"/><path class="cls-4" d="M548.52,309.84s6.55,48.14-25.42,49.85c-45.74,2.45-50.17-23.66-52.89-45l-.46-44.08,1.47-12.79h0a22.88,22.88,0,0,1,5.65,13.1c.94,10.57,3.28,39.05,5.92,40.31C486.52,313,541.4,305.2,548.52,309.84Z"/><path class="cls-9" d="M517.86,309.91a.5.5,0,0,1-.16-1l10-3.32L524.57,282a.5.5,0,0,1,.43-.56.5.5,0,0,1,.56.43l3.28,24.44L518,309.89A.44.44,0,0,1,517.86,309.91Z"/><polygon class="cls-5" points="456.18 336.76 459.67 302.86 468.09 303.79 468.09 337.74 456.18 336.76"/><path class="cls-4" d="M467.45,221.31s-5.9,14.07,3.77,37.53-24.81-8.75-24.81-8.75S448.81,215.74,467.45,221.31Z"/><path class="cls-9" d="M506.21,320.19a16.18,16.18,0,0,0,19.26,5.45.69.69,0,1,0-.58-1.26c-.42.19-10.18,4.53-17.57-5l-.4-.53a.7.7,0,0,0-1.13.81Z"/><path class="cls-9" d="M1048,412.49l-.18,0c-5.84-1-10-3.27-12.33-6.77a12.4,12.4,0,0,1-1.88-9,1.07,1.07,0,0,1,2.08.46,10.36,10.36,0,0,0,1.58,7.35c2,3,5.68,4.95,10.9,5.84a1.06,1.06,0,0,1-.17,2.11Z"/><path class="cls-4" d="M1851.79,1283H155.52v-4.25h1692v-801c0-19.85-16.77-36-37.37-36v-4.24c22.95,0,41.62,18.05,41.62,40.24Z"/><path class="cls-4" d="M471.22,258.84s76.54-4.53,81.25-22.46S539.19,218,539.19,218s3.38-25.48-19.74-17.93-66,6.56-78,28S471.22,258.84,471.22,258.84Z"/><path class="cls-1" d="M1683.64,1538.82s39,98.15,6.29,172.38l749.91,6.29,69.2-6.29,61-37.79v-57.83l-17-47.82-55.36-28.94Z"/><path class="cls-13" d="M2475,1727.05h-810.2a9.56,9.56,0,0,1,0-19.11H2475c48.91,0,88.7-36.92,88.7-82.3s-39.79-82.29-88.7-82.29h-810.2a9.56,9.56,0,0,1,0-19.11H2475c59.44,0,107.8,45.49,107.8,101.4S2534.4,1727.05,2475,1727.05Z"/><path class="cls-14" d="M2092.25,1627.77h-397.6a2.13,2.13,0,1,1,0-4.25h397.6a2.13,2.13,0,0,1,0,4.25Z"/><path class="cls-14" d="M2534.52,1627.77H2148.24a2.13,2.13,0,0,1,0-4.25h386.28a2.13,2.13,0,0,1,0,4.25Z"/><path class="cls-14" d="M2524.14,1665.81H2326a2.13,2.13,0,1,1,0-4.25h198.19a2.13,2.13,0,0,1,0,4.25Z"/><path class="cls-14" d="M2296.87,1665.81H1694.65a2.13,2.13,0,1,1,0-4.25h602.22a2.13,2.13,0,0,1,0,4.25Z"/><path class="cls-1" d="M2562.18,1337.86s-39,98.14-6.29,172.38L1806,1516.53l-69.2-6.29-61-37.79v-57.84l17-47.81,55.37-28.94Z"/><path class="cls-15" d="M1770.86,1526.09h810.2a9.56,9.56,0,0,0,0-19.11h-810.2c-48.91,0-88.69-36.92-88.69-82.3s39.78-82.3,88.69-82.3h810.2a9.56,9.56,0,0,0,0-19.11h-810.2c-59.44,0-107.8,45.5-107.8,101.41S1711.42,1526.09,1770.86,1526.09Z"/><path class="cls-14" d="M2551.18,1426.8H2153.57a2.12,2.12,0,0,1,0-4.24h397.61a2.12,2.12,0,1,1,0,4.24Z"/><path class="cls-14" d="M2097.58,1426.8H1711.3a2.12,2.12,0,0,1,0-4.24h386.28a2.12,2.12,0,0,1,0,4.24Z"/><path class="cls-14" d="M1919.88,1464.84h-198.2a2.12,2.12,0,0,1,0-4.24h198.2a2.12,2.12,0,0,1,0,4.24Z"/><path class="cls-14" d="M2551.18,1464.84H1949a2.12,2.12,0,0,1,0-4.24h602.23a2.12,2.12,0,1,1,0,4.24Z"/><path class="cls-1" d="M1810.26,1148.59s36.2,91.08,5.84,160l696,5.84,64.22-5.84,56.61-35.08v-53.67l-15.73-44.37-51.38-26.86Z"/><path class="cls-16" d="M2544.67,1323.27H1792.74a8.87,8.87,0,0,1,0-17.73h751.93c45.39,0,82.31-34.26,82.31-76.38s-36.92-76.37-82.31-76.37H1792.74a8.87,8.87,0,0,1,0-17.74h751.93c55.17,0,100,42.22,100,94.11S2599.84,1323.27,2544.67,1323.27Z"/><path class="cls-14" d="M2189.48,1231.29h-369a2.13,2.13,0,1,1,0-4.25h369a2.13,2.13,0,0,1,0,4.25Z"/><path class="cls-14" d="M2599.94,1231.29H2241.45a2.13,2.13,0,1,1,0-4.25h358.49a2.13,2.13,0,0,1,0,4.25Z"/><path class="cls-14" d="M2590.31,1266.59H2406.37a2.13,2.13,0,0,1,0-4.25h183.94a2.13,2.13,0,0,1,0,4.25Z"/><path class="cls-14" d="M2590.31,1196H1820.48a2.12,2.12,0,1,1,0-4.24h769.83a2.12,2.12,0,0,1,0,4.24Z"/><path class="cls-4" d="M2581.06,1528.21h-810.2c-60.61,0-109.93-46.44-109.93-103.53s49.32-103.53,109.93-103.53h810.2a11.68,11.68,0,0,1,0,23.36,2.13,2.13,0,0,1,0-4.25,7.43,7.43,0,0,0,0-14.86h-810.2c-58.27,0-105.68,44.54-105.68,99.28s47.41,99.28,105.68,99.28h810.2a7.43,7.43,0,0,0,0-14.86,2.13,2.13,0,0,1,0-4.25,11.68,11.68,0,0,1,0,23.36Z"/><path class="cls-4" d="M2544.67,1325.4H1792.74a11,11,0,0,1,0-22,2.12,2.12,0,1,1,0,4.24,6.75,6.75,0,0,0,0,13.49h751.93c54,0,97.92-41.26,97.92-92s-43.92-92-97.92-92H1792.74a6.75,6.75,0,0,0,0,13.49,2.13,2.13,0,1,1,0,4.25,11,11,0,1,1,0-22h751.93c56.34,0,102.17,43.17,102.17,96.23S2601,1325.4,2544.67,1325.4Z"/><path class="cls-4" d="M2475,1729.17h-810.2a11.68,11.68,0,0,1,0-23.36,2.13,2.13,0,1,1,0,4.25,7.43,7.43,0,0,0,0,14.86H2475c58.28,0,105.68-44.53,105.68-99.28s-47.4-99.28-105.68-99.28h-810.2a7.43,7.43,0,0,0,0,14.86,2.13,2.13,0,1,1,0,4.25,11.68,11.68,0,0,1,0-23.36H2475c60.62,0,109.93,46.45,109.93,103.53S2535.58,1729.17,2475,1729.17Z"/><path class="cls-15" d="M1908.83,1587.58s-25.52,63.57-10.81,110.36l20.73-32s14.15,17,22.83,32c0,0,15.84-104.51,46.53-110.36Z"/><path class="cls-17" d="M2452.65,1386.62s25.52,63.57,10.81,110.36l-20.74-32s-14.15,17-22.83,32c0,0-15.83-104.51-46.53-110.36Z"/><path class="cls-7" d="M1941.91,1264.47s-25.52,63.56-10.81,110.36l20.73-32s14.16,17,22.84,32c0,0,15.83-104.51,46.52-110.36Z"/><path class="cls-14" d="M2524.14,1589.7H1694.65a2.12,2.12,0,1,1,0-4.24h829.49a2.12,2.12,0,1,1,0,4.24Z"/><path class="cls-14" d="M2551.18,1388.74h-829.5a2.12,2.12,0,1,1,0-4.24h829.5a2.12,2.12,0,1,1,0,4.24Z"/><path class="cls-14" d="M2379.39,1266.59H1820.48a2.13,2.13,0,1,1,0-4.25h558.91a2.13,2.13,0,0,1,0,4.25Z"/><polygon class="cls-5" points="2197.35 1404.46 2226.89 1421.06 2262.2 1386.33 2263.15 1380.69 2254.51 1317.5 2185.78 1330.3 2197.35 1404.46"/><path class="cls-15" d="M2247.81,1422.89l-94.72,12.9a14.58,14.58,0,0,1-2.13-.14c-9.29-1.52-7.15-7.58-7.15-7.58l41.53-34.33.31-4.23c.48-6.8,8.32-10.24,15-6.61l17.45,9.43s41,.58,45-11.63l3.72,29.79S2271.23,1419.56,2247.81,1422.89Z"/><polygon class="cls-5" points="2074.95 1408.51 2104.49 1425.11 2139.8 1390.38 2140.75 1384.75 2132.11 1321.55 2063.38 1334.35 2074.95 1408.51"/><path class="cls-15" d="M2125.41,1426.94l-94.73,12.9a14.53,14.53,0,0,1-2.12-.14c-9.3-1.52-7.15-7.58-7.15-7.58l41.53-34.33.3-4.23c.49-6.79,8.33-10.24,15-6.61l17.45,9.43s41,.59,45-11.63l3.71,29.79S2148.83,1423.61,2125.41,1426.94Z"/><path class="cls-12" d="M2306.63,1150.76s118.15,5.55,151-1.74,40.9-109.7,3.64-172.45-167.61,129.91-167.61,129.91Z"/><path class="cls-18" d="M2233.54,998.65s-164.55,25.6-169.32,44.68-18.43,221.91-8.21,308.44c0,0,62.68,4.31,92.66-3l7.3-211,49.48-5.67,113.36-136.27Z"/><path class="cls-12" d="M2313.58,1010.57s-127.41,35.95-132.18,55-18.35,200.09-8.13,286.62c0,0,67.41,3.86,97.39-3.4l8.07-199,29.08,1,70.5-124Z"/><path class="cls-19" d="M2392.56,767.81s56.32,1,69.41,8.67S2535,883,2548,924.9c0,0-33.84,29.64-77.45,30.78L2460,935.92l6,40.45-114.21,33.87a187.37,187.37,0,0,1-118.11-3.83l-11.86-4.38s.18-192.24,34.51-212.55C2287,771.38,2353.22,761.86,2392.56,767.81Z"/><path class="cls-5" d="M2321.8,673.36v54.42s-.77,18.4,15.33,20.69l-3,24.55a19.14,19.14,0,0,0,13.1,20.63,50.12,50.12,0,0,0,15.2,2.35c18.39,0,28.36-13.8,29.89-20.7s-3.07-39.86-3.07-39.86l.56-16.19-2.09-62.76Z"/><path class="cls-20" d="M2366.22,700.57a.74.74,0,0,0,.53-.22.77.77,0,0,0,0-1.08c-.11-.11-10.65-10.89-20.28-3.13a.77.77,0,0,0-.12,1.08.76.76,0,0,0,1.08.11c8.54-6.88,17.82,2.6,18.21,3A.76.76,0,0,0,2366.22,700.57Z"/><path class="cls-20" d="M2334.62,696a.76.76,0,0,0,.58-.27.77.77,0,0,0-.08-1.08c-.31-.27-7.62-6.52-12.24-2.55a.76.76,0,1,0,1,1.16c3.63-3.11,10.18,2.49,10.25,2.55A.73.73,0,0,0,2334.62,696Z"/><circle cx="2353.01" cy="703.67" r="2.3"/><circle cx="2328.57" cy="701.37" r="2.3"/><path class="cls-20" d="M2385.58,659.52l-12.83,18.17s-38.88,15.09-58.81-2.79-13.8-26.48-8-35.43c2.88-4.41,16.63-13.4,33.49-5.91,9.21,4.08,16-8.11,26.75-2s23.39,16.75,22,20.95S2385.58,659.52,2385.58,659.52Z"/><path class="cls-20" d="M2384.8,651.85s17.7-.85,22.64,16.18-1.71,26-1.88,31,3.28,39.31-20.76,36.76l-6.49-56.55,8.37-22.52Z"/><circle class="cls-5" cx="2383.5" cy="702.87" r="13.8"/><path class="cls-9" d="M2384.53,711.32a5.75,5.75,0,0,0,5.41-4.31,5.4,5.4,0,0,0-2.18-6.3,6.49,6.49,0,0,0-7.25.25,6.24,6.24,0,0,1,2.79-3.39c2.72-1.5,6.09-.41,6.12-.4a.39.39,0,0,0,.25-.73,9.33,9.33,0,0,0-6.73.45,7.46,7.46,0,0,0-3.52,5l-.34,1.33,1-1c.14-.13,3.42-3.32,7.3-.92a4.7,4.7,0,0,1,1.84,5.44,5,5,0,0,1-4.67,3.76h-.08a.38.38,0,0,0-.38.38.37.37,0,0,0,.37.39Z"/><path class="cls-9" d="M2374.45,732.85s-1.08,30.79-39.54,33.73l2.22-18.11S2362.07,753.49,2374.45,732.85Z"/><path class="cls-4" d="M2461.58,938.4c47.55-7.4,75.75-35.87,76-36.15l-1.64-1.61c-.28.28-28,28.22-74.74,35.49Z"/><path class="cls-4" d="M2230.21,1354.57c29.78,0,40.4-4.48,40.91-4.7l.66-.29,7.82-200.2-12.31,5.8,1,2.08,8.88-4.19L2269.54,1348c-3.22,1.11-18.67,5.57-55.16,3.88l-.1,2.3C2220.11,1354.46,2225.41,1354.57,2230.21,1354.57Z"/><path class="cls-4" d="M2258.14,1311.4c3.18-12.26,4.09-131.85,4.13-136.93l-2.3,0c0,1.24-.95,124.39-4,136.38Z"/><path class="cls-4" d="M2139.74,1142.32c15.1-4.88,35.9-5.62,36.11-5.62l-.08-2.3c-.21,0-21.32.75-36.74,5.74Z"/><path class="cls-4" d="M2105.74,1354.15c25.45,0,43-4.17,43.2-4.22l.85-.2,7.38-213.34-9.42,7.58,1.44,1.79,5.5-4.43-7.14,206.56a209.29,209.29,0,0,1-44,3.95l0,2.3Z"/><path class="cls-4" d="M2137.79,1315.85c3.16-18.52.15-143.88,0-149.21l-2.3.06c0,1.3,3.14,130.46,0,148.76Z"/><polygon class="cls-21" points="2295.43 1050.99 2343.57 1024.55 2281.41 1013.03 2295.43 1050.99"/><path class="cls-7" d="M2293.62,1048c.81-.51,46.55-24.8,46.55-24.8l.72,2.85-45.46,25Z"/><path class="cls-5" d="M2251.46,1020.46l13-20.25h0c7.17-11.59,18.76-26.8,30.82-28.14,19.7-2.2,139.7-7.13,177.77-11.83,0,0-2.62-4.58-2.55-4.56.44.1,31.13-5.23,31.13-5.23l19.76-9.37,17.76-7.68c4.91,19.12,18.37,50.53,4.56,72.41-25.51,40.43-220.67,20.52-238,15.23l-15.93,17.27-3.26,5a5.12,5.12,0,1,1-8.58-5.58l-1.36,2.1a5.11,5.11,0,0,1-7.07,1.5h0a5.12,5.12,0,1,0-8.58-5.58,5.12,5.12,0,0,1-1.5-7.08l1.37-2.09a5.12,5.12,0,0,1-7.08,1.49h0c-.1-.06-.18-.13-.27-.19l-.07-.05-.13-.1h0l0,0a4.67,4.67,0,0,1-.83-.89C2249.63,1023.45,2251.46,1020.46,2251.46,1020.46Z"/><path class="cls-4" d="M2469.9,957.25l.74,0c38.77-.91,77.73-30.71,78.12-31l.72-.56-24.59-54.47-2.09.94,23.83,52.81c-5.43,4-40.43,28.82-75.31,30l-10.55-21.48-2.07,1Z"/><path class="cls-9" d="M2486.77,979a.79.79,0,0,0,.64-.14.77.77,0,0,0,.13-1.08l-14-18a.76.76,0,0,0-1.07-.14.77.77,0,0,0-.14,1.08l14,18A.78.78,0,0,0,2486.77,979Z"/><path class="cls-9" d="M2258.59,1029.51a.74.74,0,0,0,.78-.3l18.29-25.1a.78.78,0,0,0-.17-1.07.77.77,0,0,0-1.07.17l-18.29,25.1a.78.78,0,0,0,.17,1.07A.69.69,0,0,0,2258.59,1029.51Z"/><path class="cls-9" d="M2266.61,1036.85a.77.77,0,0,0,.81-.32l17.44-25.87a.77.77,0,0,0-.2-1.07.78.78,0,0,0-1.07.21l-17.44,25.88a.76.76,0,0,0,.2,1.06A.73.73,0,0,0,2266.61,1036.85Z"/><path class="cls-9" d="M2276.31,1041.53a.78.78,0,0,0,.81-.32l14.51-21.94a.77.77,0,0,0-.22-1.06.76.76,0,0,0-1.06.22l-14.51,21.93a.76.76,0,0,0,.21,1.06A.66.66,0,0,0,2276.31,1041.53Z"/><path class="cls-4" d="M2357.23,1152.9c-58.27,0-93.49-3.91-94-4l.26-2.29c.78.09,79.82,8.88,197.67,0l.17,2.29C2421.77,1151.91,2386.58,1152.9,2357.23,1152.9Z"/><rect class="cls-4" x="2226.3" y="892.25" width="97.68" height="2.3" transform="translate(1310.34 3139.19) rotate(-88.19)"/><polygon class="cls-7" points="2097.16 887.57 2117.91 1036.31 2295.43 1050.99 2289.39 889.16 2097.16 887.57"/><rect class="cls-4" x="2446.67" y="847.42" width="2.3" height="114.55" transform="translate(-157.77 1050.21) rotate(-23.48)"/><rect class="cls-4" x="2460.1" y="929.55" width="2.3" height="31.9" transform="translate(-119.29 404.64) rotate(-9.18)"/><path class="cls-9" d="M2342.6,719.18a.41.41,0,0,0,.37-.27.39.39,0,0,0-.25-.48l-7.68-2.54,2.43-18.08a.38.38,0,1,0-.76-.1l-2.51,18.71,8.28,2.74Z"/><path class="cls-22" d="M2348.55,726.64c-.23,0-15.17-.39-15.17-.39s1.87,6.17,7.43,6.32S2348.55,726.64,2348.55,726.64Z"/><circle class="cls-10" cx="2189.93" cy="957.25" r="6.76"/><polygon class="cls-1" points="1205.35 528.69 1205.35 1191.85 1699.23 1191.85 1699.23 637.82 1592.9 528.69 1205.35 528.69"/><polygon class="cls-14" points="1699.23 638.02 1593.52 528.69 1593.52 638.02 1699.23 638.02"/><path class="cls-14" d="M1545.33,611.24H1329.87a5.6,5.6,0,0,1-5.6-5.6h0a5.6,5.6,0,0,1,5.6-5.6h215.46a5.6,5.6,0,0,1,5.6,5.6h0A5.6,5.6,0,0,1,1545.33,611.24Z"/><path class="cls-14" d="M1574.71,654.61H1300.49a5.6,5.6,0,0,1-5.6-5.6h0a5.6,5.6,0,0,1,5.6-5.6h274.22a5.6,5.6,0,0,1,5.6,5.6h0A5.6,5.6,0,0,1,1574.71,654.61Z"/><path class="cls-14" d="M1647.46,758.14H1250.12a5.6,5.6,0,0,1-5.59-5.6h0a5.59,5.59,0,0,1,5.59-5.59h397.34a5.6,5.6,0,0,1,5.6,5.59h0A5.6,5.6,0,0,1,1647.46,758.14Z"/><path class="cls-14" d="M1647.46,807.11H1250.12a5.6,5.6,0,0,1-5.59-5.6h0a5.6,5.6,0,0,1,5.59-5.6h397.34a5.6,5.6,0,0,1,5.6,5.6h0A5.6,5.6,0,0,1,1647.46,807.11Z"/><path class="cls-14" d="M1647.46,856.07H1250.12a5.59,5.59,0,0,1-5.59-5.59h0a5.6,5.6,0,0,1,5.59-5.6h397.34a5.6,5.6,0,0,1,5.6,5.6h0A5.6,5.6,0,0,1,1647.46,856.07Z"/><path class="cls-14" d="M1647.46,954H1250.12a5.6,5.6,0,0,1-5.59-5.6h0a5.59,5.59,0,0,1,5.59-5.59h397.34a5.6,5.6,0,0,1,5.6,5.59h0A5.6,5.6,0,0,1,1647.46,954Z"/><path class="cls-14" d="M1647.46,1003H1250.12a5.6,5.6,0,0,1-5.59-5.6h0a5.6,5.6,0,0,1,5.59-5.6h397.34a5.6,5.6,0,0,1,5.6,5.6h0A5.6,5.6,0,0,1,1647.46,1003Z"/><path class="cls-14" d="M1647.46,1128.89H1250.12a5.59,5.59,0,0,1-5.59-5.59h0a5.6,5.6,0,0,1,5.59-5.6h397.34a5.6,5.6,0,0,1,5.6,5.6h0A5.6,5.6,0,0,1,1647.46,1128.89Z"/></svg>