<svg xmlns="http://www.w3.org/2000/svg" xmlns:xlink="http://www.w3.org/1999/xlink" width="500" height="500" viewBox="0 0 500 500">
  <defs>
    <clipPath id="clip-path">
      <path id="Path_47593" data-name="Path 47593" d="M0,0H500V500H0Z"/>
    </clipPath>
    <clipPath id="clip-Friendly-Support">
      <rect width="500" height="500"/>
    </clipPath>
  </defs>
  <g id="Friendly-Support" clip-path="url(#clip-Friendly-Support)">
    <g id="_682-male-customer-service-outline" data-name="682-male-customer-service-outline" clip-path="url(#clip-path)">
      <g id="Group_3951" data-name="Group 3951">
        <path id="Path_47587" data-name="Path 47587" d="M174.476,234.18h0A16.024,16.024,0,0,0,190.452,218.2V187.3a16.024,16.024,0,0,0-15.976-15.977h0A16.024,16.024,0,0,0,158.5,187.3V218.2A16.024,16.024,0,0,0,174.476,234.18Zm151.25.046h0A16.023,16.023,0,0,0,341.7,218.25V187.343a16.023,16.023,0,0,0-15.976-15.976h0a16.023,16.023,0,0,0-15.976,15.976V218.25A16.023,16.023,0,0,0,325.726,234.226ZM158.455,187.345l.023-35.153A91.792,91.792,0,0,1,250,60.655c50.34,0,91.522,41.2,91.522,91.537l.023,35.4" fill="none" stroke="#121331" stroke-linecap="round" stroke-linejoin="round" stroke-width="12.04"/>
      </g>
      <path id="Path_47588" data-name="Path 47588" d="M302.495,378.464h0a21.375,21.375,0,0,0,21.375-21.375V335.714H281.12v21.375A21.375,21.375,0,0,0,302.495,378.464Z" fill="none" stroke="#2f4ccc" stroke-linecap="round" stroke-linejoin="round" stroke-width="12.04"/>
      <g id="Group_3952" data-name="Group 3952">
        <path id="Path_47589" data-name="Path 47589" d="M283.87,257.845v18.94a33.875,33.875,0,0,1-67.75,0v-18.93" fill="none" stroke="#121331" stroke-linecap="round" stroke-linejoin="round" stroke-width="12.04"/>
      </g>
      <path id="Path_47590" data-name="Path 47590" d="M283.88,276.69h7.62a83,83,0,0,1,83,83v27.76a14.994,14.994,0,0,1-13.28,14.9l-29.04,3.36a85.258,85.258,0,0,0-23.07,6.03A153.906,153.906,0,0,1,250,423.66h-.3a153.9,153.9,0,0,1-59.12-11.8l-.2-.08a89.446,89.446,0,0,0-24.07-6.26l-27.53-3.17a14.994,14.994,0,0,1-13.28-14.9V359.69a83,83,0,0,1,83-83h7.63M310.9,173.368l-1.324,37.1A59.61,59.61,0,0,1,250,268h0a59.61,59.61,0,0,1-59.574-57.537l-1.07-40.125" fill="none" stroke="#121331" stroke-linecap="round" stroke-linejoin="round" stroke-width="12.04"/>
      <path id="Path_47591" data-name="Path 47591" d="M189.05,170.74c39.08-1.63,70.28-25.94,84.83-60.1,32.787,23.36,31.026,43.821,36.956,63.531,14.38-19.646,11.561-58.746,1.5-74.171-8.376-12.838-23.666-17-23.666-17-21.792-5.284-44.082,2.543-55.135,7.5a14.148,14.148,0,0,1-14.02-1.37L203.633,77.8a13.069,13.069,0,0,0-18.564,3.033A80.931,80.931,0,0,0,172.25,114.25c-4.935,32.876,16.907,56.378,16.907,56.378m67.591,65.693h7.514a5.656,5.656,0,0,0,5.639-5.64h0a5.656,5.656,0,0,0-5.639-5.64h-7.514a5.656,5.656,0,0,0-5.639,5.64h0A5.656,5.656,0,0,0,256.748,236.321Z" fill="none" stroke="#2f4ccc" stroke-linecap="round" stroke-linejoin="round" stroke-width="12.04"/>
      <path id="Path_47592" data-name="Path 47592" d="M269.31,230.681l15.539-2.263a45.281,45.281,0,0,0,17.959-6.727c13.66-8.78,38.872-24.39,38.872-24.39" fill="none" stroke="#2f4ccc" stroke-linecap="round" stroke-linejoin="round" stroke-width="12.04"/>
    </g>
  </g>
</svg>
