<svg xmlns="http://www.w3.org/2000/svg" viewBox="0 0 153.38 150.66"><defs><style>.cls-1{fill:#d9d9f9;}.cls-2{fill:#efeffc;}.cls-3{fill:#d96767;}.cls-4{fill:#d24542;}.cls-5{fill:#fff;}.cls-6{fill:#4444c0;}</style></defs><title>Asset 3</title><g id="Layer_2" data-name="Layer 2"><g id="Layer_1-2" data-name="Layer 1"><path class="cls-1" d="M149.49,83.15c.25,42.76-28.35,60.7-68.36,60.89S8,126.51,7.73,83.74q0-3.26.19-6.48C10.51,37,39,.19,77,0c38.57-.18,69.91,37.53,72.32,78.56Q149.48,80.86,149.49,83.15Z"/><path class="cls-1" d="M11.11,43.37a1.76,1.76,0,0,0,.51-1.16A1.61,1.61,0,0,0,11.07,41a2,2,0,0,0-2.61,0,19.46,19.46,0,0,0-4.19,7.67,1.7,1.7,0,0,0,1.29,2.08,1.91,1.91,0,0,0,2.28-1.18q.25-.93.6-1.83c.06-.15.12-.3.19-.45s.22-.6.06-.15a6.15,6.15,0,0,1,.41-.81,16.6,16.6,0,0,1,1-1.62c.19-.27.38-.54.58-.8l.31-.39.1-.12h0l0,0Z"/><path class="cls-1" d="M130.13,15.08a20.28,20.28,0,0,0-6-6,2.08,2.08,0,0,0-1.43-.17,2,2,0,0,0-1.11.78,1.59,1.59,0,0,0-.18,1.31,1.94,1.94,0,0,0,.85,1l.38.25a18.87,18.87,0,0,1,3.09,2.82,17.94,17.94,0,0,1,1.22,1.68,2,2,0,0,0,2.54.61A1.65,1.65,0,0,0,130.13,15.08Z"/><path class="cls-2" d="M102.35,30.35l8.84-1.9S100.8,27,104.68,23.89s8,3.23,8,3.23-3.9-6.12-.8-6.4,2.64,6.19,2.64,6.19,1.93-5.68,4.8-2.67-2.32,4-2.32,4l8.75,1.54Z"/><path class="cls-2" d="M149.49,83.15c.25,42.76-28.35,60.7-68.36,60.89S8,126.51,7.73,83.74q0-3.26.19-6.48H14V65.08H26.26V86h7.93V35.73H49.8V75.61H68.69V14.3H85.24V59.86h9.69V40.65h10.88v32h11.41V47h13.89v31.6h18.23Q149.48,80.86,149.49,83.15Z"/><rect class="cls-3" x="65.32" y="18.68" width="27.74" height="17.33" rx="2.17"/><rect class="cls-4" x="65.32" y="21.46" width="27.74" height="1.91"/><rect class="cls-5" x="68.15" y="25.92" width="12.7" height="0.94"/><rect class="cls-5" x="81.99" y="25.92" width="8.72" height="0.94"/><path class="cls-4" d="M61.62,23.19H49a.4.4,0,0,1,0-.79H61.62a.4.4,0,0,1,0,.79Z"/><path class="cls-4" d="M61.62,27.64h-8.7a.4.4,0,0,1,0-.79h8.7a.4.4,0,0,1,0,.79Z"/><path class="cls-4" d="M61.62,32H55.55a.39.39,0,0,1,0-.78h6.07a.39.39,0,0,1,0,.78Z"/><path class="cls-1" d="M56.8,127.24a59.15,59.15,0,0,0-5-4.23c-1.72-1.45-3.42-2.94-5-4.55a33,33,0,0,1-4.25-5.18,48.24,48.24,0,0,1-3.29-6.19c-1.8-3.93-3.49-8-6.3-11.29-2.33-2.79-5.9-5.59-9.73-5.57a4.28,4.28,0,0,0-4.19,2.91,8,8,0,0,0,.41,5.65c1.69,4,5.46,6.47,8.82,8.95a23.2,23.2,0,0,1,4.75,4.37,25.47,25.47,0,0,1,2.87,5c1.58,3.46,2.82,7.15,5.17,10.2a16.51,16.51,0,0,0,8.19,5.34c2.37.76,7.4,2.86,8.87-.41C59,130.49,58,128.54,56.8,127.24Z"/><path class="cls-5" d="M63.68,135.31a.2.2,0,0,1-.15,0,45.88,45.88,0,0,1-22.18-16.8c-1.63-2.33-3.08-4.86-4.49-7.31C34,106.13,31,100.9,26.28,97.4a.28.28,0,1,1,.34-.45c4.78,3.57,7.81,8.85,10.74,14,1.4,2.44,2.84,5,4.46,7.26a45.3,45.3,0,0,0,21.9,16.59.28.28,0,0,1,.17.37A.26.26,0,0,1,63.68,135.31Z"/><path class="cls-1" d="M48.39,122.07a59,59,0,0,0-6.26-1.83c-2.17-.62-4.33-1.29-6.43-2.11a34.61,34.61,0,0,1-6-3,46.89,46.89,0,0,1-5.53-4.31C20.92,108,17.73,105,13.81,103.1c-3.27-1.58-7.67-2.68-11.16-1.09A4.25,4.25,0,0,0,0,106.38a8,8,0,0,0,2.69,5c3.17,3,7.62,3.67,11.7,4.56a23.47,23.47,0,0,1,6.12,2,25.2,25.2,0,0,1,4.68,3.4c2.85,2.52,5.49,5.38,8.88,7.2a16.57,16.57,0,0,0,9.66,1.52c2.47-.27,7.92-.41,7.93-4C51.68,124.15,50.05,122.75,48.39,122.07Z"/><path class="cls-5" d="M58,126.62a.25.25,0,0,1-.15,0,45.82,45.82,0,0,1-27.11-6.27c-2.44-1.45-4.8-3.16-7.08-4.82-4.72-3.43-9.6-7-15.3-8.26a.29.29,0,1,1,.13-.56c5.81,1.31,10.74,4.89,15.5,8.35,2.28,1.66,4.62,3.36,7,4.8a45.25,45.25,0,0,0,26.77,6.19.29.29,0,0,1,.31.27A.3.3,0,0,1,58,126.62Z"/><path class="cls-1" d="M135.89,122.81c2.23-.75,4.55-1.83,5.38-4.21a3.88,3.88,0,0,0-2.57-5.09,10.87,10.87,0,0,0-3.94-.33,4,4,0,0,1-1.66-.13c-.75-.33-.52-1.16,0-1.61a4.51,4.51,0,0,1,1.8-.8l2.29-.68c1.39-.41,2.78-.84,4.14-1.33,4.62-1.66,9.6-4.49,11.49-9.3a6.54,6.54,0,0,0-.67-6.6c-1.51-1.82-4-2.53-6.29-2.75a15.78,15.78,0,0,0-13.65,5.94,37.59,37.59,0,0,0-4.13,6.45c-.54,1-1.08,2.58-2.29,3-1.48.49-1.67-1.35-2-2.32-.8-2.36-3.28-3.18-5.58-2.69a11.12,11.12,0,0,0-5.88,3.69c-3.4,3.91-4.24,9.16-4.13,14.19,0,1.37.13,2.73.24,4.1a.78.78,0,0,0,.07.23,5.44,5.44,0,0,0,2.4,3.6c2.07,1.39,4.73,1.35,7.1,1.11C124.11,126.65,130.09,124.76,135.89,122.81Z"/><path class="cls-5" d="M103.87,134.23a129.59,129.59,0,0,1,9.72-11.61h.06A72.94,72.94,0,0,1,132.44,118a.31.31,0,0,0,.28-.34.32.32,0,0,0-.35-.28,73.67,73.67,0,0,0-17.8,4.24,130.35,130.35,0,0,1,31.81-24.25.3.3,0,0,0,.12-.42.31.31,0,0,0-.42-.13,130.67,130.67,0,0,0-29.53,21.91,73.88,73.88,0,0,0,3.11-13.78.32.32,0,0,0-.27-.35.32.32,0,0,0-.36.28,73.79,73.79,0,0,1-3.41,14.66.25.25,0,0,0,0,.12,128.31,128.31,0,0,0-12.24,14.23.29.29,0,0,0-.06.25.33.33,0,0,0,.12.19A.32.32,0,0,0,103.87,134.23Z"/><polygon class="cls-3" points="77.41 90.22 111.25 105.12 113.72 97.55 122.94 69.28 95.94 57.4 81.32 83.29 77.41 90.22"/><polygon class="cls-4" points="77.41 90.22 111.25 105.12 113.72 97.55 81.32 83.29 77.41 90.22"/><path class="cls-4" d="M99.89,63.62a.58.58,0,0,0,.75-.29l2.16-4.93a8.06,8.06,0,0,1,14.76,6.49l-2.17,4.93a.57.57,0,1,0,1,.46l2.17-4.93a9.19,9.19,0,0,0-16.83-7.41L99.6,62.87A.56.56,0,0,0,99.89,63.62Z"/><polygon class="cls-3" points="42.62 102.42 81.44 93.88 78.78 85.75 68.85 55.38 37.88 62.19 41.62 93.92 42.62 102.42"/><polygon class="cls-4" points="42.62 102.42 81.44 93.88 78.78 85.75 41.62 93.92 42.62 102.42"/><path class="cls-4" d="M45.26,65.07a.6.6,0,0,0,.46-.72L44.48,58.7A8.66,8.66,0,1,1,61.4,55l1.24,5.65a.62.62,0,0,0,.73.46.6.6,0,0,0,.46-.73l-1.24-5.65A9.88,9.88,0,1,0,43.29,59l1.24,5.65A.6.6,0,0,0,45.26,65.07Z"/><path class="cls-3" d="M63.32,93.42a.73.73,0,0,0,.64.82c6.15.8,14.62,3.88,14.7,3.92a.51.51,0,0,0,.17,0h0a.55.55,0,0,0,.22,0h0c.46-.1,13.59-2.82,19.66-2.23a.73.73,0,0,0,.15-1.46h0c-3.25-.32-8.29.25-12.51.89A8,8,0,0,0,90,91.75a4.15,4.15,0,0,0-.71-4A3.32,3.32,0,0,0,86.13,86c-2.88.4-5.51,5.45-6.9,8.66-.63-3.44-2-9-4.77-10-.77-.3-2-.38-3.48.93a4.14,4.14,0,0,0-1.6,3.77c.27,2,2.12,4,4.1,5.52a64.45,64.45,0,0,0-9.33-2.13A.75.75,0,0,0,63.32,93.42ZM78,96.14c-2.62-1.48-6.81-4.35-7.16-6.94A2.75,2.75,0,0,1,72,86.72,2.19,2.19,0,0,1,73.62,86a1.66,1.66,0,0,1,.31.08C75.91,86.82,77.37,92.17,78,96.14Zm2.12.25c1.5-3.74,4.13-8.62,6.23-8.91a1,1,0,0,1,.32,0c.34,0,.85.25,1.46,1.1a2.71,2.71,0,0,1,.53,2.66C87.73,93.68,83,95.54,80.11,96.39Z"/><rect class="cls-3" x="49.61" y="99.08" width="54.26" height="34.74" transform="translate(139.79 240.86) rotate(-173.49)"/><rect class="cls-4" x="48.85" y="97.43" width="58.84" height="11.43" transform="translate(144.32 214.5) rotate(-173.49)"/><polygon class="cls-4" points="49.39 116.86 74.89 119.77 77.45 97.3 80.37 97.63 77.81 120.11 103.3 123.02 102.97 125.94 77.47 123.03 76.24 133.87 73.31 133.54 74.55 122.69 49.06 119.78 49.39 116.86"/><path class="cls-6" d="M13.48,58.3a2.13,2.13,0,0,0,2.13,2.14H28.72l18.59,75.87a2.14,2.14,0,0,0,2.08,1.62h13.9v3a5,5,0,1,0,3.06,0v-3H89.92v3A5,5,0,1,0,93,141v-3h15.78a2.13,2.13,0,0,0,2.07-1.63l14.43-59.37a2.14,2.14,0,0,0-2.08-2.64H36.51l-4-16.49a2.13,2.13,0,0,0-2.07-1.63H15.61A2.13,2.13,0,0,0,13.48,58.3Zm76.06,87.39a1.91,1.91,0,1,1,1.91,1.92A1.92,1.92,0,0,1,89.54,145.69Zm-23.2-12-3.59-25.41H76.94v25.41Zm14.87,0V108.25H95.4l-3.59,25.41Zm0-29.68V78.56H99.59L96,104Zm-19.07,0L58.55,78.56H76.94V104Zm58.32-25.42L114.29,104h-14l3.59-25.42Zm-13.38,55.1h-11l3.59-25.41h13.54Zm-44.17,12a1.91,1.91,0,1,1,1.91,1.92A1.92,1.92,0,0,1,62.91,145.69ZM44.84,108.25H58.43L62,133.66h-11ZM37.56,78.56H54.24L57.83,104h-14Z"/><circle class="cls-3" cx="15.63" cy="58.33" r="4.18"/><path class="cls-1" d="M86.16,68.79a1.7,1.7,0,1,0-3.3,0v5.52h21.46V68.79Z"/><path class="cls-2" d="M102.67,66.66H84.51a1.94,1.94,0,0,1,1.65,2.13V96.25h18.16V68.79A1.94,1.94,0,0,0,102.67,66.66Z"/><path class="cls-1" d="M95.71,70.8h-7.1a.25.25,0,0,1,0-.5h7.1a.25.25,0,0,1,0,.5Z"/><path class="cls-1" d="M95.71,80.08h-7.1a.25.25,0,0,1-.25-.25.26.26,0,0,1,.25-.26h7.1a.26.26,0,0,1,.25.26A.25.25,0,0,1,95.71,80.08Z"/><path class="cls-1" d="M95.71,84.72h-7.1a.26.26,0,0,1-.25-.26.25.25,0,0,1,.25-.25h7.1a.25.25,0,0,1,.25.25A.26.26,0,0,1,95.71,84.72Z"/><path class="cls-1" d="M95.71,87h-7.1a.26.26,0,0,1-.25-.26.25.25,0,0,1,.25-.25h7.1a.25.25,0,0,1,.25.25A.26.26,0,0,1,95.71,87Z"/><path class="cls-1" d="M95.71,89.38h-7.1a.25.25,0,0,1-.25-.25.26.26,0,0,1,.25-.26h7.1a.26.26,0,0,1,.25.26A.25.25,0,0,1,95.71,89.38Z"/><path class="cls-1" d="M95.71,91.72h-7.1a.25.25,0,1,1,0-.5h7.1a.25.25,0,1,1,0,.5Z"/><path class="cls-1" d="M102.05,73.12H88.61a.25.25,0,0,1-.25-.25.26.26,0,0,1,.25-.26h13.44a.26.26,0,0,1,.25.26A.25.25,0,0,1,102.05,73.12Z"/><path class="cls-1" d="M102.05,75.44H88.61a.25.25,0,0,1-.25-.25.26.26,0,0,1,.25-.26h13.44a.26.26,0,0,1,.25.26A.25.25,0,0,1,102.05,75.44Z"/><path class="cls-1" d="M102.05,77.76H88.61a.25.25,0,0,1-.25-.25.26.26,0,0,1,.25-.26h13.44a.26.26,0,0,1,.25.26A.25.25,0,0,1,102.05,77.76Z"/><path class="cls-1" d="M102.05,82.4H88.61a.26.26,0,0,1-.25-.26.25.25,0,0,1,.25-.25h13.44a.25.25,0,0,1,.25.25A.26.26,0,0,1,102.05,82.4Z"/></g></g></svg>