<svg xmlns="http://www.w3.org/2000/svg" viewBox="0 0 632.02 421.65"><defs><style>.cls-1{fill:#feefe6;}.cls-2{fill:#d49ba0;}.cls-23,.cls-27,.cls-28,.cls-3,.cls-33,.cls-35,.cls-44,.cls-45,.cls-48,.cls-51,.cls-52,.cls-53,.cls-63,.cls-66,.cls-71,.cls-72,.cls-74{fill:none;}.cls-3{stroke:#f2cdbf;}.cls-23,.cls-27,.cls-28,.cls-3,.cls-32,.cls-33,.cls-35,.cls-44,.cls-45,.cls-48,.cls-51,.cls-53,.cls-63,.cls-66,.cls-71,.cls-72,.cls-74{stroke-linecap:round;}.cls-23,.cls-27,.cls-28,.cls-3,.cls-32,.cls-33,.cls-35,.cls-44,.cls-45,.cls-48,.cls-51,.cls-52,.cls-53,.cls-63,.cls-66,.cls-71,.cls-72,.cls-74{stroke-miterlimit:10;}.cls-4{fill:#f2cdbf;}.cls-5{fill:#d4a59b;}.cls-6{fill:#faded2;}.cls-7{fill:#fff;}.cls-8{fill:#f0d3d8;}.cls-9{fill:#a7c2d9;}.cls-10{fill:#bf828b;}.cls-11{fill:#326894;}.cls-12{fill:#4d8ab3;}.cls-13{fill:#994403;}.cls-14{fill:#852e03;}.cls-15{fill:#732d02;}.cls-16{fill:#ebf5ff;}.cls-17,.cls-32{fill:#fbbd9a;}.cls-18{fill:#f0997f;}.cls-19{fill:#d43226;}.cls-20{fill:#002a42;}.cls-21{fill:#eb4a2a;}.cls-22{fill:#06384f;}.cls-23{stroke:#27788f;}.cls-24{fill:#8c4206;}.cls-25{fill:#a66317;}.cls-26{fill:#2f344d;}.cls-27{stroke:#8c4206;}.cls-27,.cls-28,.cls-44,.cls-45,.cls-71,.cls-72{stroke-width:2px;}.cls-28,.cls-32{stroke:#d45e4e;}.cls-29{fill:#de3b26;}.cls-30{fill:#163649;}.cls-31{fill:#b82621;}.cls-33{stroke:#b82621;}.cls-34{fill:#fdbd9b;}.cls-35,.cls-45{stroke:#b0514a;}.cls-35,.cls-48,.cls-66{stroke-width:0.5px;}.cls-36{fill:#316382;}.cls-37{fill:#407c91;}.cls-38{fill:#502202;}.cls-39{fill:#855321;}.cls-40{fill:#112c45;}.cls-41{fill:#163a4a;}.cls-42{fill:#4b8394;}.cls-43{fill:#6b4019;}.cls-44{stroke:#502202;}.cls-46{fill:#2d3a5e;}.cls-47{fill:#69c5c9;}.cls-48{stroke:#3e7c8a;}.cls-49{fill:#9bebe7;}.cls-50{fill:#dae8f7;}.cls-51{stroke:#b8c8e3;}.cls-52,.cls-53{stroke:#163649;}.cls-54{fill:#381b07;}.cls-55{fill:#db8e62;}.cls-56{fill:#1d9fb3;}.cls-57{fill:#b23f37;}.cls-58{fill:#678ca8;}.cls-59{fill:#136d94;}.cls-60{fill:#cf6e4a;}.cls-61{fill:#25b2c2;}.cls-62{fill:#27b8c1;}.cls-63{stroke:#51dbdb;}.cls-64{fill:#d68a5a;}.cls-65{fill:#24151a;}.cls-66,.cls-72{stroke:#a8473e;}.cls-67{fill:#32c9cf;}.cls-68{fill:#412408;}.cls-69{fill:#664216;}.cls-70{fill:#411f00;}.cls-71{stroke:#412408;}.cls-73{fill:#ffa8b1;}.cls-74{stroke:#fff;}.cls-75{fill:#f2e4e5;}</style></defs><title>Asset 1</title><g id="Layer_2" data-name="Layer 2"><g id="OBJECTS"><path class="cls-1" d="M164,405.92c90.67,22.75,238.89,25.29,338.93-22.6,92.41-44.23,111.43-206.85,48-299.09C505.89,18.68,419.54-7.47,336.74,1.82c-97.7,11-123.62,78.52-188.45,127.06C108,159.08,25.56,151.65,10,239.77-7.72,340.2,101.42,390.21,164,405.92Z"/><path class="cls-2" d="M481.26,403.49c11.63-201.76,99.39-226.6,113.17-209.62C623.3,229.43,523.06,340.76,481.26,403.49Z"/><path class="cls-3" d="M584.87,201.85a472.73,472.73,0,0,0-101.23,200"/><path class="cls-3" d="M559,203.58a88.46,88.46,0,0,1,4.6,26.24,145.76,145.76,0,0,1,28.55-3.25"/><path class="cls-3" d="M525.2,238.55a111.54,111.54,0,0,1,12,30.78,155.76,155.76,0,0,1,34-3.45"/><path class="cls-3" d="M501.92,289.26A147.23,147.23,0,0,1,513.77,312a85.11,85.11,0,0,1,34.11-6.15"/><path class="cls-3" d="M523.89,337.94a72.33,72.33,0,0,0-21.16,1.58,68,68,0,0,0-7.59-16.24"/><path class="cls-2" d="M481.26,403.49C545.76,300.79,628.1,267,631.84,304.06,637,355.45,525.79,389,481.26,403.49Z"/><path class="cls-3" d="M621.59,307.69a545.88,545.88,0,0,0-138.74,95"/><path class="cls-3" d="M603.34,297a86,86,0,0,1-2,21.34,36.63,36.63,0,0,1,19.38,7.91"/><path class="cls-3" d="M569,312.85a107.57,107.57,0,0,1,1.56,22.88,58,58,0,0,1,26.8,9.47"/><path class="cls-3" d="M536.42,336.52A42.16,42.16,0,0,1,540,355.41a56.83,56.83,0,0,1,25,8.09"/><rect class="cls-4" x="368.12" y="242.31" width="143" height="15"/><polygon class="cls-4" points="506.9 257.31 506.9 403.49 494.23 403.49 494.23 395.49 384.95 395.49 384.95 403.49 372.33 403.49 372.33 257.31 506.9 257.31"/><rect class="cls-5" x="372.33" y="257.31" width="134.56" height="3"/><rect class="cls-5" x="385.79" y="270.41" width="107.25" height="32.5"/><rect class="cls-6" x="384.69" y="267.41" width="109.45" height="32.5"/><rect class="cls-5" x="385.79" y="311.41" width="107.25" height="32.5"/><rect class="cls-6" x="384.69" y="308.41" width="109.45" height="32.5"/><rect class="cls-5" x="385.79" y="352.41" width="107.25" height="32.5"/><rect class="cls-6" x="384.69" y="349.41" width="109.45" height="32.5"/><path class="cls-7" d="M403.2,235V212.27h6.25V235a2.75,2.75,0,0,1-2.75,2.75H406A2.75,2.75,0,0,1,403.2,235Z"/><path class="cls-7" d="M402.07,211.55h0a.72.72,0,0,1,.72-.72h7.07a.72.72,0,0,1,.72.72h0a.72.72,0,0,1-.72.72h-7.07A.73.73,0,0,1,402.07,211.55Z"/><path class="cls-8" d="M404.2,234.65V219.77h4.25v14.88a2.12,2.12,0,0,1-2.12,2.12h0A2.12,2.12,0,0,1,404.2,234.65Z"/><path class="cls-7" d="M415.7,235V212.27H422V235a2.75,2.75,0,0,1-2.75,2.75h-.75A2.75,2.75,0,0,1,415.7,235Z"/><path class="cls-7" d="M414.57,211.55h0a.72.72,0,0,1,.72-.72h7.07a.72.72,0,0,1,.72.72h0a.72.72,0,0,1-.72.72h-7.07A.73.73,0,0,1,414.57,211.55Z"/><path class="cls-8" d="M416.7,234.65V219.77H421v14.88a2.12,2.12,0,0,1-2.12,2.12h0A2.12,2.12,0,0,1,416.7,234.65Z"/><path class="cls-7" d="M429,235V212.27h6.25V235a2.75,2.75,0,0,1-2.75,2.75h-.75A2.75,2.75,0,0,1,429,235Z"/><path class="cls-7" d="M427.82,211.55h0a.72.72,0,0,1,.72-.72h7.07a.72.72,0,0,1,.72.72h0a.72.72,0,0,1-.72.72h-7.07A.73.73,0,0,1,427.82,211.55Z"/><path class="cls-8" d="M430,234.65V219.77h4.25v14.88a2.12,2.12,0,0,1-2.12,2.12h0A2.12,2.12,0,0,1,430,234.65Z"/><path class="cls-7" d="M442.45,235V212.27h6.25V235a2.75,2.75,0,0,1-2.75,2.75h-.75A2.75,2.75,0,0,1,442.45,235Z"/><path class="cls-7" d="M441.32,211.55h0a.72.72,0,0,1,.72-.72h7.07a.72.72,0,0,1,.72.72h0a.72.72,0,0,1-.72.72H442A.73.73,0,0,1,441.32,211.55Z"/><path class="cls-8" d="M443.45,234.65V219.77h4.25v14.88a2.12,2.12,0,0,1-2.12,2.12h0A2.12,2.12,0,0,1,443.45,234.65Z"/><path class="cls-7" d="M457,235V212.27h6.25V235a2.75,2.75,0,0,1-2.75,2.75h-.75A2.75,2.75,0,0,1,457,235Z"/><path class="cls-7" d="M455.82,211.55h0a.72.72,0,0,1,.72-.72h7.07a.72.72,0,0,1,.72.72h0a.72.72,0,0,1-.72.72h-7.07A.73.73,0,0,1,455.82,211.55Z"/><path class="cls-8" d="M458,234.65V219.77h4.25v14.88a2.12,2.12,0,0,1-2.12,2.12h0A2.12,2.12,0,0,1,458,234.65Z"/><rect class="cls-9" x="397.02" y="213.58" width="77" height="2"/><rect class="cls-2" x="392.99" y="237.31" width="86" height="5"/><rect class="cls-2" x="396.4" y="210.83" width="2.19" height="28.97"/><rect class="cls-2" x="472.71" y="210.83" width="2.19" height="28.97"/><path class="cls-10" d="M82.34,313.82a114.28,114.28,0,0,0,24.16-81.4,113.45,113.45,0,0,0-40.24-75.59,563.86,563.86,0,0,1-2.65,64.06c-2,20.24-5,40.94-.21,60.7A62.14,62.14,0,0,0,82.34,313.82Z"/><path class="cls-3" d="M80.64,339.77c0-71.53,19-94.62-8.83-170.11"/><path class="cls-3" d="M85.05,182.07,79.23,194.5a30.28,30.28,0,0,0-11.06-3"/><path class="cls-3" d="M65.68,225.1a48.78,48.78,0,0,1,20.93,5.69,67.7,67.7,0,0,1,15-13.66"/><path class="cls-3" d="M64.85,259.8a33.45,33.45,0,0,1,21,5.36A92.68,92.68,0,0,1,106.09,249"/><path class="cls-3" d="M68.16,288.39a23.41,23.41,0,0,1,14.49,7.24A62.9,62.9,0,0,1,97,281.55"/><path class="cls-2" d="M95.39,311.64S80,278,99.72,241.08c10.9-20.37,34.45-45.16,63.82-65.89,0,0-14,76.1-31.35,107.92C118.81,307.63,95.39,311.64,95.39,311.64Z"/><path class="cls-3" d="M152.91,189.92C122.57,238.66,101,291.84,83.84,346.55"/><path class="cls-3" d="M133.61,202A81,81,0,0,1,138,215.11a125.79,125.79,0,0,1,15.59-2"/><path class="cls-3" d="M109.51,232.57a82.6,82.6,0,0,1,10.21,19.58,86.9,86.9,0,0,1,25.51-7.74"/><path class="cls-3" d="M95.34,258.43a68.61,68.61,0,0,1,11.59,22.44,139.39,139.39,0,0,1,28.14-8.49"/><path class="cls-3" d="M91.5,289.55a121.83,121.83,0,0,1,8.43,10.53,91.63,91.63,0,0,1,20.75-5.78"/><path class="cls-2" d="M66.35,318.46s13.35-18.93,3.48-51.76C56.31,221.72,0,189.82,0,189.82S15.1,251.36,26.88,282C38.81,313,66.35,318.46,66.35,318.46Z"/><path class="cls-3" d="M69.83,335s-7.68-61.9-62.37-136.52"/><path class="cls-3" d="M27.28,211.49a43.06,43.06,0,0,0-3.17,11.67,43,43,0,0,0-11.78-1.62"/><path class="cls-3" d="M20.06,253.17a51,51,0,0,1,22.41,1.57,40.5,40.5,0,0,1,9.05-18.19"/><path class="cls-3" d="M67.79,266.08a58.59,58.59,0,0,0-11.67,19.25,33.87,33.87,0,0,0-22.63-1.44"/><path class="cls-3" d="M49.41,308.52a44.71,44.71,0,0,1,14.78-.2,34.2,34.2,0,0,1,7.16-10.52"/><polygon class="cls-2" points="117.69 323.67 115.58 335.57 113.27 348.66 112.05 355.52 109.74 368.62 103.58 403.49 58.6 403.49 52.32 368.62 49.96 355.52 48.73 348.66 46.36 335.57 44.22 323.67 117.69 323.67"/><polygon class="cls-6" points="115.58 335.57 113.27 348.66 48.73 348.66 46.36 335.57 115.58 335.57"/><polygon class="cls-6" points="112.05 355.52 109.74 368.62 52.32 368.62 49.96 355.52 112.05 355.52"/><rect class="cls-11" x="125.89" y="385.24" width="73.67" height="6.85"/><path class="cls-12" d="M138.5,321.82a4.55,4.55,0,0,1,0,.52l-1.14,9.44-10.19,84.11a4,4,0,0,1-4.47,3.57,4.08,4.08,0,0,1-3.52-4.07,4.55,4.55,0,0,1,0-.52l10.06-83.09,1.26-10.45a4,4,0,0,1,8,.49Z"/><path class="cls-11" d="M138.5,321.82a4.55,4.55,0,0,1,0,.52l-1.14,9.44h-8.07l1.26-10.45a4,4,0,0,1,8,.49Z"/><path class="cls-12" d="M167.74,321.11v94.26a4,4,0,0,1-4,4.11,3.94,3.94,0,0,1-2.83-1.21,4.15,4.15,0,0,1-1.17-2.91V321.1a4.06,4.06,0,0,1,4-4.11,3.9,3.9,0,0,1,2.83,1.21A4.2,4.2,0,0,1,167.74,321.11Z"/><path class="cls-11" d="M166.56,318.21a4.12,4.12,0,0,1,1.17,2.91v10.66h-8V321.12a4.06,4.06,0,0,1,4-4.11A3.86,3.86,0,0,1,166.56,318.21Z"/><path class="cls-12" d="M208,415.37a4.07,4.07,0,0,1-3.51,4.08,4,4,0,0,1-4.47-3.57l-10.19-84.11-1.14-9.44a4.55,4.55,0,0,1,0-.52,4.09,4.09,0,0,1,3.52-4.07,4,4,0,0,1,4.47,3.57l1.26,10.45L208,414.85A3.2,3.2,0,0,1,208,415.37Z"/><path class="cls-11" d="M197.91,331.77h-8.07l-1.14-9.44a4.55,4.55,0,0,1,0-.52,4.09,4.09,0,0,1,3.52-4.07,4,4,0,0,1,4.47,3.57Z"/><path class="cls-13" d="M215.29,310.48v2.67a8.45,8.45,0,0,1-8.45,8.45H131.2a8.45,8.45,0,0,1-8.45-8.45v-2.67A8.45,8.45,0,0,1,131.2,302h75.64A8.44,8.44,0,0,1,215.29,310.48Z"/><path class="cls-14" d="M215.29,310.48v2.67a8.45,8.45,0,0,1-8.45,8.45H138.18a8.45,8.45,0,0,1-8.45-8.45v-2.67a8.45,8.45,0,0,1,8.45-8.45h68.66A8.44,8.44,0,0,1,215.29,310.48Z"/><path class="cls-15" d="M136.3,142.06c-1,1.94-1.91,3.89-2.76,5.76a42,42,0,0,0,0,10.15,28.83,28.83,0,0,1-.57,10.11,11.33,11.33,0,0,1-6.42,7.6c-2.12.81-4.65.87-6.29,2.41-1.86,1.75-1.73,4.69-1.05,7.11a11,11,0,0,0,3.08,5.46c1.61,1.41,4.2,2.33,6,1.31a4.3,4.3,0,0,1,5.31,1.26c1.26,1.54,1.85,3.53,3.09,5.09a10,10,0,0,0,7.6,3.44c2.89.07,6-.34,7.9-1.54,4.13-2.59,9.28-4.31,13.51-1.88,2.23,1.28,4,3.32,6.4,4.24a7.86,7.86,0,0,0,6.37-.39c1.93-1,2.67-3.2,3.88-4.87,2.22-3.06,7.6-.59,11.32-1.6a8.16,8.16,0,0,0,5.73-9.37c-.93-3.91-5.26-5.3-9.12-5.88-2.65-.4-3.74-3.77-4.35-6.29a28,28,0,0,1-.39-7.76c.23-5.29,2.64-17.63,1.11-19.29a25.61,25.61,0,0,0-4.89-3.56l-15.06-6.88c-4.57-2.09-9.36-4.22-14.41-4.08S139.92,134.69,136.3,142.06Z"/><path class="cls-16" d="M153.7,189.69s-22.28,3.52-24.64,11.41,11.17,63.1,11.17,63.1l50.06-3.06s3.64-63.64-4.32-67.63S153.7,189.69,153.7,189.69Z"/><path class="cls-17" d="M173.13,191.88S169.88,203,164,205.37,145.19,193,145.19,193c2.6-1.65,3.58-5.62,3.9-9.24a40.27,40.27,0,0,0,0-7l17.9,3.44c-.46,5.54,1.17,8.45,2.88,10A6.54,6.54,0,0,0,173.13,191.88Z"/><path class="cls-18" d="M169.83,190.24c-8.5,1.12-16.2-3.14-20.74-6.44a40.27,40.27,0,0,0,0-7l17.9,3.44C166.48,185.79,168.12,188.71,169.83,190.24Z"/><path class="cls-19" d="M221.61,399.45c-1.93,3.21-35.43-17.44-35.43-21,0-2.32,4.37-5.68,7.41-7.72,1.63-1.1,2.87-1.83,2.87-1.83l7.82-3.59,3.52,1.89c5.13,8.84,10,18.05,12.48,24.46C221.74,395.44,222.33,398.26,221.61,399.45Z"/><path class="cls-18" d="M220.29,391.65c-9.6.4-22.29-15.13-26.69-20.93,1.63-1.1,2.87-1.83,2.87-1.83l7.82-3.59,3.52,1.89C213,376,217.84,385.24,220.29,391.65Z"/><path class="cls-20" d="M187.14,265.86s61,7.72,63.05,23.33-38.25,84.49-38.25,84.49l-14.5-3.78,18.92-61.58-48.55-20.6,9.67-21.86Z"/><path class="cls-21" d="M206.79,401.23c-1.93,3.21-35.43-17.44-35.43-21,0-2.32,4.37-5.68,7.41-7.72,1.63-1.1,2.87-1.83,2.87-1.83l7.82-3.59L193,369c5.13,8.84,10,18,12.48,24.46C206.92,397.22,207.51,400,206.79,401.23Z"/><path class="cls-17" d="M205.47,393.43c-9.6.4-22.29-15.13-26.69-20.93,1.63-1.1,2.87-1.83,2.87-1.83l7.82-3.59L193,369C198.13,377.81,203,387,205.47,393.43Z"/><path class="cls-22" d="M135.71,260.63s-21.13,41.78,16,46.29c27,3.28,44.91,2.62,45.47,4.12.92,2.41-17.57,60.75-17.57,60.75l18.21,5.76s37.69-80.95,35.64-88c-1.69-5.8-53.7-14.65-53.7-14.65,4.38-2.08,7.6-9.65,7.13-19.41Z"/><path class="cls-23" d="M141.57,257s-12.12,26.67-2.42,37.49c11.43,12.75,61.42,8.64,64.9,13.15,2.79,3.61-19.31,62.58-19.31,62.58"/><line class="cls-23" x1="181.13" y1="369.34" x2="198.75" y2="374.71"/><path class="cls-18" d="M181.69,157.59c4.3-.48,8.07,1.67,8.42,4.8s-2.84,6.08-7.13,6.57-8.07-1.66-8.43-4.8S177.39,158.08,181.69,157.59Z"/><path class="cls-17" d="M139.15,157.34c0-14.83,9.42-26.85,22.07-26.85s22.91,12,22.91,26.85-6.47,27.59-18.38,28S139.15,172.16,139.15,157.34Z"/><path class="cls-18" d="M140.38,160.78a26.7,26.7,0,0,0,14-14.68c3.29,3.71,8.09,5.81,13,6.72s9.87.74,14.55.61a8.8,8.8,0,0,1,2.94,5.07,29.85,29.85,0,0,0-1.37-13.13q-18.9-5.76-37.57-12.23C144,142,142.12,150.88,140.38,160.78Z"/><path class="cls-24" d="M152.25,139.31c2.71,5.11,7.95,8.51,13.46,10.27s11.37,2,17.23,2.21a38.85,38.85,0,0,1,1.11,10.29,35.78,35.78,0,0,0,3.25-12.55c0-1.12,0-2.26,0-3.46-.29-8.16-3.67-12.8-8.2-16.28a25.66,25.66,0,0,0-15.83-5c-5.65,0-9.24,1.28-11.39,3.51a8.63,8.63,0,0,0-1.76,2.7C149.22,133.2,150.25,135.55,152.25,139.31Z"/><path class="cls-24" d="M133.41,162.57c-.19-7.25-.65-19.66,2.27-25.59,1.91-3.88,5.52-7.11,9.81-7.69s9,2.08,10,6.29a50.48,50.48,0,0,1-13.72,25.69C139.39,162.43,135.85,163.2,133.41,162.57Z"/><path class="cls-25" d="M151.89,128.35a28.72,28.72,0,0,1,24.42,4.92,31.5,31.5,0,0,1,11,16.27c0-1.12,0-2.26,0-3.46-.29-8.16-3.67-12.8-8.2-16.28a25.66,25.66,0,0,0-15.83-5C157.63,124.84,154,126.12,151.89,128.35Z"/><ellipse class="cls-17" cx="138.32" cy="164.74" rx="5.72" ry="7.83" transform="translate(-55.57 257.88) rotate(-75.64)"/><ellipse class="cls-26" cx="162.07" cy="164.74" rx="1.19" ry="1.9"/><ellipse class="cls-26" cx="178.62" cy="164.75" rx="1.19" ry="1.9"/><path class="cls-27" d="M175.14,155.89a8.32,8.32,0,0,1,7,.84"/><path class="cls-27" d="M163.09,155.68c-2.23-1-6.32-.78-8.25,1.42"/><path class="cls-28" d="M170.54,163.59a10.46,10.46,0,0,1-.51,6.11"/><path class="cls-28" d="M169.11,175.58c-2.64.52-7.42-1-8.72-3.19"/><path class="cls-17" d="M178.62,198.62l8.93-5.39s7.53.64,12.63,10S214.8,242.69,217.81,244s39.7,1.8,39.7,1.8l.5,10.75s-44.94,7.13-50.3,4.18S185,223.05,185,223.05Z"/><path class="cls-29" d="M178.07,197.41l1.72-6s9.86.42,14.9,4.37,9.17,14.69,9.17,14.69L191,231.15Z"/><path class="cls-30" d="M193.28,238.92s13.77-11.89,15.89-14.86c1.05-1.47,8.5,15.84,7.24,18-2,3.38-14.56,11.5-15.26,11S193.28,238.92,193.28,238.92Z"/><path class="cls-31" d="M189.67,228.09q6.22-9.89,12.44-19.76a3.14,3.14,0,0,1,.83-1c1-.69,2.53.16,2.95,1.32a6.13,6.13,0,0,1-.2,3.66,2.62,2.62,0,0,1,2.69,2.42,6.65,6.65,0,0,1-1,3.84,35.84,35.84,0,0,1-17.88,16.25C189.11,232.58,188.42,230.07,189.67,228.09Z"/><path class="cls-17" d="M251.84,247.5c5.14-3.61,15.08-10.77,15.83-11.11s6.92-.43,10.21.56,6.35,3.26,7.54,6.5c.33.91.42,2.12-.38,2.65a1.71,1.71,0,0,1-1.78-.09,6.69,6.69,0,0,1-1.37-1.29c-2.2-2.39-4.19-3.33-7.8-3.53,4.28.65,7,3.29,8.28,7.45.25.83.35,1.88-.32,2.42a1.67,1.67,0,0,1-1.9-.06,6.53,6.53,0,0,1-1.39-1.48,14.58,14.58,0,0,0-6-4.51,10.67,10.67,0,0,1,6.24,8.12,2.9,2.9,0,0,1-.09,1.55,1.2,1.2,0,0,1-1.22.78,1.82,1.82,0,0,1-1-.69c-1.78-2-3.18-4.15-5.55-5.59,2.16,2.88,4,7.56,3.53,8.78-.14.37-1.06,1-2.09,0s-2-3.17-3.81-5.4a13.41,13.41,0,0,1-12.67,4.06C254.65,253.53,253.21,250.44,251.84,247.5Z"/><path class="cls-32" d="M261.17,242.92a105,105,0,0,1,11.15-3.33,4.43,4.43,0,0,1,1.53-.18,1.57,1.57,0,0,1,1.25.79,1.52,1.52,0,0,1-.23,1.5,4,4,0,0,1-1.22,1,51.42,51.42,0,0,1-5.06,2.68,7.38,7.38,0,0,1-4.88,5.92"/><path class="cls-21" d="M170.13,190.42c2.14,1.86,3.53,12.34,4.63,19,1.65,10,10.05,53.37,10.55,56.44.89,5.42,18.05,5.05,18.74,2.22.13-.52-5-2.91-5.83-6.37-.73-3.1-6.43-63.51-9.18-66.69C185.41,190.82,169.44,189.82,170.13,190.42Z"/><path class="cls-21" d="M146.58,190.42c1.79.64,7.41,12.58,10.08,23.51,5.58,22.83,2.26,56.73,0,61.21s-24.16,6.45-27.88,5.26c-2.16-.69-4.51-69-3-77.61C126.76,197.07,146,190.23,146.58,190.42Z"/><path class="cls-17" d="M179.39,266.76c4.62-1.69,18-5.21,19.84-5a6.91,6.91,0,0,1,5,2.42,10.58,10.58,0,0,1,1.47,3.5l1.71,6a5.29,5.29,0,0,1,.3,2.15,1.63,1.63,0,0,1-1.28,1.49c-1,.08-1.56-1.07-1.91-2-.9-2.49-1.8-5-2.69-7.42.59,3.07,1.17,6.15,1.76,9.22a5.29,5.29,0,0,1,.11,2.2,1.64,1.64,0,0,1-1.42,1.38c-1,0-1.51-1.33-1.74-2.41a66.4,66.4,0,0,0-1.82-7.19,20.52,20.52,0,0,1,.44,10.55,3.11,3.11,0,0,1-.64,1.47,1,1,0,0,1-1.38.16,1.77,1.77,0,0,1-.39-1.14l-.93-9.31c.3,3.27.59,6.64-.33,9.77a3.2,3.2,0,0,1-.79,1.5,1.15,1.15,0,0,1-1.49.14,2.07,2.07,0,0,1-.48-1.54c-.07-1.95-.14-3.9-.15-6.18a11,11,0,0,1-6.61,3.74,16.91,16.91,0,0,1-7.61-1C178.54,275.59,178.75,272,179.39,266.76Z"/><path class="cls-21" d="M145.19,210.83c-1.4-6.47-7.2-17-11.93-14.79-2.71,1.25-10.52,3.86-10.52,21,0,23.13,3,53.52,10.52,58.61,3.8,2.59,45.36,5.13,45.36,5.13l3-14.89s-30.63-5.68-32-9.88C147.63,250.05,148.91,228,145.19,210.83Z"/><path class="cls-33" d="M141.57,207.28c5.14,17.38,6.22,46.95,7,48.73.69,1.62,4.6,2.3,7.67,3.35"/><path class="cls-33" d="M147.44,278.27c-5.7-.57-12.78-1.68-14.36-2.86-1.86-1.39-4.13-8.19-5.73-12.83"/><path class="cls-33" d="M146.61,236c2-2.57,2.89-6.83,3.06-12"/><rect class="cls-11" x="298.37" y="383.46" width="73.67" height="6.67"/><path class="cls-12" d="M311,321.69a4.38,4.38,0,0,1,0,.51l-1.14,9.19L299.62,413.3a4,4,0,0,1-8-.48,4.38,4.38,0,0,1,0-.51l10.06-80.93L303,321.2a4,4,0,0,1,8,.49Z"/><path class="cls-11" d="M311,321.69a4.38,4.38,0,0,1,0,.51l-1.14,9.19h-8.07L303,321.21a4,4,0,0,1,8,.48Z"/><path class="cls-12" d="M340.22,321v91.8a4,4,0,1,1-8,0V321a4,4,0,0,1,4-4,4,4,0,0,1,4,4Z"/><path class="cls-11" d="M339.05,318.17a4,4,0,0,1,1.17,2.83v10.39h-8V321a4,4,0,0,1,6.84-2.83Z"/><path class="cls-12" d="M380.49,412.81a4,4,0,0,1-8,.5L362.32,331.4l-1.14-9.19a4.38,4.38,0,0,1,0-.51,4,4,0,0,1,8-.48l1.26,10.18,10.06,80.93A2.59,2.59,0,0,1,380.49,412.81Z"/><path class="cls-11" d="M370.4,331.39h-8.07l-1.14-9.19a4.38,4.38,0,0,1,0-.51,4,4,0,0,1,8-.48Z"/><path class="cls-13" d="M387.78,310.48v2.67a8.45,8.45,0,0,1-8.45,8.45H303.69a8.45,8.45,0,0,1-8.45-8.45v-2.67a8.45,8.45,0,0,1,8.45-8.45h75.64A8.44,8.44,0,0,1,387.78,310.48Z"/><path class="cls-14" d="M387.78,310.48v2.67a8.45,8.45,0,0,1-8.45,8.45H310.68a8.45,8.45,0,0,1-8.45-8.45v-2.67a8.45,8.45,0,0,1,8.45-8.45h68.65A8.44,8.44,0,0,1,387.78,310.48Z"/><path class="cls-34" d="M288.71,189.69c1.52-2.49,0-5.73.52-8.61a3.4,3.4,0,0,1,1.1-2.12,1.74,1.74,0,0,1,2.23,0c.71.69.47,1.85.46,2.84,0,1.78.83,3.43,1.2,5.17.9,4.22-1.34,7.69-3.48,11.33a20.84,20.84,0,0,1-8.57,3.39c-1.42.14-8.69-3.87-11.53-12.49-1.43-4.32-1.26-6.11-.78-6.7a1.55,1.55,0,0,1,2-.41,2.29,2.29,0,0,1,.69,1.16c.91,2.59,1.81,5.18,2.7,7.87a16.65,16.65,0,0,1-5.19-13c.05-.92.33-2,1.21-2.3a1.66,1.66,0,0,1,1.61.5,5,5,0,0,1,.93,1.5c1.26,2.73,2.53,5.45,4.3,8.69a12.61,12.61,0,0,1-3.44-12.15c.19-.72.62-1.56,1.37-1.57s1.21.83,1.48,1.55l3.84,10.3a14.58,14.58,0,0,1-2.16-9.72c.16-1.22.78-2.69,2-2.74a2,2,0,0,1,1.72,1.05,6.81,6.81,0,0,1,.69,2C284.62,179.18,286.36,182.9,288.71,189.69Z"/><path class="cls-35" d="M270.63,182.17c1.14-.31,1.94.09,2.38,1.74.62,2.33,2.27,7.73,4,8.93"/><polygon class="cls-34" points="291.1 196.16 295.29 205.93 284.21 212.64 279.28 199.6 291.1 196.16"/><path class="cls-36" d="M290.64,184.66c-.8-4.47-4.17-7.74-8-8.15l-.06-.31s-2,.36-2.68.51c-4.38,1-7.09,5.89-6.19,11s5.15,8.74,9.6,8.15c.68-.09,2.69-.45,2.69-.45l-.06-.31C289.4,193.37,291.44,189.14,290.64,184.66Z"/><path class="cls-37" d="M282.39,176.23c4.68-.84,9.24,2.79,10.18,8.09s-2.07,10.27-6.75,11.11-9.23-2.79-10.18-8.09S277.72,177.06,282.39,176.23Z"/><path class="cls-16" d="M290.61,184.67c-.73-4.07-4.24-6.86-7.84-6.22l-.19,0c-3.49.73-5.73,4.5-5,8.5s4.11,6.77,7.65,6.25l.19,0C289,192.58,291.34,188.75,290.61,184.67Z"/><path class="cls-7" d="M325.09,193.55l-6.82-5.19a18.21,18.21,0,0,0-6.82,7.79c-2.37,5.27-5.51,22.86-5.51,22.86L293.2,197.85,277,209.37s18,45.56,28.84,46.11S324.28,246,324.28,246Z"/><polygon class="cls-17" points="271.33 390.43 273.4 403.48 281.94 406.95 291.75 402.26 289.97 389.4 271.33 390.43"/><path class="cls-38" d="M297.27,419.49,253,418.85a11.26,11.26,0,0,1-.42-2.25,8,8,0,0,1,2.74-7.22c3.72-2.89,9.63-3.29,13.47-4.78a8.56,8.56,0,0,0,3.69-3.16l6.3.36s.52,3.51,2.86,3.3,10.07-4,10.07-4a38.94,38.94,0,0,1,5.49,15.5A15.88,15.88,0,0,1,297.27,419.49Z"/><path class="cls-39" d="M297.27,419.49,253,418.85a11.26,11.26,0,0,1-.42-2.25h44.61A15.48,15.48,0,0,1,297.27,419.49Z"/><polygon class="cls-17" points="324.27 390.43 326.34 403.48 334.88 406.95 344.69 402.26 342.91 389.4 324.27 390.43"/><path class="cls-38" d="M350.21,419.49l-44.27-.64a11.26,11.26,0,0,1-.42-2.25,8,8,0,0,1,2.74-7.22c3.72-2.89,9.63-3.29,13.47-4.78a8.56,8.56,0,0,0,3.69-3.16l6.3.36s.52,3.51,2.86,3.3,10.07-4,10.07-4a38.94,38.94,0,0,1,5.49,15.5A15.88,15.88,0,0,1,350.21,419.49Z"/><path class="cls-39" d="M350.21,419.49l-44.27-.64a11.26,11.26,0,0,1-.42-2.25h44.61A15.48,15.48,0,0,1,350.21,419.49Z"/><path class="cls-40" d="M321.67,261.43l-7.25,11.75s-41.51,6.32-48.23,16.49c-6.2,9.38,2.2,104.46,2.2,104.46H296.9s-2.18-70.23,0-76.73,67.55-6.13,71.3-14.95,5-39.77,5-39.77"/><path class="cls-41" d="M374.36,275s1.61,25.45-6.75,31.54c-7.26,5.29-25.72,6.67-25.72,6.67l3.56,79.16-27.26,1.78s-13.54-92.39-12.9-101.25,26.86-15.27,25.07-16.53c0,0-20.21-6.86-12.72-14.4l.55-.52c1.74-1.54,23,.05,23,.05l19.63-1.8,7.77,8.81Z"/><path class="cls-40" d="M373.35,283.05c-.17,1.25-.36,2.59-.56,3.95-3.36-4.27-8.79-10.52-13.58-13.15-9.93-5.46-41.67-9.19-41.67-9.19l.12-2.71.55-.52c1.74-1.54,23,.05,23,.05l19.63-1.8,7.77,8.81Z"/><path class="cls-34" d="M360.2,180.79s-11.69,15.1-19,14.33-13-8.83-13-8.83,2.92-1.08,4.18-5.85c.74-2.75.91-6.73-.35-12.44l21.64-3.21a30,30,0,0,0,.81,7.5C355.36,175.61,357,179.15,360.2,180.79Z"/><path class="cls-18" d="M332.44,180.45c.74-2.75.91-6.73-.35-12.44l21.64-3.21a30,30,0,0,0,.81,7.5A36.75,36.75,0,0,1,332.44,180.45Z"/><path class="cls-18" d="M312.21,155.2c.33-2.93,3.85-4.93,7.85-4.48s7,3.2,6.66,6.12-3.85,4.93-7.86,4.48S311.88,158.12,312.21,155.2Z"/><path class="cls-42" d="M320.43,156v-.08a1.74,1.74,0,0,0-1.74-1.74h-1A1.74,1.74,0,0,0,316,155.9V156a1.74,1.74,0,0,0,1.74,1.74h1A1.74,1.74,0,0,0,320.43,156Z"/><rect class="cls-42" x="315.98" y="155.94" width="1.46" height="4"/><path class="cls-34" d="M361.06,147.63c0-13.82-9.56-25-21.36-25s-21.36,7.38-21.36,25c0,13.82,5.36,25.81,18.06,26.65C348.17,175.05,361.06,161.46,361.06,147.63Z"/><path class="cls-18" d="M358.54,154.17a30,30,0,0,1-8.23-13.91,6.51,6.51,0,0,1-5.73-.87,15.89,15.89,0,0,1-13.42-.77,11.18,11.18,0,0,1-10-.31,21.22,21.22,0,0,0-3.31,6.79q.45-7.14.92-14.29,16.9-2.38,34-3.32a3.71,3.71,0,0,1,1.9.23,3.67,3.67,0,0,1,1.5,2.36C358.58,138,359.8,146.24,358.54,154.17Z"/><path class="cls-38" d="M364,129.28c-.47,7.1-.93,16.26-1.4,23.27-.66,2.41-2.73,2.32-5.54,3.22a69.49,69.49,0,0,1-5.18-19,13.77,13.77,0,0,1-8.48-.56,18.09,18.09,0,0,1-13.21,0,15.25,15.25,0,0,1-9.82.18c-1.15,3.49-1.71,8.79-2,12.51-.4-3.41-1.72-14-2.05-21.19a24.41,24.41,0,0,1,.25-6.65c1.34-3.93,5.68-2.66,6.84-1.31a6.5,6.5,0,0,1,4.41-3.68,7.15,7.15,0,0,1,5.84,1.39,7.45,7.45,0,0,1,6.27-3.85,6.21,6.21,0,0,1,6,3.84,13.09,13.09,0,0,1,3.77-1.52,5.5,5.5,0,0,1,3.94.61A4.25,4.25,0,0,1,355,118a6.06,6.06,0,0,1,.77,2.25,4,4,0,0,1,5-.93,6.5,6.5,0,0,1,3.06,4.42A18.89,18.89,0,0,1,364,129.28Z"/><path class="cls-43" d="M355,118a7.37,7.37,0,0,0-4.54-.44,6.78,6.78,0,0,0-4.56,3.5,6.23,6.23,0,0,0-6-3.94c-2.55.13-4.91,2-6.08,5a6.6,6.6,0,0,0-5.7-2.25,6.28,6.28,0,0,0-5,3.72A2.84,2.84,0,0,0,320,123a5.49,5.49,0,0,0-2.5,2.2,12.12,12.12,0,0,0-1.26,2.52,24.41,24.41,0,0,1,.25-6.65c1.34-3.93,5.68-2.66,6.84-1.31a6.5,6.5,0,0,1,4.41-3.68,7.15,7.15,0,0,1,5.84,1.39,7.45,7.45,0,0,1,6.27-3.85,6.21,6.21,0,0,1,6,3.84,13.09,13.09,0,0,1,3.77-1.52,5.5,5.5,0,0,1,3.94.61A4.3,4.3,0,0,1,355,118Z"/><path class="cls-44" d="M327,146.57a7,7,0,0,0-5.43,1"/><path class="cls-44" d="M341.11,146.93a6.58,6.58,0,0,1,6.24.61"/><path class="cls-45" d="M332.55,154.57a41.66,41.66,0,0,0,.58,5.9"/><path class="cls-45" d="M335.34,166a9.31,9.31,0,0,0,6.59-2.44"/><path class="cls-46" d="M341.89,154.13c.6-.11,1.2.45,1.34,1.23a1.15,1.15,0,1,1-1.34-1.23Z"/><path class="cls-46" d="M325.15,154.36c.6-.11,1.2.45,1.34,1.23a1.31,1.31,0,0,1-.84,1.62c-.6.11-1.21-.44-1.35-1.23A1.31,1.31,0,0,1,325.15,154.36Z"/><path class="cls-34" d="M359.22,150.72c4-.55,7.55,1.37,8,4.29s-2.51,5.72-6.51,6.27-7.55-1.36-8-4.28S355.22,151.27,359.22,150.72Z"/><path class="cls-42" d="M359,156v-.08a1.74,1.74,0,0,1,1.74-1.74h1a1.74,1.74,0,0,1,1.74,1.74V156a1.74,1.74,0,0,1-1.74,1.74h-1A1.74,1.74,0,0,1,359,156Z"/><rect class="cls-42" x="361.98" y="155.94" width="1.46" height="4"/><path class="cls-47" d="M357.54,177.48s-11.85,7.16-13.91,9.73a15.5,15.5,0,0,0-2.69,6.1s-2.84-6-3.48-6.49-5.61-5.21-5.61-5.21L326,186l-7.81,4.06.33,75,52.82,3.58,1.36-81.41Z"/><path class="cls-48" d="M340.88,193.75c-2.5,21,1.84,57.81-5.21,72.09"/><path class="cls-49" d="M341.9,190.19s.89-3.32,2.94-5,12.62-7.86,12.9-7.93,5.47,3.55,5.47,3.55L355.37,192s-8-5.65-9.92-5.17S341.9,190.19,341.9,190.19Z"/><path class="cls-49" d="M339.44,190.2a11.71,11.71,0,0,0-1.68-3.66c-1.24-1.53-5.34-5.95-5.76-5.92s-4.58,2.52-5.32,4-.32,8.65-.32,8.65,7-6.68,9.76-5.92C337.94,187.89,339.44,190.2,339.44,190.2Z"/><path class="cls-7" d="M362.08,179.55s-9.17,8.62-10.55,17.37-.85,54.79,7.64,70.11c7.36,13.29,8.06,55.62,8.06,75.27L393,333.42s-.11-35.25-8.43-67.89c-6.45-25.3-.26-71.53-3.95-76C378,186.32,362.08,179.55,362.08,179.55Z"/><path class="cls-50" d="M351.21,228.68s-2.13-24.32-.07-32.15,8-17.78,9.63-18.13c2.66-.57,8.61,4,8.61,4a58.73,58.73,0,0,0-6.24,21c-.13,1.14-9.58,4.63-9.58,4.63s7.38,5.4,7.28,5.93S351.21,228.68,351.21,228.68Z"/><ellipse class="cls-37" cx="334.3" cy="270.12" rx="10.01" ry="6.23"/><path class="cls-17" d="M348,262l-10.2-1.35a4.91,4.91,0,0,0-2.72.16,3.67,3.67,0,0,0-1.78,3.22c1.7.15,3.4.29,5.12.57a33.55,33.55,0,0,1-7.5,7.45,8.24,8.24,0,0,0-1.79,1.53,2.43,2.43,0,0,0-.51,2.21,2.31,2.31,0,0,0,1.77,1.39,19.67,19.67,0,0,0,2.48.07,2.71,2.71,0,0,0,1.31,3,3.25,3.25,0,0,0,3.4-.44,3.62,3.62,0,0,0,2.63,1.85,8.06,8.06,0,0,0,3.23-.51,4.27,4.27,0,0,0,3.25,1.46,5.41,5.41,0,0,0,3.42-1.49,26.31,26.31,0,0,0,6.81-9.57A73,73,0,0,1,348,262Z"/><path class="cls-7" d="M364.5,198.75c-.25-4.83,2.2-13.92,5.68-14.87,5.42-1.47,14.63,6.67,17.05,13.15s9.73,46.19,7.68,51.6C392.1,256,355,275.86,355,275.86l-11.5-16.81s25.73-14,27.26-18.4C371.7,237.87,365.09,210.08,364.5,198.75Z"/><path class="cls-51" d="M377,190.43s-4.15,5.43-4.15,15.21,2.4,32.94,1.84,33.79S356,252,356,252"/><path class="cls-51" d="M373.1,220.39a25.42,25.42,0,0,1-5.48-11"/><path class="cls-51" d="M363.25,271.87c5.89-3.21,14.41-8.22,19.54-12.31"/><path class="cls-7" d="M330.37,181.26s-1.56,6-1.56,16.43c0,17.5-2.28,66.16-11.49,73.35-7.24,5.65-16.31,5.29-20.43,5.29,0,0,8.57-4.56,11.77-9.85,3.56-5.88,4.16-24.57,4.63-34.31.5-10.32,1.43-38.76,2.61-41.24C318.46,185.58,330.37,181.26,330.37,181.26Z"/><path class="cls-50" d="M327.38,230.17s2.09-16.47,2.09-27.92a102.47,102.47,0,0,1,2.11-21.64s-7.28,2.31-8.08,3.49-4.57,8-6.5,20.78c-.32,2.12,8.28,3.87,8.28,3.87s-6.63,5.15-6.63,6.44C318.66,217.69,327.38,230.17,327.38,230.17Z"/><path class="cls-51" d="M315.5,196c0,27.9-2.53,50.22-3.75,58"/><path class="cls-51" d="M311.54,206c.72,4,2.46,7.95,3.53,9.16"/><path class="cls-52" d="M316.68,159.88s1.37,32.19,20.67,33.42c16.29,1,25.33-19,25.33-33.47"/><path class="cls-53" d="M338.57,193.7s-11.87,43.38-44.8,51.22c-40.3,9.6-79.79-1.19-79.79-1.19"/><path class="cls-53" d="M285.35,194.93s4.55,26.3-15.84,39.92c-18.06,12.07-55.53,8.34-55.53,8.34"/><path class="cls-53" d="M325,270s-73.86.15-111.5-26.23"/><path class="cls-54" d="M479.6,84.79a17.14,17.14,0,0,1,32.65-8.24c2.86,6.12,1.88,13.29.5,19.91s-3.08,13.47-1.51,20c1.33,5.53,4.9,10.41,5.61,16.05a16.86,16.86,0,0,1-12.06,17.79c-4.28,1.11-9.81-.26-11.17-4.47-1.26-3.9,1.62-8.05,1-12.1-.49-3.4-3.26-5.92-5.54-8.48C480.72,115.83,480.6,102.2,479.6,84.79Z"/><path class="cls-55" d="M406.17,184.4c-3.83-4.37-6.63-12.24-6.63-14.89,0-3.13-.5-6.34.6-9.27a23.25,23.25,0,0,1,2.31-4.24l3-4.65a3.13,3.13,0,0,1,1.61-1.52c1.23-.33,2.36,1.06,2.3,2.34s-.91,2.35-2.36,3.48a13.79,13.79,0,0,1,3.37-6.25,1.86,1.86,0,0,1,1.63-.78c1,.24,1,1.68.71,2.68-.68,2.51-1.35,5-1.89,7.18,2.14,4.08,2,8.92,2,13.52s.49,9.58,3.53,13C413.38,186.32,409.94,181.22,406.17,184.4Z"/><path class="cls-55" d="M405.73,183.86s10.15,34.68,17.82,35.39c9.28.87,16.82-7.71,16.82-7.71l6.06-31.06-13.74-8.23-7.58,24.89-10.82-12.23Z"/><path class="cls-56" d="M451.44,185.66c-7.56-2.86-15.15-5.66-22.7-8.56,2.06-9.87,4.92-21.7,7.42-25.48a16.78,16.78,0,0,1,12.24-7.43l3.45,10.21-.41,31Z"/><polygon class="cls-57" points="444.47 205.75 422.37 148.62 395.27 155.65 420.35 219.26 444.47 205.75"/><polygon class="cls-16" points="440.79 202.61 420.88 151.76 398.78 157.75 420.55 213.39 440.79 202.61"/><polygon class="cls-58" points="413.78 150.38 415.16 154.07 406.49 156.48 404.94 152.71 413.78 150.38"/><path class="cls-59" d="M431.41,412.25c.08,3.75,39.41,2.48,41.18-.61,1.15-2-1-7.1-2.59-10.39-.86-1.77-1.58-3-1.58-3l-5-7-4-.11c-8.85,5.11-17.67,10.67-23,15C433.3,408.72,431.38,410.86,431.41,412.25Z"/><path class="cls-55" d="M436.44,406.15c8.13,5.12,26.86-2,33.56-4.89-.86-1.77-1.58-3-1.58-3l-5-7-4-.11C450.58,396.24,441.75,401.8,436.44,406.15Z"/><polygon class="cls-55" points="448.51 375.7 449.9 391.03 450.4 396.53 450.75 400.31 466.66 398.64 466.79 395.97 466.79 395.96 466.92 393.16 467.8 375.04 467.89 373.22 458.2 374.46 448.51 375.7"/><polygon class="cls-60" points="448.51 375.7 449.9 391.03 457.86 392.02 457.87 392.02 464.58 392.87 466.92 393.16 467.8 375.04 458.2 374.46 448.51 375.7"/><path class="cls-56" d="M437.27,222.32s-6.84,18.92-5.49,45.82,12.69,120.71,12.69,120.71l28.26-1.33-4.84-121.1-6.82-37.5"/><path class="cls-59" d="M502.12,411.87c2.49,2.8,31.6-23.68,31-27.17-.43-2.28-5.34-4.77-8.71-6.22-1.8-.78-3.16-1.27-3.16-1.27l-8.35-2.08-3.11,2.5c-3.42,9.63-6.53,19.59-7.75,26.34C501.26,408,501.2,410.83,502.12,411.87Z"/><path class="cls-55" d="M502,404c9.51-1.38,19.12-19,22.37-25.49-1.8-.78-3.16-1.27-3.16-1.27l-8.35-2.08-3.11,2.5C506.32,387.25,503.21,397.2,502,404Z"/><polygon class="cls-55" points="491.43 372.96 498.04 379.43 506.37 387.58 509.09 390.23 520.12 378.65 518.48 376.52 513.71 370.34 504.57 358.5 491.43 372.96"/><polygon class="cls-60" points="491.43 372.96 498.04 379.43 513.71 370.34 504.57 358.5 491.43 372.96"/><path class="cls-61" d="M433.51,240.1c2.75,7.64,23.46,21.1,23.46,21.1s-.2,53.33.57,66.77,28.62,57.32,28.62,57.32l26.1-23.17S492,328.29,490.64,320.34,498,270.58,498,253.56a65.71,65.71,0,0,0-.77-9.61,119.87,119.87,0,0,0-4.65-19.19c-1.67-5.15-3.08-8.53-3.08-8.53a257.31,257.31,0,0,0-28.34,6c-13,3.62-25.87,8.85-27.84,15.52A3.76,3.76,0,0,0,433.51,240.1Z"/><path class="cls-56" d="M433.51,240.1A168.13,168.13,0,0,0,455,250.82a32.29,32.29,0,0,1,1.56-3.69c.65,1.41,1.31,2.8,2.11,4.71,12.76-3.2,25.64-5.91,38.57-7.89a119.87,119.87,0,0,0-4.65-19.19q-15.69-1.47-31.42-2.51c-13,3.62-25.87,8.85-27.84,15.52A3.69,3.69,0,0,0,433.51,240.1Z"/><path class="cls-62" d="M506,152.47c-1-6-23.7-13.71-31.42-13C458,141,446,144,442.2,146.35S435,170.86,435,177c0,7.3,2.51,21.63,1.84,27.41-1.3,11.21-8.1,34.95-8.1,34.95l25,8.76,3.1-5.46,2.83,6.92,41.3-9.47s-3.16-32.89-3.16-38.66C497.78,196,507.27,160.21,506,152.47Z"/><path class="cls-63" d="M467.41,156.39c-8.3,43.23-8.76,55.61-10.65,86"/><circle class="cls-59" cx="468.51" cy="164.95" r="1.39"/><circle class="cls-59" cx="465.03" cy="183.86" r="1.39"/><circle class="cls-59" cx="462.35" cy="203.79" r="1.39"/><circle class="cls-59" cx="460.96" cy="226.64" r="1.39"/><path class="cls-59" d="M419.21,183.15l4.14.33.32,0,27.76-7.29c1.9-1,2.22-2.57,1.77-3.84a3.14,3.14,0,0,0-4-1.76L422.71,180l-.27.24Z"/><path class="cls-64" d="M419.21,183.15l1.14.09,3,.24a1.94,1.94,0,0,1-.27-.23,1.37,1.37,0,0,1-.41-1.34c.06-.2.18-.41.1-.6a1,1,0,0,0-.18-.22,1,1,0,0,1-.16-.87l-2.37,2.16Z"/><path class="cls-65" d="M419.21,183.15l1.14.09a1.11,1.11,0,0,1-.25-.45,1.12,1.12,0,0,1,0-.41Z"/><path class="cls-55" d="M452,189.32c-2.73-5.06-5.45-10.12-8.36-15.19a27.53,27.53,0,0,0-7.07-3.9,19.67,19.67,0,0,0-8,5.11c-.56.59-1.15,1.42-.89,2.21a1.29,1.29,0,0,0,1.35.82,3.85,3.85,0,0,0,1.57-.63c1.51-.88,3-1.77,4.77-2.62a12.8,12.8,0,0,1,1.35,1.27,11.44,11.44,0,0,0-3.26.38,51.42,51.42,0,0,0-5.71,3.15,2.09,2.09,0,0,0-1.15,1.43,1.33,1.33,0,0,0,.71,1.26,2.48,2.48,0,0,0,1.4.2,9.24,9.24,0,0,0,4.9-1.83,6.43,6.43,0,0,1,1.6.62,8.14,8.14,0,0,0-2.2.63,3.06,3.06,0,0,0-1.44,4.34,1.16,1.16,0,0,0-.6,1.14,3.22,3.22,0,0,0,.42,1.29,25.57,25.57,0,0,0,1.41,2.45,4.48,4.48,0,0,0,1.82,1.77,1.8,1.8,0,0,0,2.29-.87,10.21,10.21,0,0,0,9.66,5.25A31,31,0,0,0,452,189.32Z"/><path class="cls-66" d="M440.11,177a10.92,10.92,0,0,0-3.11-.66"/><path class="cls-66" d="M438.1,181.34a11.44,11.44,0,0,0-2.73.08"/><path class="cls-66" d="M431.69,186.26a9.9,9.9,0,0,1,5.27-1"/><path class="cls-66" d="M436.46,192.08a10.62,10.62,0,0,1-1.11-3"/><path class="cls-66" d="M435.67,190.71a9,9,0,0,1-1.8.14"/><path class="cls-55" d="M444.87,196.31s34.56,29.31,43.89,26c3.71-1.32,7.39-12.08,10.06-22.1,2.46-9.21,4.06-17.78,4.06-17.78l-19.58-8.27s-1.31,8.88-2.63,16.1c-.87,4.87-1.75,9-2.22,9.1-2,.56-27.37-10.73-27.37-10.73Z"/><path class="cls-60" d="M480.67,190.28c4.67,3.06,12,7.57,18.14,9.95,2.46-9.21,4.06-17.78,4.06-17.78l-19.58-8.27S482,183.06,480.67,190.28Z"/><path class="cls-67" d="M502.87,192.87c-8.57-1.63-15.37-3-23.56-6,1.16-9.62,3.87-27,6.07-32.38,1.56-3.8,7.69-10.48,14.6-7.59s9.56,7.45,8.83,19.48C508.54,170.69,504.47,184.16,502.87,192.87Z"/><path class="cls-55" d="M461.09,143.84s2,9.1,5.89,11.76,18.57-13.7,18.57-13.7c-2.53-2.36-3.14-7-3.11-11.09a47.52,47.52,0,0,1,.73-7.78l-17.9,5.17a35.92,35.92,0,0,1-.74,9.9C463.31,143.07,461.09,143.84,461.09,143.84Z"/><path class="cls-60" d="M464.54,138.1c8.25,1.75,14.56-3.5,17.9-7.29a47.52,47.52,0,0,1,.73-7.78l-17.9,5.17A35.57,35.57,0,0,1,464.54,138.1Z"/><path class="cls-59" d="M467.64,155.92c-.23,0,.92-6.18,1.5-6.71s14.69-12.89,15.53-12.43c1.23.66,3.26,4.58,3.26,4.58a51.69,51.69,0,0,1-8.37,8.37C475.8,152.78,469.8,156.29,467.64,155.92Z"/><path class="cls-59" d="M467.64,155.89c.31-.31-.32-6.4-.68-7-1.17-1.85-3.15-6.67-3.15-10,0,0-3.56,1.35-4,2.13s1.5,6.56,3,9.31C465.33,155.05,467.39,156.14,467.64,155.89Z"/><ellipse class="cls-60" cx="450.62" cy="114.19" rx="5.44" ry="7.45" transform="translate(286.41 549.08) rotate(-83.53)"/><path class="cls-55" d="M493,105.63c0-14.1-9.75-25.53-21.78-25.53s-21.78,11.43-21.78,25.53,6,28.12,18.2,27.62C479.67,132.75,493,119.73,493,105.63Z"/><path class="cls-60" d="M488.19,111.68c-2.53-2.75-4.13-7.94-4.52-10.15a11.91,11.91,0,0,1-6.82-6.15c-3.69,3.69-17.71,5.77-22.39,4.55-3.33,4.11-3.43,6.15-4.61,11.4a57.41,57.41,0,0,1,1-19.25,206.3,206.3,0,0,0,25.67-10.22c1.42-.68,3.12-1.37,4.48-.57a5.29,5.29,0,0,1,1.77,2.41,30.58,30.58,0,0,0,7.86,10c.85.71,1.82,1.51,1.86,2.61a4,4,0,0,1-.7,2C490.21,101.2,490.48,108.15,488.19,111.68Z"/><path class="cls-68" d="M445.76,97c-.07,5.34,4.28,16.43,4.28,16.43s0-9.13,4.19-15.06c8.61,0,18.15-.4,23.43-5.3a11.69,11.69,0,0,0,7.33,7.2c-.1,4.84,2.12,9.37,3.51,13.44,2.71-1.65,4.75-1,7-3.56,1.28-4.73,2.64-12.12,2.25-16.69A23,23,0,0,0,494.39,83a16.26,16.26,0,0,0-1.6-2.11c-3.08-3.41-7.94-5.4-12.39-4.29a14.24,14.24,0,0,0-10-4.92,20,20,0,0,0-10.88,2.87C453,78.18,448,83.86,446.33,91.76A27.46,27.46,0,0,0,445.76,97Z"/><path class="cls-69" d="M445.76,97a21,21,0,0,1,.65-2,29,29,0,0,1,5.53-8.78c3.47-4,7.78-7.41,12.87-8.83s11-.52,14.8,3.15A14.68,14.68,0,0,1,494.38,83a16.26,16.26,0,0,0-1.6-2.11c-3.08-3.41-7.94-5.4-12.39-4.29a14.24,14.24,0,0,0-10.05-4.92,20,20,0,0,0-10.88,2.87C453,78.17,448,83.85,446.32,91.75A28.49,28.49,0,0,0,445.76,97Z"/><path class="cls-55" d="M491.69,109c4-1,7.82.52,8.57,3.43s-1.88,6.09-5.87,7.11-7.82-.51-8.57-3.42S487.71,110,491.69,109Z"/><ellipse class="cls-70" cx="472.72" cy="115.07" rx="0.95" ry="1.52"/><ellipse class="cls-70" cx="455.27" cy="115.07" rx="0.95" ry="1.52"/><path class="cls-71" d="M458.07,105.86a7.08,7.08,0,0,0-5.61.45"/><path class="cls-71" d="M471.24,106.65a6.71,6.71,0,0,1,6.36.62"/><path class="cls-72" d="M461.8,116.23a18.47,18.47,0,0,0,0,4.27"/><path class="cls-72" d="M462.87,124.72c2.65,1,5.42.48,6.85-1.69"/><circle class="cls-73" cx="155.45" cy="56.44" r="36.69"/><path class="cls-31" d="M131.48,44.1c8-15,23.91,5.12,23.91,5.12s15.91-17.16,23.91-6c8.31,11.57-23.91,38.52-23.91,38.52S124.65,56.83,131.48,44.1Z"/><polyline class="cls-74" points="128.83 60.89 139.96 61.01 143.42 47.47 150.55 73.21 156.19 42.03 162.32 70.11 165.98 49.75 169.9 60.43 182.07 60.76"/><circle class="cls-73" cx="257.01" cy="113.62" r="37.5"/><path class="cls-7" d="M277,115.28l-28.7,16.44A11.39,11.39,0,1,1,237,112l28.7-16.44a11.38,11.38,0,0,1,16.64,12.87A11.28,11.28,0,0,1,277,115.28Z"/><path class="cls-31" d="M277,115.28l-14.36,8.22-11.32-19.76,14.36-8.22a11.38,11.38,0,0,1,16.64,12.87A11.28,11.28,0,0,1,277,115.28Z"/><circle class="cls-73" cx="352.38" cy="44.44" r="36.69"/><path class="cls-7" d="M371.08,26V51.18a18.21,18.21,0,0,1-8.3,15.25l-10.4,6.07-9.54-6.19a18.26,18.26,0,0,1-9.17-15.79V26l18.58-5.32.13,0Z"/><path class="cls-75" d="M371.08,26V51.18a18.21,18.21,0,0,1-8.3,15.25l-10.4,6.07V20.75Z"/><rect class="cls-31" x="348.06" y="32.39" width="8.63" height="28.42"/><rect class="cls-31" x="338.16" y="42.29" width="28.42" height="8.63"/></g></g></svg>