<?xml version="1.0" standalone="no"?>
<!DOCTYPE svg PUBLIC "-//W3C//DTD SVG 20010904//EN"
 "http://www.w3.org/TR/2001/REC-SVG-20010904/DTD/svg10.dtd">
<svg version="1.0" xmlns="http://www.w3.org/2000/svg"
 width="128.000000pt" height="128.000000pt" viewBox="0 0 128.000000 128.000000"
 preserveAspectRatio="xMidYMid meet">

<g transform="translate(0.000000,128.000000) scale(0.100000,-0.100000)"
fill="#000000" stroke="none">
<path d="M401 1184 c-60 -16 -173 -73 -178 -90 -2 -6 5 -21 15 -34 l19 -24 35
21 c147 87 323 91 478 13 l63 -32 18 23 c10 13 17 28 16 33 -6 18 -120 74
-183 90 -77 20 -211 20 -283 0z"/>
<path d="M410 1027 c-36 -12 -75 -29 -88 -38 l-23 -17 23 -26 23 -27 54 25
c76 35 144 42 222 22 35 -9 74 -23 86 -31 31 -21 40 -19 60 11 16 25 16 27 -8
45 -39 31 -144 59 -218 59 -42 0 -90 -9 -131 -23z"/>
<path d="M0 640 l0 -300 85 0 85 0 0 300 0 300 -85 0 -85 0 0 -300z"/>
<path d="M890 855 l0 -85 55 0 55 0 0 -215 0 -215 85 0 85 0 0 215 0 215 55 0
55 0 0 85 0 85 -195 0 -195 0 0 -85z"/>
<path d="M469 887 c-84 -31 -140 -85 -168 -160 -16 -41 -13 -142 3 -182 52
-124 184 -187 310 -151 222 65 250 371 44 477 -50 25 -143 33 -189 16z m139
-194 c40 -44 25 -105 -33 -129 -78 -32 -148 55 -99 124 33 47 92 49 132 5z"/>
<path d="M320 333 l-20 -26 27 -19 c45 -30 150 -58 218 -58 69 0 176 29 214
59 24 18 24 20 8 45 -20 30 -29 32 -60 11 -12 -8 -51 -22 -86 -31 -78 -19
-146 -13 -220 21 -29 14 -54 25 -56 25 -2 0 -13 -12 -25 -27z"/>
<path d="M234 215 c-20 -31 -14 -39 57 -75 118 -60 252 -76 387 -45 65 15 183
72 189 91 1 5 -6 20 -16 33 l-19 25 -61 -33 c-148 -79 -336 -75 -476 11 -39
23 -41 23 -61 -7z"/>
</g>
</svg>
