<svg xmlns="http://www.w3.org/2000/svg"  viewBox="0 0 48 48" width="64px" height="64px" fill="#ec0000"><path d="M 13.5 10 C 8.8233445 10 5 13.823348 5 18.5 C 5 23.176652 8.8233445 27 13.5 27 C 15.276649 27 16.927416 26.444652 18.294922 25.503906 C 17.426881 29.215679 15.880003 31.80081 14.357422 33.589844 C 12.068414 36.279429 9.9433594 37.107422 9.9433594 37.107422 A 1.50015 1.50015 0 1 0 11.056641 39.892578 C 11.056641 39.892578 13.931586 38.720571 16.642578 35.535156 C 19.35357 32.349741 22 27.072581 22 19 A 1.50015 1.50015 0 0 0 21.984375 18.783203 C 21.987551 18.688256 22 18.595687 22 18.5 C 22 13.823348 18.176656 10 13.5 10 z M 34.5 10 C 29.823344 10 26 13.823348 26 18.5 C 26 23.176652 29.823344 27 34.5 27 C 36.276649 27 37.927416 26.444652 39.294922 25.503906 C 38.426881 29.215679 36.880003 31.80081 35.357422 33.589844 C 33.068414 36.279429 30.943359 37.107422 30.943359 37.107422 A 1.50015 1.50015 0 1 0 32.056641 39.892578 C 32.056641 39.892578 34.931586 38.720571 37.642578 35.535156 C 40.35357 32.349741 43 27.072581 43 19 A 1.50015 1.50015 0 0 0 42.984375 18.783203 C 42.987551 18.688256 43 18.595687 43 18.5 C 43 13.823348 39.176656 10 34.5 10 z M 13.5 13 C 16.555336 13 19 15.444666 19 18.5 C 19 21.555334 16.555336 24 13.5 24 C 10.444664 24 8 21.555334 8 18.5 C 8 15.444666 10.444664 13 13.5 13 z M 34.5 13 C 37.555336 13 40 15.444666 40 18.5 C 40 21.555334 37.555336 24 34.5 24 C 31.444664 24 29 21.555334 29 18.5 C 29 15.444666 31.444664 13 34.5 13 z"/></svg>