<svg xmlns="http://www.w3.org/2000/svg" xmlns:xlink="http://www.w3.org/1999/xlink" width="500" height="500" viewBox="0 0 500 500">
  <defs>
    <clipPath id="clip-path">
      <path id="Path_47616" data-name="Path 47616" d="M0,0H500V500H0Z"/>
    </clipPath>
    <clipPath id="clip-Solutions">
      <rect width="500" height="500"/>
    </clipPath>
  </defs>
  <g id="Solutions" clip-path="url(#clip-Solutions)">
    <g id="_456-handshake-deal-outline" data-name="456-handshake-deal-outline" clip-path="url(#clip-path)">
      <path id="Path_47613" data-name="Path 47613" d="M123.712,279.746S212.154,369.8,246.824,379.3c21.2,5.809,27.593-4.647,27.593-4.647m-52.863-56.929c47.635,53.444,55.171,65.92,69.71,58.091,7.552-4.066,13.941-12.78,16.846-17.718m-51.167-55.145c47.635,53.444,55.171,65.92,69.71,58.091,7.552-4.066,13.941-12.78,16.846-17.718m-58.672-58.963c47.635,53.444,55.17,65.921,69.709,58.092a45.739,45.739,0,0,0,7.652-6.415c7.606-9.12,3.123-21.793-5.492-29.966-18.485-17.538-62.451-56.773-87.233-77.245,0,0-31.643,29.933-54.008,28.481s-22.033-23.527-16.39-35.726,38.464-48.507,59.958-48.8,89.314,15.1,89.314,15.1m-197.073-4.938h82.489m151.6,110.608-23.417,18.854" fill="none" stroke="#121331" stroke-linecap="round" stroke-linejoin="round" stroke-width="12.6"/>
      <path id="Path_47614" data-name="Path 47614" d="M68.484,149.857V299.663h49.958l35.436-133.926s-12-7.474-42.7-12.991c-21.01-3.776-42.7-2.889-42.7-2.889Zm370.27,0V299.663H388.8l-43.508-120.2s15.1-18.589,50.769-26.722C416.869,148,438.754,149.857,438.754,149.857Z" fill="none" stroke="#2f4ccc" stroke-linecap="round" stroke-linejoin="round" stroke-width="12.6"/>
      <path id="Path_47615" data-name="Path 47615" d="M116.99,187.891a10.457,10.457,0,1,1-10.456-10.456A10.456,10.456,0,0,1,116.99,187.891Zm273.258,0A10.456,10.456,0,1,0,400.7,177.435,10.456,10.456,0,0,0,390.248,187.891Z" fill="#2f4ccc"/>
    </g>
  </g>
</svg>
