<svg xmlns="http://www.w3.org/2000/svg" xmlns:xlink="http://www.w3.org/1999/xlink" viewBox="0 0 195.17 168.23"><defs><style>.cls-1,.cls-46{fill:none;}.cls-2{fill:url(#linear-gradient);}.cls-3{clip-path:url(#clip-path);}.cls-4{fill:#b0dff4;}.cls-5{fill:#bae5f7;}.cls-6{fill:#edf6ff;}.cls-7{fill:#78e0de;}.cls-8{fill:#ffa64e;}.cls-9{fill:#fff;}.cls-10{fill:#ff8a31;}.cls-11{fill:url(#linear-gradient-2);}.cls-12{fill:url(#linear-gradient-3);}.cls-13{fill:url(#linear-gradient-4);}.cls-14{fill:url(#linear-gradient-5);}.cls-15{fill:url(#linear-gradient-6);}.cls-16{fill:url(#linear-gradient-7);}.cls-17{fill:url(#linear-gradient-8);}.cls-18{fill:url(#linear-gradient-9);}.cls-19{fill:url(#linear-gradient-10);}.cls-20{fill:url(#linear-gradient-11);}.cls-21{fill:url(#linear-gradient-12);}.cls-22{fill:url(#linear-gradient-13);}.cls-23{fill:url(#linear-gradient-14);}.cls-24{fill:url(#linear-gradient-15);}.cls-25{fill:url(#linear-gradient-16);}.cls-26{fill:url(#linear-gradient-17);}.cls-27{fill:url(#linear-gradient-18);}.cls-28{fill:url(#linear-gradient-19);}.cls-29{fill:url(#linear-gradient-20);}.cls-30{fill:url(#linear-gradient-21);}.cls-31{fill:url(#linear-gradient-22);}.cls-32{fill:url(#linear-gradient-23);}.cls-33{fill:url(#linear-gradient-24);}.cls-34{fill:url(#linear-gradient-25);}.cls-35{fill:url(#linear-gradient-26);}.cls-36{fill:url(#linear-gradient-27);}.cls-37{fill:url(#linear-gradient-28);}.cls-38{fill:url(#linear-gradient-29);}.cls-39{fill:url(#linear-gradient-30);}.cls-40{fill:url(#linear-gradient-31);}.cls-41{fill:#181844;}.cls-42{fill:#ddd;stroke:#4b4b90;stroke-width:0.93px;}.cls-42,.cls-46{stroke-miterlimit:10;}.cls-43{fill:#ff7411;}.cls-44{fill:#ffa666;}.cls-45{fill:#1f1f54;}.cls-46{stroke:#ff812c;stroke-linecap:round;stroke-width:0.41px;}.cls-47{fill:#f4454e;}.cls-48{fill:#cfeeff;}</style><linearGradient id="linear-gradient" x1="92.08" y1="15.5" x2="92.08" y2="158.57" gradientUnits="userSpaceOnUse"><stop offset="0.01" stop-color="#edf6ff"/><stop offset="1" stop-color="#bfe8f9"/></linearGradient><clipPath id="clip-path"><path class="cls-1" d="M112.21,17.93A52.33,52.33,0,0,0,60.93,16a56.56,56.56,0,0,0-22,20.25C21,64.5,33.76,79.1,22,103.2c-15.18,31-12.18,58.42,24.57,63.05,32.4,4.08,49.08-16,79.72-10.25,38.53,7.25,56-34,36.61-56.34C141.27,74.75,141.18,66.81,130.77,41,127.58,33.09,118.84,22,112.21,17.93Z"/></clipPath><linearGradient id="linear-gradient-2" x1="127.62" y1="135.81" x2="50.96" y2="98.81" gradientUnits="userSpaceOnUse"><stop offset="0.01" stop-color="#ffae29"/><stop offset="1" stop-color="#ffc729"/></linearGradient><linearGradient id="linear-gradient-3" x1="66" y1="138.24" x2="164.07" y2="138.24" gradientUnits="userSpaceOnUse"><stop offset="0.01" stop-color="#fff"/><stop offset="0.36" stop-color="#fff" stop-opacity="0.8"/><stop offset="1" stop-color="#fff" stop-opacity="0.4"/></linearGradient><linearGradient id="linear-gradient-4" x1="66" y1="138.24" x2="164.07" y2="138.24" xlink:href="#linear-gradient-3"/><linearGradient id="linear-gradient-5" x1="66" y1="134.27" x2="164.07" y2="134.27" xlink:href="#linear-gradient-3"/><linearGradient id="linear-gradient-6" x1="66" y1="138.24" x2="164.07" y2="138.24" xlink:href="#linear-gradient-3"/><linearGradient id="linear-gradient-7" x1="66" y1="134.27" x2="164.07" y2="134.27" xlink:href="#linear-gradient-3"/><linearGradient id="linear-gradient-8" x1="66" y1="138.24" x2="164.07" y2="138.24" xlink:href="#linear-gradient-3"/><linearGradient id="linear-gradient-9" x1="66" y1="134.27" x2="164.07" y2="134.27" xlink:href="#linear-gradient-3"/><linearGradient id="linear-gradient-10" x1="66" y1="138.24" x2="164.07" y2="138.24" xlink:href="#linear-gradient-3"/><linearGradient id="linear-gradient-11" x1="66" y1="134.27" x2="164.07" y2="134.27" xlink:href="#linear-gradient-3"/><linearGradient id="linear-gradient-12" x1="66" y1="138.24" x2="164.07" y2="138.24" xlink:href="#linear-gradient-3"/><linearGradient id="linear-gradient-13" x1="66" y1="134.27" x2="164.07" y2="134.27" xlink:href="#linear-gradient-3"/><linearGradient id="linear-gradient-14" x1="66" y1="138.24" x2="164.07" y2="138.24" xlink:href="#linear-gradient-3"/><linearGradient id="linear-gradient-15" x1="66" y1="134.27" x2="164.07" y2="134.27" xlink:href="#linear-gradient-3"/><linearGradient id="linear-gradient-16" x1="66" y1="138.24" x2="164.07" y2="138.24" xlink:href="#linear-gradient-3"/><linearGradient id="linear-gradient-17" x1="66" y1="134.27" x2="164.07" y2="134.27" xlink:href="#linear-gradient-3"/><linearGradient id="linear-gradient-18" x1="66" y1="138.24" x2="164.07" y2="138.24" xlink:href="#linear-gradient-3"/><linearGradient id="linear-gradient-19" x1="66" y1="134.27" x2="164.07" y2="134.27" xlink:href="#linear-gradient-3"/><linearGradient id="linear-gradient-20" x1="66" y1="138.24" x2="164.07" y2="138.24" xlink:href="#linear-gradient-3"/><linearGradient id="linear-gradient-21" x1="66" y1="134.27" x2="164.07" y2="134.27" xlink:href="#linear-gradient-3"/><linearGradient id="linear-gradient-22" x1="66" y1="138.24" x2="164.07" y2="138.24" xlink:href="#linear-gradient-3"/><linearGradient id="linear-gradient-23" x1="66" y1="134.27" x2="164.07" y2="134.27" xlink:href="#linear-gradient-3"/><linearGradient id="linear-gradient-24" x1="66" y1="138.24" x2="164.07" y2="138.24" xlink:href="#linear-gradient-3"/><linearGradient id="linear-gradient-25" x1="66" y1="134.27" x2="164.07" y2="134.27" xlink:href="#linear-gradient-3"/><linearGradient id="linear-gradient-26" x1="66" y1="138.24" x2="164.07" y2="138.24" xlink:href="#linear-gradient-3"/><linearGradient id="linear-gradient-27" x1="66" y1="134.27" x2="164.07" y2="134.27" xlink:href="#linear-gradient-3"/><linearGradient id="linear-gradient-28" x1="90.34" y1="95.48" x2="183.04" y2="107.85" gradientUnits="userSpaceOnUse"><stop offset="0.01" stop-color="#003177"/><stop offset="1" stop-color="#003154"/></linearGradient><linearGradient id="linear-gradient-29" x1="89.8" y1="99.52" x2="182.5" y2="111.89" xlink:href="#linear-gradient-28"/><linearGradient id="linear-gradient-30" x1="89.16" y1="104.31" x2="181.86" y2="116.68" xlink:href="#linear-gradient-28"/><linearGradient id="linear-gradient-31" x1="88.83" y1="106.76" x2="181.53" y2="119.13" xlink:href="#linear-gradient-28"/></defs><title>Asset 6</title><g id="Layer_2" data-name="Layer 2"><g id="OBJECTS"><path class="cls-2" d="M112.21,17.93A52.33,52.33,0,0,0,60.93,16a56.56,56.56,0,0,0-22,20.25C21,64.5,33.76,79.1,22,103.2c-15.18,31-12.18,58.42,24.57,63.05,32.4,4.08,49.08-16,79.72-10.25,38.53,7.25,56-34,36.61-56.34C141.27,74.75,141.18,66.81,130.77,41,127.58,33.09,118.84,22,112.21,17.93Z"/><g class="cls-3"><path class="cls-4" d="M134,104.67V38.17H110.19v66.5H65.34v36.22h67.75V141h17.6V104.67ZM130.93,78H113.28v-1.8h17.65Zm0-3.6H113.28v-1.8h17.65Zm0-3.59H113.28V69h17.65Zm0-3.6H113.28v-1.8h17.65Zm0-3.6H113.28v-1.8h17.65Zm0-3.59H113.28v-1.8h17.65Zm0-3.6H113.28v-1.8h17.65Zm0-3.6H113.28V51h17.65Zm0-3.6H113.28V47.39h17.65Zm0-3.59H113.28v-1.8h17.65Zm0-3.6H113.28V40.2h17.65Z"/><path class="cls-5" d="M171.39,100.35v-63h-2.84V30.93H147.48v6.38h-2.82v79.25H124V80.67H94v47.1H79.49V43.4H49.9v64.82H46.43V69.64H41.08L26.16,61.76v7.88H22.9v47.65H15.65V52.76H8.33V30.12h-1V52.76H0v81.48H190.81V100.35ZM13.89,94.22H1.8v-1.4H13.89Zm0-3.24H1.8v-1.4H13.89Zm0-3.25H1.8v-1.4H13.89Zm0-3.25H1.8v-1.4H13.89Zm0-3.24H1.8v-1.4H13.89Zm0-3.25H1.8v-1.4H13.89Zm0-3.25H1.8v-1.4H13.89Zm0-3.24H1.8V70.1H13.89Zm0-3.25H1.8v-1.4H13.89Zm0-3.25H1.8V63.6H13.89Zm0-3.24H1.8v-1.4H13.89Zm0-3.25H1.8v-1.4H13.89Zm0-3.25H1.8v-1.4H13.89ZM56.28,74.59h-3.6V71h3.6Zm0-6h-3.6V65h3.6Zm0-6h-3.6V59h3.6Zm0-6h-3.6V53h3.6Zm0-6h-3.6V47h3.6Zm6.83,24H59.52V71h3.59Zm0-6H59.52V65h3.59Zm0-6H59.52V59h3.59Zm0-6H59.52V53h3.59Zm0-6H59.52V47h3.59Zm6.84,24h-3.6V71H70Zm0-6h-3.6V65H70Zm0-6h-3.6V59H70Zm0-6h-3.6V53H70Zm0-6h-3.6V47H70Zm6.84,24h-3.6V71h3.6Zm0-6h-3.6V65h3.6Zm0-6h-3.6V59h3.6Zm0-6h-3.6V53h3.6ZM175.13,130h-3.74v-3.74h3.74Zm0-7.49h-3.74v-3.74h3.74Zm0-7.49h-3.74V111.3h3.74Zm0-7.48h-3.74v-3.74h3.74ZM182.07,130h-3.74v-3.74h3.74Zm0-7.49h-3.74v-3.74h3.74Zm0-7.49h-3.74V111.3h3.74Zm0-7.48h-3.74v-3.74h3.74ZM189,130h-3.75v-3.74H189Zm0-7.49h-3.75v-3.74H189Zm0-7.49h-3.75V111.3H189Zm0-7.48h-3.75v-3.74H189Z"/><rect class="cls-6" x="73.19" y="118.98" width="3.6" height="3.6"/><rect class="cls-6" x="52.68" y="124.98" width="3.6" height="3.6"/><rect class="cls-6" x="59.51" y="124.98" width="3.6" height="3.6"/><rect class="cls-6" x="66.35" y="124.98" width="3.6" height="3.6"/><rect class="cls-6" x="73.19" y="124.98" width="3.6" height="3.6"/><rect class="cls-6" x="73.19" y="59" width="3.6" height="3.6"/><rect class="cls-6" x="52.68" y="65" width="3.6" height="3.6"/><rect class="cls-6" x="59.51" y="65" width="3.6" height="3.6"/><rect class="cls-6" x="66.35" y="65" width="3.6" height="3.6"/><rect class="cls-6" x="73.19" y="65" width="3.6" height="3.6"/><rect class="cls-6" x="52.68" y="70.99" width="3.6" height="3.6"/><rect class="cls-6" x="59.51" y="70.99" width="3.6" height="3.6"/><rect class="cls-6" x="66.35" y="70.99" width="3.6" height="3.6"/><rect class="cls-6" x="73.19" y="70.99" width="3.6" height="3.6"/><rect class="cls-6" x="52.68" y="76.99" width="3.6" height="3.6"/><rect class="cls-6" x="59.51" y="76.99" width="3.6" height="3.6"/><rect class="cls-6" x="66.35" y="76.99" width="3.6" height="3.6"/><rect class="cls-6" x="73.19" y="76.99" width="3.6" height="3.6"/><rect class="cls-6" x="52.68" y="82.99" width="3.6" height="3.6"/><rect class="cls-6" x="59.51" y="82.99" width="3.6" height="3.6"/><rect class="cls-6" x="66.35" y="82.99" width="3.6" height="3.6"/><rect class="cls-6" x="73.19" y="82.99" width="3.6" height="3.6"/><rect class="cls-6" x="52.68" y="88.99" width="3.6" height="3.6"/><rect class="cls-6" x="59.51" y="88.99" width="3.6" height="3.6"/><rect class="cls-6" x="66.35" y="88.99" width="3.6" height="3.6"/><rect class="cls-6" x="73.19" y="88.99" width="3.6" height="3.6"/><rect class="cls-6" x="52.68" y="94.99" width="3.6" height="3.6"/><rect class="cls-6" x="59.51" y="94.99" width="3.6" height="3.6"/><rect class="cls-6" x="66.35" y="94.99" width="3.6" height="3.6"/><rect class="cls-6" x="73.19" y="94.99" width="3.6" height="3.6"/><rect class="cls-6" x="52.68" y="100.98" width="3.6" height="3.6"/><rect class="cls-6" x="59.51" y="100.98" width="3.6" height="3.6"/><rect class="cls-6" x="66.35" y="100.98" width="3.6" height="3.6"/><rect class="cls-6" x="73.19" y="100.98" width="3.6" height="3.6"/><rect class="cls-6" x="52.68" y="106.98" width="3.6" height="3.6"/><rect class="cls-6" x="59.51" y="106.98" width="3.6" height="3.6"/><rect class="cls-6" x="66.35" y="106.98" width="3.6" height="3.6"/><rect class="cls-6" x="73.19" y="106.98" width="3.6" height="3.6"/><rect class="cls-6" x="52.68" y="112.98" width="3.6" height="3.6"/><rect class="cls-6" x="59.51" y="112.98" width="3.6" height="3.6"/><rect class="cls-6" x="66.35" y="112.98" width="3.6" height="3.6"/><rect class="cls-6" x="73.19" y="112.98" width="3.6" height="3.6"/><rect class="cls-6" x="52.68" y="118.98" width="3.6" height="3.6"/><rect class="cls-6" x="59.51" y="118.98" width="3.6" height="3.6"/><rect class="cls-6" x="66.35" y="118.98" width="3.6" height="3.6"/><rect class="cls-6" x="52.68" y="47" width="3.6" height="3.6"/><rect class="cls-6" x="59.51" y="47" width="3.6" height="3.6"/><rect class="cls-6" x="66.35" y="47" width="3.6" height="3.6"/><rect class="cls-6" x="52.68" y="53" width="3.6" height="3.6"/><rect class="cls-6" x="59.51" y="53" width="3.6" height="3.6"/><rect class="cls-6" x="66.35" y="53" width="3.6" height="3.6"/><rect class="cls-6" x="73.19" y="53" width="3.6" height="3.6"/><rect class="cls-6" x="52.68" y="59" width="3.6" height="3.6"/><rect class="cls-6" x="59.51" y="59" width="3.6" height="3.6"/><rect class="cls-6" x="66.35" y="59" width="3.6" height="3.6"/><path class="cls-7" d="M101.13,99.15s.52,1,.18,1.4c-.18.21-5.65,3.25-10.85,6.55s-9.85,6.66-10.42,6.76c-1.17.21-8.28-.15-8.28-.15a13.34,13.34,0,0,0,4.48-1.1c1.45-.87,8.46-5,10.35-6.07S100.51,99.41,101.13,99.15Z"/><path class="cls-8" d="M32.3,137.72s-1,4.84-.76,5,10.42.14,10.68,0,.68-.44,0-1.87-1.69-3-3.72-3.14S32.3,137.72,32.3,137.72Z"/><path class="cls-9" d="M194.68,139.65c-1.1,3.31-15,6.59-15,6.59s-142.84.69-145.59,0h-.08a3.74,3.74,0,0,1-2.75-3.32,2.94,2.94,0,0,1,0-1c.18-1,.45-2.47.81-4.17,1.15-5.41,3.16-13.11,5.68-15,3.5-2.51,26.25-7.35,34-9.07a0,0,0,0,0,0,0c1.08-.23,1.86-.41,2.25-.51,2.55-.65,16-9.09,27.07-14a54.85,54.85,0,0,1,7.36-2.78c14-3.94,43.53-1.54,52.17.2,2.31.45,5.53,2.09,9,4.23a184,184,0,0,1,16.37,11.68c3,2.34,4.92,4,4.92,4a8.06,8.06,0,0,1,.39,1.8v0c.36,3,0,7.39.3,8.62a3,3,0,0,0,.16.44,12.23,12.23,0,0,0,2.85,3.12S195.79,136.37,194.68,139.65Z"/><path class="cls-10" d="M126.52,95.37l2.6-6.53a1.37,1.37,0,0,1,1-.83,15.59,15.59,0,0,1,6.41.29,1.35,1.35,0,0,1,.92.93l1.71,6.14"/><path class="cls-11" d="M194.68,139.65c-1.1,3.31-15,6.59-15,6.59s-142.84.69-145.59,0h-.08a3.74,3.74,0,0,1-2.75-3.32,2.94,2.94,0,0,1,0-1c.18-1,.45-2.47.81-4.17s.87-3.87,1.43-5.89a.6.6,0,0,1,0-.11c1.11-4,2.55-7.74,4.22-9,3.5-2.51,26.25-7.35,34-9.07a0,0,0,0,0,0,0c1.08-.23,1.86-.41,2.25-.51,2.55-.65,16-9.09,27.07-14a54.85,54.85,0,0,1,7.36-2.78c12.4-3.48,37-2,48.42-.43a0,0,0,0,0,0,0c1.47.2,2.75.41,3.73.61,2.31.45,5.53,2.09,9,4.23a184,184,0,0,1,16.37,11.68c3,2.34,4.92,4,4.92,4a8.06,8.06,0,0,1,.39,1.8v0c.36,3,0,7.39.3,8.62a3,3,0,0,0,.16.44,12.23,12.23,0,0,0,2.85,3.12S195.79,136.37,194.68,139.65Z"/><rect class="cls-12" x="161.5" y="136.25" width="3.97" height="3.97"/><rect class="cls-13" x="89.97" y="136.25" width="3.97" height="3.97"/><rect class="cls-14" x="93.95" y="132.28" width="3.97" height="3.97"/><rect class="cls-15" x="97.92" y="136.25" width="3.97" height="3.97"/><rect class="cls-16" x="101.9" y="132.28" width="3.97" height="3.97"/><rect class="cls-17" x="105.87" y="136.25" width="3.97" height="3.97"/><rect class="cls-18" x="109.84" y="132.28" width="3.97" height="3.97"/><rect class="cls-19" x="113.82" y="136.25" width="3.97" height="3.97"/><rect class="cls-20" x="117.79" y="132.28" width="3.97" height="3.97"/><rect class="cls-21" x="121.76" y="136.25" width="3.97" height="3.97"/><rect class="cls-22" x="125.74" y="132.28" width="3.97" height="3.97"/><rect class="cls-23" x="129.71" y="136.25" width="3.97" height="3.97"/><rect class="cls-24" x="133.69" y="132.28" width="3.97" height="3.97"/><rect class="cls-25" x="137.66" y="136.25" width="3.97" height="3.97"/><rect class="cls-26" x="141.63" y="132.28" width="3.97" height="3.97"/><rect class="cls-27" x="145.61" y="136.25" width="3.97" height="3.97"/><rect class="cls-28" x="149.58" y="132.28" width="3.97" height="3.97"/><rect class="cls-29" x="153.55" y="136.25" width="3.97" height="3.97"/><rect class="cls-30" x="157.53" y="132.28" width="3.97" height="3.97"/><rect class="cls-31" x="66.13" y="136.25" width="3.97" height="3.97"/><rect class="cls-32" x="70.11" y="132.28" width="3.97" height="3.97"/><rect class="cls-33" x="74.08" y="136.25" width="3.97" height="3.97"/><rect class="cls-34" x="78.05" y="132.28" width="3.97" height="3.97"/><rect class="cls-35" x="82.03" y="136.25" width="3.97" height="3.97"/><rect class="cls-36" x="86" y="132.28" width="3.97" height="3.97"/><path class="cls-37" d="M186.06,112.49s-6.54.06-7.64,0-11.53-8.92-11.73-9.95,3-1.73,3-1.73A184,184,0,0,1,186.06,112.49Z"/><path class="cls-38" d="M130.2,99.23l-.27,12.88s.11.88,2.16.88,33-.72,33-.72,1.64-.16.82-1.55S158.29,101,152.47,100s-21.14-1.3-21.14-1.3S130.2,98.69,130.2,99.23Z"/><path class="cls-39" d="M126.42,99.35l-2.85,13.21a1.59,1.59,0,0,1-1.34.92l-35,1.1s-.87-.51,0-1.37,12.9-8.89,20.24-11.57,18.71-2.92,18.71-2.92S126.55,98.71,126.42,99.35Z"/><path class="cls-40" d="M101.31,100.55c-.18.21-5.64,3.25-10.86,6.54-5,3.21-9.84,6.67-10.42,6.77-1.16.21-8.27-.15-8.27-.15h0a0,0,0,0,0,0,0c1.08-.23,1.86-.41,2.25-.51,2.55-.65,16-9.09,27.07-14C101.21,99.31,101.62,100.17,101.31,100.55Z"/><circle class="cls-41" cx="166.98" cy="142.32" r="13.43" transform="translate(-28.1 41.91) rotate(-13.21)"/><circle class="cls-41" cx="65.18" cy="142.32" r="13.43" transform="translate(-21.87 12.22) rotate(-9.18)"/><circle class="cls-42" cx="65.18" cy="142.32" r="7.61"/><path class="cls-42" d="M159.37,142.32a7.61,7.61,0,1,0,7.61-7.61A7.61,7.61,0,0,0,159.37,142.32Z"/><path class="cls-10" d="M191.83,127.34a19.09,19.09,0,0,1-4.25-.44c-.82-.41-4.56-6.45-5-7.38s.63-1.28.63-1.28h8.12v0c.28,2.3.12,5.39.17,7.27a6.16,6.16,0,0,0,.13,1.35A3,3,0,0,0,191.83,127.34Z"/><path class="cls-10" d="M51.76,122.09s-4.62,6.44-5.86,7.11-9.3.1-9.83,0c-.14,0-.18-.33-.11-.75a7.66,7.66,0,0,1,1.81-3.73c.9-.82,7.48-2,11.29-2.5C50.73,122,51.87,121.94,51.76,122.09Z"/><path class="cls-43" d="M51.76,122.09s-4.62,6.44-5.86,7.11-9.3.1-9.83,0c-.14,0-.18-.33-.11-.75,8.55.21,11.87-3.83,13.1-6.23C50.73,122,51.87,121.94,51.76,122.09Z"/><path class="cls-44" d="M37.47,126.71a3.59,3.59,0,0,1,1.06-1.57,36.38,36.38,0,0,1,5.1-1.33S38.3,125.48,37.47,126.71Z"/><path class="cls-41" d="M42.12,142.91c-1.3,0-10.35,0-10.81,0a2.94,2.94,0,0,1,0-1c.18-1,.45-2.47.81-4.17h7.26s1.15-.06,2.11,1.72C42.35,141,43.46,142.94,42.12,142.91Z"/><path class="cls-45" d="M42.12,142.91h-.54a18.25,18.25,0,0,0-1-2.11c-1-1.79-2.11-1.72-2.11-1.72H31.87c.1-.43.2-.88.29-1.36h7.26s1.15-.06,2.11,1.72C42.35,141,43.46,142.94,42.12,142.91Z"/><path class="cls-46" d="M128.75,97s-2.61,15.73-2.72,25.1S126,144,126,144"/><path class="cls-46" d="M154.83,98.51a162.91,162.91,0,0,0-41.08-.5c-3,.32-6.18,1.68-9.44,3.17a112.14,112.14,0,0,0-21.46,13.4c-.31.52,0,27.27,0,27.27s-.1,2.17,2.78,2.17h56.92a7,7,0,0,0,6.85-5.51c1-4.66,3.77-10.94,11.66-13.22,0,0,8-11.94,8.29-13.69S159.19,99.1,154.83,98.51Z"/><path class="cls-10" d="M122.18,115.59s-8.11.06-9.49.51a1.15,1.15,0,0,0,.65,2.18c2.4,0,7.85-1.34,8.92-1.64C123.13,116.4,123.17,115.58,122.18,115.59Z"/><path class="cls-10" d="M163.71,115.59s-8.11.06-9.49.51a1.15,1.15,0,0,0,.65,2.18c2.4,0,7.85-1.34,8.92-1.64C164.66,116.4,164.7,115.58,163.71,115.59Z"/><path class="cls-43" d="M191.83,127.34a19.09,19.09,0,0,1-4.25-.44c-.82-.41-4.56-6.45-5-7.38s.63-1.28.63-1.28h2c1,2.23,3.38,6.6,6.28,7.31a6.16,6.16,0,0,0,.13,1.35A3,3,0,0,0,191.83,127.34Z"/></g><path class="cls-6" d="M137.35,43.52s2.42,12.1,8.67,19.73c11.43,13.94,25.37,12.12,20.61,0-3.33-8.5-4.78-.88-13.77-28.48C148.64,21.8,134,28.37,137.35,43.52Z"/><path class="cls-6" d="M24,56.66c1.24,7.25-.18,21.17-1.51,31s-5.07,19.27-8.74,20.47S5.45,106,9.12,95.5,4.78,74,7.78,60.5,22,45,24,56.66Z"/><path class="cls-47" d="M80.16,14.82a14.82,14.82,0,1,0-27.25,8h0l.13.21,0,.06,11.6,17.28a.79.79,0,0,0,1.33,0L77.79,22.86h0A14.72,14.72,0,0,0,80.16,14.82ZM65.35,11.23a3.59,3.59,0,1,1-3.6,3.59A3.59,3.59,0,0,1,65.35,11.23Z"/><circle class="cls-48" cx="133.35" cy="159.4" r="8.83" transform="translate(-70.34 118.17) rotate(-38.64)"/><circle class="cls-48" cx="99.49" cy="32" r="8.83"/><circle class="cls-48" cx="162.52" cy="85.18" r="2.95"/><path class="cls-48" d="M10.05,119.54a3,3,0,1,1-3-3A3,3,0,0,1,10.05,119.54Z"/></g></g></svg>