<?xml version="1.0" standalone="no"?>
<!DOCTYPE svg PUBLIC "-//W3C//DTD SVG 20010904//EN"
 "http://www.w3.org/TR/2001/REC-SVG-20010904/DTD/svg10.dtd">
<svg version="1.0" xmlns="http://www.w3.org/2000/svg"
 width="128.000000pt" height="128.000000pt" viewBox="0 0 128.000000 128.000000"
 preserveAspectRatio="xMidYMid meet">

<g transform="translate(0.000000,128.000000) scale(0.100000,-0.100000)"
fill="#000000" stroke="none">
<path d="M531 1037 c-6 -8 -14 -28 -17 -45 l-6 -32 132 0 133 0 -7 32 c-11 54
-20 58 -126 58 -70 0 -101 -4 -109 -13z"/>
<path d="M223 860 c-39 -23 -62 -57 -69 -101 l-6 -34 492 0 492 0 -6 34 c-7
44 -30 78 -69 101 -30 19 -53 20 -417 20 -364 0 -387 -1 -417 -20z"/>
<path d="M42 743 c-29 -11 -42 -62 -42 -163 0 -124 19 -170 71 -170 5 0 9 73
9 170 0 174 -1 178 -38 163z"/>
<path d="M1200 580 c0 -97 4 -170 9 -170 52 0 71 46 71 170 0 124 -19 170 -71
170 -5 0 -9 -73 -9 -170z"/>
<path d="M179 641 c-22 -18 -24 -28 -27 -122 -7 -181 20 -218 187 -263 66 -17
113 -25 132 -21 39 9 83 47 99 85 12 28 15 30 70 30 55 0 58 -2 70 -30 16 -38
60 -76 99 -85 43 -9 226 42 264 74 46 39 57 77 57 196 0 99 -2 107 -25 130
l-24 25 -439 0 c-418 0 -441 -1 -463 -19z"/>
</g>
</svg>
