<svg xmlns="http://www.w3.org/2000/svg"  viewBox="0 0 48 48" width="64px" height="64px"><path d="M 24 3 C 20.151772 3 17 6.1517752 17 10 C 17 13.848225 20.151772 17 24 17 C 27.848228 17 31 13.848225 31 10 C 31 6.1517752 27.848228 3 24 3 z M 24 6 C 26.226909 6 28 7.7730927 28 10 C 28 12.226907 26.226909 14 24 14 C 21.773091 14 20 12.226907 20 10 C 20 7.7730927 21.773091 6 24 6 z M 16.734375 19 C 14.688849 19 13 20.690002 13 22.734375 L 13 33.998047 C 13 40.055605 17.942442 44.998047 24 44.998047 C 30.057558 44.998047 35 40.055605 35 33.998047 L 35 22.734375 C 35 20.688849 33.309998 19 31.265625 19 L 16.734375 19 z M 16.734375 22 L 21.882812 22 L 22.605469 23.447266 C 22.660109 23.556869 22.739394 23.6461 22.826172 23.726562 L 21.021484 32.294922 C 20.959484 32.586922 21.03275 32.891 21.21875 33.125 L 23.21875 35.625 C 23.40975 35.862 23.696 36 24 36 C 24.304 36 24.59125 35.862 24.78125 35.625 L 26.78125 33.125 C 26.96825 32.892 27.040516 32.587922 26.978516 32.294922 L 25.173828 23.726562 C 25.260754 23.6461 25.339568 23.556869 25.394531 23.447266 L 26.119141 22 L 31.265625 22 C 31.689252 22 32 22.309901 32 22.734375 L 32 33.998047 C 32 38.434488 28.436442 41.998047 24 41.998047 C 19.563558 41.998047 16 38.434488 16 33.998047 L 16 22.734375 C 16 22.310748 16.309901 22 16.734375 22 z"/></svg>