<?xml version="1.0" encoding="utf-8"?>
<!-- Generator: Adobe Illustrator 23.1.0, SVG Export Plug-In . SVG Version: 6.00 Build 0)  -->
<svg version="1.1" id="Layer_1" xmlns="http://www.w3.org/2000/svg" xmlns:xlink="http://www.w3.org/1999/xlink" x="0px" y="0px"
	 viewBox="0 0 500 500" style="enable-background:new 0 0 500 500;" xml:space="preserve">
<style type="text/css">
	.st0{display:none;}
	.st1{display:inline;fill:#92E3A9;}
	.st2{display:inline;opacity:0.8;fill:#FFFFFF;enable-background:new    ;}
	.st3{display:inline;opacity:0.5;fill:#FFFFFF;enable-background:new    ;}
	.st4{fill:#88DAF8;}
	.st5{opacity:0.6;}
	.st6{fill:#FFFFFF;}
	.st7{fill:#92E3A9;}
	.st8{opacity:0.3;fill:#FFFFFF;enable-background:new    ;}
	.st9{fill:#263238;}
	.st10{opacity:0.5;fill:#FFFFFF;enable-background:new    ;}
	.st11{fill:#263238;stroke:#263238;stroke-linecap:round;stroke-linejoin:round;}
	.st12{fill:none;stroke:#263238;stroke-linecap:round;stroke-linejoin:round;}
	.st13{fill:#FFFFFF;stroke:#263238;stroke-linecap:round;stroke-linejoin:round;}
	.st14{fill:#AB8B5D;stroke:#263238;stroke-linecap:round;stroke-linejoin:round;}
	.st15{display:none;fill:#92E3A9;stroke:#263238;stroke-linecap:round;stroke-linejoin:round;}
	.st16{clip-path:url(#SVGID_2_);}
	.st17{fill:#323232;}
</style>
<g id="freepik--background-simple--inject-8" class="st0">
	<path class="st1" d="M452,326.1c8.8-69.7-34-162.4-78.3-200.7c-80.1-69.1-146.6-55.7-198.4-31s-59.1,107.4-94.8,144.8
		s-56.1,87.7-1.8,137.7s98,24.6,154.6,21.4s131.9,21.8,172.5,0.1C434.1,383.3,448.1,357,452,326.1z"/>
	<path class="st2" d="M452,326.1c8.8-69.7-34-162.4-78.3-200.7c-80.1-69.1-146.6-55.7-198.4-31s-59.1,107.4-94.8,144.8
		s-56.1,87.7-1.8,137.7s98,24.6,154.6,21.4s131.9,21.8,172.5,0.1C434.1,383.3,448.1,357,452,326.1z"/>
</g>
<g id="freepik--Floor--inject-8" class="st0">
	<path class="st1" d="M50.3,337.9c5,12.9,14.1,26,28.3,39c54.2,50,98,24.6,154.6,21.4s131.9,21.8,172.5,0.1
		c24.7-13.2,38.5-34.9,44.2-60.5L50.3,337.9z"/>
	<path class="st3" d="M50.3,337.9c5,12.9,14.1,26,28.3,39c54.2,50,98,24.6,154.6,21.4s131.9,21.8,172.5,0.1
		c24.7-13.2,38.5-34.9,44.2-60.5L50.3,337.9z"/>
</g>
<g id="freepik--Clouds--inject-8">
	<path class="st4" d="M211.6,169.5c-6.4-3.5-9.3-0.6-11.6-3.5s6.4-10.4-11-18c0,0-1.2-16.2-24.9-16.8s-17.4,16.2-23.8,20.3
		s-8.1-2.3-14.5,1.7s-3.5,12.2-8.7,13.3s-12.2-5.2-18.5-1.2s-6.4,7.6-9.3,7.6s-8.7-2.3-12.2,0s-7.5,5.2-7.5,5.2h146.6
		C216.3,178.2,218,173,211.6,169.5z"/>
	<path class="st4" d="M277.8,121.7c-3.2-1.7-4.6-0.3-5.8-1.7s3.2-5.2-5.5-9c0,0-0.6-8.1-12.5-8.4s-8.7,8.1-11.9,10.2
		s-4.1-1.2-7.3,0.9s-1.7,6.1-4.4,6.7s-6.1-2.6-9.3-0.6s-3.2,3.8-4.6,3.8s-4.4-1.2-6.1,0s-3.8,2.6-3.8,2.6h73.4
		C280.1,126,281,123.4,277.8,121.7z"/>
	<path class="st4" d="M347.8,156.6c-3.2-1.7-4.6-0.3-5.8-1.7s3.2-5.2-5.5-9c0,0-0.6-8.1-12.5-8.4s-8.7,8.1-11.9,10.2
		s-4.1-1.2-7.3,0.9s-1.7,6.1-4.4,6.7s-6.1-2.6-9.3-0.6s-3.2,3.8-4.6,3.8s-4.4-1.2-6.1,0s-3.8,2.6-3.8,2.6h73.4
		C350.1,161,351,158.4,347.8,156.6z"/>
	<g class="st5">
		<path class="st6" d="M211.6,169.5c-6.4-3.5-9.3-0.6-11.6-3.5s6.4-10.4-11-18c0,0-1.2-16.2-24.9-16.8s-17.4,16.2-23.8,20.3
			s-8.1-2.3-14.5,1.7s-3.5,12.2-8.7,13.3s-12.2-5.2-18.5-1.2s-6.4,7.6-9.3,7.6s-8.7-2.3-12.2,0s-7.5,5.2-7.5,5.2h146.6
			C216.3,178.2,218,173,211.6,169.5z"/>
		<path class="st6" d="M277.8,121.7c-3.2-1.7-4.6-0.3-5.8-1.7s3.2-5.2-5.5-9c0,0-0.6-8.1-12.5-8.4s-8.7,8.1-11.9,10.2
			s-4.1-1.2-7.3,0.9s-1.7,6.1-4.4,6.7s-6.1-2.6-9.3-0.6s-3.2,3.8-4.6,3.8s-4.4-1.2-6.1,0s-3.8,2.6-3.8,2.6h73.4
			C280.1,126,281,123.4,277.8,121.7z"/>
		<path class="st6" d="M347.8,156.6c-3.2-1.7-4.6-0.3-5.8-1.7s3.2-5.2-5.5-9c0,0-0.6-8.1-12.5-8.4s-8.7,8.1-11.9,10.2
			s-4.1-1.2-7.3,0.9s-1.7,6.1-4.4,6.7s-6.1-2.6-9.3-0.6s-3.2,3.8-4.6,3.8s-4.4-1.2-6.1,0s-3.8,2.6-3.8,2.6h73.4
			C350.1,161,351,158.4,347.8,156.6z"/>
	</g>
</g>
<g id="freepik--Trees--inject-8">
	<path class="st7" d="M49.8,309.8c0,0,14.4,1.4,21.7,10.4c0,0,7.7-10.4,21.6-10.1c9.9-11.9,8.2-29.6-3.7-39.4s-29.6-8.2-39.4,3.7
		C41.4,284.6,41.3,299.5,49.8,309.8L49.8,309.8z"/>
	<path class="st8" d="M49.8,309.8c0,0,14.4,1.4,21.7,10.4c0,0,7.7-10.4,21.6-10.1c9.9-11.9,8.2-29.6-3.7-39.4s-29.6-8.2-39.4,3.7
		C41.4,284.6,41.3,299.5,49.8,309.8L49.8,309.8z"/>
	<polygon class="st9" points="71,266.1 70.5,338.3 72.9,338.3 	"/>
	<path class="st9" d="M71.7,317.4c0,0,4.9-8.8,13.6-11.4c0,0-9.2,2.2-13.9,9.7L71.7,317.4z"/>
	<path class="st9" d="M71.7,292.6c0,0,4.9-8.8,13.6-11.4c0,0-9.2,2.2-13.9,9.7L71.7,292.6z"/>
	<path class="st9" d="M71.7,305c0,0,4.9-8.8,13.6-11.4c0,0-9.2,2.2-13.9,9.7L71.7,305z"/>
	<path class="st9" d="M71,299c0,0-4.7-8.8-13.1-11.4c0,0,8.9,2.2,13.4,9.7L71,299z"/>
	<path class="st9" d="M71,311.1c0,0-4.7-8.8-13.1-11.4c0,0,8.9,2.2,13.4,9.7L71,311.1z"/>
	<path class="st7" d="M94.4,304.3c0,0,17.2,1.7,25.9,12.3c0,0,9.2-12.3,25.7-12.1c11.7-14.2,9.8-35.2-4.4-47
		c-14.2-11.7-35.2-9.8-47,4.4C84.5,274.3,84.4,292,94.4,304.3L94.4,304.3z"/>
	<path class="st10" d="M94.4,304.3c0,0,17.2,1.7,25.9,12.3c0,0,9.2-12.3,25.7-12.1c11.7-14.2,9.8-35.2-4.4-47
		c-14.2-11.7-35.2-9.8-47,4.4C84.5,274.3,84.4,292,94.4,304.3L94.4,304.3z"/>
	<polygon class="st9" points="119.7,252.3 119.2,338.3 122.1,338.3 	"/>
	<path class="st9" d="M120.6,313.4c0,0,5.8-10.4,16.2-13.6c0,0-11,2.6-16.5,11.6L120.6,313.4z"/>
	<path class="st9" d="M120.6,283.9c0,0,5.8-10.4,16.2-13.6c0,0-11,2.6-16.5,11.6L120.6,283.9z"/>
	<path class="st9" d="M120.6,298.6c0,0,5.8-10.4,16.2-13.6c0,0-11,2.6-16.5,11.6L120.6,298.6z"/>
	<path class="st9" d="M119.7,291.4c0,0-5.6-10.4-15.7-13.6c0,0,10.6,2.6,15.9,11.6L119.7,291.4z"/>
	<path class="st9" d="M119.7,305.9c0,0-5.6-10.4-15.7-13.6c0,0,10.6,2.6,15.9,11.6L119.7,305.9z"/>
	<path class="st7" d="M140.5,314.3c0,0,12.2,1.2,18.3,8.7c4.5-5.4,11.2-8.6,18.2-8.5c8.3-10,6.9-24.9-3.1-33.3
		c-10-8.3-24.9-6.9-33.3,3.1C133.5,293,133.4,305.5,140.5,314.3L140.5,314.3z"/>
	<path class="st10" d="M140.5,314.3c0,0,12.2,1.2,18.3,8.7c4.5-5.4,11.2-8.6,18.2-8.5c8.3-10,6.9-24.9-3.1-33.3
		c-10-8.3-24.9-6.9-33.3,3.1C133.5,293,133.4,305.5,140.5,314.3L140.5,314.3z"/>
	<polygon class="st9" points="158.4,277.4 158,338.3 160.1,338.3 	"/>
	<path class="st9" d="M159.1,320.7c0,0,4.1-7.4,11.5-9.6c0,0-7.8,1.8-11.7,8.2L159.1,320.7z"/>
	<path class="st9" d="M159.1,299.8c0,0,4.1-7.4,11.5-9.6c0,0-7.8,1.8-11.7,8.2L159.1,299.8z"/>
	<path class="st9" d="M159.1,310.2c0,0,4.1-7.4,11.5-9.6c0,0-7.8,1.8-11.7,8.2L159.1,310.2z"/>
	<path class="st9" d="M158.4,305.1c0,0-4-7.4-11.1-9.6c0,0,7.5,1.9,11.3,8.2L158.4,305.1z"/>
	<path class="st9" d="M158.4,315.4c0,0-4-7.4-11.1-9.6c0,0,7.5,1.9,11.3,8.2L158.4,315.4z"/>
	<path class="st7" d="M372.1,309.8c0,0,14.4,1.4,21.7,10.4c0,0,7.7-10.4,21.6-10.1c9.9-11.9,8.2-29.6-3.7-39.4
		c-11.9-9.9-29.6-8.2-39.4,3.7C363.7,284.6,363.6,299.5,372.1,309.8L372.1,309.8z"/>
	<path class="st8" d="M372.1,309.8c0,0,14.4,1.4,21.7,10.4c0,0,7.7-10.4,21.6-10.1c9.9-11.9,8.2-29.6-3.7-39.4
		c-11.9-9.9-29.6-8.2-39.4,3.7C363.7,284.6,363.6,299.5,372.1,309.8L372.1,309.8z"/>
	<polygon class="st9" points="393.3,266.1 392.8,338.3 395.2,338.3 	"/>
	<path class="st9" d="M394,317.4c0,0,4.9-8.8,13.6-11.4c0,0-9.2,2.2-13.9,9.7L394,317.4z"/>
	<path class="st9" d="M394,292.6c0,0,4.9-8.8,13.6-11.4c0,0-9.2,2.2-13.9,9.7L394,292.6z"/>
	<path class="st9" d="M394,305c0,0,4.9-8.8,13.6-11.4c0,0-9.2,2.2-13.9,9.7L394,305z"/>
	<path class="st9" d="M393.3,299c0,0-4.7-8.8-13.1-11.4c0,0,8.9,2.2,13.4,9.7L393.3,299z"/>
	<path class="st9" d="M393.3,311.1c0,0-4.7-8.8-13.1-11.4c0,0,8.9,2.2,13.4,9.7L393.3,311.1z"/>
	<path class="st7" d="M400.6,300.1c0,0,19.3,1.9,29.1,13.9c0,0,10.3-13.9,28.9-13.6c13.2-16,11-39.6-5-52.8c-16-13.2-39.6-11-52.8,5
		C389.4,266.4,389.3,286.3,400.6,300.1L400.6,300.1z"/>
	<path class="st10" d="M400.6,300.1c0,0,19.3,1.9,29.1,13.9c0,0,10.3-13.9,28.9-13.6c13.2-16,11-39.6-5-52.8
		c-16-13.2-39.6-11-52.8,5C389.4,266.4,389.3,286.3,400.6,300.1L400.6,300.1z"/>
	<polygon class="st9" points="429,241.6 428.4,338.3 431.6,338.3 	"/>
	<path class="st9" d="M430,310.3c0,0,6.5-11.7,18.2-15.3c0,0-12.4,2.9-18.6,13L430,310.3z"/>
	<path class="st9" d="M430,277.1c0,0,6.5-11.7,18.2-15.3c0,0-12.4,2.9-18.6,13L430,277.1z"/>
	<path class="st9" d="M430,293.7c0,0,6.5-11.7,18.2-15.3c0,0-12.4,2.9-18.6,13L430,293.7z"/>
	<path class="st9" d="M429,285.6c0,0-6.3-11.7-17.6-15.3c0,0,11.9,2.9,17.9,13L429,285.6z"/>
	<path class="st9" d="M429,301.9c0,0-6.3-11.7-17.6-15.3c0,0,11.9,2.9,17.9,13L429,301.9z"/>
</g>
<g id="freepik--Windmill--inject-8">
	<polygon class="st11" points="408.3,143.5 439,148.3 439,124.3 408.3,129.1 	"/>
	<polygon class="st12" points="394.1,134 383.8,338.3 404.5,338.3 	"/>
	<line class="st12" x1="394.3" y1="134.3" x2="394.3" y2="121.3"/>
	<line class="st12" x1="383.1" y1="134.5" x2="405.3" y2="134.5"/>
	<polygon class="st12" points="399.4,240.1 388.7,240.1 396.6,190.9 391.4,190.9 	"/>
	<polygon class="st13" points="385.2,130.1 384.4,134.6 363.2,132.4 364.5,124.9 	"/>
	<polygon class="st11" points="384.3,133.5 385.1,138 364.4,143.2 363.1,135.7 	"/>
	<polygon class="st13" points="384.6,137 386.9,140.9 369.3,152.9 365.4,146.3 	"/>
	<polygon class="st11" points="386.1,140.1 389.6,143.1 377.1,160.4 371.2,155.4 	"/>
	<polygon class="st13" points="388.6,142.6 392.9,144.2 387.1,164.7 379.9,162.1 	"/>
	<polygon class="st11" points="391.7,144.1 396.3,144.1 397.9,165.3 390.2,165.3 	"/>
	<polygon class="st13" points="395.2,144.4 399.5,142.8 408.3,162.3 401,164.9 	"/>
	<polygon class="st11" points="398.6,143.5 402.1,140.5 417,155.8 411.1,160.8 	"/>
	<polygon class="st13" points="401.5,141.5 403.8,137.5 423,146.8 419.1,153.4 	"/>
	<polygon class="st11" points="403.5,138.6 404.3,134.1 425.5,136.2 424.1,143.8 	"/>
	<polygon class="st13" points="404.4,135.2 403.6,130.7 424.3,125.5 425.6,133 	"/>
	<polygon class="st11" points="404.1,131.7 401.8,127.7 419.4,115.8 423.3,122.4 	"/>
	<polygon class="st13" points="402.6,128.6 399.1,125.6 411.5,108.3 417.4,113.3 	"/>
	<polygon class="st11" points="400.1,126.1 395.8,124.5 401.6,104 408.8,106.6 	"/>
	<polygon class="st11" points="387.2,127.2 384.9,131.2 365.7,121.9 369.5,115.3 	"/>
	<polygon class="st13" points="390.1,125.2 386.5,128.2 371.7,112.9 377.6,107.9 	"/>
	<polygon class="st11" points="393.4,124.3 389.1,125.9 380.4,106.4 387.6,103.8 	"/>
	<polygon class="st13" points="396.9,124.6 392.3,124.6 390.8,103.3 398.5,103.3 	"/>
	<path class="st11" d="M397,134.3c0-1.5-1.2-2.7-2.7-2.7c-1.5,0-2.7,1.2-2.7,2.7c0,1.5,1.2,2.7,2.7,2.7S397,135.8,397,134.3
		L397,134.3z"/>
</g>
<g id="freepik--Farm--inject-8">
	<rect x="297" y="271.8" class="st11" width="99" height="66.5"/>
	<polygon class="st14" points="299.3,338.3 166.7,338.3 166.7,271.7 191.1,209.2 232,189.3 274.1,209.3 299.3,271.7 	"/>
	<polygon class="st13" points="160.9,279 157.9,275 164.9,269.9 189.4,207.3 232.1,186.6 275.9,207.4 301.2,269.9 308.1,274.2 
		305.4,278.4 297.6,273.5 297.3,273 272.5,211.3 232.1,192.1 192.9,211.1 168.6,273.4 	"/>
	<rect x="222" y="214" class="st15" width="22" height="56.2"/>
	<rect x="210" y="278.2" class="st13" width="46" height="60.2"/>
	<rect x="195.3" y="268.2" class="st15" width="75.3" height="4"/>
	<rect x="195.3" y="210" class="st15" width="75.3" height="4"/>
	<polygon class="st9" points="220.3,309.8 212.5,287 212.5,332.6 	"/>
	<polygon class="st9" points="229.2,283.5 213.7,283.5 221.4,306.3 	"/>
	<polygon class="st9" points="221.4,313.2 213.7,336 229.2,336 	"/>
	<polygon class="st9" points="222.6,309.8 230.4,332.6 230.4,287 	"/>
	<polygon class="st9" points="252.2,283.5 236.7,283.5 244.4,306.3 	"/>
	<polygon class="st9" points="243.3,309.8 235.6,287.3 235.6,332.2 	"/>
	<polygon class="st9" points="245.6,309.8 253.5,332.9 253.5,286.6 	"/>
	<polygon class="st9" points="244.4,313.2 236.7,336 252.2,336 	"/>
	<polygon class="st9" points="404.1,274.2 397.2,269.9 371.9,207.4 328,186.6 232.1,186.6 275.9,207.4 301.2,269.9 308.1,274.2 
		394.8,274.2 401.4,278.4 	"/>
	<g>
		<defs>
			<polygon id="SVGID_1_" points="404.1,274.2 397.2,269.9 371.9,207.4 328,186.6 232.1,186.6 275.9,207.4 301.2,269.9 308.1,274.2 
				394.8,274.2 401.4,278.4 			"/>
		</defs>
		<clipPath id="SVGID_2_">
			<use xlink:href="#SVGID_1_"  style="overflow:visible;"/>
		</clipPath>
		<g class="st16">
			<polygon class="st10" points="404.1,274.2 397.2,269.9 371.9,207.4 328,186.6 232.1,186.6 275.9,207.4 301.2,269.9 308.1,274.2 
				394.8,274.2 401.4,278.4 			"/>
			<polygon class="st10" points="275.9,207.4 371.9,207.4 328,186.6 232.1,186.6 			"/>
		</g>
	</g>
	<polygon class="st12" points="404.1,274.2 397.2,269.9 371.9,207.4 328,186.6 232.1,186.6 275.9,207.4 301.2,269.9 308.1,274.2 
		394.8,274.2 401.4,278.4 	"/>
	<polygon class="st13" points="308.1,274.2 404.1,274.2 401.4,278.4 305.4,278.4 	"/>
	<rect x="308.1" y="289.5" class="st6" width="4.8" height="7.7"/>
	<rect x="313.9" y="289.5" class="st6" width="4.8" height="7.7"/>
	<rect x="308.1" y="298.2" class="st6" width="4.8" height="6.8"/>
	<rect x="313.9" y="298.2" class="st6" width="4.8" height="6.8"/>
	<rect x="327.8" y="289.5" class="st6" width="4.8" height="7.7"/>
	<rect x="333.5" y="289.5" class="st6" width="4.8" height="7.7"/>
	<rect x="327.8" y="298.2" class="st6" width="4.8" height="6.8"/>
	<rect x="333.5" y="298.2" class="st6" width="4.8" height="6.8"/>
	<rect x="360.1" y="289.5" class="st6" width="4.8" height="7.7"/>
	<rect x="365.9" y="289.5" class="st6" width="4.8" height="7.7"/>
	<rect x="360.1" y="298.2" class="st6" width="4.8" height="6.8"/>
	<rect x="365.9" y="298.2" class="st6" width="4.8" height="6.8"/>
	<rect x="379.8" y="289.5" class="st6" width="4.8" height="7.7"/>
	<rect x="385.5" y="289.5" class="st6" width="4.8" height="7.7"/>
	<rect x="379.8" y="298.2" class="st6" width="4.8" height="6.8"/>
	<rect x="385.5" y="298.2" class="st6" width="4.8" height="6.8"/>
	<rect x="341.7" y="280.7" class="st6" width="14" height="6.7"/>
	<path class="st13" d="M443.7,319.7v3.7h-11v-3.7h-2.8v3.7H419v-3.7h-2.8v3.7h-11v-3.7h-2.8v3.7h-11v-3.7h-2.7v3.7h-11v-3.7H375v3.7
		h-11v-3.7h-2.8v3.7h-11v-3.7h-2.8v3.7h-11v-3.7h-2.7v3.7h-11v-3.7H320v24.7h2.8v-8.2h11v8.2h2.7v-8.2h11v8.2h2.8v-8.2h11v8.2h2.8
		v-8.2h11v8.2h2.8v-8.2h11v8.2h2.7v-8.2h11v8.2h2.8v-8.2h11v8.2h2.8v-8.2h11v8.2h2.8v-8.2h11v8.2h2.7v-24.7H443.7z M322.8,332.9
		v-6.4h11v6.4H322.8z M336.6,332.9v-6.4h11v6.4H336.6z M350.3,332.9v-6.4h11v6.4H350.3z M364,332.9v-6.4h11v6.4H364z M377.8,332.9
		v-6.4h11v6.4H377.8z M391.5,332.9v-6.4h11v6.4H391.5z M405.2,332.9v-6.4h11v6.4H405.2z M419,332.9v-6.4h11v6.4H419z M432.7,332.9
		v-6.4h11v6.4H432.7z"/>
	<line class="st12" x1="320.1" y1="344.4" x2="446.4" y2="344.4"/>
</g>
<g id="freepik--Plants--inject-8">
	<path class="st7" d="M351.2,334.1c0,0,0.4-2,0.4-2.1c0.5-1.4,2.2-3.9,3.9-3.9c1.1,0,2,1,1.9,2.1c0,0.1,0,0.1,0,0.2
		c-0.3,1.2-1,2.2-2.1,2.8C354,333.7,352.6,334,351.2,334.1z"/>
	<path class="st7" d="M348,320.8c1.6,0.6,2.4,3.5,2.3,5c0,0.1-0.3,2.1-0.3,2.1l0,0c0.1,0.5,0.3,1,0.4,1.5c0.2,1,0.5,2.1,0.7,3.4
		c0.2,1.3,0.4,2.7,0.5,4.1c0.1,1.5,0,3.1-0.2,4.6c0,0,0,0,0,0.1c0.2-0.5,0.8-1.7,0.9-1.8c0.8-1.3,3.1-3.2,4.8-2.7
		c1.1,0.3,1.6,1.5,1.3,2.5c0,0.1,0,0.1-0.1,0.2c-0.6,1.1-1.6,1.8-2.8,2.1c-1.4,0.2-2.8,0.1-4.1-0.1c-0.2,1.5-0.6,3.1-1,4.6
		c-0.3,0.9-0.5,1.8-0.8,2.6l0.4-0.8c0.8-1.3,3.1-3.2,4.8-2.7c1.1,0.3,1.6,1.5,1.3,2.5c0,0.1,0,0.1-0.1,0.2c-0.6,1.1-1.6,1.8-2.8,2.1
		c-1.3,0.2-2.7,0.2-4-0.1l-0.3,1c-0.6,1.6-1.1,3.2-1.6,4.8c-0.2,0.6-0.3,1.1-0.5,1.7c0.2-0.3,0.3-0.6,0.3-0.7
		c0.8-1.3,3.1-3.2,4.8-2.7c1.1,0.3,1.6,1.5,1.3,2.5c0,0.1,0,0.1-0.1,0.2c-0.6,1.1-1.6,1.8-2.8,2.1c-1.3,0.2-2.6,0.2-3.9-0.1
		c-0.1,0.6-0.3,1.1-0.4,1.7c-0.1,0.4-0.2,0.8-0.2,1.1s-0.1,0.8-0.2,1.1c-0.1,0.7-0.2,1.5-0.2,2.2c0,0.5-0.1,1-0.1,1.5
		c0.2-0.5,0.5-1.6,0.6-1.7c0.6-1.2,1.5-2.2,2.6-2.9c0.1-0.1,0.1-0.3,0.2-0.4c0.6-0.9,1.9-1.2,2.8-0.5c0,0,0.1,0.1,0.1,0.1
		c1.3,1.1,1,4.1,0.4,5.5c0,0.1-0.5,0.9-0.8,1.4l0.7-0.8c0.5-0.6,0.9-1.1,1.5-1.7l0.8-0.9c0.3-0.3,0.6-0.6,0.9-0.9
		c0.7-0.6,1.4-1.3,2.1-1.9c-1.1-0.8-2-1.8-2.7-2.9c-0.6-1.1-0.7-2.3-0.3-3.5c0.5-1,1.7-1.4,2.7-1c0.1,0,0.1,0.1,0.2,0.1
		c1.4,0.9,1.6,3.9,1.2,5.4c0,0.1-0.4,1.1-0.6,1.6c0.4-0.4,0.9-0.7,1.3-1.1c1.3-1,2.7-2,4-3l1.3-0.9c-1.1-0.8-2.1-1.9-2.9-3
		c-0.6-1.1-0.7-2.3-0.3-3.5c0.5-1,1.7-1.4,2.7-1c0,0,0.1,0,0.1,0.1c1.4,0.9,1.6,3.9,1.2,5.4c0,0.1-0.6,1.6-0.7,1.9
		c0.9-0.7,1.8-1.4,2.7-2.1c1.2-1,2.3-2,3.3-3.1c-1.1-0.8-2.1-1.9-2.9-3c-0.6-1-0.7-2.3-0.3-3.5c0.5-1,1.7-1.4,2.7-1
		c0.1,0,0.1,0.1,0.2,0.1c1.4,0.9,1.5,3.9,1.2,5.4c0,0.1-0.4,1.2-0.7,1.7l0.1,0c1-1.1,1.9-2.3,2.7-3.6c0.5-0.7,0.8-1.4,1.2-2.1
		c-1.2-0.7-2.2-1.6-3.1-2.6c-0.7-1-1-2.2-0.7-3.4c0.4-1,1.5-1.6,2.5-1.3c0.1,0,0.1,0,0.2,0.1c1.5,0.7,2,3.7,1.8,5.2
		c0,0.1-0.2,0.9-0.4,1.5c0.2-0.3,0.3-0.6,0.5-0.9c0.5-1.1,1-2.2,1.4-3.2c0.2-0.5,0.4-1,0.5-1.5c-0.7-1.2-1.2-2.4-1.5-3.7
		c-0.2-1.2,0.1-2.4,0.8-3.4c0.8-0.8,2.1-0.7,2.8,0.1c0,0,0.1,0.1,0.1,0.1c1,1.3,0,4.2-0.8,5.4c-0.1,0.1-1.4,1.6-1.5,1.6l0,0
		c-0.1,0.5-0.3,0.9-0.5,1.5c-0.4,1-0.8,2-1.3,3.2c-0.5,1.3-1.2,2.5-1.9,3.6c-0.8,1.3-1.7,2.6-2.7,3.7l0,0c0.4-0.3,1.6-0.9,1.7-1
		c1.4-0.6,4.4-0.9,5.5,0.3c0.7,0.9,0.6,2.1-0.3,2.8c0,0-0.1,0.1-0.1,0.1c-1.1,0.6-2.3,0.7-3.5,0.2c-1.2-0.6-2.4-1.4-3.4-2.4
		c-1,1.2-2.2,2.3-3.4,3.3c-0.7,0.6-1.4,1.2-2.1,1.7l0.8-0.4c1.4-0.6,4.4-0.9,5.5,0.3c0.7,0.9,0.6,2.1-0.3,2.8c0,0-0.1,0.1-0.1,0.1
		c-1.1,0.6-2.3,0.7-3.5,0.2c-1.2-0.6-2.3-1.3-3.3-2.3l-0.8,0.6c-1.3,1-2.7,2-4,3.1c-0.5,0.4-0.9,0.8-1.3,1.1l0.6-0.4
		c1.4-0.6,4.4-0.9,5.5,0.3c0.7,0.9,0.6,2.1-0.3,2.8c0,0-0.1,0.1-0.1,0.1c-1.1,0.6-2.3,0.7-3.5,0.2c-1.2-0.6-2.3-1.3-3.2-2.2
		c-0.4,0.4-0.9,0.8-1.3,1.2s-0.5,0.5-0.8,0.8l-0.8,0.9c-0.5,0.6-1,1.1-1.4,1.7c-0.3,0.4-0.6,0.8-0.9,1.1c0.5-0.4,1.3-1.1,1.4-1.1
		c1.3-0.8,4.2-1.6,5.5-0.5c0.8,0.7,0.9,2,0.1,2.8c0,0-0.1,0.1-0.1,0.1c-1,0.7-2.2,1-3.4,0.7c-1.3-0.4-2.6-1-3.7-1.8
		c-0.5,0.6-0.9,1.3-1.4,1.8c-1.5,2-2.6,3.8-3.4,5l-0.1,0.1l-1-0.5l0.2-0.2c0.8-1.2,2-3,3.6-5c0.5-0.6,1-1.3,1.6-2
		c-0.6-0.6-1.1-1.3-1.6-2c-1.3,0.3-2.6,0.5-3.9,0.5c0,0.8-0.1,1.6-0.1,2.3c-0.1,2.5-0.1,4.6-0.1,6.1v0.2l-1.1-0.5
		c0-1.5,0-3.4,0.2-5.8c0-0.8,0.1-1.7,0.2-2.5c-1.3-0.3-2.6-0.8-3.8-1.5c-1-0.7-1.6-1.8-1.8-3c0-1.1,0.9-2,2-2c0.1,0,0.1,0,0.2,0
		c1.7,0.2,3,2.9,3.3,4.4c0,0.1,0.1,1,0.1,1.7c0-0.4,0.1-0.7,0.1-1.1c0.1-0.7,0.2-1.5,0.3-2.2l0.2-1.1c0.1-0.4,0.2-0.8,0.2-1.2
		c0.2-0.9,0.5-1.8,0.7-2.7c-1.3-0.1-2.6-0.4-3.9-0.9c-1.1-0.5-1.9-1.5-2.2-2.7c-0.2-1.1,0.6-2.1,1.7-2.3c0.1,0,0.1,0,0.2,0
		c1.7,0,3.5,2.4,3.9,3.8c0,0.1,0.3,1.1,0.4,1.7c0.2-0.5,0.3-1.1,0.5-1.6c0.5-1.6,1.1-3.2,1.7-4.8c0.2-0.5,0.4-1,0.5-1.5
		c-1.4-0.1-2.7-0.4-4-0.9c-1.1-0.5-1.9-1.5-2.2-2.7c-0.2-1.1,0.6-2.1,1.7-2.3c0.1,0,0.1,0,0.2,0c1.7,0,3.5,2.4,4,3.8
		c0,0.1,0.4,1.6,0.4,2c0.4-1.1,0.8-2.1,1.1-3.2c0.4-1.4,0.8-2.9,1.1-4.4c-1.4-0.1-2.7-0.4-4-0.9c-1.1-0.5-1.9-1.5-2.2-2.7
		c-0.2-1.1,0.6-2.1,1.7-2.3c0.1,0,0.1,0,0.2,0c1.7,0,3.5,2.4,3.9,3.8c0,0.1,0.3,1.3,0.4,1.8h0.1c0.2-1.5,0.3-3,0.3-4.5
		c0-0.8-0.1-1.6-0.2-2.4c-1.3,0-2.7-0.1-4-0.5c-1.1-0.4-2-1.3-2.5-2.5c-0.3-1.1,0.4-2.2,1.4-2.4c0.1,0,0.1,0,0.2,0
		c1.6-0.2,3.7,2,4.3,3.4c0,0.1,0.3,0.9,0.5,1.4c0-0.4-0.1-0.7-0.1-1c-0.2-1.3-0.4-2.4-0.6-3.4c-0.1-0.6-0.3-1.1-0.4-1.6
		c-1.2-0.6-2.3-1.3-3.3-2.3c-0.8-0.9-1.2-2.1-1.1-3.3C345.8,321.1,346.8,320.5,348,320.8C347.9,320.7,348,320.7,348,320.8z"/>
	<path class="st7" d="M378.2,346.5c-1.4-0.3-2.7-0.7-3.9-1.4c0,0,1.4-1.5,1.5-1.5c1.2-0.9,4-2,5.4-1.1c0.9,0.6,1.1,1.9,0.5,2.8
		c0,0-0.1,0.1-0.1,0.1C380.6,346.3,379.4,346.7,378.2,346.5z"/>
	<path class="st7" d="M363,379.3c0,0-8-19.1-12.4-18.3s7.6,30.5,7.6,30.5s-14-26.3-23.5-26.3s3.5,29.1,15.5,38.8
		c0,0-19-20.5-30.1-16.1s22.2,25.2,22.2,25.2s-19.3-6.1-17.1-1.4s8.3,5.5,8.3,5.5l-21.9,1.1h76.1l-17.1-1.7c0,0,17.8-8.9,13-12.5
		s-15.2,4.2-15.2,4.2s18.1-20,14.6-27.4s-19,13.6-19,13.6s12.7-26.9,10.1-31.6S363,379.3,363,379.3z"/>
	<path class="st12" d="M365.5,380.3c-7,20.6-7,35.2-7,35.2s8.3,0.3,16.8-6"/>
	<path class="st12" d="M362,391.4c-1.4-6.2-3.3-12.2-5.7-18.1"/>
	<path class="st12" d="M341.4,379.3l17.8,26.3c0,0,12.1-10.1,16.2-15.9"/>
	<path class="st12" d="M358.8,412c0,0-18.7-8.9-26.3-14"/>
	<path class="st7" d="M63.8,328.6c0,0,0.2-0.9,0.2-1c0.2-0.6,1-1.8,1.8-1.8c0.5,0,0.9,0.4,0.9,0.9c0,0,0,0.1,0,0.1
		c-0.1,0.5-0.5,1-1,1.3C65.1,328.4,64.5,328.6,63.8,328.6z"/>
	<path class="st7" d="M62.4,322.5c0.7,0.3,1.1,1.6,1,2.3c0,0-0.1,1-0.2,1l0,0c0,0.2,0.1,0.4,0.2,0.7c0.1,0.5,0.2,1,0.3,1.5
		c0.1,0.6,0.2,1.2,0.2,1.9c0,0.7,0,1.4-0.1,2.1l0,0c0.1-0.2,0.4-0.8,0.4-0.8c0.4-0.6,1.4-1.4,2.2-1.2c0.5,0.1,0.7,0.6,0.6,1.1
		c0,0,0,0.1,0,0.1c-0.3,0.5-0.7,0.9-1.3,1c-0.6,0.1-1.3,0.1-1.9,0c-0.1,0.7-0.3,1.4-0.5,2.1c-0.1,0.4-0.2,0.8-0.4,1.2l0.2-0.4
		c0.4-0.6,1.4-1.5,2.2-1.2c0.5,0.1,0.8,0.6,0.7,1.1c0,0,0,0.1,0,0.1c-0.3,0.5-0.7,0.9-1.3,1c-0.6,0.1-1.2,0.1-1.8,0
		c-0.1,0.1-0.1,0.3-0.2,0.5c-0.3,0.7-0.5,1.5-0.7,2.2c-0.1,0.3-0.2,0.5-0.2,0.8l0.2-0.3c0.4-0.6,1.4-1.5,2.2-1.3
		c0.5,0.1,0.7,0.7,0.6,1.1c0,0,0,0.1,0,0.1c-0.3,0.5-0.7,0.8-1.3,1c-0.6,0.1-1.2,0.1-1.8,0c-0.1,0.3-0.1,0.5-0.2,0.8
		s-0.1,0.3-0.1,0.5s0,0.4-0.1,0.5c0,0.3-0.1,0.7-0.1,1s0,0.4,0,0.7c0.1-0.3,0.2-0.7,0.3-0.8c0.3-0.5,0.7-1,1.2-1.3
		c0-0.1,0.1-0.1,0.1-0.2c0.3-0.4,0.8-0.5,1.2-0.3c0,0,0.1,0,0.1,0.1c0.6,0.5,0.4,1.9,0.2,2.5l-0.4,0.7l0.3-0.4l0.7-0.8l0.3-0.4
		c0.1-0.1,0.3-0.3,0.4-0.4c0.3-0.3,0.6-0.6,1-0.9c-0.5-0.4-0.9-0.8-1.3-1.3c-0.4-0.5-0.5-1.1-0.3-1.7c0.2-0.5,0.7-0.7,1.2-0.4
		c0,0,0,0,0.1,0c0.7,0.4,0.7,1.8,0.6,2.4c0,0-0.2,0.5-0.3,0.8l0.6-0.5c0.6-0.5,1.2-0.9,1.8-1.4l0.6-0.4c-0.5-0.4-0.9-0.8-1.3-1.4
		c-0.3-0.5-0.3-1.1-0.2-1.6c0.2-0.5,0.8-0.7,1.2-0.4c0,0,0,0,0.1,0c0.7,0.4,0.7,1.8,0.5,2.4c0,0-0.3,0.7-0.3,0.9
		c0.4-0.3,0.8-0.6,1.2-0.9c0.5-0.4,1-0.9,1.5-1.4c-0.5-0.4-1-0.8-1.3-1.4c-0.3-0.5-0.3-1.1-0.2-1.6c0.2-0.5,0.8-0.7,1.2-0.4
		c0,0,0,0,0.1,0c0.7,0.4,0.7,1.8,0.6,2.4c0,0-0.2,0.5-0.3,0.8l0,0c0.5-0.5,0.9-1.1,1.2-1.7c0.2-0.3,0.4-0.6,0.6-1
		c-0.5-0.3-1-0.7-1.4-1.2c-0.3-0.4-0.4-1-0.3-1.5c0.2-0.5,0.7-0.7,1.1-0.6c0,0,0.1,0,0.1,0c0.7,0.3,0.9,1.7,0.8,2.4
		c0,0-0.1,0.4-0.2,0.7l0.2-0.4c0.3-0.5,0.4-1,0.6-1.5c0.1-0.3,0.2-0.5,0.3-0.7c-0.3-0.5-0.6-1.1-0.7-1.7c-0.1-0.5,0.1-1.1,0.4-1.5
		c0.4-0.3,0.9-0.3,1.3,0c0,0,0,0,0.1,0.1c0.5,0.6,0,1.9-0.4,2.5c0,0-0.7,0.7-0.7,0.7l0,0c-0.1,0.2-0.1,0.4-0.2,0.7
		c-0.2,0.4-0.3,0.9-0.6,1.5c-0.3,0.6-0.5,1.1-0.9,1.7c-0.3,0.6-0.8,1.2-1.2,1.7l0,0c0.2-0.1,0.7-0.4,0.8-0.5c0.6-0.3,2-0.4,2.5,0.2
		c0.3,0.4,0.3,0.9-0.1,1.3c0,0-0.1,0-0.1,0.1c-0.5,0.3-1.1,0.3-1.6,0.1c-0.6-0.3-1.1-0.6-1.6-1.1c-0.4,0.6-0.9,1.1-1.5,1.6l-1,0.8
		l0.3-0.2c0.6-0.3,2-0.4,2.5,0.2c0.3,0.4,0.3,0.9-0.1,1.3c0,0-0.1,0-0.1,0.1c-0.5,0.3-1.1,0.3-1.6,0.1c-0.5-0.3-1.1-0.6-1.5-1
		l-0.4,0.3c-0.6,0.5-1.2,0.9-1.8,1.4c-0.2,0.2-0.4,0.3-0.6,0.5l0.3-0.2c0.6-0.3,2-0.4,2.5,0.2c0.3,0.4,0.3,0.9-0.1,1.3
		c0,0-0.1,0-0.1,0.1c-0.5,0.3-1.1,0.3-1.6,0.1c-0.5-0.3-1-0.6-1.5-1c-0.2,0.2-0.4,0.4-0.6,0.5s-0.3,0.2-0.4,0.4l-0.3,0.4l-0.6,0.8
		l-0.4,0.5l0.6-0.5c0.6-0.4,1.9-0.7,2.5-0.2c0.4,0.3,0.4,0.9,0.1,1.3c0,0,0,0-0.1,0.1c-0.4,0.3-1,0.5-1.6,0.3
		c-0.6-0.2-1.2-0.5-1.7-0.8l-0.6,0.8c-0.7,0.9-1.2,1.7-1.6,2.3v0.1l-0.5-0.2l0.1-0.1c0.4-0.6,0.9-1.4,1.6-2.3
		c0.2-0.3,0.5-0.6,0.7-0.9c-0.3-0.3-0.5-0.6-0.7-0.9c-0.6,0.2-1.2,0.2-1.8,0.2c0,0.4,0,0.7-0.1,1c0,1.1,0,2.1,0,2.8v0.1l-0.5-0.3
		c0-0.7,0-1.6,0.1-2.6c0-0.4,0-0.8,0.1-1.2c-0.6-0.1-1.2-0.4-1.7-0.7c-0.5-0.3-0.7-0.8-0.8-1.4c0-0.5,0.4-0.9,0.9-0.9
		c0,0,0.1,0,0.1,0c0.8,0.1,1.4,1.3,1.5,2c0,0,0,0.5,0.1,0.8c0-0.2,0-0.3,0-0.5c0-0.3,0.1-0.7,0.1-1c0-0.2,0-0.3,0.1-0.5
		s0.1-0.4,0.1-0.5c0.1-0.4,0.2-0.8,0.3-1.3c-0.6,0-1.2-0.2-1.8-0.4c-0.5-0.2-0.9-0.7-1-1.2c-0.1-0.5,0.3-1,0.8-1c0,0,0.1,0,0.1,0
		c0.8,0,1.6,1.1,1.8,1.7c0,0,0.1,0.5,0.2,0.8c0.1-0.3,0.2-0.5,0.2-0.8c0.2-0.7,0.5-1.4,0.8-2.2l0.2-0.7c-0.6,0-1.2-0.2-1.8-0.4
		c-0.5-0.2-0.9-0.7-1-1.2c-0.1-0.5,0.3-0.9,0.8-1c0,0,0,0,0,0c0.8,0,1.6,1.1,1.8,1.7c0,0,0.2,0.7,0.2,0.9c0.2-0.5,0.3-1,0.5-1.5
		c0.2-0.7,0.4-1.3,0.5-2c-0.6,0-1.3-0.2-1.8-0.4c-0.5-0.2-0.9-0.7-1-1.2c-0.1-0.5,0.3-1,0.8-1c0,0,0.1,0,0.1,0
		c0.8,0,1.6,1.1,1.8,1.7c0,0,0.1,0.6,0.2,0.8l0,0c0.1-0.7,0.1-1.4,0.1-2.1c0-0.4,0-0.7-0.1-1.1c-0.6,0-1.2,0-1.8-0.2
		c-0.5-0.2-0.9-0.6-1.1-1.1c-0.1-0.5,0.2-1,0.6-1.1c0,0,0.1,0,0.1,0c0.8-0.1,1.7,0.9,2,1.5c0,0,0.2,0.4,0.2,0.6c0-0.2,0-0.3,0-0.5
		c-0.1-0.6-0.2-1.1-0.3-1.5l-0.2-0.7c-0.6-0.3-1.1-0.6-1.5-1c-0.4-0.4-0.5-1-0.5-1.5c0-0.5,0.5-0.9,1-0.8
		C62.3,322.5,62.3,322.5,62.4,322.5z"/>
	<path class="st7" d="M76.2,334.3c-0.6-0.1-1.2-0.3-1.8-0.6c0,0,0.6-0.7,0.7-0.7c0.5-0.4,1.8-0.9,2.4-0.5c0.4,0.3,0.5,0.9,0.2,1.3
		c0,0,0,0.1-0.1,0.1C77.3,334.2,76.7,334.4,76.2,334.3z"/>
	<path class="st7" d="M69.2,349.2c0,0-3.6-8.7-5.6-8.3s3.4,13.9,3.4,13.9s-6.3-12-10.7-12s1.6,13.3,7.1,17.7c0,0-8.7-9.3-13.7-7.3
		s10.1,11.5,10.1,11.5S51,361.8,52,364s3.8,2.5,3.8,2.5l-10,0.5h34.7l-7.8-0.8c0,0,8.1-4,5.9-5.7s-6.9,1.9-6.9,1.9s8.2-9.1,6.6-12.5
		s-8.7,6.2-8.7,6.2s5.8-12.3,4.6-14.4S69.2,349.2,69.2,349.2z"/>
	<path class="st12" d="M70.4,349.7c-1.8,5.1-2.9,10.5-3.2,16c2.8-0.1,5.4-1,7.7-2.7"/>
	<path class="st12" d="M68.8,354.7c-0.7-2.8-1.5-5.6-2.6-8.2"/>
	<path class="st12" d="M59.4,349.2l8.1,12c0,0,5.5-4.6,7.4-7.2"/>
	<path class="st12" d="M67.3,364.1c0,0-8.5-4-12-6.4"/>
</g>
<g id="freepik--Car--inject-8">
	<line class="st12" x1="95.2" y1="344.1" x2="187.6" y2="344.1"/>
	<polygon class="st17" points="133.5,322.3 135.4,322.3 135.1,338.7 132.6,338.7 	"/>
	<polygon class="st9" points="101.2,335.9 117.4,335.9 119.2,338.1 163.2,338.1 184.6,338.1 184.6,329.1 102.5,329.1 	"/>
	<path class="st13" d="M94,321.6l0.1,12.5c0.1,0.6,0.6,1.1,1.2,1.3c1.2,0.1,2.4,0.2,3.7,0.1l3-5.5c0.5-1.5,1.9-2.4,3.4-2.5
		c2.7-0.1,14.8,0.6,14.8,0.6c1,0.4,1.8,1.3,2.1,2.4c0.5,1.9,0.3,7.6,0.3,7.6l11.1,0.3l0.4-16L94,321.6z"/>
	<path class="st9" d="M180.6,337.6c0-3.7-3-6.8-6.8-6.8s-6.8,3-6.8,6.8c0,3.7,3,6.8,6.8,6.8c0,0,0,0,0,0
		C177.6,344.4,180.6,341.4,180.6,337.6L180.6,337.6z"/>
	<path class="st13" d="M179.3,337.6c0-3-2.4-5.4-5.4-5.4s-5.4,2.4-5.4,5.4s2.4,5.4,5.4,5.4c0,0,0,0,0,0
		C176.8,343,179.3,340.6,179.3,337.6z"/>
	<path class="st13" d="M177.3,337.6c0-1.9-1.5-3.5-3.5-3.5c-1.9,0-3.5,1.5-3.5,3.5c0,1.9,1.5,3.5,3.5,3.5c0,0,0,0,0,0
		C175.8,341.1,177.3,339.5,177.3,337.6L177.3,337.6z"/>
	<path class="st13" d="M175.7,337.6c0-1-0.8-1.8-1.8-1.8s-1.8,0.8-1.8,1.8c0,1,0.8,1.8,1.8,1.8c0,0,0,0,0,0
		C174.9,339.4,175.7,338.6,175.7,337.6z"/>
	<path class="st9" d="M119,337.6c0-3.7-3-6.8-6.7-6.8s-6.8,3-6.8,6.8c0,3.7,3,6.8,6.8,6.8c0,0,0,0,0,0
		C116,344.4,119,341.4,119,337.6z"/>
	<path class="st13" d="M117.7,337.6c0-3-2.4-5.4-5.4-5.4c-3,0-5.4,2.4-5.4,5.4c0,3,2.4,5.4,5.4,5.4c0,0,0,0,0,0
		C115.2,343,117.6,340.6,117.7,337.6z"/>
	<path class="st13" d="M115.7,337.6c0-1.9-1.5-3.5-3.5-3.5s-3.5,1.5-3.5,3.5c0,1.9,1.5,3.5,3.5,3.5c0,0,0,0,0,0
		C114.2,341.1,115.7,339.6,115.7,337.6C115.7,337.6,115.7,337.6,115.7,337.6z"/>
	<path class="st13" d="M114,337.6c0-1-0.8-1.8-1.8-1.8s-1.8,0.8-1.8,1.8s0.8,1.8,1.8,1.8h0C113.2,339.4,114,338.6,114,337.6z"/>
	<path class="st13" d="M138.7,311.1c0,0-2.8,0.1-2.8,0.5c0.1,0.4,0.2,0.8,0.4,1.1l-1.8,9.3c-0.2,0.9-0.3,1.8-0.3,2.8
		c0,0.9-0.3,13.4-0.3,13.4c0.2,0.4,0.6,0.7,1.1,0.7c0.9,0.1,28,0.5,28,0.5c0.6-0.3,1.1-0.7,1.4-1.1c0.8-0.9,4.5-5.7,8.9-7
		c2.9-1,6.1-0.5,8.6,1.4c1.1,1,1.2,4.5,1.3,5.2s1.4,0.7,1.6,0.7s1.9-0.2,2.3-0.7c0.3-0.7,0.5-1.5,0.6-2.3c0-0.2-0.1-0.5-0.2-0.7
		l1.2-5.3c0,0,0.3-1-0.1-1.2s-1.1-0.3-1.3-0.8s0.6-1.5,0-2.2s-2.4-1.5-3.8-1.8s-9.4-0.9-9.4-0.9l-12.7-0.7l-3.2-5l-2.8-4.3
		c0.2-0.3,0.1-0.6-0.1-0.8c0,0,0,0-0.1,0c-0.6-0.4-2.1-0.5-5.2-0.7S138.7,311.1,138.7,311.1z"/>
	<path class="st13" d="M136.4,338.5l0.3-13.8c0,0-0.3-0.6,0.4-1.7c0.5-0.6,1-1.2,1.6-1.7l1.1-7.3c0.1-1,0.9-1.7,1.9-1.8
		c1.8-0.2,11.8,0.2,11.8,0.2l4.1,9.6c0.4,1.1,0.5,2.3,0.5,3.5c-0.1,1.9-0.6,13.5-0.6,13.5L136.4,338.5z"/>
	<path class="st13" d="M155.3,311.8c-0.6-0.4-2.1-0.5-5.2-0.7s-11.4,0-11.4,0s-2.8,0.1-2.8,0.5c0,0.2,0.1,0.3,0.1,0.5h19.5
		C155.5,312,155.4,311.9,155.3,311.8z"/>
	<path class="st13" d="M151.6,313.3l-8.7-0.1c-0.8,0-1.5,0.6-1.6,1.3c-0.4,1.4-1,6.4-1,6.4s0,0.7,1,0.7s13.8,0.3,13.8,0.3
		c0.5,0,0.9-0.3,1-0.8c0,0,0-0.1,0-0.1c0-0.9-3-7.2-3-7.2S152.8,313,151.6,313.3z"/>
	<path class="st9" d="M155,321.9l-4.3-0.1l1.3-8.6h0.3c0.5,0,0.9,0.3,1,0.7c0.4,0.7,3,6,3,6.8c0,0.6-0.5,1.1-1.1,1.1
		C155.1,321.9,155,321.9,155,321.9z M151.3,321.4l3.7,0.1c0.1,0,0.7,0,0.7-0.6s-1.8-4.4-3-6.7v0c0-0.1-0.1-0.2-0.3-0.3L151.3,321.4z
		"/>
	<path class="st13" d="M151.9,313.3l-1.3,8.6h0.6l1.3-8.5C152.3,313.2,152.1,313.2,151.9,313.3z"/>
	<path class="st13" d="M158.2,317l-2.8-4.3c0,0-0.9,0-0.5,1.1s3,7.2,3,7.2c0.4,0.4,0.9,0.6,1.4,0.7c0.8,0.1,1.6,0.2,2.4,0.2v-0.1
		h-0.3L158.2,317z"/>
	<polygon class="st9" points="94.1,323.2 133.9,324.1 134,322.4 94,321.6 	"/>
	<path class="st6" d="M134.1,322.7L134.1,322.7l-40.9-1c-0.2,0-0.4-0.2-0.4-0.4c0-0.2,0.2-0.4,0.4-0.4l40.9,1c0.2,0,0.4,0.2,0.4,0.4
		C134.5,322.5,134.3,322.7,134.1,322.7z"/>
	<path class="st12" d="M134.1,322.7L134.1,322.7l-40.9-1c-0.2,0-0.4-0.2-0.4-0.4c0-0.2,0.2-0.4,0.4-0.4l40.9,1
		c0.2,0,0.4,0.2,0.4,0.4C134.5,322.5,134.3,322.7,134.1,322.7z"/>
	<path class="st13" d="M96.3,337.9l4.8,1l2.3-7.1c0,0,0.3-1.4,3.3-1.7s8.6-0.3,10.7,0.3s2.4,2.4,2.8,4.4s0.1,4.8,0.7,5.1
		s3.6,0.1,4.2-0.1s1.2-8,1-10s-2.4-4.2-5.6-4.3s-12.5-0.4-16.7,0.2s-5.7,2.4-6.3,5C96.9,333.1,96.5,335.5,96.3,337.9z"/>
	<path class="st13" d="M187.1,337.9c0.3-0.7,0.5-1.5,0.6-2.3c0-0.2-0.1-0.5-0.2-0.7l1.2-5.3c0,0,0.3-1-0.1-1.2
		c-0.2-0.1-0.5-0.2-0.7-0.3c-4.4-0.3-14.9-0.9-19.1,1.2c-4.7,2.2-9.5,8.5-10.7,10.1l4.9,0.1c0.6-0.3,1.1-0.7,1.4-1.1
		c0.8-0.9,4.5-5.7,8.9-7c2.9-1,6.1-0.5,8.6,1.4c1.1,1,1.2,4.5,1.3,5.2s1.4,0.7,1.6,0.7S186.7,338.4,187.1,337.9z"/>
	<path class="st13" d="M187.4,334.9h1.6l0.1,0.1c0.4,0.4,0.6,1.1,0.4,1.6l-0.4,1.4c-0.2,0.6-0.8,1-1.4,0.9l-1.4-0.2
		C185.8,337.3,186.3,335.7,187.4,334.9z"/>
	<path class="st9" d="M139.9,322.8c0,0,0.1,0.5-0.2,0.6c-0.4,0.1-0.9,0-1.1-0.3c-0.3-0.3-0.1-0.7,0.6-0.7S139.9,322.8,139.9,322.8z"
		/>
	<path class="st9" d="M138.4,322.7c1.5-0.3,3.1-0.3,4.6,0.1c-0.2,0.1-0.4,0.2-0.6,0.2C142.2,322.9,137.8,322.9,138.4,322.7z"/>
</g>
</svg>
