<svg xmlns="http://www.w3.org/2000/svg" viewBox="0 0 750 500"><defs><style>.cls-1{fill:#fff;}.cls-2{fill:#7db6f9;}.cls-3{fill:#476b9e;}.cls-4{fill:#162e4c;}.cls-5{fill:#e8615b;}.cls-6{fill:#2f4a7f;}.cls-7{fill:#d9ebff;}.cls-8{fill:#efac37;}.cls-9{fill:#ce7602;}</style></defs><title>logistic-banner</title><g id="BACKGROUND"><rect class="cls-1" width="750" height="500"/></g><g id="OBJECTS"><path class="cls-2" d="M641.87,443.72c.42-1.39.87-2.76,1.28-4.17a289.55,289.55,0,0,0,10.66-91.5c-3.66-86.89-45.11-175-118-227.65C449.58,58.24,324.42,57,233.32,108.35c-116.91,65.91-166.78,214-131.17,335.37Z"/><path class="cls-3" d="M225.84,217.35a46.52,46.52,0,0,0,1.86,6.92c.36,1.16.65,2.53-.09,3.49-.19.25-.43.45-.63.7-1.08,1.4.05,3.45,1.4,4.59s3.07,2.15,3.46,3.87a9.43,9.43,0,0,1-.1,2.85,12,12,0,0,0,2.54,7.91,36.11,36.11,0,0,0,6,6,3.91,3.91,0,0,0,1.37-3.4,12.25,12.25,0,0,0-1-3.67,145.83,145.83,0,0,1-7.28-25.09c-.68-3.51-1.21-7.26.16-10.57.31-.75.95-1.57,1.74-1.4a1.51,1.51,0,0,1,.74.51,5.91,5.91,0,0,1,1.07,2.55l1.26,5.29a55.75,55.75,0,0,1,1.17,5.72,42.4,42.4,0,0,0,.65,4.48,24.38,24.38,0,0,0,3.56,7.21l6.31,9.89c2.28,3.56,4.58,7.19,5.66,11.26a20.48,20.48,0,0,1-.12,10.93c-1.2,4.16.31,8.49,3.2,11.72s6.86,5.24,10.74,7.17l20.6,10.25a12.07,12.07,0,0,0,3.31,1.25c3.35.55,6.52-1.8,9.92-2,3.85-.18,7.24,2.46,9.85,5.29s4.94,6.09,8.34,7.89c4,2.13,8.82,1.86,13.28,2.68,5,.92,10.15,3.71,12,8.49a4.44,4.44,0,0,0,1,1.88c1.06.94,2.7.35,4.11.16s3.34.87,2.73,2.15c-.76,1.61-2.64,1.38-3.83,2.69s-.67,3.9.74,5.26a6.29,6.29,0,0,0,3,1.59c.87.19,1.77.19,2.63.42,4.65,1.21,6.2,8.06,10.93,8.92a23.11,23.11,0,0,1,3.12.37,11,11,0,0,1,3.22,2.31,10,10,0,0,0,5.35,2.15,1.11,1.11,0,0,0,1-.24,1.18,1.18,0,0,0,.16-.81c-.06-2.27.37-4.7,1.94-6.32a5.68,5.68,0,0,1,6.68-.94,4.41,4.41,0,0,1,2.25,4.7c-.17.61-.5,1.17-.62,1.8-.41,2.12,1.66,3.82,2.59,5.77a10.7,10.7,0,0,1,.82,4,67.93,67.93,0,0,1-.42,13.67,5.13,5.13,0,0,1-1,2.8,6.3,6.3,0,0,1-1.94,1.3,18.92,18.92,0,0,0-7.19,6.68c-2.18,3.48-5,6.56-6.2,10.49s-1,8.51,1.45,11.79a3.62,3.62,0,0,1,1,2,2.84,2.84,0,0,1-.69,1.6c-2.17,2.95-5.37,5.68-5.32,9.34A9.34,9.34,0,0,0,375,419a22.53,22.53,0,0,0,4.74,7.25c2,2,4.39,3.72,6,6.06a24.91,24.91,0,0,1,2.85,6.17l1.87,5.29H566.82c.1-.18.18-.38.29-.56a43.69,43.69,0,0,1,4.6-5.67,56.5,56.5,0,0,0,12.49-24.68,26.53,26.53,0,0,0,.75-7.63,2.16,2.16,0,0,0-.76-1.75c-.59-.37-1.34-.13-2-.09-1.65.09-3.12-1.06-4.15-2.35a35.21,35.21,0,0,0-3-3.93c-4.46-4.19-12.32-1.45-17.36-4.9-3.24-2.22-7.61-3.28-10.86-5.47a14.63,14.63,0,0,0-3.38-1.95c-1.68-.58-3.52-.41-5.3-.53s-3.71-.64-4.69-2.14c-.79-1.22-.75-2.77-.82-4.22-.26-5.29-2.34-10.29-4.4-15.17-1.15-2.73-2.46-5.65-5-7.17a12.47,12.47,0,0,0-4.44-1.4,61.42,61.42,0,0,0-16.19-.62,11.76,11.76,0,0,1-4.1,0,10.15,10.15,0,0,1-3.29-1.75,85.8,85.8,0,0,1-7-5.56,39.77,39.77,0,0,1-5.45-6.79,27.83,27.83,0,0,0-2.83-3.72c-4.18-4.22-10.83-4.24-16.77-4.43a118.35,118.35,0,0,1-14.43-1.34,12.48,12.48,0,0,1-2.82-.68c-2.37-1-4.11-3.24-6.59-3.87a5.58,5.58,0,0,0-5.91,2.32c-1.42,2.2-1.4,5.54-3.75,6.7-2,1-4.65-.75-4.93-3-.21-1.67.61-3.3.7-5s-1.23-3.72-2.84-3.23c-.92.28-1.41,1.25-2.1,1.92-2.72,2.63-7.92.34-10.68,2.92a10.18,10.18,0,0,0-1.82,3c-1.58,3.1-4.06,5.62-6.51,8.08a2.4,2.4,0,0,1-1,.7,2.27,2.27,0,0,1-1.33-.13,13.08,13.08,0,0,1-4.7-2.77c-2.69-2.48-6.81-2.75-10.44-2.37a11,11,0,0,0-5.18,1.61c-.62.43-1.17,1-1.81,1.34a6.64,6.64,0,0,1-3.72.77,12,12,0,0,1-9.16-5.65,7,7,0,0,1-1.1-2.58,13.14,13.14,0,0,1,.16-3.48c.45-4.14-.53-8.33-.13-12.48.32-3.24,1.46-6.6.32-9.65-1-2.78-3.84-4.61-6.73-5.29a27,27,0,0,0-8.88-.1,27.77,27.77,0,0,1-8.87-.07,3.73,3.73,0,0,1-1.79-.82,1.51,1.51,0,0,1-.34-1.81c-.43-2,1-3.71,2.27-5.31a21.16,21.16,0,0,0,4.34-10.23,15.69,15.69,0,0,1,.86-4.38c.55-1.22,1.5-2.21,2.05-3.43a5.78,5.78,0,0,0-.36-5.27,3.05,3.05,0,0,0-.91-1,3.39,3.39,0,0,0-1.6-.44,11.34,11.34,0,0,0-5.54,1,16,16,0,0,1-3.3,1.42c-.57.12-1.16.14-1.72.31-1.89.59-2.8,2.74-3.07,4.7s-.16,4-1.05,5.8a7.51,7.51,0,0,1-4.22,3.45,22,22,0,0,1-5.47,1c-4,.41-7.84.18-11.82.28a6.8,6.8,0,0,1-2.38-.23,7,7,0,0,1-2.33-1.64c-2.21-2.08-4.5-4.28-5.44-7.16a17.8,17.8,0,0,1-.65-3.78,122.43,122.43,0,0,1-.62-18.36c3.13-3.65,2.15-9.58,3.66-14.14,2-6.06,7.36-10.73,13.48-12.54a22.68,22.68,0,0,1,8.59-.82c5.95.57,11.53,3.47,17.5,3.79l-1.08-3.73a1.81,1.81,0,0,1-.1-.89c.15-.68,1-1,1.66-1.08a73.77,73.77,0,0,1,11.8-.84,6.46,6.46,0,0,1,3.41.57c.85.49,1.43,1.34,2.24,1.88,2.37,1.58,5.72.09,8.33,1.23a6.23,6.23,0,0,1,2.63,2.46c2.92,4.68,1.68,11,4.25,15.88,1.48,2.79,4,4.81,6.53,6.74a1.46,1.46,0,0,0,.65.34,1.28,1.28,0,0,0,.95-.36c2.35-1.86,2.81-5.23,2.6-8.22a27.8,27.8,0,0,0-1-5.79c-.94-3.26-2.48-6.32-3.52-9.56s-1.54-6.8-.39-10c2.32-1.8,4.41-3.69,6.74-5.49a64.94,64.94,0,0,1,6.82-4.86c3.45-2.05,7.24-3.46,10.75-5.41a3.19,3.19,0,0,0,1.8-1.86,3.9,3.9,0,0,0-.87-2.59,11.57,11.57,0,0,1-1.49-4.5,3.52,3.52,0,0,1,.11-1.55,4.87,4.87,0,0,1,1.08-1.41,11.71,11.71,0,0,0,3.06-6.34,8.4,8.4,0,0,1,.78-3.35,6.18,6.18,0,0,1,2.72-2c2.94-1.45,6-2.92,9.23-3.23a1.31,1.31,0,0,0,1.19-1.48c-.1-.75-.49-1.42-.63-2.16a4.38,4.38,0,0,1,1.27-3.63,13,13,0,0,1,3.23-2.29l9.3-5.23a7.37,7.37,0,0,1,4.26-1.35c.17,1-.55,2-1.14,2.82s-1.07,2-.46,2.9a2.47,2.47,0,0,0,2.61.58c2.94-.68,5.25-2.89,8-4.21a25.23,25.23,0,0,1,5.19-1.7,6,6,0,0,0,2-.74,2,2,0,0,0,1-1.79c-.11-1.1-1.41-1.71-2.51-1.63a25.56,25.56,0,0,0-3.21.81,11.22,11.22,0,0,1-4.31-.28,17.11,17.11,0,0,1-6.2-2,4.82,4.82,0,0,1-1.65-1.65c-1.34-2.42.61-5.72-.79-8.1a3.35,3.35,0,0,0-3.6-1.51,11.77,11.77,0,0,1-2,.58c-.69,0-1.49-.5-1.35-1.18s.75-.79,1.29-.92c5.47-1.32,11.35.12,16.8-1.32,1.05-.27,1.81-1.18,2.7-1.79,1-.71,2.55-1.39,3.45-.5a2.85,2.85,0,0,1,.41,2.45l-.87,5.94a4.52,4.52,0,0,0,.1,2.45,3.46,3.46,0,0,0,2.12,1.72c3,1.05,6.3,0,9.4.58,2.37.47,4.44,1.91,6.74,2.66,1.09.36,2.48.47,3.2-.42a2.3,2.3,0,0,0,.39-1.81,5.54,5.54,0,0,0-2.53-3.67,16.35,16.35,0,0,0-4.19-1.83l-5.66-1.86a3.21,3.21,0,0,1-1-.49,3.31,3.31,0,0,1-.82-1.15q-1.32-2.59-2.66-5.19a10.88,10.88,0,0,0-6.05-6l-4.53-2.41c-1.8-1-3.66-2-4.77-3.67-5-1.36-9.43-4.32-13.44-7.65-1.86-1.55-3.56-3.29-5.34-4.94-.93-.85-2.21-1.75-3.35-1.19a5.57,5.57,0,0,0-1.25,1.13,5.46,5.46,0,0,1-5.17,1,19,19,0,0,1-4.92-2.44A67.41,67.41,0,0,0,395,104.36a7,7,0,0,0-3.24-.48,5,5,0,0,0-3.49,3,14.78,14.78,0,0,0-.93,4.72,6,6,0,0,0,0,1.69,5.19,5.19,0,0,0,1.37,2.33,14,14,0,0,1,2.81,3.62c.59,1.41.37,3.33-1,4.09a10.48,10.48,0,0,1-2.16.61,4.25,4.25,0,0,0-2.93,3.4c-.23,1.7.58,3.55-.17,5.09a2.91,2.91,0,0,1-4.62.56,14.53,14.53,0,0,1-1-1.67c-1.31-2.13-4.35-3.26-4.54-5.74A4.45,4.45,0,0,0,375,124a2.39,2.39,0,0,0-1.93-1.07c-3-.49-6.08-.18-9.11-.49a22.36,22.36,0,0,1-11.66-4.84,7.27,7.27,0,0,0-2-1.3,4.91,4.91,0,0,0-2-.18,13.41,13.41,0,0,0-9.53,5.18c-.72.94-1.4,2.06-2.54,2.41s-2.65-.86-2-1.88a35.92,35.92,0,0,1,8.48-5c1-.43,2.22-.94,2.57-2a3,3,0,0,0-1.27-3,15.14,15.14,0,0,1-2.64-2.26c-.68-1-.76-2.5.23-3.1,3.66-2.25,5.8-5.93,10-6.72a61.33,61.33,0,0,1,12.85-.59,3.91,3.91,0,0,0,2.12-.34,5.2,5.2,0,0,0,1.26-1.34,8.16,8.16,0,0,1,6.77-3c1.23-1.31.07-3.93,1.51-5a3.07,3.07,0,0,1,1.8-.43c5.67-.18,11.83-.13,16.3,3.35A1.58,1.58,0,0,1,395,93.4c0,.54-.49.93-.75,1.4-.75,1.36.53,2.91,1.75,3.86a37.46,37.46,0,0,0,20.66,7.72,4.14,4.14,0,0,0-2.76-3.1,17.17,17.17,0,0,0-4.29-.77,4.28,4.28,0,0,1-1.58-.4c-1.71-.94-1.56-3.4-1.18-5.31a15,15,0,0,1,5.9.11c.58-2.38-1.66-4.56-4-5.42s-4.87-1-6.9-2.41c-.92-.61-1.68-1.44-2.62-2-2-1.2-4.46-1.07-6.78-1.1a40.89,40.89,0,0,1-10.93-1.62c-1.55-.46-3.08-1-4.65-1.39a24.7,24.7,0,0,0-10.41-.3,6.55,6.55,0,0,0-2.53.9c-.6.4-1.06,1-1.63,1.42-1.83,1.45-4.4,1.48-6.7,1.08s-4.56-1.16-6.89-1a9.4,9.4,0,0,0-7,3.74,6.9,6.9,0,0,1-1.35,1.59c-1,.74-2.46.56-3.73.39a60,60,0,0,0-13.46-.28c-3.3.3-7,.78-9.6-1.27a3.5,3.5,0,0,0-3-3,12,12,0,0,0-4.52.37,47.43,47.43,0,0,1-12.3.79c-1.87-.13-4.08-1-4.49-2.82a264.06,264.06,0,0,0-41,16c2.51,1.87,3.8,6.26,3.67,9.38s-1.25,6.11-2.36,9L244,133.71c-2,5.31-4.09,10.71-7.54,15.24-1.82,2.38-4,4.48-5.77,6.9a53.41,53.41,0,0,0-4.29,7.35c-2.5,4.87-5,9.86-5.72,15.28-1,7.59,1.78,15.1,4.48,22.25C227.16,206.15,225,211.62,225.84,217.35Z"/><path class="cls-3" d="M411,276.67a1.58,1.58,0,0,0-.51-1.21,8.72,8.72,0,0,0-4.77-2.81,23.93,23.93,0,0,1-3.88-.73,12.08,12.08,0,0,1-2.83-1.87,30.71,30.71,0,0,0-11.78-5.65,19.19,19.19,0,0,1-3.1-.85c-1.58-.65-2.89-1.83-4.43-2.54a15.54,15.54,0,0,0-6.39-1q-2.66,0-5.31.09a10,10,0,0,0-3.64.66,10.22,10.22,0,0,0-3.5,3.21l-1.15,1.44c-.25.31-.49.76-.24,1.06a.83.83,0,0,0,.67.19c2.14-.08,4.18-.54,6.37-.55a1.69,1.69,0,0,1,.95.18,3,3,0,0,1,.66.76,3.19,3.19,0,0,0,1.69.89c5.11,1.29,10.94-1.5,15.61,1a15.45,15.45,0,0,1,1.82,1.2l8.5,6.18a4.41,4.41,0,0,0,1.52.82,5.58,5.58,0,0,0,.81.09l10.85.49C409.8,277.67,410.92,277.5,411,276.67Z"/><path class="cls-3" d="M391.3,286.81c.56,2.78,3.83,3.33,6.16,3.59,5.61.64,1.42-4.49-1.28-5.59C394.32,284.05,390.67,283.73,391.3,286.81Z"/><path class="cls-3" d="M439.29,282.51a36.49,36.49,0,0,0-4.76-1.22c-3-.76-5.87-2.24-9-2.62a26.86,26.86,0,0,0-3.59-.1c-1.25,0-3.55.42-3.36,2.16.16,1.45,2.26,1.91,2.61,3.36.13.57,0,1.18.1,1.75.25,1.13,1.42,1.76,2.4,2.38a16.42,16.42,0,0,0,2.27,1.36,3,3,0,0,0,2.57,0,15.07,15.07,0,0,0,1.63-1.38c1.22-.92,2.9-.78,4.43-.65q3.15.26,6.32.19a2,2,0,0,0,1.7-.59,1.66,1.66,0,0,0,.09-1.4A5.55,5.55,0,0,0,439.29,282.51Z"/><rect class="cls-4" x="38.24" y="443.22" width="668.45" height="1"/><path class="cls-2" d="M71.29,466.54a5.72,5.72,0,0,1-3.66-1.31,5.92,5.92,0,0,1-7.34,0,5.92,5.92,0,0,1-7.34,0,5.8,5.8,0,0,1-7.34,0,5.78,5.78,0,0,1-7.68-.31l.7-.72a4.78,4.78,0,0,0,6.64,0l.34-.34.35.34a4.79,4.79,0,0,0,3.32,1.34,4.71,4.71,0,0,0,3.32-1.34l.35-.34.35.34a4.78,4.78,0,0,0,6.64,0l.35-.34.35.34a4.78,4.78,0,0,0,6.64,0l.35-.34.34.34a4.79,4.79,0,0,0,3.32,1.34,4.71,4.71,0,0,0,3.32-1.34l.7.72A5.73,5.73,0,0,1,71.29,466.54Z"/><path class="cls-2" d="M287.75,466.54a5.74,5.74,0,0,1-3.67-1.31,5.92,5.92,0,0,1-7.34,0,5.8,5.8,0,0,1-7.34,0,5.78,5.78,0,0,1-7.33,0,5.8,5.8,0,0,1-7.69-.31l.7-.72a4.78,4.78,0,0,0,6.64,0l.35-.34.34.34a4.8,4.8,0,0,0,6.65,0l.34-.34.35.34a4.79,4.79,0,0,0,3.32,1.34,4.71,4.71,0,0,0,3.32-1.34l.35-.34.35.34a4.78,4.78,0,0,0,6.64,0l.35-.34.34.34a4.8,4.8,0,0,0,6.65,0l.69.72A5.73,5.73,0,0,1,287.75,466.54Z"/><path class="cls-2" d="M216,456.65a5.74,5.74,0,0,1-3.66-1.31,5.92,5.92,0,0,1-7.34,0,5.92,5.92,0,0,1-7.34,0,5.91,5.91,0,0,1-7.33,0,5.8,5.8,0,0,1-7.69-.31l.7-.72a4.78,4.78,0,0,0,6.64,0l.35-.34.34.34a4.78,4.78,0,0,0,6.64,0l.35-.34.35.34a4.78,4.78,0,0,0,6.64,0L205,454l.35.34a4.78,4.78,0,0,0,6.64,0l.35-.34.34.34a4.8,4.8,0,0,0,6.65,0l.69.72A5.73,5.73,0,0,1,216,456.65Z"/><path class="cls-2" d="M107.52,466.54a5.74,5.74,0,0,1-3.67-1.31,5.8,5.8,0,0,1-7.34,0,5.78,5.78,0,0,1-7.68-.31l.69-.72a4.78,4.78,0,0,0,6.64,0l.35-.34.35.34a4.78,4.78,0,0,0,6.64,0l.35-.34.34.34a4.8,4.8,0,0,0,3.33,1.34,4.75,4.75,0,0,0,3.32-1.34l.69.72A5.73,5.73,0,0,1,107.52,466.54Z"/><path class="cls-2" d="M88.9,456.65a5.74,5.74,0,0,1-3.67-1.31,5.92,5.92,0,0,1-7.34,0,5.78,5.78,0,0,1-7.68-.31l.69-.72a4.78,4.78,0,0,0,6.64,0l.35-.34.35.34a4.78,4.78,0,0,0,6.64,0l.35-.34.35.34a4.78,4.78,0,0,0,6.64,0l.69.72A5.73,5.73,0,0,1,88.9,456.65Z"/><path class="cls-2" d="M253.88,456.65a5.74,5.74,0,0,1-3.67-1.31,5.92,5.92,0,0,1-7.34,0,5.72,5.72,0,0,1-3.66,1.31,5.78,5.78,0,0,1-4-1.62l.69-.72a4.8,4.8,0,0,0,6.65,0l.34-.34.35.34a4.78,4.78,0,0,0,6.64,0l.35-.34.35.34a4.78,4.78,0,0,0,6.64,0l.7.72A5.77,5.77,0,0,1,253.88,456.65Z"/><path class="cls-2" d="M179.3,466.54a5.76,5.76,0,0,1-3.67-1.31,5.78,5.78,0,0,1-7.33,0,5.8,5.8,0,0,1-7.69-.31l.7-.72a4.78,4.78,0,0,0,6.64,0l.35-.34.34.34a4.79,4.79,0,0,0,3.32,1.34,4.71,4.71,0,0,0,3.32-1.34l.35-.34.35.34a4.79,4.79,0,0,0,3.32,1.34,4.73,4.73,0,0,0,3.32-1.34l.7.72A5.75,5.75,0,0,1,179.3,466.54Z"/><path class="cls-2" d="M319.46,466.54a5.74,5.74,0,0,1-3.67-1.31,5.8,5.8,0,0,1-7.34,0,5.78,5.78,0,0,1-7.68-.31l.69-.72a4.79,4.79,0,0,0,3.32,1.34,4.71,4.71,0,0,0,3.32-1.34l.35-.34.35.34a4.79,4.79,0,0,0,3.32,1.34,4.73,4.73,0,0,0,3.32-1.34l.35-.34.35.34a4.78,4.78,0,0,0,6.64,0l.69.72A5.73,5.73,0,0,1,319.46,466.54Z"/><path class="cls-2" d="M711.76,465.8h-2.69v-1h2.69Zm-11.69,0h-7v-1h7Zm-16,0h-7v-1h7Zm-16,0h-7v-1h7Zm-16,0h-7v-1h7Zm-16,0h-7v-1h7Zm-16,0h-7v-1h7Zm-16,0h-7v-1h7Zm-16,0h-7v-1h7Zm-16,0h-7v-1h7Zm-16,0h-7v-1h7Zm-16,0h-7v-1h7Zm-16,0h-7v-1h7Zm-16,0h-7v-1h7Zm-16,0h-7v-1h7Zm-16,0h-7v-1h7Zm-16,0h-7v-1h7Zm-16,0h-7v-1h7Zm-16,0h-7v-1h7Zm-16,0h-7v-1h7Zm-16,0h-7v-1h7Z"/><path class="cls-1" d="M252.48,205.75l-1-.09.06-.57,1,.09Zm.36-3.54-1-.12c.12-1,.24-2,.37-3l1,.13Q253,200.71,252.84,202.21Zm.79-5.93-1-.15c.16-1,.33-2,.5-3l1,.18C254,194.31,253.79,195.3,253.63,196.28Zm1.06-5.88-1-.2c.2-1,.42-2,.64-2.94l1,.22C255.1,188.45,254.89,189.42,254.69,190.4Zm1.34-5.82-1-.25c.25-1,.51-1.94.79-2.91l1,.28C256.54,182.65,256.28,183.61,256,184.58Zm1.65-5.74-.95-.3c.3-1,.62-1.91.95-2.85l.94.33C258.29,177,258,177.89,257.68,178.84Zm2-5.62-.93-.36c.36-.94.73-1.87,1.12-2.79l.92.38C260.37,171.37,260,172.29,259.64,173.22Zm2.3-5.5-.91-.41c.42-.92.85-1.83,1.3-2.72l.89.44C262.78,165.92,262.36,166.82,261.94,167.72Zm2.65-5.34-.88-.47q.71-1.33,1.47-2.64l.86.5C265.54,160.63,265.06,161.5,264.59,162.38Zm3-5.16-.85-.53c.54-.85,1.09-1.7,1.65-2.53l.83.56C268.65,155.54,268.11,156.38,267.58,157.22Zm3.34-4.95-.81-.59c.59-.81,1.2-1.61,1.82-2.41l.79.62C272.1,150.67,271.5,151.47,270.92,152.27Zm3.67-4.7-.76-.64c.64-.77,1.3-1.53,2-2.28l.75.67C275.88,146.06,275.23,146.81,274.59,147.57Zm4-4.44-.72-.69c.7-.72,1.4-1.44,2.13-2.14l.69.71C280,141.71,279.26,142.42,278.57,143.13Zm4.28-4.16-.68-.74c.74-.68,1.49-1.34,2.26-2l.65.76C284.32,137.64,283.58,138.3,282.85,139Zm4.53-3.88-.63-.78c.78-.62,1.57-1.24,2.38-1.85l.6.8C288.93,133.86,288.15,134.47,287.38,135.09Zm4.76-3.58-.56-.82c.82-.57,1.67-1.12,2.53-1.65l.53.85C293.79,130.42,293,131,292.14,131.51Zm128.92-3c-.87-.48-1.75-.94-2.64-1.39l.46-.89c.89.45,1.78.92,2.66,1.4Zm-123.86-.17-.5-.87c.87-.49,1.75-1,2.65-1.44l.47.88C298.93,127.4,298.06,127.87,297.2,128.36Zm118.54-2.53c-.89-.43-1.8-.84-2.71-1.24l.4-.91c.92.4,1.84.82,2.74,1.24Zm-113.26-.23-.43-.91c.9-.43,1.81-.85,2.74-1.26l.4.92C304.28,124.75,303.37,125.17,302.48,125.6Zm107.8-2.16c-.92-.37-1.85-.73-2.78-1.08l.35-.94c.94.35,1.88.72,2.8,1.09Zm-102.34-.26-.37-.92c.92-.38,1.86-.74,2.81-1.09l.35.93Q309.32,122.63,307.94,123.18Zm96.75-1.83-2.84-.94.31-1c.95.3,1.91.62,2.85,1Zm-91.15-.25-.32-.95c.94-.32,1.9-.63,2.86-.93l.3,1C315.42,120.47,314.48,120.78,313.54,121.1ZM399,119.55c-1-.28-1.92-.54-2.88-.8l.25-1c1,.26,1.94.53,2.9.81Zm-79.76-.23-.27-1,2.9-.79.25,1C321.15,118.78,320.19,119,319.24,119.32Zm74-1.3c-1-.24-1.93-.46-2.91-.67l.21-1,2.94.67Zm-68.2-.21-.22-1c1-.23,1.95-.45,2.93-.66l.21,1Zm62.36-1.06q-1.45-.28-2.94-.54l.17-1c1,.17,2,.35,3,.54Zm-56.51-.17-.18-1c1-.18,2-.36,3-.52l.17,1C332.83,116.22,331.85,116.39,330.87,116.58Zm50.63-.85-3-.42.12-1c1,.13,2,.27,3,.42Zm-44.73-.14-.14-1,3-.4.12,1Zm38.8-.64c-1-.11-2-.21-3-.3l.09-1q1.5.14,3,.3Zm-32.85-.1-.11-1c1-.11,2-.2,3-.28l.09,1Zm26.89-.44c-1-.07-2-.13-3-.18l.05-1c1,0,2,.11,3,.19Zm-20.93-.06-.06-1c1-.06,2-.12,3-.16l0,1C350.67,114.23,349.68,114.29,348.68,114.35Zm15-.24c-1,0-2-.06-3-.07v-1c1,0,2,0,3,.07Zm-9,0,0-1c1,0,2,0,3,0v1C356.66,114,355.66,114.05,354.66,114.08Z"/><path class="cls-1" d="M300.66,288.26c-.42-.91-.83-1.83-1.23-2.74l.91-.4,1.23,2.73Zm-2.44-5.49c-.4-.92-.79-1.85-1.17-2.77l.92-.38c.38.91.77,1.83,1.17,2.75Zm-2.32-5.54c-.38-.93-.76-1.86-1.12-2.79l.93-.37c.36.93.74,1.85,1.11,2.78ZM397.13,272c-.21-1-.43-2-.65-2.91l1-.23.66,2.93Zm-103.45-.41c-.36-.94-.71-1.88-1.06-2.82l.94-.35c.35.94.7,1.88,1.06,2.81Zm102.11-5.42q-.35-1.45-.72-2.91l1-.24c.25,1,.49,1.94.72,2.92ZM291.59,266c-.34-1-.67-1.9-1-2.84l1-.33c.32.94.65,1.89,1,2.83Zm102.74-5.58c-.26-1-.52-1.93-.79-2.89l1-.26.78,2.9Zm-104.7-.12c-.32-.95-.63-1.91-.94-2.86l1-.31c.3.95.61,1.91.93,2.86Zm103.1-5.65c-.28-1-.56-1.92-.85-2.87l1-.29c.29,1,.57,1.92.85,2.89Zm-104.93-.09c-.3-1-.58-1.92-.86-2.89l1-.28c.28,1,.56,1.92.85,2.88ZM391,248.9c-.3-1-.6-1.91-.91-2.85l1-.31c.31.95.61,1.9.92,2.86Zm-104.89-.14c-.27-1-.53-1.94-.79-2.91l1-.26.78,2.9Zm103-5.55c-.32-1-.65-1.89-1-2.83l1-.33,1,2.84Zm-104.56-.28c-.25-1-.48-2-.71-2.93l1-.22c.23,1,.46,1.94.71,2.91Zm102.56-5.36c-.35-.94-.7-1.88-1.06-2.8l.94-.36c.35.93.71,1.87,1.05,2.81Zm-103.94-.5c-.22-1-.43-2-.63-2.95l1-.2c.2,1,.41,2,.62,2.93ZM385,232c-.37-.93-.74-1.86-1.12-2.78l.92-.38c.39.93.76,1.85,1.13,2.79Zm-103-.81q-.28-1.48-.54-3l1-.17c.18,1,.35,2,.54,2.95Zm100.73-4.72-1.2-2.75.91-.4c.41.91.81,1.83,1.21,2.75Zm-101.77-1.22c-.16-1-.31-2-.46-3l1-.15c.14,1,.3,2,.46,3ZM380.28,221c-.42-.91-.85-1.82-1.28-2.71l.91-.43c.43.9.85,1.8,1.27,2.72Zm-100.21-1.71c-.13-1-.25-2-.36-3l1-.12c.11,1,.23,2,.36,3Zm97.62-3.69c-.44-.9-.89-1.79-1.34-2.68l.89-.45c.45.89.91,1.78,1.35,2.68Zm-98.3-2.29q-.15-1.5-.27-3l1-.08.27,3Zm95.57-3c-.47-.88-.94-1.76-1.42-2.63l.88-.48c.48.87.95,1.75,1.43,2.64Zm-96.06-3q-.11-1.5-.18-3l1,0c0,1,.11,2,.18,3ZM372.08,205l-1.5-2.59.86-.51c.51.86,1,1.73,1.51,2.6Zm-93.48-3.73c0-1-.06-2-.07-3l1,0c0,1,0,2,.07,3ZM369,199.85c-.52-.85-1.05-1.7-1.58-2.54l.85-.53c.53.84,1.06,1.69,1.58,2.55Zm-89.54-4.59h-1l0-3,1,0Zm86.35-.47-1.66-2.49.83-.56c.56.83,1.11,1.66,1.66,2.51Zm-3.36-4.95c-.57-.82-1.15-1.64-1.73-2.44l.81-.59c.59.81,1.17,1.63,1.74,2.45Zm-82.88-.56-1,0c0-1,.08-2,.14-3l1,0C279.69,187.29,279.65,188.28,279.61,189.28ZM359,185c-.59-.8-1.2-1.59-1.81-2.38L358,182l1.83,2.39Zm-79.05-1.68-1-.07q.1-1.5.24-3l1,.09C280.08,181.32,280,182.31,279.93,183.31Zm75.39-3.05-1.89-2.32.77-.63c.64.77,1.27,1.54,1.9,2.33Zm-74.87-2.91-1-.11c.1-1,.22-2,.34-3l1,.12C280.67,175.37,280.56,176.36,280.45,177.35Zm71.05-1.69c-.65-.76-1.31-1.51-2-2.25l.74-.66c.67.74,1.33,1.5,2,2.26Zm-70.31-4.25-1-.14q.21-1.49.45-3l1,.16C281.47,169.44,281.32,170.43,281.19,171.41Zm66.33-.21c-.68-.74-1.36-1.47-2-2.18l.72-.7c.69.73,1.38,1.46,2.06,2.2Zm-4.14-4.33c-.7-.71-1.41-1.41-2.12-2.1l.7-.72c.71.7,1.43,1.41,2.13,2.12Zm-61.25-1.36-1-.18c.17-1,.35-2,.55-3l1,.19C282.49,163.55,282.3,164.53,282.13,165.51Zm57-2.81c-.73-.68-1.46-1.36-2.2-2l.67-.74c.74.68,1.48,1.35,2.21,2Zm-55.82-3.06-1-.21c.21-1,.43-2,.66-2.93l1,.23Q283.59,158.19,283.28,159.64Zm51.38-.95c-.75-.66-1.51-1.31-2.27-1.95L333,156c.77.64,1.53,1.3,2.29,2Zm-4.57-3.84L327.76,153l.61-.79c.79.61,1.57,1.23,2.35,1.86Zm-45.45-1-1-.24c.25-1,.5-1.94.76-2.91l1,.26C285.14,151.89,284.88,152.86,284.64,153.82Zm40.75-2.63c-.8-.6-1.6-1.18-2.41-1.76l.58-.81c.82.58,1.62,1.17,2.42,1.77Zm-39.19-3.14-1-.28c.28-1,.57-1.92.86-2.88l1,.3C286.77,146.14,286.48,147.1,286.2,148.05Zm34.34-.34c-.82-.56-1.64-1.12-2.47-1.67l.55-.83,2.49,1.68Zm-5-3.29c-.84-.54-1.68-1.06-2.53-1.58l.52-.85,2.55,1.58ZM288,142.34l-1-.31q.47-1.42,1-2.85l.94.33C288.59,140.45,288.28,141.4,288,142.34Zm22.49-1c-.86-.5-1.73-1-2.6-1.48l.49-.87c.87.48,1.75,1,2.61,1.48Zm-5.22-2.9c-.88-.47-1.77-.93-2.66-1.38l.45-.89c.9.45,1.79.91,2.68,1.38Zm-15.32-1.73-.94-.34c.35-.94.7-1.88,1.06-2.81l.93.36Q290.43,135.3,289.92,136.69Zm10-1c-.9-.43-1.8-.86-2.71-1.27l.42-.91c.91.42,1.82.84,2.72,1.28Zm-5.44-2.49c-.91-.4-1.83-.78-2.76-1.16l.38-.93c.93.38,1.86.77,2.78,1.17Z"/><path class="cls-1" d="M410.47,409.71l-.12-3,1,0,.12,3Zm-.25-6c-.05-1-.1-2-.16-3l1-.05c.05,1,.11,2,.15,3Zm-.34-6c-.06-1-.12-2-.19-3l1-.06c.06,1,.13,2,.19,3Zm-.41-6c-.07-1-.15-2-.23-3l1-.08.24,3Zm-.49-6c-.09-1-.18-2-.28-3l1-.1.27,3Zm-.57-6c-.11-1-.21-2-.32-3l1-.11c.11,1,.22,2,.32,3Zm-.66-6c-.11-1-.23-2-.35-3l1-.12.36,3ZM407,368c-.13-1-.26-2-.4-3l1-.14c.14,1,.27,2,.4,3ZM406.2,362c-.14-1-.28-2-.43-3l1-.15c.15,1,.29,2,.43,3Zm-.89-5.92c-.15-1-.31-2-.47-3l1-.16c.16,1,.33,2,.48,3Zm-1-5.92c-.17-1-.34-2-.52-2.95l1-.18c.17,1,.35,2,.51,3Zm-1-5.9c-.19-1-.37-2-.56-2.94l1-.19c.19,1,.38,2,.56,2.95Zm-1.14-5.88c-.19-1-.39-2-.59-2.94l1-.2c.2,1,.4,2,.59,2.94Zm-1.21-5.87c-.21-1-.42-2-.64-2.93l1-.22c.22,1,.43,2,.64,2.94Zm-1.29-5.85c-.22-1-.45-1.95-.68-2.92l1-.23c.23,1,.46,2,.68,2.92Zm-1.38-5.84c-.23-1-.47-1.94-.71-2.91l1-.24.72,2.92ZM396.82,315l-.75-2.9,1-.26c.26,1,.51,1.94.76,2.91Zm-1.53-5.8c-.26-1-.53-1.92-.8-2.89l1-.26c.27,1,.53,1.92.8,2.89Zm-1.61-5.77-.84-2.88,1-.28c.29,1,.56,1.92.84,2.89ZM392,297.7c-.29-.95-.58-1.91-.88-2.86l1-.3.87,2.87ZM390.22,292c-.31-1-.61-1.91-.92-2.86l.95-.31c.31,1,.62,1.91.92,2.86Zm-1.86-5.7c-.31-.95-.63-1.9-.95-2.84l.94-.33q.5,1.42,1,2.85Zm-1.93-5.68-1-2.82.94-.34,1,2.83Zm-2-5.64c-.34-.94-.69-1.88-1-2.81l.94-.35c.35.93.7,1.87,1,2.82Zm-2.09-5.62-1.08-2.79.93-.37c.37.94.73,1.87,1.08,2.81Zm-2.18-5.58c-.36-.93-.74-1.86-1.11-2.78l.92-.38c.38.93.75,1.86,1.12,2.79Zm-2.25-5.56-1.15-2.76.92-.39c.39.92.77,1.85,1.16,2.77Zm-2.33-5.52-1.2-2.74.92-.41,1.2,2.76Zm-2.42-5.48-1.23-2.73.9-.42c.42.91.84,1.83,1.25,2.74Zm-2.49-5.45c-.43-.9-.85-1.81-1.28-2.71l.9-.43c.43.9.86,1.81,1.28,2.72Zm-2.58-5.41c-.43-.9-.87-1.79-1.32-2.69l.9-.44L369,235.9ZM365.42,231c-.45-.89-.9-1.78-1.36-2.67l.89-.46,1.37,2.68Zm-2.74-5.33-1.4-2.65.88-.47,1.41,2.66Zm-2.82-5.28-1.44-2.63.87-.49c.49.88,1,1.76,1.45,2.64Zm-2.9-5.25c-.49-.87-1-1.73-1.49-2.6l.87-.5,1.49,2.61Zm-3-5.19c-.51-.86-1-1.72-1.53-2.58l.86-.51c.52.86,1,1.72,1.53,2.59Zm-3.07-5.15c-.52-.85-1-1.7-1.57-2.55l.85-.53c.53.85,1.05,1.71,1.57,2.56Zm-3.15-5.09-1.61-2.53.84-.54c.54.84,1.08,1.69,1.61,2.54Zm-3.24-5-1.65-2.5.83-.56c.56.83,1.11,1.67,1.66,2.51Zm-3.32-5c-.56-.83-1.13-1.65-1.69-2.47l.82-.57c.57.82,1.13,1.65,1.7,2.48Zm-3.41-4.93c-.57-.82-1.15-1.63-1.73-2.44l.81-.59c.59.82,1.17,1.63,1.74,2.45Zm-3.49-4.87-1.77-2.41.8-.6c.6.8,1.19,1.61,1.78,2.42ZM330.72,175c-.6-.8-1.21-1.59-1.82-2.38l.79-.61,1.83,2.39Zm-3.66-4.74L325.2,168l.78-.62c.63.78,1.25,1.56,1.87,2.35Zm-3.74-4.68-1.91-2.31.77-.64c.64.77,1.28,1.54,1.91,2.32Zm-3.84-4.6c-.64-.77-1.29-1.53-1.94-2.28l.75-.65c.66.75,1.31,1.51,2,2.28Zm-3.91-4.54c-.66-.75-1.33-1.49-2-2.23l.74-.67c.67.74,1.33,1.49,2,2.24Zm-4-4.45c-.67-.74-1.35-1.47-2-2.2l.73-.68,2,2.2Zm-4.09-4.38c-.69-.72-1.38-1.44-2.08-2.15l.72-.7,2.08,2.16Zm-124.2-1.91-.54-.84s.93-.6,2.62-1.55l.49.87C184.18,145.15,183.28,145.73,183.27,145.74Zm120-2.38c-.7-.71-1.41-1.41-2.12-2.11l.7-.71c.72.7,1.43,1.41,2.13,2.12Zm-114.82-.56-.46-.88c.81-.43,1.71-.88,2.69-1.36l.44.9C190.16,141.93,189.27,142.38,188.47,142.8Zm5.37-2.63-.41-.9c.86-.4,1.78-.81,2.75-1.23l.39.91Zm105.19-1c-.72-.7-1.44-1.39-2.17-2.07l.69-.73,2.17,2.08Zm-99.7-1.36-.38-.93c.9-.37,1.84-.74,2.8-1.11l.36.93C201.15,137.06,200.23,137.43,199.33,137.8Zm5.59-2.15-.34-.94c.92-.33,1.87-.67,2.84-1l.32.95Q206.29,135.16,204.92,135.65Zm89.75-.6-2.21-2,.68-.74,2.21,2Zm-84.09-1.32-.3-.95c.94-.3,1.9-.59,2.88-.88l.28,1C212.47,133.14,211.52,133.44,210.58,133.73Zm5.74-1.69-.26-1c.95-.26,1.92-.52,2.91-.77l.25,1C218.23,131.53,217.27,131.78,216.32,132Zm73.87-.45c-1-.26-1.93-.5-2.9-.74l.24-1c1,.24,1.94.48,2.92.75Zm-68.07-1-.22-1,2.94-.65.21,1C224.06,130.15,223.08,130.36,222.12,130.58Zm62.26-.41c-1-.22-1.95-.42-2.92-.62l.19-1c1,.2,2,.4,3,.62Zm-56.4-.81-.19-1c1-.19,2-.36,3-.53l.16,1Zm50.54-.36c-1-.18-2-.34-2.95-.49l.16-1c1,.15,2,.32,3,.49Zm-44.64-.62-.15-1c1-.15,2-.28,3-.41l.12,1C235.84,128.1,234.85,128.23,233.88,128.38Zm38.73-.3-3-.36.11-1,3,.36Zm-32.8-.44-.1-1,3-.28.08,1C241.79,127.44,240.79,127.53,239.81,127.64Zm26.86-.22c-1-.09-2-.16-3-.23l.07-1q1.5.11,3,.24Zm-20.9-.28-.06-1c1-.07,2-.12,3-.16l0,1C247.75,127,246.76,127.08,245.77,127.14Zm14.94-.12c-1,0-2-.08-3-.1l0-1c1,0,2,.06,3,.1Zm-9-.12,0-1,2.68,0h.33v1h-.33Z"/><path class="cls-1" d="M291.9,131.53l-1-.25s.28-1.09.89-2.92l.95.32C292.17,130.47,291.9,131.52,291.9,131.53Zm1.87-5.67-.94-.35c.32-.86.69-1.81,1.1-2.82l.93.38C294.45,124.07,294.08,125,293.77,125.86Zm2.27-5.54-.92-.4c.39-.88.82-1.8,1.27-2.74l.9.43C296.84,118.55,296.42,119.45,296,120.32Zm2.59-5.38-.89-.46c.45-.87.93-1.76,1.43-2.66l.87.49C299.55,113.2,299.08,114.08,298.63,114.94Zm2.91-5.22-.86-.52c.5-.84,1-1.7,1.59-2.56l.84.53C302.56,108,302,108.88,301.54,109.72Zm3.21-5-.82-.56c.56-.82,1.14-1.64,1.74-2.47l.81.6C305.88,103.06,305.31,103.87,304.75,104.68Zm3.53-4.82-.79-.61c.62-.78,1.25-1.57,1.9-2.35l.77.65C309.51,98.32,308.89,99.09,308.28,99.86Zm3.84-4.56-.75-.67c.67-.74,1.36-1.48,2.06-2.21l.72.7C313.45,93.84,312.78,94.57,312.12,95.3ZM316.27,91l-.69-.73q1.08-1,2.22-2l.66.74C317.71,89.66,317,90.33,316.27,91Zm4.46-4-.64-.77c.77-.64,1.56-1.26,2.37-1.87l.61.8C322.27,85.82,321.49,86.43,320.73,87.06Zm4.75-3.59-.57-.82c.82-.57,1.66-1.13,2.51-1.67l.54.84C327.11,82.36,326.29,82.91,325.48,83.47Zm5-3.19-.5-.87c.87-.5,1.75-1,2.65-1.46l.46.89Q331.79,79.53,330.5,80.28Zm5.28-2.76-.43-.91c.91-.42,1.83-.83,2.76-1.22l.39.92C337.58,76.69,336.67,77.1,335.78,77.52Zm5.49-2.31-.35-.93c.93-.35,1.88-.68,2.85-1l.31,1C343.13,74.54,342.19,74.87,341.27,75.21Z"/><path class="cls-1" d="M96.32,426l-1,0,.09-2.66,1,0Zm.2-5.65-1,0c0-1,.09-2,.14-3l1,0C96.61,418.32,96.56,419.32,96.52,420.32Zm.29-6-1-.05.18-3,1,.06Zm.38-6-1-.07c.07-1,.15-2,.22-3l1,.08C97.33,406.36,97.26,407.36,97.19,408.35Zm.46-6-1-.08c.08-1,.17-2,.26-3l1,.09C97.82,400.39,97.74,401.39,97.65,402.38Zm.55-6-1-.1.3-3,1,.1C98.4,394.43,98.3,395.43,98.2,396.42Zm.63-5.95-1-.12c.11-1,.23-2,.35-3l1,.12C99.06,388.48,98.94,389.48,98.83,390.47Zm.72-6-1-.12.39-3,1,.14Zm.8-5.93-1-.14c.14-1,.29-2,.44-3l1,.15C100.64,376.62,100.49,377.61,100.35,378.59Zm.89-5.91-1-.16.48-2.95,1,.16C101.55,370.71,101.39,371.69,101.24,372.68Zm1-5.9-1-.17c.17-1,.34-2,.52-2.95l1,.18C102.56,364.82,102.38,365.8,102.21,366.78Zm1.06-5.89-1-.18c.18-1,.37-2,.56-2.94l1,.19C103.64,358.94,103.45,359.92,103.27,360.89Zm1.15-5.86-1-.2c.19-1,.4-2,.6-2.93l1,.2C104.81,353.08,104.61,354.05,104.42,355Zm1.22-5.85-1-.21c.21-1,.43-2,.65-2.93l1,.22C106.07,347.23,105.86,348.21,105.64,349.18Zm1.32-5.83-1-.22.69-2.92,1,.24Zm1.4-5.8-1-.24c.25-1,.49-1.94.74-2.91l1,.25C108.85,335.62,108.6,336.58,108.36,337.55Zm1.49-5.78-1-.26c.26-1,.51-1.93.78-2.89l1,.26Zm1.58-5.76-1-.27c.27-1,.55-1.92.83-2.88l1,.28C112,324.09,111.7,325.05,111.43,326Zm1.67-5.73-1-.29.87-2.86,1,.29Zm1.76-5.7-1-.31c.3-.95.61-1.91.92-2.86l1,.31C115.46,312.67,115.16,313.62,114.86,314.58Zm1.85-5.7-.95-.32c.32-.95.64-1.9,1-2.85l.94.33Zm1.94-5.67-.94-.33c.34-.95.67-1.89,1-2.83l.94.34Zm2-5.64-.93-.34c.34-.94.7-1.88,1-2.82l.94.36C121.39,295.7,121,296.64,120.69,297.57Zm2.13-5.6-.93-.36c.36-.94.73-1.87,1.1-2.8l.93.38C123.55,290.11,123.19,291,122.82,292Zm2.23-5.56-.93-.38c.38-.93.76-1.85,1.15-2.78l.92.39Zm2.31-5.53-.91-.39c.39-.92.79-1.84,1.19-2.76l.92.41Zm2.42-5.48-.91-.41c.41-.92.82-1.83,1.24-2.73l.91.41C130.6,273.58,130.19,274.49,129.78,275.4Zm2.51-5.44-.91-.43c.43-.9.86-1.81,1.3-2.71l.9.44C133.15,268.15,132.71,269.06,132.29,270Zm2.6-5.39-.89-.45c.44-.9.89-1.79,1.34-2.69l.89.46Zm2.71-5.35-.89-.46,1.39-2.66.89.47C138.52,257.45,138.06,258.33,137.6,259.22Zm2.8-5.29-.88-.48c.48-.88,1-1.76,1.45-2.64l.87.49Zm2.91-5.24-.88-.5,1.5-2.6.86.5C144.29,247,143.8,247.82,143.31,248.69Zm3-5.19-.86-.51c.51-.86,1-1.72,1.54-2.57l.86.51Zm3.1-5.12-.85-.53c.53-.85,1.06-1.7,1.6-2.54l.84.53Zm3.21-5.06-.84-.54,1.65-2.52.83.56Zm3.31-5-.83-.56c.56-.83,1.13-1.66,1.7-2.48l.82.57C157.06,226.68,156.49,227.5,155.93,228.33Zm3.41-4.92-.81-.58c.58-.82,1.16-1.63,1.75-2.44l.81.58C160.5,221.78,159.92,222.59,159.34,223.41Zm3.52-4.85-.8-.59c.59-.81,1.2-1.61,1.8-2.41l.8.61Zm3.62-4.77-.79-.61,1.86-2.36.78.62Zm3.73-4.68-.77-.64c.63-.77,1.26-1.55,1.91-2.32l.76.64C171.48,207.56,170.84,208.33,170.21,209.11ZM174,204.5l-.76-.64c.65-.77,1.31-1.53,2-2.28l.76.66C175.34,203,174.69,203.74,174,204.5ZM178,200l-.75-.66c.67-.75,1.35-1.49,2-2.23l.74.67Zm4-4.41-.72-.69c.68-.73,1.37-1.45,2.07-2.18l.72.7Zm4.15-4.32-.71-.7,2.12-2.13.71.71Zm4.26-4.21-.7-.72c.72-.7,1.45-1.39,2.18-2.07l.68.72C191.87,185.67,191.15,186.35,190.43,187.05Zm4.35-4.1-.68-.73q1.1-1,2.22-2l.66.74C196.24,181.61,195.51,182.28,194.78,183Zm4.44-4-.66-.76c.76-.65,1.51-1.31,2.27-1.95l.65.76C200.72,177.67,200,178.32,199.22,179Zm4.55-3.86-.64-.78,2.32-1.89.63.78Q204.91,174.16,203.77,175.12Zm4.65-3.75-.62-.78,2.37-1.84.61.8Zm4.75-3.61-.6-.81,2.43-1.77.58.82C214.77,166.58,214,167.16,213.17,167.76Zm4.85-3.49-.57-.82c.82-.57,1.64-1.14,2.47-1.7l.56.82Zm4.95-3.36-.55-.83,2.52-1.64.54.85C224.64,159.82,223.8,160.37,223,160.91Zm5-3.21-.53-.85,2.57-1.57.52.86C229.71,156.65,228.86,157.17,228,157.7Zm5.14-3.08-.5-.86,2.61-1.49.49.87C234.88,153.63,234,154.12,233.15,154.62Zm5.23-2.92-.48-.88c.88-.48,1.77-.95,2.66-1.42l.46.89C240.14,150.75,239.25,151.22,238.38,151.7Zm5.31-2.78-.45-.89c.9-.46,1.8-.9,2.7-1.34l.44.9Zm5.4-2.62-.42-.91,2.74-1.26.41.92C250.9,145.46,250,145.87,249.09,146.3Zm5.48-2.47-.4-.91,2.77-1.18.38.93Zm5.52-2.29-.37-.93,2.81-1.09.35.93Zm5.59-2.13-.34-.94,2.84-1,.32.95Zm5.66-2-.32-.95c1-.32,1.91-.62,2.86-.93l.3,1C273.23,136.83,272.28,137.13,271.34,137.45Zm5.7-1.8-.28-1,2.89-.84.27,1ZM282.8,134l-.26-1,2.91-.76.25,1C284.73,133.51,283.76,133.76,282.8,134Zm5.8-1.46-.23-1c1-.23,1.95-.46,2.93-.67l.22,1Z"/><path class="cls-1" d="M208.92,440.21l-1,0c.05-1,.11-2,.17-3l1,.06C209,438.21,209,439.2,208.92,440.21Zm.36-6-1-.07.24-3,1,.09C209.43,432.24,209.35,433.23,209.28,434.23Zm.52-6-1-.1c.1-1,.21-2,.32-3l1,.12C210,426.28,209.9,427.27,209.8,428.27Zm.67-5.95-1-.12c.13-1,.26-2,.4-3l1,.14C210.73,420.34,210.6,421.33,210.47,422.32Zm.84-5.92-1-.16c.16-1,.32-2,.49-3l1,.17C211.63,414.42,211.47,415.41,211.31,416.4Zm200.33-4.76-1-.1.15-1.34-.88.29c-.32-.95-.63-1.9-1-2.84l.94-.32c.31.9.61,1.8.91,2.71.06-.5.13-1,.19-1.5l1,.14C411.86,409.66,411.74,410.64,411.64,411.64ZM212.32,410.5l-1-.18c.18-1,.37-2,.57-2.95l1,.19Q212.59,409,212.32,410.5Zm200.12-4.77-1-.17c.16-1,.35-2,.54-3l1,.2C412.79,403.76,412.61,404.74,412.44,405.73Zm-4.47-.91c-.33-.94-.67-1.88-1-2.82l.94-.34,1,2.83Zm-194.47-.18-1-.22c.21-1,.43-2,.66-2.93l1,.23C213.94,402.68,213.72,403.66,213.5,404.64Zm200.13-4.75-1-.24c.24-1,.49-2,.76-2.92l1,.27C414.12,398,413.86,398.91,413.63,399.89Zm-7.71-.69-1.08-2.8.93-.36c.37.93.73,1.86,1.08,2.8Zm-191.06-.39-1-.24q.38-1.47.75-2.91l1,.25C215.35,396.87,215.1,397.84,214.86,398.81Zm200.39-4.66-.95-.31c.32-1,.65-1.91,1-2.85l.93.36C415.9,392.27,415.56,393.2,415.25,394.15Zm-11.52-.53c-.37-.93-.75-1.85-1.14-2.77l.92-.38c.39.92.77,1.84,1.15,2.78ZM216.4,393l-1-.27c.27-1,.55-1.94.84-2.89l1,.29C217,391.11,216.67,392.06,216.4,393Zm201-4.44-.92-.4c.41-.92.84-1.85,1.28-2.74l.89.45C418.18,386.77,417.76,387.68,417.36,388.59Zm-15.95-.49c-.39-.92-.8-1.83-1.2-2.74l.91-.41c.41.91.81,1.83,1.21,2.75Zm-183.29-.8-1-.3c.3-1,.62-1.92.93-2.86l1,.32C218.73,385.4,218.43,386.35,218.12,387.3Zm201.88-4-.87-.49c.5-.88,1-1.75,1.56-2.6l.84.54C421,381.55,420.49,382.41,420,383.27Zm-21-.63c-.42-.91-.85-1.81-1.28-2.71l.9-.43c.44.9.86,1.81,1.29,2.72Zm-178.93-1-.94-.33c.33-.95.68-1.9,1-2.83l.94.35C220.7,379.75,220.36,380.69,220,381.63Zm203.18-3.36-.81-.59c.59-.82,1.22-1.63,1.85-2.4l.77.64C424.4,376.67,423.79,377.46,423.21,378.27Zm-26.84-1q-.67-1.35-1.35-2.67l.89-.46c.45.89.91,1.78,1.36,2.68ZM222.12,376l-.93-.37c.37-.94.75-1.87,1.13-2.79l.92.38C222.86,374.17,222.49,375.1,222.12,376ZM427,373.68l-.74-.68c.68-.73,1.4-1.46,2.12-2.16l.7.72C428.33,372.25,427.63,373,427,373.68Zm-33.34-1.76c-.47-.88-.94-1.76-1.42-2.63l.88-.48c.48.87,1,1.76,1.43,2.64ZM224.4,370.5l-.92-.4c.4-.92.81-1.84,1.22-2.75l.91.41C225.2,368.67,224.8,369.58,224.4,370.5Zm206.85-.92-.65-.77c.77-.64,1.56-1.28,2.37-1.88l.6.79C432.78,368.32,432,368.94,431.25,369.58Zm-40.5-2.9c-.5-.87-1-1.74-1.5-2.59l.86-.51c.51.86,1,1.73,1.51,2.6ZM436,366l-.55-.83c.83-.56,1.69-1.1,2.56-1.61l.51.86C437.65,364.93,436.81,365.46,436,366Zm-209.12-1-.9-.43c.43-.91.87-1.81,1.31-2.71l.9.45C227.73,363.25,227.3,364.14,226.87,365.05ZM441.11,363l-.47-.89c.88-.46,1.79-.9,2.72-1.33l.42.91C442.87,362.1,442,362.54,441.11,363Zm-53.39-1.47c-.52-.85-1.05-1.7-1.58-2.55l.85-.53c.53.85,1.06,1.7,1.58,2.56Zm58.79-1-.38-.93c.92-.37,1.86-.72,2.83-1.06l.33.94C448.34,359.78,447.41,360.13,446.51,360.5Zm-217-.81-.88-.46c.46-.89.93-1.78,1.4-2.66l.88.48C230.45,357.92,230,358.8,229.52,359.69Zm222.6-1.18-.3-.95c.57-.18,1.14-.35,1.72-.51l0-.5,1,.05-.07,1.22-.34.09Zm-67.59-2.06c-.54-.83-1.09-1.67-1.65-2.49l.83-.56c.56.83,1.11,1.67,1.66,2.51Zm-152.16-2-.88-.49,1.5-2.61.86.5C233.35,352.69,232.86,353.55,232.37,354.43Zm222.32-.84-1,0c0-1,.05-2,.05-3h1C454.74,351.58,454.72,352.58,454.69,353.59Zm-73.5-2.1c-.57-.82-1.14-1.64-1.72-2.44l.81-.59c.58.81,1.16,1.63,1.73,2.46Zm-145.8-2.22-.85-.52c.53-.87,1.05-1.72,1.59-2.56l.84.54C236.44,347.56,235.91,348.41,235.39,349.27Zm218.33-1.68c0-1,0-2-.09-3l1,0c.05,1,.08,2,.09,3Zm-76-1-1.8-2.38.79-.61c.61.79,1.21,1.59,1.81,2.4Zm-139.1-2.41-.84-.55c.56-.85,1.12-1.68,1.68-2.5l.83.57C239.71,342.55,239.15,343.38,238.6,344.22Zm135.45-2.33c-.62-.78-1.25-1.55-1.88-2.32l.77-.64q1,1.15,1.89,2.34Zm79.41-.27c-.07-1-.15-2-.25-3l1-.1c.09,1,.18,2,.25,3ZM242,339.29l-.81-.58c.59-.83,1.18-1.64,1.77-2.44l.8.6C243.15,337.66,242.57,338.47,242,339.29Zm410.87-.83-.36-.4.74-.68.37.41Zm-282.61-1.18c-.64-.76-1.3-1.52-2-2.26l.75-.66c.67.75,1.32,1.5,2,2.27Zm280.22-1.43c-.68-.73-1.36-1.45-2.05-2.17l.72-.7,2.07,2.19Zm-197.59-.17c-.13-1-.28-2-.44-2.95l1-.16c.16,1,.31,2,.44,3Zm-207.33-1.2-.79-.61q.93-1.2,1.86-2.37l.78.63C246.77,332.9,246.16,333.68,245.54,334.48Zm120.75-1.69-2-2.19.73-.68c.68.72,1.37,1.46,2,2.2Zm280-1.26-2.13-2.11.7-.71c.72.7,1.43,1.41,2.14,2.12ZM249.27,329.8l-.77-.63,1.94-2.31.76.66C250.56,328.27,249.91,329,249.27,329.8Zm202.63,0c-.2-1-.41-1.95-.64-2.92l1-.23c.23,1,.44,2,.64,3Zm-89.72-1.34c-.69-.71-1.4-1.42-2.1-2.11l.7-.72c.71.7,1.42,1.41,2.12,2.13ZM642,327.34l-2.19-2,.68-.74,2.2,2.06Zm-388.87-2.08-.75-.66c.68-.76,1.35-1.5,2-2.23l.73.68C254.51,323.77,253.84,324.51,253.17,325.26Zm104.76-1-2.18-2,.68-.74c.73.67,1.47,1.36,2.19,2.05Zm92.59-.27c-.26-1-.55-1.91-.85-2.85l.95-.31c.31,1,.59,1.92.86,2.89Zm187.11-.73c-.74-.67-1.49-1.33-2.24-2l.65-.75c.76.66,1.51,1.33,2.26,2Zm-380.4-2.4-.72-.69q1-1.11,2.1-2.16l.71.7C258.62,319.42,257.93,320.14,257.23,320.87Zm96.3-.63c-.74-.66-1.49-1.32-2.25-2l.65-.76c.76.65,1.52,1.3,2.27,2Zm279.58-.91c-.76-.65-1.53-1.29-2.3-1.92l.64-.77c.77.63,1.54,1.28,2.31,1.93Zm-184.42-1c-.34-.93-.7-1.85-1.09-2.77l.93-.39c.39.93.75,1.87,1.1,2.82Zm-187.25-1.7-.69-.72c.72-.71,1.45-1.4,2.17-2.08l.69.73Zm87.55-.26c-.77-.63-1.54-1.26-2.32-1.88l.62-.78,2.34,1.89Zm279.5-.84c-.78-.63-1.57-1.25-2.36-1.86l.62-.79c.79.62,1.58,1.24,2.36,1.87ZM446.4,312.83c-.42-.89-.87-1.79-1.33-2.66l.88-.47c.47.89.93,1.8,1.35,2.7Zm-102.09-.19-2.39-1.79.59-.81,2.41,1.81Zm-78.5-.11-.67-.75,2.25-2,.66.75C267.31,311.19,266.56,311.85,265.81,312.53Zm357.94-.7c-.79-.6-1.59-1.2-2.4-1.79l.59-.81c.81.6,1.62,1.2,2.42,1.81ZM339.49,309.1q-1.22-.87-2.46-1.71l.57-.83,2.47,1.72Zm-69.17-.51-.64-.76c.78-.66,1.55-1.3,2.32-1.92l.63.78Zm348.6-.31-2.45-1.73.58-.82q1.23.86,2.46,1.74Zm-175.3-.71c-.5-.84-1-1.69-1.57-2.52l.84-.55c.55.85,1.09,1.71,1.59,2.57Zm-109.07-1.85c-.84-.55-1.67-1.09-2.52-1.62l.53-.85c.85.54,1.7,1.08,2.54,1.63ZM614,304.85c-.82-.56-1.66-1.11-2.49-1.66l.55-.84,2.5,1.67Zm-339,0-.62-.79,2.39-1.83.6.8C276.57,303.6,275.78,304.2,275,304.83Zm165.39-2.23q-.87-1.2-1.8-2.37l.78-.62c.63.78,1.24,1.59,1.83,2.4Zm-110.89-.08c-.85-.52-1.71-1-2.57-1.54l.5-.86c.87.51,1.74,1,2.59,1.54Zm279.51-1c-.84-.54-1.68-1.08-2.53-1.6l.53-.85c.85.53,1.7,1.06,2.54,1.6Zm-329.22-.32-.59-.81,2.46-1.74.57.82C281.41,300.07,280.6,300.64,279.77,301.24Zm44.54-1.75c-.87-.48-1.75-1-2.63-1.44l.47-.88,2.65,1.45Zm279.59-1.1c-.85-.52-1.71-1-2.57-1.54l.5-.86,2.59,1.54ZM436.66,298c-.64-.73-1.32-1.47-2-2.19l.72-.69c.7.73,1.39,1.48,2,2.22Zm-152-.11-.55-.84c.87-.57,1.71-1.12,2.53-1.64l.53.85C286.39,296.72,285.55,297.27,284.69,297.84ZM319,296.65q-1.32-.69-2.67-1.35l.45-.9,2.68,1.36Zm279.71-1.3-2.61-1.47.48-.88c.88.49,1.76,1,2.63,1.48Zm-309-.72-.52-.85c.91-.55,1.78-1.06,2.6-1.53l.5.86Zm23.91-.64c-.89-.43-1.8-.85-2.71-1.26l.42-.91,2.72,1.27Zm118.88-.33c-.72-.68-1.45-1.34-2.2-2l.65-.76c.77.67,1.51,1.35,2.24,2Zm161-1.22c-.88-.48-1.76-.95-2.65-1.41l.47-.89,2.66,1.42ZM295,291.65l-.48-.88c1-.54,1.89-1,2.68-1.4l.45.89C296.82,290.66,295.93,291.12,295,291.65Zm13.27-.14c-.91-.39-1.83-.79-2.75-1.17l.38-.92c.93.38,1.85.78,2.77,1.18Zm119.83-1.76c-.77-.61-1.55-1.22-2.36-1.81l.59-.81c.82.6,1.62,1.22,2.4,1.84Zm160.13-.1-2.68-1.34.44-.9,2.69,1.35Zm-285.48-.44-1.58-.62-.82.37-.42-.91c1.22-.56,1.23-.56,1.46-.44l1.73.67ZM582.81,287l-2.72-1.28.43-.91,2.72,1.29Zm-159.55-.78c-.82-.56-1.65-1.1-2.5-1.63l.53-.85c.86.54,1.7,1.09,2.53,1.65Zm154.11-1.75-2.74-1.21.4-.92,2.75,1.22Zm-159.16-1.42c-.85-.49-1.72-1-2.61-1.45l.48-.88c.89.48,1.77,1,2.63,1.47Zm153.67-1-2.77-1.16.38-.92,2.78,1.15ZM413,280.24c-.88-.44-1.78-.87-2.69-1.29l.42-.91c.92.43,1.83.86,2.72,1.3Zm153.38-.44c-.93-.36-1.86-.73-2.79-1.08l.36-.94,2.8,1.1Zm-158.8-2.05q-1.36-.58-2.76-1.14l.36-.93c.95.38,1.88.76,2.79,1.15Zm153.21-.09-2.82-1,.34-.94c.94.33,1.89.68,2.82,1Zm-5.64-2c-1-.33-1.89-.65-2.84-1l.31-.95,2.85,1ZM402,275.55c-.92-.33-1.86-.67-2.82-1l.33-.95,2.84,1Zm147.44-1.79-2.85-.89.29-1,2.87.9Zm-149.76-.21-.35-.94c.94-.35,1.88-.7,2.82-1l.34.94C401.52,272.85,400.58,273.2,399.65,273.55Zm144-1.54c-1-.29-1.92-.56-2.88-.83l.27-1c1,.28,1.93.55,2.89.84Zm-138.41-.46-.31-.95,2.85-.94.31,1Zm132.65-1.17-2.9-.77.25-1,2.91.76ZM411,269.74l-.28-1c.95-.29,1.92-.57,2.88-.84l.27,1C412.89,269.17,411.94,269.45,411,269.74Zm121.15-.86-2.9-.7.22-1,2.92.7Zm-115.39-.77-.26-1,2.91-.75.24,1Zm109.57-.59-2.92-.64.2-1q1.47.3,2.94.63Zm-103.77-.84-.22-1,2.93-.65.21,1C424.49,266.24,423.51,266.45,422.54,266.68Zm97.92-.4-2.94-.56.18-1,2.95.57Zm-92.07-.86-.2-1,3-.56.17,1Zm86.19-.24-3-.5.16-1,3,.5Zm-80.31-.84-.17-1q1.48-.25,3-.48l.15,1Zm74.41-.12c-1-.15-2-.3-3-.43l.14-1c1,.13,2,.28,3,.43Zm-68.5-.79-.14-1c1-.14,2-.27,3-.39l.13,1Zm62.58,0-3-.36.12-1,3,.37Zm-5.93-.69-3-.3.09-1,3,.29Zm-50.71,0-.11-1c1-.11,2-.22,3-.31l.1,1Zm44.76-.55-3-.22.07-1,3,.23Zm-38.81,0-.08-1,3-.23.07,1C454.06,262,453.06,262,452.07,262.12Zm32.85-.39-3-.15,0-1,3,.15Zm-26.88,0-.06-1,3-.15,0,1Zm20.91-.23c-1,0-2-.06-3-.08l0-1c1,0,2,0,3,.08Zm-14.93,0,0-1,3-.07,0,1Zm9-.1h-3v-1h3Z"/><path class="cls-1" d="M374.22,443.76l-.15-1.92,1-.08c.05.64.1,1.28.14,1.92Zm-.41-4.89q-.13-1.5-.3-3l1-.11.3,3Zm-.63-5.95c-.12-1-.25-2-.38-3l1-.13c.13,1,.25,2,.37,3ZM372.4,427l-.45-3,1-.16.45,3Zm-.94-5.92c-.17-1-.34-2-.52-2.94l1-.18c.18,1,.36,2,.53,3Zm-1.08-5.88c-.19-1-.39-1.95-.6-2.92l1-.21c.21,1,.41,1.95.6,2.93Zm-1.23-5.84c-.22-1-.45-1.94-.68-2.91l1-.23c.24,1,.46,1.94.68,2.92Zm-1.39-5.81q-.36-1.44-.75-2.88l1-.26c.25,1,.51,1.93.75,2.9Zm-1.54-5.77c-.27-.95-.54-1.91-.82-2.87l1-.28c.28,1,.56,1.92.83,2.88ZM364.53,392c-.29-1-.59-1.9-.9-2.84l.95-.31c.31.95.61,1.9.91,2.86Zm-1.84-5.68c-.32-.95-.64-1.89-1-2.83l.94-.33c.33.94.66,1.89,1,2.84Zm-2-5.64c-.34-.94-.69-1.87-1.05-2.8l.93-.36c.36.94.71,1.87,1.06,2.81Zm-2.13-5.59c-.37-.92-.75-1.85-1.13-2.77l.92-.38c.39.92.76,1.85,1.13,2.78Zm-2.29-5.53c-.39-.92-.79-1.83-1.2-2.74l.92-.41c.4.92.81,1.84,1.2,2.76Zm-2.43-5.47c-.41-.91-.83-1.82-1.26-2.72l.9-.43c.43.91.85,1.82,1.27,2.73Zm-2.57-5.42c-.43-.89-.88-1.79-1.33-2.68l.89-.45c.45.9.9,1.79,1.34,2.69Zm-2.7-5.34c-.46-.89-.93-1.77-1.4-2.65l.88-.48,1.41,2.66Zm-2.84-5.29q-.72-1.31-1.47-2.61l.87-.5,1.48,2.63Zm-3-5.21q-.75-1.29-1.53-2.58l.86-.51c.52.86,1,1.72,1.54,2.59Zm-3.09-5.14c-.52-.85-1.06-1.7-1.59-2.54l.84-.54c.54.85,1.07,1.7,1.6,2.55Zm-3.22-5.07c-.54-.84-1.09-1.67-1.65-2.51l.83-.55c.56.84,1.11,1.67,1.66,2.52Zm-3.33-5c-.56-.83-1.14-1.65-1.71-2.47l.82-.58c.58.83,1.15,1.65,1.71,2.48Zm-3.45-4.92c-.58-.82-1.17-1.63-1.76-2.44l.8-.59c.6.81,1.19,1.63,1.78,2.44Zm-3.55-4.85c-.6-.8-1.21-1.59-1.82-2.38l.8-.61c.61.79,1.21,1.59,1.81,2.39Zm-3.65-4.75-1.86-2.34.78-.63,1.87,2.35Zm-3.75-4.67-1.91-2.31.77-.64c.64.77,1.28,1.54,1.91,2.32Zm-3.84-4.6-1.95-2.27.75-.65,2,2.27ZM311,299.37c-.66-.75-1.33-1.49-2-2.23l.74-.68,2,2.24Zm-4-4.45-2-2.19.73-.68c.68.73,1.37,1.46,2,2.2Zm-4.1-4.36-2.08-2.16.71-.69c.7.71,1.4,1.43,2.09,2.16Z"/><path class="cls-1" d="M553.52,443.88c-.31-1-.63-1.91-.95-2.84l.95-.33c.32.94.64,1.89,1,2.86ZM432,443.74c0-.92-.08-1.84-.11-2.75l1,0c0,.91.07,1.82.11,2.74Zm119.55-5.52c-.34-.94-.69-1.87-1.05-2.8l.93-.36c.36.93.71,1.87,1.06,2.82ZM431.84,438c0-1,0-2,0-3h1c0,1,0,2,0,3Zm117.58-5.34c-.38-.93-.77-1.84-1.16-2.75l.92-.4c.4.92.78,1.84,1.17,2.78ZM432.83,432h-1c0-1,0-2,.08-3l1,0C432.87,430,432.85,431,432.83,432Zm114.23-4.83c-.42-.91-.84-1.81-1.27-2.7l.9-.44c.43.9.86,1.81,1.28,2.73ZM433,426l-1-.06q.08-1.5.18-3l1,.07C433.14,424,433.08,425,433,426Zm111.44-4.24c-.45-.9-.91-1.78-1.37-2.65l.88-.48c.47.88.93,1.77,1.39,2.68Zm-111-1.73-1-.09c.08-1,.18-2,.29-3l1,.1C433.62,418.05,433.53,419,433.44,420Zm108.22-3.55c-.49-.87-1-1.74-1.49-2.59l.87-.5c.5.85,1,1.72,1.5,2.6Zm-107.58-2.4-1-.12c.13-1,.26-2,.41-3l1,.15C434.33,412.11,434.2,413.1,434.08,414.09Zm104.55-2.74c-.53-.85-1.07-1.69-1.61-2.52l.84-.55c.54.84,1.08,1.68,1.62,2.54Zm-103.69-3.17-1-.17c.17-1,.34-2,.53-3l1,.18C435.28,406.21,435.1,407.19,434.94,408.18Zm100.41-1.83c-.57-.83-1.14-1.64-1.72-2.44l.81-.58c.58.8,1.16,1.62,1.74,2.45Zm-99.3-4.05-1-.21c.2-1,.42-2,.65-2.93l1,.23C436.47,400.35,436.25,401.32,436.05,402.3Zm95.8-.78c-.61-.8-1.22-1.58-1.84-2.35l.78-.63c.62.78,1.24,1.57,1.85,2.37Zm-3.74-4.66c-.65-.76-1.3-1.52-2-2.25l.75-.67c.66.74,1.32,1.5,2,2.28Zm-90.71-.37-1-.25c.25-1,.51-1.94.77-2.9l1,.27C437.9,394.56,437.64,395.52,437.4,396.49Zm86.74-4.09c-.69-.73-1.38-1.45-2.07-2.15l.71-.7c.7.71,1.39,1.43,2.09,2.17ZM439,390.74l-1-.29c.29-1,.59-1.92.91-2.87l.95.32C439.59,388.84,439.29,389.79,439,390.74Zm80.94-2.58c-.72-.7-1.45-1.38-2.18-2l.67-.74c.74.67,1.47,1.35,2.2,2.05Zm-79.08-3.09-.94-.33c.33-.95.68-1.89,1-2.83l.94.36C441.53,383.2,441.19,384.13,440.86,385.07Zm74.66-.93q-1.14-1-2.28-1.92l.63-.78c.77.63,1.54,1.28,2.31,1.94Zm-4.62-3.78c-.79-.62-1.59-1.21-2.38-1.8l.58-.8c.81.58,1.61,1.19,2.41,1.81ZM443,379.49l-.93-.38c.38-.93.77-1.85,1.17-2.77l.92.4C443.74,377.65,443.36,378.57,443,379.49Zm63.1-2.66c-.83-.57-1.66-1.12-2.48-1.66l.55-.84c.83.54,1.66,1.1,2.5,1.68ZM445.36,374l-.91-.43c.43-.91.86-1.81,1.3-2.71l.9.44Q446,372.66,445.36,374Zm55.71-.45c-.85-.52-1.71-1-2.56-1.52l.5-.87c.86.5,1.72,1,2.59,1.54Zm-5.17-3c-.89-.48-1.77-.94-2.65-1.39l.46-.89c.88.45,1.77.92,2.67,1.4ZM448,368.66l-.89-.47c.47-.89.94-1.77,1.43-2.65l.87.48C448.93,366.9,448.46,367.77,448,368.66Zm42.57-.78c-.91-.43-1.82-.84-2.71-1.24l.4-.91c.9.4,1.82.81,2.74,1.25Zm-5.46-2.41c-.94-.38-1.87-.75-2.78-1.1l.35-.93c.92.35,1.86.72,2.81,1.11Zm-34.22-2-.86-.51c.51-.87,1-1.73,1.55-2.58l.85.52C451.91,361.71,451.4,362.57,450.89,363.43Zm28.63-.08c-1-.34-1.91-.65-2.84-1l.31-.95,2.86.95Zm-5.7-1.82c-1-.28-1.95-.55-2.88-.79l.25-1c.94.25,1.91.51,2.91.8ZM468,360c-1-.24-2-.44-2.93-.63l.2-1c.93.19,1.92.4,2.95.63Zm-5.87-1.17c-1.08-.18-2.07-.33-3-.44l.13-1c.9.12,1.9.27,3,.45Zm-8.14-.52-.84-.55.57-.86H454s.83,0,2.29.16l-.09,1c-.94-.08-1.61-.12-1.95-.14Z"/><path class="cls-5" d="M446.15,79.77c0,16.87-21.42,48.32-24.85,48.32S396.45,97.4,396.45,79.77a24.85,24.85,0,1,1,49.7,0Z"/><circle class="cls-1" cx="421.3" cy="80.05" r="12.38" transform="translate(246.59 471.69) rotate(-76.72)"/><path class="cls-4" d="M421.3,92.93a12.88,12.88,0,1,1,0-25.76v1a11.88,11.88,0,1,0,11.88,11.88h1A12.9,12.9,0,0,1,421.3,92.93Z"/><path class="cls-5" d="M326,239.73c0,16.88-21.43,48.32-24.85,48.32s-24.86-30.69-24.86-48.32a24.86,24.86,0,0,1,49.71,0Z"/><circle class="cls-1" cx="301.12" cy="240.02" r="12.38" transform="translate(-1.66 477.93) rotate(-76.72)"/><path class="cls-4" d="M301.11,252.9a12.88,12.88,0,0,1,0-25.76v1A11.88,11.88,0,1,0,313,240h1A12.89,12.89,0,0,1,301.11,252.9Z"/><path class="cls-5" d="M473.61,319.35c0,13.3-16.89,38.08-19.59,38.08s-19.58-24.18-19.58-38.08a19.59,19.59,0,0,1,39.17,0Z"/><circle class="cls-1" cx="454.02" cy="319.58" r="9.76"/><path class="cls-4" d="M454,329.83a10.26,10.26,0,0,1,0-20.51v1a9.26,9.26,0,1,0,9.26,9.26h1A10.27,10.27,0,0,1,454,329.83Z"/><path class="cls-5" d="M311,93.33c0,13.29-16.89,38.08-19.59,38.08s-19.58-24.19-19.58-38.08a19.59,19.59,0,1,1,39.17,0Z"/><circle class="cls-1" cx="291.41" cy="93.55" r="9.76"/><path class="cls-4" d="M291.41,103.81a10.26,10.26,0,0,1,0-20.52v1a9.26,9.26,0,1,0,9.26,9.26h1A10.27,10.27,0,0,1,291.41,103.81Z"/><path class="cls-5" d="M264.74,180.9c0,8.66-11,24.8-12.76,24.8S239.23,190,239.23,180.9a12.76,12.76,0,0,1,25.51,0Z"/><path class="cls-1" d="M258.34,181.05A6.36,6.36,0,1,1,252,174.7,6.35,6.35,0,0,1,258.34,181.05Z"/><path class="cls-4" d="M252,187.9a6.86,6.86,0,0,1,0-13.71v1a5.86,5.86,0,1,0,5.86,5.86h1A6.86,6.86,0,0,1,252,187.9Z"/><path class="cls-5" d="M410.74,248.84c0,8.66-11,24.8-12.76,24.8s-12.75-15.75-12.75-24.8a12.76,12.76,0,0,1,25.51,0Z"/><circle class="cls-1" cx="397.98" cy="248.99" r="6.35"/><path class="cls-4" d="M398,255.84a6.85,6.85,0,0,1,0-13.7v1a5.85,5.85,0,1,0,5.86,5.85h1A6.86,6.86,0,0,1,398,255.84Z"/><path class="cls-5" d="M423.81,387.6c0,8.67-11,24.81-12.76,24.81S398.3,396.65,398.3,387.6a12.76,12.76,0,0,1,25.51,0Z"/><circle class="cls-1" cx="411.05" cy="387.75" r="6.35"/><path class="cls-4" d="M411.05,394.6a6.85,6.85,0,1,1,0-13.7v1a5.85,5.85,0,1,0,5.86,5.85h1A6.86,6.86,0,0,1,411.05,394.6Z"/><rect class="cls-1" x="505.15" y="421.71" width="174.62" height="8.99" transform="translate(1184.92 852.42) rotate(180)"/><rect class="cls-6" x="495.4" y="344.35" width="192.11" height="79.23" rx="3.95" transform="translate(1182.91 767.93) rotate(180)"/><path class="cls-1" d="M462.77,386.15h18.55a1.46,1.46,0,0,1,1.46,1.46v18.78a1.45,1.45,0,0,1-1.46,1.45h-33.4a1.45,1.45,0,0,1-1.38-1.89,46.61,46.61,0,0,1,8.67-16.27A9.84,9.84,0,0,1,462.77,386.15Z"/><polygon class="cls-7" points="478.4 384.8 464.25 409.37 454.16 409.37 468.31 384.8 478.4 384.8"/><polygon class="cls-7" points="461.95 384.8 464.9 384.8 450.75 409.37 447.8 409.37 461.95 384.8"/><polygon class="cls-7" points="484 384.8 486.94 384.8 472.8 409.37 469.85 409.37 484 384.8"/><path class="cls-8" d="M440.46,433.79h50.61V378.71c-14.62-.28-27.22,1.49-33,5.1C451.2,388.06,440.44,404.86,440.46,433.79ZM446.54,406a46.61,46.61,0,0,1,8.67-16.27,9.84,9.84,0,0,1,7.56-3.53h18.55a1.46,1.46,0,0,1,1.46,1.46v18.78a1.45,1.45,0,0,1-1.46,1.45h-33.4A1.45,1.45,0,0,1,446.54,406Z"/><rect class="cls-4" x="457.49" y="383.67" width="33.59" height="1"/><rect class="cls-4" x="474.8" y="386.15" width="1" height="21.69"/><rect class="cls-4" x="439.72" y="426.56" width="8.29" height="8.29" transform="translate(887.73 861.41) rotate(180)"/><path class="cls-4" d="M456,433.79h-1a16.25,16.25,0,0,1,16.23-16.24h11V407h1v11.51h-12A15.25,15.25,0,0,0,456,433.79Z"/><path class="cls-4" d="M478.17,412h-4.68a1.27,1.27,0,0,1,0-2.54h4.68a1.27,1.27,0,0,1,0,2.54Zm-4.68-1.54a.27.27,0,0,0,0,.54h4.68a.27.27,0,0,0,0-.54Z"/><rect class="cls-5" x="440.46" y="417.84" width="2.65" height="5.48" rx="0.87" transform="translate(883.57 841.15) rotate(180)"/><path class="cls-9" d="M457,433.79c-.25-6.18,3.51-11.66,9.11-12.77,6.28-1.24,12.5,3.47,13.9,10.52a16,16,0,0,1,.26,2.25Z"/><ellipse class="cls-4" cx="468.61" cy="433.79" rx="9.09" ry="10.21" transform="translate(-75.13 98.95) rotate(-11.16)"/><path class="cls-1" d="M465,434.51a3.75,3.75,0,1,0,2.84-4.83A4,4,0,0,0,465,434.51Z"/><path class="cls-4" d="M468.73,437.22a3.36,3.36,0,0,1-3.17-2.83h0a3.59,3.59,0,0,1,.4-2.54,3,3,0,0,1,2-1.44,3,3,0,0,1,2.38.58,3.57,3.57,0,0,1,1.34,2.19,3.29,3.29,0,0,1-2.39,4A2.57,2.57,0,0,1,468.73,437.22Zm-.23-5.86-.36,0a2,2,0,0,0-1.31,1,2.58,2.58,0,0,0-.29,1.84h0a2.14,2.14,0,1,0,4.15-.82,2.62,2.62,0,0,0-1-1.59A2,2,0,0,0,468.5,431.36Z"/><rect class="cls-4" x="491.07" y="388.81" width="4.32" height="30.09" transform="translate(986.47 807.71) rotate(180)"/><polygon class="cls-4" points="633.46 428.82 597.16 428.82 597.16 423.58 598.16 423.58 598.16 427.82 632.46 427.82 632.46 423.58 633.46 423.58 633.46 428.82"/><rect class="cls-4" x="533.79" y="423.58" width="50.05" height="2.27" transform="translate(1117.63 849.43) rotate(180)"/><rect class="cls-4" x="679.77" y="354.25" width="1" height="59.43"/><rect class="cls-4" x="663.62" y="354.25" width="1" height="59.43"/><rect class="cls-4" x="647.47" y="354.25" width="1" height="59.43"/><rect class="cls-4" x="631.32" y="354.25" width="1" height="59.43"/><rect class="cls-4" x="615.18" y="354.25" width="1" height="59.43"/><rect class="cls-4" x="599.03" y="354.25" width="1" height="59.43"/><rect class="cls-4" x="582.88" y="354.25" width="1" height="59.43"/><rect class="cls-4" x="566.73" y="354.25" width="1" height="59.43"/><rect class="cls-4" x="550.59" y="354.25" width="1" height="59.43"/><rect class="cls-4" x="534.44" y="354.25" width="1" height="59.43"/><rect class="cls-4" x="518.29" y="354.25" width="1" height="59.43"/><rect class="cls-4" x="502.14" y="354.25" width="1" height="59.43"/><polygon class="cls-4" points="680.27 431.2 504.65 431.2 504.65 423.58 505.65 423.58 505.65 430.2 679.27 430.2 679.27 423.58 680.27 423.58 680.27 431.2"/><path class="cls-4" d="M509.24,435.55c1.1,5.53,6,9.22,10.9,8.25s8-6.24,6.94-11.77-6-9.23-10.89-8.26S508.15,430,509.24,435.55Z"/><path class="cls-1" d="M514.51,434.51a3.75,3.75,0,1,0,2.84-4.83A4,4,0,0,0,514.51,434.51Z"/><path class="cls-4" d="M518.28,437.22a3.38,3.38,0,0,1-3.18-2.83,3.65,3.65,0,0,1,.41-2.54,3,3,0,0,1,2-1.44,3,3,0,0,1,2.38.58,3.57,3.57,0,0,1,1.34,2.19,3.29,3.29,0,0,1-2.39,4A2.57,2.57,0,0,1,518.28,437.22Zm-.23-5.86-.36,0a2,2,0,0,0-1.31,1,2.58,2.58,0,0,0-.29,1.84h0a2.14,2.14,0,1,0,4.15-.82,2.62,2.62,0,0,0-1-1.59A2,2,0,0,0,518.05,431.36Z"/><ellipse class="cls-4" cx="647.49" cy="433.79" rx="9.09" ry="10.21" transform="translate(-71.74 133.59) rotate(-11.17)"/><path class="cls-1" d="M643.84,434.51a3.75,3.75,0,1,0,2.85-4.83A4,4,0,0,0,643.84,434.51Z"/><path class="cls-4" d="M647.61,437.22a3.36,3.36,0,0,1-3.17-2.83h0a3.29,3.29,0,0,1,2.39-4,3,3,0,0,1,2.38.58,3.57,3.57,0,0,1,1.34,2.19,3.29,3.29,0,0,1-2.39,4A2.57,2.57,0,0,1,647.61,437.22Zm-2.19-3a2.14,2.14,0,1,0,4.15-.82,2.62,2.62,0,0,0-1-1.59,2,2,0,0,0-1.59-.4,2.31,2.31,0,0,0-1.6,2.81Z"/><ellipse class="cls-4" cx="667.51" cy="433.79" rx="9.09" ry="10.21" transform="matrix(0.98, -0.19, 0.19, 0.98, -71.36, 137.46)"/><path class="cls-1" d="M663.85,434.51a3.75,3.75,0,1,0,2.85-4.83A4,4,0,0,0,663.85,434.51Z"/><path class="cls-4" d="M667.62,437.22a3.37,3.37,0,0,1-3.17-2.83h0a3.6,3.6,0,0,1,.41-2.54,2.91,2.91,0,0,1,4.36-.86,3.63,3.63,0,0,1,1.35,2.19,3.3,3.3,0,0,1-2.4,4A2.51,2.51,0,0,1,667.62,437.22Zm-.22-5.86a2.22,2.22,0,0,0-.37,0,2,2,0,0,0-1.31,1,2.58,2.58,0,0,0-.29,1.84h0a2.14,2.14,0,1,0,4.16-.82,2.64,2.64,0,0,0-1-1.59A2,2,0,0,0,667.4,431.36Z"/><polygon class="cls-1" points="136.7 401.46 136.7 362.94 129.31 362.94 129.31 337.84 121.18 337.84 121.18 313.6 124.14 313.6 124.14 306.86 68.54 306.86 68.54 313.6 71.21 313.6 71.21 401.46 136.7 401.46"/><rect class="cls-4" x="71.21" y="313.1" width="49.97" height="1"/><rect class="cls-4" x="71.21" y="337.34" width="49.97" height="1"/><rect class="cls-4" x="71.21" y="362.45" width="59.27" height="1"/><rect class="cls-6" x="107.63" y="321.22" width="10.1" height="5.64" transform="translate(225.37 648.08) rotate(180)"/><rect class="cls-6" x="122.15" y="344.97" width="2.66" height="5.64" transform="translate(246.95 695.58) rotate(180)"/><rect class="cls-6" x="74.66" y="344.97" width="2.66" height="5.64" transform="translate(151.97 695.58) rotate(180)"/><rect class="cls-6" x="93.65" y="344.97" width="2.66" height="5.64" transform="translate(189.96 695.58) rotate(180)"/><rect class="cls-6" x="84.15" y="344.97" width="2.66" height="5.64" transform="translate(170.96 695.58) rotate(180)"/><rect class="cls-6" x="74.66" y="368.56" width="2.66" height="3.47" transform="translate(151.97 740.59) rotate(180)"/><rect class="cls-6" x="77.77" y="393.41" width="5.61" height="8.05" transform="translate(161.16 794.88) rotate(180)"/><rect class="cls-6" x="84.15" y="368.56" width="2.66" height="3.47" transform="translate(170.96 740.59) rotate(180)"/><rect class="cls-6" x="93.65" y="368.56" width="2.66" height="3.47" transform="translate(189.96 740.59) rotate(180)"/><rect class="cls-6" x="103.15" y="368.56" width="2.66" height="3.47" transform="translate(208.96 740.59) rotate(180)"/><rect class="cls-6" x="112.65" y="368.56" width="2.66" height="3.47" transform="translate(227.95 740.59) rotate(180)"/><rect class="cls-6" x="122.15" y="368.56" width="2.66" height="3.47" transform="translate(246.95 740.59) rotate(180)"/><rect class="cls-6" x="112.65" y="344.97" width="2.66" height="5.64" transform="translate(227.95 695.58) rotate(180)"/><rect class="cls-6" x="103.15" y="344.97" width="2.66" height="5.64" transform="translate(208.96 695.58) rotate(180)"/><rect class="cls-6" x="91.14" y="321.22" width="10.1" height="5.64" transform="translate(192.39 648.08) rotate(180)"/><rect class="cls-6" x="74.66" y="321.22" width="10.1" height="5.64" transform="translate(159.42 648.08) rotate(180)"/><polygon class="cls-4" points="65.74 401.46 64.74 401.46 64.74 343.85 71.21 343.85 71.21 344.85 65.74 344.85 65.74 401.46"/><polygon class="cls-4" points="98.5 306.86 97.5 306.86 97.5 304.05 78.98 304.05 78.98 306.86 77.98 306.86 77.98 303.05 98.5 303.05 98.5 306.86"/><rect class="cls-4" x="110.63" y="288.05" width="1" height="18.81"/><polygon class="cls-4" points="71.71 401.46 70.71 401.46 70.71 314.1 68.04 314.1 68.04 306.36 103.42 306.36 103.42 307.36 69.04 307.36 69.04 313.1 71.71 313.1 71.71 401.46"/><rect class="cls-1" x="312.43" y="375.41" width="21.54" height="7.31" transform="translate(646.41 758.14) rotate(180)"/><polygon class="cls-1" points="317.47 375.41 328.94 375.41 325.14 354.76 317.47 354.76 317.47 375.41"/><rect class="cls-4" x="317.21" y="374.91" width="11.99" height="1"/><rect class="cls-8" x="146.25" y="359.17" width="151.28" height="49.46"/><rect class="cls-5" x="247.1" y="359.17" width="50.43" height="16.3" transform="translate(544.63 734.65) rotate(180)"/><rect class="cls-5" x="146.25" y="342.88" width="50.43" height="16.3" transform="translate(342.92 702.05) rotate(180)"/><rect class="cls-5" x="196.67" y="342.88" width="50.43" height="16.3" transform="translate(443.77 702.05) rotate(180)"/><rect class="cls-5" x="95.82" y="391.43" width="50.43" height="16.3" transform="translate(242.07 799.16) rotate(180)"/><rect class="cls-8" x="168.26" y="326.56" width="50.43" height="16.3" transform="translate(386.94 669.41) rotate(180)"/><rect class="cls-8" x="95.82" y="375.3" width="50.43" height="16.3" transform="translate(242.07 766.91) rotate(180)"/><rect class="cls-5" x="146.25" y="375.47" width="50.43" height="15.96" transform="translate(342.92 766.91) rotate(180)"/><rect class="cls-4" x="146.25" y="374.97" width="151.28" height="1"/><rect class="cls-4" x="146.25" y="359.06" width="100.85" height="1"/><rect class="cls-4" x="95.82" y="390.93" width="201.7" height="1"/><rect class="cls-4" x="246.6" y="359.17" width="1" height="48.37"/><rect class="cls-4" x="196.17" y="342.85" width="1" height="64.69"/><rect class="cls-4" x="168.26" y="342.35" width="50.42" height="1"/><path class="cls-6" d="M275.66,390.56l-5,4.59A44.61,44.61,0,0,1,240.37,407H108.55a3.58,3.58,0,0,1-3.34-2.26l-.55-1.37a6.05,6.05,0,0,0-5.63-3.8h-48l19.58,44.13H309.43l41.16-61H295.68A29.48,29.48,0,0,0,275.66,390.56Z"/><polygon class="cls-5" points="59.65 418.92 62.08 424.39 322.47 424.39 326.16 418.92 59.65 418.92"/><rect class="cls-4" x="244.83" y="406.3" width="65.34" height="1"/><rect class="cls-4" x="105.14" y="296.14" width="11.97" height="1"/><rect class="cls-4" x="105.14" y="298.89" width="11.97" height="1"/><rect class="cls-4" x="105.14" y="301.97" width="11.97" height="1"/><path class="cls-7" d="M167.85,180.21C155.76,155,130,154,120.86,171.69c-32.71-7.93-36.48,17.45-36.48,17.45s-19.67-10-33.11,5.75H209.69C197.69,177.56,181.08,173.14,167.85,180.21Z"/><path class="cls-7" d="M572.41,78.71c4.8-26.54,43.48-30.21,55.9-9.19,35-8.49,40.78,11.69,40.78,11.69s21-10.67,35.45,6.15H534.94C544.27,73.63,558.25,71.14,572.41,78.71Z"/><path class="cls-7" d="M121.62,57.57h215c-16.37-10.51-33.51-14.89-43.85-7.48-19-16.48-34.64-21.92-42.83-11.47-13.15-23.9-38.21-22.68-50.34-.86-3.23-5.25-17.62-14.41-38,10.11C154.73,40.06,140.59,44.67,121.62,57.57Z"/><path class="cls-7" d="M69.8,51c9.16-6,23.85-11.11,40.33,6.61H41.58C52.25,47.32,63.2,44.54,69.8,51Z"/></g></svg>