<?xml version="1.0" encoding="utf-8"?>
<!-- Generator: Adobe Illustrator 23.1.0, SVG Export Plug-In . SVG Version: 6.00 Build 0)  -->
<svg version="1.1" id="Layer_1" xmlns="http://www.w3.org/2000/svg" xmlns:xlink="http://www.w3.org/1999/xlink" x="0px" y="0px"
	 viewBox="0 0 500 500" style="enable-background:new 0 0 500 500;" xml:space="preserve">
<style type="text/css">
	.st0{fill:#F5F5F5;}
	.st1{fill:#E0E0E0;}
	.st2{display:none;}
	.st3{display:inline;}
	.st4{fill:#F0F0F0;}
	.st5{fill:#FAFAFA;}
	.st6{opacity:3.000000e-02;enable-background:new    ;}
	.st7{opacity:0.3;fill:#EBEBEB;enable-background:new    ;}
	.st8{fill:#E6E6E6;}
	.st9{fill:#EBEBEB;}
	.st10{opacity:5.000000e-02;enable-background:new    ;}
	.st11{fill:#263238;}
	.st12{fill:#FFA8A7;}
	.st13{fill:#BA68C8;}
	.st14{opacity:0.5;enable-background:new    ;}
	.st15{opacity:0.2;enable-background:new    ;}
	.st16{opacity:0.15;enable-background:new    ;}
	.st17{opacity:0.1;enable-background:new    ;}
	.st18{fill:#37474F;}
	.st19{fill:#F28F8F;}
	.st20{fill:#455A64;}
	.st21{display:none;fill:#BA68C8;}
	.st22{fill:#CE325F;}
	.st23{opacity:0.2;fill:#FFFFFF;enable-background:new    ;}
	.st24{fill:#D82149;}
	.st25{opacity:0.55;fill:#FFFFFF;enable-background:new    ;}
	.st26{fill:#9A4A4D;}
	.st27{fill:#B16668;}
	.st28{opacity:0.3;enable-background:new    ;}
	.st29{opacity:0.65;fill:#FFFFFF;enable-background:new    ;}
	.st30{opacity:0.3;fill:#FFFFFF;enable-background:new    ;}
	.st31{fill:#7BC69B;}
	.st32{fill:#37B76B;}
	.st33{opacity:0.4;fill:#FFFFFF;enable-background:new    ;}
</style>
<g id="freepik--Floor--inject-1--inject-76">
	<ellipse class="st0" cx="249.7" cy="361.5" rx="202" ry="116.6"/>
</g>
<g id="freepik--Shadow--inject-1--inject-76">
	<path class="st1" d="M300.9,435.7l50.2-29c6.1-3.5,6.1-9.2,0-12.7l-84.6-48.9c-6.1-3.5-15.9-3.5-22,0l-50.2,29
		c-6.1,3.5-6.1,9.2,0,12.7l84.6,48.9C285,439.2,294.8,439.2,300.9,435.7z"/>
	<ellipse class="st1" cx="189.8" cy="345.8" rx="52.3" ry="30.2"/>
</g>
<g id="freepik--Shelves--inject-1--inject-76" class="st2">
	<g id="freepik--Bottles--inject-1--inject-76" class="st3">
		<path class="st4" d="M346.3,107.1v-4.5l0,0c0.1-0.5,0.4-1,0.9-1.2l27-15.6c1.3-0.7,2.9-0.7,4.2,0l77.8,44.9
			c0.5,0.2,0.8,0.7,0.9,1.2l0,0v4.5l0,0c-0.1,0.5-0.4,1-0.9,1.2l-27,15.6c-1.3,0.7-2.9,0.7-4.2,0l-77.8-44.9
			C346.7,108.1,346.4,107.7,346.3,107.1L346.3,107.1z"/>
		<path class="st5" d="M456.2,133.1l-27,15.6c-1.3,0.7-2.9,0.7-4.2,0l-77.8-44.9c-0.7-0.2-1-1-0.8-1.6c0.1-0.4,0.4-0.7,0.8-0.8
			l27-15.6c1.3-0.7,2.9-0.7,4.2,0l77.8,44.9c0.7,0.2,1,1,0.8,1.6C456.8,132.7,456.5,133,456.2,133.1z"/>
		<path class="st1" d="M427,149.2v4.5c0.7,0,1.4-0.2,2.1-0.5l27-15.6c0.5-0.2,0.8-0.7,0.9-1.2l0,0v-4.5l0,0c0-0.2-0.1-0.4-0.2-0.5
			c0.3,0.6,0.1,1.3-0.7,1.7l-27,15.6C428.5,149.1,427.8,149.2,427,149.2z"/>
		<path class="st6" d="M381.5,106.2c4.1-2.4,4.1-6.2,0-8.6c-4.7-2.4-10.3-2.4-15,0c-4.1,2.4-4.1,6.2,0,8.6
			C371.3,108.6,376.8,108.6,381.5,106.2z"/>
		<path class="st4" d="M366.2,69.5c0.4-0.2,0.9-0.5,1.4-0.7c0.9-0.3,1.5-1.2,1.5-2.2v-3.9h8.6v3.9c0,1,0.6,1.8,1.5,2.2
			c0.5,0.2,0.9,0.4,1.4,0.7c1.7,1,2.9,2.9,3,4.9v26.2c0,1.5-1,3-3,4.1c-4.5,2.3-9.8,2.3-14.4,0c-2-1.1-3-2.6-3-4.1V74.4
			C363.3,72.4,364.4,70.6,366.2,69.5z"/>
		<path class="st1" d="M366.2,79.8c4.5,2.3,9.8,2.3,14.3,0c2-1.1,3-2.6,3-4.1v18.6c0,1.5-1,3-3,4.1c-4.5,2.3-9.8,2.3-14.3,0
			c-2-1.1-3-2.6-3-4.1V75.7C363.2,77.2,364.2,78.7,366.2,79.8z"/>
		<path class="st7" d="M380.2,100.7V75c0-1.3-0.3-2.9-1.8-3.7c-3-1.5-3.4-2.7-3.4-4.3v-4.2h2.5v3.9c0,1,0.6,1.8,1.5,2.2
			c0.5,0.2,0.9,0.4,1.4,0.7c1.7,1,2.9,2.9,3,4.9v26.2c0,1.5-1,3-3,4.1c-3.3,1.7-7,2.1-10.5,1.4C378.2,106.7,380.2,103.2,380.2,100.7
			z"/>
		<path class="st8" d="M368.8,61.7v1.1c0.1,0.8,0.6,1.6,1.4,1.9c2.1,1,4.5,1,6.6,0c0.4-0.2,0.7-0.5,1-0.9c0.2-0.3,0.3-0.6,0.3-1
			v-1.2c0-0.1,0-0.2,0-0.3c-0.2-0.7-0.7-1.3-1.3-1.6h-0.1c-2-1-4.5-1-6.5,0c-0.6,0.3-1.1,0.9-1.3,1.6
			C368.8,61.4,368.8,61.5,368.8,61.7z"/>
		<path class="st1" d="M376.7,63.5c1.8-1,1.8-2.7,0-3.8c-2.1-1-4.5-1-6.6,0c-1.8,1-1.8,2.7,0,3.8C372.2,64.6,374.7,64.6,376.7,63.5z
			"/>
		<path class="st8" d="M368.8,58.1V61c0,0.1,0,0.2,0,0.3c0.2,0.7,0.7,1.3,1.3,1.6c0.9,0.5,1.9,0.7,2.9,0.8c1.3,0.1,2.5-0.2,3.7-0.8
			c0.4-0.2,0.7-0.5,1-0.9c0.1-0.2,0.3-0.4,0.3-0.7c0-0.1,0-0.2,0-0.3v-2.9c-0.1-0.8-0.6-1.6-1.4-1.9l-0.3-0.1
			c-2-0.9-4.3-0.9-6.3,0.1C369.3,56.6,368.9,57.3,368.8,58.1z"/>
		<path class="st0" d="M368.8,58.1c0,1.5,2.1,2.7,4.6,2.7s4.6-1.2,4.6-2.7s-2.1-2.7-4.6-2.7S368.8,56.6,368.8,58.1z"/>
		<path class="st6" d="M400.4,116.9c4.1-2.4,4.1-6.2,0-8.6c-4.7-2.4-10.3-2.4-15,0c-4.1,2.4-4.1,6.2,0,8.6
			C390.1,119.2,395.6,119.2,400.4,116.9z"/>
		<path class="st4" d="M385,80.2c0.4-0.3,0.9-0.5,1.4-0.7c0.9-0.3,1.5-1.2,1.5-2.2v-3.9h8.6v3.9c0,1,0.6,1.8,1.5,2.2
			c0.5,0.2,0.9,0.4,1.4,0.7c1.7,1,2.9,2.9,3,4.9v26.2c0,1.5-1,3-3,4.1c-4.5,2.3-9.8,2.3-14.3,0c-2-1.1-3-2.6-3-4.1V85.1
			C382.2,83.1,383.3,81.2,385,80.2z"/>
		<path class="st1" d="M385,90.5c4.5,2.3,9.8,2.3,14.3,0c2-1.1,3-2.6,3-4.1v18.6c0,1.5-1,3-3,4.1c-4.5,2.2-9.8,2.2-14.3,0
			c-2-1.1-3-2.6-3-4.1V86.4C382,87.8,383,89.3,385,90.5z"/>
		<path class="st7" d="M399,111.3V85.7c0-1.3-0.3-2.9-1.8-3.7c-3-1.5-3.4-2.7-3.4-4.3v-4.3h2.5v3.9c0,1,0.6,1.8,1.5,2.2
			c0.5,0.2,0.9,0.4,1.4,0.7c1.7,1,2.9,2.9,3,4.9v26.2c0,1.5-1,3-3,4.1c-3.3,1.7-7,2.1-10.5,1.4C397.1,117.4,399,113.9,399,111.3z"/>
		<path class="st8" d="M387.6,72.3v1.2c0.1,0.8,0.6,1.6,1.4,1.9c2.1,1,4.5,1,6.6,0c0.4-0.2,0.7-0.5,1-0.9c0.2-0.3,0.3-0.6,0.3-1
			v-1.2c0-0.1,0-0.2,0-0.3c-0.2-0.7-0.7-1.3-1.3-1.6h-0.1c-2-1-4.4-1-6.5,0c-0.7,0.3-1.2,0.9-1.3,1.6
			C387.6,72.1,387.6,72.2,387.6,72.3z"/>
		<path class="st1" d="M395.5,74.2c1.8-1,1.8-2.7,0-3.8c-2.1-1-4.5-1-6.6,0c-1.8,1-1.8,2.7,0,3.8C391,75.3,393.5,75.3,395.5,74.2z"
			/>
		<path class="st8" d="M387.6,68.8v2.9c0,0.1,0,0.2,0,0.3c0.2,0.7,0.7,1.3,1.4,1.6c0.9,0.5,1.9,0.7,2.9,0.8c1.3,0.1,2.5-0.2,3.7-0.8
			c0.4-0.2,0.7-0.5,1-0.9c0.1-0.2,0.3-0.4,0.3-0.7c0-0.1,0-0.2,0-0.3v-2.9c-0.1-0.8-0.6-1.6-1.4-1.9l-0.3-0.1
			c-2-0.9-4.3-0.9-6.3,0.1C388.2,67.2,387.7,68,387.6,68.8z"/>
		<ellipse class="st0" cx="392.3" cy="68.8" rx="4.6" ry="2.7"/>
		<path class="st6" d="M419.2,127.6c4.1-2.4,4.1-6.2,0-8.6c-4.7-2.4-10.3-2.4-15,0c-4.1,2.4-4.1,6.2,0,8.6
			C408.9,129.9,414.5,129.9,419.2,127.6z"/>
		<path class="st4" d="M403.8,90.9c0.4-0.3,0.9-0.5,1.4-0.7c0.9-0.3,1.5-1.2,1.5-2.2v-3.9h8.6v3.9c0,1,0.6,1.8,1.5,2.2
			c0.5,0.2,0.9,0.4,1.4,0.7c1.7,1,2.9,2.9,3,4.9V122c0,1.5-1,3-3,4.1c-4.5,2.3-9.8,2.3-14.3,0c-2-1.1-3-2.6-3-4.1V95.8
			C400.9,93.7,402.1,91.9,403.8,90.9z"/>
		<path class="st1" d="M403.8,101.2c4.5,2.3,9.8,2.3,14.3,0c2-1.1,3-2.6,3-4.1v18.6c0,1.5-1,3-3,4.1c-4.5,2.3-9.8,2.3-14.3,0
			c-2-1.1-3-2.6-3-4.1V97.1C400.9,98.5,401.8,100,403.8,101.2z"/>
		<path class="st7" d="M417.9,122V96.4c0-1.2-0.3-2.9-1.8-3.7c-3-1.5-3.4-2.7-3.4-4.3v-4.3h2.5v3.9c0,1,0.6,1.8,1.5,2.2
			c0.5,0.2,0.9,0.4,1.4,0.7c1.7,1,2.9,2.9,3,4.9V122c0,1.5-1,3-3,4.1c-3.2,1.7-7,2.1-10.5,1.4C415.9,128.1,417.9,124.6,417.9,122z"
			/>
		<path class="st8" d="M406.4,83v1.2c0.1,0.8,0.6,1.6,1.4,1.9c2.1,1,4.5,1,6.6,0c0.4-0.2,0.7-0.5,1-0.9c0.2-0.3,0.3-0.6,0.3-1V83
			c0-0.1,0-0.2,0-0.3c-0.2-0.7-0.7-1.3-1.3-1.6h-0.1c-2-1-4.5-1-6.5,0c-0.6,0.3-1.1,0.9-1.3,1.6C406.5,82.8,406.4,82.9,406.4,83z"/>
		<path class="st1" d="M414.4,84.9c1.8-1,1.8-2.7,0-3.8c-2.1-1-4.5-1-6.6,0c-1.8,1-1.8,2.8,0,3.8C409.9,86,412.3,86,414.4,84.9z"/>
		<path class="st8" d="M406.4,79.5v2.9c0,0.1,0,0.2,0,0.3c0.2,0.7,0.7,1.3,1.3,1.6c0.9,0.5,1.9,0.7,2.9,0.8c1.3,0.1,2.5-0.2,3.7-0.8
			c0.4-0.2,0.7-0.5,1-0.9c0.2-0.2,0.3-0.4,0.3-0.7c0-0.1,0-0.2,0-0.3v-2.9c-0.1-0.8-0.6-1.6-1.4-1.9l-0.2-0.1
			c-2-0.9-4.3-0.9-6.3,0.1C407,77.9,406.5,78.7,406.4,79.5z"/>
		<ellipse class="st0" cx="411.1" cy="79.4" rx="4.6" ry="2.7"/>
		<path class="st6" d="M438,138.2c4.1-2.4,4.1-6.2,0-8.6c-4.7-2.4-10.3-2.4-15,0c-4.1,2.4-4.1,6.2,0,8.6
			C427.7,140.6,433.3,140.6,438,138.2z"/>
		<path class="st4" d="M422.6,101.6c0.4-0.3,0.9-0.5,1.4-0.7c0.9-0.3,1.5-1.2,1.5-2.2v-3.9h8.6v3.9c0,1,0.6,1.8,1.5,2.2
			c0.5,0.2,0.9,0.4,1.4,0.7c1.7,1,2.9,2.9,3,4.9v26.2c0,1.5-1,3-3,4.1c-4.5,2.3-9.8,2.3-14.3,0c-2-1.1-3-2.6-3-4.1v-26.2
			C419.8,104.4,420.9,102.6,422.6,101.6z"/>
		<path class="st1" d="M422.6,111.8c4.5,2.3,9.8,2.3,14.3,0c2-1.1,3-2.6,3-4.1v18.6c0,1.5-1,3-3,4.1c-4.5,2.3-9.8,2.3-14.3,0
			c-2-1.1-3-2.6-3-4.1v-18.6C419.7,109.2,420.6,110.7,422.6,111.8z"/>
		<path class="st7" d="M436.7,132.7v-25.6c0-1.2-0.3-2.9-1.8-3.7c-3-1.5-3.4-2.7-3.4-4.3v-4.3h2.5v3.9c0,1,0.6,1.8,1.5,2.2
			c0.5,0.2,0.9,0.4,1.4,0.7c1.7,1,2.9,2.9,3,4.9v26.2c0,1.5-1,3-3,4.1c-3.2,1.7-7,2.1-10.5,1.4C434.7,138.7,436.7,135.2,436.7,132.7
			z"/>
		<path class="st8" d="M425.2,93.7v1.2c0.1,0.8,0.6,1.6,1.4,1.9c2.1,1,4.5,1,6.6,0c0.4-0.2,0.7-0.5,1-0.9c0.2-0.3,0.3-0.6,0.3-1
			v-1.2c0-0.1,0-0.2,0-0.3c-0.2-0.7-0.7-1.3-1.3-1.6h-0.1c-2-1-4.5-1-6.5,0c-0.6,0.3-1.1,0.9-1.3,1.6
			C425.3,93.5,425.2,93.6,425.2,93.7z"/>
		<ellipse class="st1" cx="429.9" cy="93.7" rx="4.6" ry="2.7"/>
		<path class="st8" d="M425.2,90.2v2.9c0,0.1,0,0.2,0,0.3c0.2,0.7,0.7,1.3,1.4,1.6c0.9,0.5,1.9,0.7,2.9,0.8c1.3,0.1,2.5-0.2,3.7-0.8
			c0.4-0.2,0.7-0.5,1-0.9c0.1-0.2,0.2-0.4,0.3-0.7c0-0.1,0-0.2,0-0.3v-3c-0.1-0.8-0.6-1.6-1.4-1.9l-0.3-0.1c-2-0.9-4.3-0.9-6.3,0.1
			C425.8,88.6,425.3,89.3,425.2,90.2z"/>
		<path class="st0" d="M425.2,90.1c0,1.5,2.1,2.7,4.6,2.7s4.6-1.2,4.6-2.7s-2.1-2.7-4.6-2.7S425.2,88.7,425.2,90.1z"/>
	</g>
	<g id="freepik--Cans--inject-1--inject-76" class="st3">
		<path class="st4" d="M138.8,87.6v-4.5l0,0c-0.1-0.5-0.4-1-0.9-1.2l-27.1-15.6c-1.3-0.7-2.9-0.7-4.2,0l-77.8,44.9
			c-0.5,0.2-0.8,0.7-0.9,1.2l0,0v4.5l0,0c0.1,0.5,0.4,1,0.9,1.2L56,133.7c1.3,0.7,2.9,0.7,4.2,0l77.8-44.9
			C138.4,88.6,138.7,88.1,138.8,87.6L138.8,87.6z"/>
		<path class="st5" d="M28.9,113.6L56,129.2c1.3,0.7,2.9,0.7,4.2,0l77.7-44.9c0.7-0.2,1-1,0.8-1.6c-0.1-0.4-0.4-0.7-0.8-0.8
			l-27-15.6c-1.3-0.7-2.9-0.7-4.2,0l-77.8,44.9c-0.7,0.2-1,1-0.8,1.6C28.3,113.1,28.6,113.4,28.9,113.6z"/>
		<path class="st1" d="M58.1,129.7v4.5c-0.7,0-1.4-0.2-2.1-0.5l-27-15.6c-0.5-0.2-0.8-0.7-0.9-1.2l0,0v-4.5l0,0
			c0-0.2,0.1-0.4,0.2-0.5c-0.3,0.6-0.1,1.3,0.7,1.7l27,15.6C56.6,129.5,57.3,129.7,58.1,129.7z"/>
		<ellipse class="st6" cx="112.1" cy="79.6" rx="12.7" ry="7.3"/>
		<path class="st9" d="M124.1,79.5L124.1,79.5V58.2h-21.4v21.4l0,0c-0.1,1.7,1,3.3,3.1,4.6c4.8,2.4,10.4,2.4,15.1,0
			C123.2,82.8,124.2,81.2,124.1,79.5z"/>
		<ellipse class="st5" cx="113.4" cy="58.2" rx="10.7" ry="6.2"/>
		<path class="st9" d="M106.3,62.2c4.5,2.2,9.7,2.2,14.2,0c3.9-2.2,3.9-5.8,0-8c-4.5-2.2-9.7-2.2-14.2,0
			C102.4,56.4,102.4,60,106.3,62.2z"/>
		<path class="st0" d="M120.5,55.2c-4.5-2.2-9.7-2.2-14.2,0c-1.4,0.7-2.5,1.9-2.9,3.5c0.4,1.5,1.5,2.8,2.9,3.5
			c4.5,2.2,9.7,2.2,14.2,0c1.4-0.7,2.5-1.9,2.9-3.5C123,57.1,122,55.9,120.5,55.2z"/>
		<path class="st1" d="M102.7,75.9c0,1.6,1,3.2,3.1,4.4c4.8,2.4,10.4,2.4,15.1,0c2.1-1.2,3.1-2.8,3.1-4.4V61.7c0,1.6-1,3.2-3.1,4.4
			c-4.8,2.4-10.4,2.4-15.1,0c-2.1-1.2-3.2-2.8-3.1-4.4V75.9z"/>
		<path class="st10" d="M117.8,85.4c-3.9,1-8.7,0.6-12-1.3c-2.2-1.3-3.2-2.9-3.1-4.6l0,0V58.2c0,1.6,1,3.2,3.1,4.4
			c0.3,0.2,0.7,0.4,1,0.5v19.1C106.9,83.9,112.8,86,117.8,85.4z"/>
		<path class="st1" d="M115.9,62l-1.1-0.7c-0.9-0.5-1.2-1.3-0.6-1.6c0.9-0.4,2-0.3,2.8,0.3l1.1,0.7c0.9,0.5,1.2,1.3,0.6,1.6
			C117.8,62.6,116.7,62.5,115.9,62z"/>
		<path class="st0" d="M114.7,60.7c0.4,0.2,0.8,0.2,1.2,0c0.2-0.1,0.3-0.3,0.2-0.5c0-0.1-0.1-0.2-0.2-0.2c-0.4-0.2-0.8-0.2-1.2,0
			c-0.2,0.1-0.3,0.3-0.2,0.5C114.5,60.6,114.6,60.7,114.7,60.7z"/>
		<path class="st0" d="M116.9,61.9c0.4,0.2,0.8,0.2,1.2,0c0.2-0.1,0.3-0.3,0.3-0.5c0-0.1-0.1-0.2-0.3-0.3c-0.4-0.2-0.8-0.2-1.2,0
			c-0.2,0.1-0.3,0.3-0.3,0.5C116.7,61.8,116.8,61.9,116.9,61.9z"/>
		<ellipse class="st6" cx="92.6" cy="90.8" rx="12.7" ry="7.3"/>
		<path class="st9" d="M104.6,90.8L104.6,90.8V69.4H83.2v21.4l0,0c-0.1,1.6,0.9,3.3,3.1,4.6c4.8,2.4,10.4,2.4,15.1,0
			C103.6,94.1,104.7,92.4,104.6,90.8z"/>
		<path class="st5" d="M86.3,73.8c4.8,2.4,10.4,2.4,15.1,0c4.2-2.4,4.2-6.3,0-8.7c-4.8-2.4-10.4-2.4-15.1,0
			C82.2,67.5,82.2,71.4,86.3,73.8z"/>
		<ellipse class="st9" cx="93.9" cy="69.4" rx="10" ry="5.7"/>
		<path class="st0" d="M101,66.4c-4.5-2.2-9.7-2.2-14.2,0c-1.4,0.7-2.5,1.9-2.9,3.5c0.4,1.5,1.5,2.8,2.9,3.5c4.5,2.2,9.7,2.2,14.2,0
			c1.4-0.7,2.5-2,2.9-3.5C103.5,68.4,102.4,67.1,101,66.4z"/>
		<path class="st1" d="M83.2,87.2c0,1.6,1,3.2,3.1,4.4c4.8,2.4,10.4,2.4,15.1,0c2.1-1.2,3.1-2.8,3.1-4.4V72.9c0,1.6-1,3.2-3.1,4.4
			c-4.8,2.4-10.4,2.4-15.1,0c-2.1-1.2-3.2-2.8-3.1-4.4V87.2z"/>
		<path class="st10" d="M98.3,96.6c-3.9,1-8.7,0.6-11.9-1.3c-2.2-1.3-3.2-2.9-3.1-4.6l0,0V69.4c0,1.6,1,3.2,3.1,4.4
			c0.3,0.2,0.7,0.4,1,0.5v19.1C87.4,95.2,93.3,97.3,98.3,96.6z"/>
		<path class="st1" d="M96.3,73.2l-1.1-0.7C94.3,72,94,71.3,94.7,71c0.9-0.3,2-0.2,2.8,0.3l1.1,0.7c0.9,0.5,1.2,1.3,0.6,1.6
			C98.2,73.9,97.2,73.8,96.3,73.2z"/>
		<path class="st0" d="M95.2,72c0.4,0.2,0.8,0.2,1.2,0c0.2-0.1,0.3-0.3,0.2-0.5c0-0.1-0.1-0.2-0.2-0.2c-0.4-0.2-0.8-0.2-1.2,0
			c-0.2,0.1-0.3,0.3-0.2,0.5C95,71.9,95.1,72,95.2,72z"/>
		<path class="st0" d="M97.4,73.2c0.4,0.2,0.8,0.2,1.2,0c0.2-0.1,0.3-0.3,0.2-0.5c0-0.1-0.1-0.2-0.2-0.2c-0.4-0.2-0.8-0.2-1.2,0
			c-0.2,0.1-0.3,0.3-0.3,0.5C97.2,73,97.3,73.1,97.4,73.2z"/>
		<path class="st6" d="M64.2,107.3c5,2.9,13,2.9,17.9,0s5-7.5,0-10.3s-13-2.9-17.9,0S59.2,104.4,64.2,107.3z"/>
		<path class="st9" d="M85.1,102L85.1,102V80.7H63.7V102l0,0c-0.1,1.6,0.9,3.3,3.1,4.6c4.8,2.4,10.4,2.4,15.1,0
			C84.1,105.3,85.2,103.7,85.1,102z"/>
		<path class="st5" d="M66.8,85c4.8,2.4,10.4,2.4,15.2,0c4.2-2.4,4.2-6.3,0-8.7c-4.8-2.4-10.4-2.4-15.1,0
			C62.7,78.7,62.7,82.6,66.8,85z"/>
		<ellipse class="st9" cx="74.4" cy="80.7" rx="10" ry="5.7"/>
		<path class="st0" d="M81.5,77.7c-4.5-2.2-9.7-2.2-14.2,0c-1.4,0.7-2.5,2-2.9,3.5c0.4,1.5,1.5,2.8,2.9,3.5c4.5,2.2,9.7,2.2,14.2,0
			c1.4-0.7,2.5-1.9,2.9-3.5C84,79.6,82.9,78.3,81.5,77.7z"/>
		<path class="st1" d="M63.7,98.4c0,1.6,1,3.2,3.1,4.4c4.8,2.4,10.4,2.4,15.1,0c2.1-1.2,3.1-2.8,3.1-4.4V84.1c0,1.6-1,3.2-3.1,4.4
			c-4.8,2.4-10.4,2.4-15.1,0c-2.1-1.2-3.2-2.8-3.1-4.4L63.7,98.4z"/>
		<path class="st10" d="M78.8,107.8c-3.9,1-8.7,0.6-11.9-1.3c-2.2-1.3-3.2-2.9-3.1-4.6l0,0V80.7c0,1.6,1,3.2,3.1,4.4
			c0.3,0.2,0.7,0.4,1,0.5v19.1C67.9,106.4,73.8,108.5,78.8,107.8z"/>
		<path class="st1" d="M76.8,84.5l-1.1-0.7c-0.9-0.5-1.2-1.3-0.6-1.6c0.9-0.3,2-0.2,2.8,0.3l1.1,0.7c0.9,0.5,1.2,1.3,0.6,1.6
			C78.7,85.1,77.7,85,76.8,84.5z"/>
		<path class="st0" d="M75.7,83.2c0.4,0.2,0.8,0.2,1.2,0c0.3-0.2,0.3-0.5,0-0.7c-0.4-0.2-0.8-0.2-1.2,0C75.3,82.7,75.3,83,75.7,83.2
			z"/>
		<path class="st0" d="M77.9,84.4c0.4,0.2,0.8,0.2,1.2,0c0.2-0.1,0.3-0.3,0.2-0.5c0-0.1-0.1-0.2-0.2-0.2c-0.4-0.2-0.8-0.2-1.2,0
			c-0.2,0.1-0.3,0.3-0.2,0.5C77.7,84.3,77.8,84.4,77.9,84.4z"/>
		<path class="st6" d="M44.7,118.5c4.9,2.8,13,2.8,17.9,0s4.9-7.5,0-10.3s-13-2.9-17.9,0S39.7,115.7,44.7,118.5z"/>
		<path class="st9" d="M65.6,113.3L65.6,113.3V91.9H44.2v21.4l0,0c-0.1,1.7,0.9,3.3,3.1,4.6c4.7,2.4,10.4,2.4,15.1,0
			C64.6,116.6,65.7,114.9,65.6,113.3z"/>
		<ellipse class="st5" cx="54.9" cy="91.9" rx="10.7" ry="6.2"/>
		<path class="st9" d="M47.8,95.9c4.5,2.2,9.7,2.2,14.2,0c3.9-2.2,3.9-5.8,0-8c-4.5-2.2-9.7-2.2-14.2,0
			C43.8,90.1,43.8,93.7,47.8,95.9z"/>
		<path class="st0" d="M62,88.9c-4.5-2.2-9.7-2.2-14.2,0c-1.4,0.7-2.5,1.9-2.9,3.5c0.4,1.5,1.5,2.8,2.9,3.5c4.5,2.2,9.7,2.2,14.2,0
			c1.4-0.7,2.5-1.9,2.9-3.5C64.5,90.9,63.4,89.6,62,88.9z"/>
		<path class="st1" d="M44.2,109.7c0,1.6,1,3.2,3.1,4.4c4.8,2.4,10.4,2.4,15.1,0c2.1-1.2,3.1-2.8,3.1-4.4V95.4c0,1.6-1,3.2-3.1,4.4
			c-4.8,2.4-10.4,2.4-15.1,0c-2.1-1.2-3.2-2.8-3.1-4.4L44.2,109.7z"/>
		<path class="st10" d="M59.3,119.1c-3.9,1-8.7,0.6-11.9-1.3c-2.2-1.3-3.2-2.9-3.1-4.6l0,0V91.9c0,1.6,1,3.2,3.1,4.4
			c0.3,0.2,0.7,0.4,1,0.5v19.1C48.3,117.7,54.3,119.8,59.3,119.1z"/>
		<path class="st1" d="M57.3,95.7L56.2,95c-0.9-0.5-1.2-1.3-0.5-1.6c0.9-0.3,2-0.2,2.8,0.3l1.1,0.7c0.9,0.5,1.2,1.3,0.5,1.6
			C59.2,96.4,58.2,96.2,57.3,95.7z"/>
		<path class="st0" d="M56.1,94.4c0.4,0.2,0.8,0.2,1.2,0c0.2-0.1,0.3-0.3,0.3-0.5c0-0.1-0.1-0.2-0.3-0.3c-0.4-0.2-0.8-0.2-1.2,0
			c-0.2,0.1-0.3,0.3-0.2,0.5C55.9,94.3,56,94.4,56.1,94.4z"/>
		<path class="st0" d="M58.4,95.7c0.4,0.2,0.8,0.2,1.2,0c0.2-0.1,0.3-0.3,0.2-0.5c0-0.1-0.1-0.2-0.2-0.2c-0.4-0.2-0.8-0.2-1.2,0
			c-0.2,0.1-0.3,0.3-0.2,0.5C58.2,95.5,58.3,95.6,58.4,95.7z"/>
	</g>
	<g id="freepik--cans--inject-1--inject-76" class="st3">
		<path class="st1" d="M31.3,164.4c-0.1,0.1-0.1,0.2-0.2,0.3C31.2,164.6,31.2,164.5,31.3,164.4z"/>
		<path class="st4" d="M138.8,151.2v-4.5l0,0c-0.1-0.5-0.4-1-0.9-1.2l-27.1-15.6c-1.3-0.7-2.9-0.7-4.2,0l-77.8,44.9
			c-0.5,0.2-0.9,0.7-0.9,1.3l0,0v4.5l0,0c0.1,0.5,0.4,1,0.9,1.2L56,197.3c1.3,0.7,2.9,0.7,4.2,0l77.8-44.9
			C138.4,152.2,138.7,151.7,138.8,151.2L138.8,151.2z"/>
		<path class="st5" d="M28.9,177.1L56,192.8c1.3,0.7,2.9,0.7,4.2,0l77.8-44.9c0.7-0.2,1-1,0.8-1.6c-0.1-0.4-0.4-0.7-0.8-0.8
			l-27.1-15.6c-1.3-0.7-2.9-0.7-4.2,0l-77.8,44.9c-0.7,0.2-1,0.9-0.8,1.6C28.3,176.7,28.6,177,28.9,177.1z"/>
		<path class="st1" d="M58.1,193.3v4.5c-0.7,0-1.4-0.2-2.1-0.5l-27-15.6c-0.5-0.2-0.8-0.7-0.9-1.2l0,0V176l0,0
			c0-0.2,0.1-0.4,0.2-0.5c-0.3,0.6-0.1,1.3,0.7,1.7l27,15.6C56.6,193.1,57.3,193.3,58.1,193.3z"/>
		<ellipse class="st6" cx="112.1" cy="143.2" rx="12.7" ry="7.3"/>
		<path class="st9" d="M124.1,143.1L124.1,143.1v-21.4h-21.4v21.4l0,0c-0.1,1.6,1,3.3,3.1,4.6c4.8,2.4,10.4,2.4,15.1,0
			C123.2,146.4,124.2,144.8,124.1,143.1z"/>
		<ellipse class="st5" cx="113.4" cy="121.8" rx="10.7" ry="6.2"/>
		<ellipse class="st9" cx="113.4" cy="121.8" rx="10" ry="5.7"/>
		<path class="st0" d="M120.5,118.8c-4.5-2.2-9.7-2.2-14.2,0c-1.4,0.7-2.5,1.9-2.9,3.5c0.4,1.5,1.5,2.8,2.9,3.5
			c4.5,2.2,9.7,2.2,14.2,0c1.4-0.7,2.5-1.9,2.9-3.5C123,120.7,122,119.5,120.5,118.8z"/>
		<path class="st1" d="M102.7,139.5c0,1.6,1,3.2,3.1,4.4c4.8,2.4,10.4,2.4,15.1,0c2.1-1.2,3.1-2.8,3.1-4.4v-14.3
			c0,1.6-1,3.2-3.1,4.4c-4.8,2.4-10.4,2.4-15.1,0c-2.1-1.2-3.2-2.8-3.1-4.4V139.5z"/>
		<path class="st10" d="M117.8,149c-3.9,1-8.7,0.6-12-1.3c-2.2-1.3-3.2-2.9-3.1-4.6l0,0v-21.4c0,1.6,1,3.2,3.1,4.4
			c0.3,0.2,0.7,0.4,1,0.5v19.1C106.9,147.5,112.8,149.6,117.8,149z"/>
		<path class="st1" d="M115.9,125.6l-1.1-0.7c-0.9-0.5-1.2-1.3-0.6-1.6c0.9-0.3,2-0.2,2.8,0.3l1.1,0.7c0.9,0.5,1.2,1.3,0.6,1.6
			C117.7,126.2,116.7,126.1,115.9,125.6z"/>
		<path class="st0" d="M114.7,124.3c0.4,0.2,0.8,0.2,1.2,0c0.2-0.1,0.3-0.3,0.2-0.5c0-0.1-0.1-0.2-0.2-0.2c-0.4-0.2-0.8-0.2-1.2,0
			c-0.2,0.1-0.3,0.3-0.2,0.5C114.5,124.2,114.6,124.3,114.7,124.3z"/>
		<path class="st0" d="M116.9,125.5c0.4,0.2,0.8,0.2,1.2,0c0.2-0.1,0.3-0.3,0.3-0.5c0-0.1-0.1-0.2-0.3-0.3c-0.4-0.2-0.8-0.2-1.2,0
			c-0.2,0.1-0.3,0.3-0.3,0.5C116.7,125.4,116.8,125.5,116.9,125.5z"/>
		<path class="st6" d="M83.7,159.6c5,2.9,13,2.9,17.9,0s5-7.5,0-10.3s-13-2.9-17.9,0S78.7,156.8,83.7,159.6z"/>
		<path class="st9" d="M104.6,154.4L104.6,154.4V133H83.2v21.4l0,0c-0.1,1.6,0.9,3.3,3.1,4.6c4.8,2.4,10.4,2.4,15.1,0
			C103.6,157.7,104.7,156,104.6,154.4z"/>
		<ellipse class="st5" cx="93.9" cy="133" rx="10.7" ry="6.2"/>
		<ellipse class="st9" cx="93.9" cy="133" rx="10" ry="5.7"/>
		<path class="st0" d="M101,130c-4.5-2.2-9.7-2.2-14.2,0c-1.4,0.7-2.5,1.9-2.9,3.5c0.4,1.5,1.5,2.8,2.9,3.5c4.5,2.2,9.7,2.2,14.2,0
			c1.4-0.7,2.5-2,2.9-3.5C103.5,132,102.4,130.7,101,130z"/>
		<path class="st1" d="M83.2,150.8c0,1.6,1,3.2,3.1,4.4c4.8,2.4,10.4,2.4,15.1,0c2.1-1.2,3.1-2.8,3.1-4.4v-14.3c0,1.6-1,3.2-3.1,4.4
			c-4.8,2.4-10.4,2.4-15.1,0c-2.1-1.2-3.2-2.8-3.1-4.4V150.8z"/>
		<path class="st10" d="M98.3,160.2c-3.9,1-8.7,0.6-11.9-1.3c-2.2-1.3-3.2-2.9-3.1-4.6l0,0V133c0,1.6,1,3.2,3.1,4.4
			c0.3,0.2,0.7,0.4,1,0.5V157C87.4,158.8,93.3,160.9,98.3,160.2z"/>
		<path class="st1" d="M96.3,136.8l-1.1-0.7c-0.9-0.5-1.2-1.3-0.6-1.6c0.9-0.3,2-0.2,2.8,0.3l1.1,0.6c0.9,0.5,1.2,1.3,0.6,1.6
			C98.2,137.5,97.2,137.4,96.3,136.8z"/>
		<path class="st0" d="M95.2,135.6c0.4,0.2,0.8,0.2,1.2,0c0.2-0.1,0.3-0.3,0.2-0.5c0-0.1-0.1-0.2-0.2-0.2c-0.4-0.2-0.8-0.2-1.2,0
			c-0.2,0.1-0.3,0.3-0.2,0.5C95,135.4,95.1,135.5,95.2,135.6z"/>
		<path class="st0" d="M97.4,136.8c0.4,0.2,0.8,0.2,1.2,0c0.3-0.2,0.3-0.5,0-0.7c-0.4-0.2-0.8-0.2-1.2,0
			C97.1,136.3,97.1,136.6,97.4,136.8z"/>
		<ellipse class="st6" cx="73.1" cy="165.7" rx="12.7" ry="7.3"/>
		<path class="st9" d="M85.1,165.6L85.1,165.6v-21.4H63.7v21.4l0,0c-0.1,1.6,0.9,3.3,3.1,4.6c4.8,2.4,10.4,2.4,15.1,0
			C84.1,168.9,85.2,167.3,85.1,165.6z"/>
		<path class="st5" d="M66.8,148.6c4.8,2.4,10.4,2.4,15.1,0c4.2-2.4,4.2-6.3,0-8.7c-4.8-2.4-10.4-2.4-15.1,0
			C62.7,142.3,62.7,146.2,66.8,148.6z"/>
		<path class="st9" d="M67.3,148.3c4.5,2.2,9.7,2.2,14.2,0c3.9-2.2,3.9-5.8,0-8c-4.5-2.2-9.7-2.2-14.2,0
			C63.4,142.5,63.4,146.1,67.3,148.3z"/>
		<path class="st0" d="M81.5,141.3c-4.5-2.2-9.7-2.2-14.2,0c-1.4,0.7-2.5,1.9-2.9,3.5c0.4,1.5,1.5,2.8,2.9,3.5
			c4.5,2.2,9.7,2.2,14.2,0c1.4-0.7,2.5-1.9,2.9-3.5C84,143.2,82.9,141.9,81.5,141.3z"/>
		<path class="st1" d="M63.7,162c0,1.6,1,3.2,3.1,4.4c4.8,2.4,10.4,2.4,15.1,0c2.1-1.2,3.1-2.8,3.1-4.4v-14.3c0,1.6-1,3.2-3.1,4.4
			c-4.8,2.4-10.4,2.4-15.1,0c-2.1-1.2-3.2-2.8-3.1-4.4L63.7,162z"/>
		<path class="st10" d="M78.8,171.4c-3.9,1-8.7,0.6-11.9-1.3c-2.2-1.3-3.2-2.9-3.1-4.6l0,0v-21.4c0,1.6,1,3.2,3.1,4.4
			c0.3,0.2,0.7,0.4,1,0.5v19.1C67.9,170,73.8,172.1,78.8,171.4z"/>
		<path class="st1" d="M76.8,148.1l-1.1-0.7c-0.9-0.5-1.2-1.3-0.6-1.6c0.9-0.3,2-0.2,2.8,0.3l1.1,0.7c0.9,0.5,1.2,1.3,0.6,1.6
			C78.7,148.7,77.7,148.6,76.8,148.1z"/>
		<path class="st0" d="M75.7,146.8c0.4,0.2,0.8,0.2,1.2,0c0.2-0.1,0.3-0.3,0.2-0.5c0-0.1-0.1-0.2-0.2-0.2c-0.4-0.2-0.8-0.2-1.2,0
			c-0.2,0.1-0.3,0.3-0.3,0.5C75.4,146.7,75.5,146.8,75.7,146.8z"/>
		<path class="st0" d="M77.9,148c0.4,0.2,0.8,0.2,1.2,0c0.2-0.1,0.3-0.3,0.2-0.5c0-0.1-0.1-0.2-0.2-0.2c-0.4-0.2-0.8-0.2-1.2,0
			c-0.2,0.1-0.3,0.3-0.2,0.5C77.7,147.9,77.8,148,77.9,148z"/>
		<path class="st6" d="M44.7,182.1c4.9,2.9,13,2.9,17.9,0s4.9-7.5,0-10.4s-13-2.9-17.9,0S39.7,179.3,44.7,182.1z"/>
		<path class="st9" d="M65.6,176.9L65.6,176.9v-21.4H44.2v21.4l0,0c-0.1,1.6,0.9,3.3,3.1,4.6c4.8,2.4,10.4,2.4,15.1,0
			C64.6,180.2,65.7,178.5,65.6,176.9z"/>
		<ellipse class="st5" cx="54.9" cy="155.5" rx="10.7" ry="6.2"/>
		<ellipse class="st9" cx="54.9" cy="155.5" rx="10" ry="5.7"/>
		<path class="st0" d="M62,152.5c-4.5-2.2-9.7-2.2-14.2,0c-1.4,0.7-2.5,1.9-2.9,3.5c0.4,1.5,1.5,2.8,2.9,3.5c4.5,2.2,9.7,2.2,14.2,0
			c1.4-0.7,2.5-1.9,2.9-3.5C64.5,154.5,63.4,153.2,62,152.5z"/>
		<path class="st1" d="M44.2,173.3c0,1.6,1,3.2,3.1,4.4c4.8,2.4,10.4,2.4,15.1,0c2.1-1.2,3.1-2.8,3.1-4.4V159c0,1.6-1,3.2-3.1,4.4
			c-4.8,2.4-10.4,2.4-15.1,0c-2.1-1.2-3.2-2.8-3.1-4.4L44.2,173.3z"/>
		<path class="st10" d="M59.3,182.7c-3.9,1-8.7,0.6-11.9-1.3c-2.2-1.3-3.2-2.9-3.1-4.6l0,0v-21.4c0,1.6,1,3.2,3.1,4.4
			c0.3,0.2,0.7,0.4,1,0.5v19.1C48.3,181.3,54.3,183.4,59.3,182.7z"/>
		<path class="st1" d="M57.3,159.3l-1.1-0.7c-0.9-0.5-1.2-1.3-0.5-1.6c0.9-0.3,2-0.2,2.8,0.3l1.1,0.7c0.9,0.5,1.2,1.3,0.5,1.6
			C59.2,160,58.2,159.8,57.3,159.3z"/>
		<path class="st0" d="M56.1,158c0.4,0.2,0.8,0.2,1.2,0c0.2-0.1,0.3-0.3,0.3-0.5c0-0.1-0.1-0.2-0.3-0.3c-0.4-0.2-0.8-0.2-1.2,0
			c-0.2,0.1-0.3,0.3-0.2,0.5C55.9,157.9,56,158,56.1,158z"/>
		<path class="st0" d="M58.4,159.3c0.4,0.2,0.8,0.2,1.2,0c0.2-0.1,0.3-0.3,0.2-0.5c0-0.1-0.1-0.2-0.2-0.2c-0.4-0.2-0.8-0.2-1.2,0
			c-0.2,0.1-0.3,0.3-0.2,0.5C58.2,159.1,58.3,159.2,58.4,159.3z"/>
	</g>
</g>
<g id="freepik--Characters--inject-1--inject-76">
	<g id="freepik--characters--inject-1--inject-76">
		<path id="freepik--back-arm--inject-1--inject-76" class="st11" d="M209.7,128.2c3.2-0.6,6.5,0.1,9.1,2.1
			c4.2,3.3,5.7,7.6,6.9,15.4s3,21.6,3,21.6l25.5,18.2c-0.9,0.5-6.4,7-6.9,9.9c0,0-20.2-7.6-28.6-12.2s-8.2-6.7-9.1-10.1
			s-4.4-30.2-3.6-36.1S207.6,129,209.7,128.2z"/>
		<g id="freepik--character-boy--inject-1--inject-76">
			<path class="st11" d="M83.7,301.1c-0.9-0.5-3.5,0.8-4.3,1.6s-1.7,3.4-1.8,5.7c-0.1,1.6,0.8,3.8-0.6,7c-1.8,4.4-3.6,8.5-3,13.9
				s1.8,6.9,3.5,8.8c1.9,2.3,4.8,3.5,7.8,3.3c1.5,0,2.8-0.8,3.6-2L83.7,301.1z"/>
			<polygon class="st12" points="172.8,338.4 185.2,341 189.8,319.3 177.4,316.8 			"/>
			<path class="st13" d="M187.4,272.4c0.3,2.4-1.3,6-2.8,9c-4.7,9.3-9.8,39.9-11.3,48.5c4.3,2.8,9.4,4,14.5,3.1
				c0,0,22.5-51.7,23.6-56.1c1.7-6.7,3.4-37.2,4-48.9c0.7-14.3,1.8-28.8,1.8-28.8l-54.6-4.6c0,0-3.5,13.3-5.9,21.2
				s-8.3,30.8-11.8,37c-1.7,2.9-4.3,5.2-7.4,6.6c-15.7,6-33.6,30.7-40.7,36c0,10,8.3,11.9,8.3,11.9s47.6-30.2,51.6-32.8
				c6-3.9,10.5-9.9,15.2-19.6c5.2-10.8,14.1-31.4,14.1-31.4S186.5,264.3,187.4,272.4z"/>
			<path class="st14" d="M187.4,272.4c0.3,2.4-1.3,6-2.8,9c-4.7,9.3-9.8,39.9-11.3,48.5c4.3,2.8,9.4,4,14.5,3.1
				c0,0,22.5-51.7,23.6-56.1c1.7-6.7,3.4-37.2,4-48.9c0.7-14.3,1.8-28.8,1.8-28.8l-54.6-4.6c0,0-3.5,13.3-5.9,21.2
				s-8.3,30.8-11.8,37c-1.7,2.9-4.3,5.2-7.4,6.6c-15.7,6-33.6,30.7-40.7,36c0,10,8.3,11.9,8.3,11.9s47.6-30.2,51.6-32.8
				c6-3.9,10.5-9.9,15.2-19.6c5.2-10.8,14.1-31.4,14.1-31.4S186.5,264.3,187.4,272.4z"/>
			<path class="st15" d="M186,223.6c0,0.2,0.3,37.3,1.3,47.6l2.5-46c3.7-1.7,6.9-4.4,9.3-7.8C191.8,222.5,186.1,223.6,186,223.6
				L186,223.6z"/>
			<path class="st10" d="M209.8,260.9c-2.6-0.5-4.9-2.1-7.6-2.2c-0.6-0.1-1.3,0.1-1.8,0.5c-1.1,1.3-1.8,2.9-2.1,4.6
				c-0.1,1.1,0.2,2.3-0.5,3.2s-1.7,0.9-2.6,1.3c-0.7,0.4-1.3,0.9-1.7,1.5c-0.8,1-1.4,2.5-0.6,3.4c0.8,0.7,2,1,3,0.6
				c1-0.3,2.1-0.4,3.1-0.2c1.3,0.6,2.1,2.1,1.8,3.5c-0.1,1.4-0.7,2.7-0.9,4.1c-0.2,0.9,0,1.8,0.6,2.6c1.1,1.5,3.6,1.4,5.1,0.2
				c1.4-1.3,2.4-2.9,2.9-4.6l2-5.1c0.4-1.2,1-2.4,1.8-3.4c0.3-2.6,0.6-5.8,0.9-9.2C212.1,261.4,210.9,261.1,209.8,260.9z"/>
			<path class="st10" d="M194.9,260.6c1.6-0.7,2.5-2.4,2.2-4.1c-0.4-1.6-1.3-3.1-2.6-4.1c-1.2-1-2.6-1.8-3.1-3.2
				c-0.3-1.3-0.1-2.7,0.6-3.8c0.7-1.1,1.2-2.3,1.6-3.6c0.3-1.3-0.3-2.7-1.4-3.4c-1.6-0.7-3.4,0.4-4.5,1.6c-0.4,0.4-0.8,0.9-1.2,1.4
				c0.1,5.3,0.2,11,0.4,16.2c1,0.4,1.9,0.9,2.8,1.6C191.1,260.3,193.1,261.3,194.9,260.6z"/>
			<path class="st16" d="M181.1,231.5c-0.5-1.7-0.4-3.6,0.2-5.3c0.6-1.7,0.8-3.5,0.5-5.3c-0.6-2-2.5-3.3-4.5-3.1
				c-1.4,0.3-2.6,1.5-2.9,2.9c-0.3,1.4-0.6,2.8-0.8,4.2c-0.2,1.2-0.8,2.3-1.8,3c-1,0.5-2,1.1-2.8,1.8c-0.7,0.7-1.2,1.7-1.4,2.7
				c-0.1,0.9,0.2,1.7,0.8,2.3c0.5,0.6,1.2,0.9,1.6,1.6c0.6,1,0,2.3-0.2,3.5c-0.2,1.5,0.3,3.1,1.3,4.2c1.1,1.2,2.5,2,4,2.4
				c0.3,0.1,0.5,0.1,0.8,0.1c2.1-4.5,4.2-9.4,6-13.4C181.6,232.6,181.3,232.1,181.1,231.5z"/>
			<path class="st10" d="M173.4,251.9l-0.4-0.4c-1.4-1.4-3.3-2.2-5.3-2.3c-0.4-0.1-0.8-0.1-1.2,0c-0.5,0.1-1.1,0.4-1.5,0.7
				c-0.8,0.5-1.5,1.1-2.2,1.8c-1,1.1-1.6,2.6-2.6,3.9c-1,1.4-2.4,2.4-4,2.8c-1.1,0.3-2.4,0.2-3.3,0.8c-1,0.7-1.1,2.1-0.4,3.1
				c0.1,0.1,0.1,0.1,0.2,0.2c0.9,0.9,2.6,1,2.9,2.2c0.1,0.8-0.1,1.6-0.7,2.1c-0.5,0.6-1,1.2-1.5,1.8c-0.3,0.3-0.5,0.6-0.6,1
				c0,0.6,0.4,1.2,1,1.4c0.6,0.2,1.2,0.2,1.9,0c3.4-0.6,6.4-2.3,8.6-4.9c0.8-1.2,1.8-2.3,2.8-3.3c0.2-0.2,0.5-0.3,0.8-0.5
				c1.4-2.2,2.7-4.7,4-7.4C172.4,254.1,172.9,253,173.4,251.9z"/>
			<path class="st16" d="M183.7,303.2c-0.6-1.5,0.8-3,0.5-4.6c-0.1-0.5-0.4-1-0.7-1.5c-0.9-1-2-1.8-3.3-2.1
				c-0.9,3.6-1.7,7.5-2.5,11.3c2,1.4,4.4,2.1,6.8,1.9c0.7,0,1.4-0.4,1.8-1c0.3-0.8-0.2-1.6-0.8-2.2
				C184.7,304.6,184.2,304,183.7,303.2z"/>
			<path class="st17" d="M205,248.3c-1.4,0.9-2.9,2-2.7,3.6s2.3,2.3,3.9,2.8c2.3,0.7,4.4,1.7,6.4,3c0.3,0.2,0.6,0.4,1,0.6
				c0.6-7.7,1.1-16.3,1.5-23c-0.7-0.4-1.5-0.7-2.4-0.7c-1-0.1-1.9,0.3-2.5,1.1c-0.3,0.5-0.5,1.2-0.4,1.8c0.1,1.5,0.7,2.9,0.6,4.4
				C210.2,244.7,207.5,246.8,205,248.3z"/>
			<path class="st17" d="M207.9,206.4c0-0.5-0.2-1-0.5-1.5c-0.4-0.5-0.9-0.9-1.5-1.1c-2.5-1.3-5.1-2.3-7.8-3c-2.1-0.6-4.2-1-6.4-0.9
				c-1.6,0.1-4-0.2-5.4,0.5c-1,0.4-1.8,1.3-2.1,2.3c-0.1,0.7,0,1.4,0.3,2c0.9,2.1,1.1,4.4,0.7,6.7c-0.3,2.3-0.1,4.3,2.1,5.7
				c1.5,0.9,3.3,1.1,4.9,0.5c1.1-0.4,2.1-1.1,3-1.9c1.6-1.4,3.2-2.9,5.2-3.5c1.5-0.5,3.2-0.5,4.6-1.1
				C206.8,210.2,207.9,208.4,207.9,206.4z"/>
			<path class="st16" d="M204.5,229.8c-1-0.6-2.4-0.9-3.3-1.7s-0.8-2.3-1.5-3.4c-0.5-0.7-1.2-1.1-2.1-1.1c-1.3,0.1-2.1,1.4-2.4,2.7
				s-0.2,2.6-1,3.6c-0.5,0.6-1.1,1.1-1.8,1.6c-2.8,2.4,0.5,3.7,2,5.2c2.7,2.7-1.2,6.3,1,9.1c1.2,1.3,3.1,1.6,4.7,0.8
				c1.5-0.8,2.6-2.2,3.3-3.8c0.7-1.5,1.1-3.2,1.8-4.7c0.7-1.1,1.2-2.4,1.5-3.6C206.9,232.7,206.1,230.8,204.5,229.8z"/>
			<path class="st17" d="M192.4,295.2c1.2-1.5,1.1-3.7,0.6-5.5c-0.5-1.2-0.6-2.5-0.4-3.8c0.8-2.5,4.5-3.7,4.3-6.2
				c-0.1-1.7-2-2.8-3.7-3s-3.5,0.3-5.2,0.2c-0.4,0-0.9-0.1-1.3-0.3c-0.6,1.7-1.3,3.3-2.1,4.8c-1.4,3-2.5,6.1-3.3,9.3
				c1.6,1.3,2.4,3.4,4,4.7C187.3,297.2,190.8,297.3,192.4,295.2z"/>
			<path class="st16" d="M197.4,289c-1.7,1.7-2.5,4-2.3,6.3c0.1,2.7,1,5.7-0.7,7.9c-1,1.3-2.8,2.3-2.5,3.9c0.2,1.2,1.6,1.7,2.8,2.1
				c1,0.3,2,0.6,3.1,0.8c3.3-7.7,6.8-15.9,9.4-22.2C203.6,286.8,199.4,287.2,197.4,289z"/>
			<path class="st10" d="M210.8,207.9c-0.7,2-0.8,4.2-1.9,6c-1,1.5-2.2,2.9-3.7,3.9c-0.8,0.5-1.4,1.3-1.9,2.1
				c-0.8,1.8,0.5,3.9,2.2,5s3.7,1.6,5.4,2.6c1.2,0.7,2.2,1.6,3.4,2.3c0.3,0.2,0.6,0.3,0.9,0.4c0-0.8,0.1-1.5,0.1-2.2
				c0.4-9,1-18,1.4-23.5c-0.2-0.1-0.5-0.2-0.7-0.3C213.4,203.3,211.6,205.7,210.8,207.9z"/>
			<path class="st10" d="M157.3,214c1.4,1.4,3.5,1.9,5.2,2.9c1.4,0.8,2.6,2,3.5,3.5c0.3,0.7,0.8,1.3,1.4,1.9
				c1.4,0.9,3.2,0.6,4.3-0.6c0.9-1.3,1.2-2.9,0.6-4.4c-0.4-0.9-0.7-1.8-0.8-2.8c-0.1-1.9,1.3-3.5,2.7-4.8s3-2.6,3.5-4.5
				c0.4-1.7-0.1-3.5-1.3-4.8c-1.2-1.3-2.6-2.4-4.2-3.1c-1.5-0.8-3.1-1.6-4.7-2.2l-4.8-0.4C162.6,194.6,159.6,206,157.3,214z"/>
			<path class="st16" d="M149.8,276.5c-0.7-0.3-1.5-0.5-2.3-0.6c-0.8-0.2-1.4-0.7-1.8-1.4c-0.2-0.8,0.3-1.5,0.6-2.2
				c0.4-0.9,0.7-1.9,0.8-2.9c0.1-1.3-0.4-2.6-1.4-3.4c-0.7-0.4-1.4-0.7-2.2-0.7c-1.8-0.2-3.6,0.5-4.8,2c-0.5,0.9-0.9,1.8-1,2.9
				c-0.2,1-0.5,2-1.1,2.8c-0.8,1-2.4,1.4-3.8,2c-1.2,0.4-2,1.4-2.1,2.6c-0.1,2.3,3.6,3.5,3.4,5.8c-0.2,0.8-0.5,1.6-1.1,2.3
				c-0.6,1.1-0.9,2.4-0.8,3.6c0,0.2,0.1,0.5,0.1,0.7c7.1-4.5,14.1-9,18.8-11.9C151,277.4,150.5,276.9,149.8,276.5z"/>
			<path class="st17" d="M150.7,242.5c0.3,1.3,0.1,2.6,0.3,3.9c0.1,1,0.6,2,1.4,2.6c0.8,0.5,1.7,0.6,2.6,0.4c1.6-0.1,3-0.9,4-2.2
				c1-1.5,1.4-3.3,1.3-5.1c-0.2-0.9-0.3-1.8-0.3-2.8c0.1-2.3,1.8-4.2,3.3-6s3-4,2.4-6.2c-0.3-1-0.8-1.8-1.5-2.6
				c-2.3-2.4-5.2-4.1-8.4-5.1c-1.6,5.5-3.8,13.6-6,20.6C150.1,240.9,150.5,241.7,150.7,242.5z"/>
			<path class="st16" d="M137.5,259.4c-1.2,0.5-2.4,1-3.5,1.6c0.1,0.9,0.2,1.7,0.5,2.5c0.1,0.7,0.6,1.4,1.3,1.7
				c1,0.3,1.9-0.6,2.7-1.3c1.1-1.1,2.5-2,4-2.5c1.4-0.5,2.8-0.4,4.3-0.7c2.4-0.6,4.1-2.8,4.2-5.3c-0.1-2.5-1.4-4.7-3.6-6
				c-0.2-0.1-0.4-0.3-0.6-0.4c-0.5,1.3-1,2.5-1.7,3.7C143.2,255.6,140.6,258,137.5,259.4z"/>
			<path class="st17" d="M114,277.6c0.2,0.2,0.3,0.4,0.6,0.6c0.9,0.8,2.3,1.1,2.7,2.2c0.2,0.8-0.1,1.6-0.6,2.2
				c-0.5,0.6-0.9,1.3-1.2,2c-0.3,1.4,0.9,2.9,2.3,3.4c1.5,0.4,3.1,0.3,4.5-0.3c2.2-0.7,4.4-2,4.9-4.1c0.4-1.7-0.5-3.4-1.5-4.9
				c-0.3-0.4-0.5-0.8-0.7-1.2c-0.1-0.8,0-1.5,0.4-2.2c1-1.9,2.7-3.3,4-4.9s2.5-3.6,2.2-5.7c-0.1-0.7-0.4-1.4-0.9-1.8
				C125,266.7,119.2,272.2,114,277.6z"/>
			<path class="st18" d="M169.1,132.8c-1.4,1.8-2.4,5.3-2.4,9.3v29l-5.7,26.6c7.5,8.3,48.1,16.9,55.6,4.8c0,0,6.7-43.2,6.6-51.6
				c0-5.8-1.6-19-11.8-22.8l-22.3-0.6l-5.7-0.8C177.9,127.1,173.4,127.4,169.1,132.8z"/>
			<circle class="st11" cx="210.9" cy="91.6" r="15.3"/>
			<path class="st11" d="M183.9,101c0,0,1.8,11.8,2.7,13.7c0.6,1.2,1.6,2.2,2.9,2.6l0.3-8.2L183.9,101z"/>
			<path class="st11" d="M187.9,84.5c-1.8-0.3-3.6,0.2-4.9,1.5c-2.1,2-1.4,8.6,0.8,15.1l4.6,0.8L187.9,84.5z"/>
			<path class="st12" d="M189.9,101.9c-1,0.5-2.2-1.4-3.3-2.6s-4.8-3.1-6.9,0.7s1.1,9.4,4.1,10.5c5,1.9,6-1.3,6-1.3l-0.6,18.4
				c4.1,5.2,20.1,9.8,16.6,0.4l0.3-5.6c1.9,0.5,3.8,0.8,5.8,0.8c3.8-0.4,6.3-2.7,7.9-6.7c2.7-6.6,3.5-13.4,3.2-25.2
				c-0.4-14.2-17.3-15.2-26.4-10.1S189.9,101.9,189.9,101.9z"/>
			<path class="st11" d="M189.8,103.5c-0.4-0.2-2.1-3.1-3.2-4.2c-1.5-1.6,1.3-14.7,1.3-14.7s-1.4-3.4,1.9-6.6c1.7-1.7,3.7-2.9,6-3.6
				c3.3-0.9,6.5-0.2,9.7,0.5c3.4,0.9,6.9,1.4,10.5,1.3c2.8-0.2,5.4-0.9,7.9-2.2c0.5-0.3,1-0.5,1.6-0.5c1.2,0.1,1.4,1.5,1.3,2.4
				c-0.2,1.8-1,3.5-2.1,4.8c0.8-0.1,2-0.1,2.2,0.7c0.1,0.2,0.1,0.5,0,0.7c-0.2,0.7-0.6,1.4-1.1,2c-3.5,4.1-9.8,5.6-15.1,5.3
				c-4.4-0.3-8.5-2.1-12.9-2.3c-0.6-0.1-1.2,0-1.8,0.2c-0.8,0.3-1.4,0.9-1.8,1.7c-0.4,0.8-0.6,1.6-0.7,2.4c-0.6,2.9-0.5,5.9-0.9,8.8
				C192.4,101.9,191.9,104.6,189.8,103.5z"/>
			<path class="st11" d="M187.8,85.6l-5.5-3.3c0.8-1.5,2.7-2.1,4.2-1.2c0,0,0.1,0,0.1,0.1C188.2,82,188.7,84,187.8,85.6z"/>
			<path class="st19" d="M206.1,122.5c0,0-8.3-2.2-11.1-3.9c-1.7-1-3-2.5-3.8-4.2c0.4,1.7,1.1,3.4,2.1,4.9c2,2.8,12.8,5.5,12.8,5.5
				L206.1,122.5z"/>
			<path class="st11" d="M207.9,100.6c-0.1,0.9-0.9,1.6-1.8,1.5c-0.9-0.1-1.6-0.9-1.5-1.8c0.1-0.9,0.9-1.6,1.8-1.5
				C207.2,98.8,207.9,99.6,207.9,100.6C207.9,100.6,207.9,100.6,207.9,100.6z"/>
			<path class="st11" d="M206.5,94.8l-3.7,1.8c-0.5-1.1,0-2.3,1-2.8C204.8,93.3,206,93.7,206.5,94.8
				C206.5,94.7,206.5,94.8,206.5,94.8z"/>
			<path class="st19" d="M205.9,112.3l4.6,2c-0.5,1.3-1.9,1.9-3.2,1.4c0,0-0.1,0-0.1,0C206,115.1,205.4,113.6,205.9,112.3z"/>
			<path class="st11" d="M220.9,97.7l-3.1-2.7c0.7-0.9,1.9-1,2.8-0.3c0,0,0,0,0.1,0.1C221.4,95.5,221.6,96.8,220.9,97.7z"/>
			<path class="st11" d="M220.4,101.1c0,0.9-0.8,1.7-1.8,1.7c0,0,0,0,0,0c-1,0-1.7-0.8-1.7-1.8c0-1,0.8-1.7,1.8-1.7
				C219.7,99.3,220.4,100.1,220.4,101.1C220.4,101.1,220.4,101.1,220.4,101.1z"/>
			<polygon class="st19" points="212.8,99.3 211.3,109.4 217.5,109.1 			"/>
			<path class="st11" d="M168,347.3c-0.7,0.3-0.8,1.1-0.6,2.6s1.9,4.2,5.4,5.3s7.5,0.8,9.2,1.6c2.5,1.2,4.2,3.4,9.5,6.1
				c4,2.1,8.6,2.8,13.1,2.1c4.3-0.5,5.4-2.7,5.4-2.7s1.2-3,0.3-3.7S168,347.3,168,347.3z"/>
			<path class="st18" d="M177.7,306.3c-3-0.1-2.2,1.7-2.9,7.8c-0.7,6.4-1.1,13.9-3,19.8s-3.8,10-3.8,14.1c1.3,2.1,3.4,3.8,5.8,4.6
				c4,1.3,6.9,1,9.3,2.1c3.9,1.7,6.1,5.3,13,6.8c7.5,1.5,11.4-0.2,14.3-1.8c0,0,1-4.6-1.5-6.8c-5.9-3-15.3-9.9-17.4-13.5
				s0.8-9,3.5-17.2c2.4-7.6,4.4-9,2-10.1l-0.8,1.8c0,0-2.1,0.4-9.6-1.8s-9.2-3.9-9.2-3.9L177.7,306.3z"/>
			<path class="st18" d="M110.5,281.2c0,0-1.5-1.9-3.5,0.2s-9.1,11.3-13.6,14s-5.3,3.7-10.3,5.9c-2.1,2.1-3.1,5-2.7,7.9
				c0.5,3.8-0.6,7.3-2.4,11.1c-2,4.3-1.6,10.3,1.1,15.2c1.5,2.6,3.8,4.6,6.5,5.8c4,0,7.9-0.4,7.8-7.2c-0.2-5.6,0.7-11.1,2.6-16.3
				c2.3-6.8,5.6-6.8,13-11.6s14.6-7.4,13.5-9.8l-1.6,1c0,0-5.2-1.8-10.3-8.3c-2.7-3.4-1.9-5.7-1.9-5.7L110.5,281.2z"/>
		</g>
		<g id="freepik--shopping-cart--inject-1--inject-76">
			<path class="st20" d="M289.8,418.5c-0.3-4.8-2.8-9.2-6.8-11.8c-2-1.1-3.8-1.2-5-0.4l0,0l-4.6,2.6l9.8,16.7l4.6-2.6l0,0
				C289,422.3,289.8,420.8,289.8,418.5z"/>
			<path class="st18" d="M278.1,409.5c4.1,2.6,6.6,7,6.9,11.8c0,4.4-3.1,6.1-6.8,4c-4-2.6-6.6-7-6.8-11.9
				C271.3,409,274.4,407.3,278.1,409.5z"/>
			<path class="st20" d="M275.8,416c0-1.7,1-2.5,2.3-1.8c1.4,1,2.3,2.7,2.3,4.4c0,1.7-1,2.5-2.3,1.8
				C276.7,419.4,275.8,417.8,275.8,416z"/>
			<path class="st18" d="M286.1,402.2c0,0,0,7.8-3.7,10.6c-0.7,0.5-1.5,0.9-1.9,1.3c-1,0.8-0.3,2.2,0.8,2.9c1.7,0.9,10.8-1.5,14.7-9
				L286.1,402.2z"/>
			<path class="st11" d="M282.6,404.2c0,0,0,7.8-3.7,10.6c-0.7,0.5-1.4,0.9-1.9,1.3c-1,0.8-0.3,2.2,0.8,2.9c1.7,0.9,10.8-1.5,14.7-9
				L282.6,404.2z"/>
			<path class="st11" d="M278.1,416.6c0.4,0.2,0.6,0.7,0.6,1.1c0,0.4-0.3,0.6-0.6,0.4c-0.4-0.3-0.6-0.7-0.7-1.1
				C277.5,416.6,277.8,416.4,278.1,416.6z"/>
			<path class="st20" d="M342,388.4c-0.3-4.8-2.8-9.2-6.8-11.9c-2-1.1-3.8-1.2-5-0.4l0,0l-4.6,2.6l9.8,16.7l4.6-2.6l0,0
				C341.2,392.1,342,390.6,342,388.4z"/>
			<path class="st18" d="M330.4,379.3c4,2.6,6.6,7,6.8,11.8c0,4.4-3.1,6.1-6.8,4c-4-2.6-6.6-7-6.8-11.8
				C323.6,378.9,326.6,377.1,330.4,379.3z"/>
			<path class="st20" d="M328.1,385.9c0-1.7,1-2.5,2.3-1.8c1.4,1,2.3,2.7,2.3,4.4c0,1.7-1,2.5-2.3,1.8
				C329,389.2,328.1,387.6,328.1,385.9z"/>
			<path class="st18" d="M338.4,372c0,0,0,7.8-3.7,10.6c-0.7,0.5-1.4,0.9-1.9,1.2c-1,0.8-0.3,2.3,0.8,2.9c1.7,0.9,10.8-1.5,14.7-9
				L338.4,372z"/>
			<path class="st11" d="M334.9,374c0,0,0,7.8-3.7,10.6c-0.7,0.5-1.5,0.9-1.9,1.3c-0.9,0.8-0.3,2.2,0.8,2.9c1.7,0.9,10.8-1.5,14.7-9
				L334.9,374z"/>
			<path class="st11" d="M330.4,386.4c0.4,0.3,0.6,0.7,0.7,1.1c0,0.4-0.3,0.6-0.7,0.4c-0.4-0.3-0.6-0.7-0.7-1.1
				C329.7,386.4,330,386.2,330.4,386.4z"/>
			<path class="st20" d="M243.2,392c-0.3-4.8-2.8-9.2-6.8-11.8c-2-1.1-3.8-1.2-5-0.4l0,0l-4.6,2.6l9.8,16.7l4.6-2.6l0,0
				C242.4,395.7,243.2,394.2,243.2,392z"/>
			<path class="st18" d="M231.6,382.9c4,2.6,6.6,7,6.8,11.9c0,4.4-3.1,6.1-6.8,4c-4-2.6-6.6-7-6.8-11.9
				C224.7,382.5,227.8,380.7,231.6,382.9z"/>
			<path class="st20" d="M229.2,389.4c0-1.7,1-2.5,2.3-1.8c1.4,1,2.3,2.7,2.3,4.4c0,1.7-1,2.5-2.3,1.8
				C230.1,392.8,229.3,391.2,229.2,389.4z"/>
			<path class="st18" d="M239.6,375.6c0,0,0,7.8-3.7,10.6c-0.7,0.5-1.4,0.9-1.9,1.3c-1,0.8-0.3,2.2,0.8,2.9c1.7,0.9,10.8-1.5,14.7-9
				L239.6,375.6z"/>
			<path class="st11" d="M236,377.6c0,0,0,7.8-3.7,10.6c-0.7,0.5-1.4,0.9-1.9,1.2c-0.9,0.8-0.3,2.2,0.8,2.9c1.7,0.9,10.8-1.5,14.7-9
				L236,377.6z"/>
			<path class="st11" d="M231.6,390c0.4,0.3,0.6,0.7,0.7,1.1c0,0.4-0.3,0.6-0.7,0.4c-0.4-0.3-0.6-0.7-0.7-1.1
				C230.9,390,231.2,389.8,231.6,390z"/>
			<path class="st20" d="M295.5,361.8c-0.3-4.8-2.8-9.2-6.8-11.8c-2-1.1-3.8-1.2-5-0.4l0,0l-4.6,2.6l9.8,16.7l4.6-2.6l0,0
				C294.6,365.5,295.5,364,295.5,361.8z"/>
			<path class="st18" d="M283.8,352.7c4,2.6,6.6,7,6.8,11.8c0,4.4-3.1,6.1-6.8,4c-4-2.6-6.6-7-6.8-11.8
				C277,352.3,280,350.5,283.8,352.7z"/>
			<path class="st20" d="M281.5,359.3c0-1.7,1-2.5,2.3-1.8c1.4,1,2.3,2.7,2.3,4.4c0,1.7-1,2.5-2.3,1.8
				C282.4,362.7,281.5,361,281.5,359.3z"/>
			<path class="st1" d="M291.8,345.4c0,0,0,7.8-3.7,10.6c-0.7,0.5-1.5,0.9-1.9,1.2c-1,0.8-0.3,2.2,0.8,2.9c1.7,0.9,10.8-1.5,14.7-9
				L291.8,345.4z"/>
			<path class="st11" d="M288.3,347.5c0,0,0,7.8-3.7,10.6c-0.7,0.5-1.4,0.9-1.9,1.3c-1,0.8-0.3,2.2,0.8,2.9c1.7,0.9,10.8-1.5,14.7-9
				L288.3,347.5z"/>
			<path class="st11" d="M283.8,359.8c0.4,0.3,0.6,0.7,0.6,1.1c0,0.4-0.3,0.6-0.6,0.4c-0.4-0.3-0.6-0.7-0.7-1.1
				C283.2,359.8,283.5,359.6,283.8,359.8z"/>
			<path class="st18" d="M307,415.9c-2.5,0.1-4.9-0.5-7.1-1.7L233.2,376c-3.8-2.2-7.8-7.5-7.8-12.3v-64.3h3.6v64.3
				c0,3.3,3.2,7.5,6,9.2l66.6,38.1c3.4,1.7,7.4,1.7,10.8,0l39.8-23c1.1-0.6,1.7-1.4,1.7-2s-0.6-1.4-1.6-2l-66.9-38.1
				c-3.8-2.2-7.8-7.5-7.8-12.3v-46.3h3.6v46.3c0,3.3,3.2,7.5,6,9.2l66.9,38.1c2.2,1.3,3.4,3.1,3.4,5.1s-1.3,3.9-3.5,5.1l-39.8,23
				C312,415.3,309.5,415.9,307,415.9z"/>
			<polygon class="st21" points="278,291.9 223.3,323.5 312.2,374.9 366.9,343.3 			"/>
			<polygon class="st17" points="278,291.9 223.3,323.5 312.2,374.9 366.9,343.3 			"/>
			<path class="st1" d="M218.5,234.1c-1-4.8,1.1-9.7,5.3-12.4l40.2-23.4c4-2.3,8.1-0.3,9.3,4.2L278,222l-4.7,2.7l-4.7-18.1
				c-0.3-1.7-2-2.9-3.7-2.6c-0.5,0.1-0.9,0.3-1.3,0.5l-36,21.1c-2.7,1.7-4,4.9-3.4,8l4,17.2l-4.8,2.8L218.5,234.1z"/>
			<path class="st12" d="M274.3,204.7c-1.2,2.6-7.3,5.3-10.2,5.7s-6.5-2.4-6.5-2.4l2.4-1.4c0.9-1.6,0.3-3.7-1.3-4.6
				c-0.2-0.1-0.4-0.2-0.6-0.3l-2.3,1.3c-1.9-1.5-2.2-4.1-4.9-5.9c-1.2-0.7-2.4-1.4-3.6-1.9c0.3-2.9,5.3-9.3,6.8-10
				c1.7,1.1,3.7,2.4,4.8,3c0,0,13.5,3.3,15.7,7.8C275.2,197.6,274.9,203.5,274.3,204.7z"/>
			<polygon class="st22" points="223.3,253.6 278,222 278,291.9 223.3,323.5 			"/>
			<polygon class="st23" points="223.3,253.6 278,222 278,291.9 223.3,323.5 			"/>
			<path class="st24" d="M278,222v69.9l88.9,51.3l20.5-58.1L278,222z M307.1,292.3c-2.6,0.7-5.1-0.9-5.8-3.4l-11.8-36.6
				c-1.1-2.3-0.1-4.9,2.2-6c2.3-1.1,4.9-0.1,6,2.2c0.2,0.3,0.3,0.7,0.3,1.1l11.8,36.6C310.8,288.5,309.6,291.3,307.1,292.3
				L307.1,292.3z M332.5,306c-2.5,0.6-5.1-0.9-5.8-3.4L314.9,266c-1.1-2.3-0.1-4.9,2.2-6c2.3-1.1,4.9-0.1,6,2.2
				c0.2,0.3,0.3,0.7,0.3,1.1l11.8,36.6C336.1,302.3,334.9,305,332.5,306z M357.9,319.7c-2.5,0.6-5.1-0.9-5.8-3.4l-11.8-36.6
				c-0.9-2.7,0.4-5.4,2.7-6.2c2.6-0.7,5.2,0.9,5.8,3.4l11.8,36.6C361.5,316,360.3,318.8,357.9,319.7L357.9,319.7z"/>
			<path class="st25" d="M278,222v69.9l88.9,51.3l20.5-58.1L278,222z M307.1,292.3c-2.6,0.7-5.1-0.9-5.8-3.4l-11.8-36.6
				c-1.1-2.3-0.1-4.9,2.2-6c2.3-1.1,4.9-0.1,6,2.2c0.2,0.3,0.3,0.7,0.3,1.1l11.8,36.6C310.8,288.5,309.6,291.3,307.1,292.3
				L307.1,292.3z M332.5,306c-2.5,0.6-5.1-0.9-5.8-3.4L314.9,266c-1.1-2.3-0.1-4.9,2.2-6c2.3-1.1,4.9-0.1,6,2.2
				c0.2,0.3,0.3,0.7,0.3,1.1l11.8,36.6C336.1,302.3,334.9,305,332.5,306z M357.9,319.7c-2.5,0.6-5.1-0.9-5.8-3.4l-11.8-36.6
				c-0.9-2.7,0.4-5.4,2.7-6.2c2.6-0.7,5.2,0.9,5.8,3.4l11.8,36.6C361.5,316,360.3,318.8,357.9,319.7L357.9,319.7z"/>
			<g id="freepik--Character--inject-1--inject-76">
				<path class="st26" d="M423.5,213.7c-0.9-2.2-4.8,0.1-8.9,2.5c-3.7,2.2-11,6.5-11.6,5.8s-0.5-4-1.6-6.1s-3.7-2.5-3.5-0.6
					c0.1,1.1-0.3,4.7-0.3,6.4s-0.3,3.9-1.9,5.1s-32.8,8.7-32.8,8.7S337,222.9,331.7,220s-9.6-5.8-17.1-4.8
					c-9.5,4.4-5.4,13.1-0.7,18.6c2.6,3,3.9,0.9,12.8,3.8c10.7,3.5,27.4,13.4,36.3,14c9.8-1.8,35.2-11.3,37.7-12c3-0.8,5-0.3,7.4-1
					c2.9-0.8,5.4-1.3,8-3.1c0.8-0.4,1.3-1.2,1.5-2.1c0-0.4-0.1-0.9-0.1-1.4c0.2-0.7,0.3-1.5,0.4-2.2c-0.1-1-1.2-1.8-1.3-2.8
					c0-0.4,0.5-1.6,0.4-2c-0.3-0.8-0.8-1-1.2-1.6c-0.2-0.3-0.9-0.9-0.5-1.3s1.7-1.1,4.4-3.4S424.1,215.1,423.5,213.7z"/>
				<path class="st13" d="M336.9,340.5c-12.5,9.7-34.5,5.6-45.7-2c-10.1-6.8-21.9-22.2-21.9-22.2s-0.9-8.2,3.4-9.5L336.9,340.5z"/>
				<path class="st14" d="M336.9,340.5c-12.5,9.7-34.5,5.6-45.7-2c-10.1-6.8-21.9-22.2-21.9-22.2s-0.9-8.2,3.4-9.5L336.9,340.5z"/>
				<path class="st15" d="M270.3,308.7c-0.6,1-0.9,2.2-0.9,3.4c4.6,5.1,9.9,9.6,15.7,13.3c14.4,9.3,24.3,10,24.3,10
					c-8.2-3.2-16.1-7.4-23.4-12.3C277.1,317,272.8,312.8,270.3,308.7z"/>
				<path class="st11" d="M257.3,325.1c-2.6,0.8-7.3,0-10.7-3.5s-4.8-9-1.7-13.6s6.4-6.8,8.2-9.7s2.7-7.5,4.7-9.9
					c1.6-1.9,3.9-3,6.4-3c1.6,0,3.1,0.7,4.1,1.9l1,1.2L257.3,325.1z"/>
				<path class="st18" d="M282.8,332.2c0,0-10.7-11.4-15.5-16.3s-7.1-6-6-11.5s9.4-9.8,9.4-9.8l10.2,11.9l11.6,14.4
					C288.5,321.6,283,326.7,282.8,332.2z"/>
				<path class="st18" d="M267.4,315.9l-5.6,0.1c0,0,0.6,6.5-1.2,7.9c-2.7,2.1-4.9,1.7-9.4-1.7c-5.1-3.8-6.5-8.5-4.8-12.4
					c2.5-5.6,9.3-8,10.7-13.7s6.6-12.4,12.9-6.7c4.5,3.9,6.5,16.6,6.5,16.6L267.4,315.9z"/>
				<path class="st11" d="M265.4,300.3c-0.2,0-0.5,0-0.7,0c-5.7-0.5-8-3.3-8.1-3.4l0.9-0.8l-0.5,0.4l0.5-0.4c0,0,2.2,2.5,7.3,3
					s11.2-5.9,11.3-6l0.9,0.8C276.7,294.2,271,300.3,265.4,300.3z"/>
				<path class="st11" d="M251.4,314.9c-1.7,0-4.2-0.2-5.4,1.5c1.3,2.4,2,3.9,4.8,6c4.5,3.3,7.1,3.6,9.8,1.5
					c1.8-1.4,1.2-7.9,1.2-7.9C257.4,316.2,254.2,314.8,251.4,314.9z"/>
				<path class="st11" d="M265.3,316c-1.2-0.6-2.5-0.6-3.6-1.3c-0.6-0.3-1.1-0.8-1.5-1.3c-0.3-0.3-0.4-0.6-0.9-0.6
					c-0.2,0-0.5,0.1-0.5,0.4c0.4,2.8,4.2,3.8,6.5,3.1c0.1,0,0.1-0.1,0.1-0.2C265.3,316.1,265.3,316,265.3,316z"/>
				<path class="st11" d="M268.9,313.4c0.3-0.4,0.6-0.5,0.7-1c0-0.1,0-0.2-0.1-0.2c-1.3-0.5-2.3,1.8-2.2,3.6l-0.7-0.4
					c-0.5-0.3-1-0.7-1.4-1.1c-0.4-0.4-0.7-0.9-0.9-1.4c-0.1-0.4,0-1-0.2-1.4c-0.2-0.2-0.4-0.2-0.6,0c0,0,0,0,0,0
					c-0.9,1.1,0.2,2.8,1,3.6c0.6,0.7,1.9,1.6,3,1.3c0.1,0.6,0.6,1.2,1.2,1.3c0.1,0,0.3-0.1,0.2-0.2c-0.3-0.8-0.4-1.7-0.4-2.6
					C268.5,314.3,268.6,313.8,268.9,313.4z"/>
				<path class="st11" d="M271.4,314.4c0.1-0.1,0-0.3-0.1-0.3c-1.1-0.4-1.8,1.5-2,2.2c-0.2,1-0.3,3.4,1.1,3.3c0.1,0,0.3-0.1,0.3-0.2
					c-0.3-0.9-0.4-1.9-0.4-2.9C270.5,315.7,270.9,315,271.4,314.4z"/>
				<path class="st11" d="M273.8,316.7c0.1-0.1,0-0.3-0.1-0.3c-1.1-0.4-1.8,1.5-2,2.2c-0.2,1-0.3,3.3,1.1,3.3c0.1,0,0.3-0.1,0.3-0.2
					c-0.3-0.9-0.5-1.9-0.4-2.9C272.9,318.1,273.3,317.3,273.8,316.7z"/>
				<path class="st11" d="M276.2,319.1c0.1-0.1,0-0.3-0.1-0.3c-1.1-0.4-1.8,1.5-2,2.2c-0.2,1-0.3,3.4,1.1,3.3c0.1,0,0.3-0.1,0.3-0.2
					c-0.3-0.9-0.4-1.9-0.4-2.9C275.3,320.5,275.6,319.7,276.2,319.1z"/>
				<path class="st11" d="M278.6,321.5c0.1-0.1,0-0.3-0.1-0.3c-1.1-0.4-1.8,1.5-2,2.2c-0.2,1-0.3,3.4,1.1,3.3c0.1,0,0.3-0.1,0.3-0.2
					c-0.3-0.9-0.4-1.9-0.4-2.9C277.7,322.8,278,322.1,278.6,321.5z"/>
				<path class="st11" d="M281,323.9c0.1-0.1,0-0.3-0.1-0.3c-1.1-0.4-1.8,1.5-2,2.2c-0.2,1-0.3,3.4,1.2,3.3c0.1,0,0.3-0.1,0.3-0.2
					c-0.3-0.9-0.4-1.9-0.4-2.9C280.1,325.2,280.5,324.5,281,323.9z"/>
				<path class="st13" d="M359.3,317.1c-1-4.3-9.3-13.9-17.3-20.6s-20.9-18.1-20.9-18.1l0,0l-51.6,3.1c-3.1,4.6-4.2,13.5-2.4,19.3
					c2.4,7.8,4.7,12.5,18.9,22.2c7.3,5,15.2,9.1,23.4,12.3c6.8,2.6,10.9,6.9,12.4,7.2c3.9,0.8,8.3,1,12-0.3
					c4.9-1.8,6.8-6.4,5.4-11.3l0,0c1,0.1,1.9,0.1,2.8,0.1c1,0,2,0,2.7,0c2.7,0.1,5.4-0.3,8-1.2C358.5,327.8,360.7,323.4,359.3,317.1
					z"/>
				<path class="st14" d="M359.3,317.1c-1-4.3-9.3-13.9-17.3-20.6s-20.9-18.1-20.9-18.1l0,0l-51.6,3.1c-3.1,4.6-4.2,13.5-2.4,19.3
					c2.4,7.8,4.7,12.5,18.9,22.2c7.3,5,15.2,9.1,23.4,12.3c6.8,2.6,10.9,6.9,12.4,7.2c3.9,0.8,8.3,1,12-0.3
					c4.9-1.8,6.8-6.4,5.4-11.3l0,0c1,0.1,1.9,0.1,2.8,0.1c1,0,2,0,2.7,0c2.7,0.1,5.4-0.3,8-1.2C358.5,327.8,360.7,323.4,359.3,317.1
					z"/>
				<path class="st10" d="M327.8,288.3c-1.6,1.9-2.4,2.9-4.9,3.6c-2,0.5-4.5,0.6-5.3,2.5c-0.8,2,1.4,4,3.5,4.7s4.6,1.1,5.6,3.1
					c0.3,0.7,0.6,1.5,0.8,2.3c1.1,3.1,4.5,4.8,7.6,3.7c1.2-0.4,2.2-1.2,2.9-2.2c0.5-0.8,1-1.6,1.6-2.4c2-2,5.4-1.4,8-0.4
					c0.7,0.3,1.5,0.6,2.3,0.8c-2.5-2.7-5.1-5.2-7.9-7.5c-3.5-2.9-7.8-6.6-11.6-9.9C329.4,286.9,328.5,287.5,327.8,288.3z"/>
				<path class="st16" d="M287.8,305.1c0.1,3.4,3.3,6.2,6.6,6.7s6.8-0.8,9.7-2.5c1.2-0.7,2.2-1.6,3.1-2.6c0.8-1.1,1.1-2.5,0.8-3.9
					c-0.5-1.2-1.3-2.2-2.5-2.9c-1.7-1.1-3.5-1.8-5.5-2.1c-1.3-0.1-2.5-0.3-3.8-0.5c-3.6-0.9-6.5-2.7-10.2-3c-2.4-0.3-7.4,1-5,4.7
					c1.5,2.3,5.9,1.8,6.6,4.5C287.8,304,287.8,304.6,287.8,305.1z"/>
				<path class="st10" d="M299.9,327.3c0.5,1.3,2.1,1.6,3.5,1.6c4.7,0.1,11.4-2.4,14.8,2.2c0.8,1.1,1.3,2.6,2.6,3.1
					c1.1,0.3,2.2,0.1,3-0.8c0.8-0.8,1.3-1.8,1.5-2.9c0.6-2.2,0.5-4.5-0.2-6.6c-0.8-2.1-2.6-3.8-4.8-4.4c-1.4-0.3-2.9-0.2-4-1
					c-2.5-2,0.2-5.1-2.8-6.8c-3.8-2.1-13.9,0.2-13,5.9c0,0.3,0.1,0.6,0.2,0.9c0.4,1.1,1.2,2,1.2,3.1
					C302,323.7,299.2,325.3,299.9,327.3z"/>
				<path class="st10" d="M337,332.6c-1.7-0.5-5.8,0.1-7,1.4s-0.9,3.3-1.5,4.9c-0.7,1.5-2.1,2.6-3.7,3c-1.6,0.4-3.2,0.5-4.8,0.4
					c-1.3,0-2.7-0.1-3.5,0.8c-0.7,0.8-0.8,2-0.4,3c7,0.3,14-1,19.4-4.6c2.6-1.4,4.2-4.1,4.2-7C339,333.6,338.1,332.9,337,332.6z"/>
				<path class="st10" d="M275,307.6c2.4-1.6,2.5-5,2-7.9s-1.3-5.9,0.1-8.4c1.3-2.3,4.3-3.6,4.5-6.3c0.1-1.7-1.1-3.1-2.5-4.2
					l-10.2,0.6c-3.1,4.6-4.2,13.5-2.4,19.3c0.7,2.4,1.6,4.7,2.7,6.9c0.2,0.1,0.5,0.2,0.7,0.3C271.6,308.6,273.4,308.4,275,307.6z"/>
				<path class="st17" d="M317.7,280.2c-5.7-0.9-11.6-0.2-16.9,2.2c-1.2,0.5-2.7,0.3-3.5,1.5c-4,6.1,5.6,10.9,10.4,10.7
					c0.9,0,1.7-0.2,2.5-0.6c2-1.1,2.6-4,4.7-4.7c1.4-0.4,2.9,0.2,4.2-0.3c1.5-0.5,2.2-2.2,2.5-3.8c0.3-1.1,0.1-2.2-0.4-3.2
					C320.3,280.9,319.1,280.2,317.7,280.2z"/>
				<path class="st10" d="M358.8,317.8c0-0.2-0.1-0.4-0.1-0.6c-0.5-2.3-3.1-6.1-6.7-10.2c-0.9,0.5-1.8,0.9-2.9,1
					c-1.3-0.1-2.5,0.1-3.6,0.6c-1.5,1-1.9,3-0.9,4.5c0,0,0,0,0,0c1.3,1.7,4.4,2.1,4.7,4.2c0.1,0.6-0.1,1.3,0,2
					c0.2,0.7,0.6,1.3,1.1,1.7c1.6,1.3,3.8,1.5,5.6,0.4C357.3,320.5,358.2,319.2,358.8,317.8z"/>
				<path class="st10" d="M292.9,329.1c1.1,0,2.2-0.4,3.1-1c2-1.5,2.1-4.5,1-6.8c-0.5-1.1-1.4-2-2.6-2.4c-1.2-0.3-2.5,0-3.6-0.2
					c-1.2-0.3-2.2-1.1-2.6-2.3c-0.3-1-0.2-2.1-0.6-3.1c-0.6-1.2-1.7-2.1-3-2.4c-2.4-0.8-5.8-0.6-7.6,1c-1.5,1.3-2.6,3.4-2.1,5.3
					c0.5,1.4,1.4,2.5,2.5,3.4C281.8,324.9,286,329.8,292.9,329.1z"/>
				<path class="st10" d="M353.8,329.5c0-0.2,0-0.4-0.1-0.6c-0.6-2.9-3.3-4.9-6-6.1c-2-0.9-4.5-2-4.8-4.2c-0.1-0.6,0-1.2-0.1-1.8
					c-0.4-1.3-1.4-2.3-2.6-2.7c-2.7-1.1-6.6-1.2-7.6,1.9c-1.7,5.1,2.8,7,4.6,10.8c0.5,1,0.9,2.1,1.4,3.1c0.2,0.4,0.4,0.7,0.6,1.1
					l0,0l0,0c1,0.1,1.9,0.1,2.8,0.1c1,0,2,0,2.7,0c2.7,0.1,5.4-0.3,8-1.2C353.1,329.8,353.5,329.7,353.8,329.5z"/>
				<path class="st10" d="M290.6,338.5c5,3.2,10.7,5.5,16.5,6.6c1.7-0.5,3.5-1.2,4.6-2.6s1-3.9-0.7-4.7c-1.8-0.9-3.7,0.8-5.6,1.4
					c-1.8,0.5-3.7,0.1-5-1c-0.8-0.7-1.4-1.6-2.1-2.4c-2.1-2.4-11.5-5.7-13.3-1.7C286.8,335.7,288.6,337.2,290.6,338.5z"/>
				<path class="st15" d="M342.1,331.1c-0.9,0-1.9-0.1-2.8-0.1c-5.1-10.8-28.3-29-29.7-30.2l-0.1-0.1c0-0.1,0.1-0.1,0.2-0.2l1.1-1.5
					l0,0c1-2.2,2.3-4.2,3.6-6.2c-0.6,2.5-1.4,4.9-2.5,7.2c3.4,3,16.2,13.9,20,17.5C336,321.3,340.1,325.7,342.1,331.1z"/>
				<path class="st18" d="M314.6,215.3c4.5,3.3,8,7.8,10.1,12.9c3.5,7.7,3.3,14.1-3.3,22.9c0,2.1-3.4,13.9-3.4,13.9s3.1,12.6,3,13.6
					c0,0-3.6,10.4-21.6,11.8c-17.1,1.4-24.8-1.8-31.1-7.2c3.8-10.7,11.6-21.9,11.6-21.9c-0.6-11.7-4.5-26.9-3.4-31.1
					c1.4-5.3,10.3-11.1,12.5-11.3l15.2-2.7L314.6,215.3z"/>
				<path class="st11" d="M276.9,280c-1.1-5.2,4.7-15.3,4.7-15.3l5.3,4.7c-2.8-6.1-3.7-13-3.1-20.6c0,0,26.6,8.3,36.2,9.1
					c0.7-2.2,1.2-4.5,1.5-6.9c0.1-0.1,0.2-0.2,0.2-0.3l-6-5.4l-25.6-15.6l-12-2.9c-0.7,0.9-1.3,2-1.6,3.2
					c-1.1,4.3,2.8,19.4,3.4,31.1c0,0-7.8,11.1-11.6,21.9c6.3,5.4,14,8.6,31.1,7.2C299.5,290.3,278,285.2,276.9,280z"/>
				<path class="st11" d="M309.3,210.3l-2,0.1c-12.7,0.8-23.6-8.9-24.3-21.6c0,0,0,0,0,0l0,0c-0.8-12.7,8.9-23.6,21.6-24.3
					c0,0,0,0,0.1,0l2-0.1c12.7-0.7,23.6,9,24.3,21.6c0,0,0,0,0,0l0,0C331.6,198.7,321.9,209.5,309.3,210.3z"/>
				<path class="st11" d="M270.3,221.9L270.3,221.9c9-0.5,15.8-8.2,15.3-17.2l-1.4-24.5l0,0c-9,0.5-15.8,8.2-15.3,17.2L270.3,221.9z
					"/>
				<path class="st11" d="M285.6,179.7c-1.4,1.4-3.7,1.4-5.1-0.1c-1.4-1.4-1.4-3.7,0.1-5.1L285.6,179.7z"/>
				<path class="st27" d="M320.3,175.1c2.5,1.7,8.4,8.6,7.4,22.3c-0.9,11.6-4.8,14.3-6.8,15s-5.6,0-9.1-0.8l-0.3,5.3c0,0,2.9,3,3,5
					c0.3,3.2-5.5,3.5-10.1,1.6c-3.1-1.2-5.7-3.3-7.6-6.1l0.9-16c0,0-3.3,2.2-6.1,0.1c-3.8-2.8-3.9-7.8-1.5-10s7.3-1.2,8,2.1
					c0,0,4.8,1.5,12.5-2.2S319.6,179.6,320.3,175.1z"/>
				<path class="st11" d="M312.5,189.1l-3.1,1.7c-0.5-0.9-0.1-2,0.7-2.5C310.9,187.9,312,188.2,312.5,189.1
					C312.5,189.1,312.5,189.1,312.5,189.1z"/>
				<path class="st26" d="M314.8,203.6l3.3,1.3c-0.3,0.9-1.3,1.4-2.2,1.1c0,0,0,0-0.1,0C314.9,205.6,314.4,204.6,314.8,203.6z"/>
				<path class="st11" d="M326.3,193.3c0,0.8-0.7,1.4-1.5,1.4c-0.8,0-1.4-0.7-1.4-1.5c0-0.8,0.7-1.4,1.5-1.4
					C325.6,191.8,326.3,192.5,326.3,193.3z"/>
				<path class="st11" d="M314.7,194c0,0.8-0.6,1.5-1.5,1.5c0,0,0,0,0,0c-0.8,0-1.5-0.6-1.6-1.5s0.6-1.5,1.5-1.6
					S314.7,193.1,314.7,194C314.7,194,314.7,194,314.7,194z"/>
				<polygon class="st26" points="319.4,192.1 319.2,200.9 323.9,199.8 				"/>
				<path class="st26" d="M311.9,211.6c-2.9-0.5-8.8-2.6-10-4.7c0,0,0,1.4,1.8,3.3s8,3.6,8,3.6L311.9,211.6z"/>
				<path class="st11" d="M318.5,174c0,0,2.1,9.1-1.5,17.3c0,0,11.2,1.3,12.3-7.1c0,0-0.2-7-4.9-11.4L318.5,174z"/>
				<path class="st27" d="M289,218.7c-8.2,1.1-13.4,5.9-13.2,12.4s7.4,10.4,14.9,14.2c9.7,4.8,29.7,11.6,35.2,11.9
					s27.8-32.1,27.8-32.1l-12.1-4.7l-18.3,19.5L299.1,229C299.1,229,294.4,221.9,289,218.7z"/>
				<path class="st20" d="M360,194.1c-1-0.5-2.2-0.4-3.2,0.3c-2.6,1.7-4.3,4.6-4.5,7.8c-0.1,1.1,0.4,2.2,1.3,2.9
					c0.3,0.2,2,1.1,2.3,1.3c1,0.5,2.3,0.4,3.2-0.3c2.6-1.7,4.3-4.6,4.5-7.8c0.1-1.1-0.4-2.2-1.3-2.9
					C362.1,195.1,360.3,194.2,360,194.1z"/>
				<path class="st18" d="M354.6,203.4c0,2.9,2,4,4.5,2.6c2.6-1.7,4.3-4.6,4.5-7.8c0-2.9-2-4-4.5-2.6
					C356.5,197.3,354.8,200.2,354.6,203.4z"/>
				<path class="st13" d="M387.5,205.6l-25.9-9.4l0,0c-0.2-0.1-0.3-0.1-0.5-0.1c-0.5,0-1,0.2-1.5,0.5c-2.3,1.5-3.8,4.1-3.9,6.8
					c0,0.5,0.1,1.6,0.9,2l23.1,13.8L387.5,205.6z"/>
				<path class="st14" d="M387.5,205.6l-25.9-9.4l0,0c-0.2-0.1-0.3-0.1-0.5-0.1c-0.5,0-1,0.2-1.5,0.5c-2.3,1.5-3.8,4.1-3.9,6.8
					c0,0.5,0.1,1.6,0.9,2l23.1,13.8L387.5,205.6z"/>
				<path class="st20" d="M385.2,202.4c-1.2-0.7-2.9-0.6-4.8,0.5c-4,2.6-6.5,6.9-6.7,11.6c0,2.1,0.7,3.6,1.9,4.3
					c0.4,0.2,3,1.7,3.4,1.9c1.2,0.7,2.9,0.6,4.8-0.5c4-2.6,6.5-6.9,6.7-11.7c0-2.1-0.7-3.6-1.9-4.3
					C388.2,204.1,385.6,202.6,385.2,202.4z"/>
				<path class="st18" d="M377.1,216.4c0,4.3,3,6,6.7,3.9c4-2.6,6.5-6.9,6.7-11.7c0-4.3-3-6-6.7-3.9
					C379.8,207.3,377.3,211.6,377.1,216.4z"/>
				<path class="st11" d="M380.8,219.5c-1.9,0-2.1-2.2-2.1-3.1c0.3-4.1,2.4-7.9,5.9-10.2c0.7-0.4,1.4-0.6,2.2-0.7
					c1.9,0,2.1,2.2,2.1,3.1c-0.3,4.1-2.4,7.9-5.9,10.2C382.3,219.2,381.6,219.5,380.8,219.5z"/>
				<path class="st13" d="M386.6,206.4c0-0.3,0-0.6-0.1-0.9c-0.7,0.1-1.4,0.3-2,0.7c-3.5,2.3-5.6,6.1-5.9,10.2c0,0.3,0,0.6,0.1,0.9
					c0.7-0.1,1.4-0.3,2-0.7C384.2,214.3,386.4,210.5,386.6,206.4z"/>
				<path class="st28" d="M386.6,206.4c0-0.3,0-0.6-0.1-0.9c-0.7,0.1-1.4,0.3-2,0.7c-3.5,2.3-5.6,6.1-5.9,10.2c0,0.3,0,0.6,0.1,0.9
					c0.7-0.1,1.4-0.3,2-0.7C384.2,214.3,386.4,210.5,386.6,206.4z"/>
				<path class="st1" d="M382.9,208.2c1.3-1.5,2.9-2,3.1-1.5s-0.5,6.1-5.9,9.3c1.8-1.6,3.2-3.5,4.3-5.6
					C385.3,208.6,384.5,207.1,382.9,208.2z"/>
				<path class="st20" d="M348.8,200.5c-1-0.5-2.2-0.4-3.2,0.3c-2.7,1.7-4.3,4.6-4.5,7.8c-0.1,1.1,0.4,2.2,1.3,2.9
					c0.3,0.2,2,1.1,2.3,1.3c1,0.5,2.3,0.4,3.2-0.3c2.7-1.7,4.3-4.6,4.5-7.8c0.1-1.1-0.4-2.2-1.3-2.9L348.8,200.5z"/>
				<path class="st18" d="M343.4,209.9c0,2.9,2,4,4.5,2.6c2.7-1.7,4.3-4.6,4.5-7.8c0-2.9-2-4-4.5-2.6
					C345.2,203.8,343.6,206.7,343.4,209.9z"/>
				<path class="st13" d="M371.8,214.7l-21.3-12h-0.1l0,0l0,0c-0.2-0.1-0.3-0.1-0.5-0.1c-0.5,0-1,0.2-1.5,0.5
					c-2.3,1.5-3.8,4.1-3.9,6.8c-0.1,0.7,0.2,1.4,0.6,1.9l18.8,16.6L371.8,214.7z"/>
				<path class="st14" d="M371.8,214.7l-21.3-12h-0.1l0,0l0,0c-0.2-0.1-0.3-0.1-0.5-0.1c-0.5,0-1,0.2-1.5,0.5
					c-2.3,1.5-3.8,4.1-3.9,6.8c-0.1,0.7,0.2,1.4,0.6,1.9l18.8,16.6L371.8,214.7z"/>
				<path class="st11" d="M371.6,214.3c-0.6-0.8-0.9-1.7-0.9-2.7c0.1-2,0.7-3.9,1.9-5.5l-9,5.2c0.4-0.2,0.9-0.3,1.3-0.4l6.9,3.9
					L371.6,214.3z"/>
				<path class="st20" d="M369.5,211.5c-1.2-0.7-2.9-0.6-4.8,0.5c-4,2.6-6.5,6.9-6.7,11.7c0,2.1,0.7,3.6,1.9,4.3
					c0.4,0.2,3,1.7,3.4,1.9c1.2,0.7,2.9,0.6,4.8-0.5c4-2.6,6.5-6.9,6.7-11.6c0-2.1-0.7-3.6-1.9-4.3
					C372.5,213.1,369.9,211.7,369.5,211.5z"/>
				<path class="st18" d="M361.4,225.4c0,4.3,3,6,6.7,3.9c4-2.6,6.5-6.9,6.7-11.6c0-4.3-3-6-6.7-3.9
					C364.1,216.4,361.6,220.7,361.4,225.4z"/>
				<path class="st11" d="M365.1,228.6c-1.9,0-2.1-2.2-2.1-3.1c0.3-4.1,2.4-7.9,5.9-10.2c0.7-0.4,1.4-0.7,2.2-0.7
					c1.9,0,2.1,2.2,2.1,3.1c-0.3,4.1-2.4,7.9-5.9,10.2C366.6,228.3,365.9,228.5,365.1,228.6z"/>
				<path class="st13" d="M371,215.5c0-0.3,0-0.6-0.1-0.9c-0.7,0.1-1.4,0.3-2,0.7c-3.5,2.3-5.6,6.1-5.9,10.2c0,0.3,0,0.6,0.1,0.9
					c0.7-0.1,1.4-0.3,2-0.7C368.6,223.4,370.7,219.6,371,215.5z"/>
				<path class="st28" d="M371,215.5c0-0.3,0-0.6-0.1-0.9c-0.7,0.1-1.4,0.3-2,0.7c-3.5,2.3-5.6,6.1-5.9,10.2c0,0.3,0,0.6,0.1,0.9
					c0.7-0.1,1.4-0.3,2-0.7C368.6,223.4,370.7,219.6,371,215.5z"/>
				<path class="st1" d="M367.2,217.3c1.3-1.5,2.9-2,3.1-1.5s-0.5,6.1-5.9,9.3c1.8-1.6,3.2-3.5,4.3-5.6
					C369.6,217.7,368.8,216.2,367.2,217.3z"/>
				<polygon class="st18" points="363.6,200.8 372.6,206 363.6,211.2 354.6,206 				"/>
				<path class="st27" d="M341.6,220.4c3.9-4.1,2.3-8.8,3.9-12.2s8.4-6.2,11.2-5.5s11.8,6.1,10.3,8.4c-0.4,0.1-0.7,0.2-1.1,0.3
					l-1-0.5c-2.5,0.6-4.7,2-6.2,4.1c-2.2,3.3-2.3,3.9-2.3,5.1s1.6,3,1.6,3c-1.2,1.1-3.3,1-5.2,3.4c-2,2.5-3.2,4.2-3.2,4.2
					L341.6,220.4z"/>
			</g>
			<path class="st24" d="M223.3,253.6v69.9l88.9,51.3l20.5-58.1L223.3,253.6z M252.4,323.9c-2.5,0.6-5.1-0.9-5.8-3.4l-11.8-36.6
				c-1-2.3,0-4.9,2.2-6s4.9,0,6,2.2c0.1,0.3,0.2,0.6,0.3,1l11.8,36.6C256.1,320.1,254.9,322.9,252.4,323.9z M277.8,337.6
				c-2.5,0.6-5.1-0.9-5.8-3.4l-11.8-36.6c-1-2.3-0.1-4.9,2.2-6s4.9-0.1,6,2.2c0.2,0.3,0.3,0.7,0.3,1l11.8,36.6
				C281.5,333.9,280.2,336.6,277.8,337.6L277.8,337.6z M303.2,351.3c-2.6,0.6-5.1-0.9-5.8-3.4l-11.8-36.6c-0.9-2.5,0.3-5.2,2.7-6.2
				c2.4-0.8,5,0.8,5.8,3.4l11.8,36.6C306.8,347.6,305.6,350.3,303.2,351.3z"/>
			<path class="st29" d="M223.3,253.6v69.9l88.9,51.3l20.5-58.1L223.3,253.6z M252.4,323.9c-2.5,0.6-5.1-0.9-5.8-3.4l-11.8-36.6
				c-1-2.3,0-4.9,2.2-6s4.9,0,6,2.2c0.1,0.3,0.2,0.6,0.3,1l11.8,36.6C256.1,320.1,254.9,322.9,252.4,323.9z M277.8,337.6
				c-2.5,0.6-5.1-0.9-5.8-3.4l-11.8-36.6c-1-2.3-0.1-4.9,2.2-6s4.9-0.1,6,2.2c0.2,0.3,0.3,0.7,0.3,1l11.8,36.6
				C281.5,333.9,280.2,336.6,277.8,337.6L277.8,337.6z M303.2,351.3c-2.6,0.6-5.1-0.9-5.8-3.4l-11.8-36.6c-0.9-2.5,0.3-5.2,2.7-6.2
				c2.4-0.8,5,0.8,5.8,3.4l11.8,36.6C306.8,347.6,305.6,350.3,303.2,351.3z"/>
			<polygon class="st22" points="332.8,316.8 387.5,285.2 366.9,343.3 312.2,374.9 			"/>
			<polygon class="st30" points="332.8,316.8 387.5,285.2 366.9,343.3 312.2,374.9 			"/>
		</g>
		<g id="freepik--front-arm--inject-1--inject-76">
			<path class="st12" d="M179.4,126.9c-4.4,0-13.7,6.9-12.3,19.2c0.7,6.4,15.4,34.1,19.2,40.3s34.3,25.1,37,26.9s3,4.4,4.9,5.9
				l2.3-1.3c1.8,0.6,2.8,2.5,2.2,4.3c-0.1,0.2-0.1,0.4-0.2,0.6l-2.4,1.4c0,0,3.4,2.8,6.5,2.4c2.9-0.4,9-3.1,10.2-5.7
				c0.5-1.2,0.9-7.1,0.2-8.6c-2.1-4.5-15.7-7.8-15.7-7.8L202.6,177L179.4,126.9z"/>
			<path class="st11" d="M181.8,126.9c0,0-7.4-1.1-12,4.6c-4.2,5.1-4.7,12.9-2.3,19.9s14.2,30.9,16.4,35.1s25.9,18.2,25.9,18.2
				s3-9.1,9.8-11.3l-16.1-16.8l-16.6-35.7C186.8,140.8,187,132.5,181.8,126.9z"/>
		</g>
	</g>
</g>
<g>
	<g id="freepik--speach-bubble--inject-1--inject-76">
		<path class="st31" d="M300.9,24.4l-37,21.3c-0.9,0.6-1.4,1.5-1.5,2.6v50.6c0.1,1,0.6,2,1.5,2.6l5.3,3c0.9,0.5,2.1,0.5,3,0l37-21.3
			c0.9-0.6,1.4-1.5,1.5-2.6V29.9c-0.1-1-0.6-2-1.5-2.5l-5.3-3C303,23.8,301.9,23.9,300.9,24.4z"/>
		<path class="st32" d="M270.7,103.6V52.9c0.1-1,0.6-2,1.5-2.6l37-21.3c0.8-0.5,1.5-0.1,1.5,0.9v50.7c-0.1,1-0.6,2-1.5,2.6l-37,21.3
			C271.4,104.9,270.7,104.5,270.7,103.6z"/>
		<path class="st15" d="M272.2,104.4c-0.9,0.5-2.1,0.5-3,0l-5.3-3c-0.9-0.6-1.4-1.5-1.5-2.5V48.3c0-0.5,0.2-1.1,0.5-1.5l8.2,4.7
			c-0.3,0.4-0.4,0.9-0.4,1.5v50.7C270.7,104.4,271.3,104.9,272.2,104.4z"/>
		<path class="st33" d="M310.7,29.6c-0.1-0.7-0.7-1-1.5-0.6l-37,21.3c-0.4,0.3-0.8,0.7-1,1.1l-8.3-4.7c0.2-0.4,0.6-0.8,1-1l37-21.3
			c0.9-0.5,2.1-0.5,3,0l5.3,3C310,27.8,310.5,28.7,310.7,29.6z"/>
		<path class="st31" d="M258.4,85.8c-0.9-0.6-7.9-4.5-8.1-4.6c-0.6-0.4-0.8-1.3-0.4-1.9c0-0.1,0.1-0.1,0.2-0.2l12.6-15.7l8.1,4.6
			l-12.6,15.7c-0.5,0.6-0.5,1.5,0.1,2C258.3,85.7,258.3,85.8,258.4,85.8z"/>
		<path class="st33" d="M258.4,85.8c-0.9-0.6-7.9-4.5-8.1-4.6c-0.6-0.4-0.8-1.3-0.4-1.9c0-0.1,0.1-0.1,0.2-0.2l12.6-15.7l8.1,4.6
			l-12.6,15.7c-0.5,0.6-0.5,1.5,0.1,2C258.3,85.7,258.3,85.8,258.4,85.8z"/>
		<path class="st32" d="M270.7,68l-12.6,15.7c-0.5,0.5-0.5,1.4,0,1.9c0.2,0.2,0.6,0.4,0.9,0.4l11.7,1.3L270.7,68z"/>
	</g>
	<path class="st5" d="M286.7,56.7c0,0.9,0.1,1.7,0.1,2.4s0,1.5-0.1,2.4c-0.1,2-0.6,3.9-1.5,5.6c-0.8,1.6-2.1,2.9-3.6,3.8
		c-1.5,0.8-2.7,1-3.6,0.3s-1.4-1.9-1.5-3.8c0-0.8-0.1-1.6-0.1-2.3s0-1.5,0.1-2.5c0.1-1.9,0.6-3.8,1.5-5.5c0.8-1.6,2.1-3,3.7-3.9
		c1.6-0.9,2.8-1,3.7-0.4S286.6,54.7,286.7,56.7z M296.1,47.5c0.1-0.3,0.3-0.6,0.5-1c0.2-0.3,0.4-0.5,0.7-0.6l3.3-1.9
		c0.2-0.1,0.4-0.2,0.6,0c0.2,0.2,0.2,0.4,0.2,0.6c0,0.1,0,0.2,0,0.3c0,0.1-0.1,0.2-0.1,0.3L285.5,86c-0.1,0.3-0.3,0.6-0.5,0.9
		c-0.2,0.3-0.4,0.5-0.7,0.6l-3.3,1.9c-0.2,0.1-0.4,0.2-0.5,0c-0.2-0.2-0.2-0.4-0.2-0.6c0-0.1,0-0.2,0-0.3c0-0.1,0.1-0.2,0.1-0.3
		L296.1,47.5z M280.4,65.6c0,0.5,0.1,0.9,0.3,1.3c0.2,0.3,0.5,0.3,0.9,0.1c0.4-0.2,0.7-0.6,0.8-1.1c0.2-0.5,0.3-1.1,0.3-1.7
		c0.1-2.1,0.1-4,0-5.8c0-0.5-0.1-0.9-0.3-1.3c-0.2-0.3-0.5-0.3-0.8-0.1c-0.4,0.2-0.7,0.6-0.9,1.1c-0.2,0.5-0.3,1.1-0.3,1.7
		C280.3,61.7,280.3,63.6,280.4,65.6L280.4,65.6z M305.8,64.9c0,0.9,0.1,1.7,0.1,2.4s0,1.5-0.1,2.3c-0.1,1.9-0.6,3.8-1.5,5.6
		c-0.8,1.6-2.1,2.9-3.6,3.8c-1.5,0.9-2.7,1-3.6,0.3s-1.4-1.9-1.5-3.8c0-0.8-0.1-1.6-0.1-2.3s0-1.5,0.1-2.4c0.1-1.9,0.6-3.8,1.5-5.5
		c0.8-1.6,2.1-2.9,3.7-3.8c1.6-0.9,2.8-1,3.7-0.4C305.2,61.7,305.7,63,305.8,64.9L305.8,64.9z M299.5,73.8c0,0.5,0.1,0.9,0.3,1.3
		c0.2,0.3,0.5,0.3,0.9,0.1c0.4-0.2,0.7-0.6,0.8-1.1c0.2-0.5,0.3-1.1,0.3-1.7c0.1-2.1,0.1-4,0-5.8c0-0.5-0.1-0.9-0.3-1.3
		c-0.2-0.3-0.5-0.3-0.8-0.1c-0.4,0.2-0.7,0.6-0.9,1.1c-0.2,0.5-0.3,1.1-0.3,1.7C299.4,69.9,299.4,71.8,299.5,73.8L299.5,73.8z"/>
</g>
</svg>
