<?xml version="1.0" encoding="utf-8"?>
<!-- Generator: Adobe Illustrator 23.1.0, SVG Export Plug-In . SVG Version: 6.00 Build 0)  -->
<svg version="1.1" id="Layer_1" xmlns="http://www.w3.org/2000/svg" xmlns:xlink="http://www.w3.org/1999/xlink" x="0px" y="0px"
	 viewBox="0 0 500 500" style="enable-background:new 0 0 500 500;" xml:space="preserve">
<style type="text/css">
	.st0{fill:#EBEBEB;}
	.st1{fill:#E0E0E0;}
	.st2{fill:#F0F0F0;}
	.st3{fill:#F5F5F5;}
	.st4{fill:#E6E6E6;}
	.st5{fill:#FEFEFE;}
	.st6{fill:#FFFFFF;}
	.st7{fill:#FAFAFA;}
	.st8{fill:#787B82;}
	.st9{fill:#263238;}
	.st10{opacity:0.2;fill:#FFFFFF;enable-background:new    ;}
	.st11{fill:#A8B0F4;}
	.st12{opacity:0.6;fill:#FFFFFF;enable-background:new    ;}
	.st13{opacity:0.3;enable-background:new    ;}
	.st14{opacity:0.7;enable-background:new    ;}
	.st15{fill:#E52329;}
	.st16{fill:#E62128;}
	.st17{fill:#E81D26;}
	.st18{fill:#EA1121;}
	.st19{fill:#E2262B;}
	.st20{opacity:0.3;fill:#FFFFFF;enable-background:new    ;}
	.st21{fill:#E4242A;}
	.st22{fill:#E3252B;}
	.st23{fill:#E1272B;}
	.st24{opacity:0.5;fill:#FFFFFF;enable-background:new    ;}
	.st25{fill:#251D59;}
	.st26{opacity:0.2;fill:#71708C;enable-background:new    ;}
	.st27{fill:#FCFCFC;}
	.st28{fill:#F7F8F9;}
	.st29{fill:#B97964;}
	.st30{fill:#407BFF;}
	.st31{opacity:0.1;enable-background:new    ;}
	.st32{fill:#111111;}
	.st33{opacity:0.2;enable-background:new    ;}
	.st34{fill:#181919;}
	.st35{fill:#2E353A;}
	.st36{fill:#A24E3F;}
	.st37{fill:#F9F9F9;}
	.st38{fill:#F7F9FC;}
	.st39{fill:#F2F4F7;}
</style>
<g id="freepik--background-complete--inject-350">
	<rect x="416.8" y="398.5" class="st0" width="33.1" height="0.3"/>
	<rect x="322.5" y="401.2" class="st0" width="8.7" height="0.3"/>
	<rect x="396.6" y="389.2" class="st0" width="19.2" height="0.3"/>
	<rect x="52.5" y="390.9" class="st0" width="43.2" height="0.3"/>
	<rect x="104.6" y="390.9" class="st0" width="6.3" height="0.3"/>
	<rect x="131.5" y="395.1" class="st0" width="93.7" height="0.3"/>
	<path class="st0" d="M237,337.8H43.9c-3.2,0-5.7-2.6-5.7-5.7V60.7c0-3.1,2.6-5.7,5.7-5.7H237c3.2,0,5.7,2.6,5.7,5.7c0,0,0,0,0,0
		v271.4C242.7,335.2,240.2,337.8,237,337.8z M43.9,55.2c-3,0-5.5,2.4-5.5,5.5v271.4c0,3,2.4,5.5,5.5,5.5H237c3,0,5.5-2.4,5.5-5.5
		V60.7c0-3-2.4-5.5-5.5-5.5H43.9z"/>
	<path class="st0" d="M453.3,337.8H260.2c-3.2,0-5.7-2.6-5.7-5.7V60.7c0-3.1,2.6-5.7,5.7-5.7h193.1c3.1,0,5.7,2.5,5.7,5.7v271.4
		C459,335.2,456.5,337.8,453.3,337.8z M260.2,55.2c-3,0-5.5,2.4-5.5,5.5v271.4c0,3,2.4,5.5,5.5,5.5h193.1c3,0,5.5-2.4,5.5-5.5V60.7
		c0-3-2.4-5.5-5.5-5.5H260.2z"/>
	<rect y="382.4" class="st0" width="500" height="0.3"/>
	<path class="st0" d="M81.4,164.2h1.1c0.7,0,1.3,0.6,1.3,1.3l0,0v199.9l0,0h-3.7l0,0V165.6C80.1,164.8,80.7,164.2,81.4,164.2z"/>
	<circle class="st1" cx="83.4" cy="190.8" r="22.4"/>
	<circle class="st2" cx="82" cy="189.4" r="22.4"/>
	<path class="st1" d="M92.7,195c0,1.2-1,2.2-2.2,2.2s-2.2-1-2.2-2.2s1-2.2,2.2-2.2c0,0,0,0,0,0C91.7,192.8,92.7,193.8,92.7,195z"/>
	<path class="st1" d="M75,195c0,1.2-1,2.2-2.2,2.2s-2.2-1-2.2-2.2s1-2.2,2.2-2.2c0,0,0,0,0,0C74,192.8,75,193.8,75,195z"/>
	<path class="st1" d="M94.6,181.4H67.5c-0.8,0-1.4,0.6-1.4,1.4V195h3.2c0-1.9,1.6-3.5,3.5-3.5s3.5,1.6,3.5,3.5H87
		c0-1.9,1.6-3.5,3.5-3.5s3.5,1.6,3.5,3.5h3.6v-10.8C97.5,182.7,96.2,181.4,94.6,181.4C94.6,181.4,94.6,181.4,94.6,181.4z"/>
	<rect x="67.7" y="184.2" class="st3" width="3.3" height="6.4"/>
	<rect x="72.8" y="184.2" class="st3" width="3.3" height="3.3"/>
	<rect x="77.9" y="184.2" class="st3" width="3.3" height="3.3"/>
	<rect x="83" y="184.2" class="st3" width="3.3" height="3.3"/>
	<rect x="94.2" y="184.2" class="st3" width="3.3" height="3.3"/>
	<rect x="88.1" y="184.2" class="st3" width="3.3" height="6.4"/>
	<rect x="263" y="261.6" class="st3" width="30.3" height="104.1"/>
	<rect x="291.6" y="264.9" class="st4" width="37.6" height="100.9"/>
	<rect x="307.8" y="270.3" class="st5" width="5.2" height="5.2"/>
	<rect x="296.6" y="279.7" class="st5" width="5.2" height="5.2"/>
	<rect x="307.8" y="289.2" class="st5" width="5.2" height="5.2"/>
	<rect x="319" y="289.2" class="st5" width="5.2" height="5.2"/>
	<rect x="296.6" y="298.7" class="st5" width="5.2" height="5.2"/>
	<rect x="319" y="298.7" class="st5" width="5.2" height="5.2"/>
	<rect x="307.8" y="308.2" class="st5" width="5.2" height="5.2"/>
	<rect x="307.8" y="327.1" class="st5" width="5.2" height="5.2"/>
	<rect x="319" y="327.1" class="st5" width="5.2" height="5.2"/>
	<rect x="296.6" y="336.6" class="st5" width="5.2" height="5.2"/>
	<rect x="319" y="336.6" class="st5" width="5.2" height="5.2"/>
	<polygon class="st0" points="268,365.8 226.6,365.8 226.6,292.8 268,277.1 	"/>
	<rect x="244.2" y="292.3" class="st6" width="6.1" height="6.1"/>
	<rect x="257.4" y="292.3" class="st6" width="6.1" height="6.1"/>
	<rect x="231.1" y="303.4" class="st6" width="6.1" height="6.1"/>
	<rect x="244.2" y="314.5" class="st6" width="6.1" height="6.1"/>
	<rect x="257.4" y="314.5" class="st6" width="6.1" height="6.1"/>
	<rect x="231.1" y="325.6" class="st6" width="6.1" height="6.1"/>
	<rect x="244.2" y="339.2" class="st6" width="6.1" height="6.1"/>
	<rect x="231.1" y="339.2" class="st6" width="6.1" height="6.1"/>
	<rect x="257.4" y="350.3" class="st6" width="6.1" height="6.1"/>
	<polygon class="st2" points="375.1,247.4 375.1,227.2 370.2,227.2 370.2,204.6 366.2,204.6 366.2,194.4 349.8,194.4 349.8,204.6 
		345.7,204.6 345.7,227.2 340.9,227.2 340.9,247.4 335.9,247.4 335.9,365.8 380,365.8 380,247.4 	"/>
	<rect x="354.9" y="253.8" class="st5" width="6.1" height="6.1"/>
	<rect x="368.1" y="253.8" class="st5" width="6.1" height="6.1"/>
	<rect x="341.8" y="276" class="st5" width="6.1" height="6.1"/>
	<rect x="368.1" y="276" class="st5" width="6.1" height="6.1"/>
	<rect x="354.9" y="287.1" class="st5" width="6.1" height="6.1"/>
	<rect x="341.8" y="298.2" class="st5" width="6.1" height="6.1"/>
	<rect x="354.9" y="298.2" class="st5" width="6.1" height="6.1"/>
	<rect x="368.1" y="309.4" class="st5" width="6.1" height="6.1"/>
	<rect x="341.8" y="320.5" class="st5" width="6.1" height="6.1"/>
	<rect x="354.9" y="331.6" class="st5" width="6.1" height="6.1"/>
	<rect x="368.1" y="331.6" class="st5" width="6.1" height="6.1"/>
	<polygon class="st3" points="419.5,365.8 386.8,365.8 386.8,256.8 419.5,272.4 	"/>
	<rect x="392.5" y="273.5" class="st6" width="6.1" height="6.1"/>
	<rect x="405.6" y="284.6" class="st6" width="6.1" height="6.1"/>
	<rect x="392.5" y="295.7" class="st6" width="6.1" height="6.1"/>
	<rect x="405.6" y="306.9" class="st6" width="6.1" height="6.1"/>
	<rect x="405.6" y="318" class="st6" width="6.1" height="6.1"/>
	<rect x="392.5" y="329.1" class="st6" width="6.1" height="6.1"/>
	<rect x="405.6" y="351.3" class="st6" width="6.1" height="6.1"/>
	<rect x="92.9" y="316.4" class="st2" width="35.7" height="15.6"/>
	<path class="st2" d="M90,321.7h2.9l0,0v5l0,0H90c-1.1,0-2.1-0.9-2.1-2.1v-0.8C87.9,322.6,88.8,321.7,90,321.7
		C90,321.7,90,321.7,90,321.7z"/>
	<path class="st2" d="M131.5,326.7h-2.9l0,0v-5l0,0h2.9c1.1,0,2.1,0.9,2.1,2.1v0.8C133.6,325.7,132.7,326.6,131.5,326.7
		C131.5,326.7,131.5,326.7,131.5,326.7z"/>
	<rect x="90.4" y="314.2" class="st1" width="5" height="19.9"/>
	<rect x="126.1" y="314.2" class="st1" width="5" height="19.9"/>
	<path class="st4" d="M120.3,360.4h-19.2v-53.9c0-5.3,4.3-9.6,9.6-9.6c0,0,0,0,0,0l0,0c5.3,0,9.6,4.3,9.6,9.6l0,0L120.3,360.4z"/>
	<path class="st1" d="M103.8,357.2h13.8c3.4,0,6.2,2.8,6.2,6.1v3.7l0,0H97.7l0,0v-3.7C97.7,359.9,100.5,357.2,103.8,357.2z"/>
	<circle class="st7" cx="110.8" cy="324.1" r="8.2"/>
	<path class="st0" d="M112.7,324.1c0,1.1-0.8,2-2,2s-2-0.8-2-2c0-1.1,0.8-2,2-2c0,0,0.1,0,0.1,0
		C111.8,322.2,112.7,323.1,112.7,324.1z"/>
	<path class="st1" d="M97.7,309.3L97.7,309.3c0-1.4,1.1-2.5,2.5-2.5c0,0,0,0,0,0h21.1c1.4,0,2.5,1.1,2.5,2.5c0,0,0,0,0,0l0,0
		c0,1.4-1.1,2.5-2.5,2.5h-21.1C98.8,311.7,97.7,310.6,97.7,309.3z"/>
	<path class="st3" d="M106.6,336.8L106.6,336.8c1.4,0,2.5,1.1,2.5,2.5v12.9c0,1.4-1.1,2.5-2.5,2.5l0,0c-1.4,0-2.5-1.1-2.5-2.5v-12.9
		C104.1,337.9,105.2,336.8,106.6,336.8z"/>
	<path class="st3" d="M114.9,336.8L114.9,336.8c1.4,0,2.5,1.1,2.5,2.5v12.9c0,1.4-1.1,2.5-2.5,2.5l0,0c-1.4,0-2.5-1.1-2.5-2.5v-12.9
		C112.4,337.9,113.6,336.8,114.9,336.8z"/>
	<rect x="48.1" y="365.7" class="st4" width="41.4" height="16.7"/>
	<rect x="88.3" y="365.7" class="st3" width="41.4" height="16.7"/>
	<rect x="128.6" y="365.7" class="st4" width="41.4" height="16.7"/>
	<rect x="168.8" y="365.7" class="st3" width="41.4" height="16.7"/>
	<rect x="209.2" y="365.7" class="st4" width="41.4" height="16.7"/>
	<rect x="249.4" y="365.7" class="st3" width="41.4" height="16.7"/>
	<rect x="289.8" y="365.7" class="st4" width="41.4" height="16.7"/>
	<rect x="330" y="365.7" class="st3" width="41.4" height="16.7"/>
	<rect x="370.4" y="365.7" class="st4" width="41.4" height="16.7"/>
	<rect x="410.5" y="365.7" class="st3" width="41.4" height="16.7"/>
</g>
<g id="freepik--Shadow--inject-350">
	<ellipse id="freepik--path--inject-350" class="st3" cx="245.2" cy="412.4" rx="193.9" ry="11.3"/>
</g>
<g id="freepik--Device--inject-350">
	<path class="st8" d="M269.5,89.2h-26l-26.1,299.3h26c12.3-0.2,22.5-9.6,23.7-21.8L289.4,111c1.2-10.8-6.6-20.5-17.4-21.7
		C271.2,89.2,270.3,89.2,269.5,89.2z"/>
	<path class="st9" d="M238.6,388.5h-107c-10.9,0.2-19.8-8.4-20-19.3c0-0.8,0-1.7,0.1-2.5L134.1,111c1.2-12.2,11.4-21.6,23.7-21.8
		h107c10.9-0.2,19.8,8.4,20,19.3c0,0.8,0,1.7-0.1,2.5l-22.4,255.7C261.1,378.9,250.9,388.3,238.6,388.5z"/>
	<path class="st10" d="M124.4,387.3L124.4,387.3c2.3,0.8,4.7,1.3,7.2,1.3h107c12.3-0.2,22.5-9.6,23.7-21.8L284.7,111
		c0.9-8.5-3.7-16.6-11.5-20.1l0,0L124.4,387.3z"/>
	<path class="st11" d="M222.3,97.7c-1.5,0-2.7,1.1-2.8,2.6l-0.3,3.9c-0.4,3.9-3.7,6.9-7.6,7h-4.3c-3.5,0.1-6.4-2.7-6.4-6.2
		c0-0.3,0-0.5,0-0.8l0.3-3.9c0.1-1.3-0.8-2.4-2.1-2.6c-0.1,0-0.2,0-0.3,0h-41.7c-7.5,0.1-13.7,5.8-14.5,13.3l-22.4,255.7
		c-0.7,6.6,4.1,12.5,10.7,13.2c0.5,0.1,1,0.1,1.5,0.1h107c7.5-0.1,13.7-5.8,14.5-13.3L276.2,111c0.7-6.6-4.1-12.5-10.6-13.2
		c-0.5-0.1-1-0.1-1.5-0.1H222.3z"/>
	<path class="st12" d="M222.3,97.7c-1.5,0-2.7,1.1-2.8,2.6l-0.3,3.9c-0.4,3.9-3.7,6.9-7.6,7h-4.3c-3.5,0.1-6.4-2.7-6.4-6.2
		c0-0.3,0-0.5,0-0.8l0.3-3.9c0.1-1.3-0.8-2.4-2.1-2.6c-0.1,0-0.2,0-0.3,0h-41.7c-7.5,0.1-13.7,5.8-14.5,13.3l-22.4,255.7
		c-0.7,6.6,4.1,12.5,10.7,13.2c0.5,0.1,1,0.1,1.5,0.1h107c7.5-0.1,13.7-5.8,14.5-13.3L276.2,111c0.7-6.6-4.1-12.5-10.6-13.2
		c-0.5-0.1-1-0.1-1.5-0.1H222.3z"/>
	<path class="st13" d="M215.1,102c-0.3,2.8-2.6,4.9-5.4,5c-2.5,0-4.5-1.9-4.6-4.4c0-0.2,0-0.4,0-0.6c0.3-2.8,2.6-4.9,5.4-5
		c2.5,0,4.5,1.9,4.6,4.4C215.2,101.6,215.1,101.8,215.1,102z"/>
	<path class="st14" d="M212.7,102c-0.1,1.4-1.3,2.5-2.7,2.5c-1.2,0-2.3-1-2.3-2.2c0-0.1,0-0.2,0-0.3c0.1-1.4,1.3-2.5,2.7-2.5
		c1.2,0,2.3,1,2.3,2.2C212.7,101.8,212.7,101.9,212.7,102z"/>
	<path d="M188.5,371.6h-3.9c-2,0-3.6-1.5-3.6-3.5c0-0.2,0-0.3,0-0.5l0.3-3.9c0.2-2.2,2.1-4,4.3-4h3.9c2,0,3.6,1.5,3.6,3.5
		c0,0.2,0,0.3,0,0.5l-0.4,3.9C192.6,369.9,190.8,371.6,188.5,371.6z M185.5,361.8c-1.1,0-2,0.9-2.1,2l-0.3,3.9c-0.1,1,0.6,1.9,1.5,2
		c0.1,0,0.2,0,0.3,0h3.9c1.1,0,2-0.9,2.1-2l0.4-3.9c0.1-1-0.6-1.9-1.5-2c-0.1,0-0.2,0-0.3,0H185.5z"/>
	<path class="st15" d="M140.6,370.6L140.6,370.6c-0.5,0-0.9-0.4-0.9-0.9c0,0,0-0.1,0-0.1l0.7-7.9c0.1-0.6,0.5-1,1.1-1l0,0
		c0.5,0,0.9,0.4,0.9,0.9c0,0,0,0.1,0,0.1l-0.7,7.9C141.6,370.2,141.2,370.6,140.6,370.6z"/>
	<path class="st16" d="M145.5,370.6L145.5,370.6c-0.5,0-0.9-0.4-0.9-0.9c0,0,0-0.1,0-0.1l0.7-7.9c0.1-0.6,0.5-1,1.1-1l0,0
		c0.5,0,0.9,0.4,0.9,0.9c0,0,0,0.1,0,0.1l-0.7,7.9C146.6,370.2,146.1,370.6,145.5,370.6z"/>
	<path class="st17" d="M150.4,370.6L150.4,370.6c-0.5,0-0.9-0.4-0.9-0.9c0,0,0-0.1,0-0.1l0.7-7.9c0.1-0.6,0.5-1,1.1-1l0,0
		c0.5,0,0.9,0.4,0.9,0.9c0,0,0,0.1,0,0.1l-0.7,7.9C151.5,370.2,151,370.6,150.4,370.6z"/>
	<path class="st18" d="M232,370.9l-4.8-5.2l5.7-5.2c0.4-0.4,1-0.4,1.4,0c0,0,0,0,0,0l0,0c0.4,0.4,0.3,1.1-0.1,1.4c0,0,0,0,0,0
		l-4.1,3.8l3.5,3.8c0.4,0.4,0.3,1.1-0.1,1.4c0,0,0,0,0,0l0,0C233,371.3,232.4,371.3,232,370.9z"/>
	<path class="st6" d="M148.7,238.1c-5.1,0.1-9.4-4-9.5-9.1c0-0.4,0-0.8,0.1-1.2c0.6-5.8,5.4-10.2,11.2-10.3h99.2
		c5.1-0.1,9.4,4,9.5,9.1c0,0.4,0,0.8-0.1,1.2c-0.6,5.8-5.4,10.2-11.2,10.3H148.7z"/>
	<path class="st19" d="M285.6,119.2c0.1-1.2,1.1-2.1,2.3-2.1c1,0,1.9,0.8,1.9,1.8c0,0.1,0,0.2,0,0.2l-1.8,20
		c-0.1,1.2-1.1,2.1-2.3,2.1c-1,0-1.9-0.8-1.9-1.9c0-0.1,0-0.2,0-0.2L285.6,119.2z"/>
	<path class="st20" d="M285.6,119.2c0.1-1.2,1.1-2.1,2.3-2.1c1,0,1.9,0.8,1.9,1.8c0,0.1,0,0.2,0,0.2l-1.8,20
		c-0.1,1.2-1.1,2.1-2.3,2.1c-1,0-1.9-0.8-1.9-1.9c0-0.1,0-0.2,0-0.2L285.6,119.2z"/>
	<polygon class="st21" points="150.8,109 153.8,109 154.1,106 151.1,106 	"/>
	<polygon class="st22" points="157.1,106 156.8,109 159.8,109 160.1,106 160.3,103 157.3,103 	"/>
	<polygon class="st19" points="163.6,100 163.3,103 163.1,106 162.8,109 165.8,109 166.1,106 166.3,103 166.6,100 	"/>
	<path class="st23" d="M259,102.4l-0.1,1.7h-1.1l-0.3,3.3h1.1l-0.1,1.7h9.9l0.6-6.6L259,102.4z M263,107.4h-3.3l0.3-3.3h3.3
		L263,107.4z"/>
	<path class="st6" d="M259.6,119H157.7c-4.1,0.1-7.5,3.2-7.9,7.3l-5.5,63c-0.4,3.6,2.2,6.8,5.8,7.2c0.3,0,0.6,0,0.8,0h101.9
		c4.1-0.1,7.5-3.2,7.9-7.3l5.5-63c0.4-3.6-2.2-6.8-5.8-7.2C260.2,119,259.9,119,259.6,119z"/>
	<path class="st9" d="M155.4,139.9c-1.3,0-2.4-1-2.4-2.3c0-0.1,0-0.2,0-0.3c0.2-1.4,1.4-2.5,2.8-2.6h85.3c1.3,0,2.3,1,2.4,2.3
		c0,0.1,0,0.2,0,0.3c-0.1,1.4-1.4,2.6-2.8,2.6H155.4z"/>
	<path class="st24" d="M155.4,139.9c-1.3,0-2.4-1-2.4-2.3c0-0.1,0-0.2,0-0.3c0.2-1.4,1.4-2.5,2.8-2.6h85.3c1.3,0,2.3,1,2.4,2.3
		c0,0.1,0,0.2,0,0.3c-0.1,1.4-1.4,2.6-2.8,2.6H155.4z"/>
	<path class="st9" d="M154.5,150.2c-1.3,0-2.3-1-2.4-2.3c0-0.1,0-0.2,0-0.3c0.1-1.5,1.4-2.6,2.9-2.6h77.6c1.3,0,2.3,1,2.4,2.3
		c0,0.1,0,0.2,0,0.3c-0.2,1.4-1.4,2.6-2.8,2.6L154.5,150.2z"/>
	<path class="st24" d="M154.5,150.2c-1.3,0-2.3-1-2.4-2.3c0-0.1,0-0.2,0-0.3c0.1-1.5,1.4-2.6,2.9-2.6h77.6c1.3,0,2.3,1,2.4,2.3
		c0,0.1,0,0.2,0,0.3c-0.2,1.4-1.4,2.6-2.8,2.6L154.5,150.2z"/>
	<path class="st9" d="M153.6,160.5c-1.3,0-2.3-1-2.4-2.3c0-0.1,0-0.2,0-0.3c0.1-1.4,1.3-2.6,2.8-2.6h82.1c1.3,0,2.3,1,2.4,2.3
		c0,0.1,0,0.2,0,0.3c-0.1,1.5-1.4,2.6-2.8,2.6H153.6z"/>
	<path class="st24" d="M153.6,160.5c-1.3,0-2.3-1-2.4-2.3c0-0.1,0-0.2,0-0.3c0.1-1.4,1.3-2.6,2.8-2.6h82.1c1.3,0,2.3,1,2.4,2.3
		c0,0.1,0,0.2,0,0.3c-0.1,1.5-1.4,2.6-2.8,2.6H153.6z"/>
	<path class="st9" d="M151.8,181.2c-1.3,0-2.3-1-2.4-2.3c0-0.1,0-0.2,0-0.3c0.1-1.5,1.4-2.6,2.8-2.6h91.9c1.3,0,2.3,1,2.4,2.3
		c0,0.1,0,0.2,0,0.3c-0.1,1.4-1.3,2.6-2.8,2.6H151.8z"/>
	<path class="st24" d="M151.8,181.2c-1.3,0-2.3-1-2.4-2.3c0-0.1,0-0.2,0-0.3c0.1-1.5,1.4-2.6,2.8-2.6h91.9c1.3,0,2.3,1,2.4,2.3
		c0,0.1,0,0.2,0,0.3c-0.1,1.4-1.3,2.6-2.8,2.6H151.8z"/>
	<path class="st9" d="M150.9,191.5c-1.3,0-2.3-1-2.4-2.3c0-0.1,0-0.2,0-0.3c0.2-1.4,1.4-2.6,2.8-2.6H204c1.3,0,2.3,1,2.4,2.3
		c0,0.1,0,0.2,0,0.3c-0.1,1.4-1.4,2.6-2.8,2.6H150.9z"/>
	<path class="st24" d="M150.9,191.5c-1.3,0-2.3-1-2.4-2.3c0-0.1,0-0.2,0-0.3c0.2-1.4,1.4-2.6,2.8-2.6H204c1.3,0,2.3,1,2.4,2.3
		c0,0.1,0,0.2,0,0.3c-0.1,1.4-1.4,2.6-2.8,2.6H150.9z"/>
	<path class="st25" d="M196.4,342.7h-16.9c-3.6,0.1-6.6-2.8-6.7-6.5c0-0.3,0-0.5,0-0.8l1.5-16.9c0.4-4.1,3.8-7.2,7.9-7.3h16.9
		c3.6-0.1,6.6,2.8,6.7,6.5c0,0.3,0,0.6,0,0.8l-1.5,16.9C203.9,339.5,200.5,342.7,196.4,342.7z"/>
	<path class="st25" d="M238.9,342.7H222c-3.6,0.1-6.6-2.8-6.7-6.5c0-0.3,0-0.5,0-0.8l1.5-16.9c0.4-4.1,3.8-7.2,7.9-7.3h16.9
		c3.6-0.1,6.6,2.8,6.7,6.5c0,0.3,0,0.6,0,0.8l-1.5,16.9C246.4,339.5,243,342.7,238.9,342.7z"/>
	<path class="st25" d="M158.5,290.4h-16.9c-3.6,0.1-6.6-2.8-6.7-6.4c0-0.3,0-0.6,0-0.8l1.5-16.9c0.4-4.1,3.8-7.2,7.9-7.3h16.9
		c3.6-0.1,6.6,2.8,6.7,6.4c0,0.3,0,0.6,0,0.8l-1.5,16.9C166,287.2,162.6,290.3,158.5,290.4z"/>
	<path class="st25" d="M201,290.4h-16.9c-3.6,0.1-6.6-2.8-6.7-6.4c0-0.3,0-0.6,0-0.8l1.5-16.9c0.4-4.1,3.8-7.2,7.9-7.3h16.9
		c3.6-0.1,6.6,2.8,6.7,6.4c0,0.3,0,0.6,0,0.8l-1.5,16.9C208.5,287.2,205.1,290.3,201,290.4z"/>
	<path class="st25" d="M243.5,290.4h-16.9c-3.6,0.1-6.6-2.8-6.7-6.4c0-0.3,0-0.6,0-0.8l1.5-16.9c0.4-4.1,3.8-7.2,7.9-7.3h16.9
		c3.6-0.1,6.6,2.8,6.7,6.4c0,0.3,0,0.6,0,0.8l-1.5,16.9C251,287.2,247.6,290.3,243.5,290.4z"/>
	<path class="st25" d="M153.9,342.7H137c-3.6,0.1-6.6-2.8-6.7-6.5c0-0.3,0-0.5,0-0.8l1.5-16.9c0.4-4.1,3.8-7.2,7.9-7.3h16.9
		c3.6-0.1,6.6,2.8,6.7,6.5c0,0.3,0,0.6,0,0.8l-1.5,16.9C161.4,339.5,158,342.7,153.9,342.7z"/>
	<path class="st26" d="M132.3,380h107c7.5-0.1,13.7-5.8,14.5-13.3L276.1,111c0.5-4.9-2-9.6-6.4-11.9L129,379.6
		C130.1,379.9,131.2,380,132.3,380z"/>
	<path class="st27" d="M150.8,264.3c-5.8,0-10.6,4.7-10.6,10.6c0,5.8,4.7,10.6,10.6,10.6s10.6-4.7,10.6-10.6
		C161.3,269,156.6,264.3,150.8,264.3z M150.8,265.9c5,0,9,4,9,9c0,5-4,9-9,9s-9-4-9-9C141.8,269.9,145.8,265.9,150.8,265.9z
		 M148.4,270.2c-0.7,0-1.3,0.6-1.3,1.3v6.7c0,1,1.1,1.6,1.9,1.2v0l6.4-3.3v0c0.9-0.5,0.9-1.9,0-2.3h0l-6.4-3.3
		C148.8,270.2,148.6,270.2,148.4,270.2z M148.7,272l5.5,2.9l-5.5,2.9V272z"/>
	<path class="st28" d="M192.8,265.2c-0.1,0-0.1,0-0.2,0c-0.3,0-0.5,0.1-0.7,0.3c0,0,0,0,0,0l-4.6,4.1h-3.3c-1.2,0-2.2,1-2.2,2.2v4.5
		c0,1.2,1,2.2,2.2,2.2h3.3l4.6,4.1c0.4,0.4,1,0.4,1.5,0.2c0.5-0.2,0.8-0.7,0.8-1.3v-15.1c0-0.6-0.4-1.1-0.8-1.3
		C193.2,265.3,193,265.2,192.8,265.2z M200.8,266.2c-0.4,0-0.7,0.4-0.7,0.8c0,0.1,0,0.2,0.1,0.4c2.7,4.6,2.7,9.1,0,13.7
		c-0.2,0.3-0.1,0.8,0.2,1s0.8,0.1,1-0.2c0,0,0,0,0,0c2.9-5,2.9-10.2,0-15.2C201.3,266.3,201,266.1,200.8,266.2z M192.7,266.8v14.6
		l-4.6-4.1c-0.1-0.1-0.3-0.2-0.5-0.2h-3.6c-0.4,0-0.7-0.3-0.7-0.7v-4.5c0-0.4,0.3-0.7,0.7-0.7h3.6c0.2,0,0.4-0.1,0.5-0.2
		L192.7,266.8z M198.5,268.1c-0.4,0-0.7,0.3-0.8,0.7c0,0.1,0,0.2,0.1,0.4c1.7,3.3,1.7,6.5,0,9.8c-0.2,0.4-0.1,0.8,0.3,1
		c0.4,0.2,0.8,0.1,1-0.3c0,0,0,0,0,0c1.9-3.7,1.9-7.5,0-11.2C199.1,268.3,198.8,268.1,198.5,268.1z M196.2,270.6
		c-0.4,0-0.7,0.4-0.7,0.8c0,0.1,0,0.2,0.1,0.3c0.8,1.7,0.8,3.2,0,4.9c-0.2,0.4,0,0.8,0.4,1c0.4,0.2,0.8,0,1-0.4c0,0,0,0,0,0
		c0.9-2,0.9-4.1,0-6.1C196.8,270.8,196.6,270.6,196.2,270.6z"/>
</g>
<g id="freepik--Character--inject-350">
	<polygon class="st29" points="256.8,386.6 249.2,402.1 255.3,407 266.4,390.3 	"/>
	<path class="st30" d="M258.6,405.5c-0.1,0-0.1-0.1-0.1-0.2c0-0.1,0.1-0.2,0.2-0.2c0.2,0,3.8-0.9,5.1,0c0.3,0.2,0.4,0.4,0.5,0.7
		c0.1,0.3,0,0.7-0.3,0.9c-0.5,0.4-1.7,0.2-2.8-0.1C260.3,406.4,259.5,406,258.6,405.5z M259.4,405.5c1.6,0.7,3.8,1.3,4.4,0.9
		c0.1-0.1,0.2-0.2,0.1-0.5c0-0.2-0.2-0.3-0.3-0.4c-0.1-0.1-0.3-0.1-0.4-0.2C261.9,405.1,260.6,405.2,259.4,405.5L259.4,405.5z"/>
	<path class="st30" d="M258.5,405.5c0-0.1,0-0.2,0-0.2c0-0.1,1-2.4,2.4-3c0.4-0.2,0.9-0.2,1.3,0c0.6,0.2,0.7,0.6,0.6,0.8
		c-0.1,1.1-2.8,2.4-4,2.5c0,0-0.1,0-0.1,0C258.6,405.6,258.6,405.6,258.5,405.5z M261.9,402.6c-0.3-0.1-0.5-0.1-0.8,0
		c-0.9,0.6-1.6,1.4-2,2.4c1.3-0.3,3.1-1.4,3.3-2c0-0.1,0-0.2-0.4-0.4L261.9,402.6L261.9,402.6z"/>
	<path class="st9" d="M258.1,404l-9.7-2.9c-0.4-0.1-0.8,0-0.9,0.4l-4.1,7.4c-0.4,0.7-0.1,1.5,0.5,1.9l0.3,0.1c3.5,1,6.7,1.7,11,3
		c5.1,1.5,3.6,1.8,9.7,3.6c3.6,1.1,5.5-2.8,4-3.5c-6.8-3-6.9-5.3-8.9-8.6C259.5,404.7,258.8,404.2,258.1,404z"/>
	<polygon class="st31" points="251.6,397.3 258.9,401.6 266.4,390.3 256.8,386.6 	"/>
	<polygon class="st29" points="340.1,392.9 348.1,408 355.5,404.5 348.7,387.2 	"/>
	<path class="st30" d="M357.1,404c-0.1,0-0.2,0-0.2-0.1c-0.1-0.1-0.1-0.2,0-0.3c0.1-0.1,2.2-3.2,3.8-3.4c0.3-0.1,0.6,0,0.9,0.2
		c0.3,0.2,0.5,0.5,0.4,0.9c-0.1,0.6-1.1,1.3-2.2,1.8C358.9,403.4,358,403.8,357.1,404z M357.6,403.4c1.6-0.5,3.8-1.5,3.9-2.3
		c0-0.1,0-0.2-0.3-0.4c-0.1-0.1-0.3-0.1-0.5-0.1c-0.1,0-0.3,0.1-0.4,0.1C359.2,401.5,358.3,402.4,357.6,403.4L357.6,403.4z"/>
	<path class="st30" d="M357,404.1c-0.1,0-0.1-0.1-0.2-0.1c0-0.1-0.9-2.5-0.2-3.9c0.2-0.4,0.5-0.7,1-0.9c0.6-0.2,0.9,0,1,0.2
		c0.6,0.9-0.5,3.6-1.3,4.5c0,0,0,0-0.1,0C357.1,404,357.1,404.1,357,404.1z M357.6,399.6c-0.3,0.1-0.5,0.3-0.6,0.6
		c-0.3,1-0.2,2.1,0.1,3.1c0.8-1.1,1.4-3.1,1.1-3.7c0,0-0.1-0.2-0.5,0L357.6,399.6L357.6,399.6z"/>
	<path class="st9" d="M355.7,403.3l-9.2,4.3c-0.3,0.2-0.5,0.5-0.5,0.9l1.8,8.2c0.2,0.7,0.9,1.2,1.6,1c0.1,0,0.2-0.1,0.3-0.1
		c3.3-1.6,6.1-3.2,10.2-5.1c4.9-2.3,3.9-1.1,9.6-3.7c3.5-1.6,2.3-5.8,0.7-5.3c-7.1,2.3-8.7,0.6-12.4-0.6
		C357.2,402.8,356.4,402.9,355.7,403.3z"/>
	<polygon class="st31" points="353.6,399.9 349.6,389.5 344.7,389.9 340.1,392.9 346,404 	"/>
	<path class="st29" d="M329.9,190.2l2.8-6.6l3.3-10.3c0.3-0.9,1-1.6,1.8-1.9l3.9-1.4c1.4-0.5,2.9,0.1,3.6,1.3l2.3,4
		c0.8,1.4,0.3,3.1-1,4l-8.3,5.4l-1.1,7.8L329.9,190.2z"/>
	<path class="st32" d="M297.6,243.8h15.4c0,0,5.6,20-18,102.8c-0.3,1-0.7,1.9-1.3,2.8l-31.8,49l-9-5.3c0,0,8.9-23.4,18.2-41.1
		c2.2-4.1,4.3-7.5,5.4-11.1c0.7-2.2,1.2-3.8,1.4-9.4c0.4-12.7,1.1-34.8,2.4-44.6c0,0-12.4-22.5-7.1-43.2L297.6,243.8z"/>
	<path class="st33" d="M297.6,243.8h15.4c0,0,5.6,20-18,102.8c-0.3,1-0.7,1.9-1.3,2.8l-31.8,49l-9-5.3c0,0,8.9-23.4,18.2-41.1
		c2.2-4.1,4.3-7.5,5.4-11.1c0.7-2.2,1.2-3.8,1.4-9.4c0.4-12.7,1.1-34.8,2.4-44.6c0,0-12.4-22.5-7.1-43.2L297.6,243.8z"/>
	<path class="st30" d="M308.1,176.3c2.6,1.8,7.7,8.2,14.6,24.7c0.3,0.8,1.3,1.2,2.1,0.9c0.4-0.2,0.8-0.6,0.9-1l4.7-14.9l8.1,1.5
		c0,0-2.9,33.7-12.9,33.9s-22.6-29.9-22.6-29.9s-1.8-9.8,1-14.4C305,175.8,306.7,175.5,308.1,176.3
		C308.1,176.3,308.1,176.3,308.1,176.3z"/>
	<path class="st33" d="M308.1,176.3c2.6,1.8,7.7,8.2,14.6,24.7c0.3,0.8,1.3,1.2,2.1,0.9c0.4-0.2,0.8-0.6,0.9-1l4.7-14.9l8.1,1.5
		c0,0-2.9,33.7-12.9,33.9s-22.6-29.9-22.6-29.9s-1.8-9.8,1-14.4C305,175.8,306.7,175.5,308.1,176.3
		C308.1,176.3,308.1,176.3,308.1,176.3z"/>
	<path class="st34" d="M270.5,243.8h30.8l2.8,14.3l49.3,138.8l-9.8,5.3c0,0-21-34.8-30.9-58.1c-1.6-3.8-2.4-7.5-3.8-10.1
		c-1.1-2.2-2.4-3-6-8c-5.9-8.2-13.9-19.6-20.5-33.1c-0.9-1.9-1.5-4-2.6-5.7c-1.2-1.5-2.4-3-3.4-4.6
		C272.4,275.7,266.4,262.3,270.5,243.8z"/>
	<polygon class="st30" points="340.1,399.2 353.2,392.2 354.7,397 343.1,403.4 	"/>
	<polygon class="st24" points="340.1,399.2 353.2,392.2 354.7,397 343.1,403.4 	"/>
	<polygon class="st30" points="252.6,389.5 265.2,397.4 261.8,401.1 250.5,394.2 	"/>
	<polygon class="st24" points="252.6,389.5 265.2,397.4 261.8,401.1 250.5,394.2 	"/>
	<path class="st30" d="M259.1,179.6c-1.9,1.6-2.7,4.2-1.9,6.5c2.7,8.3,9.1,28.1,10.3,35.9c0.7,4.9-1.9,15.3,0,20
		c1,1.8,2.6,3.3,4.5,4.1c9.7,3,40.5,0,40.5,0s2.7-1.4,3-2.3c0.8-2.5-3-10.2-3-10.2s0.3-19.1,0-25.5c-0.3-5.4-1.1-16.7-1.7-24
		c-0.3-4.6-3.3-8.6-7.6-10.2C293.4,170.2,275.4,166.5,259.1,179.6z"/>
	<path class="st24" d="M259.1,179.6c-1.9,1.6-2.7,4.2-1.9,6.5c2.7,8.3,9.1,28.1,10.3,35.9c0.7,4.9-1.9,15.3,0,20
		c1,1.8,2.6,3.3,4.5,4.1c8.3,2.6,31.9,0.8,38.7,0.2c1.5-0.1,2.9-0.7,4.1-1.6c0.3-0.2,0.5-0.5,0.7-0.8c0.8-2.5-3-10.2-3-10.2
		s0.3-19.1,0-25.5c-0.3-5.4-1.1-16.7-1.7-24c-0.3-4.6-3.3-8.6-7.6-10.2C293.4,170.2,275.4,166.5,259.1,179.6z"/>
	<path class="st30" d="M293.6,189.2c0,0-20-3-23.3-14.7s22.2-10.5,27.1-0.9S293.6,189.2,293.6,189.2z"/>
	<path class="st33" d="M293.6,189.2c0,0-20-3-23.3-14.7s22.2-10.5,27.1-0.9S293.6,189.2,293.6,189.2z"/>
	<path class="st29" d="M292.7,185.9c0,0-13.3-2.3-15.4-10s13.6-6.6,17.3,0C297.5,181.1,292.7,185.9,292.7,185.9z"/>
	<path class="st29" d="M273.4,245.1l6.5,5.2c2.1-0.1,4.2-0.1,6.3,0.1c1.3,0.4,2.5,0.9,3.7,1.5l-7.2,9.1c-0.9-0.5-1.8-1-2.6-1.6
		c-1.5-1.4-2.9-2.8-4.3-4.4l-6.4-3.6L273.4,245.1z"/>
	<path class="st9" d="M302.1,135.7c0,0,3.8,5.3-2.3,5S302.1,135.7,302.1,135.7z"/>
	<path class="st29" d="M278.1,173.9l0.8,2.2c4.1,2.1,8.3,4.1,12.6,5.8c2.2-1.2,1.4-2.4,2.1-3.5l0.4-2.5c-3.4-1.7-4.3-5.8-3.9-8.9
		c0.1-1,0.3-1.9,0.5-2.9l-7-5.9l-5.2-4.3C279.6,159.7,281,169.1,278.1,173.9z"/>
	<path class="st33" d="M290.5,164.1c-0.2,0.9-0.4,1.9-0.5,2.9c-2.6-0.5-6.6-2.9-7-5.8c0-1,0.2-1.9,0.4-2.9L290.5,164.1z"/>
	<path class="st29" d="M278.9,141.4c-1.1,8.4-2.1,13.3,1.3,18.4c5.1,7.8,15.9,6.1,19.4-1.7c3.2-7.1,4.3-19.7-3.1-24.7
		c-5-3.6-12-2.4-15.6,2.7C279.8,137.6,279.1,139.5,278.9,141.4L278.9,141.4z"/>
	<path class="st35" d="M291.1,146.5c-0.1,0.7,0.1,1.3,0.6,1.4s0.9-0.4,1.1-1.1s-0.1-1.3-0.6-1.4S291.2,145.8,291.1,146.5z"/>
	<path class="st35" d="M299,148c-0.1,0.7,0.1,1.3,0.6,1.4s0.9-0.4,1.1-1.1s-0.1-1.3-0.6-1.4S299.1,147.3,299,148z"/>
	<path class="st36" d="M295.9,147.9c0.4,1.9,1,3.8,1.8,5.6c-0.9,0.4-2,0.4-3,0L295.9,147.9z"/>
	<path class="st35" d="M293.5,158.1c-1.6-0.1-3.1-0.8-4.1-2c-0.1-0.1-0.1-0.2,0-0.3c0.1-0.1,0.2-0.1,0.3,0l0,0
		c1.2,1.3,2.9,2,4.6,1.9c0.1,0,0.2,0.1,0.2,0.2l0,0c0,0.1-0.1,0.2-0.2,0.2L293.5,158.1z"/>
	<path class="st35" d="M289.3,143.7c-0.1,0-0.1,0-0.2-0.1c-0.2-0.1-0.2-0.4-0.1-0.6l0,0c0.7-1,1.9-1.7,3.2-1.7
		c0.2,0,0.4,0.2,0.4,0.4c0,0,0,0,0,0l0,0c0,0.2-0.2,0.4-0.4,0.4c-1,0-2,0.5-2.5,1.3C289.6,143.6,289.4,143.7,289.3,143.7z"/>
	<path class="st35" d="M302.6,145.4c-0.1,0-0.2-0.1-0.3-0.2c-0.5-0.9-1.4-1.6-2.4-1.7c-0.2,0-0.4-0.2-0.4-0.4c0,0,0,0,0,0l0,0
		c0-0.2,0.2-0.4,0.4-0.4l0,0c1.3,0.2,2.4,1,3,2.1c0.1,0.2,0.1,0.4-0.1,0.5c0,0,0,0,0,0C302.8,145.4,302.7,145.4,302.6,145.4z"/>
	<path class="st9" d="M277.9,147.6c0,0,7.7,3.7,4.7-9c0,0,8.6,3.3,12.3-0.7c0,0,12.1,1.4,10.5-3.8c0,0,0.8-3.2-4-2
		c0,0,0.3-3.8-4.6-3.4c0,0-1.2-2.7-5.7-1.5c0,0-0.5-3.5-6.4-0.3c0,0-7.6-0.1-6.4,5c0,0-10.1,0.1-5.9,6.3c0,0-3.1,2.7,0.6,4.6
		C272.9,142.9,271,150.1,277.9,147.6z"/>
	<path class="st29" d="M274.3,148.5c0.5,2,1.6,3.9,3.3,5.1c2.1,1.6,3.8-0.3,3.6-3c-0.1-2.4-1.3-6.1-3.7-6.6S273.7,145.9,274.3,148.5
		z"/>
	<path class="st30" d="M258.2,180.1c-1.3,0.9-2.5,2.1-3.3,3.5c-3.2,5.6-11.5,22.1-10.4,38.7c1.3,20.5,29.4,32,29.4,32l4.2-6.8
		c0,0-27.5-21.7-15-44.1C263.1,203.4,277.8,167,258.2,180.1z"/>
	<path class="st33" d="M258.2,180.1c-1.3,0.9-2.5,2.1-3.3,3.5c-3.2,5.6-11.5,22.1-10.4,38.7c1.3,20.5,29.4,32,29.4,32l4.2-6.8
		c0,0-27.5-21.7-15-44.1C263.1,203.4,277.8,167,258.2,180.1z"/>
	<polygon class="st30" points="291.7,188 292.9,188.2 291.6,200.3 290,200.5 	"/>
	<path class="st30" d="M294.2,187.4l1-0.9c3.3,3.2,5.1,7.6,5.1,12.2l-1.4,0.6C298.9,199.3,298.1,190.3,294.2,187.4z"/>
	<polygon class="st30" points="289.1,250.1 278.9,263.6 283.2,266 293.5,252.2 	"/>
	<polygon class="st33" points="289.1,250.1 278.9,263.6 283.2,266 293.5,252.2 	"/>
	<path class="st31" d="M310.1,234.1c-9.5,1.6-19.2,2.1-28.9,1.6C281.2,235.7,304.6,241.6,310.1,234.1z"/>
	<path class="st30" d="M337.2,183h-4.4c-0.5,0-0.9-0.4-0.9-0.9c0-0.1,0-0.3,0.1-0.4l8.2-16.9c0.4-0.8,1.2-1.2,2-1.2h4.4
		c0.5,0,0.9,0.4,0.9,0.9c0,0.1,0,0.3-0.1,0.4l-8.2,16.9C338.8,182.5,338,183,337.2,183z"/>
	<path class="st10" d="M347.4,164.1c-0.1-0.3-0.5-0.5-0.8-0.5h-4.4c-0.8,0-1.6,0.5-2,1.2l-6.2,12.7L347.4,164.1z"/>
	<path class="st30" d="M346.6,163.6h-0.1c0,0.1,0,0.2-0.1,0.3l-8.2,16.9c-0.4,0.8-1.1,1.3-2,1.2h-4.2c0,0.5,0.3,1,0.8,1
		c0,0,0,0,0.1,0h4.4c0.9,0,1.6-0.5,2-1.2l8.2-16.9c0.2-0.5,0-1-0.5-1.2C346.8,163.6,346.7,163.5,346.6,163.6z"/>
	<path class="st33" d="M346.6,163.6h-0.1c0,0.1,0,0.2-0.1,0.3l-8.2,16.9c-0.4,0.8-1.1,1.3-2,1.2h-4.2c0,0.5,0.3,1,0.8,1
		c0,0,0,0,0.1,0h4.4c0.9,0,1.6-0.5,2-1.2l8.2-16.9c0.2-0.5,0-1-0.5-1.2C346.8,163.6,346.7,163.5,346.6,163.6z"/>
	<path class="st29" d="M344.9,171.3l-1.3-0.8c-1-0.6-2.3-0.3-2.9,0.7c-0.2,0.3-0.3,0.6-0.3,0.9l-0.7,6.9c-0.1,0.6,0.1,1.1,0.5,1.6
		l0.6,0.8c0.3,0.3,0.7,0.4,1.1,0.1c0.1-0.1,0.2-0.2,0.2-0.4l3.1-8.9C345.4,171.8,345.2,171.5,344.9,171.3z"/>
</g>
<path class="st37" d="M240.4,263.9c-0.1,0-0.2,0-0.3,0c-3.1,0.2-5.5,2.7-5.5,5.9c0,3.2,2.6,5.9,5.9,5.9c3.2,0,5.9-2.6,5.9-5.9
	c0-3.1-2.5-5.7-5.6-5.9C240.7,263.9,240.5,263.9,240.4,263.9z M242,265.7c0.7,0.3,1.3,0.7,1.8,1.3c-0.6,0.3-0.8,1.2-0.5,2
	c0.3,0.8,1,1.3,1.5,1.2c-0.1,0.7-0.3,1.3-0.6,1.8c-0.4-0.4-1.2-0.3-1.9,0.1c-0.8,0.5-1.1,1.4-0.8,1.9c-0.4,0.1-0.7,0.2-1.1,0.2
	c-0.3,0-0.6,0-0.8-0.1c0,0,0,0,0,0c0.3-0.6-0.1-1.4-0.9-1.9c-0.7-0.4-1.6-0.4-2,0.1c-0.4-0.6-0.7-1.3-0.7-2.1c0,0,0,0,0,0
	c0.6,0.2,1.4-0.3,1.8-1.2c0.3-0.9,0.1-1.8-0.5-2c-0.1,0-0.1,0-0.2,0c0.5-0.5,1.1-0.9,1.8-1.2c0.3,0.4,0.9,0.7,1.5,0.7
	C241.1,266.4,241.7,266.1,242,265.7z M228.9,265.9c-0.1,0-0.2,0-0.3,0c0.5,1,1.5,1.9,2.8,1.7C231,266.6,230,265.9,228.9,265.9z
	 M227.7,266.2c-0.9,0.4-1.5,1.4-1.5,2.4c0,0.1,0,0.2,0,0.2c1.8-0.1,3.3,0.7,3.9,2.2c0.9-0.4,1.5-1.4,1.5-2.4c0,0,0,0,0-0.1
	c-0.2,0-0.4,0.1-0.6,0.1C229.6,268.6,228.4,267.7,227.7,266.2C227.7,266.2,227.7,266.2,227.7,266.2z M240.6,268.1
	c-0.9,0-1.7,0.8-1.7,1.7s0.8,1.7,1.7,1.7c0.9,0,1.7-0.8,1.7-1.7S241.5,268.1,240.6,268.1z M226.5,269.8c0.4,0.9,1.4,1.5,2.4,1.5
	c0.1,0,0.2,0,0.3,0C228.7,270.2,227.5,269.8,226.5,269.8z M230.2,272.4c-0.4,0-0.8,0.1-1.2,0.1c-1.6,0.3-3,1.2-3.6,2.6
	c-0.7,1.4-0.5,3.1,0.3,4.5c0.7,1.4,2.1,2.7,3.8,3.5c1.7,0.8,3.5,1,5.1,0.7c0.2,0,0.4-0.1,0.6-0.1c0,0,0.1,0,0.1,0
	c1.9-0.5,4.9-0.7,6.9,0c0.1,0.2,0.3,0.4,0.5,0.5l2.7,1.2c0.5,0.2,1.1,0,1.4-0.5c0.2-0.5,0-1.1-0.5-1.4l-2.7-1.2
	c-0.2-0.1-0.5-0.1-0.7,0c-1.9-1-3.7-3.4-4.7-5.1c0,0,0,0,0,0c-0.1-0.1-0.1-0.3-0.2-0.4c-0.8-1.4-2.1-2.7-3.8-3.5
	c-0.9-0.4-1.7-0.7-2.6-0.8C231.1,272.5,230.7,272.4,230.2,272.4z M230.3,273.9c0.3,0,0.6,0,0.8,0c0,0.4,0.3,0.7,0.7,0.7c0,0,0,0,0,0
	c0.3,0,0.6-0.2,0.7-0.4c0.3,0.1,0.6,0.2,1,0.4c0,0,0.1,0,0.1,0.1c-0.1,0.4,0.1,0.8,0.4,0.9c0.1,0,0.2,0,0.2,0c0.2,0,0.4-0.1,0.5-0.2
	c0.7,0.5,1.2,1.1,1.6,1.7c0,0-0.1,0-0.1,0c-0.4,0-0.7,0.3-0.7,0.7c0,0.4,0.3,0.7,0.7,0.7c0.3,0,0.5-0.1,0.6-0.4
	c0.3,0.9,0.3,1.7-0.1,2.4c-0.3,0.6-0.7,1-1.3,1.4c0.1-0.4-0.1-0.8-0.5-0.9c-0.1,0-0.1,0-0.2,0c-0.4,0-0.7,0.3-0.7,0.7
	c0,0.3,0.1,0.5,0.3,0.6c-0.1,0-0.1,0-0.2,0c-0.5,0.1-1.1,0.1-1.7,0.1c-0.1-0.3-0.4-0.5-0.7-0.5c-0.2,0-0.4,0.1-0.6,0.3
	c-0.4-0.1-0.8-0.2-1.2-0.4c0.1-0.4-0.2-0.8-0.6-0.8c0,0-0.1,0-0.1,0c-0.2,0-0.3,0.1-0.4,0.2c-0.7-0.5-1.2-1-1.7-1.6c0,0,0.1,0,0.1,0
	c0.4,0,0.7-0.3,0.7-0.7c0-0.4-0.3-0.7-0.7-0.7c-0.3,0-0.6,0.2-0.7,0.5c-0.4-1-0.4-1.9,0-2.8c0.4-0.9,1.4-1.6,2.6-1.8
	C229.6,274,229.9,273.9,230.3,273.9z M228.9,274.2c-0.4,0-0.7,0.3-0.7,0.7s0.3,0.7,0.7,0.7c0.4,0,0.7-0.3,0.7-0.7
	S229.3,274.2,228.9,274.2z M231.4,275.2c-0.4,0-0.7,0.3-0.7,0.7c0,0.4,0.3,0.7,0.7,0.7c0.4,0,0.7-0.3,0.7-0.7
	C232.1,275.5,231.8,275.2,231.4,275.2L231.4,275.2z M227.9,276.2c-0.4,0-0.7,0.3-0.7,0.7s0.3,0.7,0.7,0.7c0.4,0,0.7-0.3,0.7-0.7
	S228.3,276.2,227.9,276.2z M233.8,276.2c-0.4,0-0.7,0.3-0.7,0.7s0.3,0.7,0.7,0.7c0.4,0,0.7-0.3,0.7-0.7S234.2,276.2,233.8,276.2z
	 M230.4,277c-0.4,0-0.7,0.3-0.7,0.7s0.3,0.7,0.7,0.7c0.4,0,0.7-0.3,0.7-0.7S230.8,277,230.4,277z M232.8,278.1
	c-0.4,0-0.7,0.3-0.7,0.7c0,0.4,0.3,0.7,0.7,0.7s0.7-0.3,0.7-0.7C233.6,278.5,233.2,278.1,232.8,278.1z M235.3,279
	c-0.4,0-0.7,0.3-0.7,0.7s0.3,0.7,0.7,0.7c0.4,0,0.7-0.3,0.7-0.7S235.7,279,235.3,279z M229.9,279.1c-0.4,0-0.7,0.3-0.7,0.7
	s0.3,0.7,0.7,0.7c0.4,0,0.7-0.3,0.7-0.7S230.3,279.1,229.9,279.1z M232.3,280.1c-0.4,0-0.7,0.3-0.7,0.7c0,0.4,0.3,0.7,0.7,0.7
	c0.4,0,0.7-0.3,0.7-0.7C233.1,280.4,232.7,280.1,232.3,280.1z M238.5,280.3c0.4,0.5,0.9,1,1.4,1.5c-0.7,0-1.4,0-2,0
	c0.1-0.2,0.2-0.4,0.3-0.6C238.3,281,238.4,280.7,238.5,280.3z"/>
<path class="st38" d="M138,316.8c-1.2,0-2.2,1-2.2,2.2l-0.3,15.6c0,1.2,0.9,2.2,2.2,2.3l18.2,0.3c1.2,0,2.2-1,2.2-2.2l0.3-15.6
	c0-1.2-0.9-2.2-2.2-2.3L138,316.8z M138,318.3l18.2,0.3c0.4,0,0.7,0.3,0.7,0.7l-0.3,15.6c0,0.4-0.3,0.7-0.7,0.7l-18.2-0.3
	c-0.4,0-0.7-0.3-0.7-0.7l0.3-15.6C137.3,318.6,137.6,318.3,138,318.3z M139.1,319.3c-0.4,0-0.8,0.3-0.8,0.8l-0.2,13.3
	c0,0.4,0.3,0.8,0.8,0.8l15.9,0.3c0.4,0,0.8-0.3,0.8-0.8l0.2-13.3c0-0.4-0.3-0.8-0.8-0.8L139.1,319.3z M139.8,320.9l14.4,0.3L154,333
	l-2.3,0c0.4,0,0.8-0.3,0.8-0.7c0-0.4-0.3-0.8-0.7-0.8c0,0,0,0,0,0l-3.6-0.1c-0.4,0-0.8,0.3-0.8,0.7c0,0.4,0.3,0.8,0.7,0.8
	c0,0,0,0,0,0l-8.5-0.2L139.8,320.9z M147,323.1c-0.8,0-1.6,0.7-1.6,1.5s0.7,1.6,1.5,1.6c0.8,0,1.6-0.7,1.6-1.5
	S147.8,323.1,147,323.1z M142.3,325c-0.6,0-1,0.4-1,1c0,0.6,0.4,1,1,1c0.6,0,1-0.4,1-1C143.3,325.5,142.9,325.1,142.3,325z
	 M151.5,325.2c-0.6,0-1,0.4-1,1c0,0.6,0.4,1,1,1s1-0.4,1-1C152.6,325.7,152.1,325.2,151.5,325.2z M146.9,326.9
	c-1.1,0-2.1,0.8-2.4,1.1c-0.1,0.1-0.1,0.2-0.1,0.3c0,0.2,0,0.5,0,0.8c0,0.3,0.2,0.5,0.5,0.5l4.1,0.1c0.3,0,0.5-0.2,0.5-0.5l0-0.8
	c0-0.1,0-0.3-0.1-0.4C148.9,327.8,148,326.9,146.9,326.9z M142.3,327.6c-0.9,0-1.6,0.5-1.9,0.7c-0.1,0.1-0.2,0.2-0.2,0.4l0,0.4
	c0,0.1,0,0.3,0.1,0.4c0.1,0.1,0.2,0.2,0.4,0.2l2.1,0c0.1,0,0.3,0,0.4-0.1s0.2-0.2,0.2-0.4c0-0.3,0-0.7,0-0.9c0-0.2-0.1-0.4-0.3-0.5
	C142.7,327.7,142.5,327.6,142.3,327.6z M151.5,327.8c-0.2,0-0.4,0-0.6,0c-0.2,0-0.4,0.3-0.4,0.5c0,0.3,0,0.7,0,1
	c0,0.1,0,0.3,0.1,0.4s0.2,0.2,0.4,0.2l2.1,0c0.1,0,0.3,0,0.4-0.1s0.2-0.2,0.2-0.4l0-0.4c0-0.1-0.1-0.3-0.2-0.4
	C153.1,328.3,152.4,327.8,151.5,327.8z"/>
<path class="st37" d="M186.8,315.4c-0.8,0-1.6,0.3-2.2,0.9c-1.2,1.2-1.2,3.1,0,4.3c0,0,0,0,0,0l4.1,4.1c0.3,0.3,0.8,0.3,1.1,0
	l4.1-4.1c0,0,0,0,0,0c1.2-1.2,1.2-3.1,0-4.3c-1.2-1.2-3.1-1.2-4.3,0l-0.4,0.3l-0.4-0.3C188.3,315.7,187.5,315.4,186.8,315.4z
	 M191.8,317c0.4,0,0.7,0.1,1,0.4c0,0,0,0,0,0c0.6,0.6,0.6,1.5,0,2.1l-3.6,3.5l-3.6-3.5v0c-0.6-0.6-0.6-1.5,0-2.1c0,0,0,0,0,0
	c0.3-0.3,0.7-0.4,1-0.4s0.7,0.1,1,0.4c0,0,0,0,0,0l0.9,0.8c0.3,0.3,0.8,0.3,1.1,0l0.9-0.8c0,0,0,0,0,0
	C191,317.2,191.4,317,191.8,317z M197.3,324.5c-0.6,0-1.2,0.2-1.7,0.6c-0.5,0.4-2.2,1.6-3.6,2.7c-0.3-1-1.2-1.7-2.3-1.7h-2.3
	c-1.5,0-2.2-0.1-2.8-0.2c-0.6-0.1-1.2-0.3-2.1-0.3c-2.1,0-3.6,1.3-4.6,2.5c-1,1.2-1.6,2.4-1.6,2.4c-0.2,0.4,0,0.9,0.4,1.1
	c0.4,0.2,0.9,0,1.1-0.4c0,0,0.5-1,1.3-2.1c0.9-1,2.1-2,3.4-2c0.8,0,1.2,0.1,1.8,0.2c0.7,0.1,1.5,0.3,3.1,0.3h2.3
	c0.5,0,0.8,0.3,0.8,0.8c0,0.2-0.1,0.5-0.3,0.6c0,0,0,0,0,0c0,0,0,0,0,0c0,0,0,0,0,0c-0.1,0.1-0.3,0.1-0.4,0.1h-3.7
	c-0.4,0-0.8,0.3-0.8,0.8c0,0.4,0.3,0.8,0.8,0.8c0,0,0,0,0,0h3.7c0.5,0,1-0.2,1.4-0.4c0,0,0,0,0,0c0,0,0.1,0,0.1-0.1
	c0,0,4.5-3.4,5.3-4c0,0,0,0,0,0c0.3-0.2,0.6-0.3,0.7-0.3c0.2,0,0.3,0,0.5,0.2c0.3,0.3,0.3,0.8,0,1.1c-2.8,2.4-4.6,4-5.8,4.9
	c-1.2,0.9-1.7,1.2-2.2,1.2c-1.9,0-4.1-0.5-6.4-0.5c-1.3,0-2.3,0.7-2.8,1.4s-0.7,1.3-0.7,1.3c-0.1,0.4,0.1,0.9,0.6,1
	c0.4,0.1,0.9-0.1,1-0.6c0,0,0,0,0,0c0,0,0.1-0.4,0.4-0.8c0.3-0.4,0.7-0.7,1.5-0.7c2,0,4.2,0.5,6.4,0.5c1,0,1.9-0.5,3.2-1.5
	c1.3-1,3-2.6,5.9-5c0,0,0.1-0.1,0.1-0.1c0,0,0,0,0,0l0,0l0,0c0.1-0.1,0.1-0.2,0.2-0.3c0.7-0.9,0.6-2.2-0.2-3.1
	C198.5,324.7,197.9,324.5,197.3,324.5z"/>
<path class="st39" d="M226.1,316.2c-0.5,0-0.8,0.4-0.8,0.8v9.8h-3.1c-0.5,0-0.8,0.4-0.8,0.8v8.9c0,0.5,0.4,0.8,0.8,0.9
	c0.5,0,0.8-0.4,0.9-0.8c0,0,0,0,0,0v-8.1h2.9c0.1,0,0.2,0,0.3,0h2.4v8.1c0,0.5,0.4,0.8,0.8,0.9c0.5,0,0.8-0.4,0.9-0.8c0,0,0,0,0,0
	v-8.8c0-0.1,0-0.2,0-0.3v-2.4h6.3c0.1,0,0.2,0,0.3,0h2.9v11.5c0,0.5,0.4,0.8,0.8,0.9c0.5,0,0.8-0.4,0.9-0.8c0,0,0,0,0,0v-12.3
	c0-0.5-0.4-0.8-0.8-0.8h-3.1v-6.4c0-0.5-0.4-0.8-0.8-0.8H226.1z M226.9,317.9h8.9v5.6h-6.4c-0.5,0-0.8,0.4-0.8,0.8v2.5h-1.7V317.9z
	 M229.1,319.6c-0.3,0-0.6,0.3-0.6,0.6v1.1c0,0.3,0.3,0.6,0.6,0.6h1.1c0.3,0,0.6-0.3,0.6-0.6v-1.1c0-0.3-0.3-0.6-0.6-0.6H229.1z
	 M232.5,319.6c-0.3,0-0.6,0.3-0.6,0.6v1.1c0,0.3,0.3,0.6,0.6,0.6h1.1c0.3,0,0.6-0.3,0.6-0.6v-1.1c0-0.3-0.3-0.6-0.6-0.6H232.5z
	 M232.5,326.9c-0.3,0-0.6,0.3-0.6,0.6v1.1c0,0.3,0.3,0.6,0.6,0.6h1.1c0.3,0,0.6-0.3,0.6-0.6v-1.1c0-0.3-0.3-0.6-0.6-0.6H232.5z
	 M236.4,326.9c-0.3,0-0.6,0.3-0.6,0.6v1.1c0,0.3,0.3,0.6,0.6,0.6h1.1c0.3,0,0.6-0.3,0.6-0.6v-1.1c0-0.3-0.3-0.6-0.6-0.6H236.4z
	 M225.2,330.2c-0.3,0-0.6,0.3-0.6,0.6v1.1c0,0.3,0.3,0.6,0.6,0.6h1.1c0.3,0,0.6-0.3,0.6-0.6v-1.1c0-0.3-0.3-0.6-0.6-0.6H225.2z
	 M232.5,330.2c-0.3,0-0.6,0.3-0.6,0.6v1.1c0,0.3,0.3,0.6,0.6,0.6h1.1c0.3,0,0.6-0.3,0.6-0.6v-1.1c0-0.3-0.3-0.6-0.6-0.6H232.5z
	 M236.4,330.2c-0.3,0-0.6,0.3-0.6,0.6v1.1c0,0.3,0.3,0.6,0.6,0.6h1.1c0.3,0,0.6-0.3,0.6-0.6v-1.1c0-0.3-0.3-0.6-0.6-0.6H236.4z
	 M225.2,333.6c-0.3,0-0.6,0.3-0.6,0.6v1.1c0,0.3,0.3,0.6,0.6,0.6h1.1c0.3,0,0.6-0.3,0.6-0.6v-1.1c0-0.3-0.3-0.6-0.6-0.6H225.2z
	 M232.5,333.6c-0.3,0-0.6,0.3-0.6,0.6v1.1c0,0.3,0.3,0.6,0.6,0.6h1.1c0.3,0,0.6-0.3,0.6-0.6v-1.1c0-0.3-0.3-0.6-0.6-0.6H232.5z
	 M236.4,333.6c-0.3,0-0.6,0.3-0.6,0.6v1.1c0,0.3,0.3,0.6,0.6,0.6h1.1c0.3,0,0.6-0.3,0.6-0.6v-1.1c0-0.3-0.3-0.6-0.6-0.6H236.4z"/>
</svg>
