<?xml version="1.0" encoding="utf-8"?>
<!-- Generator: Adobe Illustrator 23.1.0, SVG Export Plug-In . SVG Version: 6.00 Build 0)  -->
<svg version="1.1" id="Layer_1" xmlns="http://www.w3.org/2000/svg" xmlns:xlink="http://www.w3.org/1999/xlink" x="0px" y="0px"
	 viewBox="0 0 500 500" style="enable-background:new 0 0 500 500;" xml:space="preserve">
<style type="text/css">
	.st0{fill:#F0F0F0;}
	.st1{fill:#E6E6E6;}
	.st2{fill:#167030;}
	.st3{opacity:0.2;fill:#167030;enable-background:new    ;}
	.st4{fill:#E0E0E0;}
	.st5{fill:#37474F;}
	.st6{fill:#455A64;}
	.st7{opacity:0.5;}
	.st8{fill:#263238;}
	.st9{fill:#FFA8A7;stroke:#FFA8A7;stroke-miterlimit:10;}
	.st10{fill:#BA68C8;}
	.st11{opacity:0.79;fill:#455A64;}
	.st12{fill:#181836;}
	.st13{fill:#F28F8F;stroke:#F28F8F;stroke-miterlimit:10;}
</style>
<g id="freepik--Floor--inject-1--inject-33">
	<path class="st0" d="M99,403.1c78.4,40.9,205.4,40.9,283.8,0s78.4-107.3,0-148.3s-205.4-40.9-283.8,0S20.6,362.1,99,403.1z"/>
</g>
<g id="freepik--Shadow--inject-1--inject-33">
	<path class="st1" d="M267.5,419.5l146-84.3c0.7-0.2,1.1-1,0.8-1.7c-0.1-0.4-0.4-0.7-0.8-0.8l-76.9-44.4c-1.4-0.7-3-0.7-4.3,0
		l-146,84.3c-0.7,0.2-1.1,1-0.8,1.7c0.1,0.4,0.4,0.7,0.8,0.8l76.9,44.4C264.5,420.2,266.1,420.2,267.5,419.5z"/>
</g>
<g id="freepik--Plants--inject-1--inject-33">
	<path class="st2" d="M62.3,301.9c-2.8,2.6-7.9,2.2-10.1,1.8c-2.9-0.4-5.5-1.9-7.3-4.1c-1.8-2.3-2.2-5.5-1-8.1
		c0.5-1.1,1.4-2.2,1.1-3.4s-1.5-1.7-2.6-2.3c-3.2-1.8-6-5.1-5.3-9s5.2-4.7,5.2-4.7c-1.7-2.6-2.6-5.5-2.8-8.5
		c-0.1-3.3,0.5-6.7,1.3-7.1s9.5,3.2,11.7,10.1c2.2-2.4,5.7-3,8.5-1.5c2.8,1.6,5.3,5.7,3.6,11.6s0.9,4.5,2.5,9.5c1,3-0.4,6.7-1.5,9.5
		c-0.5,1.5-1.1,3-1.8,4.4C63.2,300.8,62.8,301.4,62.3,301.9z"/>
	<path class="st2" d="M61.2,303.2c-0.3,0-0.5-0.2-0.5-0.5c-1.1-19.3-12-36.5-17.3-41c-0.2-0.2-0.2-0.5-0.1-0.7s0.5-0.2,0.7-0.1
		c5.4,4.6,16.4,22.1,17.6,41.7C61.7,302.9,61.5,303.1,61.2,303.2C61.3,303.2,61.2,303.2,61.2,303.2L61.2,303.2z"/>
	<path class="st2" d="M410.2,310.9c0.4-4.8,4.1-13,9.5-18.8s14.2-8.6,19.6-6.3c5,2.2,3.9,8.9-2.7,12.9s-16.5,8.9-19.9,16.4l-6.5,9.1
		L410.2,310.9z"/>
	<path class="st3" d="M410.2,310.9c0.4-4.8,4.1-13,9.5-18.8s14.2-8.6,19.6-6.3c5,2.2,3.9,8.9-2.7,12.9s-16.5,8.9-19.9,16.4l-6.5,9.1
		L410.2,310.9z"/>
	<path class="st2" d="M410.2,319.5L410.2,319.5c-0.3,0-0.5-0.3-0.5-0.6c2.5-18.7,21.7-30.2,27.4-31.3c0.3-0.1,0.5,0.1,0.6,0.4
		s-0.1,0.5-0.4,0.6c-5.6,1.1-24.2,12.2-26.6,30.4C410.7,319.3,410.4,319.5,410.2,319.5z"/>
	<path class="st2" d="M410.9,332.5c1-2.6,5.2-7.3,11.2-9.7s10.6-4.4,12.8-8.1s-1.6-7.4-7.7-7.2s-16.2,6.6-17,16.8L410.9,332.5z"/>
	<path class="st2" d="M410.5,328h-0.1c-0.3-0.1-0.4-0.3-0.4-0.6c0,0,0,0,0,0c1.8-9.1,15.1-16.9,20.2-17.4c0.3,0,0.5,0.2,0.6,0.4
		c0,0.3-0.2,0.5-0.5,0.6c-4.9,0.5-17.6,7.9-19.4,16.6C410.9,327.8,410.7,328,410.5,328z"/>
	<path class="st2" d="M402.8,332.5c-0.5-1.2-3.2-2.3-6.7-1.3c-2.7,0.7-5.5,0.1-7.7-1.6c-1.1-1.1-1.8-2.6-2-4.2
		c-0.2-1.3,0-3.3-0.7-4.5c-0.6-0.8-1.6-1.2-2.6-1.3c-1,0-2-0.2-3-0.5c-0.7-0.3-1.3-0.8-1.6-1.5c-0.9-1.6-0.4-3.5-0.9-5.3
		c-0.3-1.2-1.1-2.3-2.2-3c-1.5-1-5.3-2.1-3.7-4.6c1.4-2.2,4.8-2.3,7-1.6c2.5,1,4.9,2.2,7.1,3.8c0.6,0.4,1.3,0.7,2.1,1
		c1.5,0.5,3.2-0.2,4.7-0.4c1.7-0.3,3.4-0.2,4.9,0.5c3.9,1.7,2.5,4.8,5.2,5.8c0,0,2.7,1.8,2.3,7.5C404.8,325.1,404,328.8,402.8,332.5
		z"/>
	<path class="st3" d="M402.8,332.5c-0.5-1.2-3.2-2.3-6.7-1.3c-2.7,0.7-5.5,0.1-7.7-1.6c-1.1-1.1-1.8-2.6-2-4.2
		c-0.2-1.3,0-3.3-0.7-4.5c-0.6-0.8-1.6-1.2-2.6-1.3c-1,0-2-0.2-3-0.5c-0.7-0.3-1.3-0.8-1.6-1.5c-0.9-1.6-0.4-3.5-0.9-5.3
		c-0.3-1.2-1.1-2.3-2.2-3c-1.5-1-5.3-2.1-3.7-4.6c1.4-2.2,4.8-2.3,7-1.6c2.5,1,4.9,2.2,7.1,3.8c0.6,0.4,1.3,0.7,2.1,1
		c1.5,0.5,3.2-0.2,4.7-0.4c1.7-0.3,3.4-0.2,4.9,0.5c3.9,1.7,2.5,4.8,5.2,5.8c0,0,2.7,1.8,2.3,7.5C404.8,325.1,404,328.8,402.8,332.5
		z"/>
	<path class="st2" d="M404.3,327.4c-0.2,0-0.4-0.2-0.5-0.4c-1.9-7.1-24.4-20.7-28.6-21.2c-0.3,0-0.5-0.3-0.4-0.6
		c0-0.3,0.3-0.5,0.6-0.4c4.4,0.5,27.4,14.3,29.4,21.9c0.1,0.3-0.1,0.5-0.3,0.6c0,0,0,0,0,0C404.4,327.4,404.3,327.4,404.3,327.4z"/>
	<path class="st2" d="M382.3,315.2c-0.3,0.1-0.5-0.1-0.6-0.4s0.1-0.5,0.4-0.6c2.5-1.1,5.3-1.6,8-1.5c0.3,0,0.5,0.3,0.5,0.5
		c0,0,0,0,0,0c0,0.3-0.3,0.5-0.5,0.5c-2.6-0.1-5.2,0.4-7.5,1.4C382.4,315.1,382.3,315.1,382.3,315.2z"/>
	<path class="st2" d="M395.1,317.3c-0.2,0-0.4-0.2-0.5-0.4c-0.3-2.4-0.2-4.8,0.5-7.1c0.1-0.3,0.4-0.4,0.6-0.4
		c0.3,0.1,0.4,0.4,0.4,0.6c-0.6,2.2-0.8,4.4-0.5,6.7c0.1,0.3-0.1,0.5-0.4,0.6c0,0,0,0,0,0L395.1,317.3z"/>
</g>
<g id="freepik--Printer--inject-1--inject-33">
	<polygon class="st4" points="155,303 146.9,298.4 155,296 	"/>
	<g>
		<polyline class="st5" points="155,296 155,303 146.9,298.4 		"/>
	</g>
	<polygon class="st4" points="106.3,324.1 106.3,331.6 61.6,305.8 61.6,298.4 	"/>
	<g>
		<polygon class="st5" points="106.3,324.1 106.3,331.6 61.6,305.8 61.6,298.4 		"/>
	</g>
	<polygon class="st5" points="57.5,239.7 102.2,265.5 102.2,326.5 57.5,300.7 	"/>
	<polygon class="st6" points="102.2,265.5 163.1,230.3 163.1,291.3 102.2,326.5 	"/>
	<polygon class="st6" points="163.1,230.3 118.4,204.6 57.5,239.7 102.2,265.5 	"/>
	<polygon class="st5" points="106.3,267.9 159.1,237.4 159.1,251.4 106.3,281.9 	"/>
	<g class="st7">
		<path class="st8" d="M126.6,257.3c0,0.6,1.9,0.1,4.3-1.3l7.6-4.4c2.4-1.4,4.3-3,4.3-3.7v-1.2l-16.3,9.4L126.6,257.3z"/>
	</g>
	<polygon class="st5" points="106.3,286.6 159.1,256.1 159.1,270.2 106.3,300.7 	"/>
	<g class="st7">
		<path class="st8" d="M126.6,276.1c0,0.6,1.9,0,4.3-1.3l7.6-4.4c2.4-1.4,4.3-3,4.3-3.7v-1.2l-16.3,9.4L126.6,276.1z"/>
	</g>
	<polygon class="st5" points="106.3,305.4 159.1,274.9 159.1,289 106.3,319.5 	"/>
	<g class="st7">
		<path class="st8" d="M126.6,294.8c0,0.6,1.9,0,4.3-1.3l7.6-4.4c2.4-1.4,4.3-3,4.3-3.7v-1.2l-16.3,9.4L126.6,294.8z"/>
	</g>
	<polygon class="st5" points="106.3,331.6 110.3,329.3 110.3,321.8 106.3,324.1 	"/>
	<polygon class="st5" points="155,303 159.1,300.7 159.1,293.7 155,296 	"/>
</g>
<g id="freepik--Character--inject-1--inject-33">
	<path class="st6" d="M197.7,233.2c-1.2-0.8-2-2.2-2-3.7v-26.7c0.1-1.5,0.9-2.9,2.3-3.6l36.1-16.7c1.4-0.6,3-0.5,4.3,0.1
		c1.2,0.8,2,2.2,2,3.7v26.7c-0.1,1.5-0.9,2.8-2.3,3.6l-36,16.7C200.6,233.9,199,233.9,197.7,233.2z"/>
	<path class="st8" d="M203.8,205l-7.4-4.3c-0.4,0.6-0.7,1.4-0.7,2.1v26.7c0,1.5,0.8,2.8,2,3.7c1.3,0.7,2.9,0.7,4.3,0.1l1.8-0.8
		L203.8,205z"/>
	<path class="st5" d="M202,201.6l36-16.7c0.7-0.4,1.6-0.2,2,0.4c0.2,0.3,0.3,0.7,0.2,1v26.7c-0.1,1.5-0.9,2.8-2.3,3.6l-36,16.7
		c-0.7,0.4-1.6,0.2-2-0.4c-0.2-0.3-0.3-0.7-0.2-1v-26.7C199.8,203.6,200.7,202.3,202,201.6z"/>
	<path class="st8" d="M209.9,275.3v61.2c0,0.6-0.3,1.1-0.8,1.4l-2.2,1.3c-0.5,0.3-1.1,0.3-1.6,0l-2.2-1.3c-0.5-0.3-0.8-0.8-0.8-1.4
		v-61.2c0-1.5,1.2-2.8,2.8-2.8l0,0h2.1C208.7,272.5,209.9,273.8,209.9,275.3L209.9,275.3z"/>
	<path class="st5" d="M204.2,272.5L204.2,272.5c1,0,1.9,0.9,1.9,1.9v64.4c0,0.5-0.3,0.6-0.7,0.4l-2.3-1.3c-0.5-0.3-0.8-0.8-0.8-1.4
		v-62.1C202.3,273.4,203.2,272.5,204.2,272.5z"/>
	<path class="st8" d="M251.1,296.8v63c0,0.6-0.3,1.1-0.8,1.4l-2.2,1.3c-0.5,0.3-1.1,0.3-1.6,0l-2.2-1.3c-0.5-0.3-0.8-0.8-0.8-1.4
		v-63c0-0.5,0.4-0.9,0.9-0.9h5.8C250.7,295.8,251.1,296.2,251.1,296.8L251.1,296.8z"/>
	<path class="st5" d="M244.4,295.8h1.9c0.5,0,0.9,0.4,0.9,0.9l0,0V362c0,0.5-0.4,0.7-0.8,0.5l-2.2-1.3c-0.5-0.3-0.8-0.8-0.8-1.4v-63
		C243.5,296.3,243.9,295.8,244.4,295.8C244.4,295.8,244.4,295.8,244.4,295.8z"/>
	<path class="st5" d="M202.3,274v0.8c0.1,1.6,0.8,3,2,4l41,28.6c1.3,0.8,2.9,0.9,4.2,0.2l51.5-29.8c1.3-0.8,2.1-2.2,2.2-3.8v-0.9
		c-0.1-1.5-0.9-2.8-2.3-3.5l-50.7-23.5c-1.4-0.6-3.1-0.5-4.4,0.2l-41.3,23.9C203.2,271,202.4,272.4,202.3,274z"/>
	<path class="st6" d="M204.5,270.2l41.3-23.9c1.4-0.7,3-0.8,4.4-0.2l50.7,23.5c1.3,0.6,1.3,1.6,0.1,2.3l-51.5,29.8
		c-1.3,0.7-2.9,0.6-4.2-0.2l-41-28.5c-0.7-0.4-1-1.3-0.6-2C203.9,270.6,204.1,270.3,204.5,270.2z"/>
	<path class="st8" d="M218.7,247.9c-4.3,6.6-5.8,17-1.6,25.1c2,3.9,21,25.7,34.8,23.9c23.7-3.1,45.8-34.6,45.8-34.6l-31.8-17.2
		L218.7,247.9z"/>
	<path class="st8" d="M326.3,322.4c11,8.8,18.1,9.8,20.9,11.5s2.7,6.8-2.5,9.3s-11.5,2.6-16,0s-8.1-6.7-12.4-8.4s-6.3-1.9-7.6-4.8
		s-0.8-12.7-0.8-12.7L326.3,322.4z"/>
	<path class="st9" d="M318.2,306.8c0.2,4.1,0.2,7.8,4.1,11.9c1.3,1.3,2.6,2.6,4,3.7c6.4,5.3,11.6,9.4,12.5,10.1s-2.5,4.6-7.6,3.8
		s-10.9-6.7-15-10.1c-1.8-1.5-3.6-2.9-5-3.9c-1.9-1.4-3.1-3.4-3.6-5.6l-1.3-6.4L318.2,306.8z"/>
	<path class="st8" d="M298.2,338.6c11,8.8,18.1,9.8,20.9,11.5s2.7,6.8-2.5,9.3s-11.5,2.6-16,0s-8.1-6.7-12.4-8.4s-6.3-1.9-7.6-4.8
		s-0.8-12.7-0.8-12.7L298.2,338.6z"/>
	<path class="st9" d="M290.1,323c0.2,4.1,0.2,7.8,4.1,11.9c1.3,1.3,2.6,2.6,4,3.7c6.4,5.3,11.6,9.4,12.5,10.1s-2.5,4.6-7.6,3.8
		s-10.9-6.7-15-10.1c-1.8-1.5-3.6-2.9-5-3.9c-1.8-1.4-3.1-3.4-3.6-5.6l-1.3-6.4L290.1,323z"/>
	<path class="st5" d="M260.6,342v73c0,0.6,0.4,1.2,0.9,1.5l2.3,1.3c0.5,0.3,1.2,0.3,1.7,0l2.3-1.3c0.5-0.3,0.8-0.9,0.9-1.5v-73
		c0-0.6-0.4-1-1-1h-6.1C261.1,341,260.6,341.4,260.6,342z"/>
	<path class="st10" d="M267.8,341h-2.1c-0.6,0-1,0.4-1,1v75.4c0,0.5,0.4,0.8,0.9,0.5l2.3-1.3c0.5-0.3,0.8-0.9,0.9-1.5v-73
		C268.7,341.4,268.3,341,267.8,341z"/>
	<path class="st11" d="M267.8,341h-2.1c-0.6,0-1,0.4-1,1v75.4c0,0.5,0.4,0.8,0.9,0.5l2.3-1.3c0.5-0.3,0.8-0.9,0.9-1.5v-73
		C268.7,341.4,268.3,341,267.8,341z"/>
	<path class="st5" d="M402.8,260v73c0,0.6,0.4,1.2,0.9,1.5l2.3,1.3c0.5,0.3,1.2,0.3,1.7,0l2.3-1.3c0.5-0.3,0.8-0.9,0.9-1.5v-73
		c0-0.6-0.4-1-1-1h-6.1C403.2,259,402.8,259.4,402.8,260z"/>
	<path class="st10" d="M409.9,259h-2.1c-0.6,0-1,0.4-1,1v75.4c0,0.6,0.4,0.8,0.9,0.5l2.3-1.3c0.5-0.3,0.8-0.9,0.9-1.5v-73
		C410.9,259.4,410.5,259,409.9,259z"/>
	<path class="st11" d="M409.9,259h-2.1c-0.6,0-1,0.4-1,1v75.4c0,0.6,0.4,0.8,0.9,0.5l2.3-1.3c0.5-0.3,0.8-0.9,0.9-1.5v-73
		C410.9,259.4,410.5,259,409.9,259z"/>
	<path class="st5" d="M187.5,299.8v73c0,0.6,0.4,1.2,0.9,1.5l2.3,1.3c0.5,0.3,1.2,0.3,1.7,0l2.3-1.3c0.5-0.3,0.8-0.9,0.9-1.5v-73
		c0-0.6-0.4-1-1-1h-6.1C187.9,298.8,187.5,299.3,187.5,299.8z"/>
	<path class="st10" d="M194.6,298.8h-2.1c-0.6,0-1,0.4-1,1v75.4c0,0.5,0.4,0.8,0.9,0.5l2.3-1.3c0.5-0.3,0.8-0.9,0.9-1.5v-73
		C195.6,299.3,195.2,298.8,194.6,298.8C194.7,298.8,194.6,298.8,194.6,298.8z"/>
	<path class="st11" d="M194.6,298.8h-2.1c-0.6,0-1,0.4-1,1v75.4c0,0.5,0.4,0.8,0.9,0.5l2.3-1.3c0.5-0.3,0.8-0.9,0.9-1.5v-73
		C195.6,299.3,195.2,298.8,194.6,298.8C194.7,298.8,194.6,298.8,194.6,298.8z"/>
	<path class="st10" d="M183.4,299.1v-0.7c0.1-1.2,0.7-2.3,1.7-3L332,210.7c1.1-0.5,2.4-0.5,3.5,0l77.8,44.9c1,0.7,1.7,1.8,1.7,3v0.7
		c-0.1,1.2-0.7,2.3-1.7,3L266.4,347c-1.1,0.6-2.4,0.6-3.5,0l-77.8-44.9C184.1,301.5,183.5,300.4,183.4,299.1z"/>
	<path class="st11" d="M183.4,299.1v-0.7c0.1-1.2,0.7-2.3,1.7-3L332,210.7c1.1-0.5,2.4-0.5,3.5,0l77.8,44.9c1,0.7,1.7,1.8,1.7,3v0.7
		c-0.1,1.2-0.7,2.3-1.7,3L266.4,347c-1.1,0.6-2.4,0.6-3.5,0l-77.8-44.9C184.1,301.5,183.5,300.4,183.4,299.1z"/>
	<path class="st5" d="M264.7,249.6l-79.5,45.9c-1,0.7-1.7,1.8-1.7,3v0.7c0.1,1.2,0.7,2.3,1.7,3L263,347c0.5,0.3,1.1,0.4,1.7,0.4
		L264.7,249.6z"/>
	<path class="st10" d="M185.2,297.5l77.8,44.9c1.1,0.6,2.4,0.6,3.5,0l146.8-84.8c0.6-0.2,0.8-0.8,0.6-1.4c-0.1-0.3-0.3-0.5-0.6-0.6
		l-77.8-44.9c-1.1-0.5-2.4-0.5-3.5,0l-146.9,84.8c-0.6,0.2-0.8,0.8-0.6,1.4C184.6,297.1,184.9,297.3,185.2,297.5z"/>
	<path class="st11" d="M185.2,297.5l77.8,44.9c1.1,0.6,2.4,0.6,3.5,0l146.8-84.8c0.6-0.2,0.8-0.8,0.6-1.4c-0.1-0.3-0.3-0.5-0.6-0.6
		l-77.8-44.9c-1.1-0.5-2.4-0.5-3.5,0l-146.9,84.8c-0.6,0.2-0.8,0.8-0.6,1.4C184.6,297.1,184.9,297.3,185.2,297.5z"/>
	<path class="st5" d="M280.9,257.6v0.4c0,0.6,0.4,1.2,0.9,1.5l14.5,8.4c0.5,0.3,1.2,0.3,1.7,0l47-27.4c0.5-0.3,0.8-0.9,0.9-1.5v-0.1
		c0-0.6-0.4-1.2-0.9-1.5l-14.5-8.4c-0.5-0.3-1.2-0.3-1.7,0l-47,27.1C281.3,256.4,281,257,280.9,257.6z"/>
	<path class="st8" d="M280.9,257.6v0.4c0,0.6,0.4,1.2,0.9,1.5l14.5,8.4c0.3,0.1,0.6,0.2,0.9,0.2v-14.7h-10.6l-4.8,2.8
		C281.3,256.4,281,257,280.9,257.6z"/>
	<path class="st6" d="M345.1,238.3l-47,27.1c-0.5,0.3-1.2,0.3-1.7,0l-14.5-8.4c-0.3-0.1-0.4-0.4-0.3-0.7c0.1-0.2,0.2-0.3,0.3-0.3
		l47-27.1c0.5-0.3,1.2-0.3,1.7,0l14.5,8.4C345.5,237.6,345.5,238.1,345.1,238.3z"/>
	<path class="st4" d="M303,253.2l-1.5,0.9c-0.1,0-0.1,0.1,0,0.1l1.6,0.9c0.1,0,0.2,0,0.2,0l1.5-0.9c0.1,0,0.1-0.1,0-0.1l-1.6-0.9
		C303.2,253.2,303.1,253.2,303,253.2z M305.6,256.4l1.5-0.9c0.1,0,0.1-0.1,0-0.1l-1.6-0.9c-0.1,0-0.2,0-0.2,0l-1.5,0.9
		c-0.1,0-0.1,0.1,0,0.1l1.6,0.9C305.5,256.5,305.5,256.5,305.6,256.4L305.6,256.4z M310.4,253.7l2.5-1.4c0.1,0,0.1-0.1,0-0.1
		l-1.6-0.9c-0.1,0-0.2,0-0.2,0l-2.5,1.4c-0.1,0-0.1,0.1,0,0.1l1.6,0.9C310.3,253.7,310.3,253.7,310.4,253.7L310.4,253.7z
		 M307.8,255.2l1.5-0.9c0.1,0,0.1-0.1,0-0.1l-1.6-0.9c-0.1,0-0.2,0-0.2,0l-1.5,0.9c-0.1,0-0.1,0.1,0,0.1l1.6,0.9
		C307.6,255.2,307.7,255.2,307.8,255.2L307.8,255.2z M313.6,251.8l1.5-0.9c0,0,0.1-0.1,0-0.1c0,0,0,0,0,0l-1.6-0.9
		c-0.1,0-0.1,0-0.2,0l-1.5,0.9c-0.1,0-0.1,0.1,0,0.1l1.6,0.9C313.4,251.9,313.5,251.9,313.6,251.8L313.6,251.8z M315.8,250.6
		l1.5-0.9c0,0,0.1-0.1,0-0.1c0,0,0,0,0,0l-1.6-0.9c-0.1,0-0.2,0-0.2,0l-1.5,0.9c-0.1,0-0.1,0.1,0,0.1l1.6,0.9
		C315.6,250.6,315.7,250.6,315.8,250.6L315.8,250.6z M309.5,246.8l-1.5,0.9c0,0-0.1,0.1,0,0.1c0,0,0,0,0,0l1.6,0.9
		c0.1,0,0.1,0,0.2,0l1.5-0.9c0.1,0,0.1-0.1,0-0.1l-1.6-0.9C309.7,246.8,309.5,246.8,309.5,246.8L309.5,246.8z M311.7,245.6l-1.5,0.9
		c-0.1,0-0.1,0.1,0,0.1l1.6,0.9c0.1,0,0.2,0,0.2,0l1.5-0.9c0.1,0,0.1-0.1,0-0.1l-1.6-0.9C311.8,245.5,311.7,245.5,311.7,245.6
		L311.7,245.6z M313.8,244.3l-1.5,0.9c-0.1,0-0.1,0.1,0,0.1l1.6,0.9c0.1,0,0.2,0,0.2,0l1.5-0.9c0.1,0,0.1-0.1,0-0.1l-1.6-0.9
		C314,244.3,313.9,244.3,313.8,244.3L313.8,244.3z M316,243.1l-1.5,0.9c-0.1,0-0.1,0.1,0,0.1l1.6,0.9c0.1,0,0.2,0,0.2,0l1.5-0.9
		c0.1,0,0.1-0.1,0-0.1l-1.6-0.9C316.2,243,316.1,243,316,243.1L316,243.1z M305.1,252l-1.5,0.9c-0.1,0-0.1,0.1,0,0.1l1.6,0.9
		c0.1,0,0.2,0,0.2,0l1.5-0.9c0.1,0,0.1-0.1,0-0.1l-1.6-0.9C305.3,251.9,305.2,251.9,305.1,252z M307.3,248.1L304,250
		c-0.1,0-0.1,0.1,0,0.1l3.9,2.2c0.1,0,0.2,0,0.2,0l1.7-1c0.1,0,0.1-0.1,0-0.1l-2-1.2c-0.1,0-0.1-0.1,0-0.1l1.4-0.8
		c0.1,0,0.1-0.1,0-0.1l-1.6-0.9C307.5,248,307.4,248,307.3,248.1L307.3,248.1z M317.9,249.4l1.5-0.9c0.1,0,0.1-0.1,0-0.1l-1.6-0.9
		c-0.1,0-0.2,0-0.2,0l-1.5,0.9c-0.1,0-0.1,0.1,0,0.1l1.6,0.9C317.8,249.4,317.8,249.4,317.9,249.4L317.9,249.4z M320.1,248.1
		l1.5-0.9c0.1,0,0.1-0.1,0-0.1l-1.6-0.9c-0.1,0-0.2,0-0.2,0l-1.5,0.9c0,0-0.1,0.1,0,0.1c0,0,0,0,0,0l1.6,0.9
		C319.9,248.2,320,248.1,320.1,248.1L320.1,248.1z M331.4,234.3c-0.1,0-0.1,0-0.2,0l-1.5,0.9c-0.1,0-0.1,0.1,0,0.1l1.6,0.9
		c0.1,0,0.2,0,0.2,0l1.5-0.9c0.1,0,0.1-0.1,0-0.1L331.4,234.3z M337.4,238.1l1.5-0.9c0.1,0,0.1-0.1,0-0.1l-1.6-0.9
		c-0.1,0-0.2,0-0.2,0l-1.5,0.9c0,0-0.1,0.1,0,0.1c0,0,0,0,0,0l1.6,0.9C337.3,238.1,337.4,238.1,337.4,238.1L337.4,238.1z
		 M334.2,235.3c-0.1,0-0.2,0-0.2,0l-1.5,0.9c-0.1,0-0.1,0.1,0,0.1l1.6,0.9c0.1,0,0.2,0,0.2,0l1.5-0.9c0.1,0,0.1-0.1,0-0.1
		L334.2,235.3z M327.7,233.7l-1.5,0.9c-0.1,0-0.1,0.1,0,0.1l1.6,0.9c0.1,0,0.2,0,0.2,0l1.5-0.9c0.1,0,0.1-0.1,0-0.1l-1.6-0.9
		C327.9,233.7,327.8,233.6,327.7,233.7L327.7,233.7z M330.1,232.4c-0.1,0-0.2,0-0.2,0l-1.5,0.9c-0.1,0-0.1,0.1,0,0.1l1.6,0.9
		c0.1,0,0.2,0,0.2,0l1.5-0.9c0.1,0,0.1-0.1,0-0.1L330.1,232.4z M335.3,239.4l1.5-0.9c0.1,0,0.1-0.1,0-0.1l-1.6-0.9
		c-0.1,0-0.2,0-0.2,0l-1.5,0.9c-0.1,0-0.1,0.1,0,0.1l1.6,0.9C335.1,239.4,335.2,239.4,335.3,239.4L335.3,239.4z M324.4,245.6
		l1.5-0.9c0.1,0,0.1-0.1,0-0.1l-1.6-0.9c-0.1,0-0.2,0-0.2,0l-1.5,0.9c-0.1,0-0.1,0.1,0,0.1l1.6,0.9
		C324.3,245.6,324.3,245.6,324.4,245.6L324.4,245.6z M333.1,240.6l1.5-0.9c0.1,0,0.1-0.1,0-0.1l-1.6-0.9c-0.1,0-0.2,0-0.2,0
		l-1.5,0.9c-0.1,0-0.1,0.1,0,0.1l1.6,0.9C332.9,240.6,333,240.6,333.1,240.6L333.1,240.6z M322.3,246.9l1.5-0.9c0.1,0,0.1-0.1,0-0.1
		l-1.6-0.9c-0.1,0-0.2,0-0.2,0l-1.5,0.9c0,0-0.1,0.1,0,0.1c0,0,0,0,0,0l1.6,0.9C322.1,246.9,322.2,246.9,322.3,246.9L322.3,246.9z
		 M326.6,244.4l1.5-0.9c0.1,0,0.1-0.1,0-0.1l-1.6-0.9c-0.1,0-0.2,0-0.2,0l-1.5,0.9c-0.1,0-0.1,0.1,0,0.1l1.6,0.9
		C326.4,244.4,326.5,244.4,326.6,244.4L326.6,244.4z M328.8,243.1l1.5-0.9c0.1,0,0.1-0.1,0-0.1l-1.6-0.9c-0.1,0-0.2,0-0.2,0
		l-1.5,0.9c-0.1,0-0.1,0.1,0,0.1l1.6,0.9C328.6,243.1,328.7,243.1,328.8,243.1L328.8,243.1z M330.9,241.9l1.5-0.9c0,0,0.1-0.1,0-0.1
		c0,0,0,0,0,0l-1.6-0.9c-0.1,0-0.2,0-0.2,0l-1.5,0.9c-0.1,0-0.1,0.1,0,0.1l1.6,0.9C330.8,241.9,330.9,241.9,330.9,241.9L330.9,241.9
		z M320.3,240.6l-1.5,0.9c-0.1,0-0.1,0.1,0,0.1l1.6,0.9c0.1,0,0.2,0,0.2,0l1.5-0.9c0.1,0,0.1-0.1,0-0.1l-1.6-0.9
		C320.5,240.6,320.4,240.6,320.3,240.6L320.3,240.6z M300.8,259.2l1.5-0.9c0.1,0,0.1-0.1,0-0.1l-1.6-0.9c-0.1,0-0.2,0-0.2,0
		l-1.5,0.9c-0.1,0-0.1,0.1,0,0.1l1.6,0.9C300.6,259.3,300.7,259.3,300.8,259.2z M303.4,257.7l1.5-0.9c0.1,0,0.1-0.1,0-0.1l-1.6-0.9
		c-0.1,0-0.2,0-0.2,0l-1.5,0.9c-0.1,0-0.1,0.1,0,0.1l1.6,0.9C303.3,257.7,303.4,257.7,303.4,257.7z M298.6,260.5l1.5-0.9
		c0.1,0,0.1-0.1,0-0.1l-1.6-0.9c-0.1,0-0.2,0-0.2,0l-1.5,0.9c-0.1,0-0.1,0.1,0,0.1l1.6,0.9C298.5,260.5,298.6,260.5,298.6,260.5z
		 M310.2,249.1l-1.5,0.9c-0.1,0-0.1,0.1,0,0.1l1.6,0.9c0.1,0,0.2,0,0.2,0l1.5-0.9c0.1,0,0.1-0.1,0-0.1l-1.6-0.9
		C310.3,249,310.2,249,310.2,249.1z M296.2,261.7c0.1,0,0.2,0,0.2,0l1.5-0.9c0,0,0.1-0.1,0-0.1c0,0,0,0,0,0l-1.6-0.9
		c-0.1,0-0.2,0-0.2,0l-1.5,0.9c-0.1,0-0.1,0.1,0,0.1L296.2,261.7z M318.1,241.8l-1.5,0.9c-0.1,0-0.1,0.1,0,0.1l1.6,0.9
		c0.1,0,0.2,0,0.2,0l1.5-0.9c0,0,0.1-0.1,0-0.1c0,0,0,0,0,0l-1.6-0.9C318.3,241.8,318.2,241.8,318.1,241.8L318.1,241.8z
		 M291.6,257.2l-1.5,0.9c0,0-0.1,0.1,0,0.1c0,0,0,0,0,0l1.6,0.9c0.1,0,0.1,0,0.2,0l1.5-0.9c0.1,0,0.1-0.1,0-0.1l-1.6-0.9
		C291.7,257.1,291.6,257.1,291.6,257.2z M296,257.2l-1.5,0.9c-0.1,0-0.1,0.1,0,0.1l1.6,0.9c0.1,0,0.2,0,0.2,0l1.5-0.9
		c0.1,0,0.1-0.1,0-0.1l-1.6-0.9C296.2,257.2,296.1,257.2,296,257.2L296,257.2z M294,260.4c0.1,0,0.2,0,0.2,0l1.5-0.9
		c0.1,0,0.1-0.1,0-0.1l-1.6-0.9c-0.1,0-0.2,0-0.2,0l-1.5,0.9c-0.1,0-0.1,0.1,0,0.1L294,260.4z M293.5,260.7l-3.9-2.2
		c-0.1,0-0.2,0-0.2,0l-1.5,0.9c0,0-0.1,0.1,0,0.1c0,0,0,0,0,0l3.9,2.2c0.1,0,0.2,0,0.2,0l1.5-0.9
		C293.6,260.8,293.6,260.7,293.5,260.7L293.5,260.7z M298.5,257.9l1.5-0.9c0.1,0,0.1-0.1,0-0.1l-1.6-0.9c-0.1,0-0.2,0-0.2,0
		l-1.5,0.9c-0.1,0-0.1,0.1,0,0.1l1.6,0.9C298.4,257.9,298.5,257.9,298.5,257.9L298.5,257.9z M314.9,248.5l1.5-0.9
		c0.1,0,0.1-0.1,0-0.1l-1.6-0.9c-0.1,0-0.2,0-0.2,0l-1.5,0.9c-0.1,0-0.1,0.1,0,0.1l1.6,0.9C314.7,248.5,314.8,248.5,314.9,248.5
		L314.9,248.5z M294,255.9c-0.1,0-0.2,0-0.2,0l-1.5,0.9c-0.1,0-0.1,0.1,0,0.1l1.6,0.9c0.1,0,0.2,0,0.2,0l1.5-0.9
		c0.1,0,0.1-0.1,0-0.1L294,255.9z M312.7,249.7l1.5-0.9c0.1,0,0.1-0.1,0-0.1l-1.6-0.9c-0.1,0-0.2,0-0.2,0l-1.5,0.9
		c-0.1,0-0.1,0.1,0,0.1l1.6,0.9C312.5,249.8,312.6,249.8,312.7,249.7L312.7,249.7z M329.3,235.6c-0.1,0-0.2,0-0.2,0l-1.5,0.9
		c-0.1,0-0.1,0.1,0,0.1l1.6,0.9c0.1,0,0.2,0,0.2,0l1.5-0.9c0.1,0,0.1-0.1,0-0.1L329.3,235.6z M332.3,238.5l1.5-0.9
		c0,0,0.1-0.1,0-0.1c0,0,0,0,0,0l-1.6-0.9c-0.1,0-0.2,0-0.2,0l-1.5,0.9c-0.1,0-0.1,0.1,0,0.1l1.6,0.9
		C332.1,238.5,332.1,238.5,332.3,238.5L332.3,238.5z M326.9,236.8l-1.5,0.9c-0.1,0-0.1,0.1,0,0.1l1.6,0.9c0.1,0,0.2,0,0.2,0l1.5-0.9
		c0.1,0,0.1-0.1,0-0.1l-1.6-0.9C327,236.8,326.9,236.8,326.9,236.8L326.9,236.8z M324.7,238.1l-1.5,0.9c0,0-0.1,0.1,0,0.1
		c0,0,0,0,0,0l1.6,0.9c0.1,0,0.2,0,0.2,0l1.5-0.9c0.1,0,0.1-0.1,0-0.1l-1.6-0.9C324.9,238,324.7,238,324.7,238.1L324.7,238.1z
		 M322.6,239.3l-1.5,0.9c-0.1,0-0.1,0.1,0,0.1l1.6,0.9c0.1,0,0.2,0,0.2,0l1.5-0.9c0.1,0,0.1-0.1,0-0.1l-1.6-0.9
		C322.7,239.3,322.6,239.3,322.6,239.3L322.6,239.3z M330.1,239.7l1.5-0.9c0.1,0,0.1-0.1,0-0.1l-1.6-0.9c-0.1,0-0.2,0-0.2,0
		l-1.5,0.9c-0.1,0-0.1,0.1,0,0.1l1.6,0.9C329.9,239.7,330,239.7,330.1,239.7L330.1,239.7z M327.8,241l1.5-0.9c0.1,0,0.1-0.1,0-0.1
		l-1.6-0.9c-0.1,0-0.2,0-0.2,0l-1.5,0.9c-0.1,0-0.1,0.1,0,0.1l1.6,0.9C327.7,241,327.8,241,327.8,241z M319.2,246l1.5-0.9
		c0.1,0,0.1-0.1,0-0.1l-1.6-0.9c-0.1,0-0.2,0-0.2,0l-1.5,0.9c-0.1,0-0.1,0.1,0,0.1l1.6,0.9C319,246,319.1,246,319.2,246L319.2,246z
		 M321.3,244.8l1.5-0.9c0.1,0,0.1-0.1,0-0.1l-1.6-0.9c-0.1,0-0.2,0-0.2,0l-1.5,0.9c-0.1,0-0.1,0.1,0,0.1l1.6,0.9
		C321.2,244.8,321.3,244.8,321.3,244.8L321.3,244.8z M317,247.3l1.5-0.9c0.1,0,0.1-0.1,0-0.1l-1.6-0.9c-0.1,0-0.2,0-0.2,0l-1.5,0.9
		c-0.1,0-0.1,0.1,0,0.1l1.6,0.9C316.8,247.3,316.9,247.3,317,247.3L317,247.3z M325.7,242.3l1.5-0.9c0.1,0,0.1-0.1,0-0.1l-1.6-0.9
		c-0.1,0-0.2,0-0.2,0l-1.5,0.9c0,0-0.1,0.1,0,0.1c0,0,0,0,0,0l1.6,0.9C325.5,242.3,325.6,242.3,325.7,242.3L325.7,242.3z
		 M323.5,243.5l1.5-0.9c0.1,0,0.1-0.1,0-0.1l-1.6-0.9c-0.1,0-0.2,0-0.2,0l-1.5,0.9c-0.1,0-0.1,0.1,0,0.1l1.6,0.9
		C323.3,243.5,323.4,243.5,323.5,243.5L323.5,243.5z M325.6,234.9l-1.5,0.9c-0.1,0-0.1,0.1,0,0.1l1.6,0.9c0.1,0,0.2,0,0.2,0l1.5-0.9
		c0.1,0,0.1-0.1,0-0.1l-1.6-0.9C325.7,234.9,325.6,234.9,325.6,234.9L325.6,234.9z M337.8,235.9l1.6,0.9c0.1,0,0.2,0,0.2,0l1.5-0.9
		c0.1,0,0.1-0.1,0-0.1l-1.6-0.9c-0.1,0-0.2,0-0.2,0l-1.5,0.9C337.7,235.8,337.7,235.9,337.8,235.9L337.8,235.9z M334.7,235.1
		l1.6,0.9c0.1,0,0.2,0,0.2,0l2.3-1.3c0.1,0,0.1-0.1,0-0.1l-1.6-0.9c-0.1,0-0.2,0-0.2,0l-2.3,1.3C334.6,235,334.6,235,334.7,235.1
		L334.7,235.1z M340.2,237.7l1.6,0.9c0.1,0,0.2,0,0.2,0l1.8-1.1c0.1,0,0.1-0.1,0-0.1l-1.6-0.9c-0.1,0-0.2,0-0.2,0l-1.8,1
		C340.1,237.6,340.1,237.7,340.2,237.7L340.2,237.7z M338.8,238.5c-0.1,0-0.2,0-0.2,0l-1.5,0.9c-0.1,0-0.1,0.1,0,0.1l1.6,0.9
		c0.1,0,0.2,0,0.2,0l1.5-0.9c0.1,0,0.1-0.1,0-0.1L338.8,238.5z M331.8,234.1l1.6,0.9c0.1,0,0.2,0,0.2,0l2.9-1.6c0,0,0.1-0.1,0-0.1
		c0,0,0,0,0,0l-1.6-0.9c-0.1,0-0.2,0-0.2,0l-2.9,1.6C331.8,234,331.8,234,331.8,234.1L331.8,234.1z M330.5,232.2l1.6,0.9
		c0.1,0,0.2,0,0.2,0l1.8-1c0.1,0,0.1-0.1,0-0.1l-1.6-0.9c-0.1,0-0.2,0-0.2,0l-1.8,1C330.5,232.1,330.5,232.1,330.5,232.2
		L330.5,232.2z M322.6,247.8c-0.1,0-0.1,0-0.2,0l-1.5,0.9c-0.1,0-0.1,0.1,0,0.1l1.6,0.9c0.1,0,0.2,0,0.2,0l1.5-0.9
		c0,0,0.1-0.1,0-0.1c0,0,0,0,0,0L322.6,247.8z M327,245.3c-0.1,0-0.2,0-0.2,0l-1.5,0.9c-0.1,0-0.1,0.1,0,0.1l1.6,0.9
		c0.1,0,0.2,0,0.2,0l1.5-0.9c0.1,0,0.1-0.1,0-0.1L327,245.3z M336.6,239.8c-0.1,0-0.2,0-0.2,0l-1.5,0.9c-0.1,0-0.1,0.1,0,0.1
		l1.6,0.9c0.1,0,0.2,0,0.2,0l1.5-0.9c0.1,0,0.1-0.1,0-0.1L336.6,239.8z M324.8,246.6c-0.1,0-0.2,0-0.2,0l-1.5,0.9
		c-0.1,0-0.1,0.1,0,0.1l1.6,0.9c0.1,0,0.2,0,0.2,0l1.5-0.9c0.1,0,0.1-0.1,0-0.1L324.8,246.6z M329.1,244.1c-0.1,0-0.2,0-0.2,0
		l-1.5,0.9c-0.1,0-0.1,0.1,0,0.1l1.6,0.9c0.1,0,0.2,0,0.2,0l1.5-0.9c0.1,0,0.1-0.1,0-0.1L329.1,244.1z M329.4,232.1
		c0.1,0,0.2,0,0.2,0l2.3-1.3c0.1,0,0.1-0.1,0-0.1l-1.6-0.9c-0.1,0-0.2,0-0.2,0l-2.2,1.3c-0.1,0-0.1,0.1,0,0.1L329.4,232.1z
		 M332.3,242.3c-0.1,0-0.2,0-0.2,0l-1.5,0.9c-0.1,0-0.1,0.1,0,0.1l1.6,0.9c0.1,0,0.2,0,0.2,0l1.5-0.9c0.1,0,0.1-0.1,0-0.1
		L332.3,242.3z M334.4,241.1c-0.1,0-0.2,0-0.2,0l-1.5,0.9c-0.1,0-0.1,0.1,0,0.1l1.6,0.9c0.1,0,0.2,0,0.2,0l1.5-0.9
		c0.1,0,0.1-0.1,0-0.1L334.4,241.1z M289.3,255.2c0.1,0,0.2,0,0.2,0l3.6-2.1c0.1,0,0.1-0.1,0-0.1l-1.6-0.9c-0.1,0-0.2,0-0.2,0
		l-3.6,2.1c-0.1,0-0.1,0.1,0,0.1L289.3,255.2z M294.1,252.4c0.1,0,0.2,0,0.2,0l1.5-0.9c0.1,0,0.1-0.1,0-0.1l-1.6-0.9
		c-0.1,0-0.2,0-0.2,0l-1.5,0.9c-0.1,0-0.1,0.1,0,0.1L294.1,252.4z M323.4,236.2l-1.5,0.9c-0.1,0-0.1,0.1,0,0.1l1.6,0.9
		c0.1,0,0.2,0,0.2,0l1.5-0.9c0.1,0,0.1-0.1,0-0.1l-1.6-0.9C323.5,236.1,323.5,236.1,323.4,236.2z M298.4,249.9c0.1,0,0.2,0,0.2,0
		l1.5-0.9c0,0,0.1-0.1,0-0.1c0,0,0,0,0,0l-1.6-0.9c-0.1,0-0.2,0-0.2,0l-1.5,0.9c-0.1,0-0.1,0.1,0,0.1L298.4,249.9z M287.1,256.4
		c0.1,0,0.2,0,0.2,0l1.5-0.9c0.1,0,0.1-0.1,0-0.1l-1.6-0.9c-0.1,0-0.2,0-0.2,0l-1.5,0.9c-0.1,0-0.1,0.1,0,0.1L287.1,256.4z
		 M283.3,256.8l3.9,2.2c0.1,0,0.2,0,0.2,0l1.5-0.9c0,0,0.1-0.1,0-0.1c0,0,0,0,0,0l-3.9-2.2c-0.1,0-0.2,0-0.2,0l-1.5,0.9
		C283.3,256.7,283.3,256.8,283.3,256.8L283.3,256.8z M306.5,245.3c0.1,0,0.1,0,0.2,0l1.8-1.1c0.1,0,0.1-0.1,0-0.1l-1.6-0.9
		c-0.1,0-0.2,0-0.2,0l-1.8,1c-0.1,0-0.1,0.1,0,0.1L306.5,245.3z M301,248.4c0.1,0,0.2,0,0.2,0l2.3-1.3c0.1,0,0.1-0.1,0-0.1l-1.6-0.9
		c-0.1,0-0.2,0-0.2,0l-2.3,1.3c0,0-0.1,0.1,0,0.1c0,0,0,0,0,0L301,248.4z M311.5,242.4c0.1,0,0.2,0,0.2,0l12.3-7.1
		c0.1,0,0.1-0.1,0-0.1l-1.6-0.9c-0.1,0-0.2,0-0.2,0l-12.2,7.1c-0.1,0-0.1,0.1,0,0.1L311.5,242.4z M324.4,234.9c0.1,0,0.1,0,0.2,0
		l1.8-1.1c0.1,0,0.1-0.1,0-0.1l-1.6-0.9c-0.1,0-0.2,0-0.2,0l-1.8,1.1c-0.1,0-0.1,0.1,0,0.1L324.4,234.9z M309,243.8
		c0.1,0,0.2,0,0.2,0l1.8-1.1c0.1,0,0.1-0.1,0-0.1l-1.6-0.9c-0.1,0-0.2,0-0.2,0l-1.8,1.1c-0.1,0-0.1,0.1,0,0.1L309,243.8z
		 M326.9,233.5c0.1,0,0.2,0,0.2,0l1.8-1.1c0.1,0,0.1-0.1,0-0.1l-1.6-0.9c-0.1,0-0.2,0-0.2,0l-1.8,1c-0.1,0-0.1,0.1,0,0.1
		L326.9,233.5z M304,246.7c0.1,0,0.1,0,0.2,0l1.8-1.1c0.1,0,0.1-0.1,0-0.1l-1.6-0.9c-0.1,0-0.2,0-0.2,0l-1.8,1.1
		c-0.1,0-0.1,0.1,0,0.1L304,246.7z M296.2,251.2c0.1,0,0.2,0,0.2,0l1.5-0.9c0.1,0,0.1-0.1,0-0.1l-1.6-0.9c-0.1,0-0.2,0-0.2,0
		l-1.5,0.9c-0.1,0-0.1,0.1,0,0.1L296.2,251.2z M291.4,254.6l-1.5,0.9c-0.1,0-0.1,0.1,0,0.1l1.6,0.9c0.1,0,0.2,0,0.2,0l1.5-0.9
		c0.1,0,0.1-0.1,0-0.1l-1.6-0.9C291.6,254.6,291.5,254.6,291.4,254.6L291.4,254.6z M300.8,254.5l-1.5,0.9c0,0-0.1,0.1,0,0.1
		c0,0,0,0,0,0l1.6,0.9c0.1,0,0.1,0,0.2,0l1.5-0.9c0.1,0,0.1-0.1,0-0.1l-1.6-0.9C301,254.4,300.9,254.4,300.8,254.5z M306,246.2
		l-4.3,2.5c-0.1,0-0.1,0.1,0,0.1l1.6,0.9c0.1,0,0.2,0,0.2,0l4.3-2.5c0.1,0,0.1-0.1,0-0.1l-1.6-0.9
		C306.2,246.1,306.1,246.1,306,246.2z M293.8,253.4c-0.1,0-0.2,0-0.2,0l-1.5,0.9c0,0-0.1,0.1,0,0.1c0,0,0,0,0,0l1.6,0.9
		c0.1,0,0.2,0,0.2,0l1.5-0.9c0.1,0,0.1-0.1,0-0.1L293.8,253.4z M295.9,254.7l-1.5,0.9c-0.1,0-0.1,0.1,0,0.1l1.6,0.9
		c0.1,0,0.2,0,0.2,0l1.5-0.9c0.1,0,0.1-0.1,0-0.1l-1.6-0.9C296,254.6,296,254.6,295.9,254.7L295.9,254.7z M308.2,244.9l-1.5,0.9
		c0,0-0.1,0.1,0,0.1c0,0,0,0,0,0l1.6,0.9c0.1,0,0.2,0,0.2,0l1.4-0.8c0.1,0,0.1-0.1,0-0.1l-1.6-0.9
		C308.3,244.9,308.3,244.9,308.2,244.9L308.2,244.9z M298.6,250.6c-0.1,0-0.1,0-0.2,0l-1.5,0.9c-0.1,0-0.1,0.1,0,0.1l1.6,0.9
		c0.1,0,0.2,0,0.2,0l1.5-0.9c0,0,0.1-0.1,0-0.1c0,0,0,0,0,0L298.6,250.6z M319.1,238.7l-1.5,0.9c-0.1,0-0.1,0.1,0,0.1l1.6,0.9
		c0.1,0,0.2,0,0.2,0l1.5-0.9c0.1,0,0.1-0.1,0-0.1l-1.6-0.9C319.2,238.6,319.1,238.6,319.1,238.7L319.1,238.7z M316.9,239.9l-1.5,0.9
		c-0.1,0-0.1,0.1,0,0.1l1.6,0.9c0.1,0,0.2,0,0.2,0l1.5-0.9c0,0,0.1-0.1,0-0.1c0,0,0,0,0,0l-1.6-0.9C317,239.9,317,239.9,316.9,239.9
		L316.9,239.9z M321.2,237.4l-1.5,0.9c-0.1,0-0.1,0.1,0,0.1l1.6,0.9c0.1,0,0.2,0,0.2,0l1.5-0.9c0.1,0,0.1-0.1,0-0.1l-1.6-0.9
		C321.4,237.4,321.3,237.4,321.2,237.4L321.2,237.4z M312.5,242.4l-1.5,0.9c-0.1,0-0.1,0.1,0,0.1l1.6,0.9c0.1,0,0.2,0,0.2,0l1.5-0.9
		c0.1,0,0.1-0.1,0-0.1l-1.6-0.9C312.7,242.4,312.6,242.4,312.5,242.4L312.5,242.4z M314.7,241.2l-1.5,0.9c-0.1,0-0.1,0.1,0,0.1
		l1.6,0.9c0.1,0,0.2,0,0.2,0l1.5-0.9c0.1,0,0.1-0.1,0-0.1l-1.6-0.9C314.9,241.1,314.8,241.1,314.7,241.2L314.7,241.2z M310.4,243.7
		l-1.5,0.9c-0.1,0-0.1,0.1,0,0.1l1.6,0.9c0.1,0,0.2,0,0.2,0l1.5-0.9c0.1,0,0.1-0.1,0-0.1l-1.6-0.9
		C310.5,243.6,310.5,243.6,310.4,243.7L310.4,243.7z M310.4,254.9c-0.1,0-0.2,0-0.2,0l-1.5,0.9c-0.1,0-0.1,0.1,0,0.1l1.6,0.9
		c0.1,0,0.2,0,0.2,0l1.5-0.9c0.1,0,0.1-0.1,0-0.1L310.4,254.9z M306.1,257.4c-0.1,0-0.2,0-0.2,0l-1.5,0.9c-0.1,0-0.1,0.1,0,0.1
		l1.6,0.9c0.1,0,0.2,0,0.2,0l1.5-0.9c0.1,0,0.1-0.1,0-0.1L306.1,257.4z M313.1,253.4c-0.1,0-0.2,0-0.2,0l-1.5,0.9
		c-0.1,0-0.1,0.1,0,0.1l1.6,0.9c0.1,0,0.2,0,0.2,0l1.5-0.9c0,0,0.1-0.1,0-0.1c0,0,0,0,0,0L313.1,253.4z M308.2,256.2
		c-0.1,0-0.2,0-0.2,0l-1.5,0.9c-0.1,0-0.1,0.1,0,0.1l1.6,0.9c0.1,0,0.2,0,0.2,0l1.5-0.9c0.1,0,0.1-0.1,0-0.1L308.2,256.2z
		 M317.4,250.9c-0.1,0-0.2,0-0.2,0l-1.5,0.9c-0.1,0-0.1,0.1,0,0.1l1.6,0.9c0.1,0,0.2,0,0.2,0l1.5-0.9c0.1,0,0.1-0.1,0-0.1
		L317.4,250.9z M315.2,252.1c-0.1,0-0.2,0-0.2,0l-1.5,0.9c-0.1,0-0.1,0.1,0,0.1l1.6,0.9c0.1,0,0.2,0,0.2,0l1.5-0.9
		c0.1,0,0.1-0.1,0-0.1L315.2,252.1z M294.2,261.1c-0.1,0-0.2,0-0.2,0l-1.5,0.9c-0.1,0-0.1,0.1,0,0.1l1.6,0.9c0.1,0,0.2,0,0.2,0
		l1.5-0.9c0.1,0,0.1-0.1,0-0.1L294.2,261.1z M289.3,255.9l-1.5,0.9c-0.1,0-0.1,0.1,0,0.1l1.6,0.9c0.1,0,0.2,0,0.2,0l1.5-0.9
		c0.1,0,0.1-0.1,0-0.1l-1.6-0.9C289.5,255.8,289.4,255.8,289.3,255.9L289.3,255.9z M319.6,249.6c-0.1,0-0.2,0-0.2,0l-1.5,0.9
		c0,0-0.1,0.1,0,0.1c0,0,0,0,0,0l1.6,0.9c0.1,0,0.2,0,0.2,0l1.5-0.9c0.1,0,0.1-0.1,0-0.1L319.6,249.6z"/>
	<path class="st4" d="M297.5,263c-0.1,0-0.2,0-0.2,0l-1.5,0.9c-0.1,0-0.1,0.1,0,0.1l0.4,0.2c0.1,0,0.2,0,0.2,0l1.5-0.9
		c0.1,0,0.1-0.1,0-0.1L297.5,263z"/>
	<path class="st4" d="M299.7,261.8c-0.1,0-0.2,0-0.2,0l-1.5,0.9c-0.1,0-0.1,0.1,0,0.1l0.4,0.2c0.1,0,0.2,0,0.2,0l1.5-0.9
		c0.1,0,0.1-0.1,0-0.1L299.7,261.8z"/>
	<path class="st4" d="M301.9,260.5c-0.1,0-0.2,0-0.2,0l-1.5,0.9c0,0-0.1,0.1,0,0.1c0,0,0,0,0,0l0.4,0.2c0.1,0,0.2,0,0.2,0l1.5-0.9
		c0.1,0,0.1-0.1,0-0.1L301.9,260.5z"/>
	<path class="st4" d="M304,259.3c-0.1,0-0.2,0-0.2,0l-1.5,0.9c-0.1,0-0.1,0.1,0,0.1l0.4,0.3c0.1,0,0.2,0,0.2,0l1.5-0.9
		c0.1,0,0.1-0.1,0-0.1L304,259.3z"/>
	<path class="st5" d="M220.9,288.9l51.1-29.5c0.5-0.3,1.2-0.3,1.7,0l30.8,17.8c0.5,0.3,0.8,0.9,0.9,1.5v0.3c0,0.6-0.4,1.2-0.9,1.5
		L253.4,310c-0.5,0.3-1.2,0.3-1.7,0l-30.8-17.8c-0.5-0.3-0.8-0.9-0.9-1.5v-0.4C220,289.8,220.4,289.2,220.9,288.9z"/>
	<path class="st8" d="M220,290.4v0.4c0,0.6,0.4,1.2,0.9,1.5l30.8,17.7c0.3,0.1,0.6,0.2,0.9,0.2v-22.5h-29.6l-2.1,1.2
		C220.4,289.2,220,289.8,220,290.4z"/>
	<path class="st6" d="M220.9,288.9l51.1-29.5c0.5-0.3,1.2-0.3,1.7,0l30.8,17.8c0.5,0.3,0.5,0.7,0,1l-51.1,29.5
		c-0.5,0.3-1.2,0.3-1.7,0l-30.8-17.8C220.4,289.6,220.4,289.2,220.9,288.9z"/>
	<path class="st4" d="M263.8,268.8c0.5-0.3,1.2-0.3,1.7,0c3.8,2.2,18.9,10.9,22.6,13.1c0.5,0.3,0.5,0.7,0,1
		c-5,2.9-29.9,17.2-34.8,20.1c-0.5,0.3-1.2,0.3-1.7,0L229,289.9c-0.3-0.1-0.4-0.4-0.3-0.7c0.1-0.2,0.2-0.3,0.3-0.3L263.8,268.8z"/>
	<path class="st4" d="M280,270.3c-1.5,0.9-1.5,2.3,0,3.2c1.7,0.9,3.8,0.9,5.5,0c1.5-0.9,1.5-2.3,0-3.2
		C283.8,269.4,281.7,269.4,280,270.3z"/>
	<path class="st4" d="M288.6,273.6l-2.5,1.4c-0.7,0.4-0.9,1-0.3,1.3c0.8,0.3,1.6,0.3,2.3-0.2l2.5-1.4c0.7-0.4,0.8-1,0.3-1.3
		C290.1,273.2,289.3,273.2,288.6,273.6z"/>
	<path class="st4" d="M291.4,275.3l-2.4,1.4c-0.7,0.4-0.8,1-0.3,1.3c0.8,0.3,1.6,0.2,2.3-0.2l2.5-1.4c0.7-0.4,0.9-1,0.3-1.3
		C293,274.8,292.2,274.9,291.4,275.3z"/>
	<path class="st4" d="M294.3,277l-2.5,1.4c-0.7,0.4-0.9,1-0.3,1.3c0.8,0.3,1.6,0.2,2.3-0.2l2.5-1.5c0.7-0.4,0.8-1,0.3-1.3
		C295.9,276.5,295,276.6,294.3,277z"/>
	<path class="st4" d="M272,264.1l-2.5,1.5c-0.7,0.4-0.8,1-0.3,1.3c0.8,0.3,1.6,0.3,2.3-0.2l2.5-1.4c0.7-0.4,0.9-1,0.3-1.3
		C273.6,263.6,272.7,263.7,272,264.1z"/>
	<path class="st4" d="M274.9,265.8l-2.5,1.4c-0.7,0.4-0.9,1-0.3,1.3c0.8,0.3,1.6,0.3,2.3-0.2l2.5-1.4c0.7-0.4,0.8-1,0.3-1.3
		C276.4,265.3,275.6,265.4,274.9,265.8z"/>
	<path class="st4" d="M277.7,267.4l-2.5,1.4c-0.7,0.4-0.8,1-0.3,1.3c0.8,0.3,1.6,0.2,2.3-0.2l2.5-1.4c0.7-0.4,0.9-1,0.3-1.3
		C279.3,267,278.4,267,277.7,267.4z"/>
	<path class="st4" d="M328.8,277.2l-0.3-0.1c-0.5-0.3-0.8-0.9-0.9-1.5V226c0-0.6,0.4-1.2,0.9-1.5l67.2-39c0.5-0.3,1.2-0.3,1.7,0
		l0.4,0.2c0.5,0.3,0.8,0.9,0.9,1.5v49.6c0,0.6-0.4,1.2-0.9,1.5l-67.3,38.9C330,277.5,329.4,277.5,328.8,277.2z"/>
	<path class="st5" d="M345.9,235.5L328,225.1c-0.2,0.3-0.2,0.5-0.3,0.9v49.6c0,0.6,0.4,1.2,0.9,1.5l0.3,0.1c0.5,0.3,1.2,0.3,1.7,0
		l15.4-8.9L345.9,235.5z"/>
	<path class="st6" d="M397.9,238.3l-67.3,38.9c-0.5,0.3-0.9,0-0.9-0.5v-49.6c0-0.6,0.4-1.2,0.9-1.5l67.3-38.9c0.5-0.3,0.9,0,0.9,0.5
		v49.6C398.7,237.4,398.4,238,397.9,238.3z"/>
	<path class="st4" d="M366.2,258.9l-1,3.9l0,0L364,267l0,0l-5.7-3.3c0.1-0.3,0.4-0.5,0.6-0.6l5.8-3.4L366.2,258.9z"/>
	<path class="st5" d="M378.3,262.7c0,0.6-0.2,1.1-0.7,1.4l-10.5,6.1c-0.3,0.1-0.6,0.2-0.9,0.2l-1-7.6l0,0l-0.4-3l-2.6-19.6l12-6.9
		c0.2,0.3,0.3,0.6,0.3,0.9L378.3,262.7z"/>
	<path class="st4" d="M374.1,233.3l-12,6.9l-1.6-1c0.1-0.3,0.3-0.5,0.6-0.7l10.5-6.1c0.5-0.3,1.2-0.3,1.7,0l0.2,0.1
		C373.8,232.7,374,233,374.1,233.3z"/>
	<path class="st8" d="M366.2,270.4c-0.3,0-0.6-0.1-0.8-0.2l-6.4-3.7c-0.5-0.3-0.8-0.9-0.9-1.5v-0.4c0-0.3,0.1-0.6,0.3-0.9l5.6,3.2
		l-0.9-6.3l-0.1-1l-2.6-19.7c0-0.3,0-0.5,0.1-0.8l1.6,1l2.6,19.6l0.4,3l0,0L366.2,270.4z"/>
	<path class="st5" d="M359.1,223.1c0.6-0.3,1,0,1,0.7v6.9c0,0.7-0.4,1.4-1,1.8c-0.6,0.3-1,0-1-0.7v-6.9
		C358.2,224.2,358.5,223.5,359.1,223.1z"/>
	<path class="st5" d="M362.9,221c0.6-0.3,1,0,1,0.7v6.9c0,0.7-0.4,1.4-1,1.8c-0.6,0.3-1,0-1-0.7v-6.9
		C361.9,222.1,362.3,221.4,362.9,221z"/>
	<path class="st5" d="M366.6,218.8c0.6-0.3,1,0,1,0.7v6.9c0,0.7-0.4,1.4-1,1.8c-0.6,0.3-1,0-1-0.7v-6.9
		C365.6,219.9,366,219.3,366.6,218.8z"/>
	<path class="st5" d="M370.3,216.7c0.6-0.3,1,0,1,0.7v6.9c0,0.7-0.4,1.4-1,1.8c-0.6,0.3-1,0-1-0.7v-6.9
		C369.3,217.8,369.7,217.1,370.3,216.7z"/>
	<path class="st9" d="M264.6,216.7c0,0,22,10.3,27.1,11.8s9.1,1.9,13.6,3.2c4.9,1.5,14.8,6.2,16.3,8s-0.8,4.2-4.9,4.6
		s-11.3-1.7-12.6-1.7s-0.3,0.5,1.2,2.4s2,4.2,0.8,5.1c-0.8,0.6-2-1.1-4.2-2.1c-1.9-0.9-4.2-3.2-6.3-5.7s-3.7-3.7-9.5-5.2
		c-6.6-1.7-23.5-5.9-23.5-5.9L264.6,216.7z"/>
	<path class="st9" d="M256.6,177.7c3.5-0.6,7.7,0.1,9.5,2.3s3.7,5.5,1.9,13.3L256.6,177.7z"/>
	<path class="st12" d="M256.6,177.7c3.6,3.6,6.8,7.7,9.4,12.1c3.6,6.1,4.5,8.5,4.2,14c-0.3,5.7-2.6,10.4-3.6,14.9
		c-1.3,5.8-1.1,15.8-0.7,26.4c0,0-10.1,12.6-25.9,12.2s-21.1-9.4-21.1-9.4l9.5-17.1l-4.7-18l4.8-29.6l14.2-3.6L256.6,177.7z"/>
	<path class="st10" d="M231.6,197.6c0.3,7.7-0.6,15.4-2.5,22.9l5.4,16.4l-6.3-6.1l-4.7-18L231.6,197.6z"/>
	<path class="st12" d="M231.6,197.6c0.3,7.7-0.6,15.4-2.5,22.9l5.4,16.4l-6.3-6.1l-4.7-18L231.6,197.6z"/>
	<path class="st8" d="M251.2,171.4l-6-0.3c-11.2-0.6-19.8-10.2-19.2-21.4c0,0,0,0,0,0l0,0c0.7-12.9,11.7-22.7,24.6-22l0,0
		c12.9,0.7,22.7,11.7,22,24.6l0,0C272,163.5,262.4,172.1,251.2,171.4z"/>
	<path class="st9" d="M265.7,137.9c1.5,1,5.2,6.2,4.1,20c-0.9,11.7-4.1,14.4-6,15.2s-5.6,0-9.2-0.8l-0.3,5.7c0,0,3.6,4.9,1.6,7.4
		c-1.5,1.9-5.9,2.7-9.6,1.2c-3-1.2-5.5-3.4-7-6.2l0.9-17c0,0-2.6,3.1-6.4,0.3s-3.6-9.4-1.2-11.6s7.3-1.2,8.1,2.1
		c0.8-5,3.2-9.5,6.9-12.9C254,135.4,262.9,137,265.7,137.9z"/>
	<path class="st8" d="M257.3,149l-3.3,1.3c-0.4-0.9,0.1-2,1-2.4c0.9-0.4,1.9,0.1,2.3,1C257.3,148.9,257.3,149,257.3,149z"/>
	<path class="st8" d="M257.7,154.3c0,0.8-0.7,1.5-1.5,1.5c-0.8,0-1.5-0.7-1.5-1.6c0-0.8,0.7-1.5,1.5-1.5
		C257.1,152.7,257.8,153.4,257.7,154.3z"/>
	<path class="st8" d="M266.5,149.1l3,2.1c0.6-0.8,0.4-2-0.5-2.6c-0.8-0.6-1.9-0.4-2.5,0.4C266.6,149,266.5,149.1,266.5,149.1z"/>
	<path class="st13" d="M257.6,164.2l3.4,1.3c-0.3,0.9-1.3,1.4-2.2,1.1c0,0,0,0-0.1,0C257.7,166.2,257.2,165.2,257.6,164.2z"/>
	<path class="st8" d="M268.6,153.8c0,0.8-0.7,1.5-1.5,1.4c-0.8,0-1.5-0.7-1.4-1.5c0-0.8,0.7-1.4,1.5-1.4
		C268,152.3,268.6,153,268.6,153.8C268.6,153.8,268.6,153.8,268.6,153.8z"/>
	<polygon class="st13" points="261.5,152.6 261.3,161.4 266,160.3 	"/>
	<path class="st13" d="M254.7,172.3c-3-0.5-8.8-2.6-10-4.7c0,0,0,1.4,1.8,3.4s8.1,3.7,8.1,3.7L254.7,172.3z"/>
	<path class="st8" d="M230.7,129.9c4.7,2.6,2.3,6.7-0.4,11.7s-4.8,9.2-9.5,6.6s-6.4-8.7-3.6-13.8S226,127.3,230.7,129.9z"/>
	<path class="st8" d="M237.5,154.3l0.4-6.6l3.9,0.2l-0.6,10.5l0,0C239,158.3,237.3,156.5,237.5,154.3
		C237.5,154.3,237.5,154.3,237.5,154.3z"/>
	<path class="st12" d="M265.7,137.9c0,0-1.4,19.5-28.1,13.3c0,0,0.5-10.6,9.7-15.1C258.3,130.9,265.7,137.9,265.7,137.9z"/>
	<path class="st8" d="M265.7,137.9c-7.3,7.9-17.4,12.7-28.1,13.3c0,0-1.8-10.4,7.6-15.9S264.3,134,265.7,137.9z"/>
	<path class="st8" d="M260.1,284.9c-0.1,0-0.2-0.1-0.2-0.2l-0.6-2.4c0-0.1,0-0.3,0.2-0.3c0.1,0,0.3,0,0.3,0.2c0,0,0,0,0,0l0.6,2.3
		C260.4,284.7,260.3,284.9,260.1,284.9L260.1,284.9z"/>
	<path class="st5" d="M255.7,278.8l3.2,4.5c0.3,0.4,0.8,0.5,1.2,0.2c0.2-0.2,0.3-0.4,0.3-0.6l0.2-5.5L255.7,278.8z"/>
	<path class="st6" d="M251.4,246.9c-0.2-0.5-0.7-0.8-1.3-0.7c-1.6-0.1-4,1.3-3.5,2.6l9.1,30c1,0.5,2.1,0.6,3.1,0.1
		c0.8-0.3,1.4-0.9,1.8-1.6L251.4,246.9z"/>
	<path class="st5" d="M249.1,244.5c-0.2-0.6-0.8-0.9-1.4-0.7s-0.9,0.8-0.7,1.4l0.7,2.4l0,0c0.1,0.2,0.2,0.3,0.4,0.3
		c0.5,0.1,1.1-0.1,1.5-0.4c0.2-0.1,0.2-0.3,0.2-0.5l0,0L249.1,244.5z"/>
	<path class="st9" d="M228.2,183.2c-6.1,1.3-9.4,4.8-11.1,12.4s-9.5,42.7-10.4,46.1s0.4,5.5,4.4,9.6c3.6,3.8,21.6,16.8,23,18.7
		s6.7,5.5,9.5,7s6.1,1.9,9.4,1.9c2.3,0,6-2.3,8.8-2.6s3.6-2.9,1.9-3.9s-11.2-4.6-11.2-4.6l-0.8-3c0,0-0.7-1.2-4.6-1.3
		s-4.8,1.4-9.7-3.1c-5-4.6-17.1-19.6-17.1-19.6l9.1-30.9C229.5,210,235.1,190.2,228.2,183.2z"/>
</g>
</svg>
