<svg xmlns="http://www.w3.org/2000/svg" xmlns:xlink="http://www.w3.org/1999/xlink" viewBox="0 0 2475 1650"><defs><style>.cls-1{fill:none;}.cls-12,.cls-2,.cls-6,.cls-75,.cls-78,.cls-79{fill:#fff;}.cls-3{fill:url(#linear-gradient);}.cls-4{fill:#91b3fa;}.cls-5{fill:#bdd0fb;}.cls-6{opacity:0.5;}.cls-7{fill:url(#linear-gradient-2);}.cls-8{fill:url(#linear-gradient-3);}.cls-9{fill:url(#linear-gradient-4);}.cls-10{fill:url(#linear-gradient-5);}.cls-11{fill:url(#linear-gradient-6);}.cls-12{opacity:0.47;}.cls-13{clip-path:url(#clip-path);}.cls-14{fill:#7d97f4;}.cls-15{fill:url(#linear-gradient-7);}.cls-16{fill:url(#linear-gradient-8);}.cls-17{fill:url(#linear-gradient-9);}.cls-18{fill:url(#linear-gradient-10);}.cls-19{fill:url(#linear-gradient-11);}.cls-20{fill:url(#linear-gradient-12);}.cls-21{fill:url(#linear-gradient-13);}.cls-22{fill:url(#linear-gradient-14);}.cls-23{fill:url(#linear-gradient-15);}.cls-24{fill:url(#linear-gradient-16);}.cls-25{fill:url(#linear-gradient-17);}.cls-26{fill:url(#linear-gradient-18);}.cls-27{fill:url(#linear-gradient-19);}.cls-28{fill:url(#linear-gradient-20);}.cls-29{fill:url(#linear-gradient-21);}.cls-30{fill:url(#linear-gradient-22);}.cls-31{fill:url(#linear-gradient-23);}.cls-32{fill:url(#linear-gradient-24);}.cls-33{fill:url(#linear-gradient-25);}.cls-34{opacity:0.48;}.cls-35{fill:url(#linear-gradient-26);}.cls-36{fill:url(#linear-gradient-27);}.cls-37{fill:url(#linear-gradient-28);}.cls-38{fill:url(#linear-gradient-29);}.cls-39{fill:url(#linear-gradient-30);}.cls-40{fill:url(#linear-gradient-31);}.cls-41{fill:url(#linear-gradient-32);}.cls-42{fill:url(#linear-gradient-33);}.cls-43{fill:url(#linear-gradient-34);}.cls-44{fill:url(#linear-gradient-35);}.cls-45{fill:url(#linear-gradient-36);}.cls-46{fill:url(#linear-gradient-37);}.cls-47{fill:url(#linear-gradient-38);}.cls-48{fill:url(#linear-gradient-39);}.cls-49{fill:url(#linear-gradient-40);}.cls-50{fill:url(#linear-gradient-41);}.cls-51{fill:url(#linear-gradient-42);}.cls-52{fill:url(#linear-gradient-43);}.cls-53{fill:url(#linear-gradient-44);}.cls-54{fill:url(#linear-gradient-45);}.cls-55{fill:url(#linear-gradient-46);}.cls-56{fill:url(#linear-gradient-47);}.cls-57{fill:url(#linear-gradient-48);}.cls-58{fill:url(#linear-gradient-49);}.cls-59{fill:url(#linear-gradient-50);}.cls-60{fill:url(#linear-gradient-51);}.cls-61{fill:url(#linear-gradient-52);}.cls-62{fill:url(#linear-gradient-53);}.cls-63{fill:url(#linear-gradient-54);}.cls-64{fill:url(#linear-gradient-55);}.cls-65{fill:url(#linear-gradient-56);}.cls-66{fill:url(#linear-gradient-57);}.cls-67{fill:url(#linear-gradient-58);}.cls-68{fill:url(#linear-gradient-59);}.cls-69{fill:url(#linear-gradient-60);}.cls-70{fill:url(#linear-gradient-61);}.cls-71{fill:url(#linear-gradient-62);}.cls-72{fill:url(#linear-gradient-63);}.cls-73{fill:url(#linear-gradient-64);}.cls-74{fill:url(#linear-gradient-65);}.cls-75{opacity:0.8;}.cls-76{fill:url(#linear-gradient-66);}.cls-77{fill:url(#linear-gradient-67);}.cls-78{opacity:0.84;}.cls-79{opacity:0.37;}.cls-80{fill:url(#linear-gradient-68);}.cls-81{fill:url(#linear-gradient-69);}.cls-82{fill:url(#linear-gradient-70);}.cls-83{fill:url(#linear-gradient-71);}.cls-84{fill:url(#linear-gradient-72);}.cls-85{fill:url(#linear-gradient-73);}.cls-86{fill:url(#linear-gradient-74);}.cls-87{fill:url(#linear-gradient-75);}.cls-88{fill:url(#linear-gradient-76);}.cls-89{fill:url(#linear-gradient-77);}.cls-90{fill:url(#linear-gradient-78);}.cls-91{fill:url(#linear-gradient-79);}.cls-92{fill:url(#linear-gradient-80);}.cls-93{fill:url(#linear-gradient-81);}.cls-94{fill:url(#linear-gradient-82);}.cls-95{fill:url(#linear-gradient-83);}.cls-96{fill:url(#linear-gradient-84);}.cls-97{fill:url(#linear-gradient-85);}.cls-98{fill:url(#linear-gradient-86);}.cls-99{fill:url(#linear-gradient-87);}.cls-100{fill:url(#linear-gradient-88);}.cls-101{fill:url(#linear-gradient-89);}.cls-102{fill:url(#linear-gradient-90);}.cls-103{fill:url(#_9);}.cls-104{fill:url(#linear-gradient-91);}.cls-105{fill:url(#linear-gradient-92);}.cls-106{fill:url(#linear-gradient-93);}.cls-107{fill:url(#linear-gradient-94);}.cls-108{fill:url(#linear-gradient-95);}.cls-109{fill:url(#linear-gradient-96);}.cls-110{fill:url(#linear-gradient-97);}.cls-111{fill:url(#linear-gradient-98);}.cls-112{fill:url(#linear-gradient-99);}.cls-113{fill:url(#linear-gradient-100);}.cls-114{fill:url(#linear-gradient-101);}.cls-115{fill:url(#linear-gradient-102);}.cls-116{fill:url(#linear-gradient-103);}.cls-117{fill:url(#linear-gradient-104);}.cls-118{fill:url(#linear-gradient-105);}</style><linearGradient id="linear-gradient" x1="177.03" y1="791.62" x2="2359" y2="791.62" gradientUnits="userSpaceOnUse"><stop offset="0" stop-color="#dae3fe"/><stop offset="1" stop-color="#e9effd"/></linearGradient><linearGradient id="linear-gradient-2" x1="2755.77" y1="1370.17" x2="2944.71" y2="1370.17" gradientTransform="translate(-1031.15 -189.57) rotate(-9.25)" xlink:href="#linear-gradient"/><linearGradient id="linear-gradient-3" x1="182.89" y1="923.87" x2="483.86" y2="923.87" xlink:href="#linear-gradient"/><linearGradient id="linear-gradient-4" x1="1134.95" y1="523.38" x2="267.86" y2="1123.44" gradientUnits="userSpaceOnUse"><stop offset="0" stop-color="#4042e2"/><stop offset="1" stop-color="#4f52ff"/></linearGradient><linearGradient id="linear-gradient-5" x1="1529.73" y1="801.6" x2="1298.7" y2="834.6" xlink:href="#linear-gradient-4"/><linearGradient id="linear-gradient-6" x1="1289.46" y1="1022.81" x2="2129.54" y2="575.76" xlink:href="#linear-gradient-4"/><clipPath id="clip-path"><polygon class="cls-1" points="1352.57 372.37 879.15 326.18 404.95 369.71 396.21 1382.67 870.22 1361.68 1343.77 1393.57 1817.33 1355.22 1825.97 352.91 1352.57 372.37"/></clipPath><linearGradient id="linear-gradient-7" x1="1383.45" y1="528.24" x2="1354.04" y2="549.81" gradientTransform="translate(29.88 -98.82) rotate(3.35)" gradientUnits="userSpaceOnUse"><stop offset="0" stop-color="#fe7062"/><stop offset="1" stop-color="#ff928e"/></linearGradient><linearGradient id="linear-gradient-8" x1="525.28" y1="1234.8" x2="455.28" y2="1334.8" gradientTransform="matrix(1, 0, 0, 1, 0, 0)" xlink:href="#linear-gradient-7"/><linearGradient id="linear-gradient-9" x1="1228" y1="137.88" x2="1165" y2="368.9" gradientTransform="translate(790.22 -570.02) rotate(45)" xlink:href="#linear-gradient"/><linearGradient id="linear-gradient-10" x1="2243.82" y1="329.67" x2="1505.74" y2="1373.77" gradientUnits="userSpaceOnUse"><stop offset="0" stop-color="#09005d"/><stop offset="1" stop-color="#1a0f91"/></linearGradient><linearGradient id="linear-gradient-11" x1="2653.97" y1="-199.35" x2="2409.97" y2="128.65" gradientTransform="matrix(1, 0, 0, 1, 0, 0)" xlink:href="#linear-gradient-7"/><linearGradient id="linear-gradient-12" x1="1782.57" y1="406.57" x2="1780.16" y2="553.47" gradientUnits="userSpaceOnUse"><stop offset="0" stop-color="#8d55d1"/><stop offset="1" stop-color="#1c2873"/></linearGradient><linearGradient id="linear-gradient-13" x1="-3024.94" y1="-712.3" x2="-3204.96" y2="-436.27" gradientTransform="matrix(-1, 0, 0, 1, -2253.96, 0)" gradientUnits="userSpaceOnUse"><stop offset="0" stop-color="#e1473d"/><stop offset="1" stop-color="#e9605a"/></linearGradient><linearGradient id="linear-gradient-14" x1="-2926.34" y1="-647.99" x2="-3106.36" y2="-371.96" xlink:href="#linear-gradient-13"/><linearGradient id="linear-gradient-15" x1="-3029.54" y1="-715.29" x2="-3209.56" y2="-439.26" xlink:href="#linear-gradient-13"/><linearGradient id="linear-gradient-16" x1="-2793.89" y1="-561.6" x2="-2973.9" y2="-285.58" xlink:href="#linear-gradient-13"/><linearGradient id="linear-gradient-17" x1="-2752.34" y1="-534.51" x2="-2932.35" y2="-258.48" xlink:href="#linear-gradient-13"/><linearGradient id="linear-gradient-18" x1="2176.38" y1="184.66" x2="1996.36" y2="460.69" gradientTransform="matrix(1, 0, 0, 1, 0, 0)" xlink:href="#linear-gradient-13"/><linearGradient id="linear-gradient-19" x1="2212.47" y1="208.19" x2="2032.45" y2="484.22" gradientTransform="matrix(1, 0, 0, 1, 0, 0)" xlink:href="#linear-gradient-13"/><linearGradient id="linear-gradient-20" x1="-3094.87" y1="-757.9" x2="-3274.89" y2="-481.87" xlink:href="#linear-gradient-13"/><linearGradient id="linear-gradient-21" x1="-2938.66" y1="-656.02" x2="-3118.68" y2="-379.99" xlink:href="#linear-gradient-13"/><linearGradient id="linear-gradient-22" x1="-2947.35" y1="-661.69" x2="-3127.37" y2="-385.66" xlink:href="#linear-gradient-13"/><linearGradient id="linear-gradient-23" x1="558.83" y1="942.45" x2="360.84" y2="1350.43" gradientTransform="translate(867.6 -76.89) rotate(45)" gradientUnits="userSpaceOnUse"><stop offset="0" stop-color="#ff928e"/><stop offset="1" stop-color="#feb3b1"/></linearGradient><linearGradient id="linear-gradient-24" x1="565.01" y1="945.45" x2="367.02" y2="1353.43" gradientTransform="matrix(1, 0, 0, 1, 0, 0)" xlink:href="#linear-gradient-23"/><linearGradient id="linear-gradient-25" x1="686.85" y1="526.95" x2="467.83" y2="1190.01" gradientTransform="matrix(1, 0, 0, 1, 0, 0)" xlink:href="#linear-gradient-13"/><linearGradient id="linear-gradient-26" x1="1488.04" y1="74.81" x2="1134.01" y2="638.87" gradientTransform="translate(591.2 -886.03) rotate(45)" xlink:href="#linear-gradient-23"/><linearGradient id="linear-gradient-27" x1="1502.87" y1="84.12" x2="1148.84" y2="648.18" gradientTransform="matrix(1, 0, 0, 1, 0, 0)" xlink:href="#linear-gradient-23"/><linearGradient id="linear-gradient-28" x1="1481.55" y1="-119.57" x2="1417.05" y2="97.92" gradientTransform="matrix(1, 0, 0, 1, 0, 0)" xlink:href="#linear-gradient-13"/><linearGradient id="linear-gradient-29" x1="-5094.23" y1="892.76" x2="-5033.28" y2="1045.65" gradientTransform="translate(7172.03)" xlink:href="#linear-gradient-10"/><linearGradient id="linear-gradient-30" x1="-5265.03" y1="173.42" x2="-5200.6" y2="320.03" gradientTransform="translate(7124.69 -266.75) rotate(-12.16)" gradientUnits="userSpaceOnUse"><stop offset="0" stop-color="#c4421b"/><stop offset="1" stop-color="#5c0e16"/></linearGradient><linearGradient id="linear-gradient-31" x1="-4948.4" y1="1505.07" x2="-4918.82" y2="1505.07" gradientTransform="translate(7172.03)" xlink:href="#linear-gradient-10"/><linearGradient id="linear-gradient-32" x1="-5073.38" y1="1621.7" x2="-5030.81" y2="1124.25" gradientTransform="translate(7172.03)" xlink:href="#linear-gradient-30"/><linearGradient id="linear-gradient-33" x1="-5085.81" y1="1499.67" x2="-5037.95" y2="1499.67" gradientTransform="translate(7172.03)" xlink:href="#linear-gradient-10"/><linearGradient id="linear-gradient-34" x1="-4987.76" y1="1629.11" x2="-4945.18" y2="1131.52" gradientTransform="translate(7172.03)" xlink:href="#linear-gradient-30"/><linearGradient id="linear-gradient-35" x1="2706.21" y1="1077.82" x2="2603.66" y2="1222.97" gradientTransform="matrix(-1, 0, 0, 1, 4770.6, 0)" xlink:href="#linear-gradient-7"/><linearGradient id="linear-gradient-36" x1="2171.23" y1="1192.15" x2="2088.23" y2="1347.15" xlink:href="#linear-gradient-10"/><linearGradient id="linear-gradient-37" x1="-5078.04" y1="1131.37" x2="-5070.05" y2="1072.87" gradientTransform="translate(7172.03)" xlink:href="#linear-gradient-30"/><linearGradient id="linear-gradient-38" x1="-5208.04" y1="293.6" x2="-5138.27" y2="169.45" gradientTransform="translate(7131.27 -238.99) rotate(-11.2)" xlink:href="#linear-gradient-30"/><linearGradient id="linear-gradient-39" x1="-5193.03" y1="185.49" x2="-5158.15" y2="272.98" gradientTransform="translate(7131.27 -238.99) rotate(-11.2)" xlink:href="#linear-gradient-10"/><linearGradient id="linear-gradient-40" x1="-5277.77" y1="179.02" x2="-5213.33" y2="325.63" xlink:href="#linear-gradient-30"/><linearGradient id="linear-gradient-41" x1="2793.73" y1="972.47" x2="2810.94" y2="972.47" gradientTransform="matrix(-1, 0, 0, 1, 4770.6, 0)" xlink:href="#linear-gradient-23"/><linearGradient id="linear-gradient-42" x1="2508.86" y1="1176.57" x2="2650.85" y2="1176.57" gradientTransform="matrix(-1, 0, 0, 1, 4770.6, 0)" xlink:href="#linear-gradient-30"/><linearGradient id="linear-gradient-43" x1="1110.16" y1="836.6" x2="1047.16" y2="1028.62" gradientTransform="matrix(1, 0, 0, 1, 0, 0)" xlink:href="#linear-gradient-13"/><linearGradient id="linear-gradient-44" x1="993.54" y1="1107.55" x2="792.52" y2="1305.57" gradientTransform="matrix(1, 0, 0, 1, 0, 0)" xlink:href="#linear-gradient-13"/><linearGradient id="linear-gradient-45" x1="1388.21" y1="756.19" x2="1226.21" y2="926.19" gradientTransform="matrix(1, 0, 0, 1, 0, 0)" xlink:href="#linear-gradient-23"/><linearGradient id="linear-gradient-46" x1="4395.59" y1="1175.6" x2="4520.09" y2="1662.05" gradientTransform="translate(-3520)" xlink:href="#linear-gradient-13"/><linearGradient id="linear-gradient-47" x1="1257.22" y1="1326.77" x2="1003.47" y2="1671.93" gradientTransform="matrix(1, 0, 0, 1, 0, 0)" xlink:href="#linear-gradient-7"/><linearGradient id="linear-gradient-48" x1="4758.38" y1="1435.32" x2="4946.34" y2="1440.05" gradientTransform="translate(-3520)" xlink:href="#linear-gradient-13"/><linearGradient id="linear-gradient-49" x1="1720.11" y1="885.07" x2="1473.15" y2="1093.53" xlink:href="#linear-gradient-10"/><linearGradient id="linear-gradient-50" x1="870.49" y1="1629.77" x2="1223.28" y2="1350.75" xlink:href="#linear-gradient-10"/><linearGradient id="linear-gradient-51" x1="4795.92" y1="1306.05" x2="4701.42" y2="1354.82" gradientTransform="translate(-3520)" xlink:href="#linear-gradient-13"/><linearGradient id="linear-gradient-52" x1="4846.33" y1="1128.91" x2="4634.32" y2="1238.34" gradientTransform="translate(-3520)" xlink:href="#linear-gradient-23"/><linearGradient id="linear-gradient-53" x1="1528.08" y1="1118.56" x2="1422.24" y2="1243.64" gradientTransform="translate(249.38 -180.12) rotate(9.22)" xlink:href="#linear-gradient-10"/><linearGradient id="linear-gradient-54" x1="1193.8" y1="1456.74" x2="1290.05" y2="1456.74" gradientTransform="translate(106.39 -84.37) rotate(4.07)" xlink:href="#linear-gradient-13"/><linearGradient id="linear-gradient-55" x1="1331.46" y1="1356.96" x2="1193.16" y2="1513.3" gradientTransform="matrix(1, 0, 0, 1, 0, 0)" xlink:href="#linear-gradient-23"/><linearGradient id="linear-gradient-56" x1="1538.5" y1="1135.96" x2="1420.62" y2="1263.45" gradientTransform="translate(2112.51 -248.12) rotate(67.5)" xlink:href="#linear-gradient-10"/><linearGradient id="linear-gradient-57" x1="1241.94" y1="1227.95" x2="1070.36" y2="1335.39" gradientTransform="translate(184.56 -96.19) rotate(7.02)" xlink:href="#linear-gradient-10"/><linearGradient id="linear-gradient-58" x1="828.44" y1="1456.74" x2="924.69" y2="1456.74" gradientTransform="translate(105.47 -58.47) rotate(4.07)" xlink:href="#linear-gradient-13"/><linearGradient id="linear-gradient-59" x1="856.01" y1="1443.73" x2="921.26" y2="1443.73" gradientTransform="matrix(1, 0, 0, 1, 0, 0)" xlink:href="#linear-gradient-23"/><linearGradient id="linear-gradient-60" x1="4255" y1="2045.37" x2="4300.7" y2="1855.36" gradientTransform="translate(539.93 -3162.63) rotate(67.5)" xlink:href="#linear-gradient-10"/><linearGradient id="linear-gradient-61" x1="1178.89" y1="1213.47" x2="1034.57" y2="1293.65" gradientTransform="translate(122.68 -56.15) rotate(4.73)" xlink:href="#linear-gradient-10"/><linearGradient id="linear-gradient-62" x1="692.88" y1="1456.74" x2="789.13" y2="1456.74" gradientTransform="translate(147.15 -65.93) rotate(5.65)" xlink:href="#linear-gradient-13"/><linearGradient id="linear-gradient-63" x1="720.45" y1="1443.73" x2="785.7" y2="1443.73" gradientTransform="matrix(1, 0, 0, 1, 0, 0)" xlink:href="#linear-gradient-23"/><linearGradient id="linear-gradient-64" x1="4126.85" y1="2014.55" x2="4172.55" y2="1824.54" gradientTransform="translate(456.25 -3037.39) rotate(67.5)" xlink:href="#linear-gradient-10"/><linearGradient id="linear-gradient-65" x1="4831.71" y1="1418.17" x2="4850.63" y2="1372.95" gradientTransform="translate(-3520)" xlink:href="#linear-gradient-23"/><linearGradient id="linear-gradient-66" x1="1346.64" y1="1213.6" x2="1145.8" y2="1321.83" gradientTransform="matrix(1, 0, 0, 1, 0, 0)" xlink:href="#linear-gradient-23"/><linearGradient id="linear-gradient-67" x1="658.82" y1="1418.95" x2="857.25" y2="1260.21" gradientTransform="matrix(1, 0, 0, 1, 0, 0)" xlink:href="#linear-gradient-7"/><linearGradient id="linear-gradient-68" x1="-524.06" y1="1275.09" x2="-583.57" y2="1361.57" gradientTransform="matrix(-1, 0, 0, 1, 327.55, 0)" xlink:href="#linear-gradient-10"/><linearGradient id="linear-gradient-69" x1="-521.92" y1="1276.57" x2="-581.43" y2="1363.04" gradientTransform="matrix(-1, 0, 0, 1, 327.55, 0)" xlink:href="#linear-gradient-10"/><linearGradient id="linear-gradient-70" x1="-519.34" y1="1278.34" x2="-578.85" y2="1364.81" gradientTransform="matrix(-1, 0, 0, 1, 327.55, 0)" xlink:href="#linear-gradient-10"/><linearGradient id="linear-gradient-71" x1="-514.88" y1="1281.42" x2="-574.38" y2="1367.89" gradientTransform="matrix(-1, 0, 0, 1, 327.55, 0)" xlink:href="#linear-gradient-10"/><linearGradient id="linear-gradient-72" x1="-511.93" y1="1283.44" x2="-571.44" y2="1369.91" gradientTransform="matrix(-1, 0, 0, 1, 327.55, 0)" xlink:href="#linear-gradient-10"/><linearGradient id="linear-gradient-73" x1="-510.1" y1="1284.7" x2="-569.61" y2="1371.17" gradientTransform="matrix(-1, 0, 0, 1, 327.55, 0)" xlink:href="#linear-gradient-10"/><linearGradient id="linear-gradient-74" x1="-527.12" y1="1272.99" x2="-586.63" y2="1359.46" gradientTransform="matrix(-1, 0, 0, 1, 327.55, 0)" xlink:href="#linear-gradient-10"/><linearGradient id="linear-gradient-75" x1="862.99" y1="1406.21" x2="1156.43" y2="1259.49" gradientTransform="matrix(1, 0, 0, 1, 0, 0)" xlink:href="#linear-gradient-7"/><linearGradient id="linear-gradient-76" x1="-760.27" y1="1283.69" x2="-819.77" y2="1370.16" gradientTransform="matrix(-1, 0, 0, 1, 327.55, 0)" xlink:href="#linear-gradient-10"/><linearGradient id="linear-gradient-77" x1="-758.13" y1="1285.16" x2="-817.63" y2="1371.63" gradientTransform="matrix(-1, 0, 0, 1, 327.55, 0)" xlink:href="#linear-gradient-10"/><linearGradient id="linear-gradient-78" x1="-755.55" y1="1286.94" x2="-815.05" y2="1373.41" gradientTransform="matrix(-1, 0, 0, 1, 327.55, 0)" xlink:href="#linear-gradient-10"/><linearGradient id="linear-gradient-79" x1="-751.08" y1="1290.01" x2="-810.59" y2="1376.48" gradientTransform="matrix(-1, 0, 0, 1, 327.55, 0)" xlink:href="#linear-gradient-10"/><linearGradient id="linear-gradient-80" x1="-748.14" y1="1292.04" x2="-807.64" y2="1378.51" gradientTransform="matrix(-1, 0, 0, 1, 327.55, 0)" xlink:href="#linear-gradient-10"/><linearGradient id="linear-gradient-81" x1="-746.31" y1="1293.3" x2="-805.81" y2="1379.77" gradientTransform="matrix(-1, 0, 0, 1, 327.55, 0)" xlink:href="#linear-gradient-10"/><linearGradient id="linear-gradient-82" x1="-763.33" y1="1281.58" x2="-822.84" y2="1368.05" gradientTransform="matrix(-1, 0, 0, 1, 327.55, 0)" xlink:href="#linear-gradient-10"/><linearGradient id="linear-gradient-83" x1="680.43" y1="1253.81" x2="841.58" y2="1127.53" gradientTransform="matrix(1, 0, 0, 1, 0, 0)" xlink:href="#linear-gradient-7"/><linearGradient id="linear-gradient-84" x1="-477.88" y1="1162.36" x2="-519.67" y2="1223.09" gradientTransform="matrix(-1, 0, 0, 1, 327.55, 0)" xlink:href="#linear-gradient-10"/><linearGradient id="linear-gradient-85" x1="-476.38" y1="1163.39" x2="-518.17" y2="1224.12" gradientTransform="matrix(-1, 0, 0, 1, 327.55, 0)" xlink:href="#linear-gradient-10"/><linearGradient id="linear-gradient-86" x1="-474.56" y1="1164.64" x2="-516.35" y2="1225.37" gradientTransform="matrix(-1, 0, 0, 1, 327.55, 0)" xlink:href="#linear-gradient-10"/><linearGradient id="linear-gradient-87" x1="-471.43" y1="1166.8" x2="-513.22" y2="1227.53" gradientTransform="matrix(-1, 0, 0, 1, 327.55, 0)" xlink:href="#linear-gradient-10"/><linearGradient id="linear-gradient-88" x1="-469.36" y1="1168.22" x2="-511.15" y2="1228.95" gradientTransform="matrix(-1, 0, 0, 1, 327.55, 0)" xlink:href="#linear-gradient-10"/><linearGradient id="linear-gradient-89" x1="-468.08" y1="1169.11" x2="-509.87" y2="1229.83" gradientTransform="matrix(-1, 0, 0, 1, 327.55, 0)" xlink:href="#linear-gradient-10"/><linearGradient id="linear-gradient-90" x1="-480.03" y1="1160.88" x2="-521.82" y2="1221.61" gradientTransform="matrix(-1, 0, 0, 1, 327.55, 0)" xlink:href="#linear-gradient-10"/><linearGradient id="_9" x1="754.31" y1="1326.62" x2="982.8" y2="1140.21" gradientUnits="userSpaceOnUse"><stop offset="0" stop-color="#fe7062"/><stop offset="0.53" stop-color="#fe7164"/><stop offset="0.72" stop-color="#fe776b"/><stop offset="0.86" stop-color="#fe8076"/><stop offset="0.97" stop-color="#ff8d87"/><stop offset="1" stop-color="#ff928e"/></linearGradient><linearGradient id="linear-gradient-91" x1="-627.75" y1="1164.49" x2="-669.61" y2="1225.31" gradientTransform="matrix(-1, 0, 0, 1, 327.55, 0)" xlink:href="#linear-gradient-10"/><linearGradient id="linear-gradient-92" x1="-626.59" y1="1165.55" x2="-668.33" y2="1226.21" gradientTransform="matrix(-1, 0, 0, 1, 327.55, 0)" xlink:href="#linear-gradient-10"/><linearGradient id="linear-gradient-93" x1="-625.13" y1="1166.78" x2="-666.93" y2="1227.53" gradientTransform="matrix(-1, 0, 0, 1, 327.55, 0)" xlink:href="#linear-gradient-10"/><linearGradient id="linear-gradient-94" x1="-622.63" y1="1168.98" x2="-664.22" y2="1229.41" gradientTransform="matrix(-1, 0, 0, 1, 327.55, 0)" xlink:href="#linear-gradient-10"/><linearGradient id="linear-gradient-95" x1="-620.96" y1="1170.39" x2="-662.6" y2="1230.89" gradientTransform="matrix(-1, 0, 0, 1, 327.55, 0)" xlink:href="#linear-gradient-10"/><linearGradient id="linear-gradient-96" x1="-619.92" y1="1171.25" x2="-661.73" y2="1231.99" gradientTransform="matrix(-1, 0, 0, 1, 327.55, 0)" xlink:href="#linear-gradient-10"/><linearGradient id="linear-gradient-97" x1="-629.47" y1="1163.06" x2="-671.16" y2="1223.63" gradientTransform="matrix(-1, 0, 0, 1, 327.55, 0)" xlink:href="#linear-gradient-10"/><linearGradient id="linear-gradient-98" x1="942.19" y1="1268.15" x2="1162.27" y2="1141.87" gradientTransform="matrix(1, 0, 0, 1, 0, 0)" xlink:href="#linear-gradient-7"/><linearGradient id="linear-gradient-99" x1="-773.73" y1="1168.93" x2="-815.59" y2="1229.75" gradientTransform="matrix(-1, 0, 0, 1, 327.55, 0)" xlink:href="#linear-gradient-10"/><linearGradient id="linear-gradient-100" x1="-772.56" y1="1169.99" x2="-814.31" y2="1230.65" gradientTransform="matrix(-1, 0, 0, 1, 327.55, 0)" xlink:href="#linear-gradient-10"/><linearGradient id="linear-gradient-101" x1="-771.1" y1="1171.22" x2="-812.91" y2="1231.97" gradientTransform="matrix(-1, 0, 0, 1, 327.55, 0)" xlink:href="#linear-gradient-10"/><linearGradient id="linear-gradient-102" x1="-768.61" y1="1173.42" x2="-810.2" y2="1233.85" gradientTransform="matrix(-1, 0, 0, 1, 327.55, 0)" xlink:href="#linear-gradient-10"/><linearGradient id="linear-gradient-103" x1="-766.94" y1="1174.83" x2="-808.58" y2="1235.33" gradientTransform="matrix(-1, 0, 0, 1, 327.55, 0)" xlink:href="#linear-gradient-10"/><linearGradient id="linear-gradient-104" x1="-765.9" y1="1175.69" x2="-807.71" y2="1236.43" gradientTransform="matrix(-1, 0, 0, 1, 327.55, 0)" xlink:href="#linear-gradient-10"/><linearGradient id="linear-gradient-105" x1="-775.45" y1="1167.5" x2="-817.14" y2="1228.07" gradientTransform="matrix(-1, 0, 0, 1, 327.55, 0)" xlink:href="#linear-gradient-10"/></defs><title>20946004 [Converted]</title><g id="Background"><rect class="cls-2" width="2475" height="1650"/></g><g id="Illustration"><path class="cls-3" d="M455.11,1396.66l.59.38a231,231,0,0,0,126.15,37.33h1651c54,0,101.42-34.85,115.26-85,17.67-64,14.81-136.17-15.77-209.4-114.93-275.27-177.58-267-75.23-456.1S2129-85.9,1763.21,329.72s-421.15,190.88-596.74,2.53C1071.4,230.27,804,3.66,560.3,284.06c-154.23,177.44-91,256.68-199,357.75S-38.24,1074.8,455.11,1396.66Z"/><path class="cls-4" d="M1750.67,1444.78s174.17-521.42,461.86-788.54c19.34-18,50.87-7.53,55.53,18.45C2299.21,848.38,2342,1370.58,1750.67,1444.78Z"/><path class="cls-5" d="M1806.84,1415.2a1.46,1.46,0,0,0,1.68,2.37c57.41-35.18,283.15-213.08,395.23-598a1,1,0,0,0-1.92-.68C2167.54,907.36,2030.61,1232.67,1806.84,1415.2Z"/><path class="cls-5" d="M1839.33,1445.61s-10.25-236,224-302.43c146.37-41.51,213.16-88.53,242.67-118,9.67-9.65,26.09-5.48,26.78,6.74C2337.9,1123.23,2305.22,1363.46,1839.33,1445.61Z"/><path class="cls-6" d="M2236.11,1140.21c.68-.84,2-.16,1.43.74-20.39,33.36-124.13,167.33-352.15,254.75a.54.54,0,1,1-.42-1C1937.3,1370,2129.6,1273.45,2236.11,1140.21Z"/><path class="cls-5" d="M1950.66,939.86s-164-176.89-28.1-349.71c85-108,105.14-179,108.33-217,1-12.47,16.41-17.77,25-8.69C2120.26,432.25,2254.12,634.68,1950.66,939.86Z"/><path class="cls-7" d="M2065.07,512a.82.82,0,0,1,1.64-.09c4.48,37.89,4.44,200.75-127.59,385.61a.58.58,0,0,1-1-.61C1965.5,850.63,2062.29,675.61,2065.07,512Z"/><path class="cls-5" d="M519.24,1080.54S355.76,802.3,158,683.91a19.56,19.56,0,0,0-29.64,17.35C131.65,804.8,170.63,1109.89,519.24,1080.54Z"/><path class="cls-8" d="M483.38,1070.39a.85.85,0,0,1-.67,1.57C445.46,1058.74,294.17,984.05,183,776.63a.6.6,0,0,1,1-.62C214.44,822.65,332.67,992.8,483.38,1070.39Z"/><path class="cls-4" d="M708.74,1020.72s-82.65-554.57-324.33-873.8c-16.25-21.46-49.77-16.57-59.05,8.7C263.33,324.57,127.93,841.52,708.74,1020.72Z"/><path class="cls-5" d="M657.55,981.07a1.48,1.48,0,0,1-2.11,2.08C604,937.66,408.76,719,364.32,312.52a1,1,0,0,1,2-.35C385.15,407.12,465.1,758.12,657.55,981.07Z"/><polygon class="cls-2" points="1367.73 344.42 869.46 295.73 370.37 341.63 361.16 1409.44 860.05 1387.31 1358.45 1420.91 1856.87 1380.47 1865.98 323.9 1367.73 344.42"/><polygon class="cls-9" points="870.96 1363.05 396.96 1384.04 405.69 371.08 879.89 327.55 870.96 1363.05"/><polygon class="cls-10" points="1344.51 1394.94 870.96 1363.05 879.89 327.55 1353.32 373.74 1344.51 1394.94"/><polygon class="cls-11" points="1818.07 1356.59 1344.51 1394.94 1353.32 373.74 1826.71 354.28 1818.07 1356.59"/><rect class="cls-12" x="864.7" y="327.48" width="10.73" height="1035.83" transform="matrix(1, 0.01, -0.01, 1, 7.32, -7.47)"/><g class="cls-13"><polygon class="cls-4" points="1490.4 385.15 1612.54 466.94 1528.23 533.65 1430.24 453.94 1490.4 385.15"/><polygon class="cls-4" points="683.64 536.68 694.66 447.6 873.09 493.73 872.12 606.86 683.64 536.68"/><polygon class="cls-14" points="1702.77 1100.29 1802.31 1058.6 1814.98 1145.01 1728.1 1168.19 1702.77 1100.29"/><polygon class="cls-14" points="767.75 1160.9 866.95 1205.76 966.34 1192.52 957.87 1134.13 867.73 1115.41 767.75 1160.9"/><rect class="cls-14" x="561.39" y="520.17" width="15.95" height="265.14" transform="translate(-213.03 1024.36) rotate(-74.31)"/><polygon class="cls-14" points="464.19 1109.94 448.28 1097.93 623.85 865.36 821.34 853.05 847.65 681.49 668.21 560.9 406.28 637.66 400.67 618.53 671.57 539.14 869.27 672 838.61 871.95 634.24 884.69 464.19 1109.94"/><rect class="cls-14" x="475.44" y="997.05" width="19.94" height="270.48" transform="translate(-689.01 760.22) rotate(-49.22)"/><rect class="cls-14" x="979.01" y="967.96" width="346.7" height="19.94" transform="translate(-231.32 369.89) rotate(-16.6)"/><rect class="cls-14" x="1294.95" y="748.65" width="19.94" height="327.23" transform="translate(-244.24 544.65) rotate(-21.61)"/><rect class="cls-14" x="1499.33" y="1064.14" width="173.36" height="19.94" transform="translate(-281.85 1498.65) rotate(-46.91)"/><rect class="cls-14" x="1505.43" y="824.85" width="15.95" height="266.57" transform="translate(-268.53 776.13) rotate(-26.51)"/><path class="cls-14" d="M1569.33,600.49l-11.43-16.33a7.38,7.38,0,0,0-.85.67c6.39-6.14,93.19-109.35,150-177.23l7.09-8.47,126.71,130.21-14.29,13.9L1715.22,428.86c-12.47,14.9-39.6,47.27-66.76,79.54C1573.22,597.77,1571.15,599.22,1569.33,600.49Z"/><polygon class="cls-14" points="1310.11 703.92 1269.66 566.46 1219.86 441.04 992 452.1 990.95 432.19 1233.84 420.4 1289.47 560.61 1330.04 698.5 1310.11 703.92"/><polygon class="cls-14" points="682.37 540.9 666.48 539.54 675.71 431.06 874.88 474.02 871.51 489.61 690.07 450.47 682.37 540.9"/><polygon class="cls-14" points="1525.63 545.27 1515.79 532.72 1599.34 467.16 1485.08 383.4 1494.51 370.54 1625.73 466.73 1525.63 545.27"/><polygon class="cls-14" points="1738.14 1174.2 1734.03 1158.8 1804.06 1140.12 1793.91 1070.91 1703.85 1108.62 1697.69 1093.91 1806.7 1048.26 1821.9 1151.87 1738.14 1174.2"/><rect class="cls-14" x="1758.4" y="688.69" width="19.94" height="487.23" transform="translate(-183.02 498.24) rotate(-15.26)"/><rect class="cls-14" x="1214.95" y="1261.18" width="356.77" height="19.94" transform="translate(-487.17 1415.69) rotate(-46.77)"/><polygon class="cls-14" points="869.18 1342.88 576.85 1223.65 584.37 1205.19 862.26 1318.52 942.59 1208.2 871.1 1224.63 750.05 1167.03 758.62 1149.03 873.39 1203.64 990.09 1176.83 869.18 1342.88"/><polygon class="cls-14" points="1309.23 1372.96 1093.74 1169.14 1093.37 1168.66 980.02 1023.03 992.61 1013.24 1105.58 1158.39 1320.19 1361.37 1309.23 1372.96"/><path class="cls-4" d="M935.92,692.17l-69-77.65C711.27,558.13,533.94,499.7,396.06,492l1-17.92C537.9,482,717.78,541.36,875.18,598.42l2.13.78,72,81Z"/><path class="cls-4" d="M1806.84,1313.58c-151.28-94.68-322.41-198.93-441.59-239.7l-389.74,140-6.07-16.88,395.62-142.17,3,1c121.14,40.66,294.94,146.49,448.34,242.49Z"/><rect class="cls-4" x="995.1" y="318.18" width="17.94" height="318.46" transform="translate(-105.11 401.25) rotate(-21.5)"/><path class="cls-4" d="M1593.89,715.24c-29.82-120-88.55-202.89-179.54-253.56l8.73-15.67c50.2,27.95,91.7,65.85,123.35,112.64,28.74,42.5,50,92.31,64.87,152.26Z"/><polygon class="cls-4" points="658.29 1199.17 643.4 1189 821.99 919.19 836.88 929.35 658.29 1199.17"/><polygon class="cls-4" points="1643.3 725.86 1125.68 700.76 1126.55 682.83 1640.26 707.75 1829.44 632.1 1836.11 648.75 1643.3 725.86"/><polygon class="cls-4" points="400.91 1300.46 394.59 1283.66 866.57 1106.26 958.91 1116.24 956.99 1134.08 868.89 1124.56 400.91 1300.46"/><path class="cls-4" d="M1010.28,941.44c-202-3.88-391.15-15.77-486.82-117.34l13.06-12.3c90.89,96.49,276.12,107.9,474.1,111.7Z"/><polygon class="cls-4" points="988.89 1365.84 948.84 1113.98 949.5 1111.94 1074.45 725.3 1129.75 633.5 1346.45 518.79 1491.7 361.69 1504.88 373.87 1357.55 533.21 1142.55 647.03 1090.89 732.79 967.24 1115.41 1006.61 1363.02 988.89 1365.84"/><polygon class="cls-4" points="1827.3 1353.8 1579.2 895.57 1114.75 720.87 1031.99 700.37 731.21 675.02 396.77 915.7 386.29 901.13 726.11 656.59 729.42 656.87 1034.92 682.61 1120.09 703.7 1120.58 703.89 1591.79 881.14 1593.38 884.08 1843.07 1345.26 1827.3 1353.8"/><path class="cls-2" d="M516.75,1252a4.43,4.43,0,0,1-1.5-8.59l18.5-6.68a4.42,4.42,0,1,1,3,8.32l-18.49,6.68A4.46,4.46,0,0,1,516.75,1252Zm37-13.36a4.43,4.43,0,0,1-1.5-8.59l18.5-6.68a4.42,4.42,0,0,1,3,8.32l-18.49,6.68A4.46,4.46,0,0,1,553.74,1238.6Zm37-13.36a4.43,4.43,0,0,1-1.5-8.59l18.5-6.68a4.42,4.42,0,0,1,3,8.32L592.24,1225A4.46,4.46,0,0,1,590.73,1225.24Zm289.33-6a4.42,4.42,0,0,1-.72-8.79l19.4-3.22a4.42,4.42,0,1,1,1.44,8.73l-19.39,3.22A4.59,4.59,0,0,1,880.06,1219.24Zm-18.74-.78a4.39,4.39,0,0,1-2.09-.53l-17.33-9.3a4.43,4.43,0,0,1,4.19-7.8l17.33,9.3a4.43,4.43,0,0,1-2.1,8.33Zm57.53-5.66a4.42,4.42,0,0,1-.71-8.79l19.4-3.21a4.42,4.42,0,0,1,1.44,8.73l-19.4,3.21A4.4,4.4,0,0,1,918.85,1212.8Zm-291.13-.92a4.43,4.43,0,0,1-1.5-8.59l18.5-6.68a4.42,4.42,0,1,1,3,8.32l-18.49,6.68A4.46,4.46,0,0,1,627.72,1211.88Zm329.93-5.51a4.42,4.42,0,0,1-.71-8.79l19.4-3.22a4.42,4.42,0,0,1,1.44,8.73l-19.4,3.22A4.49,4.49,0,0,1,957.65,1206.37Zm-131-6.51a4.36,4.36,0,0,1-2.09-.53l-17.33-9.3a4.43,4.43,0,0,1,4.19-7.8l17.32,9.3a4.43,4.43,0,0,1-2.09,8.33Zm-162-1.35a4.42,4.42,0,0,1-1.5-8.58l18.5-6.68a4.42,4.42,0,1,1,3,8.32l-18.49,6.68A4.44,4.44,0,0,1,664.71,1198.51Zm331.2-.94a4.42,4.42,0,0,1-1.28-8.66l18.83-5.68a4.43,4.43,0,0,1,2.55,8.48l-18.83,5.67A4.3,4.3,0,0,1,995.91,1197.57Zm37.65-11.35a4.42,4.42,0,0,1-1.27-8.66l18.83-5.67a4.42,4.42,0,0,1,2.55,8.47l-18.83,5.67A4.36,4.36,0,0,1,1033.56,1186.22Zm-331.86-1.07a4.43,4.43,0,0,1-1.5-8.59l18.5-6.68a4.43,4.43,0,0,1,3,8.33l-18.49,6.68A4.44,4.44,0,0,1,701.7,1185.15Zm90.32-3.89a4.36,4.36,0,0,1-2.09-.53l-17.33-9.3a4.43,4.43,0,0,1,4.19-7.8l17.32,9.3a4.43,4.43,0,0,1-2.09,8.33Zm279.2-6.39a4.42,4.42,0,0,1-1.28-8.66l18.83-5.67a4.42,4.42,0,0,1,2.55,8.47l-18.82,5.67A4.41,4.41,0,0,1,1071.22,1174.87Zm-332.53-3.08a4.43,4.43,0,0,1-1.5-8.59l18.49-6.68a4.43,4.43,0,1,1,3,8.33l-18.49,6.68A4.44,4.44,0,0,1,738.69,1171.79Zm370.13-8.45a4.42,4.42,0,0,1-1.54-8.57l18.45-6.81a4.43,4.43,0,1,1,3.07,8.31l-18.45,6.8A4.37,4.37,0,0,1,1108.82,1163.34Zm36.9-13.6a4.43,4.43,0,0,1-1.54-8.58l18.45-6.8a4.42,4.42,0,1,1,3.07,8.3l-18.45,6.8A4.39,4.39,0,0,1,1145.72,1149.74Zm36.9-13.61a4.43,4.43,0,0,1-1.54-8.58l18.45-6.8a4.42,4.42,0,1,1,3.07,8.3l-18.45,6.81A4.62,4.62,0,0,1,1182.62,1136.13Zm336.9-1.11a4.4,4.4,0,0,1-1.74-.35l-7.75-3.31a4.43,4.43,0,0,1,3.48-8.14l5,2.16,6-5.76a4.42,4.42,0,1,1,6.13,6.37l-8.09,7.8A4.42,4.42,0,0,1,1519.52,1135Zm-25.84-11a4.4,4.4,0,0,1-1.73-.36l-18.09-7.72a4.42,4.42,0,0,1,3.47-8.14l18.09,7.72a4.43,4.43,0,0,1-1.74,8.5Zm-274.16-1.49A4.42,4.42,0,0,1,1218,1114l18.45-6.81a4.43,4.43,0,0,1,3.06,8.31l-18.45,6.8A4.37,4.37,0,0,1,1219.52,1122.52Zm322.26-8.94a4.42,4.42,0,0,1-3.07-7.61l14.16-13.64a4.43,4.43,0,1,1,6.14,6.38l-14.16,13.64A4.45,4.45,0,0,1,1541.78,1113.58Zm-285.36-4.66a4.43,4.43,0,0,1-1.53-8.58l18.45-6.8a4.42,4.42,0,1,1,3.06,8.3l-18.45,6.8A4.35,4.35,0,0,1,1256.42,1108.92Zm201.09-.35a4.47,4.47,0,0,1-1.74-.35l-18.09-7.72a4.43,4.43,0,0,1,3.48-8.14l18.08,7.72a4.42,4.42,0,0,1-1.73,8.49Zm-164.19-13.26a4.43,4.43,0,0,1-1.53-8.58l18.45-6.8a4.42,4.42,0,1,1,3.06,8.3l-18.45,6.81A4.57,4.57,0,0,1,1293.32,1095.31Zm128-2.17a4.39,4.39,0,0,1-1.73-.35l-18.09-7.72a4.42,4.42,0,1,1,3.47-8.14l18.09,7.72a4.42,4.42,0,0,1-1.74,8.49Zm148.78-6.84a4.42,4.42,0,0,1-3.07-7.61l14.16-13.64a4.42,4.42,0,1,1,6.14,6.37l-14.16,13.65A4.45,4.45,0,0,1,1570.11,1086.3Zm-239.89-4.59a4.43,4.43,0,0,1-1.53-8.58l18.45-6.81a4.43,4.43,0,0,1,3.06,8.31l-18.45,6.8A4.35,4.35,0,0,1,1330.22,1081.71Zm54.94-4a4.47,4.47,0,0,1-1.74-.35l-18.09-7.72a4.43,4.43,0,0,1,3.48-8.14l18.08,7.72a4.42,4.42,0,0,1-1.73,8.49ZM1598.43,1059a4.43,4.43,0,0,1-3.07-7.61l14.17-13.64a4.42,4.42,0,0,1,6.14,6.37l-14.17,13.64A4.39,4.39,0,0,1,1598.43,1059Zm28.33-27.28a4.42,4.42,0,0,1-3.07-7.61l14.16-13.64a4.42,4.42,0,1,1,6.14,6.37l-14.16,13.64A4.41,4.41,0,0,1,1626.76,1031.74Zm10.9-30.47a4.41,4.41,0,0,1-4-2.52L1625.23,981a4.42,4.42,0,1,1,8-3.79l8.43,17.76a4.41,4.41,0,0,1-4,6.32Zm-16.87-35.53a4.43,4.43,0,0,1-4-2.52l-8.43-17.77a4.43,4.43,0,0,1,8-3.79l8.43,17.76a4.41,4.41,0,0,1-4,6.32Zm-16.86-35.53a4.43,4.43,0,0,1-4-2.52l-8.43-17.77a4.42,4.42,0,1,1,8-3.79l8.43,17.76a4.41,4.41,0,0,1-4,6.32Zm-17.48-34.87a4.28,4.28,0,0,1-1.6-.3l-18.33-7.12a4.43,4.43,0,1,1,3.21-8.25l18.32,7.13a4.42,4.42,0,0,1-1.6,8.54Zm-36.66-14.25a4.32,4.32,0,0,1-1.6-.3l-18.33-7.13a4.42,4.42,0,1,1,3.21-8.24l18.33,7.12a4.43,4.43,0,0,1-1.61,8.55Zm-36.65-14.25a4.49,4.49,0,0,1-1.6-.3l-18.33-7.13a4.43,4.43,0,1,1,3.21-8.25l18.32,7.13a4.43,4.43,0,0,1-1.6,8.55Zm-36.66-14.25a4.33,4.33,0,0,1-1.6-.31l-18.33-7.12a4.43,4.43,0,1,1,3.21-8.25l18.33,7.13a4.43,4.43,0,0,1-1.61,8.55Zm-36.65-14.26a4.33,4.33,0,0,1-1.61-.3l-18.32-7.13a4.42,4.42,0,0,1,3.2-8.24l18.33,7.12a4.43,4.43,0,0,1-1.6,8.55Zm-36.66-14.25a4.53,4.53,0,0,1-1.6-.3l-18.33-7.13a4.43,4.43,0,1,1,3.21-8.25l18.33,7.13a4.43,4.43,0,0,1-1.61,8.55Zm-36.65-14.25a4.34,4.34,0,0,1-1.61-.31l-18.32-7.12a4.42,4.42,0,0,1,3.2-8.25l18.33,7.13a4.43,4.43,0,0,1-1.6,8.55Zm-36.66-14.26a4.32,4.32,0,0,1-1.6-.3l-18.33-7.12a4.43,4.43,0,1,1,3.21-8.25l18.33,7.13a4.42,4.42,0,0,1-1.61,8.54Zm-36.65-14.25a4.54,4.54,0,0,1-1.61-.3l-18.32-7.13a4.42,4.42,0,0,1,3.2-8.24l18.33,7.12a4.43,4.43,0,0,1-1.6,8.55Zm-36.66-14.25a4.53,4.53,0,0,1-1.6-.3l-18.33-7.13a4.43,4.43,0,1,1,3.21-8.25l18.33,7.13a4.43,4.43,0,0,1-1.61,8.55Zm-36.65-14.26a4.33,4.33,0,0,1-1.61-.3L1200,745.39a4.42,4.42,0,0,1,3.2-8.25l18.33,7.13a4.42,4.42,0,0,1-1.6,8.54Zm-36.66-14.25a4.53,4.53,0,0,1-1.6-.3l-18.33-7.13a4.42,4.42,0,1,1,3.21-8.24l18.32,7.12a4.43,4.43,0,0,1-1.6,8.55Zm-36.65-14.25a4.54,4.54,0,0,1-1.61-.3l-18.33-7.13a4.43,4.43,0,1,1,3.21-8.25l18.33,7.13a4.43,4.43,0,0,1-1.6,8.55Zm-36.66-14.25a4.29,4.29,0,0,1-1.6-.31l-12-4.65a4.44,4.44,0,0,1-2.68-5.24l1.73-6.6a4.42,4.42,0,1,1,8.56,2.23l-.73,2.79,8.29,3.23a4.43,4.43,0,0,1-1.6,8.55Zm-5.27-30.29a4.3,4.3,0,0,1-1.12-.14,4.43,4.43,0,0,1-3.17-5.4l5-19a4.42,4.42,0,0,1,8.56,2.24l-5,19A4.43,4.43,0,0,1,1104.66,679.77Zm20-30a4.42,4.42,0,0,1-2.06-8.34l17.41-9.14a4.42,4.42,0,1,1,4.11,7.83l-17.41,9.14A4.32,4.32,0,0,1,1124.71,649.75Zm34.82-18.29a4.42,4.42,0,0,1-2.06-8.34l17.4-9.14a4.42,4.42,0,1,1,4.12,7.83L1161.58,631A4.35,4.35,0,0,1,1159.53,631.46Zm34.81-18.29a4.42,4.42,0,0,1-2.06-8.34l17.41-9.14a4.42,4.42,0,1,1,4.12,7.83l-17.41,9.14A4.36,4.36,0,0,1,1194.34,613.17Zm34.82-18.29a4.42,4.42,0,0,1-2.06-8.34l17.41-9.14a4.42,4.42,0,0,1,4.11,7.83l-17.4,9.15A4.5,4.5,0,0,1,1229.16,594.88ZM1264,576.59a4.42,4.42,0,0,1-2.06-8.34l17.41-9.14a4.42,4.42,0,0,1,4.11,7.83L1266,576.08A4.32,4.32,0,0,1,1264,576.59Zm34.82-18.29a4.43,4.43,0,0,1-2.07-8.34l17.41-9.14a4.42,4.42,0,1,1,4.12,7.83l-17.41,9.15A4.46,4.46,0,0,1,1298.8,558.3ZM1333.61,540a4.42,4.42,0,0,1-2.06-8.34l17.41-9.14a4.42,4.42,0,1,1,4.12,7.83l-17.41,9.15A4.47,4.47,0,0,1,1333.61,540Zm34.17-19.43a4.42,4.42,0,0,1-2.33-8.18l2.26-1.4a4.42,4.42,0,1,1,4.65,7.52l-2.26,1.4A4.37,4.37,0,0,1,1367.78,520.58Z"/><circle class="cls-15" cx="1364.86" cy="519.22" r="18.24" transform="translate(-24.16 68.61) rotate(-2.85)"/><circle class="cls-16" cx="513.53" cy="1251.58" r="22.78"/><polygon class="cls-14" points="871.51 489.61 992 452.1 990.95 432.19 867.91 472.52 871.51 489.61"/></g><circle class="cls-17" cx="1083.19" cy="668.86" r="60.18" transform="translate(-155.7 961.84) rotate(-45)"/><circle class="cls-5" cx="1083.19" cy="668.86" r="43.12" transform="translate(-32.52 1281.95) rotate(-60.48)"/><path class="cls-18" d="M2057,1433.59c-.19,18.57-16.14,33.62-35.64,33.67l-471.27,1c-19.63,0-35.93-15-36.4-33.64l-22-877.77a36.48,36.48,0,0,1,36.81-37.65l500.24,2.39a37.33,37.33,0,0,1,37.08,37.84Z"/><path class="cls-19" d="M2014.47,610.11c.14-20.05-16.31-36.42-36.76-36.51l-397-1.74c-20.57-.09-36.89,16.19-36.45,36.31l16.32,746.32c.4,18.28,16.57,33,36.11,33l377.2-.6c19.43,0,35.27-14.79,35.4-33Z"/><path class="cls-20" d="M1839,545.2a7,7,0,0,1-7,7l-103.33-.47a7.18,7.18,0,0,1-7.1-7.09h0a6.89,6.89,0,0,1,6.94-7l103.45.48a7.1,7.1,0,0,1,7,7.08Z"/><polygon class="cls-21" points="1929.63 1139.48 1989.15 1080.39 1986.94 1205.06 1929.76 1139.62 1929.63 1139.48"/><path class="cls-22" d="M1900.88,1168l84.13,96.33.85,1-2.42,76.33c-.2,7.32-4.12,14.37-10.32,19.58a35.78,35.78,0,0,1-20,8l-118.87-135Z"/><polygon class="cls-23" points="1971.42 1041.86 1903.48 1109.59 1874.82 1138.17 1808.17 1204.61 1698.61 1080.17 1698.63 1080.15 1765.01 1012.87 1764.82 1012.86 1764.46 1012.67 1764.46 1012.66 1793.39 983.68 1793.66 983.71 1793.73 983.74 1793.78 983.71 1793.83 983.68 1861.8 914.84 1997.28 777.83 1992.17 1002.58 1971.42 1041.86"/><polygon class="cls-24" points="1900.7 1369.4 1697.95 1369.55 1806.01 1262.24 1900.7 1369.4"/><path class="cls-25" d="M1780,1232.74l-137.27,136.85h-12.55a35.4,35.4,0,0,1-22.53-7.88c-6.1-5.06-9.69-11.94-9.95-19.13l-5.7-154.31,78.46-79.54Z"/><polygon class="cls-26" points="1643.94 1078.72 1590.03 1133.65 1585.65 1012.81 1643.89 1078.72 1643.94 1078.72"/><path class="cls-27" d="M1864.12,854.6,1755.17,727.91,1870,609.15l94.74-.61a34.76,34.76,0,0,1,35.44,35.8L1998.33,718Z"/><polygon class="cls-28" points="1654.23 610.54 1811.85 609.52 1728.15 696.48 1654.23 610.54"/><polygon class="cls-29" points="1726.22 757.87 1835.15 884.07 1767.25 953.18 1738.68 982.27 1673.15 1049.93 1585.36 948.94 1585.36 948.92 1582.47 907.54 1582.23 907.32 1726.22 757.87"/><path class="cls-30" d="M1600,611.62l99.18,114.93L1579.44,850.93l-7.53-203.22A35.38,35.38,0,0,1,1600,611.62Z"/><rect class="cls-2" x="1596.93" y="647.73" width="183.85" height="11.09" rx="5.53"/><rect class="cls-2" x="1596.93" y="677.85" width="183.85" height="11.09" rx="5.53"/><rect class="cls-2" x="1596.93" y="707.96" width="183.85" height="11.09" rx="5.53"/><path class="cls-2" d="M1624.39,1262.2a17.71,17.71,0,0,1-15.73-9.31c-16.63-30.33-36.45-70.28-36.45-88.31a52.19,52.19,0,1,1,104.37,0c0,18-19.83,58-36.46,88.31A17.71,17.71,0,0,1,1624.39,1262.2Zm0-141.45a43.87,43.87,0,0,0-43.82,43.83c0,12.5,12.91,43.23,35.43,84.29a9.58,9.58,0,0,0,16.79,0c22.51-41.06,35.43-71.78,35.43-84.29A43.88,43.88,0,0,0,1624.39,1120.75Z"/><path class="cls-2" d="M1624.39,1197.37a31.64,31.64,0,1,1,31.64-31.64A31.68,31.68,0,0,1,1624.39,1197.37Zm0-54.92a23.28,23.28,0,1,0,23.28,23.28A23.31,23.31,0,0,0,1624.39,1142.45Z"/><circle class="cls-2" cx="1624.09" cy="1299.47" r="19.86"/><path class="cls-2" d="M1899.92,706.87a16.61,16.61,0,0,1-14.77-8.75c-15.62-28.48-34.24-66-34.24-82.93a49,49,0,0,1,98,0c0,16.94-18.62,54.45-34.23,82.93A16.64,16.64,0,0,1,1899.92,706.87Zm0-132.83a41.2,41.2,0,0,0-41.16,41.15c0,11.75,12.13,40.6,33.27,79.16a9,9,0,0,0,15.77,0c21.14-38.56,33.27-67.41,33.27-79.16A41.2,41.2,0,0,0,1899.92,574Z"/><path class="cls-2" d="M1899.92,646a29.72,29.72,0,1,1,29.71-29.72A29.75,29.75,0,0,1,1899.92,646Zm0-51.58a21.87,21.87,0,1,0,21.86,21.86A21.89,21.89,0,0,0,1899.92,594.41Z"/><circle class="cls-2" cx="1899.63" cy="741.87" r="18.65" transform="translate(737.98 2418.04) rotate(-76.61)"/><circle class="cls-31" cx="526.61" cy="1008.83" r="95.79" transform="translate(-559.11 667.85) rotate(-45)"/><path class="cls-32" d="M622.23,1001.05H430.83s-7.63,54.49,77.86,200.11c3.73,6.36,10.55,10.82,17.91,10.82s14.2-4.73,17.93-11.08C630,1055.26,622.23,1001.05,622.23,1001.05Z"/><path class="cls-33" d="M528.34,1215.75v.41H526.6a23.69,23.69,0,0,1-20.31-11.66c-50-85.12-68.28-138.91-74.84-169a96.41,96.41,0,0,1-3.28-20.66c-.58-7.13-.14-10.12-.09-10.44l.26-1.52c3.85-51.46,46.68-91.5,98.27-91.5,52.28,0,95.49,40.61,98.41,92.48a44.93,44.93,0,0,1,.16,5.28v.35a98.76,98.76,0,0,1-3.95,27.7c-6.78,30.09-24.32,83.38-73.44,167.07A22.72,22.72,0,0,1,528.34,1215.75Zm-94.9-208.42s0,3.82.27,6.91v.16a91.12,91.12,0,0,0,3.12,19.61l0,.15c6.46,29.71,24.58,82.88,74.22,167.43,3.19,5.45,10,8.83,16.38,8.84l.87,2.78v-2.78c3.14,0,12.4-3.41,15.62-8.9,48.8-83.15,67.6-136,73.88-165.68v-.17c3.14-8.49,3.45-17.31,3.45-26.22l-.31-.39v0a14.6,14.6,0,0,0-.81-4.67l-.36-.16c-2.72-49-43.68-87.3-93-87.3a93.2,93.2,0,0,0-92.94,87.93l-.23,2.49Z"/><g class="cls-34"><path class="cls-2" d="M474.46,950.94a1,1,0,0,1-.71-.32.93.93,0,0,1,.1-1.31,85.86,85.86,0,0,1,55.9-20.69.93.93,0,1,1,0,1.85,84,84,0,0,0-54.69,20.25A.91.91,0,0,1,474.46,950.94Z"/></g><g class="cls-34"><path class="cls-2" d="M444.84,1015.38a.93.93,0,0,1-.93-.93,85.63,85.63,0,0,1,12.84-45.18.93.93,0,0,1,1.58,1,83.74,83.74,0,0,0-12.56,44.2A.93.93,0,0,1,444.84,1015.38Z"/></g><path class="cls-2" d="M473.19,970.21l-6.52-24-19-10.31-2.54,4.63,17,9.18L482.42,1024l.63,2.12H565.8a23.5,23.5,0,0,0,19.92-10.64l3.78-4.83c4-6.19,6.76-13.28,6.76-20.65V970.21ZM590.36,990a33,33,0,0,1-5.62,17.8l-3.44,5.49c-3.39,5.24-9.25,8.9-15.5,8.9H487.11l-4.3-15.95-8.17-30.11H590.36Z"/><path class="cls-2" d="M584.84,1053.07a2.93,2.93,0,0,1-2.67,3H485.08c-1.47,0-2.58-2.08-2.58-3.54V1006.7c0-.51.1-.46.34-.86l4.27,16.33h1.29v27.95h93.77A2.93,2.93,0,0,1,584.84,1053.07Z"/><rect class="cls-2" x="530.93" y="972.99" width="3.54" height="49.84"/><rect class="cls-2" x="499.63" y="972.99" width="3.54" height="49.84"/><rect class="cls-2" x="561.5" y="972.99" width="3.54" height="49.84"/><rect class="cls-2" x="475.99" y="987.65" width="115.28" height="3.17"/><rect class="cls-2" x="481.02" y="1004.99" width="107.36" height="3.17"/><path class="cls-2" d="M497.52,1059.66A11.45,11.45,0,1,0,509,1071.11,11.45,11.45,0,0,0,497.52,1059.66Zm0,18.36a6.91,6.91,0,1,1,6.91-6.91A6.91,6.91,0,0,1,497.52,1078Z"/><path class="cls-2" d="M568.66,1059.66a11.45,11.45,0,1,0,11.44,11.45A11.45,11.45,0,0,0,568.66,1059.66Zm0,18.36a6.91,6.91,0,1,1,6.91-6.91A6.91,6.91,0,0,1,568.66,1078Z"/><path class="cls-2" d="M459.45,940.49a5.38,5.38,0,0,1-5.38,5.38H436.18a5.38,5.38,0,0,1-5.38-5.38h0a5.38,5.38,0,0,1,5.38-5.38h17.89a5.38,5.38,0,0,1,5.38,5.38Z"/><circle class="cls-35" cx="1365.14" cy="270.63" r="104.77" transform="translate(208.48 1044.56) rotate(-45)"/><path class="cls-36" d="M1469.71,262.11H1260.37S1252,321.71,1345.53,481c4.08,6.95,11.54,11.82,19.6,11.83s15.52-5.17,19.6-12.12C1478.22,321.41,1469.71,262.11,1469.71,262.11Z"/><path class="cls-37" d="M1367,496.94v.45h-1.91a25.89,25.89,0,0,1-22.21-12.75c-54.66-93.1-74.68-151.94-81.86-184.88a105.64,105.64,0,0,1-3.59-22.6c-.63-7.79-.15-11.06-.09-11.41l.27-1.67C1261.87,207.8,1308.7,164,1365.14,164c57.17,0,104.43,44.42,107.63,101.15a47.78,47.78,0,0,1,.17,5.78v.38a108.3,108.3,0,0,1-4.32,30.3c-7.42,32.91-26.61,91.2-80.33,182.73A24.82,24.82,0,0,1,1367,496.94Zm-103.8-228s0,4.19.3,7.56v.18a100.33,100.33,0,0,0,3.41,21.45l0,.16c7.07,32.5,26.89,90.65,81.18,183.13,3.49,6,10.94,9.66,17.91,9.66l1,3.05v-3c3.43,0,13.55-3.73,17.08-9.74,53.38-90.94,73.94-148.74,80.81-181.21V300c3.44-9.29,3.77-18.93,3.77-28.68l-.33-.43v0a15.53,15.53,0,0,0-.9-5.1l-.39-.18c-3-53.54-47.77-95.49-101.74-95.49a101.93,101.93,0,0,0-101.65,96.18l-.26,2.72Z"/><path class="cls-2" d="M1407.3,381.33h-81.74a16.69,16.69,0,0,1-16.67-16.67v-91h114.92v91.17A16.53,16.53,0,0,1,1407.3,381.33Zm-94.48-103.75v87.08a12.76,12.76,0,0,0,12.74,12.74h81.74a12.6,12.6,0,0,0,12.58-12.58V277.58Z"/><path class="cls-2" d="M1434.68,274.81H1298a6.5,6.5,0,0,1-5.51-3,5.79,5.79,0,0,1-.51-5.47l.16-.33.26-.25,72.09-69.7.19-.12c4.12-2.47,8.76-2.23,11.31.59l63,69.89a4.76,4.76,0,0,1,.87,5.17A5.68,5.68,0,0,1,1434.68,274.81Zm-139.18-6.54a2.13,2.13,0,0,0,.35,1.43,2.51,2.51,0,0,0,2.19,1.18h136.64a1.75,1.75,0,0,0,1.68-.89.81.81,0,0,0-.2-.93l-63.05-69.9c-1.22-1.34-3.79-1.32-6.18,0Z"/><path class="cls-2" d="M1396.45,378.94h-29V308.66h29Zm-26.1-2.95h23.15V311.61h-23.15Z"/><path class="cls-2" d="M1354.19,324.23H1327V297h27.18Zm-24.23-3h21.28V300H1330Z"/><path class="cls-38" d="M2109.26,976.87s20.74,6.91,34.18,36.54c3.67,8.11,23.62,9.54,25.68,26.16a19.06,19.06,0,0,0,16,16.76c21.29,3.27,54.09,14.32,59.34,51.27,4,28.21-10.38,38.91-25.47,42.61-11.08,2.72-18.45,13.5-16.2,24.69,2.15,10.73-1.06,23.14-19.66,32.95-41.66,22-83.28-52.09-83.28-52.09l-8.52-129.34Z"/><path class="cls-39" d="M1975.35,972.86s51.91,82.1,113.63,98c0,0-12,34.25-21.31,38.17,0,0-75.93-63.36-95.45-124.47Z"/><path class="cls-40" d="M2223.67,1498l1.68,13.83a5.72,5.72,0,0,0,5,5,89.32,89.32,0,0,0,18.51.29,4.9,4.9,0,0,0,4.11-6.35c-1.7-5.34-4.8-13.35-9.28-18.07h-15.34A4.72,4.72,0,0,0,2223.67,1498Z"/><path class="cls-41" d="M2103.51,1336l-2.59,15.23s8.67,87.84,10.21,123a27.49,27.49,0,0,1-4.07,15.65L2092,1514.3l38.32-22.61.77-4.68-6.28-8.62L2133,1380a30.15,30.15,0,0,0-3.44-16.69l-7.92-14.9Z"/><path class="cls-42" d="M2089.46,1517.85h12.23a7.33,7.33,0,0,0,5.84-2.87c3.81-5,11.71-14.61,15.49-14.87,5.08-.34,4.43,17.74,4.43,17.74h2.85l3.61-22.46a13.3,13.3,0,0,0-7-13.9h0s-1.17,8.6-7.47,12.4-25.64,17.42-25.64,17.42a17.42,17.42,0,0,0-5,.13A3.23,3.23,0,0,0,2089.46,1517.85Z"/><path class="cls-43" d="M2156,1343.21s50.8,96.36,58.87,118.36,10.91,40.35,11,42.09c.17,2.72,3.55,5.32,12.86,5.32,4.81,0,7.16-1.92,8.31-3.79a5.41,5.41,0,0,0,.21-5.26c-2.94-5.94-12.27-25-15.72-33.57-4.12-10.29-13-56.93-17.86-73.15s-10.36-33.8-31.54-50C2182.14,1343.21,2167.59,1329,2156,1343.21Z"/><path class="cls-44" d="M2123.91,1185.31c-13.11-55.53,20.09-86.93,20.09-86.93-20.95-20.11-59.11-29.26-59.11-29.26s-36.42,26.63-32.1,47.47c2.53,12.21,25.6,73.16,25.6,73.16S2099.72,1199.84,2123.91,1185.31Z"/><path class="cls-45" d="M2153,1212.8c-5.33-16.06-29.05-27.49-29.05-27.49-24.19,14.53-45.52,4.44-45.52,4.44s-4.78,18.28-1.48,35.27,24,126.18,24,126.18c32.64,6.62,82.83-6.65,82.83-6.65C2163,1307.64,2158.29,1228.87,2153,1212.8Z"/><path class="cls-46" d="M2108.7,1032.43l10.65,47.86c1,4.21-2.82,3.52-7.09,2.72-7-1.32-16-4-19-9.46a5.14,5.14,0,0,1-.54-1.8l-4.58-33.19a6,6,0,0,1,3.49-6.26l8.83-3.92A6,6,0,0,1,2108.7,1032.43Z"/><path class="cls-47" d="M2088.29,988.81s-11.34,7.67-16.22,27.23,3,26.56,11.17,26.13,19.89-2.94,30.09-17S2103.15,979.42,2088.29,988.81Z"/><path class="cls-48" d="M2103,1017.32s4.16-28-19.1-23.73l-4.71,4.89s-11.38-12.82,1.22-22.51,30.08-7.21,39.76,10.43,13.18,30.05,5.07,41-14.2,1.56-14.2,1.56,3.71-9.49.63-13.56-7.07,2.37-7.07,2.37Z"/><path class="cls-49" d="M1975.71,989.76c-.16,1.69,6.14,2.86,8.15-4.36-.55-3.13-1.53-16.86-3.94-19-12.8-11.36-35.62-24.14-35.62-24.14a4.67,4.67,0,0,0,.79,6.47l11.4,7.69c-1.19,3.94-2.93,7.42-3.12,11.91a13.38,13.38,0,0,0,3.36,9.32c2.27,2.59,5.33,5.93,8.08,8.47A13.17,13.17,0,0,0,1975.71,989.76Z"/><path class="cls-50" d="M1969.59,984.13l1.6-.65c-.23-.57-5.69-13.84-8.33-16.59a4.06,4.06,0,0,1-1.46-2.73,2,2,0,0,1,.64-1.27l9.29,5,4.09,6.39,1.45-.93-4.32-6.77-10.74-5.74-.44.36a4,4,0,0,0-1.7,2.88c-.08,1.27.56,2.58,1.94,4C1963.61,970.17,1968.05,980.38,1969.59,984.13Z"/><path class="cls-51" d="M2144,1098.38s59,121.1,80.34,131.68c0,0,21.68,2.27,35,6.28a3.47,3.47,0,0,1-.14,6.67c-9.25,2.52-24.56,4.63-38.59-3,0,0,7.54,11.3,3.14,15.7,0,0-10.05-11.93-13.82-15.7-3.32-3.32-63.72-69.17-89.11-108.88-2.05-3.21-.63-12.74.8-16.27C2124.85,1106.74,2132.13,1093.76,2144,1098.38Z"/><path class="cls-4" d="M2099.33,978.42a43.19,43.19,0,0,1,13.51,7.94,56.46,56.46,0,0,1,19.54,33.17,74.73,74.73,0,0,0,1.71,7.83,17.38,17.38,0,0,0,4,7.17,25.94,25.94,0,0,0,6.63,4.75c2.36,1.26,4.77,2.36,7,3.64a28.39,28.39,0,0,1,6.18,4.58,28.77,28.77,0,0,1,7.71,13.13c.72,2.51,1.27,5.12,2.21,7.69a15.68,15.68,0,0,0,4.62,6.9,19.79,19.79,0,0,0,7.38,3.68,74.26,74.26,0,0,0,7.86,1.64,65.67,65.67,0,0,1,15.06,4.21c9.54,4,18.29,10.79,23,20.1a26,26,0,0,1,2.76,15,22.34,22.34,0,0,1-6.75,13.55,16.67,16.67,0,0,1-6.6,3.81,17.57,17.57,0,0,1-7.67.36c-5.09-.8-10-4-11.89-9l-.4.15c1.87,5.13,6.87,8.63,12.15,9.57a18.39,18.39,0,0,0,8-.22,17.79,17.79,0,0,0,7.1-3.89,23.47,23.47,0,0,0,7.31-14.19,27.43,27.43,0,0,0-2.72-15.81,39.1,39.1,0,0,0-10-12.62,53.69,53.69,0,0,0-13.7-8.38,66.57,66.57,0,0,0-15.41-4.38,72.9,72.9,0,0,1-7.67-1.63,18.19,18.19,0,0,1-6.71-3.35,14.16,14.16,0,0,1-4.09-6.14c-.9-2.39-1.46-5-2.2-7.55a30.53,30.53,0,0,0-14.78-18.69c-2.35-1.31-4.77-2.4-7.07-3.62a24.36,24.36,0,0,1-6.24-4.42,15.74,15.74,0,0,1-3.73-6.51,71.06,71.06,0,0,1-1.76-7.65,59.87,59.87,0,0,0-2.11-7.74,58,58,0,0,0-7.35-14.2,57.34,57.34,0,0,0-11-11.55,43.6,43.6,0,0,0-13.87-7.75Z"/><path class="cls-4" d="M2127.45,1014.66a75.2,75.2,0,0,0,1,10.23,28.46,28.46,0,0,0,3.44,9.81,19.35,19.35,0,0,0,3.33,4.12,35,35,0,0,0,4.12,3.23,79.6,79.6,0,0,1,8.16,6c5,4.33,9.28,9.74,10.6,16.21,1.52,6.41,1.1,13.52,4,20.25a21.84,21.84,0,0,0,6.68,8.38,34.43,34.43,0,0,0,9.29,5c6.62,2.38,13.47,3.23,20,4.71s13,4,17.61,8.76c2.23,2.37,4.19,5.3,4.24,8.57s-1.49,6.45-3,9.47l.38.21c1.69-2.93,3.47-6,3.6-9.68a11.2,11.2,0,0,0-1.2-5.18,20.39,20.39,0,0,0-3-4.38c-4.78-5.3-11.58-8-18.2-9.76s-13.48-2.56-19.7-4.92-12-6.27-14.47-12.22-2.37-12.93-4-19.76a27.32,27.32,0,0,0-4.34-9.65,37,37,0,0,0-7.23-7.59c-5.26-4.58-12.18-6.87-15.69-12.54a27.43,27.43,0,0,1-3.71-9.23,93.47,93.47,0,0,1-1.52-10.06Z"/><rect class="cls-52" x="664.64" y="1406.62" width="501.85" height="46.04"/><rect class="cls-53" x="653.59" y="1406.62" width="14.73" height="57.09"/><path class="cls-54" d="M1161,1143.16c0-11-11.59-20.16-24.16-20.16H663.24c-12.58,0-22.54,9.19-22.54,20.16v249.58c0,11,10,20.32,22.54,20.32h473.57c12.57,0,24.16-9.35,24.16-20.32Z"/><path class="cls-55" d="M1144.4,1153.22c0-10-8.65-18.25-20.51-18.25H677.14c-11.86,0-23.55,8.21-23.55,18.25v228.13c0,10,11.69,19.74,23.55,19.74h446.75c11.86,0,20.51-9.7,20.51-19.74Z"/><path class="cls-56" d="M1325.46,1325l-31.11-96a5.68,5.68,0,0,0-5.56-3.84h-125v227.45h169.09Z"/><path class="cls-57" d="M1333.76,1417.81a10.41,10.41,0,0,0-6-1.66l-130.32,2.51-.57,37,130.2,3.2c4.77,0,8.9-2.3,8.9-5.53V1422A4.64,4.64,0,0,0,1333.76,1417.81Z"/><path class="cls-58" d="M1301.18,1318.34l-18.81-74.59a6.13,6.13,0,0,0-5.66-4.72h-73.54a6.39,6.39,0,0,0-5.84,6.49l1.76,59.71a5.88,5.88,0,0,0,4.91,5.64l90.58,14.65a5.83,5.83,0,0,0,6.6-7.18Z"/><path class="cls-59" d="M1297.42,1238.44l-1,.16a5.86,5.86,0,0,0-4.69,7.29l20.5,76.22a5.84,5.84,0,0,0,6.72,4.22l6.47-1.21Z"/><rect class="cls-60" x="1198.73" y="1330.19" width="34.07" height="13.81" rx="5.53"/><path class="cls-61" d="M1172.45,1158.05a8.36,8.36,0,0,0-5.89,1.8c-1.44,1.34-2.82,3.15-2.82,5.11v60.25H1240S1235.9,1162.68,1172.45,1158.05Z"/><circle class="cls-62" cx="1241.92" cy="1456.74" r="59.26" transform="translate(-217.31 217.74) rotate(-9.22)"/><circle class="cls-63" cx="1241.92" cy="1456.74" r="48.12" transform="translate(-100.14 91.7) rotate(-4.07)"/><path class="cls-64" d="M1282.35,1474.25a.93.93,0,0,1-.85-1.28,41.7,41.7,0,0,0-58.76-52.62.92.92,0,1,1-.9-1.61,43.54,43.54,0,0,1,61.35,54.94A.9.9,0,0,1,1282.35,1474.25Z"/><circle class="cls-65" cx="1241.92" cy="1456.74" r="22.07" transform="translate(-579.19 2046.66) rotate(-67.5)"/><circle class="cls-66" cx="876.57" cy="1456.74" r="59.26" transform="translate(-171.42 118.02) rotate(-7.02)"/><circle class="cls-67" cx="876.57" cy="1456.74" r="48.12" transform="translate(-101.06 65.8) rotate(-4.07)"/><path class="cls-68" d="M917,1474.25a.94.94,0,0,1-.36-.08.91.91,0,0,1-.49-1.2,41.7,41.7,0,0,0-58.76-52.62.92.92,0,0,1-.9-1.61,43.55,43.55,0,0,1,61.36,54.94A.92.92,0,0,1,917,1474.25Z"/><circle class="cls-69" cx="876.57" cy="1456.74" r="22.07" transform="translate(-804.73 1709.11) rotate(-67.5)"/><circle class="cls-70" cx="741.01" cy="1456.74" r="59.26" transform="translate(-117.63 66.08) rotate(-4.73)"/><circle class="cls-71" cx="741.01" cy="1456.74" r="48.12" transform="translate(-139.94 80.11) rotate(-5.65)"/><path class="cls-72" d="M781.43,1474.25a.94.94,0,0,1-.36-.08.91.91,0,0,1-.49-1.2,41.7,41.7,0,0,0-58.76-52.62.92.92,0,1,1-.9-1.61,43.55,43.55,0,0,1,61.36,54.94A.92.92,0,0,1,781.43,1474.25Z"/><circle class="cls-73" cx="741.01" cy="1456.74" r="22.07" transform="translate(-888.42 1583.87) rotate(-67.5)"/><rect class="cls-74" x="1306.47" y="1382.68" width="26.7" height="32.23" rx="5.85"/><path class="cls-75" d="M1318.44,1382.68v30.38h-4.81c-3.23,0-7.16-3.63-7.16-6.85V1387c0-3.23,3.93-4.28,7.16-4.28Z"/><path class="cls-76" d="M1173.87,1375.31a.93.93,0,0,1-.93-.92V1239a.93.93,0,1,1,1.85,0v135.36A.92.92,0,0,1,1173.87,1375.31Z"/><path class="cls-2" d="M1226,1218.84a.91.91,0,0,1-.87-.62c-5.09-14.74-15.1-34.18-33.92-43-11.19-5.26-20.27-4.26-20.36-4.25a.92.92,0,0,1-.21-1.83c.39,0,9.69-1.07,21.36,4.41,19.39,9.12,29.67,29,34.87,44.09a.92.92,0,0,1-.57,1.17A.79.79,0,0,1,1226,1218.84Z"/><path class="cls-77" d="M877.44,1392.09a23,23,0,0,0,23.46-23V1266.63a24.55,24.55,0,0,0-24.28-24.56c-40.39-.44-123.7-.46-191.87,5.28a18.44,18.44,0,0,0-16.87,17.74l-6.37,99a23.45,23.45,0,0,0,23,24.3Z"/><path class="cls-78" d="M877.51,1277.71c.17,8.72-.09,22.55-.3,31.49a7.9,7.9,0,0,1-8.81,7.65l-33.25-3.9a7.9,7.9,0,0,1-6.89-9l4.08-27.22a7.9,7.9,0,0,1,7.81-6.73h29.46A7.89,7.89,0,0,1,877.51,1277.71Z"/><path class="cls-79" d="M790.63,1329.3l-27.73,3a6.26,6.26,0,0,1-6.91-6.67l6.07-82.49c11.62-.37,23.09-.64,34.15-.83v80.78A6.25,6.25,0,0,1,790.63,1329.3Z"/><path class="cls-2" d="M779.26,1315a2.78,2.78,0,0,1-2.78,2.63h-.16a2.77,2.77,0,0,1-2.62-2.94l4.18-72,5.59-.13Z"/><path class="cls-80" d="M862.13,1303.7a.93.93,0,0,0,.93-.87l1.44-22.68a.94.94,0,0,0-.87-1,.91.91,0,0,0-1,.87l-1.44,22.68a.94.94,0,0,0,.87,1Z"/><path class="cls-81" d="M859.17,1303.7a.94.94,0,0,0,.93-.9l.75-23.11a.91.91,0,0,0-.89-1,.88.88,0,0,0-1,.9l-.75,23.11a.94.94,0,0,0,.9,1Z"/><path class="cls-82" d="M855.16,1303.7a.94.94,0,0,1-.89-1c.37-7.76,1.07-22.57,1.09-23.07a.93.93,0,0,1,1.86,0c0,.38-.91,19.35-1.09,23.15a.93.93,0,0,1-.93.89Zm.18-24h0Z"/><path class="cls-83" d="M849,1304.63a1.86,1.86,0,0,0,1.86-1.8c.79-22.39.65-22.89.56-23.23a1.86,1.86,0,0,0-3.64.74c.06,1.34-.36,14.37-.64,22.36a1.87,1.87,0,0,0,1.8,1.93Z"/><path class="cls-84" d="M845,1303.7a.93.93,0,0,0,.93-.93v-22.68a.93.93,0,0,0-1.86,0v22.68A.93.93,0,0,0,845,1303.7Z"/><path class="cls-85" d="M841.72,1303.7a.94.94,0,0,0,.93-.91c.18-7.88.59-20.75,1-22.3a.92.92,0,0,0,0-1,.93.93,0,0,0-1.29-.27c-.5.33-1,.65-1.5,23.49a.94.94,0,0,0,.91,1Z"/><path class="cls-86" d="M867.13,1305.76A1.86,1.86,0,0,0,869,1304l1.24-23.81a1.86,1.86,0,1,0-3.71-.2l-1.25,23.82a1.86,1.86,0,0,0,1.77,2Z"/><path class="cls-87" d="M1113.64,1400.69a23,23,0,0,0,23.47-23V1275.22a24.55,24.55,0,0,0-24.28-24.56c-40.39-.44-123.71-.46-191.87,5.29a18.44,18.44,0,0,0-16.88,17.73l-6.37,99a23.45,23.45,0,0,0,23,24.29Z"/><path class="cls-78" d="M1113.71,1286.31c.17,8.71-.09,22.54-.3,31.48a7.89,7.89,0,0,1-8.81,7.65l-33.24-3.89a7.9,7.9,0,0,1-6.89-9l4.08-27.22a7.9,7.9,0,0,1,7.81-6.72h29.46A7.88,7.88,0,0,1,1113.71,1286.31Z"/><path class="cls-79" d="M1026.83,1337.89l-27.73,3a6.26,6.26,0,0,1-6.9-6.68l6.06-82.49c11.62-.37,23.09-.64,34.16-.83v80.79A6.25,6.25,0,0,1,1026.83,1337.89Z"/><path class="cls-2" d="M1015.47,1323.6a2.79,2.79,0,0,1-2.78,2.62h-.17a2.79,2.79,0,0,1-2.62-3l4.18-72,5.6-.13Z"/><path class="cls-88" d="M1098.34,1312.29a.93.93,0,0,0,.92-.87l1.44-22.68a.92.92,0,0,0-.87-1,.9.9,0,0,0-1,.87l-1.44,22.67a.92.92,0,0,0,.87,1Z"/><path class="cls-89" d="M1095.38,1312.29a.93.93,0,0,0,.93-.9l.75-23.11a.94.94,0,0,0-.9-1,.88.88,0,0,0-1,.9l-.75,23.11a.92.92,0,0,0,.9,1Z"/><path class="cls-90" d="M1091.36,1312.29a.92.92,0,0,1-.88-1c.37-7.76,1.07-22.57,1.08-23.08a.93.93,0,0,1,1.86,0c0,.38-.9,19.36-1.09,23.16a.92.92,0,0,1-.92.88Zm.18-24h0Z"/><path class="cls-91" d="M1085.21,1313.22a1.85,1.85,0,0,0,1.85-1.79c.79-22.39.65-22.9.56-23.23a1.86,1.86,0,0,0-3.64.73c.06,1.35-.35,14.38-.63,22.37a1.85,1.85,0,0,0,1.79,1.92Z"/><path class="cls-92" d="M1081.18,1312.29a.93.93,0,0,0,.93-.93v-22.67a.93.93,0,0,0-1.86,0v22.67A.92.92,0,0,0,1081.18,1312.29Z"/><path class="cls-93" d="M1077.92,1312.29a.92.92,0,0,0,.93-.91c.18-7.88.6-20.75,1-22.29a1,1,0,0,0,0-1,.92.92,0,0,0-1.29-.26c-.51.33-1,.64-1.51,23.48a.93.93,0,0,0,.91,1Z"/><path class="cls-94" d="M1103.34,1314.36a1.87,1.87,0,0,0,1.86-1.77l1.24-23.81a1.86,1.86,0,0,0-3.72-.19l-1.24,23.81a1.86,1.86,0,0,0,1.76,1.95Z"/><path class="cls-95" d="M840,1228.36v-71.95a17.23,17.23,0,0,0-17-17.24c-28.36-.31-86.87-.33-134.74,3.71a13,13,0,0,0-11.86,12.45l-4.47,69.56A16.47,16.47,0,0,0,688.07,1242l135.49,2.58A16.18,16.18,0,0,0,840,1228.36Z"/><path class="cls-78" d="M823.61,1164.2c.12,6.12-.06,15.83-.21,22.11a5.54,5.54,0,0,1-6.19,5.37L793.87,1189a5.56,5.56,0,0,1-4.84-6.33l2.87-19.12a5.53,5.53,0,0,1,5.48-4.72h20.69A5.53,5.53,0,0,1,823.61,1164.2Z"/><path class="cls-79" d="M762.6,1200.43l-19.47,2.1a4.39,4.39,0,0,1-4.85-4.69l4.25-57.93c8.17-.26,16.22-.45,24-.58v56.73A4.4,4.4,0,0,1,762.6,1200.43Z"/><path class="cls-2" d="M754.62,1190.39a2,2,0,0,1-2,1.84h-.11a2,2,0,0,1-1.84-2.07l2.93-50.56,3.93-.09Z"/><path class="cls-96" d="M812.81,1182.45a.66.66,0,0,0,.66-.61l1-15.93a.66.66,0,0,0-1.31-.08l-1,15.92a.67.67,0,0,0,.61.7Z"/><path class="cls-97" d="M810.74,1182.45a.65.65,0,0,0,.65-.63l.53-16.23a.66.66,0,0,0-.63-.68.62.62,0,0,0-.68.63l-.53,16.23a.66.66,0,0,0,.63.68Z"/><path class="cls-98" d="M807.92,1182.45a.66.66,0,0,1-.62-.69c.26-5.45.75-15.85.76-16.2a.65.65,0,1,1,1.3,0c0,.27-.63,13.6-.76,16.27a.66.66,0,0,1-.65.62Zm.12-16.89h0Z"/><path class="cls-99" d="M803.6,1183.1a1.3,1.3,0,0,0,1.3-1.26c.55-15.72.45-16.08.39-16.31a1.3,1.3,0,0,0-2.55.51c0,1-.25,10.1-.45,15.71a1.3,1.3,0,0,0,1.26,1.35Z"/><path class="cls-100" d="M800.77,1182.45a.65.65,0,0,0,.65-.66v-15.92a.66.66,0,0,0-1.31,0v15.92A.65.65,0,0,0,800.77,1182.45Z"/><path class="cls-101" d="M798.48,1182.45a.65.65,0,0,0,.65-.64c.13-5.53.42-14.57.68-15.66a.67.67,0,0,0,0-.68.66.66,0,0,0-.91-.18c-.35.23-.69.45-1,16.49a.65.65,0,0,0,.63.67Z"/><path class="cls-102" d="M816.33,1183.9a1.31,1.31,0,0,0,1.3-1.24l.87-16.72a1.31,1.31,0,0,0-1.23-1.38,1.33,1.33,0,0,0-1.38,1.24l-.87,16.72a1.32,1.32,0,0,0,1.24,1.38Z"/><path class="cls-103" d="M986.3,1230.51v-72c0-9.45-6.57-17.14-14.73-17.25-24.52-.31-75.08-.32-116.46,3.71-5.64.55-10,5.91-10.24,12.46L841,1227c-.29,9.2,6,16.88,14,17.06l117.1,2.57C979.88,1246.84,986.3,1239.56,986.3,1230.51Z"/><path class="cls-78" d="M972.1,1166.34c.1,6.13-.05,15.84-.18,22.11-.07,3.27-2.55,5.76-5.35,5.38l-20.17-2.74c-2.69-.36-4.59-3.23-4.18-6.33l2.47-19.11a5.08,5.08,0,0,1,4.74-4.73h17.88C969.92,1160.92,972.05,1163.33,972.1,1166.34Z"/><path class="cls-79" d="M919.37,1202.57l-16.83,2.1c-2.35.3-4.36-2-4.19-4.68l3.68-57.93c7.06-.26,14-.45,20.73-.59v56.74A4.2,4.2,0,0,1,919.37,1202.57Z"/><path class="cls-2" d="M912.48,1192.53a1.83,1.83,0,0,1-1.69,1.85h-.1a1.86,1.86,0,0,1-1.59-2.06l2.53-50.57,3.4-.09Z"/><path class="cls-104" d="M962.77,1184.59a.6.6,0,0,0,.56-.61l.88-15.92a.64.64,0,0,0-.53-.7.59.59,0,0,0-.6.61l-.87,15.93a.62.62,0,0,0,.52.69Z"/><path class="cls-105" d="M961,1184.59a.6.6,0,0,0,.57-.63l.45-16.23a.61.61,0,0,0-.54-.67c-.36,0-.57.27-.58.63l-.46,16.23a.61.61,0,0,0,.54.67Z"/><path class="cls-106" d="M958.54,1184.59a.62.62,0,0,1-.54-.68c.22-5.45.65-15.85.66-16.21a.61.61,0,0,1,.56-.64.62.62,0,0,1,.57.65c0,.27-.55,13.59-.66,16.26a.62.62,0,0,1-.57.62Zm.11-16.88h0Z"/><path class="cls-107" d="M954.8,1185.25a1.22,1.22,0,0,0,1.13-1.26c.48-15.73.39-16.08.34-16.32a1.13,1.13,0,0,0-1.39-.92,1.32,1.32,0,0,0-.82,1.44c0,.94-.22,10.09-.39,15.7a1.24,1.24,0,0,0,1.09,1.35Z"/><path class="cls-108" d="M952.36,1184.59a.61.61,0,0,0,.56-.65V1168a.57.57,0,1,0-1.13,0v15.93A.61.61,0,0,0,952.36,1184.59Z"/><path class="cls-109" d="M950.38,1184.59a.61.61,0,0,0,.57-.63c.1-5.54.36-14.58.58-15.66a.74.74,0,0,0,0-.68.52.52,0,0,0-.78-.19c-.31.24-.6.46-.91,16.49a.61.61,0,0,0,.55.67Z"/><path class="cls-110" d="M965.81,1186a1.21,1.21,0,0,0,1.12-1.24l.76-16.72a1.25,1.25,0,0,0-1.07-1.37,1.22,1.22,0,0,0-1.19,1.24l-.75,16.72a1.25,1.25,0,0,0,1.07,1.37Z"/><path class="cls-111" d="M1132.28,1234.94V1163c0-9.45-6.57-17.15-14.73-17.25-24.52-.31-75.08-.32-116.46,3.71-5.64.55-10,5.91-10.24,12.46L987,1231.48c-.28,9.2,6,16.88,14,17.06l117.1,2.57C1125.86,1251.28,1132.28,1244,1132.28,1234.94Z"/><path class="cls-78" d="M1118.08,1170.78c.1,6.12,0,15.84-.18,22.11-.07,3.27-2.55,5.76-5.35,5.38l-20.17-2.74c-2.69-.36-4.59-3.23-4.19-6.33l2.48-19.11a5.08,5.08,0,0,1,4.74-4.73h17.88C1115.9,1165.36,1118,1167.77,1118.08,1170.78Z"/><path class="cls-79" d="M1065.35,1207l-16.83,2.1c-2.35.3-4.36-1.95-4.19-4.68l3.68-57.94c7.06-.25,14-.44,20.73-.58v56.74A4.2,4.2,0,0,1,1065.35,1207Z"/><path class="cls-2" d="M1058.45,1197a1.82,1.82,0,0,1-1.68,1.85h-.1a1.87,1.87,0,0,1-1.59-2.07l2.53-50.56,3.4-.09Z"/><path class="cls-112" d="M1108.71,1189h0a.6.6,0,0,0,.56-.61l.88-15.93a.64.64,0,0,0-.53-.69.59.59,0,0,0-.6.61l-.87,15.93A.62.62,0,0,0,1108.71,1189Z"/><path class="cls-113" d="M1107,1189a.61.61,0,0,0,.57-.63l.45-16.23a.61.61,0,0,0-.54-.67c-.36,0-.57.27-.58.63l-.46,16.23a.61.61,0,0,0,.54.67Z"/><path class="cls-114" d="M1104.52,1189a.62.62,0,0,1-.54-.68c.22-5.45.65-15.85.66-16.21a.61.61,0,0,1,.56-.64.62.62,0,0,1,.57.65c0,.27-.55,13.59-.66,16.26a.62.62,0,0,1-.57.62Zm.11-16.88h0Z"/><path class="cls-115" d="M1100.74,1189.68h0a1.22,1.22,0,0,0,1.13-1.26c.48-15.73.39-16.08.34-16.32a1.13,1.13,0,0,0-1.39-.92,1.32,1.32,0,0,0-.82,1.44c0,.94-.22,10.09-.39,15.7A1.24,1.24,0,0,0,1100.74,1189.68Z"/><path class="cls-116" d="M1098.34,1189a.61.61,0,0,0,.56-.65v-15.93a.57.57,0,1,0-1.13,0v15.93A.61.61,0,0,0,1098.34,1189Z"/><path class="cls-117" d="M1096.36,1189a.61.61,0,0,0,.57-.64c.1-5.53.36-14.57.58-15.65a.74.74,0,0,0,0-.68.52.52,0,0,0-.78-.19c-.31.23-.6.46-.91,16.49a.62.62,0,0,0,.55.67Z"/><path class="cls-118" d="M1111.73,1190.48h.06a1.21,1.21,0,0,0,1.12-1.24l.76-16.72a1.25,1.25,0,0,0-1.07-1.37,1.22,1.22,0,0,0-1.19,1.24l-.75,16.72A1.25,1.25,0,0,0,1111.73,1190.48Z"/></g></svg>