<svg xmlns="http://www.w3.org/2000/svg" viewBox="0 0 435.99 317.21"><defs><style>.cls-1{fill:#f5f5f5;}.cls-2{fill:#27debf;}.cls-12,.cls-3{fill:#fff;}.cls-4{fill:#ebebeb;}.cls-5{fill:#e0e0e0;}.cls-6{fill:#f0f0f0;}.cls-7{fill:#455a64;}.cls-8{fill:#263238;}.cls-9{fill:#37474f;}.cls-10,.cls-15{opacity:0.1;}.cls-11,.cls-16{opacity:0.2;}.cls-12{opacity:0.3;}.cls-13{fill:#ffa8a7;}.cls-14{fill:#f28f8f;}</style></defs><title>Delivery</title><g id="Floor"><path class="cls-1" d="M96.53,390.78c85,44.4,222.75,44.4,307.73,0s85-116.36,0-160.76-222.75-44.39-307.73,0S11.56,346.39,96.53,390.78Z" transform="translate(-32.01 -106.87)"/></g><g id="Plants"><path class="cls-2" d="M64.81,316.32a86.05,86.05,0,0,0,4.3-20.22c.78-10.55-4.33-26.7-13.69-32.1S41,265.27,44.13,271,57.86,293,58,307Z" transform="translate(-32.01 -106.87)"/><path class="cls-3" d="M61.54,316.09h-.08a.5.5,0,0,1-.41-.57l0-.13c.79-4.76,1.86-11.27.45-23.18-1.59-13.4-6-19.6-10-23.9a.5.5,0,0,1,0-.71.51.51,0,0,1,.71,0c4.18,4.42,8.68,10.78,10.3,24.47,1.43,12.05.34,18.65-.45,23.46l0,.13A.5.5,0,0,1,61.54,316.09Z" transform="translate(-32.01 -106.87)"/><path class="cls-2" d="M59.48,322.32c-1-4.94-4.66-10.5-11.69-13.76s-14.25-5.18-15.56-9.39,3.14-9.07,12.29-7,19,15.64,18.44,24.8Z" transform="translate(-32.01 -106.87)"/><path class="cls-3" d="M61.54,319.63a.5.5,0,0,1-.49-.43c-1.87-12.4-12.39-21.86-20.66-22.6a.5.5,0,0,1,.09-1c8.64.77,19.62,10.6,21.56,23.45a.5.5,0,0,1-.42.57Z" transform="translate(-32.01 -106.87)"/><path class="cls-2" d="M402.21,227.34s-4.66-10.32-3.9-19.17c.78-9,4-17.51,11.68-23.46s13.62-3.26,14.89-1.08,1.29,6.47-4.42,11.14-11.95,17.42-10.19,30.16l-2.62,7.45Z" transform="translate(-32.01 -106.87)"/><path class="cls-3" d="M405,228.32a.51.51,0,0,1-.44-.26c-1.95-3.59-2.24-18.46.9-26.77,3.81-10.12,10.7-15.84,15.87-17.82a.49.49,0,0,1,.64.29.51.51,0,0,1-.28.65c-5,1.9-11.6,7.42-15.3,17.23-3,7.94-2.77,22.58-.95,25.94a.51.51,0,0,1-.2.68A.53.53,0,0,1,405,228.32Z" transform="translate(-32.01 -106.87)"/><path class="cls-2" d="M424.28,248.86c.78-5.14.9-8.3,5.69-11.45s9.06-5.37,9.4-9.87-2.62-9.55-2.47-13.47,2.56-5.76,7.62-9.21,10.25-9.32,5.27-13.51-12.38-.3-15.75,2.63-6.12,4-11.3,2.62-10.25,2.21-9,8.82.59,9.61-3.58,9.38-10.28,4.1-5.38,14.07Z" transform="translate(-32.01 -106.87)"/><path class="cls-3" d="M413.73,238.55h-.06a.5.5,0,0,1-.44-.55c2.37-20,22.17-41.37,31.18-44.49a.5.5,0,0,1,.63.31.51.51,0,0,1-.31.64c-8.8,3-28.17,24.06-30.51,43.66A.5.5,0,0,1,413.73,238.55Z" transform="translate(-32.01 -106.87)"/><path class="cls-3" d="M422.3,216.51a.5.5,0,0,1-.48-.35A84.3,84.3,0,0,1,419,202.43a.5.5,0,0,1,.44-.55.5.5,0,0,1,.55.44,82.73,82.73,0,0,0,2.82,13.55.5.5,0,0,1-.34.62Z" transform="translate(-32.01 -106.87)"/><path class="cls-3" d="M416.71,227.31a.5.5,0,0,1-.2-1,26.11,26.11,0,0,1,17.69-1,.5.5,0,1,1-.33.95,25.52,25.52,0,0,0-17,1A.71.71,0,0,1,416.71,227.31Z" transform="translate(-32.01 -106.87)"/></g><g id="Boxes"><polygon class="cls-1" points="250.88 21.11 226.51 7.04 202.15 21.11 226.51 35.18 250.88 21.11"/><polygon class="cls-4" points="226.51 63.32 250.88 49.25 250.88 21.11 226.51 35.18 226.51 63.32"/><path class="cls-3" d="M263.22,160.85a.75.75,0,0,1-.37-.09,1.13,1.13,0,0,1-.46-1v-3h0v-.22l.15,0,2.34-1.37v3.33a2.68,2.68,0,0,1-1.15,2.18A1,1,0,0,1,263.22,160.85Zm-.45-3.87v2.76a.77.77,0,0,0,.27.69.49.49,0,0,0,.5-.06,2.34,2.34,0,0,0,1-1.85v-.24h-.87l-.17-1.17Zm1.2.92h.54v-2.05l-1.4.81.69.13Z" transform="translate(-32.01 -106.87)"/><path class="cls-3" d="M263.64,163.23a.19.19,0,0,1-.19-.19v-2.5a.18.18,0,0,1,.19-.19.19.19,0,0,1,.19.19V163A.2.2,0,0,1,263.64,163.23Z" transform="translate(-32.01 -106.87)"/><path class="cls-3" d="M262.55,163.86a.18.18,0,0,1-.16-.1.17.17,0,0,1,.07-.25l2.17-1.26a.19.19,0,0,1,.26.07.2.2,0,0,1-.07.26l-2.18,1.25Z" transform="translate(-32.01 -106.87)"/><path class="cls-3" d="M270.31,159.54a.36.36,0,0,1-.21,0,.5.5,0,0,1-.22-.45v-.51a.18.18,0,0,1,.18-.19.18.18,0,0,1,.19.19V159c0,.08,0,.12,0,.12s.06,0,.12,0a1.07,1.07,0,0,0,.35-.84V155a.18.18,0,0,1,.19-.18.18.18,0,0,1,.18.18v3.34a1.45,1.45,0,0,1-.53,1.17A.67.67,0,0,1,270.31,159.54Z" transform="translate(-32.01 -106.87)"/><path class="cls-3" d="M268.33,156.63v-.32a5.33,5.33,0,0,1,2.4-4.16,1.59,1.59,0,0,1,2.59,1.49v.11Zm3.52-4.44a1.82,1.82,0,0,0-.93.29,5,5,0,0,0-2.2,3.49l4.22-2.43a1.38,1.38,0,0,0-.58-1.22A1,1,0,0,0,271.85,152.19Z" transform="translate(-32.01 -106.87)"/><path class="cls-3" d="M277,155.7a.19.19,0,0,1-.19-.18v-6.38a.19.19,0,1,1,.38,0v6.38A.19.19,0,0,1,277,155.7Z" transform="translate(-32.01 -106.87)"/><path class="cls-3" d="M276.49,150.59h-.07a.19.19,0,0,1-.1-.25l.67-1.54.74.86a.18.18,0,1,1-.28.24l-.36-.4-.43,1A.18.18,0,0,1,276.49,150.59Z" transform="translate(-32.01 -106.87)"/><path class="cls-3" d="M278.77,154.72a.19.19,0,0,1-.18-.19v-6.38a.19.19,0,1,1,.37,0v6.38A.19.19,0,0,1,278.77,154.72Z" transform="translate(-32.01 -106.87)"/><path class="cls-3" d="M278.22,149.6h-.07a.19.19,0,0,1-.1-.25l.67-1.54.74.86a.19.19,0,0,1,0,.26.2.2,0,0,1-.27,0l-.35-.41-.43,1A.19.19,0,0,1,278.22,149.6Z" transform="translate(-32.01 -106.87)"/><polygon class="cls-5" points="226.51 63.32 202.14 49.25 202.15 21.11 226.51 35.18 226.51 63.32"/><polygon class="cls-3" points="215.65 28.91 240.01 14.83 237.25 13.23 212.89 27.31 215.65 28.91"/><path class="cls-2" d="M237.85,144.11l8.73,5a3.86,3.86,0,0,1,1.73,3v5.38c0,1.11-.78,1.56-1.73,1l-8.73-5a3.85,3.85,0,0,1-1.73-3v-5.38C236.12,144,236.9,143.56,237.85,144.11Z" transform="translate(-32.01 -106.87)"/><polygon class="cls-2" points="205.17 38.59 205.5 38.78 205.5 44.76 205.17 44.56 205.17 38.59"/><polygon class="cls-2" points="206.52 39.37 207.09 39.7 207.09 45.68 206.52 45.34 206.52 39.37"/><polygon class="cls-2" points="207.87 40.14 208.2 40.34 208.2 46.31 207.87 46.12 207.87 40.14"/><polygon class="cls-2" points="208.89 40.72 209.55 41.11 209.55 47.09 208.89 46.7 208.89 40.72"/><polygon class="cls-2" points="210.57 41.7 210.9 41.89 210.9 47.87 210.57 47.68 210.57 41.7"/><polygon class="cls-2" points="211.54 42.25 212.25 42.67 212.25 48.65 211.54 48.23 211.54 42.25"/><polygon class="cls-2" points="213.26 43.26 213.6 43.45 213.6 49.43 213.26 49.23 213.26 43.26"/><polygon class="cls-2" points="214.03 43.7 214.2 43.79 214.2 49.77 214.03 49.67 214.03 43.7"/><polygon class="cls-2" points="212.65 42.93 212.82 43.03 212.82 49.01 212.65 48.91 212.65 42.93"/><polygon class="cls-2" points="209.93 41.34 210.1 41.44 210.1 47.41 209.93 47.32 209.93 41.34"/><polygon class="cls-2" points="208.44 40.49 208.61 40.58 208.61 46.56 208.44 46.46 208.44 40.49"/><polygon class="cls-2" points="207.38 39.9 207.54 39.99 207.54 45.97 207.38 45.87 207.38 39.9"/><polygon class="cls-2" points="205.93 39.02 206.09 39.11 206.09 45.09 205.93 44.99 205.93 39.02"/><polygon class="cls-2" points="214.61 44.04 214.95 44.23 214.94 50.2 214.61 50.01 214.61 44.04"/><polygon class="cls-1" points="218.39 16.42 189.95 0 161.52 16.42 189.95 32.83 218.39 16.42"/><polygon class="cls-3" points="177.77 25.8 206.2 9.38 203.44 7.79 175.01 24.2 177.77 25.8"/><polygon class="cls-4" points="189.95 84.43 218.39 68.01 218.39 16.42 189.95 32.83 189.95 84.43"/><path class="cls-3" d="M226.66,182a.69.69,0,0,1-.37-.1,1.1,1.1,0,0,1-.46-1v-3h0v-.22l.16,0,2.33-1.37v3.33a2.7,2.7,0,0,1-1.15,2.18A1,1,0,0,1,226.66,182Zm-.45-3.87v2.76a.77.77,0,0,0,.27.69.49.49,0,0,0,.5-.06,2.34,2.34,0,0,0,1-1.85v-.24h-.87l-.17-1.17Zm1.2.92H228V177l-1.4.82.69.12Z" transform="translate(-32.01 -106.87)"/><path class="cls-3" d="M227.08,184.34a.19.19,0,0,1-.19-.19v-2.51a.18.18,0,0,1,.19-.18.19.19,0,0,1,.19.18v2.51A.2.2,0,0,1,227.08,184.34Z" transform="translate(-32.01 -106.87)"/><path class="cls-3" d="M226,185a.18.18,0,0,1-.16-.09.2.2,0,0,1,.07-.26l2.17-1.25a.19.19,0,0,1,.26.07.18.18,0,0,1-.07.25l-2.18,1.26A.15.15,0,0,1,226,185Z" transform="translate(-32.01 -106.87)"/><path class="cls-3" d="M233.75,180.65a.46.46,0,0,1-.21-.05.5.5,0,0,1-.22-.45v-.52a.18.18,0,0,1,.19-.18.18.18,0,0,1,.18.18v.52c0,.07,0,.11,0,.12s.06,0,.12,0a1.09,1.09,0,0,0,.35-.85v-3.33a.19.19,0,0,1,.19-.19.2.2,0,0,1,.19.19v3.33a1.41,1.41,0,0,1-.54,1.17A.57.57,0,0,1,233.75,180.65Z" transform="translate(-32.01 -106.87)"/><path class="cls-3" d="M231.77,177.74v-.33a5.32,5.32,0,0,1,2.4-4.15,1.59,1.59,0,0,1,2.59,1.49v.11Zm3.52-4.45a1.92,1.92,0,0,0-.93.29,5,5,0,0,0-2.2,3.5l4.22-2.43a1.41,1.41,0,0,0-.58-1.23A1.07,1.07,0,0,0,235.29,173.29Z" transform="translate(-32.01 -106.87)"/><path class="cls-3" d="M240.48,176.81a.19.19,0,0,1-.19-.19v-6.38a.19.19,0,0,1,.38,0v6.38A.19.19,0,0,1,240.48,176.81Z" transform="translate(-32.01 -106.87)"/><path class="cls-3" d="M239.93,171.7l-.07,0a.18.18,0,0,1-.1-.24l.67-1.54.74.86a.18.18,0,0,1-.28.24l-.36-.41-.43,1A.18.18,0,0,1,239.93,171.7Z" transform="translate(-32.01 -106.87)"/><path class="cls-3" d="M242.21,175.82a.18.18,0,0,1-.18-.18v-6.38a.18.18,0,0,1,.18-.19.18.18,0,0,1,.19.19v6.38A.18.18,0,0,1,242.21,175.82Z" transform="translate(-32.01 -106.87)"/><path class="cls-3" d="M241.67,170.71h-.08a.2.2,0,0,1-.1-.25l.67-1.54.75.86a.2.2,0,0,1,0,.26.19.19,0,0,1-.27,0l-.35-.41-.43,1A.18.18,0,0,1,241.67,170.71Z" transform="translate(-32.01 -106.87)"/><polygon class="cls-5" points="189.95 84.43 161.52 68.01 161.52 16.42 189.95 32.83 189.95 84.43"/><path class="cls-1" d="M199.31,164.15l8.72,5a3.85,3.85,0,0,1,1.74,3v5.39c0,1.1-.78,1.55-1.74,1l-8.72-5a3.82,3.82,0,0,1-1.73-3v-5.38C197.58,164,198.36,163.6,199.31,164.15Z" transform="translate(-32.01 -106.87)"/><polygon class="cls-5" points="166.63 58.63 166.96 58.82 166.96 64.8 166.63 64.6 166.63 58.63"/><polygon class="cls-5" points="167.98 59.41 168.55 59.74 168.55 65.72 167.98 65.38 167.98 59.41"/><polygon class="cls-5" points="169.33 60.18 169.66 60.38 169.66 66.35 169.33 66.16 169.33 60.18"/><polygon class="cls-5" points="170.34 60.76 171.01 61.15 171.01 67.13 170.34 66.74 170.34 60.76"/><polygon class="cls-5" points="172.03 61.74 172.36 61.93 172.36 67.91 172.03 67.72 172.03 61.74"/><polygon class="cls-5" points="173 62.29 173.71 62.71 173.71 68.69 173 68.27 173 62.29"/><polygon class="cls-5" points="174.72 63.3 175.06 63.49 175.06 69.47 174.72 69.28 174.72 63.3"/><polygon class="cls-5" points="175.49 63.74 175.66 63.83 175.66 69.81 175.49 69.71 175.49 63.74"/><polygon class="cls-5" points="174.11 62.97 174.27 63.07 174.27 69.05 174.11 68.95 174.11 62.97"/><polygon class="cls-5" points="171.39 61.38 171.56 61.48 171.56 67.45 171.39 67.36 171.39 61.38"/><polygon class="cls-5" points="169.9 60.53 170.07 60.62 170.07 66.6 169.9 66.5 169.9 60.53"/><polygon class="cls-5" points="168.83 59.94 169 60.03 169 66.01 168.83 65.91 168.83 59.94"/><polygon class="cls-5" points="167.38 59.06 167.55 59.15 167.55 65.13 167.38 65.03 167.38 59.06"/><polygon class="cls-5" points="176.07 64.08 176.4 64.27 176.4 70.25 176.07 70.05 176.07 64.08"/><polygon class="cls-6" points="175.01 30.86 177.77 32.45 177.77 25.8 175.01 24.2 175.01 30.86"/><polygon class="cls-1" points="133.09 70.36 112.78 58.63 84.34 75.05 104.65 86.77 133.09 70.36"/><polygon class="cls-4" points="104.65 133.68 133.09 117.26 133.09 70.36 104.65 86.77 104.65 133.68"/><path class="cls-3" d="M141.35,231.21a.65.65,0,0,1-.36-.1,1.11,1.11,0,0,1-.46-1v-3h0v-.22l.15,0,2.34-1.37v3.33a2.7,2.7,0,0,1-1.15,2.18A1.06,1.06,0,0,1,141.35,231.21Zm-.44-3.87v2.76a.75.75,0,0,0,.27.69.53.53,0,0,0,.5-.06,2.34,2.34,0,0,0,1-1.85v-.24h-.87l-.17-1.17Zm1.2.92h.54V226.2l-1.4.82.69.12Z" transform="translate(-32.01 -106.87)"/><path class="cls-3" d="M141.78,233.59a.19.19,0,0,1-.19-.19v-2.51a.18.18,0,0,1,.19-.18.18.18,0,0,1,.18.18v2.51A.19.19,0,0,1,141.78,233.59Z" transform="translate(-32.01 -106.87)"/><path class="cls-3" d="M140.69,234.21a.17.17,0,0,1-.16-.09.18.18,0,0,1,.06-.26l2.18-1.25a.19.19,0,0,1,.26.07.18.18,0,0,1-.07.25l-2.18,1.26A.15.15,0,0,1,140.69,234.21Z" transform="translate(-32.01 -106.87)"/><path class="cls-3" d="M148.45,229.9a.46.46,0,0,1-.21-.05.5.5,0,0,1-.22-.45v-.52a.18.18,0,0,1,.18-.18.18.18,0,0,1,.19.18v.52c0,.07,0,.11,0,.12s.06,0,.12,0a1.13,1.13,0,0,0,.35-.85v-3.33a.19.19,0,1,1,.37,0v3.33a1.44,1.44,0,0,1-.53,1.17A.57.57,0,0,1,148.45,229.9Z" transform="translate(-32.01 -106.87)"/><path class="cls-3" d="M146.47,227v-.33a5.32,5.32,0,0,1,2.4-4.15,1.58,1.58,0,0,1,2.58,1.49v.11Zm3.52-4.45a1.92,1.92,0,0,0-.93.29,5,5,0,0,0-2.2,3.5l4.22-2.44a1.4,1.4,0,0,0-.58-1.22A1.07,1.07,0,0,0,150,222.54Z" transform="translate(-32.01 -106.87)"/><path class="cls-3" d="M155.18,226.06a.19.19,0,0,1-.19-.19v-6.38a.19.19,0,0,1,.38,0v6.38A.19.19,0,0,1,155.18,226.06Z" transform="translate(-32.01 -106.87)"/><path class="cls-3" d="M154.63,221l-.07,0a.18.18,0,0,1-.1-.24l.67-1.54.74.86a.18.18,0,1,1-.28.24l-.36-.41-.43,1A.18.18,0,0,1,154.63,221Z" transform="translate(-32.01 -106.87)"/><path class="cls-3" d="M156.91,225.07a.19.19,0,0,1-.19-.18v-6.38a.19.19,0,0,1,.19-.19.18.18,0,0,1,.19.19v6.38A.18.18,0,0,1,156.91,225.07Z" transform="translate(-32.01 -106.87)"/><path class="cls-3" d="M156.36,220a.1.1,0,0,1-.07,0,.18.18,0,0,1-.1-.24l.67-1.54.74.86a.19.19,0,0,1,0,.26.19.19,0,0,1-.27,0l-.35-.41-.43,1A.19.19,0,0,1,156.36,220Z" transform="translate(-32.01 -106.87)"/><polygon class="cls-5" points="104.65 133.68 84.34 121.95 84.34 75.05 104.65 86.77 104.65 133.68"/><polygon class="cls-1" points="93.77 87.15 96.53 88.74 96.53 82.08 93.77 80.49 93.77 87.15"/><polygon class="cls-3" points="96.53 82.08 124.96 65.67 122.2 64.08 93.77 80.49 96.53 82.08"/><polygon class="cls-1" points="96.53 110.23 59.97 89.12 23.41 110.23 59.97 131.33 96.53 110.23"/><polygon class="cls-4" points="59.97 159.47 96.53 138.37 96.53 110.23 59.97 131.33 59.97 159.47"/><path class="cls-3" d="M96.67,257a.75.75,0,0,1-.36-.1,1.12,1.12,0,0,1-.46-1v-3h0v-.22l.15,0,2.34-1.38v3.34a2.7,2.7,0,0,1-1.15,2.17A1.08,1.08,0,0,1,96.67,257Zm-.45-3.87v2.76a.74.74,0,0,0,.27.68.51.51,0,0,0,.51-.05,2.36,2.36,0,0,0,1-1.85v-.25H97.1l-.17-1.17Zm1.2.92H98V252l-1.39.82.69.12Z" transform="translate(-32.01 -106.87)"/><path class="cls-3" d="M97.09,259.38a.18.18,0,0,1-.18-.18v-2.51a.19.19,0,1,1,.37,0v2.51A.18.18,0,0,1,97.09,259.38Z" transform="translate(-32.01 -106.87)"/><path class="cls-3" d="M96,260a.19.19,0,0,1-.09-.35l2.18-1.25a.17.17,0,0,1,.25.06.18.18,0,0,1-.06.26L96.1,260Z" transform="translate(-32.01 -106.87)"/><path class="cls-3" d="M103.76,255.7a.46.46,0,0,1-.2,0,.5.5,0,0,1-.23-.46v-.51a.19.19,0,0,1,.38,0v.51a.21.21,0,0,0,0,.13s.06,0,.13,0a1.13,1.13,0,0,0,.34-.85v-3.33a.2.2,0,0,1,.19-.19.19.19,0,0,1,.19.19v3.33a1.44,1.44,0,0,1-.53,1.17A.58.58,0,0,1,103.76,255.7Z" transform="translate(-32.01 -106.87)"/><path class="cls-3" d="M101.79,252.79v-.33a5.27,5.27,0,0,1,2.4-4.15,1.58,1.58,0,0,1,2.58,1.49v.11Zm3.52-4.45a2,2,0,0,0-.94.29,5,5,0,0,0-2.19,3.5l4.21-2.44a1.39,1.39,0,0,0-.57-1.22A1,1,0,0,0,105.31,248.34Z" transform="translate(-32.01 -106.87)"/><path class="cls-3" d="M110.5,251.86a.18.18,0,0,1-.19-.19v-6.38a.19.19,0,1,1,.37,0v6.38A.18.18,0,0,1,110.5,251.86Z" transform="translate(-32.01 -106.87)"/><path class="cls-3" d="M110,246.75l-.08,0a.18.18,0,0,1-.09-.25l.66-1.54.75.86a.19.19,0,1,1-.29.25l-.35-.41-.43,1A.19.19,0,0,1,110,246.75Z" transform="translate(-32.01 -106.87)"/><path class="cls-3" d="M112.23,250.87a.19.19,0,0,1-.19-.19V244.3a.19.19,0,0,1,.38,0v6.38A.19.19,0,0,1,112.23,250.87Z" transform="translate(-32.01 -106.87)"/><path class="cls-3" d="M111.68,245.76l-.07,0a.18.18,0,0,1-.1-.24l.67-1.55.74.86a.19.19,0,0,1,0,.27.18.18,0,0,1-.26,0l-.36-.41-.43,1A.18.18,0,0,1,111.68,245.76Z" transform="translate(-32.01 -106.87)"/><polygon class="cls-5" points="59.97 159.47 23.41 138.37 23.41 110.23 59.97 131.33 59.97 159.47"/><polygon class="cls-1" points="40.31 126.64 43.07 128.23 43.07 121.58 40.31 119.98 40.31 126.64"/><polygon class="cls-3" points="43.07 121.58 79.63 100.47 76.87 98.88 40.31 119.98 43.07 121.58"/><path class="cls-1" d="M61.21,234.51l8.72,5a3.85,3.85,0,0,1,1.74,3v5.39c0,1.1-.78,1.55-1.74,1l-8.72-5a3.82,3.82,0,0,1-1.73-3v-5.38C59.48,234.4,60.26,234,61.21,234.51Z" transform="translate(-32.01 -106.87)"/><polygon class="cls-5" points="28.53 128.99 28.86 129.18 28.86 135.16 28.53 134.96 28.53 128.99"/><polygon class="cls-5" points="29.88 129.77 30.45 130.1 30.45 136.08 29.88 135.74 29.88 129.77"/><polygon class="cls-5" points="31.23 130.54 31.56 130.74 31.56 136.71 31.23 136.52 31.23 130.54"/><polygon class="cls-5" points="32.24 131.12 32.91 131.51 32.91 137.49 32.24 137.1 32.24 131.12"/><polygon class="cls-5" points="33.92 132.1 34.26 132.29 34.26 138.27 33.92 138.08 33.92 132.1"/><polygon class="cls-5" points="34.9 132.65 35.61 133.07 35.6 139.05 34.9 138.63 34.9 132.65"/><polygon class="cls-5" points="36.62 133.66 36.95 133.85 36.95 139.83 36.62 139.63 36.62 133.66"/><polygon class="cls-5" points="37.39 134.1 37.56 134.19 37.56 140.17 37.39 140.07 37.39 134.1"/><polygon class="cls-5" points="36.01 133.33 36.17 133.43 36.17 139.41 36.01 139.31 36.01 133.33"/><polygon class="cls-5" points="33.29 131.74 33.46 131.84 33.46 137.81 33.29 137.72 33.29 131.74"/><polygon class="cls-5" points="31.8 130.89 31.97 130.98 31.97 136.96 31.8 136.86 31.8 130.89"/><polygon class="cls-5" points="30.73 130.3 30.9 130.39 30.9 136.37 30.73 136.27 30.73 130.3"/><polygon class="cls-5" points="29.28 129.42 29.45 129.51 29.45 135.49 29.28 135.39 29.28 129.42"/><polygon class="cls-5" points="37.97 134.44 38.3 134.63 38.3 140.6 37.97 140.41 37.97 134.44"/><polygon class="cls-1" points="88.4 53.94 59.97 37.52 31.53 53.94 59.97 70.36 88.4 53.94"/><polygon class="cls-4" points="59.97 126.64 88.4 110.22 88.4 53.94 59.97 70.36 59.97 126.64"/><path class="cls-3" d="M96.67,224.17a.74.74,0,0,1-.36-.09,1.12,1.12,0,0,1-.46-1v-3h0v-.22l.15,0,2.34-1.37v3.33A2.71,2.71,0,0,1,97.19,224,1.06,1.06,0,0,1,96.67,224.17Zm-.45-3.87v2.77a.76.76,0,0,0,.27.68.51.51,0,0,0,.51-.05,2.38,2.38,0,0,0,1-1.86v-.24H97.1l-.17-1.17Zm1.2.92H98v-2.05l-1.39.82.69.12Z" transform="translate(-32.01 -106.87)"/><path class="cls-3" d="M97.09,226.55a.18.18,0,0,1-.18-.19v-2.5a.18.18,0,0,1,.18-.19.18.18,0,0,1,.19.19v2.5A.18.18,0,0,1,97.09,226.55Z" transform="translate(-32.01 -106.87)"/><path class="cls-3" d="M96,227.18a.19.19,0,0,1-.09-.35l2.18-1.26a.19.19,0,0,1,.19.33l-2.18,1.25A.17.17,0,0,1,96,227.18Z" transform="translate(-32.01 -106.87)"/><path class="cls-3" d="M103.76,222.87a.36.36,0,0,1-.2-.06.48.48,0,0,1-.23-.45v-.51a.19.19,0,0,1,.38,0v.51a.21.21,0,0,0,0,.13.24.24,0,0,0,.13,0,1.08,1.08,0,0,0,.34-.84v-3.33a.19.19,0,0,1,.19-.19.18.18,0,0,1,.19.19v3.33a1.44,1.44,0,0,1-.53,1.17A.58.58,0,0,1,103.76,222.87Z" transform="translate(-32.01 -106.87)"/><path class="cls-3" d="M101.79,220v-.32a5.31,5.31,0,0,1,2.4-4.16,1.59,1.59,0,0,1,2.58,1.5v.1Zm3.52-4.44a2,2,0,0,0-.94.29,5,5,0,0,0-2.19,3.49l4.21-2.43a1.37,1.37,0,0,0-.57-1.22A1,1,0,0,0,105.31,215.51Z" transform="translate(-32.01 -106.87)"/><path class="cls-3" d="M110.5,219a.19.19,0,0,1-.19-.19v-6.38a.19.19,0,1,1,.37,0v6.38A.19.19,0,0,1,110.5,219Z" transform="translate(-32.01 -106.87)"/><path class="cls-3" d="M110,213.91h-.08a.18.18,0,0,1-.09-.25l.66-1.54.75.86a.19.19,0,0,1,0,.26.2.2,0,0,1-.27,0l-.35-.41-.43,1A.18.18,0,0,1,110,213.91Z" transform="translate(-32.01 -106.87)"/><path class="cls-3" d="M112.23,218a.2.2,0,0,1-.19-.19v-6.38a.19.19,0,0,1,.38,0v6.38A.2.2,0,0,1,112.23,218Z" transform="translate(-32.01 -106.87)"/><path class="cls-3" d="M111.68,212.93l-.07,0a.19.19,0,0,1-.1-.25l.67-1.54.74.86a.19.19,0,0,1,0,.27.2.2,0,0,1-.26,0l-.36-.41-.43,1A.19.19,0,0,1,111.68,212.93Z" transform="translate(-32.01 -106.87)"/><polygon class="cls-5" points="59.97 126.64 31.54 110.23 31.53 53.94 59.97 70.36 59.97 126.64"/><polygon class="cls-1" points="45.03 68.39 47.78 69.98 47.78 63.32 45.03 61.73 45.03 68.39"/><polygon class="cls-3" points="47.78 63.32 76.22 46.9 73.46 45.31 45.03 61.73 47.78 63.32"/><path class="cls-1" d="M69.33,206.36l8.72,5a3.81,3.81,0,0,1,1.73,3v5.38c0,1.1-.77,1.55-1.73,1l-8.72-5a3.82,3.82,0,0,1-1.74-3v-5.38C67.6,206.26,68.37,205.81,69.33,206.36Z" transform="translate(-32.01 -106.87)"/><polygon class="cls-5" points="36.64 100.84 36.98 101.03 36.98 107.01 36.64 106.82 36.64 100.84"/><polygon class="cls-5" points="37.99 101.62 38.56 101.96 38.56 107.93 37.99 107.6 37.99 101.62"/><polygon class="cls-5" points="39.34 102.4 39.67 102.59 39.67 108.57 39.34 108.38 39.34 102.4"/><polygon class="cls-5" points="40.36 102.97 41.02 103.37 41.02 109.34 40.36 108.95 40.36 102.97"/><polygon class="cls-5" points="42.04 103.95 42.37 104.15 42.37 110.12 42.04 109.93 42.04 103.95"/><polygon class="cls-5" points="43.01 104.5 43.72 104.92 43.72 110.9 43.01 110.48 43.01 104.5"/><polygon class="cls-5" points="44.74 105.51 45.07 105.7 45.07 111.68 44.74 111.49 44.74 105.51"/><polygon class="cls-5" points="45.51 105.95 45.67 106.05 45.67 112.02 45.51 111.93 45.51 105.95"/><polygon class="cls-5" points="44.12 105.19 44.29 105.28 44.29 111.26 44.12 111.16 44.12 105.19"/><polygon class="cls-5" points="41.41 103.59 41.57 103.69 41.57 109.67 41.41 109.57 41.41 103.59"/><polygon class="cls-5" points="39.92 102.74 40.08 102.84 40.08 108.81 39.92 108.72 39.92 102.74"/><polygon class="cls-5" points="38.85 102.15 39.02 102.25 39.01 108.22 38.85 108.13 38.85 102.15"/><polygon class="cls-5" points="37.4 101.27 37.56 101.37 37.56 107.34 37.4 107.25 37.4 101.27"/><polygon class="cls-5" points="46.09 106.29 46.42 106.48 46.42 112.46 46.09 112.27 46.09 106.29"/></g><g id="Device"><path class="cls-7" d="M63.81,315.75l109.14,63a9.57,9.57,0,0,0,8.66,0l239.13-138c2.39-1.38,2.39-3.62,0-5l-109.14-63a9.51,9.51,0,0,0-8.66,0L63.81,310.75C61.42,312.13,61.42,314.37,63.81,315.75Z" transform="translate(-32.01 -106.87)"/><path class="cls-8" d="M122.8,345a13.32,13.32,0,0,0,12,0c3.33-1.92,3.33-5,0-6.95a13.26,13.26,0,0,0-12,0C119.47,340,119.47,343.1,122.8,345Z" transform="translate(-32.01 -106.87)"/><path class="cls-9" d="M175,378.75l-109.14-63c-2.14-1.24-2.36-3.16-.67-4.54a9.69,9.69,0,0,0-3.66,7v4.07a9.58,9.58,0,0,0,4.33,7.5l109.14,63a8.83,8.83,0,0,0,4.33,1V379.79A8.83,8.83,0,0,1,175,378.75Z" transform="translate(-32.01 -106.87)"/><path class="cls-8" d="M420.73,254.77a9.56,9.56,0,0,0,4.34-7.5V243.2a9.62,9.62,0,0,0-3.67-7c1.7,1.38,1.48,3.3-.66,4.53L181.61,378.75a8.89,8.89,0,0,1-4.33,1v14.07a8.89,8.89,0,0,0,4.33-1Z" transform="translate(-32.01 -106.87)"/><path class="cls-3" d="M190.93,365.7,86.47,305.36c-1.44-.83-1.44-2.18,0-3L288.39,185.75a5.74,5.74,0,0,1,5.2,0l104.5,60.33c1.43.83,1.43,2.17,0,3l-202,116.62A5.74,5.74,0,0,1,190.93,365.7Z" transform="translate(-32.01 -106.87)"/><polygon class="cls-2" points="116.84 225.14 129.02 218.11 124.96 215.76 112.78 222.8 116.84 225.14"/><polygon class="cls-2" points="263.07 140.71 275.26 133.68 271.2 131.33 259.01 138.37 263.07 140.71"/><polygon class="cls-2" points="287.44 126.64 299.63 119.61 295.57 117.26 283.38 124.3 287.44 126.64"/><path class="cls-8" d="M358.57,208.86a3.41,3.41,0,0,0,3.05,0,.93.93,0,0,0,0-1.76,3.35,3.35,0,0,0-3.05,0A.93.93,0,0,0,358.57,208.86Z" transform="translate(-32.01 -106.87)"/><path class="cls-8" d="M363.44,222.67a6.74,6.74,0,0,0,6.09,0c1.68-1,1.68-2.55,0-3.52a6.74,6.74,0,0,0-6.09,0C361.76,220.12,361.76,221.7,363.44,222.67Z" transform="translate(-32.01 -106.87)"/><path class="cls-8" d="M359.14,216.55c1.12-.65,1.06-1.73-.13-2.42l-20-11.57a4.61,4.61,0,0,0-4.2-.08c-1.12.65-1.06,1.73.13,2.42L355,216.47A4.62,4.62,0,0,0,359.14,216.55Z" transform="translate(-32.01 -106.87)"/></g><g id="Locator"><path class="cls-2" d="M325,169.63l.68-.4a19,19,0,0,0-.68,5.24v2.44c0,8.76,10.51,31.14,14.38,39.06.4.83-4.91,6.48-4.91,6.48l6.31-3.64s15.77-13,15.77-23.68v-2.44c0-10.73-7.06-23.5-15.77-28.53-4.4-2.53-8.37-2.62-11.23-.7h0l-6,3.44Zm7.89,8.19c0-5,3.53-7.07,7.89-4.55-.36,3.23,5.54,13.29,7.88,13.66,0,5-3.53,7.07-7.88,4.55A17.42,17.42,0,0,1,332.93,177.82Z" transform="translate(-32.01 -106.87)"/><path class="cls-2" d="M318.51,180.82c.18,10.72,16.46,41.63,16.46,41.63s15.56-13.22,15.39-23.94l0-2.44c-.18-10.72-7.45-23.38-16.25-28.26s-15.78-.16-15.6,10.57Zm7.9.78c-.08-5,3.42-7.13,7.81-4.69a17.43,17.43,0,0,1,8.11,13.53c.09,5-3.41,7.13-7.81,4.69A17.48,17.48,0,0,1,326.41,181.6Z" transform="translate(-32.01 -106.87)"/><path class="cls-10" d="M318.51,180.82c.18,10.72,16.46,41.63,16.46,41.63s15.56-13.22,15.39-23.94l0-2.44c-.18-10.72-7.45-23.38-16.25-28.26s-15.78-.16-15.6,10.57Zm7.9.78c-.08-5,3.42-7.13,7.81-4.69a17.43,17.43,0,0,1,8.11,13.53c.09,5-3.41,7.13-7.81,4.69A17.48,17.48,0,0,1,326.41,181.6Z" transform="translate(-32.01 -106.87)"/></g><g id="Shadow"><path class="cls-6" d="M166,323.79c10.11,5.82,33.81,1.59,52.94-9.46L271.49,284c19.13-11.05,26.43-24.71,16.3-30.52s-33.85-1.56-53,9.48l-52.45,30.29C163.22,304.29,155.9,318,166,323.79Z" transform="translate(-32.01 -106.87)"/></g><g id="Character"><polygon class="cls-2" points="141.21 211.07 153.4 204.03 149.34 201.69 137.15 208.72 141.21 211.07"/><polygon class="cls-2" points="165.58 197 177.77 189.96 173.71 187.62 161.52 194.65 165.58 197"/><path class="cls-8" d="M192.58,301c0,5.88-4.12,13-9.21,16-2.71,1.57-5.15,1.62-6.83.44h0a6.07,6.07,0,0,1-2.31-4.43,11.22,11.22,0,0,0,1-.53c5.09-2.93,9.21-10.08,9.21-16a9.13,9.13,0,0,0-.08-1.31,6.22,6.22,0,0,1,5-.36C191.36,295.65,192.58,297.82,192.58,301Z" transform="translate(-32.01 -106.87)"/><path class="cls-9" d="M193.41,288.92l-.17-.1c-2.56-1.36-6-1.11-9.87,1.11-7.85,4.53-14.22,15.55-14.22,24.62,0,4.56,1.61,7.75,4.21,9.23s6.11,1.23,10-1c7.85-4.53,14.21-15.56,14.21-24.63C197.58,293.59,196,290.4,193.41,288.92Zm-10,28.06c-2.72,1.57-5.16,1.62-6.84.43-1.48-1-2.38-3-2.38-5.75,0-5.87,4.13-13,9.22-16,2.32-1.34,4.43-1.57,6-.88,1.94.83,3.16,3,3.16,6.2C192.58,306.9,188.46,314.05,183.37,317Z" transform="translate(-32.01 -106.87)"/><path class="cls-2" d="M189.88,295.05l-.11-.06c-1.66-.89-3.91-.72-6.4.71-5.09,2.94-9.22,10.09-9.22,16,0,3,1,5,2.73,6s4,.8,6.49-.66c5.09-2.94,9.21-10.09,9.21-16C192.58,298.08,191.55,296,189.88,295.05Zm-6.51,19.85c-2.18,1.26-4.14,1.3-5.5.34-1.18-.83-1.91-2.42-1.91-4.62a16.38,16.38,0,0,1,7.41-12.83,5.49,5.49,0,0,1,4.87-.71c1.56.67,2.54,2.41,2.54,5A16.35,16.35,0,0,1,183.37,314.9Z" transform="translate(-32.01 -106.87)"/><polygon class="cls-2" points="189.96 182.93 202.14 175.89 198.08 173.55 185.89 180.58 189.96 182.93"/><polygon class="cls-2" points="214.33 168.86 226.51 161.82 222.45 159.48 210.27 166.51 214.33 168.86"/><polygon class="cls-2" points="238.7 154.78 250.89 147.75 246.82 145.41 234.64 152.44 238.7 154.78"/><path class="cls-2" d="M210.06,196.22a1,1,0,0,1,1.8.63,3.63,3.63,0,0,1-1.09,3.12c-.8.69-1.61.41-1.8-.63A3.64,3.64,0,0,1,210.06,196.22Z" transform="translate(-32.01 -106.87)"/><polygon class="cls-2" points="187.44 93.77 179.28 89.07 177.5 93.37 185.67 98.09 187.44 93.77"/><path class="cls-2" d="M218.19,200.91c.8-.68,1.6-.4,1.8.64a3.65,3.65,0,0,1-1.1,3.11c-.8.69-1.61.41-1.8-.63A3.68,3.68,0,0,1,218.19,200.91Z" transform="translate(-32.01 -106.87)"/><path class="cls-7" d="M280.83,240.35c0,.2,0,.38,0,.58,0,.4,0,.81,0,1.22-1.62-.69-3.73-.46-6.05.88-5.09,2.94-9.22,10.09-9.22,16,0,2.74.9,4.72,2.38,5.75a14.73,14.73,0,0,1-1.29.82l-.47.24-1.41,5.31-8.16-4.55c-2.58-1.49-4.17-4.67-4.17-9.21,0-9.07,6.36-20.09,14.21-24.63,3.88-2.24,7.39-2.47,10-1h0l8,4.48.17.1Z" transform="translate(-32.01 -106.87)"/><path class="cls-9" d="M284.81,236.25l-.17-.1c-2.56-1.36-6-1.11-9.87,1.11-7.85,4.53-14.22,15.55-14.22,24.62,0,4.56,1.61,7.75,4.21,9.23s6.11,1.23,10-1c7.85-4.53,14.21-15.56,14.21-24.63C289,240.92,287.39,237.73,284.81,236.25Zm-10,28.06c-2.72,1.57-5.16,1.62-6.84.43-1.48-1-2.38-3-2.38-5.75,0-5.87,4.13-13,9.22-16,2.32-1.34,4.43-1.57,6.05-.88,1.94.83,3.16,3,3.16,6.2C284,254.23,279.86,261.38,274.77,264.31Z" transform="translate(-32.01 -106.87)"/><path class="cls-8" d="M284,248.35c0,5.88-4.12,13-9.21,16-2.71,1.57-5.15,1.62-6.83.44h0a6.07,6.07,0,0,1-2.31-4.43,11.22,11.22,0,0,0,1-.53c5.09-2.93,9.21-10.08,9.21-16a9.13,9.13,0,0,0-.08-1.31,6.22,6.22,0,0,1,5-.36C282.76,243,284,245.15,284,248.35Z" transform="translate(-32.01 -106.87)"/><path class="cls-2" d="M281.28,242.38l-.11-.07c-1.66-.88-3.92-.72-6.4.72-5.09,2.94-9.22,10.08-9.22,16,0,3,1,5,2.73,6s4,.79,6.49-.67c5.09-2.93,9.21-10.08,9.21-16C284,245.41,283,243.34,281.28,242.38Zm-6.51,19.84c-2.19,1.27-4.15,1.31-5.5.35-1.19-.83-1.91-2.42-1.91-4.62a16.38,16.38,0,0,1,7.41-12.83c1.86-1.08,3.56-1.27,4.86-.71,1.56.67,2.54,2.41,2.54,5A16.34,16.34,0,0,1,274.77,262.22Z" transform="translate(-32.01 -106.87)"/><path class="cls-2" d="M266.64,251.34l23-13.28c2.67-1.55-6-10.6-12.45-11.21a24.9,24.9,0,0,0-10.56,1s4.91,6.29,4.07,9.86S266.64,251.34,266.64,251.34Z" transform="translate(-32.01 -106.87)"/><path class="cls-2" d="M234.15,213.81s33.34,16.82,34.78,17.83,0,12.74-2.29,19.7S260.83,269,259.42,272s-3.25,4.12-6.63,6.07l-24,13.87L196.3,295.9l-12.9-7,3.36-21.11s34.53-18.37,39.26-21.1S244.74,231.15,234.15,213.81Z" transform="translate(-32.01 -106.87)"/><path class="cls-11" d="M234.15,213.81s33.34,16.82,34.78,17.83,0,12.74-2.29,19.7S260.83,269,259.42,272s-3.25,4.12-6.63,6.07l-24,13.87L196.3,295.9l-12.9-7,3.36-21.11s34.53-18.37,39.26-21.1S244.74,231.15,234.15,213.81Z" transform="translate(-32.01 -106.87)"/><path class="cls-2" d="M269.57,247.33c3-8.06,5.24-14.74,4.86-19.25-.46-5.35-2.46-9.72-11.28-11.92S242,214,242,214l-3.75,2.17s25.36,14.7,28.24,16.3c1.76,1,3.64,5.41.19,18.88l.59.34C267.56,251.87,268.61,249.92,269.57,247.33Z" transform="translate(-32.01 -106.87)"/><path class="cls-12" d="M269.57,247.33c3-8.06,5.24-14.74,4.86-19.25-.46-5.35-2.46-9.72-11.28-11.92S242,214,242,214l-3.75,2.17s25.36,14.7,28.24,16.3c1.76,1,3.64,5.41.19,18.88l.59.34C267.56,251.87,268.61,249.92,269.57,247.33Z" transform="translate(-32.01 -106.87)"/><path class="cls-2" d="M250.36,223.19l4.1-2.34s-.24-14.21-6.22-17.66-26.28-1.1-26.28-1.1l-4.06,2.34Z" transform="translate(-32.01 -106.87)"/><path class="cls-6" d="M237.06,206.44c-1.95,1.13-1.95,2.95,0,4.07a7.78,7.78,0,0,0,7.06,0c1.94-1.12,1.94-2.95,0-4.07A7.84,7.84,0,0,0,237.06,206.44Z" transform="translate(-32.01 -106.87)"/><path class="cls-6" d="M243.3,213.23c-1.37.8-1.37,2.09,0,2.88a5.49,5.49,0,0,0,5,0c1.38-.79,1.38-2.08,0-2.88A5.55,5.55,0,0,0,243.3,213.23Z" transform="translate(-32.01 -106.87)"/><path class="cls-6" d="M227.59,204.63c-1.38.79-1.38,2.08,0,2.88a5.55,5.55,0,0,0,5,0c1.38-.8,1.38-2.09,0-2.88A5.49,5.49,0,0,0,227.59,204.63Z" transform="translate(-32.01 -106.87)"/><path class="cls-2" d="M251,219.07c.8-.69,1.6-.41,1.8.63a3.67,3.67,0,0,1-1.1,3.12,1,1,0,0,1-1.8-.63A3.63,3.63,0,0,1,251,219.07Z" transform="translate(-32.01 -106.87)"/><polygon class="cls-2" points="228.32 116.62 220.16 111.91 218.38 116.22 226.55 120.94 228.32 116.62"/><path class="cls-2" d="M259.07,223.76a1,1,0,0,1,1.8.63,3.64,3.64,0,0,1-1.1,3.12c-.8.69-1.6.4-1.8-.63A3.66,3.66,0,0,1,259.07,223.76Z" transform="translate(-32.01 -106.87)"/><path d="M259.07,223.76a1,1,0,0,1,1.8.63,3.64,3.64,0,0,1-1.1,3.12c-.8.69-1.6.4-1.8-.63A3.66,3.66,0,0,1,259.07,223.76Z" transform="translate(-32.01 -106.87)"/><path class="cls-7" d="M189.43,293c0,.2,0,.38,0,.58,0,.4,0,.81,0,1.22-1.62-.69-3.73-.46-6,.88-5.09,2.94-9.22,10.09-9.22,16,0,2.74.9,4.72,2.38,5.75a14.73,14.73,0,0,1-1.29.82l-.47.24-1.41,5.31-8.16-4.55c-2.58-1.49-4.17-4.67-4.17-9.21,0-9.07,6.36-20.09,14.21-24.63,3.88-2.24,7.39-2.47,10-1h0l8,4.48.17.1Z" transform="translate(-32.01 -106.87)"/><polygon class="cls-2" points="133.09 170.27 126.99 191.38 139.18 198.41 145.49 177.43 133.09 170.27"/><polygon class="cls-11" points="133.09 170.27 126.99 191.38 139.18 198.41 145.49 177.43 133.09 170.27"/><path class="cls-2" d="M165.09,277.13S172,283,177.5,284.3c7.22,1.75,18.7,1.94,22.77,2.22,6.22.43,10.92.42,13.12-.37,2.85-1,10.51-5.45,12.63-6.67,4.06-2.34,5.79-11.55-5.4-14.07a113,113,0,0,0-23-2.35Z" transform="translate(-32.01 -106.87)"/><path class="cls-9" d="M234,274.43a11,11,0,0,0-.7,2.71,6.11,6.11,0,0,0-.22,3,6,6,0,0,0,3.37,2.63,7.57,7.57,0,0,0,5.93-1.15c2.07-1.24,3.63-2.74,6.57-3.58a14.78,14.78,0,0,0,5.8-2.63c1.63-1.31,3.81-4.93.69-5.77s-9.9,2.12-16.08,2.39Z" transform="translate(-32.01 -106.87)"/><path class="cls-13" d="M234,270.57v4.62a3,3,0,0,0,2.45,1.95,3,3,0,0,0,1.49-.16,4.11,4.11,0,0,0,2.64-3.66l.18-2.75Z" transform="translate(-32.01 -106.87)"/><path class="cls-9" d="M242.8,242c0,5.75-1.62,30.61-1.62,30.61s-2.35,3-7.46,0L232,244.83Z" transform="translate(-32.01 -106.87)"/><path class="cls-2" d="M216,266.5l16-9.22a4.06,4.06,0,0,0,0-7.19l-11.92-6.88a4.79,4.79,0,0,0-4.33,0l-16,9.22a4.07,4.07,0,0,0,0,7.19l11.92,6.88A4.79,4.79,0,0,0,216,266.5Z" transform="translate(-32.01 -106.87)"/><path class="cls-3" d="M216,266.5l16-9.22a4.06,4.06,0,0,0,0-7.19l-11.92-6.88a4.79,4.79,0,0,0-4.33,0l-16,9.22a4.07,4.07,0,0,0,0,7.19l11.92,6.88A4.79,4.79,0,0,0,216,266.5Z" transform="translate(-32.01 -106.87)"/><path class="cls-2" d="M199.75,254.93l11.92,6.88a4.79,4.79,0,0,0,4.33,0l16-9.22a1.32,1.32,0,0,0,0-2.5l-11.92-6.88a4.79,4.79,0,0,0-4.33,0l-16,9.22A1.32,1.32,0,0,0,199.75,254.93Z" transform="translate(-32.01 -106.87)"/><polygon class="cls-13" points="177.49 86.87 175.46 95.23 166.75 95.76 168.63 84.17 177.49 86.87"/><path class="cls-14" d="M218,187.43s1,3.54.59,3.74a6.3,6.3,0,0,1-1.9,0Z" transform="translate(-32.01 -106.87)"/><path class="cls-13" d="M216.33,176.13c1.4,1.65,2.68,4.36,1.69,11-1.08,7.26-2.42,8.1-3.5,8.8-1.41.92-7.05.43-8.64-.73-1.91-1.39-4.86-5.8-5.56-10.15-.82-5.11.89-10.78,4.65-11.75C210.26,171.93,215.14,174.73,216.33,176.13Z" transform="translate(-32.01 -106.87)"/><path class="cls-7" d="M199.75,193.38c1.35,1.4,4.12,1.78,5.86,2.1s7.09.67,8.67-3.14.5-6.55,2.44-7.47,3.88-1.52,4.39-2,.52-6.75-4.69-10-13.19-4-18.44,2.59C194,180.55,195.63,189.08,199.75,193.38Z" transform="translate(-32.01 -106.87)"/><path class="cls-9" d="M205,195.53c1.35.12,5.62-.55,6.91-2.31s1.81-4.91,2-6.56a2.86,2.86,0,0,1,2.31-2.73c1.29-.41,4.14-1.81,4.14-1.81l0-.78a22,22,0,0,1,2.76,0c.6.11.27,1-1.25,1.77s-5.69,2.26-6.33,2.77-.94,2.66-1.45,4.95S212,196.54,205,195.53Z" transform="translate(-32.01 -106.87)"/><path class="cls-14" d="M217,205l5-2.87c.48-1.45-.29-2.18-1.65-2.09s-.94-1.23-1.77-1.6c-1.09-.5-1.71-.22-2.2-.45s-.7-.81-1.34-.88c-2.86-.27-4.81,3.81-4.81,3.81Z" transform="translate(-32.01 -106.87)"/><path class="cls-9" d="M183.06,241.72S205.15,230.77,209,229s9.89-4.34,13.1-4.34a5.23,5.23,0,0,1,4.79,4.9,36.77,36.77,0,0,1-.33,5.77A135.87,135.87,0,0,1,208,240C198.81,241.6,183.06,241.72,183.06,241.72Z" transform="translate(-32.01 -106.87)"/><path class="cls-7" d="M185.46,235.39c0,4.54-.43,9.26,1.46,12.58s12.13,11,21.77,9.39c6.3-1.06,25-9.67,25-9.67s9.07-3.33,9.11-5.7c.06-3.49-.18-8.41-8.09-8.2-7.21.19-28.48,4.63-28.48,4.63Z" transform="translate(-32.01 -106.87)"/><path class="cls-7" d="M191.63,199.42c3.42-3.57,5.73-3.87,7.37-3.43a57.56,57.56,0,0,1,10.89,4.36h0s-1.32,12.78,4.93,16.46v19.92s-.19,2.16-2.91,4.31c-2.4,1.89-7.83,3.8-14.31,3.26-7.7-.64-12.14-8.91-12.14-8.91s-.2-16.29.89-22.76C187.63,205.08,190.45,200.66,191.63,199.42Z" transform="translate(-32.01 -106.87)"/><path class="cls-9" d="M214.82,217.78s-3.78-3-4.93-6.9c0,0,.45,6.12,4.93,9.22Z" transform="translate(-32.01 -106.87)"/><path class="cls-13" d="M249.81,227.18a7.81,7.81,0,0,0,5-1.55s1.74-3.38,3.88-3.09c0,0,.38-1.44-.5-1.91s-1.26-.34-1.62-.84-.4-1.43-2-1.43c-.66,0-.57-.47-2.17-.66s-3.18,3.5-4.35,3.5Z" transform="translate(-32.01 -106.87)"/><path class="cls-7" d="M209.89,200.35c5.49.85,7.48,2.48,9.48,4.33s14.24,14.13,14.24,14.13l14.82,2.13a5,5,0,0,1,1.64,2.44c.6,1.74.06,3.64-.51,4.09,0,0-14.7.88-17.59.33s-17.2-10.05-17.2-10.05a12.82,12.82,0,0,1-5-8.63C208.84,203.09,209.89,200.35,209.89,200.35Z" transform="translate(-32.01 -106.87)"/><path class="cls-2" d="M196.71,253.17,174,280.89a6.33,6.33,0,0,1-.76.05,5.44,5.44,0,0,1-2.59-.61l-19.18-11.08-1.3-.75c-.71-.41-1.3-2.09-1.3-3.75v-4.67a27.33,27.33,0,0,1,13.66-23.67l22.9-13.22,24.37,14.07Z" transform="translate(-32.01 -106.87)"/><g class="cls-15"><path d="M196.71,253.17,174,280.89a6.33,6.33,0,0,1-.76.05,5.44,5.44,0,0,1-2.59-.61l-19.18-11.08-1.3-.75c-.71-.41-1.3-2.09-1.3-3.75v-4.67a27.33,27.33,0,0,1,13.66-23.67l22.9-13.22,24.37,14.07Z" transform="translate(-32.01 -106.87)"/></g><path class="cls-2" d="M188.88,262.73l20.89-25.46L185.4,223.2l-22.89,13.21a27.28,27.28,0,0,0-7.7,6.65Z" transform="translate(-32.01 -106.87)"/><path class="cls-2" d="M209.77,257.71c0,1.66-.58,3.34-1.3,3.75l-1.3.75-31.36,18.11a5,5,0,0,1-1.84.57,6.33,6.33,0,0,1-.76.05v-6.79a27.32,27.32,0,0,1,13.67-23.67l2.59-1.49,20.3-11.73Z" transform="translate(-32.01 -106.87)"/><g class="cls-16"><path d="M209.77,257.71c0,1.66-.58,3.34-1.3,3.75l-1.3.75-31.36,18.11a5,5,0,0,1-1.84.57,6.33,6.33,0,0,1-.76.05v-6.79a27.32,27.32,0,0,1,13.67-23.67l2.59-1.49,20.3-11.73Z" transform="translate(-32.01 -106.87)"/></g><polygon class="cls-5" points="184.49 185.15 196.77 185.11 214.33 174.96 214.33 174.96 197.12 187.4 184.17 187.58 184.49 185.15"/><path class="cls-5" d="M186.71,309.47s22.12-8.34,24-9.32a48,48,0,0,0,6.26-4.57,2.66,2.66,0,0,0-.33-3.57s-9-.41-11.31.3c-1.29.39-22.11,7.07-22.11,7.07Z" transform="translate(-32.01 -106.87)"/><path class="cls-7" d="M185.72,300.15c-1.83-1.57-3.67-.92-4.12,1.44a8.35,8.35,0,0,0,2.51,7.13c1.83,1.57,3.67.93,4.12-1.44A8.36,8.36,0,0,0,185.72,300.15Z" transform="translate(-32.01 -106.87)"/></g></svg>