<svg id="_1" data-name="1" xmlns="http://www.w3.org/2000/svg" viewBox="0 0 546.64 314.39"><defs><style>.cls-1{fill:#e4f0f8;}.cls-2{fill:#c9def2;}.cls-3{fill:#d1d3e6;}.cls-29,.cls-4{fill:#fff;}.cls-5{fill:#a5ccb5;}.cls-6{fill:#8db8a2;}.cls-7{fill:#81a699;}.cls-8{fill:#c1c3d4;}.cls-9{fill:#9a9db5;}.cls-10{fill:#50525d;}.cls-11{fill:#72679e;}.cls-12{fill:#877abb;}.cls-13{fill:#a898e9;}.cls-14{fill:#acb0c6;}.cls-15{fill:#dcdeea;}.cls-16{fill:#a668ab;}.cls-17{fill:#d683cb;}.cls-18{fill:#ff9ef1;}.cls-19{fill:#fa99ec;}.cls-20{fill:#8babc4;}.cls-21{fill:#a3c4d9;}.cls-22{fill:#b3d2e6;}.cls-23{fill:#cde7f7;}.cls-24{fill:#ffba7d;}.cls-25{fill:#dea266;}.cls-26{fill:#ffd1a3;}.cls-27{fill:#ccedff;}.cls-28{fill:#e9e8ea;}.cls-29{opacity:0.5;}.cls-30{fill:#a8a6ab;}.cls-31{fill:#fbf8ff;}.cls-32{fill:#bdbac0;}.cls-33{fill:#f2eff6;}.cls-34{fill:#2d2f38;}.cls-35{fill:#353742;}.cls-36{fill:#7a7d8b;}.cls-37{fill:#cf865e;}.cls-38{fill:#e4e1e8;}</style></defs><title>laundry-app</title><path class="cls-1" d="M563.9,230.5c-11.34-63.33-33.34-109.33-100-156-63-44.07-155.34-50.55-206-23.31C234,64,222.4,91.35,205.63,112.74a145.09,145.09,0,0,1-52.45,41.72c-34.24,16-70.62,7.37-105.2,54.85C27.14,237.91,27.56,298,43.27,316H544.93C558.56,301,570.66,268.28,563.9,230.5Z" transform="translate(-26.25 -29.69)"/><path class="cls-2" d="M320.07,334H320L43.84,316.92l-.27-.31c-15.69-17.93-28-78.37-3.13-110.72,25.75-33.43,52.8-35.43,79-37.36,12.15-.89,23.64-1.74,34.82-5.64,21.48-7.49,31.47-22.61,41.14-37.24,3-4.54,6.11-9.24,9.47-13.53,5.59-7.12,9.46-14.56,13.56-22.44,7.95-15.27,16.17-31.06,37.65-44,49-29.59,144.43-16.75,208.42,28,34.46,24.12,58.37,46.63,75.26,70.85,17.19,24.65,27.3,51.29,31.82,83.83,7.09,51-15.85,76.17-26.88,88.26l-.26.29-.4,0ZM44.8,315l275.26,17,223.4-17c10.92-12,33-36.68,26.11-86.34C560.83,165.71,531,122.72,463.32,75.32c-63.41-44.39-157.86-57.2-206.24-28C236.09,60,228,75.58,220.17,90.61c-4,7.61-8,15.48-13.75,22.74-3.32,4.23-6.26,8.69-9.38,13.41-9.85,14.9-20,30.3-42.15,38-11.43,4-23,4.84-35.34,5.75-25.72,1.9-52.32,3.86-77.53,36.58-14.37,18.66-14.46,45-13.24,59.11C30.52,286.22,36.94,305.72,44.8,315Z" transform="translate(-26.25 -29.69)"/><path class="cls-3" d="M43.27,316H544.93s-24.84,28.13-258.55,28.13S43.27,316,43.27,316Z" transform="translate(-26.25 -29.69)"/><path class="cls-4" d="M274.5,91s-1.93-9.55-2.58-10.21-10.39-2.88-10.39-2.88,9.57-2,10.24-2.62S274.62,65,274.62,65s1.93,9.55,2.59,10.21,10.38,2.88,10.38,2.88-9.7,2.08-10.41,2.79S274.5,91,274.5,91Z" transform="translate(-26.25 -29.69)"/><path class="cls-4" d="M472.1,126.53s-1.93-9.55-2.58-10.21-10.39-2.88-10.39-2.88,9.57-2,10.24-2.62,2.85-10.35,2.85-10.35,1.93,9.55,2.58,10.21,10.39,2.88,10.39,2.88-9.7,2.08-10.41,2.79S472.1,126.53,472.1,126.53Z" transform="translate(-26.25 -29.69)"/><path class="cls-4" d="M112.42,201.23s-1.24-6.13-1.66-6.55-6.66-1.85-6.66-1.85,6.14-1.25,6.57-1.68,1.83-6.64,1.83-6.64,1.24,6.12,1.66,6.55,6.66,1.85,6.66,1.85-6.22,1.33-6.68,1.79S112.42,201.23,112.42,201.23Z" transform="translate(-26.25 -29.69)"/><path class="cls-4" d="M365.52,59.36s-1.23-6.13-1.65-6.55S357.2,51,357.2,51s6.14-1.25,6.57-1.68,1.83-6.64,1.83-6.64,1.24,6.13,1.66,6.55S373.92,51,373.92,51s-6.22,1.33-6.68,1.79S365.52,59.36,365.52,59.36Z" transform="translate(-26.25 -29.69)"/><path class="cls-4" d="M534,216.36s-1.23-6.13-1.65-6.55S525.7,208,525.7,208s6.14-1.25,6.57-1.68,1.83-6.64,1.83-6.64,1.24,6.13,1.66,6.55,6.66,1.85,6.66,1.85-6.22,1.33-6.68,1.79S534,216.36,534,216.36Z" transform="translate(-26.25 -29.69)"/><path class="cls-4" d="M411,85A34.16,34.16,0,0,0,410,80.69a33.07,33.07,0,0,0-4.39-1.22,32.68,32.68,0,0,0,4.32-1.1A32.4,32.4,0,0,0,411.09,74a32.53,32.53,0,0,0,1.09,4.32,33.07,33.07,0,0,0,4.39,1.22,32.39,32.39,0,0,0-4.4,1.17A33,33,0,0,0,411,85Z" transform="translate(-26.25 -29.69)"/><path class="cls-4" d="M63.93,251.3A32.42,32.42,0,0,0,62.84,247a33.07,33.07,0,0,0-4.39-1.22,32.8,32.8,0,0,0,4.33-1.1,32.65,32.65,0,0,0,1.2-4.38,34.16,34.16,0,0,0,1.09,4.32,32.91,32.91,0,0,0,4.39,1.21,32.54,32.54,0,0,0-4.4,1.18A32.93,32.93,0,0,0,63.93,251.3Z" transform="translate(-26.25 -29.69)"/><path class="cls-5" d="M471.7,170.21s-30.68,15-42.65,36.26c-13.27,23.6-7.56,43.55-7.56,43.55a60.87,60.87,0,0,0,38.27-30A105.24,105.24,0,0,0,471.7,170.21Z" transform="translate(-26.25 -29.69)"/><path class="cls-6" d="M446.62,211.75l19.67-7.07c.18-.54.35-1.08.52-1.62l-19,6.83,23.93-37.74c0-1.25,0-1.94,0-1.94l-.65.33-15.12,23.84.25-14.93-1.5,1-.28,16a.59.59,0,0,0,.05.23l-15.31,24.15-2.58-24.66c-.45.5-.9,1-1.33,1.53L437.77,222a.66.66,0,0,0,.32.47L426.2,241.26,422.62,222c-.33,1.17-.62,2.33-.87,3.45L425,242.89a.76.76,0,0,0,.06.16l-3.8,6c.13.63.23,1,.23,1s.36-.07,1-.24l8.77-13.84a.7.7,0,0,0,.38,0h0l21.1-5.6c.48-.57,1-1.17,1.43-1.77l-21.92,5.82Z" transform="translate(-26.25 -29.69)"/><path class="cls-6" d="M421.59,250.82l.09,0a62.29,62.29,0,0,0,38.88-30.48c13.19-24.61,12-49.9,12-50.15a.86.86,0,0,0-.93-.76.85.85,0,0,0-.85.84c0,.25,1.14,25.15-11.85,49.39a60.38,60.38,0,0,1-37.66,29.61.8.8,0,0,0-.68.95A.88.88,0,0,0,421.59,250.82Z" transform="translate(-26.25 -29.69)"/><path class="cls-6" d="M101.83,221.45s29.49-5.7,57.51,10c25.13,14.08,32.54,36.13,32.54,36.13s-27.36,9.93-55.45-8.4A107.61,107.61,0,0,1,101.83,221.45Z" transform="translate(-26.25 -29.69)"/><path class="cls-7" d="M164.43,270.41A67.69,67.69,0,0,1,136,259.84c-23.38-15.25-34.77-37.81-34.88-38a.8.8,0,0,1,1.43-.71c.11.22,11.31,22.41,34.32,37.41,27.41,17.88,54.47,8.41,54.74,8.32a.79.79,0,0,1,1,.48.8.8,0,0,1-.47,1A65.18,65.18,0,0,1,164.43,270.41Z" transform="translate(-26.25 -29.69)"/><path class="cls-7" d="M166.22,255.3a1,1,0,0,1-.46.25L140,261.32c-.55-.31-1.1-.63-1.65-1l26.27-5.88-36.19-18.41-15.54,1.72-1-1.26,14.34-1.59-23.55-12c-.54-1-.81-1.5-.81-1.5l1-.17,26.21,13.33h0a.42.42,0,0,1,.48.27l12.25,6.23-6.64-18.61,1.78.4,6.85,19.2a0,0,0,0,0,0,0l34.47,17.54-7.12-20s0-.07,0-.11c.8.67,1.58,1.34,2.33,2l6.66,18.67a.67.67,0,0,1,0,.31l11.26,5.72c.32.8.47,1.25.47,1.25s-.33.12-.94.3L166.22,255.3Z" transform="translate(-26.25 -29.69)"/><path class="cls-5" d="M144.12,175.8s26.73,16.27,36.33,38c10.65,24.14,4.46,43.82,4.46,43.82s-22-6-32.74-31.65C141.61,200.76,144.12,175.8,144.12,175.8Z" transform="translate(-26.25 -29.69)"/><path class="cls-6" d="M164.41,218.35l-17.28-7.9c-.13-.55-.26-1.1-.38-1.64l16.7,7.64L144,177.73c.06-1.24.13-1.93.13-1.93l.57.35L157,200.61l.57-14.92c.43.36.86.72,1.29,1.1l-.61,16a.64.64,0,0,1,0,.24l12.45,24.76,3.63-24.51c.38.52.75,1.05,1.12,1.58L171.79,229a.66.66,0,0,1-.31.46l9.67,19.24,4.25-19.13c.23,1.19.42,2.36.59,3.49l-3.85,17.32a.46.46,0,0,1-.07.16l3.1,6.15c-.16.63-.26,1-.26,1s-.32-.09-.89-.29l-7.14-14.2a.53.53,0,0,1-.33,0h0l-18.63-6.51c-.4-.59-.8-1.2-1.19-1.82l19.36,6.76Z" transform="translate(-26.25 -29.69)"/><path class="cls-6" d="M184.77,258.44h-.07c-.23-.06-22.52-6.44-33.26-32.11-10.52-25.15-8.14-50.35-8.11-50.6a.8.8,0,0,1,.87-.72.81.81,0,0,1,.72.88c0,.25-2.37,25.06,8,49.82,10.44,25,32,31.13,32.21,31.19a.8.8,0,0,1-.35,1.55Z" transform="translate(-26.25 -29.69)"/><path class="cls-8" d="M432.29,302.69a2.44,2.44,0,0,1-2.44-2.44v-202a2.44,2.44,0,1,1,4.88,0v202A2.44,2.44,0,0,1,432.29,302.69Z" transform="translate(-26.25 -29.69)"/><path class="cls-9" d="M432.29,95.84a2.33,2.33,0,0,0-1.17.32,2.41,2.41,0,0,1,1.26,2.12v202a2.44,2.44,0,0,1-1.26,2.13,2.42,2.42,0,0,0,3.61-2.13v-202A2.44,2.44,0,0,0,432.29,95.84Z" transform="translate(-26.25 -29.69)"/><path class="cls-8" d="M432.29,100.72H287.43a2.44,2.44,0,0,1,0-4.88H432.29a2.44,2.44,0,0,1,0,4.88Z" transform="translate(-26.25 -29.69)"/><path class="cls-10" d="M276.43,306.9A6.7,6.7,0,0,0,285.25,317c3.42-2.79,3.1-6.69.47-9.56A6.26,6.26,0,0,0,276.43,306.9Z" transform="translate(-26.25 -29.69)"/><path class="cls-8" d="M278.35,309a3.84,3.84,0,0,0,5,5.77,3.55,3.55,0,0,0,.28-5.48A3.59,3.59,0,0,0,278.35,309Z" transform="translate(-26.25 -29.69)"/><path class="cls-9" d="M281.21,313.36a1.85,1.85,0,0,1-1.85-1.85V299.84a1.86,1.86,0,0,1,3.71,0v11.67A1.85,1.85,0,0,1,281.21,313.36Z" transform="translate(-26.25 -29.69)"/><path class="cls-10" d="M434.16,306.9A6.69,6.69,0,0,0,443,317c3.42-2.79,3.1-6.69.48-9.56A6.26,6.26,0,0,0,434.16,306.9Z" transform="translate(-26.25 -29.69)"/><path class="cls-8" d="M436.07,309a3.84,3.84,0,0,0,5.06,5.77c2-1.6,1.77-3.84.27-5.48A3.59,3.59,0,0,0,436.07,309Z" transform="translate(-26.25 -29.69)"/><path class="cls-9" d="M438.94,313.36a1.85,1.85,0,0,1-1.85-1.85V299.84a1.85,1.85,0,0,1,3.7,0v11.67A1.85,1.85,0,0,1,438.94,313.36Z" transform="translate(-26.25 -29.69)"/><path class="cls-11" d="M392.22,114.45s14,2.13,21.87,2.61,22.11-2.38,22.11-2.38-7.14,10.46-22.35,10.23S392.22,114.45,392.22,114.45Z" transform="translate(-26.25 -29.69)"/><path class="cls-10" d="M413.47,109.79a.77.77,0,0,1-.76-.77V103.5a.75.75,0,0,1,.48-.7c3.52-1.41,4.36-4,4-5.87a3.66,3.66,0,0,0-3.73-3.07A4.18,4.18,0,0,0,409.86,96a2.12,2.12,0,0,0,0,2.21.76.76,0,1,1-1.26.85,3.63,3.63,0,0,1,0-3.78,5.64,5.64,0,0,1,5-2.92,5.18,5.18,0,0,1,5.22,4.3c.45,2.3-.48,5.56-4.46,7.37v5A.77.77,0,0,1,413.47,109.79Z" transform="translate(-26.25 -29.69)"/><path class="cls-10" d="M413.72,123.88c-8.3,0-16.05-.16-21.81-.44-10.61-.53-10.61-1.26-10.61-2.1,0-.61,0-2.45,32.09-13.08a.67.67,0,0,1,.24,0h.2a.67.67,0,0,1,.24,0c32.08,10.63,32.08,12.47,32.08,13.08C446.15,122.17,446.15,123.88,413.72,123.88Zm-30.38-2.72c7,1.69,53.8,1.69,60.77,0-3.18-1.93-17.37-7.1-30.38-11.41C400.72,114.06,386.52,119.23,383.34,121.16Z" transform="translate(-26.25 -29.69)"/><path class="cls-12" d="M392.22,114.45a51.33,51.33,0,0,0,20.92,5.94c11.41.47,23.06-5.71,23.06-5.71s11.17,3.33,14,6.42,3.57,32.1,3.57,49.69,1.42,33,.71,38.75L449,211.68l-.23,5.94a284,284,0,0,1-35.43,2.85,178.31,178.31,0,0,1-33-2.61l-.24-6.66s-5.23-.47-8.08-.95a379,379,0,0,1,.47-43.74c1-14.74,2.62-39.94,4.28-45.41C377.54,118.56,392.22,114.45,392.22,114.45Z" transform="translate(-26.25 -29.69)"/><path class="cls-11" d="M391.74,197.41c-.24-12.6.71-43.74-1.19-42.79s-2.37,30.91-2.85,40.65A144.79,144.79,0,0,1,386,211.68c-1.91,0-6-.48-6-.48l.24,6.66s4.62.91,12,1.65C392.14,214.27,391.89,205.51,391.74,197.41Z" transform="translate(-26.25 -29.69)"/><path class="cls-11" d="M440,192c-.24-10.94.24-37.57-1.19-38s-.71,28.29-.71,45.88c0,8.32,0,14.71.11,19.15,6.43-.68,10.59-1.32,10.59-1.32l.23-5.94c-2.61.95-8.32,1.42-8.32,1.42S440.24,202.88,440,192Z" transform="translate(-26.25 -29.69)"/><path class="cls-11" d="M421.62,199.81a.57.57,0,0,1-.18,0A56.7,56.7,0,0,1,400,186.94a.57.57,0,0,1,.79-.83,55.43,55.43,0,0,0,21,12.58.57.57,0,0,1-.17,1.12Z" transform="translate(-26.25 -29.69)"/><path class="cls-11" d="M418.9,203.62a.39.39,0,0,1-.15,0c-3.79-1-10.61-5.66-10.9-5.86a.57.57,0,1,1,.64-.94c.07,0,7,4.72,10.56,5.7a.56.56,0,0,1,.4.7A.58.58,0,0,1,418.9,203.62Z" transform="translate(-26.25 -29.69)"/><path class="cls-11" d="M422.1,129.61a.57.57,0,0,1,0-1.14,16.44,16.44,0,0,0,8-2.18.57.57,0,0,1,.78.22.56.56,0,0,1-.21.77,17.64,17.64,0,0,1-8.51,2.33Z" transform="translate(-26.25 -29.69)"/><path class="cls-11" d="M375.15,183h0a.57.57,0,0,1-.54-.6c.05-1.33.08-2.76.11-4.18.07-2.83.13-5.75.37-7.89a.57.57,0,0,1,.63-.51.56.56,0,0,1,.5.63c-.23,2.09-.29,5-.36,7.8,0,1.43-.06,2.86-.11,4.2A.59.59,0,0,1,375.15,183Z" transform="translate(-26.25 -29.69)"/><path class="cls-11" d="M450.71,175.08a.56.56,0,0,1-.57-.55l-.26-12.38a.56.56,0,0,1,.56-.58.59.59,0,0,1,.58.56l.26,12.37a.56.56,0,0,1-.56.58Z" transform="translate(-26.25 -29.69)"/><path class="cls-11" d="M405.31,125.76a51.35,51.35,0,0,0,9,.79c10.56,0,20.69-3.29,28.24-9.37a.47.47,0,0,0,.13-.25l-1.13-.43a38,38,0,0,1-4.83,3.23l-3.81-3.51-1.17.47,3.93,3.62a41.8,41.8,0,0,1-4.67,2.1l-3.23-4.3-1.16.36,3.28,4.35a45.67,45.67,0,0,1-7,1.83l-.77-5.06-1.12.21.76,5c-.64.1-1.28.19-1.93.26l-1-5-1.14.13,1,5a48.82,48.82,0,0,1-6.18.16l.46-5c-.38,0-.76-.05-1.14-.07l-.46,5a50,50,0,0,1-5.81-.68l-.69-.14,2.35-4.79-1.15-.24-2.35,4.8c-.73-.16-1.45-.33-2.17-.52l2.56-4.73c-.38-.1-.76-.19-1.13-.3l-2.57,4.74c-1.37-.38-2.72-.83-4.06-1.32l3.31-4.46-1.12-.4-3.31,4.45a55.68,55.68,0,0,1-5.11-2.29l5.95-3.15c-.48-.21-.93-.4-1.33-.59l-5.84,3.1q-1.85-1-3.6-2.13l-1.21.43a.53.53,0,0,0,.2.29A56.88,56.88,0,0,0,405.31,125.76Z" transform="translate(-26.25 -29.69)"/><path class="cls-11" d="M454.68,202.85A41.88,41.88,0,0,1,438.94,207a.57.57,0,0,0-.54.6.58.58,0,0,0,.57.54h0a39.54,39.54,0,0,0,4.19-.49l.32,7.23a.58.58,0,0,0,.57.55h0a.56.56,0,0,0,.54-.6l-.32-7.36c1-.2,2.06-.45,3.08-.72l.81,7a.58.58,0,0,0,.57.51h.07l.06,0,.1-2.55.1,0-.6-5.17c1-.31,2.06-.64,3.06-1l0,5.25,1.15-.45.05-5.28c.66-.27,1.3-.58,1.95-.89C454.69,203.68,454.69,203.27,454.68,202.85Z" transform="translate(-26.25 -29.69)"/><path class="cls-11" d="M382.45,205.92l-.9,6.63a.57.57,0,0,0,.49.64h.08a.57.57,0,0,0,.56-.5l.91-6.71c1.23.08,2.42.13,3.47.13.76,0,1.45,0,2.07-.07a.56.56,0,0,0,.52-.61.58.58,0,0,0-.61-.53c-4.37.34-12.82-.67-17.3-1.56,0,.4,0,.8,0,1.17.71.14,1.46.27,2.25.4l.12,5.64,1.14.14-.12-5.6c.94.14,1.91.27,2.89.38l-.37,5.48,1.14.12.37-5.47C380.29,205.73,381.38,205.84,382.45,205.92Z" transform="translate(-26.25 -29.69)"/><path class="cls-11" d="M388.53,211.26v1.13c2.34.33,4.68.64,7,.88l-.06,6.54,1.14.09.06-6.49c1.54.15,3.1.25,4.66.36l.59,6.47c.38,0,.76,0,1.15.06l-.59-6.45c.62,0,1.24.1,1.85.13,0,1.22,0,2.38,0,3.53,0,.93,0,1.87,0,2.84l1.14,0c0-1,0-1.95,0-2.9,0-1.12,0-2.24,0-3.42,1.71.08,3.45.11,5.17.15l.36,6.26h1.14l-.35-6.24c1.06,0,2.11.08,3.17.08l.7,0,.09,6.12,1.14,0-.09-6.12,1.54,0,.29,6.1,1.14,0-.28-6.08c1.86,0,3.74-.1,5.62-.2l.55,6,1.14-.07-.55-6,2.16-.14.17,6,1.14-.08-.17-6c1.61-.12,3.23-.26,4.85-.42l-.11,6,1.14-.11.11-6c1.31-.13,2.62-.28,3.93-.43v-1.12A190.93,190.93,0,0,1,388.53,211.26Z" transform="translate(-26.25 -29.69)"/><path class="cls-13" d="M372,210.44a.57.57,0,0,1-.57-.53,376.11,376.11,0,0,1,.48-43.44l.34-4.94c1-15,2.45-35.64,4-40.59.82-2.71,13.34-6.34,15.84-7a.57.57,0,0,1,.71.39.59.59,0,0,1-.4.71c-7.07,2-14.63,4.86-15.06,6.27-1.47,4.83-2.88,25.35-3.91,40.34l-.35,4.94a374.75,374.75,0,0,0-.47,43.29.57.57,0,0,1-.54.6Z" transform="translate(-26.25 -29.69)"/><path class="cls-13" d="M440.71,213.1a.57.57,0,0,1-.57-.54c0-.1-.47-9.78-.71-20.6-.08-3.57-.12-7.82-.17-12.28-.09-9-.2-19.23-.62-25.73a.57.57,0,1,1,1.14-.08c.43,6.53.53,16.77.62,25.8.05,4.45.09,8.7.17,12.26.24,10.81.71,20.48.71,20.58a.56.56,0,0,1-.54.59Z" transform="translate(-26.25 -29.69)"/><path class="cls-8" d="M412.21,100.68h-6a2.44,2.44,0,1,1,0-4.87h6a2.44,2.44,0,1,1,0,4.87Z" transform="translate(-26.25 -29.69)"/><path class="cls-14" d="M378.28,110.63s8-2.34,13-2.14a75.67,75.67,0,0,1,13.39,2.14l1.9,64.9,1.43,68.7s-19.73,1.19-31.62-.48Z" transform="translate(-26.25 -29.69)"/><path class="cls-9" d="M383.5,207.32c0-13-.24-42.74-.24-54.53-.19-17.36-1-35.57-1.3-43.1-2.15.49-3.68.94-3.68.94l-1.9,133.12c2.24.32,4.75.53,7.36.67C383.68,238.81,383.5,218.48,383.5,207.32Z" transform="translate(-26.25 -29.69)"/><path class="cls-10" d="M391.21,109.79a.77.77,0,0,1-.76-.77V103.5a.75.75,0,0,1,.48-.7c3.52-1.41,4.36-4,4-5.87a3.66,3.66,0,0,0-3.73-3.07,4.15,4.15,0,0,0-3.6,2.12,2.1,2.1,0,0,0-.05,2.21.76.76,0,1,1-1.26.85,3.63,3.63,0,0,1,0-3.78,5.64,5.64,0,0,1,4.95-2.92,5.19,5.19,0,0,1,5.23,4.3c.44,2.3-.49,5.56-4.47,7.37v5A.77.77,0,0,1,391.21,109.79Z" transform="translate(-26.25 -29.69)"/><path class="cls-10" d="M391.48,123.88c-8.31,0-16.05-.16-21.81-.44-10.62-.53-10.62-1.26-10.62-2.1,0-.61,0-2.45,32.08-13.08a.67.67,0,0,1,.24,0h.2a.67.67,0,0,1,.24,0c32.1,10.63,32.1,12.47,32.1,13.08C423.91,122.17,423.91,123.88,391.48,123.88Zm-30.38-2.72c7,1.69,53.8,1.69,60.76,0-3.18-1.93-17.38-7.1-30.39-11.41C378.47,114.06,364.28,119.23,361.1,121.16Z" transform="translate(-26.25 -29.69)"/><path class="cls-8" d="M379.71,155.79c0,11.42.24,40.18.24,52.78s.23,37.32.23,37.32-14.26-1.18-19.73-3.32c0,0,0-18.78-.24-34.71s1-84.4,1-84.4L374.48,119Z" transform="translate(-26.25 -29.69)"/><path class="cls-8" d="M404.19,154.61c0,11.41.08,26.15-.08,39.93-.14,12.6.77,51.35.77,51.35s14.26-1.18,19.73-3.32c0,0,0-18.78.24-34.71s-1.19-88.2-1.19-88.2l-13.32-4.52Z" transform="translate(-26.25 -29.69)"/><path class="cls-14" d="M412,190c-.16,16.8-.63,23.14,0,23.93s9.67,1.58,9.67,1.58.11,18.95.15,27.94a25.68,25.68,0,0,0,2.75-.83s0-18.78.24-34.71c.12-8.39-.22-32.38-.56-53.23l-10.51-2.08C412.36,152.86,412.2,173.15,412,190Z" transform="translate(-26.25 -29.69)"/><path class="cls-8" d="M426.3,121.32c1,2.05,2.86,27.34,3.33,44.93.38,13.88.73,41.35.73,41.35a48.54,48.54,0,0,1-16.17,0s-.95-17.24-.71-38.52.24-54.41.24-54.41S425.35,119.31,426.3,121.32Z" transform="translate(-26.25 -29.69)"/><path class="cls-15" d="M414.19,208.17a.58.58,0,0,1-.57-.54c0-.17-.95-17.51-.71-38.55,0-4.52.09-9.57.12-14.72a.57.57,0,0,1,.57-.56.53.53,0,0,1,.57.57c0,5.15-.07,10.2-.12,14.72-.24,21,.7,38.31.71,38.48a.57.57,0,0,1-.54.6Z" transform="translate(-26.25 -29.69)"/><path class="cls-15" d="M430.9,201.83c0,5-.08,8.33-.08,8.33a51.41,51.41,0,0,1-17.06,0s-.17-3.13-.36-8.37A68.73,68.73,0,0,0,430.9,201.83Z" transform="translate(-26.25 -29.69)"/><path class="cls-15" d="M404.43,110.39s-.47,28.68-.23,44.22c1.66,0,7.88-26.58,10.37-40.58A49.7,49.7,0,0,0,404.43,110.39Z" transform="translate(-26.25 -29.69)"/><path class="cls-9" d="M407.63,159.19a1.67,1.67,0,0,0,0,3.34,1.56,1.56,0,0,0,1.68-1.72A1.57,1.57,0,0,0,407.63,159.19Z" transform="translate(-26.25 -29.69)"/><path class="cls-9" d="M408,185.94a1.67,1.67,0,0,0,0,3.34,1.55,1.55,0,0,0,1.68-1.72A1.57,1.57,0,0,0,408,185.94Z" transform="translate(-26.25 -29.69)"/><path class="cls-9" d="M408.35,212.69a1.67,1.67,0,0,0,0,3.34,1.55,1.55,0,0,0,1.68-1.71A1.58,1.58,0,0,0,408.35,212.69Z" transform="translate(-26.25 -29.69)"/><path class="cls-14" d="M373.05,180.91c0-11.72-.95-27.73-1.74-27.89s-11.13,48.56-11.13,48.56c0,2.53,0,4.68,0,6.28,0,2.38.07,4.83.1,7.28,2.09-.06,9.57-.31,12.42-1.26C372.73,213.88,373.05,192.64,373.05,180.91Z" transform="translate(-26.25 -29.69)"/><path class="cls-8" d="M357.36,120.71c-1,2.05-2.14,25.58-2.61,41.74-.41,13.88-.24,45.37-.24,45.37a48.49,48.49,0,0,0,16.16,0s1-17.24.72-38.51-.24-54.42-.24-54.42S358.31,118.7,357.36,120.71Z" transform="translate(-26.25 -29.69)"/><path class="cls-15" d="M354.51,208.39a.56.56,0,0,1-.57-.56c0-.32-.17-31.67.24-45.4.35-12.13,1.52-39.53,2.67-42,1-2.14,11.95-5.48,14.14-6.13a.59.59,0,0,1,.71.39.58.58,0,0,1-.39.71c-6.19,1.83-12.91,4.4-13.43,5.52-.84,1.78-2,23.31-2.56,41.51-.41,13.71-.24,45-.24,45.35a.57.57,0,0,1-.57.57Z" transform="translate(-26.25 -29.69)"/><path class="cls-15" d="M378.28,110.63s2.38,37.64,1.43,45.16c-1.43-.07-8.08-15.8-10.94-40.81A42.16,42.16,0,0,1,378.28,110.63Z" transform="translate(-26.25 -29.69)"/><path class="cls-15" d="M354,202.05c0,5,.08,8.33.08,8.33a51.41,51.41,0,0,0,17.06,0s.17-3.12.35-8.37A68.64,68.64,0,0,1,354,202.05Z" transform="translate(-26.25 -29.69)"/><path class="cls-8" d="M357.09,204.93a1.46,1.46,0,0,0,0,2.91,1.35,1.35,0,0,0,1.47-1.49A1.38,1.38,0,0,0,357.09,204.93Z" transform="translate(-26.25 -29.69)"/><path class="cls-8" d="M427.23,204.93a1.46,1.46,0,0,0,0,2.91,1.34,1.34,0,0,0,1.46-1.49A1.38,1.38,0,0,0,427.23,204.93Z" transform="translate(-26.25 -29.69)"/><path class="cls-14" d="M427.57,199.08a.57.57,0,0,1-.57-.55c-.07-1.88-.11-4-.16-6.26-.08-4.07-.17-8.67-.47-13.54a.57.57,0,0,1,1.14-.07c.3,4.89.39,9.51.47,13.59,0,2.27.09,4.36.16,6.23a.57.57,0,0,1-.55.6Z" transform="translate(-26.25 -29.69)"/><path class="cls-14" d="M423.33,122.38a.61.61,0,0,1-.31-.09,33.15,33.15,0,0,0-6.5-3.32.57.57,0,0,1,.41-1.07,34.19,34.19,0,0,1,6.71,3.43.57.57,0,0,1,.17.79A.56.56,0,0,1,423.33,122.38Z" transform="translate(-26.25 -29.69)"/><path class="cls-14" d="M358.93,122.78a.57.57,0,0,1-.28-1.07,34.13,34.13,0,0,1,6.94-2.94.56.56,0,0,1,.71.37.58.58,0,0,1-.38.72,33,33,0,0,0-6.72,2.85A.64.64,0,0,1,358.93,122.78Z" transform="translate(-26.25 -29.69)"/><path class="cls-14" d="M364,231.88a.56.56,0,0,1-.57-.56c0-3.18,0-6.68-.09-9.19a.58.58,0,0,1,.57-.58.6.6,0,0,1,.58.56c0,2.51.06,6,.08,9.2a.57.57,0,0,1-.57.57Z" transform="translate(-26.25 -29.69)"/><path class="cls-14" d="M364,239.81a.58.58,0,0,1-.57-.57v-4.75a.57.57,0,0,1,.57-.58h0a.58.58,0,0,1,.57.57v4.76a.57.57,0,0,1-.57.57Z" transform="translate(-26.25 -29.69)"/><path class="cls-8" d="M390.06,100.68h-6a2.44,2.44,0,1,1,0-4.87h6a2.44,2.44,0,1,1,0,4.87Z" transform="translate(-26.25 -29.69)"/><path class="cls-16" d="M354.48,107c1.95-.62,10.5-3.29,19,.07l2,11.9-13.15,4.47-8.71-8.6Z" transform="translate(-26.25 -29.69)"/><path class="cls-10" d="M364.06,109.79h0a.77.77,0,0,1-.76-.77l0-5.52a.75.75,0,0,1,.48-.7c3.53-1.4,4.38-4,4-5.86a3.67,3.67,0,0,0-3.73-3.08h0a4.18,4.18,0,0,0-3.6,2.1,2.14,2.14,0,0,0-.05,2.22.76.76,0,1,1-1.26.84,3.61,3.61,0,0,1,0-3.78,5.64,5.64,0,0,1,4.94-2.9h0a5.19,5.19,0,0,1,5.21,4.32c.44,2.3-.5,5.56-4.49,7.35l0,5A.76.76,0,0,1,364.06,109.79Z" transform="translate(-26.25 -29.69)"/><path class="cls-10" d="M367.4,123.89h-3.13c-32.42-.11-32.42-1.83-32.41-2.66,0-.6,0-2.45,32.12-13a1.07,1.07,0,0,1,.25,0h.2a.59.59,0,0,1,.23,0c32.06,10.75,32,12.59,32,13.2C396.71,122.26,396.7,123.89,367.4,123.89ZM333.9,121c7,1.73,53.8,1.9,60.77.23-3.18-1.94-17.36-7.16-30.35-11.52C351.3,114,337.09,119.13,333.9,121Z" transform="translate(-26.25 -29.69)"/><path class="cls-17" d="M354.54,110.64c-3.16,1.36-21.25,6.1-23.37,10.67s-1.53,26.09-1,47.55-.32,36.27-.18,42.1a158.51,158.51,0,0,0,33.16,3.87c17.66.07,35.17-5.08,35.17-5.08s-.55-26.47-.79-41.26,1.4-44.9-.19-47.62c-.94-1.61-23.29-10.16-23.29-10.16S369.15,120,364,119.94,354.54,110.64,354.54,110.64Z" transform="translate(-26.25 -29.69)"/><path class="cls-16" d="M365,183.84c-.08-22-.17-46.91-.54-63.42a.52.52,0,0,0-.42-.49h-.19a.54.54,0,0,0-.41.52c.37,16.5.46,41.41.54,63.4,0,12.1.08,23,.16,31h1C365.11,206.81,365.07,195.94,365,183.84Z" transform="translate(-26.25 -29.69)"/><path class="cls-16" d="M371.29,130.51c5-4.86,8.55-9.52,9.29-17.26-3.68-1.46-6.49-2.54-6.49-2.54S369.15,120,364,119.94l.39,2.22Z" transform="translate(-26.25 -29.69)"/><path class="cls-18" d="M373.52,107.06s-4,8.78-9.59,12.88l6.92,8.35c4.37-5.66,8-9.45,8.65-16.53C379.5,111.76,375.72,108,373.52,107.06Z" transform="translate(-26.25 -29.69)"/><path class="cls-16" d="M370.64,137.79a1.43,1.43,0,0,0-2.1.23,1.66,1.66,0,0,0,.29,2.3,1.38,1.38,0,0,0,2.2-.27A1.62,1.62,0,0,0,370.64,137.79Z" transform="translate(-26.25 -29.69)"/><path class="cls-16" d="M371.21,202.7a1.43,1.43,0,0,0-2.1.24,1.65,1.65,0,0,0,.29,2.3,1.38,1.38,0,0,0,2.19-.27A1.62,1.62,0,0,0,371.21,202.7Z" transform="translate(-26.25 -29.69)"/><path class="cls-16" d="M370.81,179.86a1.43,1.43,0,0,0-2.1.24,1.64,1.64,0,0,0,.29,2.29,1.36,1.36,0,0,0,2.19-.27A1.61,1.61,0,0,0,370.81,179.86Z" transform="translate(-26.25 -29.69)"/><path class="cls-16" d="M370.57,158.74a1.42,1.42,0,0,0-2.1.23,1.65,1.65,0,0,0,.29,2.3A1.37,1.37,0,0,0,371,161,1.62,1.62,0,0,0,370.57,158.74Z" transform="translate(-26.25 -29.69)"/><path class="cls-18" d="M370,137.13a1.42,1.42,0,0,0-2.09.24,1.64,1.64,0,0,0,.28,2.29,1.38,1.38,0,0,0,2.2-.26A1.62,1.62,0,0,0,370,137.13Z" transform="translate(-26.25 -29.69)"/><path class="cls-18" d="M370.6,202.05a1.42,1.42,0,0,0-2.1.24,1.64,1.64,0,0,0,.29,2.29,1.37,1.37,0,0,0,2.19-.27A1.61,1.61,0,0,0,370.6,202.05Z" transform="translate(-26.25 -29.69)"/><path class="cls-18" d="M370.2,179.21a1.43,1.43,0,0,0-2.1.23,1.66,1.66,0,0,0,.29,2.3,1.38,1.38,0,0,0,2.2-.27A1.62,1.62,0,0,0,370.2,179.21Z" transform="translate(-26.25 -29.69)"/><path class="cls-18" d="M370,158.08a1.43,1.43,0,0,0-2.1.24,1.65,1.65,0,0,0,.29,2.3,1.38,1.38,0,0,0,2.19-.27A1.62,1.62,0,0,0,370,158.08Z" transform="translate(-26.25 -29.69)"/><path class="cls-16" d="M330.07,163.5c4.52,1.22,12.83,1.66,13.46.59.75-1.27,1.12-23.61-.8-23.46s-1.55,16-1.55,16l-11.25,1.26C330,159.74,330,161.61,330.07,163.5Z" transform="translate(-26.25 -29.69)"/><path class="cls-16" d="M357.59,130.7l7.42-9c-1.07-.93-1.67-1.45-2.26-2-4.6-1.28-8.21-9.11-8.21-9.11-1,.42-3.41,1.17-6.36,2.14C349.11,119.82,352.13,124.81,357.59,130.7Z" transform="translate(-26.25 -29.69)"/><path class="cls-16" d="M397.57,168.49c-.06-3.71,0-8.37.09-13.33L386,141.58c-2.08-.17-1.52,7.76-1.69,13.94-.21,7.62.56,10.62,2.78,10.79l6.67.5s.57,6.82.95,25c.15,7.52.44,13.83.72,18.68,1.84-.47,2.9-.78,2.9-.78S397.81,183.28,397.57,168.49Z" transform="translate(-26.25 -29.69)"/><path class="cls-17" d="M332.86,119.83c-6.43,3.45-7.15,19.8-9,35.34,0,0-.84,2.07,4.83,2.85a53.1,53.1,0,0,0,12.82.37s1.79-30.27,1.81-35.48Z" transform="translate(-26.25 -29.69)"/><path class="cls-19" d="M323.89,155.7h-.06a.54.54,0,0,1-.47-.59c.32-2.7.59-5.42.85-8.1,1.15-11.68,2.24-22.71,7-26.69,2.51-3.39,12.87-6.76,19.06-8.77,1.87-.61,3.35-1.1,4-1.4a.53.53,0,0,1,.42,1c-.74.32-2.24.81-4.14,1.43-5.67,1.84-16.22,5.28-18.63,8.49-4.53,3.79-5.59,14.61-6.72,26.07-.26,2.69-.53,5.42-.85,8.12A.53.53,0,0,1,323.89,155.7Z" transform="translate(-26.25 -29.69)"/><path class="cls-18" d="M331.15,155.32c-6.29-.87-8.19-1.87-8.19-1.87l-.66,5.2s2.06,1.16,7.17,1.89c8.43,1.21,12.79,0,12.79,0a18.18,18.18,0,0,0,.29-5.07A39.62,39.62,0,0,1,331.15,155.32Z" transform="translate(-26.25 -29.69)"/><path class="cls-17" d="M396.27,120.08c6.45,2.39,8.18,19.13,8.66,34.8,0,0,.7,3.14-5,4.22a54.92,54.92,0,0,1-13.26,1s-1.25-31.41-1.16-36.73Z" transform="translate(-26.25 -29.69)"/><path class="cls-16" d="M399.57,127.89a.53.53,0,0,1-.49-.33c-1.09-2.78-2.12-4.41-4.75-5.59a.53.53,0,0,1,.43-1c2.95,1.32,4.13,3.19,5.3,6.16a.54.54,0,0,1-.3.69A.63.63,0,0,1,399.57,127.89Z" transform="translate(-26.25 -29.69)"/><path class="cls-16" d="M390.62,155.26h-.35a.53.53,0,1,1,0-1h0a36.41,36.41,0,0,0,8.34-1.05.52.52,0,0,1,.62.4.52.52,0,0,1-.39.63A38.73,38.73,0,0,1,390.62,155.26Z" transform="translate(-26.25 -29.69)"/><path class="cls-18" d="M354.48,107s3.91,8.81,9.5,13l-7,8.3c-4.66-5.66-7.66-9.72-8.53-16.59C348.47,111.65,352.53,107.77,354.48,107Z" transform="translate(-26.25 -29.69)"/><path class="cls-19" d="M386.64,160.66a.52.52,0,0,1-.52-.5l-.71-18.56a.53.53,0,0,1,.51-.55c.27-.06.53.22.54.51l.71,18.56a.52.52,0,0,1-.51.54Z" transform="translate(-26.25 -29.69)"/><path class="cls-18" d="M397.47,156.63a24.58,24.58,0,0,0,8-3.54l.34,5.12s-2.39,2.37-7.74,3.65a33.05,33.05,0,0,1-12.22.61,18.46,18.46,0,0,1-.19-5.17A34,34,0,0,0,397.47,156.63Z" transform="translate(-26.25 -29.69)"/><path class="cls-16" d="M369.74,169.37a.51.51,0,0,1-.17,0,33,33,0,0,1-11.39-6.89.53.53,0,0,1,0-.75.53.53,0,0,1,.74,0,32,32,0,0,0,11,6.68.52.52,0,0,1,.32.67A.54.54,0,0,1,369.74,169.37Z" transform="translate(-26.25 -29.69)"/><path class="cls-16" d="M367.38,173.09l-.16,0a12.79,12.79,0,0,1-6.2-4.28.53.53,0,1,1,.83-.65,11.78,11.78,0,0,0,5.68,3.93.51.51,0,0,1,.35.65A.53.53,0,0,1,367.38,173.09Z" transform="translate(-26.25 -29.69)"/><path class="cls-16" d="M363.52,215.36h-.33a160.38,160.38,0,0,1-33.29-3.89.53.53,0,0,1,.25-1,160,160,0,0,0,33.05,3.86h.32c17.27,0,34.51-5,34.69-5.06a.53.53,0,1,1,.29,1C398.33,210.31,380.94,215.36,363.52,215.36Z" transform="translate(-26.25 -29.69)"/><path class="cls-16" d="M336.51,153.89a26.84,26.84,0,0,1-5.65-.6.53.53,0,1,1,.22-1,26.07,26.07,0,0,0,6.83.54.53.53,0,0,1,.55.5.53.53,0,0,1-.5.55C337.48,153.88,337,153.89,336.51,153.89Z" transform="translate(-26.25 -29.69)"/><path class="cls-16" d="M333.44,207.8h0a.53.53,0,0,1-.52-.53l.16-16.65a.52.52,0,0,1,.53-.52h0a.52.52,0,0,1,.52.53L334,207.28A.53.53,0,0,1,333.44,207.8Z" transform="translate(-26.25 -29.69)"/><path class="cls-16" d="M336.07,209.18h0a.53.53,0,0,1-.51-.54l.09-6.5a.53.53,0,0,1,.52-.52h0a.54.54,0,0,1,.52.54l-.09,6.5A.54.54,0,0,1,336.07,209.18Z" transform="translate(-26.25 -29.69)"/><path class="cls-8" d="M362.47,100.68h-6a2.44,2.44,0,1,1,0-4.87h6a2.44,2.44,0,1,1,0,4.87Z" transform="translate(-26.25 -29.69)"/><path class="cls-20" d="M345.53,138.87a.86.86,0,0,1-.86-.85c-.05-10.06.15-22.3,1.44-23.48a1,1,0,0,1,.79-.26.86.86,0,0,1,.39,1.56c-.64,1.68-1,12.42-.91,22.17a.85.85,0,0,1-.85.86Zm1.2-22.89Z" transform="translate(-26.25 -29.69)"/><path class="cls-20" d="M303.92,138.87h0a.86.86,0,0,1-.85-.86c.06-9.75-.27-20.49-.9-22.17a.86.86,0,0,1-.38-.63.85.85,0,0,1,.77-.93,1,1,0,0,1,.78.26c1.29,1.18,1.5,13.42,1.44,23.48A.85.85,0,0,1,303.92,138.87ZM302.72,116Z" transform="translate(-26.25 -29.69)"/><path class="cls-10" d="M324.07,109.79a.77.77,0,0,1-.76-.77V103.5a.74.74,0,0,1,.47-.7c3.53-1.41,4.37-4,4-5.87a3.67,3.67,0,0,0-3.73-3.07A4.16,4.16,0,0,0,320.46,96a2.1,2.1,0,0,0,0,2.21.77.77,0,0,1-.21,1.06.76.76,0,0,1-1-.21,3.61,3.61,0,0,1,0-3.78,5.64,5.64,0,0,1,4.95-2.92,5.18,5.18,0,0,1,5.22,4.3c.45,2.3-.48,5.56-4.46,7.37v5A.77.77,0,0,1,324.07,109.79Z" transform="translate(-26.25 -29.69)"/><path class="cls-10" d="M324.34,123.88c-8.31,0-16.06-.16-21.81-.44-10.62-.53-10.62-1.26-10.62-2.1,0-.61,0-2.45,32.08-13.08a.67.67,0,0,1,.24,0h.2a.67.67,0,0,1,.24,0c32.09,10.63,32.09,12.47,32.09,13.08C356.76,122.17,356.76,123.88,324.34,123.88ZM294,121.16c7,1.69,53.81,1.69,60.77,0-3.18-1.93-17.38-7.1-30.39-11.41C311.32,114.06,297.13,119.23,294,121.16Z" transform="translate(-26.25 -29.69)"/><path class="cls-20" d="M343.92,267.4s6.55-1.8,10-3.79c2.82-1.63-2.89-43.39-2.89-43.39l-10,2.6Z" transform="translate(-26.25 -29.69)"/><path class="cls-21" d="M300.58,137.87h0a.85.85,0,0,1-.85-.86c.1-6.83.68-20.3,2.23-22.39a.85.85,0,0,1,1.19-.18.86.86,0,0,1,.18,1.2c-.78,1.06-1.73,9.91-1.89,21.39A.84.84,0,0,1,300.58,137.87Z" transform="translate(-26.25 -29.69)"/><path class="cls-21" d="M348.87,137.87A.86.86,0,0,1,348,137c-.16-11.48-1.1-20.33-1.89-21.39a.86.86,0,1,1,1.38-1c1.54,2.09,2.13,15.56,2.22,22.39a.84.84,0,0,1-.84.86Z" transform="translate(-26.25 -29.69)"/><path class="cls-22" d="M298.45,135.85a85.88,85.88,0,0,1,25.82,6.8s10.79-5.6,27.16-7.6c0,0,.39,6,0,19.4-.29,10.19,3.86,40.58,4.63,65.37s.77,35.39,1,44.19c0,0-2.85,3.6-5.23,3.24,0,0-.39-38.51-1.78-38.39s-1,39.34-1,39.34c-3.4,2.89-14.14-.36-14.14-.36-4.38.66-14.42,6.66-25.67-.63,0,0-11.1,3.33-15.22-2.41-2.43-3.38-.16-31.35.79-50.21,1.18-23.4,3.45-50.35,3.64-58.35C298.56,151.84,298.07,138.45,298.45,135.85Z" transform="translate(-26.25 -29.69)"/><path class="cls-23" d="M324.65,163c16-.17,24.58-2.61,26.89-3.37-.07-1.39-.11-2.64-.12-3.73a212.43,212.43,0,0,1-27.15,2.5c-15.61.2-25.82-2.2-25.82-2.2,0,1-.06,2.38-.12,4C300.58,161,308.91,163.21,324.65,163Z" transform="translate(-26.25 -29.69)"/><path class="cls-21" d="M301.63,177.29h0a.57.57,0,0,1-.53-.61c.47-6.43,1.1-11.7,1.11-11.75a.58.58,0,0,1,.64-.5.57.57,0,0,1,.49.64c0,.05-.63,5.29-1.1,11.7A.58.58,0,0,1,301.63,177.29Z" transform="translate(-26.25 -29.69)"/><path class="cls-21" d="M327,178.39h0a.56.56,0,0,1-.55-.58,50.42,50.42,0,0,0-.95-9.8,16.39,16.39,0,0,0-.61,3.47.57.57,0,0,1-.57.58.58.58,0,0,1-.57-.58,27.74,27.74,0,0,1,1.3-6,.57.57,0,0,1,.56-.4.56.56,0,0,1,.53.44,55.11,55.11,0,0,1,1.45,12.35A.57.57,0,0,1,327,178.39Z" transform="translate(-26.25 -29.69)"/><path class="cls-21" d="M320.32,170a.57.57,0,0,1-.57-.56,10,10,0,0,1,.53-3.35.57.57,0,0,1,1.08.36,9.11,9.11,0,0,0-.47,3,.57.57,0,0,1-.57.57Z" transform="translate(-26.25 -29.69)"/><path class="cls-21" d="M335.33,174.44a.58.58,0,0,1-.57-.48l-1.3-7.94a.57.57,0,1,1,1.12-.19l1.31,7.95a.58.58,0,0,1-.47.66Z" transform="translate(-26.25 -29.69)"/><path class="cls-21" d="M343.33,170.63a.57.57,0,0,1-.57-.52,20.36,20.36,0,0,0-1.2-5.1.56.56,0,0,1,.33-.73.55.55,0,0,1,.73.33,20.85,20.85,0,0,1,1.27,5.39.57.57,0,0,1-.51.63Z" transform="translate(-26.25 -29.69)"/><path class="cls-21" d="M349.67,177.52a.57.57,0,0,1-.57-.53,96.67,96.67,0,0,0-1.73-12.57.58.58,0,0,1,.44-.68.59.59,0,0,1,.68.45,97.25,97.25,0,0,1,1.75,12.72.58.58,0,0,1-.53.61Z" transform="translate(-26.25 -29.69)"/><path class="cls-21" d="M313.29,174.75h0a.58.58,0,0,1-.55-.6,58,58,0,0,1,.92-8,.56.56,0,0,1,.66-.46.58.58,0,0,1,.46.67,57.23,57.23,0,0,0-.9,7.83A.57.57,0,0,1,313.29,174.75Z" transform="translate(-26.25 -29.69)"/><path class="cls-21" d="M310.48,169.84h0a.58.58,0,0,1-.55-.6,20.36,20.36,0,0,1,.4-3.4.57.57,0,0,1,1.12.22,20.49,20.49,0,0,0-.38,3.23A.58.58,0,0,1,310.48,169.84Z" transform="translate(-26.25 -29.69)"/><path class="cls-21" d="M334.89,268h0a.56.56,0,0,1-.56-.58c.19-12.4,0-29.64-.82-40.19a.57.57,0,0,1,.52-.61.58.58,0,0,1,.62.52c.83,10.59,1,27.87.82,40.3A.57.57,0,0,1,334.89,268Z" transform="translate(-26.25 -29.69)"/><path class="cls-21" d="M309.23,267.59h0a.57.57,0,0,1-.57-.58c0-.3.49-30.3,1.59-47.86a.57.57,0,0,1,.61-.53.57.57,0,0,1,.53.61c-1.1,17.53-1.58,47.5-1.58,47.8A.58.58,0,0,1,309.23,267.59Z" transform="translate(-26.25 -29.69)"/><path class="cls-21" d="M331.74,265.88h0a.58.58,0,0,1-.53-.61,106.22,106.22,0,0,0,0-15,.57.57,0,0,1,.52-.62.56.56,0,0,1,.62.51,107.12,107.12,0,0,1,0,15.15A.57.57,0,0,1,331.74,265.88Z" transform="translate(-26.25 -29.69)"/><path class="cls-21" d="M306.22,263.5a.57.57,0,0,1-.57-.57v-8.4a.58.58,0,0,1,.57-.57.57.57,0,0,1,.57.57v8.4A.56.56,0,0,1,306.22,263.5Z" transform="translate(-26.25 -29.69)"/><path class="cls-21" d="M338.24,266.83h-.05a.57.57,0,0,1-.52-.62,68,68,0,0,0,.16-7.22.56.56,0,0,1,.54-.59.59.59,0,0,1,.6.54,70.71,70.71,0,0,1-.16,7.37A.58.58,0,0,1,338.24,266.83Z" transform="translate(-26.25 -29.69)"/><path class="cls-23" d="M294,265.37a.56.56,0,0,1-.46-.23c-1.93-2.68-1.21-17.78,0-38.81.24-4.1.48-8.1.66-11.77.62-12.29,1.55-25.74,2.3-36.54.7-10.06,1.25-18,1.34-21.79,0-1.71,0-4.81-.06-8.08-.09-5.29-.17-10.75.07-12.38a.56.56,0,0,1,.65-.48.57.57,0,0,1,.48.65c-.23,1.53-.14,7.19-.06,12.19.05,3.29.1,6.4.06,8.13-.09,3.81-.64,11.76-1.34,21.84-.75,10.8-1.68,24.24-2.3,36.52-.18,3.67-.42,7.67-.66,11.78-.92,15.82-2.08,35.51-.24,38.07a.57.57,0,0,1-.13.8A.56.56,0,0,1,294,265.37Z" transform="translate(-26.25 -29.69)"/><path class="cls-21" d="M333.25,151.45a.58.58,0,0,1-.5-.28,21.66,21.66,0,0,0-8.72-8,78.3,78.3,0,0,0-25.42-6.75.57.57,0,0,1,.06-1.14,79.9,79.9,0,0,1,25.84,6.85,22.6,22.6,0,0,1,9.23,8.47.57.57,0,0,1-.21.78A.58.58,0,0,1,333.25,151.45Z" transform="translate(-26.25 -29.69)"/><path class="cls-21" d="M324.27,143.22a.57.57,0,0,1-.27-1.07,82.52,82.52,0,0,1,27.09-7.66.55.55,0,0,1,.62.5.56.56,0,0,1-.5.63,81.87,81.87,0,0,0-26.68,7.54A.58.58,0,0,1,324.27,143.22Z" transform="translate(-26.25 -29.69)"/><path class="cls-21" d="M307.34,155.36h0a7.88,7.88,0,0,1-6.72-4.19.58.58,0,0,1,.25-.77.57.57,0,0,1,.77.24,6.77,6.77,0,0,0,5.73,3.58.59.59,0,0,1,.56.59A.57.57,0,0,1,307.34,155.36Z" transform="translate(-26.25 -29.69)"/><path class="cls-21" d="M343,154.27a.57.57,0,0,1-.07-1.14,5.73,5.73,0,0,0,4.43-3.15.57.57,0,1,1,1,.49,6.87,6.87,0,0,1-5.33,3.79Z" transform="translate(-26.25 -29.69)"/><path class="cls-21" d="M321,271.34a21.77,21.77,0,0,1-11.88-3.51c-1.75.48-11.58,2.88-15.58-2.69a.56.56,0,0,1,.13-.8.57.57,0,0,1,.79.13c3.84,5.34,14.48,2.23,14.59,2.2a.58.58,0,0,1,.48.06c8.7,5.64,16.57,3.15,21.79,1.5a23.79,23.79,0,0,1,3.49-1,.53.53,0,0,1,.25,0c2.9.87,11,2.67,13.61.47a.56.56,0,0,1,.8.06.58.58,0,0,1-.07.81c-3.43,2.91-13.25.17-14.55-.21a27.93,27.93,0,0,0-3.19.88A34.56,34.56,0,0,1,321,271.34Z" transform="translate(-26.25 -29.69)"/><path class="cls-21" d="M352.13,267.85l-.43,0a.58.58,0,0,1-.48-.65.56.56,0,0,1,.65-.48c1.69.24,4-2.11,4.7-3a.56.56,0,0,1,.8-.09.57.57,0,0,1,.1.8C357.17,264.73,354.63,267.85,352.13,267.85Z" transform="translate(-26.25 -29.69)"/><path class="cls-8" d="M323.21,100.68h-6a2.44,2.44,0,1,1,0-4.87h6a2.44,2.44,0,0,1,0,4.87Z" transform="translate(-26.25 -29.69)"/><path class="cls-8" d="M287.43,302.69a2.44,2.44,0,0,1-2.44-2.44v-202a2.44,2.44,0,1,1,4.88,0v202A2.44,2.44,0,0,1,287.43,302.69Z" transform="translate(-26.25 -29.69)"/><path class="cls-9" d="M287.71,100.72V300.25a2.44,2.44,0,0,1-1.36,2.18,2.43,2.43,0,0,0,3.52-2.18V100.72Z" transform="translate(-26.25 -29.69)"/><path class="cls-8" d="M442.58,302.93H277.14a3.09,3.09,0,1,1,0-6.18H442.58a3.09,3.09,0,1,1,0,6.18Z" transform="translate(-26.25 -29.69)"/><path class="cls-9" d="M442.58,300.77H277.14a3.08,3.08,0,0,1-2.88-2,3,3,0,0,0-.21,1.08,3.1,3.1,0,0,0,3.09,3.09H442.58a3.09,3.09,0,0,0,3.09-3.09,3,3,0,0,0-.21-1.08A3.08,3.08,0,0,1,442.58,300.77Z" transform="translate(-26.25 -29.69)"/><path class="cls-15" d="M286.22,285.64a.62.62,0,0,1-.62-.62V247.27a.62.62,0,1,1,1.23,0V285A.61.61,0,0,1,286.22,285.64Z" transform="translate(-26.25 -29.69)"/><path class="cls-15" d="M286.22,232.36a.61.61,0,0,1-.62-.62V100.94a.62.62,0,1,1,1.23,0v130.8A.61.61,0,0,1,286.22,232.36Z" transform="translate(-26.25 -29.69)"/><path class="cls-15" d="M416.65,299.53H388.87a.93.93,0,0,1,0-1.85h27.78a.93.93,0,1,1,0,1.85Z" transform="translate(-26.25 -29.69)"/><path class="cls-15" d="M377.45,299.53H281.21a.93.93,0,0,1,0-1.85h96.24a.93.93,0,1,1,0,1.85Z" transform="translate(-26.25 -29.69)"/><path class="cls-24" d="M245.1,114.93H192.93l-7.59,11.28A87.44,87.44,0,0,0,170.4,175.1V310.27a6.64,6.64,0,0,0,6.65,6.64h83.82a6.65,6.65,0,0,0,6.65-6.64l.1-135.13a87.48,87.48,0,0,0-14.94-49Z" transform="translate(-26.25 -29.69)"/><rect class="cls-25" x="164.68" y="141.59" width="56.18" height="89.29"/><rect class="cls-26" x="176.72" y="158.43" width="32.1" height="11.47"/><rect class="cls-26" x="176.72" y="180.5" width="32.1" height="11.47"/><rect class="cls-26" x="176.72" y="202.57" width="32.1" height="11.47"/><path class="cls-25" d="M260.87,319.57H177.05a2.66,2.66,0,1,1,0-5.31h83.82a4,4,0,0,0,4-4l.1-135.15c0-24.1-11.14-39.56-20.11-52-1.68-2.33-3.29-4.56-4.76-6.74a2.65,2.65,0,0,1,4.4-3c1.44,2.13,3,4.32,4.66,6.59,9.42,13,21.14,29.27,21.12,55.1l-.1,135.14A9.31,9.31,0,0,1,260.87,319.57Z" transform="translate(-26.25 -29.69)"/><polygon class="cls-22" points="222.53 86.82 163.01 86.82 166.06 50.9 219.48 50.9 222.53 86.82"/><polygon class="cls-21" points="178.65 86.82 170.26 86.82 172.57 50.9 180.1 50.9 178.65 86.82"/><polygon class="cls-21" points="196.97 86.82 188.57 86.82 189 50.9 196.54 50.9 196.97 86.82"/><polygon class="cls-21" points="215.28 86.82 206.89 86.82 205.44 50.9 212.97 50.9 215.28 86.82"/><path class="cls-26" d="M213.67,306.46H180.9a2.66,2.66,0,1,1,0-5.31h32.77a2.66,2.66,0,0,1,0,5.31Z" transform="translate(-26.25 -29.69)"/><path class="cls-26" d="M247.11,306.46H231.73a2.66,2.66,0,1,1,0-5.31h15.38a2.66,2.66,0,0,1,0,5.31Z" transform="translate(-26.25 -29.69)"/><path class="cls-26" d="M182,162.56a2.77,2.77,0,0,1-.49,0,2.66,2.66,0,0,1-2.12-3.1A76.15,76.15,0,0,1,194,128.64,2.65,2.65,0,0,1,198.1,132c-10.49,12.87-13.46,28.25-13.49,28.41A2.66,2.66,0,0,1,182,162.56Z" transform="translate(-26.25 -29.69)"/><path class="cls-27" d="M223.7,90.83H199a2.65,2.65,0,1,1,0-5.3H223.7a2.65,2.65,0,1,1,0,5.3Z" transform="translate(-26.25 -29.69)"/><rect class="cls-28" x="201.15" y="110.76" width="134.34" height="178.46"/><path class="cls-29" d="M355.22,306.58V230.34c-32.54,15.15-62.47,45.2-78,76.24Z" transform="translate(-26.25 -29.69)"/><path class="cls-29" d="M231.15,288.27v-111H355.76C323.06,228.52,281.68,265.78,231.15,288.27Z" transform="translate(-26.25 -29.69)"/><rect class="cls-30" x="201.15" y="135.97" width="134.34" height="1.33"/><rect class="cls-30" x="201.15" y="263.67" width="134.34" height="1.33"/><path class="cls-31" d="M302.69,173.17H285.22a1.33,1.33,0,1,1,0-2.65h17.47a1.33,1.33,0,1,1,0,2.65Z" transform="translate(-26.25 -29.69)"/><path class="cls-31" d="M277.7,173.17H231.15a1.33,1.33,0,1,1,0-2.65H277.7a1.33,1.33,0,1,1,0,2.65Z" transform="translate(-26.25 -29.69)"/><path class="cls-31" d="M302.69,314.92H285.22a1.33,1.33,0,1,1,0-2.65h17.47a1.33,1.33,0,1,1,0,2.65Z" transform="translate(-26.25 -29.69)"/><path class="cls-31" d="M277.7,314.92H231.15a1.33,1.33,0,1,1,0-2.65H277.7a1.33,1.33,0,1,1,0,2.65Z" transform="translate(-26.25 -29.69)"/><path class="cls-30" d="M265.54,162.67H230.38a.67.67,0,0,1-.67-.67V143.76a.66.66,0,0,1,.67-.66h13.18a.67.67,0,0,1,.63.44,4.07,4.07,0,0,0,7.54,0,.65.65,0,0,1,.62-.44h13.19a.66.66,0,0,1,.66.66V162A.67.67,0,0,1,265.54,162.67ZM231,161.34h33.83V144.42H252.8a5.41,5.41,0,0,1-9.68,0H231Z" transform="translate(-26.25 -29.69)"/><path class="cls-32" d="M294.47,148.43a5.45,5.45,0,0,0,0,10.9c3.63.13,5.56-2.44,5.49-5.61A5.13,5.13,0,0,0,294.47,148.43Z" transform="translate(-26.25 -29.69)"/><path class="cls-33" d="M294.5,150.24a3.64,3.64,0,0,0,0,7.27,3.38,3.38,0,0,0,3.67-3.73A3.44,3.44,0,0,0,294.5,150.24Z" transform="translate(-26.25 -29.69)"/><rect class="cls-10" x="297.01" y="119.6" width="30.85" height="9.18"/><rect class="cls-21" x="299.99" y="122" width="5" height="4.38"/><rect class="cls-24" x="307.07" y="122" width="5" height="4.38"/><rect class="cls-18" x="314.15" y="122" width="5" height="4.38"/><path class="cls-32" d="M287,146.6a1.73,1.73,0,0,0,0,3.45,1.61,1.61,0,0,0,1.74-1.77A1.63,1.63,0,0,0,287,146.6Z" transform="translate(-26.25 -29.69)"/><path class="cls-32" d="M287,157.56a1.73,1.73,0,0,0,0,3.45,1.61,1.61,0,0,0,1.74-1.77A1.63,1.63,0,0,0,287,157.56Z" transform="translate(-26.25 -29.69)"/><path class="cls-32" d="M284.9,152.14a1.73,1.73,0,0,0,0,3.46,1.61,1.61,0,0,0,1.74-1.78A1.63,1.63,0,0,0,284.9,152.14Z" transform="translate(-26.25 -29.69)"/><path class="cls-32" d="M300.26,148.28a1.6,1.6,0,0,0,1.74,1.77,1.73,1.73,0,0,0,0-3.45A1.63,1.63,0,0,0,300.26,148.28Z" transform="translate(-26.25 -29.69)"/><path class="cls-32" d="M300.26,159.24A1.6,1.6,0,0,0,302,161a1.73,1.73,0,0,0,0-3.45A1.63,1.63,0,0,0,300.26,159.24Z" transform="translate(-26.25 -29.69)"/><path class="cls-32" d="M302.36,153.82a1.62,1.62,0,0,0,1.75,1.78,1.73,1.73,0,0,0,0-3.46A1.64,1.64,0,0,0,302.36,153.82Z" transform="translate(-26.25 -29.69)"/><path class="cls-29" d="M234.39,148.29V158.8c11.27,0,20.54-3.15,27.13-10.51Z" transform="translate(-26.25 -29.69)"/><path class="cls-32" d="M293.77,191.69c-24.86,1.14-42.24,17.58-43.55,43.86-.95,19.21,11.44,45.24,43.55,46.38,29.9,1.06,45.7-20.15,45.17-46.38C338.39,208.09,318.38,190.56,293.77,191.69Z" transform="translate(-26.25 -29.69)"/><path class="cls-34" d="M293.32,194c-23.28,1.06-39.55,16.34-40.78,40.78-.89,17.86,10.71,42.06,40.78,43.12,28,1,42.8-18.74,42.3-43.12C335.11,209.28,316.37,193,293.32,194Z" transform="translate(-26.25 -29.69)"/><path class="cls-35" d="M332.3,241c-1.75-17.28-15.16-28-31.36-27.14-17.2.94-29.12,12.35-29.86,30.42a31.6,31.6,0,0,0,7.12,21.06c5.07,3.55,11.61,5.88,19.81,6.09C319,272,330.78,258.5,332.3,241Z" transform="translate(-26.25 -29.69)"/><path class="cls-10" d="M328.19,255.72l-11.93-2s-2.86-6.56-2.86-17.39a53.52,53.52,0,0,1,2.86-18.06l11.93-2Z" transform="translate(-26.25 -29.69)"/><path class="cls-10" d="M335.62,234.81c-.51-25.53-19.25-41.83-42.3-40.78-23.28,1.06-39.55,16.34-40.78,40.78-.89,17.86,10.71,42.06,40.78,43.12C321.32,278.92,336.12,259.19,335.62,234.81Zm-42.13,33.41c-23.11-.81-32-19.41-31.34-33.14.94-18.78,13.45-30.53,31.34-31.34,17.72-.81,32.12,11.72,32.52,31.34C326.39,253.82,315,269,293.49,268.22Z" transform="translate(-26.25 -29.69)"/><path class="cls-36" d="M310.71,215.71a24.73,24.73,0,0,0-17.28-5.65c-14.29.65-24.28,10-25,25A26.15,26.15,0,0,0,275,253.63C297.21,252,309.56,235.94,310.71,215.71Z" transform="translate(-26.25 -29.69)"/><path class="cls-36" d="M298.26,275.21a1,1,0,0,1-.06-2c15.51-1,26.83-9.88,31.07-24.41a1,1,0,1,1,1.91.55c-4.49,15.39-16.46,24.81-32.85,25.85Zm-37.65-19.42a1,1,0,0,1-.89-.54,40.57,40.57,0,0,1-4.06-12.18,1,1,0,1,1,2-.32,38.57,38.57,0,0,0,3.87,11.58,1,1,0,0,1-.42,1.34A1,1,0,0,1,260.61,255.79Zm-4.45-19.89h-.05a1,1,0,0,1-1-1c1-20.3,13.66-34.74,33-37.67a1,1,0,0,1,.3,2c-18.62,2.82-30.33,16.21-31.31,35.8A1,1,0,0,1,256.16,235.9Z" transform="translate(-26.25 -29.69)"/><path class="cls-30" d="M361.73,319.57H227.39v-1.33H361.07V140.44h1.33V318.9A.67.67,0,0,1,361.73,319.57Z" transform="translate(-26.25 -29.69)"/><path class="cls-31" d="M324.36,300.33H231.15a1.33,1.33,0,0,1,0-2.66h93.21a1.33,1.33,0,0,1,0,2.66Z" transform="translate(-26.25 -29.69)"/><path class="cls-6" d="M510.29,210.06s-29.76-4.78-56.85,15.63A86.52,86.52,0,0,0,423,270.55s27.87,9.92,54.89-13.6C500.44,237.29,510.29,210.06,510.29,210.06Z" transform="translate(-26.25 -29.69)"/><path class="cls-7" d="M450.54,272.09a63,63,0,0,0,27.79-14.38c22.49-19.58,32.6-47,32.7-47.28a1,1,0,0,0-.42-1.24.76.76,0,0,0-1.05.5c-.1.27-10,27.23-32.17,46.49-26.37,22.95-53.92,13.56-54.19,13.46a.79.79,0,0,0-1,.63,1,1,0,0,0,.54,1.18C422.92,271.52,434.83,275.59,450.54,272.09Z" transform="translate(-26.25 -29.69)"/><path class="cls-7" d="M447.91,254.35a.93.93,0,0,0,.46.26l26.07,5.11c.53-.4,1.06-.82,1.59-1.25l-26.56-5.21,35.11-24.17,15.61,1,.94-1.55-14.41-.93,22.85-15.73c.48-1.17.72-1.82.72-1.82s-.37-.06-1-.13l-25.42,17.5h-.05a.44.44,0,0,0-.46.35L471.44,236,477,213.52l-1.75.58-5.76,23.15s0,0,0,0l-33.43,23,6-24a.66.66,0,0,0,0-.14c-.76.85-1.5,1.69-2.21,2.54l-5.6,22.52a.76.76,0,0,0,0,.36L423.37,269c-.27,1-.4,1.51-.4,1.51s.34.12,1,.29l24-16.5Z" transform="translate(-26.25 -29.69)"/><path class="cls-24" d="M411,222.5l68.1-.42a1.53,1.53,0,0,1,1.55,1.52l1.28,91.8a1.56,1.56,0,0,1-1.52,1.57l-69.8,1.26a1.54,1.54,0,0,1-1.57-1.55l.43-92.65A1.53,1.53,0,0,1,411,222.5Z" transform="translate(-26.25 -29.69)"/><path class="cls-25" d="M446.57,254.79c21.12-5.76,30.16-21,34-31.61a1.5,1.5,0,0,0-1.46-1.1l-6.39,0c-4.16,8.09-12.83,17.68-30.73,19.28-16.37,1.47-26.56,4.33-32.62,6.76l-.13,28.45C415.29,269.08,426.39,260.29,446.57,254.79Z" transform="translate(-26.25 -29.69)"/><path class="cls-25" d="M462.38,286.41c-15,11.52-21.65,23.48-24.63,31.33l42.64-.77a1.56,1.56,0,0,0,1.52-1.57l-.72-51.69A63.14,63.14,0,0,1,462.38,286.41Z" transform="translate(-26.25 -29.69)"/><polygon class="cls-33" points="440.45 243.62 397.99 243.48 397.99 211.39 440.32 211.53 440.45 243.62"/><polygon class="cls-33" points="440.45 265.48 397.99 265.48 397.99 251.38 440.45 251.53 440.45 265.48"/><polygon class="cls-26" points="431.67 225.09 406.78 225.06 406.78 218.06 431.59 218.09 431.67 225.09"/><polygon class="cls-26" points="434.75 235.63 403.7 235.61 403.7 231.23 434.64 231.25 434.75 235.63"/><path class="cls-37" d="M410.59,319.07a.84.84,0,0,1-.83-.83.82.82,0,0,1,.82-.84l69.8-1.27a.7.7,0,0,0,.69-.71l-1.27-91.81a.84.84,0,0,1,.82-.85h0a.84.84,0,0,1,.84.82l1.27,91.81a2.38,2.38,0,0,1-2.33,2.41l-69.8,1.27Z" transform="translate(-26.25 -29.69)"/><path class="cls-26" d="M456.89,228.55h-9.22a1.21,1.21,0,0,1,0-2.42h9.22a1.21,1.21,0,1,1,0,2.42Z" transform="translate(-26.25 -29.69)"/><path class="cls-26" d="M440.64,228.55H414.28a1.21,1.21,0,1,1,0-2.42h26.36a1.21,1.21,0,1,1,0,2.42Z" transform="translate(-26.25 -29.69)"/><path class="cls-21" d="M516,269.86c-4.64-7.86-17.5-14.11-17.5-14.11H480.64s-5.71,7.68-5.71,13.85v44.58a4.09,4.09,0,0,0,4.09,4.09h36.23a4.09,4.09,0,0,0,4.09-3.89C519.83,303.79,518.92,274.79,516,269.86Zm-4.82,16.8c-1.07.89-9.29-7-10.54-9.11s-1.45-11.61-.36-12c1.61-.54,8.4,5.71,9.83,8.21S512.26,285.76,511.19,286.66Z" transform="translate(-26.25 -29.69)"/><polygon class="cls-33" points="483.25 280.73 456.18 280.73 456.18 253.66 467.7 253.66 483.25 267.87 483.25 280.73"/><path class="cls-20" d="M515.25,319.07H479a.8.8,0,0,1,0-1.59h36.23a3.3,3.3,0,0,0,3.3-3.13c.48-10.38-.44-39.39-3.22-44.08-4.47-7.57-17-13.74-17.17-13.81a.79.79,0,1,1,.69-1.42c.54.26,13.13,6.45,17.84,14.42,3.09,5.23,3.93,34.5,3.44,45A4.88,4.88,0,0,1,515.25,319.07Z" transform="translate(-26.25 -29.69)"/><polygon class="cls-38" points="470.79 220.45 456.05 220.45 457.12 212.12 469.72 212.12 470.79 220.45"/><polygon class="cls-8" points="470.79 220.45 465.44 220.45 465.15 212.12 469.72 212.12 470.79 220.45"/><rect class="cls-38" x="452.79" y="219.37" width="21.26" height="6.97"/><rect class="cls-8" x="463.71" y="219.37" width="10.33" height="6.97"/><path class="cls-22" d="M478,269.87h-.08a.79.79,0,0,1-.7-.87,23.41,23.41,0,0,1,4.22-10.31.79.79,0,0,1,1.27.95c0,.05-3.41,4.58-3.92,9.52A.78.78,0,0,1,478,269.87Z" transform="translate(-26.25 -29.69)"/><path class="cls-22" d="M477.69,279.78a.79.79,0,0,1-.8-.79v-5.36a.8.8,0,0,1,1.59,0V279A.79.79,0,0,1,477.69,279.78Z" transform="translate(-26.25 -29.69)"/><path class="cls-22" d="M477.69,314.88a.79.79,0,0,1-.8-.79V303.38a.8.8,0,1,1,1.59,0v10.71A.79.79,0,0,1,477.69,314.88Z" transform="translate(-26.25 -29.69)"/><path class="cls-4" d="M486.85,251.81h-5.63a.79.79,0,0,1,0-1.58h5.63a.79.79,0,1,1,0,1.58Z" transform="translate(-26.25 -29.69)"/><path class="cls-4" d="M485.38,248.46h-.1a.79.79,0,0,1-.69-.88l.54-4.29a.79.79,0,0,1,1.57.2l-.54,4.29A.79.79,0,0,1,485.38,248.46Z" transform="translate(-26.25 -29.69)"/><polygon class="cls-22" points="476.29 266.35 466.81 257.68 459.4 257.68 459.4 266.35 476.29 266.35"/><rect class="cls-22" x="459.4" y="268.97" width="20.1" height="2.95"/><rect class="cls-22" x="459.4" y="274.55" width="20.1" height="2.95"/><path class="cls-15" d="M96.09,270.63c-3.73.24-5.86-4.23-5.06-9.44a6.18,6.18,0,0,1,5.59-5.47s-2.13-3.72,1.6-5,20.78-1.5,40.75-1.5,35.7,1,41,2.49,10.39,15.65,1.07,18.88S96.09,270.63,96.09,270.63Z" transform="translate(-26.25 -29.69)"/><path class="cls-8" d="M147.87,265.38c-2.54,0-5,0-7.31-.07-1.76,0-4-.06-6.49-.09-24.67-.27-31.43-.92-31.43-3a1.37,1.37,0,0,1,.42-1c1.76-1.76,10.17-1.74,35.13-1.68l16.23,0a.65.65,0,1,1,0,1.29c-6,0-11.41,0-16.23,0-21.86-.05-32.84-.07-34.22,1.31,1.26,1.5,20.75,1.71,30.11,1.81l6.51.09c12.17.25,29.45-.26,32.7-.49a3.65,3.65,0,0,0,3.3-1.86c.38-.94,0-2.1-1.07-3.28-1.86-2.05-18.6-3-42.66-2.52-11.32.24-36,.49-36.23.5h0a.65.65,0,0,1,0-1.29c.25,0,24.9-.25,36.21-.5,15-.32,40.63-.37,43.64,2.95,1.92,2.1,1.65,3.8,1.32,4.62a4.91,4.91,0,0,1-4.41,2.66C170.73,265,158.79,265.38,147.87,265.38Z" transform="translate(-26.25 -29.69)"/><path class="cls-22" d="M94.49,279.17c-1.86-.92-2.13-8.27,1.6-8.88s21.84-1.84,42.35-1.53,41.82,0,43.68,1.53,2.67,7.35-.79,8.27S94.49,279.17,94.49,279.17Z" transform="translate(-26.25 -29.69)"/><path class="cls-20" d="M98.93,274.64a.86.86,0,0,1,0-1.72c23.86-.84,54.49-1.07,78-.58a.86.86,0,0,1,.84.88.87.87,0,0,1-.88.84c-23.51-.49-54.09-.26-77.93.58Z" transform="translate(-26.25 -29.69)"/><path class="cls-17" d="M76.62,301.21c-6-.38-6-17.51-1-20.93s24.5-2.28,53-2.67,54.94-2.28,61.56,2.29,8.28,17.12.67,20.55S76.62,301.21,76.62,301.21Z" transform="translate(-26.25 -29.69)"/><path class="cls-16" d="M76,301.72h-.11a.89.89,0,0,1-.78-1c.74-6.34,14.27-7.29,40.62-6.88,61.94,1,70.25-1.8,70.95-3a2.43,2.43,0,0,0-.63-1.95c-3.16-3.39-19.83-4.84-55.77-4.84-37.69,0-43.17,2.28-43.47,4.74.76.6,7.92.48,20.91.25,11.14-.2,28-.49,52.35-.49a.89.89,0,0,1,0,1.78c-24.37,0-41.19.29-52.32.48-17,.3-21.1.37-22.32-1a1.54,1.54,0,0,1-.39-1.24c.46-3.69,4-6.29,45.24-6.29,43.19,0,54,2.16,57.07,5.4a4.21,4.21,0,0,1,1.08,3.35c-.14,1.87-.42,5.78-72.73,4.63-18.45-.29-38.19-.15-38.82,5.3A.9.9,0,0,1,76,301.72Z" transform="translate(-26.25 -29.69)"/><path class="cls-12" d="M76,300.64c4.48-1,43.36-.31,64.54,0s47.67-2.21,53,0,6.29,18.38-.66,20-117.18.95-120.15,0S68.67,302.23,76,300.64Z" transform="translate(-26.25 -29.69)"/><path class="cls-11" d="M160.89,312.68c-6.18,0-13,0-19.74-.14-10.43-.17-26.16-.07-40,0-13.34.08-24.86.14-29.82,0a.82.82,0,0,1-.79-.84.85.85,0,0,1,.84-.78c4.94.16,16.44.08,29.76,0,13.88-.08,29.61-.17,40.07,0,19.94.32,41.46,0,41.68,0a.76.76,0,0,1,.82.8.81.81,0,0,1-.8.82C182.74,312.54,173.16,312.68,160.89,312.68Z" transform="translate(-26.25 -29.69)"/><path class="cls-21" d="M421,306c3,0,4.73-6.36-1.86-7.11,0,0,2.7-2.7-.93-4.88-1.74-1.24-11.17-2.24-30.74-2.37-15.74-.1-29.25-.4-33.49,3.84-1.86,1.86-2.07,8.86.59,10.18S421,306,421,306Z" transform="translate(-26.25 -29.69)"/><path class="cls-20" d="M419.14,300c-2.07,0-5.11-.16-9-.35-5.88-.3-13.19-.67-20.94-.69-6.71,0-13.47.23-19.45.45-4.51.16-8.42.31-11.46.31a.75.75,0,0,1,0-1.5c3,0,6.91-.14,11.41-.31,6-.21,12.77-.46,19.51-.44,7.78,0,15.11.39,21,.68,3.83.2,6.86.35,8.89.35a.75.75,0,0,1,0,1.5Z" transform="translate(-26.25 -29.69)"/><path class="cls-17" d="M423.88,320.47c3.11.19,4.88-3.22,4.21-7.2a5,5,0,0,0-4.65-4.17s1.77-2.85-1.33-3.8-17.28-1.13-33.89-1.13-29.68.76-34.11,1.89-8.64,11.95-.89,14.41S423.88,320.47,423.88,320.47Z" transform="translate(-26.25 -29.69)"/><path class="cls-16" d="M380.81,316.73c-9.08,0-19-.29-21.22-.43-1.91-.13-3.41-1-3.9-2.3-.26-.68-.44-2.07,1.2-3.73,2.56-2.59,23.93-2.57,36.44-2.31,9.41.19,29.91.38,30.12.38a.75.75,0,0,1,.75.76.76.76,0,0,1-.76.76h0c-.2,0-20.71-.2-30.13-.39-20-.39-33.82.34-35.33,1.86-.78.79-1.08,1.54-.86,2.13a2.84,2.84,0,0,0,2.58,1.32c2.71.18,17.08.58,27.19.38,1.46,0,3.32,0,5.39-.07,6.87-.06,20.41-.2,24.14-1.07-3.84-.85-18.75-.82-37.14-.79H366.21a.76.76,0,1,1,0-1.51l13.05,0c26.65,0,37.52,0,39.07,1.54a1.11,1.11,0,0,1,.33.77c0,1.75-3.81,2.37-26.37,2.59-2.07,0-3.93,0-5.39.07C385,316.72,382.93,316.73,380.81,316.73Z" transform="translate(-26.25 -29.69)"/><path class="cls-4" d="M373.5,312s-1.13-5.58-1.51-6-6.07-1.69-6.07-1.69,5.59-1.14,6-1.53,1.67-6,1.67-6,1.13,5.58,1.51,6,6.07,1.68,6.07,1.68-5.67,1.22-6.09,1.63S373.5,312,373.5,312Z" transform="translate(-26.25 -29.69)"/><path class="cls-4" d="M171.75,314.32s-1.44-7.13-1.93-7.62-7.75-2.15-7.75-2.15,7.14-1.46,7.64-1.95,2.13-7.72,2.13-7.72,1.44,7.12,1.92,7.61,7.75,2.15,7.75,2.15-7.23,1.55-7.77,2.08S171.75,314.32,171.75,314.32Z" transform="translate(-26.25 -29.69)"/><path class="cls-4" d="M126.09,264.21s-1.13-5.58-1.51-6-6.07-1.68-6.07-1.68,5.6-1.14,6-1.53,1.66-6.05,1.66-6.05,1.13,5.58,1.51,6,6.07,1.68,6.07,1.68-5.67,1.22-6.08,1.63S126.09,264.21,126.09,264.21Z" transform="translate(-26.25 -29.69)"/><path class="cls-4" d="M91.54,305a29.67,29.67,0,0,0-1-3.89,28.06,28.06,0,0,0-4-1.1,30.47,30.47,0,0,0,3.91-1,29.63,29.63,0,0,0,1.09-4,29.52,29.52,0,0,0,1,3.89,28.44,28.44,0,0,0,4,1.1,29.52,29.52,0,0,0-4,1.07A29.62,29.62,0,0,0,91.54,305Z" transform="translate(-26.25 -29.69)"/></svg>