<svg width="1920" height="637" viewBox="0 0 1920 937" fill="none" xmlns="http://www.w3.org/2000/svg">
<rect width="1920" height="637" fill="white"/>
<mask id="mask0_449_4115" style="mask-type:alpha" maskUnits="userSpaceOnUse" x="0" y="0" width="1920" height="937">
<rect width="1920" height="637" fill="white"/>
</mask>
<g mask="url(#mask0_449_4115)">
<g opacity="0.5">
<path d="M2059 569.836L1691.81 936.999H1695.57L2059 573.589V569.836Z" fill="url(#paint0_linear_449_4115)"/>
<path d="M2059 535.689L1657.69 937H1661.44L2059 539.469V535.689Z" fill="url(#paint1_linear_449_4115)"/>
<path d="M2059 501.567L1623.54 936.999H1627.32L2059 505.32V501.567Z" fill="url(#paint2_linear_449_4115)"/>
<path d="M2059.01 467.446L1589.43 937H1593.18L2059.01 471.199V467.446Z" fill="url(#paint3_linear_449_4115)"/>
<path d="M2059 433.298L1555.3 936.999H1559.05L2059 437.078V433.298Z" fill="url(#paint4_linear_449_4115)"/>
<path d="M2058.99 399.177L1521.14 937H1524.92L2058.99 402.93V399.177Z" fill="url(#paint5_linear_449_4115)"/>
<path d="M2059 365.055L1487.03 936.999H1490.78L2059 368.808V365.055Z" fill="url(#paint6_linear_449_4115)"/>
<path d="M2059 330.907L1452.91 936.999H1456.66L2059 334.687V330.907Z" fill="url(#paint7_linear_449_4115)"/>
<path d="M2059.01 296.786L1418.77 936.999H1422.55L2059.01 300.539V296.786Z" fill="url(#paint8_linear_449_4115)"/>
<path d="M2059 262.666L1384.64 937H1388.39L2059 266.418V262.666Z" fill="url(#paint9_linear_449_4115)"/>
<path d="M2059 228.518L1350.5 936.999H1354.28L2059 232.297V228.518Z" fill="url(#paint10_linear_449_4115)"/>
<path d="M2059 194.396L1316.38 937H1320.15L2059 198.149V194.396Z" fill="url(#paint11_linear_449_4115)"/>
<path d="M2059 160.249L1282.25 936.999H1286L2059 164.028V160.249Z" fill="url(#paint12_linear_449_4115)"/>
<path d="M1251.88 936.999L2058.28 130.599H2054.53L1248.1 936.999H1251.88Z" fill="url(#paint13_linear_449_4115)"/>
<path d="M1217.73 936.999L2024.16 130.599H2020.4L1213.98 936.999H1217.73Z" fill="url(#paint14_linear_449_4115)"/>
<path d="M1183.6 936.999L1990.03 130.599H1986.25L1179.85 936.999H1183.6Z" fill="url(#paint15_linear_449_4115)"/>
<path d="M1149.49 936.999L1955.89 130.599H1952.14L1145.71 936.999H1149.49Z" fill="url(#paint16_linear_449_4115)"/>
<path d="M1115.34 936.999L1921.77 130.599H1918.02L1111.59 936.999H1115.34Z" fill="url(#paint17_linear_449_4115)"/>
</g>
<g opacity="0.5">
<path d="M-308.404 659.836L58.7852 1027H55.0323L-308.404 663.589V659.836Z" fill="url(#paint18_linear_449_4115)"/>
<path d="M-308.401 625.689L92.9102 1027H89.1574L-308.401 629.469V625.689Z" fill="url(#paint19_linear_449_4115)"/>
<path d="M-308.404 591.567L127.055 1027H123.275L-308.404 595.32V591.567Z" fill="url(#paint20_linear_449_4115)"/>
<path d="M-308.408 557.446L161.172 1027H157.419L-308.408 561.199V557.446Z" fill="url(#paint21_linear_449_4115)"/>
<path d="M-308.404 523.298L195.297 1027H191.544L-308.404 527.078V523.298Z" fill="url(#paint22_linear_449_4115)"/>
<path d="M-308.396 489.177L229.453 1027H225.674L-308.396 492.93V489.177Z" fill="url(#paint23_linear_449_4115)"/>
<path d="M-308.4 455.055L263.57 1027H259.817L-308.4 458.808V455.055Z" fill="url(#paint24_linear_449_4115)"/>
<path d="M-308.4 420.907L297.691 1027H293.939L-308.4 424.687V420.907Z" fill="url(#paint25_linear_449_4115)"/>
<path d="M-308.407 386.786L331.832 1027H328.053L-308.407 390.539V386.786Z" fill="url(#paint26_linear_449_4115)"/>
<path d="M-308.404 352.666L365.957 1027H362.204L-308.404 356.418V352.666Z" fill="url(#paint27_linear_449_4115)"/>
<path d="M-308.407 318.518L400.102 1027H396.322L-308.407 322.297V318.518Z" fill="url(#paint28_linear_449_4115)"/>
<path d="M-308.407 284.396L434.223 1027H430.443L-308.407 288.149V284.396Z" fill="url(#paint29_linear_449_4115)"/>
<path d="M-308.403 250.249L468.348 1027H464.595L-308.403 254.028V250.249Z" fill="url(#paint30_linear_449_4115)"/>
<path d="M498.721 1027L-307.68 220.599H-303.927L502.5 1027H498.721Z" fill="url(#paint31_linear_449_4115)"/>
<path d="M532.868 1027L-273.559 220.599H-269.806L536.621 1027H532.868Z" fill="url(#paint32_linear_449_4115)"/>
<path d="M566.993 1027L-239.434 220.599H-235.655L570.746 1027H566.993Z" fill="url(#paint33_linear_449_4115)"/>
<path d="M601.107 1027L-205.294 220.599H-201.541L604.887 1027H601.107Z" fill="url(#paint34_linear_449_4115)"/>
<path d="M635.255 1027L-171.172 220.599H-167.42L639.008 1027H635.255Z" fill="url(#paint35_linear_449_4115)"/>
</g>
<g opacity="0.2">
<path d="M323.672 -157.504L-43.491 209.686L-43.491 205.933L319.919 -157.504L323.672 -157.504Z" fill="url(#paint36_linear_449_4115)"/>
<path d="M357.82 -157.5L-43.4904 243.811L-43.4904 240.058L354.041 -157.5L357.82 -157.5Z" fill="url(#paint37_linear_449_4115)"/>
<path d="M391.941 -157.505L-43.4906 277.954L-43.4906 274.174L388.189 -157.505L391.941 -157.505Z" fill="url(#paint38_linear_449_4115)"/>
<path d="M426.063 -157.507L-43.4908 312.073L-43.4908 308.32L422.31 -157.507L426.063 -157.507Z" fill="url(#paint39_linear_449_4115)"/>
<path d="M460.211 -157.503L-43.4902 346.198L-43.4902 342.445L456.432 -157.503L460.211 -157.503Z" fill="url(#paint40_linear_449_4115)"/>
<path d="M494.332 -157.496L-43.4904 380.353L-43.4904 376.574L490.579 -157.496L494.332 -157.496Z" fill="url(#paint41_linear_449_4115)"/>
<path d="M528.453 -157.498L-43.4905 414.472L-43.4905 410.719L524.7 -157.498L528.453 -157.498Z" fill="url(#paint42_linear_449_4115)"/>
<path d="M562.602 -157.5L-43.4899 448.592L-43.4899 444.839L558.822 -157.5L562.602 -157.5Z" fill="url(#paint43_linear_449_4115)"/>
<path d="M596.723 -157.505L-43.4901 482.735L-43.4901 478.955L592.97 -157.505L596.723 -157.505Z" fill="url(#paint44_linear_449_4115)"/>
<path d="M630.844 -157.501L-43.4902 516.86L-43.4902 513.107L627.091 -157.501L630.844 -157.501Z" fill="url(#paint45_linear_449_4115)"/>
<path d="M664.992 -157.506L-43.4897 551.002L-43.4897 547.223L661.213 -157.506L664.992 -157.506Z" fill="url(#paint46_linear_449_4115)"/>
<path d="M699.113 -157.508L-43.4899 585.122L-43.4899 581.343L695.361 -157.508L699.113 -157.508Z" fill="url(#paint47_linear_449_4115)"/>
<path d="M733.262 -157.504L-43.4892 619.247L-43.4892 615.494L729.482 -157.504L733.262 -157.504Z" fill="url(#paint48_linear_449_4115)"/>
<path d="M-43.4907 649.622L762.91 -156.778L762.91 -153.026L-43.4907 653.402L-43.4907 649.622Z" fill="url(#paint49_linear_449_4115)"/>
<path d="M-43.4907 683.768L762.91 -122.659L762.91 -118.906L-43.4907 687.521L-43.4907 683.768Z" fill="url(#paint50_linear_449_4115)"/>
<path d="M-43.4907 717.894L762.91 -88.5338L762.91 -84.7543L-43.4907 721.646L-43.4907 717.894Z" fill="url(#paint51_linear_449_4115)"/>
<path d="M-43.4907 752.01L762.91 -54.3909L762.91 -50.6381L-43.4907 755.789L-43.4907 752.01Z" fill="url(#paint52_linear_449_4115)"/>
<path d="M-43.4907 786.156L762.91 -20.2716L762.91 -16.5188L-43.4907 789.909L-43.4907 786.156Z" fill="url(#paint53_linear_449_4115)"/>
</g>
</g>
<defs>
<linearGradient id="paint0_linear_449_4115" x1="1875.41" y1="569.836" x2="1875.41" y2="936.999" gradientUnits="userSpaceOnUse">
<stop stop-color="#ec0000"/>
<stop offset="1" stop-color="white" stop-opacity="0"/>
</linearGradient>
<linearGradient id="paint1_linear_449_4115" x1="1858.34" y1="535.689" x2="1858.34" y2="937" gradientUnits="userSpaceOnUse">
<stop stop-color="#ec0000"/>
<stop offset="1" stop-color="white" stop-opacity="0"/>
</linearGradient>
<linearGradient id="paint2_linear_449_4115" x1="1841.27" y1="501.567" x2="1841.27" y2="936.999" gradientUnits="userSpaceOnUse">
<stop stop-color="#ec0000"/>
<stop offset="1" stop-color="white" stop-opacity="0"/>
</linearGradient>
<linearGradient id="paint3_linear_449_4115" x1="1824.22" y1="467.446" x2="1824.22" y2="937" gradientUnits="userSpaceOnUse">
<stop stop-color="#ec0000"/>
<stop offset="1" stop-color="white" stop-opacity="0"/>
</linearGradient>
<linearGradient id="paint4_linear_449_4115" x1="1807.15" y1="433.298" x2="1807.15" y2="936.999" gradientUnits="userSpaceOnUse">
<stop stop-color="#ec0000"/>
<stop offset="1" stop-color="white" stop-opacity="0"/>
</linearGradient>
<linearGradient id="paint5_linear_449_4115" x1="1790.07" y1="399.177" x2="1790.07" y2="937" gradientUnits="userSpaceOnUse">
<stop stop-color="#ec0000"/>
<stop offset="1" stop-color="white" stop-opacity="0"/>
</linearGradient>
<linearGradient id="paint6_linear_449_4115" x1="1773.01" y1="365.055" x2="1773.01" y2="936.999" gradientUnits="userSpaceOnUse">
<stop stop-color="#ec0000"/>
<stop offset="1" stop-color="white" stop-opacity="0"/>
</linearGradient>
<linearGradient id="paint7_linear_449_4115" x1="1755.95" y1="330.907" x2="1755.95" y2="936.999" gradientUnits="userSpaceOnUse">
<stop stop-color="#ec0000"/>
<stop offset="1" stop-color="white" stop-opacity="0"/>
</linearGradient>
<linearGradient id="paint8_linear_449_4115" x1="1738.89" y1="296.786" x2="1738.89" y2="936.999" gradientUnits="userSpaceOnUse">
<stop stop-color="#ec0000"/>
<stop offset="1" stop-color="white" stop-opacity="0"/>
</linearGradient>
<linearGradient id="paint9_linear_449_4115" x1="1721.82" y1="262.666" x2="1721.82" y2="937" gradientUnits="userSpaceOnUse">
<stop stop-color="#ec0000"/>
<stop offset="1" stop-color="white" stop-opacity="0"/>
</linearGradient>
<linearGradient id="paint10_linear_449_4115" x1="1704.75" y1="228.518" x2="1704.75" y2="936.999" gradientUnits="userSpaceOnUse">
<stop stop-color="#ec0000"/>
<stop offset="1" stop-color="white" stop-opacity="0"/>
</linearGradient>
<linearGradient id="paint11_linear_449_4115" x1="1687.69" y1="194.396" x2="1687.69" y2="937" gradientUnits="userSpaceOnUse">
<stop stop-color="#ec0000"/>
<stop offset="1" stop-color="white" stop-opacity="0"/>
</linearGradient>
<linearGradient id="paint12_linear_449_4115" x1="1670.63" y1="160.249" x2="1670.63" y2="936.999" gradientUnits="userSpaceOnUse">
<stop stop-color="#ec0000"/>
<stop offset="1" stop-color="white" stop-opacity="0"/>
</linearGradient>
<linearGradient id="paint13_linear_449_4115" x1="1653.19" y1="130.599" x2="1653.19" y2="936.999" gradientUnits="userSpaceOnUse">
<stop stop-color="#ec0000"/>
<stop offset="1" stop-color="white" stop-opacity="0"/>
</linearGradient>
<linearGradient id="paint14_linear_449_4115" x1="1619.07" y1="130.599" x2="1619.07" y2="936.999" gradientUnits="userSpaceOnUse">
<stop stop-color="#ec0000"/>
<stop offset="1" stop-color="white" stop-opacity="0"/>
</linearGradient>
<linearGradient id="paint15_linear_449_4115" x1="1584.94" y1="130.599" x2="1584.94" y2="936.999" gradientUnits="userSpaceOnUse">
<stop stop-color="#ec0000"/>
<stop offset="1" stop-color="white" stop-opacity="0"/>
</linearGradient>
<linearGradient id="paint16_linear_449_4115" x1="1550.8" y1="130.599" x2="1550.8" y2="936.999" gradientUnits="userSpaceOnUse">
<stop stop-color="#ec0000"/>
<stop offset="1" stop-color="white" stop-opacity="0"/>
</linearGradient>
<linearGradient id="paint17_linear_449_4115" x1="1516.68" y1="130.599" x2="1516.68" y2="936.999" gradientUnits="userSpaceOnUse">
<stop stop-color="#ec0000"/>
<stop offset="1" stop-color="white" stop-opacity="0"/>
</linearGradient>
<linearGradient id="paint18_linear_449_4115" x1="-124.81" y1="659.836" x2="-124.81" y2="1027" gradientUnits="userSpaceOnUse">
<stop stop-color="#ec0000"/>
<stop offset="1" stop-color="white" stop-opacity="0"/>
</linearGradient>
<linearGradient id="paint19_linear_449_4115" x1="-107.745" y1="625.689" x2="-107.745" y2="1027" gradientUnits="userSpaceOnUse">
<stop stop-color="#ec0000"/>
<stop offset="1" stop-color="white" stop-opacity="0"/>
</linearGradient>
<linearGradient id="paint20_linear_449_4115" x1="-90.6746" y1="591.567" x2="-90.6746" y2="1027" gradientUnits="userSpaceOnUse">
<stop stop-color="#ec0000"/>
<stop offset="1" stop-color="white" stop-opacity="0"/>
</linearGradient>
<linearGradient id="paint21_linear_449_4115" x1="-73.6181" y1="557.446" x2="-73.6181" y2="1027" gradientUnits="userSpaceOnUse">
<stop stop-color="#ec0000"/>
<stop offset="1" stop-color="white" stop-opacity="0"/>
</linearGradient>
<linearGradient id="paint22_linear_449_4115" x1="-56.5537" y1="523.298" x2="-56.5537" y2="1027" gradientUnits="userSpaceOnUse">
<stop stop-color="#ec0000"/>
<stop offset="1" stop-color="white" stop-opacity="0"/>
</linearGradient>
<linearGradient id="paint23_linear_449_4115" x1="-39.4714" y1="489.177" x2="-39.4714" y2="1027" gradientUnits="userSpaceOnUse">
<stop stop-color="#ec0000"/>
<stop offset="1" stop-color="white" stop-opacity="0"/>
</linearGradient>
<linearGradient id="paint24_linear_449_4115" x1="-22.4148" y1="455.055" x2="-22.4148" y2="1027" gradientUnits="userSpaceOnUse">
<stop stop-color="#ec0000"/>
<stop offset="1" stop-color="white" stop-opacity="0"/>
</linearGradient>
<linearGradient id="paint25_linear_449_4115" x1="-5.35434" y1="420.907" x2="-5.35434" y2="1027" gradientUnits="userSpaceOnUse">
<stop stop-color="#ec0000"/>
<stop offset="1" stop-color="white" stop-opacity="0"/>
</linearGradient>
<linearGradient id="paint26_linear_449_4115" x1="11.7123" y1="386.786" x2="11.7123" y2="1027" gradientUnits="userSpaceOnUse">
<stop stop-color="#ec0000"/>
<stop offset="1" stop-color="white" stop-opacity="0"/>
</linearGradient>
<linearGradient id="paint27_linear_449_4115" x1="28.7767" y1="352.666" x2="28.7767" y2="1027" gradientUnits="userSpaceOnUse">
<stop stop-color="#ec0000"/>
<stop offset="1" stop-color="white" stop-opacity="0"/>
</linearGradient>
<linearGradient id="paint28_linear_449_4115" x1="45.8473" y1="318.518" x2="45.8473" y2="1027" gradientUnits="userSpaceOnUse">
<stop stop-color="#ec0000"/>
<stop offset="1" stop-color="white" stop-opacity="0"/>
</linearGradient>
<linearGradient id="paint29_linear_449_4115" x1="62.9077" y1="284.396" x2="62.9077" y2="1027" gradientUnits="userSpaceOnUse">
<stop stop-color="#ec0000"/>
<stop offset="1" stop-color="white" stop-opacity="0"/>
</linearGradient>
<linearGradient id="paint30_linear_449_4115" x1="79.9721" y1="250.249" x2="79.9721" y2="1027" gradientUnits="userSpaceOnUse">
<stop stop-color="#ec0000"/>
<stop offset="1" stop-color="white" stop-opacity="0"/>
</linearGradient>
<linearGradient id="paint31_linear_449_4115" x1="97.4099" y1="220.599" x2="97.4099" y2="1027" gradientUnits="userSpaceOnUse">
<stop stop-color="#ec0000"/>
<stop offset="1" stop-color="white" stop-opacity="0"/>
</linearGradient>
<linearGradient id="paint32_linear_449_4115" x1="131.531" y1="220.599" x2="131.531" y2="1027" gradientUnits="userSpaceOnUse">
<stop stop-color="#ec0000"/>
<stop offset="1" stop-color="white" stop-opacity="0"/>
</linearGradient>
<linearGradient id="paint33_linear_449_4115" x1="165.656" y1="220.599" x2="165.656" y2="1027" gradientUnits="userSpaceOnUse">
<stop stop-color="#ec0000"/>
<stop offset="1" stop-color="white" stop-opacity="0"/>
</linearGradient>
<linearGradient id="paint34_linear_449_4115" x1="199.797" y1="220.599" x2="199.797" y2="1027" gradientUnits="userSpaceOnUse">
<stop stop-color="#ec0000"/>
<stop offset="1" stop-color="white" stop-opacity="0"/>
</linearGradient>
<linearGradient id="paint35_linear_449_4115" x1="233.918" y1="220.599" x2="233.918" y2="1027" gradientUnits="userSpaceOnUse">
<stop stop-color="#ec0000"/>
<stop offset="1" stop-color="white" stop-opacity="0"/>
</linearGradient>
<linearGradient id="paint36_linear_449_4115" x1="323.672" y1="26.0908" x2="-43.491" y2="26.0908" gradientUnits="userSpaceOnUse">
<stop stop-color="#ec0000"/>
<stop offset="1" stop-color="white" stop-opacity="0"/>
</linearGradient>
<linearGradient id="paint37_linear_449_4115" x1="357.82" y1="43.1557" x2="-43.4904" y2="43.1557" gradientUnits="userSpaceOnUse">
<stop stop-color="#ec0000"/>
<stop offset="1" stop-color="white" stop-opacity="0"/>
</linearGradient>
<linearGradient id="paint38_linear_449_4115" x1="391.941" y1="60.2243" x2="-43.4906" y2="60.2243" gradientUnits="userSpaceOnUse">
<stop stop-color="#ec0000"/>
<stop offset="1" stop-color="white" stop-opacity="0"/>
</linearGradient>
<linearGradient id="paint39_linear_449_4115" x1="426.063" y1="77.2831" x2="-43.4907" y2="77.283" gradientUnits="userSpaceOnUse">
<stop stop-color="#ec0000"/>
<stop offset="1" stop-color="white" stop-opacity="0"/>
</linearGradient>
<linearGradient id="paint40_linear_449_4115" x1="460.211" y1="94.3477" x2="-43.4902" y2="94.3477" gradientUnits="userSpaceOnUse">
<stop stop-color="#ec0000"/>
<stop offset="1" stop-color="white" stop-opacity="0"/>
</linearGradient>
<linearGradient id="paint41_linear_449_4115" x1="494.332" y1="111.429" x2="-43.4903" y2="111.429" gradientUnits="userSpaceOnUse">
<stop stop-color="#ec0000"/>
<stop offset="1" stop-color="white" stop-opacity="0"/>
</linearGradient>
<linearGradient id="paint42_linear_449_4115" x1="528.453" y1="128.487" x2="-43.4905" y2="128.487" gradientUnits="userSpaceOnUse">
<stop stop-color="#ec0000"/>
<stop offset="1" stop-color="white" stop-opacity="0"/>
</linearGradient>
<linearGradient id="paint43_linear_449_4115" x1="562.602" y1="145.546" x2="-43.4899" y2="145.546" gradientUnits="userSpaceOnUse">
<stop stop-color="#ec0000"/>
<stop offset="1" stop-color="white" stop-opacity="0"/>
</linearGradient>
<linearGradient id="paint44_linear_449_4115" x1="596.723" y1="162.615" x2="-43.49" y2="162.615" gradientUnits="userSpaceOnUse">
<stop stop-color="#ec0000"/>
<stop offset="1" stop-color="white" stop-opacity="0"/>
</linearGradient>
<linearGradient id="paint45_linear_449_4115" x1="630.844" y1="179.68" x2="-43.4902" y2="179.68" gradientUnits="userSpaceOnUse">
<stop stop-color="#ec0000"/>
<stop offset="1" stop-color="white" stop-opacity="0"/>
</linearGradient>
<linearGradient id="paint46_linear_449_4115" x1="664.992" y1="196.748" x2="-43.4897" y2="196.748" gradientUnits="userSpaceOnUse">
<stop stop-color="#ec0000"/>
<stop offset="1" stop-color="white" stop-opacity="0"/>
</linearGradient>
<linearGradient id="paint47_linear_449_4115" x1="699.113" y1="213.807" x2="-43.4899" y2="213.807" gradientUnits="userSpaceOnUse">
<stop stop-color="#ec0000"/>
<stop offset="1" stop-color="white" stop-opacity="0"/>
</linearGradient>
<linearGradient id="paint48_linear_449_4115" x1="733.262" y1="230.872" x2="-43.4892" y2="230.872" gradientUnits="userSpaceOnUse">
<stop stop-color="#ec0000"/>
<stop offset="1" stop-color="white" stop-opacity="0"/>
</linearGradient>
<linearGradient id="paint49_linear_449_4115" x1="762.91" y1="248.312" x2="-43.4906" y2="248.312" gradientUnits="userSpaceOnUse">
<stop stop-color="#ec0000"/>
<stop offset="1" stop-color="white" stop-opacity="0"/>
</linearGradient>
<linearGradient id="paint50_linear_449_4115" x1="762.91" y1="282.431" x2="-43.4906" y2="282.431" gradientUnits="userSpaceOnUse">
<stop stop-color="#ec0000"/>
<stop offset="1" stop-color="white" stop-opacity="0"/>
</linearGradient>
<linearGradient id="paint51_linear_449_4115" x1="762.91" y1="316.556" x2="-43.4906" y2="316.556" gradientUnits="userSpaceOnUse">
<stop stop-color="#ec0000"/>
<stop offset="1" stop-color="white" stop-opacity="0"/>
</linearGradient>
<linearGradient id="paint52_linear_449_4115" x1="762.91" y1="350.699" x2="-43.4906" y2="350.699" gradientUnits="userSpaceOnUse">
<stop stop-color="#ec0000"/>
<stop offset="1" stop-color="white" stop-opacity="0"/>
</linearGradient>
<linearGradient id="paint53_linear_449_4115" x1="762.91" y1="384.819" x2="-43.4906" y2="384.818" gradientUnits="userSpaceOnUse">
<stop stop-color="#ec0000"/>
<stop offset="1" stop-color="white" stop-opacity="0"/>
</linearGradient>
</defs>
</svg>
