<svg id="Layer_1" data-name="Layer 1" xmlns="http://www.w3.org/2000/svg" xmlns:xlink="http://www.w3.org/1999/xlink" viewBox="0 0 859.98 859.98"><defs><style>.cls-1{fill:none;}.cls-2{clip-path:url(#clip-path);}.cls-3{fill:url(#linear-gradient);}.cls-4{clip-path:url(#clip-path-2);}.cls-5{fill:url(#linear-gradient-2);}.cls-6{clip-path:url(#clip-path-3);}.cls-7{fill:#253544;}</style><clipPath id="clip-path" transform="translate(90.53 29.92)"><path class="cls-1" d="M359.84,238V352.41A71.32,71.32,0,0,1,336.64,405l-93.15,85-85.18-83a71.17,71.17,0,0,1-13.93-19.12q-2.12,1.62-4.07,3.23c-1.94,1.62-3.77,3.23-5.47,4.82-16.79,14.15-28.19,33.86-33.3,55.21-.85,3.56-1.53,7.17-2,10.8-8.66,41.58,6.34,89.58,47.82,107.66,2.85,1.34,5.72,2.54,8.64,3.61,17.46,6.43,36.64,8.11,55.77,7.8l7.07.13H407c3.81-.17,9.63-.05,15.28.08,6.88.15,13.53.3,16-.08l9.73-3.43a23.09,23.09,0,0,0,3-1.3l25.33-13.16,12.2-7.55c12.39-9.89,12.39-9.89,19.91-17.75C528.36,517.17,534.06,491,528,471.44A62.92,62.92,0,0,0,519,454.71a64.9,64.9,0,0,0-13.13-13.09l-.44-.35a45.9,45.9,0,0,0-6.4-4.68c-15.17-9.25-39.31-13-65.15-2.24l-12.51,5.21,3-13.22c4.41-19.54,13.88-38.74,27.38-55.5a157,157,0,0,1,14-15.22A151.54,151.54,0,0,1,588.07,309.7c-1.1-2.6-2.26-5.16-3.45-7.62-1.6-3.28-3.32-6.53-5.11-9.65l-.11-.19a121.47,121.47,0,0,0-7.58-10.95c-24.05-32.57-61.31-54.09-104.92-60.62a179.29,179.29,0,0,0-26.64-2c-28.34,0-56.29,6.65-80.42,19.26"/></clipPath><linearGradient id="linear-gradient" y1="800.09" x2="1" y2="800.09" gradientTransform="matrix(374.14, 0, 0, -374.14, 114.54, 299745.82)" gradientUnits="userSpaceOnUse"><stop offset="0" stop-color="#67dbbb"/><stop offset="1" stop-color="#46b8e2"/><stop offset="1" stop-color="#46b8e2"/></linearGradient><clipPath id="clip-path-2" transform="translate(90.53 29.92)"><path class="cls-1" d="M544.11,495.55c0-.2,0-.4.07-.6s0-.41.05-.62c0,.41-.07.81-.12,1.22"/></clipPath><linearGradient id="linear-gradient-2" y1="800" y2="800" gradientTransform="matrix(374.14, 0, 0, -374.14, 241.57, 299806.16)" xlink:href="#linear-gradient"/><clipPath id="clip-path-3" transform="translate(90.53 29.92)"><rect class="cls-1" width="800" height="800"/></clipPath></defs><title>McFOC Logo Jan</title><g class="cls-2"><rect class="cls-3" x="35.41" y="96.02" width="608.1" height="608.1" transform="translate(-92.94 387.13) rotate(-45)"/></g><g class="cls-4"><rect class="cls-5" x="543.7" y="494.46" width="0.95" height="0.95" transform="translate(-100.06 559.67) rotate(-45)"/></g><g class="cls-6"><path class="cls-7" d="M343.84,248.63V352.41a55.28,55.28,0,0,1-18,40.75l-82,74.82-74.39-72.51A55.54,55.54,0,0,1,152.82,356V254.79L196.88,308h97.05Z" transform="translate(90.53 29.92)"/><path class="cls-7" d="M544.11,495.55c0-.2,0-.4.07-.6s0-.41.05-.62c0,.41-.07.81-.12,1.22" transform="translate(90.53 29.92)"/><path class="cls-7" d="M544.23,494.33c0,.21,0,.41-.05.62s0,.4-.07.6c0-.41.08-.81.12-1.22" transform="translate(90.53 29.92)"/><path class="cls-7" d="M702.83,443.31a201.67,201.67,0,0,1-3.6,40.32,176.29,176.29,0,0,1-5.11,19.86,116.73,116.73,0,0,1-7.89,18.64c-1.55,3.12-3.2,6.17-5,9.13-8.94,14.81-21.48,27.42-37.58,35.66-2.34,1.39-4.75,2.68-7.21,3.88s-5,2.31-7.55,3.31c-3.18.78-5.9,1.4-7.7,1.95q-.83.26-1.71.48l-1.07.27c-1,.23-1.95.44-3,.64l-1.73.31-1.32.22c-1.67.26-3.41.48-5.2.67l-1.57.16c-1.69.16-3.42.3-5.18.42l-2.25.14c-.35,0-.69,0-1,.06l-2.23.1-3.43.13-2.64.08c-4.15.1-8.29.15-12.29.19,0,0,0,0,0,0h-3.12l-2.63,0L568,580l-1.35,0-1.32,0-41.81.42-59,.6q2.6-1,5.1-2.11a177.24,177.24,0,0,0,16.28-8q2.12-1,4.2-2.14l.15-.08c.64-.35,1.29-.7,1.93-1.07l1.56-.9.8-.47q2.84-1.69,5.59-3.57l1.21-.84,1.1-.78c.6-.42,1.19-.86,1.78-1.3s1.4-1.06,2.09-1.6c1.07-.84,2.13-1.7,3.17-2.58.21-.17.41-.33.6-.51.53-.44,1.05-.9,1.57-1.36.13-.11.26-.22.38-.34q1.72-1.53,3.38-3.15c.59-.56,1.17-1.13,1.74-1.72,1-1,1.92-2,2.84-3,.54-.58,1.07-1.17,1.58-1.76,1-1.08,1.88-2.18,2.78-3.29.42-.51.83-1,1.24-1.55q2.7-3.47,5.08-7.12c.33-.49.64-1,1-1.49.06-.11.13-.21.19-.31.33-.52.65-1,1-1.58q1.15-1.94,2.19-3.9c.23-.43.46-.87.68-1.31.33-.63.65-1.27,1-1.91.2-.4.39-.81.58-1.22,0,0,0,0,0-.08.23-.49.45-1,.66-1.46s.54-1.24.8-1.87.46-1.12.67-1.69.34-.89.51-1.34l.42-1.19c.39-1.1.74-2.2,1.08-3.3.12-.44.25-.87.37-1.31a2.76,2.76,0,0,0,.08-.27c.3-1,.56-2.07.8-3.11s.48-2.15.68-3.23c.11-.54.2-1.08.28-1.62s.19-1.08.25-1.63.12-.82.17-1.23.1-.83.14-1.25c0-.2,0-.4.07-.6s0-.41.05-.62c0-.41.07-.83.1-1.24s.08-1.11.1-1.66a67.39,67.39,0,0,0-.11-8.52c0-.44-.07-.87-.11-1.31q-.12-1.31-.3-2.61h0c-.11-.87-.25-1.75-.4-2.62a71.64,71.64,0,0,0-2.25-9.23l-.06-.21a76.78,76.78,0,0,0-11-20.59,78.87,78.87,0,0,0-15.74-15.76c-.43-.37-.85-.73-1.29-1.09l-1.23-1c-1.64-1.27-3.32-2.46-5.05-3.55-.37-.24-.75-.48-1.13-.7s-.75-.46-1.13-.67c-1.13-.66-2.28-1.27-3.45-1.85l-1.17-.57c-.39-.19-.78-.38-1.18-.55l-1.18-.52c-.8-.35-1.6-.67-2.41-1l-1-.38a75.92,75.92,0,0,0-12-3.29c-.46-.09-.93-.18-1.4-.25a81.93,81.93,0,0,0-8.42-1c-.48,0-1-.07-1.45-.09l-1.57-.07-.7,0-1.29,0a99.7,99.7,0,0,0-25.82,3.11,127.48,127.48,0,0,1,21.06-37.45,144,144,0,0,1,12.9-14l.28-.27a132.46,132.46,0,0,1,32.25-25c17,2.94,32.25,12.35,44.73,24.24.62.6,1.24,1.21,1.84,1.83s1,1,1.47,1.52q1.65,1.73,3.22,3.53c.25.29.51.58.76.88l1.59,1.89c.39.47.77.94,1.14,1.42.22.26.43.53.64.8.44.56.88,1.13,1.31,1.71s1,1.3,1.45,2l.09.12c1.19,1.63,2.34,3.29,3.43,5l.88,1.34c.62,1,1.24,2,1.83,2.94l.08.12c.6,1,1.19,2,1.77,3s1.08,1.89,1.6,2.85l.47.87c.31.57.62,1.16.92,1.74s.48.92.71,1.39c.35.67.69,1.35,1,2,.26.51.5,1,.75,1.54.4.85.8,1.69,1.19,2.54s.89,2,1.31,2.94.94,2.18,1.39,3.28l.67-.23c-.19-.7-.39-1.39-.6-2.09s-.34-1.15-.52-1.73-.35-1.15-.53-1.73q-.37-1.19-.78-2.37-.87-2.62-1.84-5.22c-.49-1.31-1-2.61-1.52-3.9-.21-.53-.42-1.05-.64-1.57q-1.27-3.09-2.72-6.12c-.26-.56-.52-1.13-.8-1.68a5.48,5.48,0,0,0-.29-.6l-.78-1.57c-.33-.65-.66-1.3-1-1.95s-.68-1.29-1-1.93c-.53-1-1.08-2-1.64-2.92s-1.06-1.81-1.6-2.7-1-1.7-1.59-2.54c-.29-.46-.59-.91-.9-1.36s-.64-1-1-1.47c-.15-.23-.31-.47-.48-.7-.48-.71-1-1.41-1.49-2.11-.13-.2-.27-.39-.42-.58-.4-.55-.8-1.1-1.22-1.64q-2-2.72-4.25-5.3c-.55-.65-1.11-1.29-1.67-1.92l-.13-.14c-.62-.69-1.24-1.37-1.87-2s-1.27-1.33-1.92-2-1.24-1.24-1.87-1.85l-.1-.09c-.67-.64-1.34-1.27-2-1.89s-1.38-1.24-2.08-1.84-1.37-1.18-2.07-1.75l-.05,0c-.7-.57-1.41-1.14-2.13-1.69l-.07-.06L539,341.21l-.78-.57c-.65-.48-1.31-.94-2-1.4a105.68,105.68,0,0,0-11.3-6.75,138.88,138.88,0,0,1,36.45-8.68,135.21,135.21,0,0,1,32,.58c1.29.17,2.57.37,3.85.58l-.2.4a1.47,1.47,0,0,1,.33.14l.52.26c18.48,10.84,29.08,33.88,33.94,54.13.28,1.09.55,2.21.79,3.34.19.85.37,1.71.54,2.57.36,1.76.68,3.55,1,5.33.06.42.13.83.2,1.25.36,2.19.69,4.36,1,6.44l1.18,12.89h1.32l.39-13.07c0-.88,0-1.77,0-2.66s0-1.76-.08-2.65-.06-1.68-.1-2.51-.1-1.87-.16-2.8c-.08-1.17-.16-2.34-.26-3.51l-.06-.74c-.12-1.31-.25-2.62-.4-3.92-.07-.7-.16-1.39-.24-2.08-.16-1.25-.33-2.51-.52-3.75-.13-.86-.26-1.71-.41-2.56l-.27-1.55a120.69,120.69,0,0,0-4.67-18c-.13-.39-.27-.77-.41-1.15s-.31-.88-.48-1.31q-.36-1-.75-1.95c-.29-.72-.58-1.44-.88-2.15-.52-1.21-1.06-2.42-1.63-3.61-.3-.64-.6-1.27-.92-1.9s-.63-1.25-1-1.87-.66-1.23-1-1.84-.7-1.24-1.06-1.86c-.59-1-1.19-1.91-1.82-2.85A120.74,120.74,0,0,1,665,359.89l-.19.21h0a0,0,0,0,0,0,0h0l.07.06c7.67,7.52,11.57,17.56,12.87,28.09a81.16,81.16,0,0,1,.28,16c-1.22,18.23-7.22,34.23-17.22,49.23,17-14,25-37,26.42-59,.11-1.46.18-2.93.22-4.4.27.52.53,1,.79,1.57a108,108,0,0,1,14.18,42.51,73.14,73.14,0,0,1,.37,9.14" transform="translate(90.53 29.92)"/><path class="cls-7" d="M664.85,360.1h0a0,0,0,0,1,0,0h0" transform="translate(90.53 29.92)"/><path d="M664.85,360.1h0a0,0,0,0,1,0,0h0" transform="translate(90.53 29.92)"/></g></svg>