<?xml version="1.0" encoding="utf-8"?>
<!-- Generator: Adobe Illustrator 23.1.0, SVG Export Plug-In . SVG Version: 6.00 Build 0)  -->
<svg version="1.1" id="Layer_1" xmlns="http://www.w3.org/2000/svg" xmlns:xlink="http://www.w3.org/1999/xlink" x="0px" y="0px"
	 viewBox="0 0 500 500" style="enable-background:new 0 0 500 500;" xml:space="preserve">
<style type="text/css">
	.st0{fill:none;stroke:#263238;stroke-miterlimit:10;}
	.st1{fill:#FFFFFF;}
	.st2{fill:#BFBFBF;}
	.st3{fill:#757575;}
	.st4{fill:#263238;stroke:#263238;stroke-linecap:round;stroke-linejoin:round;}
	.st5{fill:none;stroke:#263238;stroke-linecap:round;stroke-linejoin:round;}
	.st6{opacity:0.7;}
	.st7{fill:#999999;}
	.st8{fill:#FFFFFF;stroke:#263238;stroke-linecap:round;stroke-linejoin:round;}
	.st9{opacity:0.3;stroke:#263238;stroke-linecap:round;stroke-linejoin:round;enable-background:new    ;}
	.st10{fill:#92E3A9;stroke:#263238;stroke-linecap:round;stroke-linejoin:round;}
	.st11{clip-path:url(#SVGID_2_);}
	.st12{opacity:0.2;enable-background:new    ;}
	.st13{opacity:0.3;enable-background:new    ;}
	.st14{fill:#BFBFBF;stroke:#263238;stroke-linecap:round;stroke-linejoin:round;}
	.st15{clip-path:url(#SVGID_4_);}
	.st16{clip-path:url(#SVGID_6_);}
	.st17{fill:#263238;}
	.st18{fill:none;stroke:#BFBFBF;stroke-miterlimit:10;}
	.st19{clip-path:url(#SVGID_8_);}
	.st20{fill:#121413;stroke:#263238;stroke-linecap:round;stroke-linejoin:round;}
	.st21{clip-path:url(#SVGID_10_);}
	.st22{fill:#FFFFFF;stroke:#263238;stroke-width:1;stroke-linecap:round;stroke-linejoin:round;stroke-miterlimit:4.0002;}
	.st23{fill:#181836;}
	.st24{clip-path:url(#SVGID_12_);}
	.st25{fill:#EC0000;}
	.st26{clip-path:url(#SVGID_14_);}
	.st27{opacity:0.2;}
	.st28{fill:#92E3A9;}
	.st29{opacity:0.1;enable-background:new    ;}
	.st30{fill:#FFFFFF;stroke:#263238;stroke-miterlimit:10;}
	.st31{clip-path:url(#SVGID_16_);}
	.st32{opacity:0.1;fill:#FFFFFF;enable-background:new    ;}
	.st33{fill:#35495E;}
</style>
<g id="freepik--Graphics--inject-73">
	<path class="st0" d="M380.5,194.2c4.2-1,8-3.2,11-6.4l7,2.4l3.5-6.1l-5.6-4.9c1.3-4.2,1.3-8.6,0-12.7l5.6-4.9l-3.5-6.1l-7,2.4
		c-3-3.2-6.8-5.4-11-6.4l-1.5-7.3h-3.5"/>
	<path class="st0" d="M372,144.1l-1.5,7.3c-4.2,1-8,3.2-11,6.4l-7-2.4l-3.5,6.1l5.6,4.9c-1.3,4.2-1.3,8.6,0,12.7L349,184l3.5,6.1
		l7-2.4c3,3.2,6.8,5.4,11,6.4l1.5,7.3h7l1.5-7.3"/>
	<path class="st0" d="M375.1,184.5c-12.5-0.9-14.9-19.1-2.4-22.4"/>
	<path class="st0" d="M383,164.7c6.2,5.7,4.3,16.9-4,19.4"/>
	<path class="st0" d="M377,161.9c1.1,0.1,2.2,0.4,3.2,0.9"/>
	<path class="st0" d="M417.9,199.7l1.5-1.8c2.8,0.8,5.7,0.7,8.4-0.2l3.3,3.6"/>
	<path class="st0" d="M412.4,172l0.6,1.8c-2,2-3.4,4.6-4,7.4l-4.8,1.1l0.1,4.6l4.8,0.8c0.4,1.4,0.9,2.7,1.7,3.9
		c0.7,1.2,1.7,2.3,2.7,3.3l-1.5,4.7l4.1,2.2"/>
	<path class="st0" d="M431.1,201.3l3.9-2.4l-1.7-4.6c2-2,3.4-4.6,4-7.4l4.8-1.1l-0.1-4.6l-4.8-0.8c-0.7-2.8-2.2-5.3-4.4-7.1l1.5-4.7
		l-4.1-2.2l-3.1,3.8c-2.8-0.8-5.7-0.7-8.4,0.2l-3.3-3.6l-4,2.4"/>
	<path class="st0" d="M430.5,182.3c1.4,5.7-4.1,11.3-9.9,8.9c-5.5-2.2-6.3-10.3-1.2-13.4"/>
	<path class="st0" d="M425.8,177.2c1.2,0.4,2.2,1.1,3,2"/>
	<path class="st0" d="M108.8,296l7.5,7.5c-1,4.3,1.7,8.7,6,9.7c1.2,0.3,2.5,0.3,3.7,0l-4.7-4.7l1.3-4.8l4.8-1.3l4.7,4.7
		c1-4.3-1.7-8.7-6-9.7c-1.2-0.3-2.5-0.3-3.7,0l-6.9-6.9"/>
	<path class="st0" d="M104.5,279.6l-6.9-6.9c1-4.4-1.7-8.7-6.1-9.7c-1.2-0.3-2.4-0.3-3.6,0l4.7,4.7l-1.3,4.8l-4.8,1.3l-4.7-4.8
		c-1,4.4,1.7,8.7,6,9.7c1.2,0.3,2.5,0.3,3.7,0l6.9,6.9"/>
	<path class="st0" d="M112.2,286.8l9.6-9.6c0.5-0.5,1-0.9,1.6-1.2l1.9-1l7-8l-4.4-4.3l-8,7l-1,1.9c-0.3,0.6-0.7,1.1-1.2,1.6
		l-7.6,7.6"/>
	<path class="st0" d="M86.6,312c1.3,0.9,3.1,0.6,4.2-0.6l16.7-16.6c0.8-0.7,1.2-1.8,1-2.9l2.9-2.9l0.2,0.2c0.4,0.4,1.1,0.4,1.5,0
		l0,0c0.4-0.4,0.4-1.1,0-1.5l-5.7-5.7c-0.4-0.4-1.1-0.4-1.5,0s-0.4,1.1,0,1.5l0.2,0.2l-2.9,2.9c-1.1-0.2-2.2,0.2-2.9,1l-16.6,16.7
		c-0.8,0.7-1.2,1.7-1.1,2.8"/>
	<path class="st0" d="M83.2,308.8c0.4,0.6,0.9,1.2,1.4,1.7c0.6,0.6,1.3,1.1,2,1.6"/>
	<line class="st0" x1="88.3" y1="307" x2="91.3" y2="304.1"/>
	<line class="st0" x1="95.2" y1="300.1" x2="107.5" y2="287.6"/>
</g>
<g id="freepik--Coding--inject-73">
	<rect x="97" y="87.8" class="st1" width="266.6" height="173.2"/>
	<polygon class="st2" points="363.6,87.8 97,87.8 97,261 125.2,261 169.8,261 363.6,261 	"/>
	<rect x="97" y="87.8" class="st1" width="266.6" height="22.7"/>
	<rect x="97" y="87.8" class="st3" width="266.6" height="22.7"/>
	<path class="st1" d="M345.2,91.4h10.2c1.4,0,2.6,1.2,2.6,2.6v10.2c0,1.4-1.2,2.6-2.6,2.6h-10.2c-1.4,0-2.6-1.2-2.6-2.6V94
		C342.6,92.5,343.7,91.4,345.2,91.4z"/>
	<path class="st1" d="M326.3,91.4h10.2c1.5,0,2.6,1.2,2.6,2.6v10.2c0,1.5-1.2,2.6-2.6,2.6h-10.2c-1.5,0-2.6-1.2-2.6-2.6V94
		C323.6,92.6,324.8,91.4,326.3,91.4z"/>
	<path class="st1" d="M307.4,91.4h10.2c1.4,0,2.6,1.2,2.6,2.6v10.2c0,1.4-1.2,2.6-2.6,2.6h-10.2c-1.4,0-2.6-1.2-2.6-2.6V94
		C304.7,92.5,305.9,91.4,307.4,91.4z"/>
	<path class="st4" d="M112.2,120.4h236.2c2.9,0,5.2,2.3,5.2,5.2v120.1c0,2.9-2.3,5.2-5.2,5.2H112.2c-2.9,0-5.2-2.3-5.2-5.2V125.6
		C107,122.8,109.3,120.4,112.2,120.4z"/>
	<line class="st5" x1="347" y1="102.4" x2="353.6" y2="95.8"/>
	<line class="st5" x1="347" y1="95.8" x2="353.6" y2="102.4"/>
	<rect x="327" y="97.7" class="st5" width="8.8" height="5.8"/>
	<line class="st5" x1="316.9" y1="103.5" x2="308" y2="103.5"/>
	<path class="st3" d="M338.1,209.2h-17.5c-1.1,0-2-0.9-2-2s0.9-2,2-2h17.5c1.1,0,2,0.9,2,2S339.2,209.2,338.1,209.2z"/>
	<path class="st3" d="M338.1,223h-48.9c-1.1,0-2-0.9-2-2s0.9-2,2-2h48.9c1.1,0,2,0.9,2,2S339.2,223,338.1,223z"/>
	<path class="st3" d="M338.1,236.8H230.3c-1.1,0-2-0.9-2-2s0.9-2,2-2h107.8c1.1,0,2,0.9,2,2S339.2,236.8,338.1,236.8z"/>
	<path class="st2" d="M125.5,195.3h-8.2c-1.1,0-2-0.9-2-2s0.9-2,2-2h8.2c1.1,0,2,0.9,2,2S126.6,195.3,125.5,195.3z"/>
	<path class="st2" d="M125.5,209.2h-8.2c-1.1,0-2-0.9-2-2s0.9-2,2-2h8.2c1.1,0,2,0.9,2,2S126.6,209.2,125.5,209.2z"/>
	<path class="st2" d="M125.5,223h-8.2c-1.1,0-2-0.9-2-2s0.9-2,2-2h8.2c1.1,0,2,0.9,2,2S126.6,223,125.5,223z"/>
	<path class="st2" d="M125.5,236.8h-8.2c-1.1,0-2-0.9-2-2s0.9-2,2-2h8.2c1.1,0,2,0.9,2,2S126.6,236.8,125.5,236.8z"/>
	<g class="st6">
		<path class="st2" d="M125.5,195.3h-8.2c-1.1,0-2-0.9-2-2s0.9-2,2-2h8.2c1.1,0,2,0.9,2,2S126.6,195.3,125.5,195.3z"/>
	</g>
	<g class="st6">
		<path class="st2" d="M125.5,209.2h-8.2c-1.1,0-2-0.9-2-2s0.9-2,2-2h8.2c1.1,0,2,0.9,2,2S126.6,209.2,125.5,209.2z"/>
	</g>
	<g class="st6">
		<path class="st2" d="M125.5,223h-8.2c-1.1,0-2-0.9-2-2s0.9-2,2-2h8.2c1.1,0,2,0.9,2,2S126.6,223,125.5,223z"/>
	</g>
	<g class="st6">
		<path class="st2" d="M125.5,236.8h-8.2c-1.1,0-2-0.9-2-2s0.9-2,2-2h8.2c1.1,0,2,0.9,2,2S126.6,236.8,125.5,236.8z"/>
	</g>
	<path class="st2" d="M289.1,181.5H117.3c-1.1,0-2-0.9-2-2s0.9-2,2-2h171.8c1.1,0,2,0.9,2,2S290.2,181.5,289.1,181.5z"/>
	<path class="st2" d="M338.1,153.8h-17.5c-1.1,0-2-0.9-2-2s0.9-2,2-2h17.5c1.1,0,2,0.9,2,2S339.2,153.8,338.1,153.8z"/>
	<path class="st2" d="M313.2,153.8h-16.7c-1.1,0-2-0.9-2-2s0.9-2,2-2h16.7c1.1,0,2,0.9,2,2S314.3,153.8,313.2,153.8z"/>
	<path class="st2" d="M289.1,153.8H117.3c-1.1,0-2-0.9-2-2s0.9-2,2-2h171.8c1.1,0,2,0.9,2,2S290.2,153.8,289.1,153.8z"/>
	<path class="st7" d="M338.1,195.3h-17.5c-1.1,0-2-0.9-2-2s0.9-2,2-2h17.5c1.1,0,2,0.9,2,2S339.2,195.3,338.1,195.3z"/>
	<path class="st7" d="M313.2,195.3H134.5c-1.1,0-2-0.9-2-2s0.9-2,2-2h178.7c1.1,0,2,0.9,2,2S314.3,195.3,313.2,195.3z"/>
	<path class="st7" d="M185.8,209.2h-51.3c-1.1,0-2-0.9-2-2s0.9-2,2-2h51.3c1.1,0,2,0.9,2,2S186.9,209.2,185.8,209.2L185.8,209.2z"/>
	<path class="st7" d="M185.8,223h-51.3c-1.1,0-2-0.9-2-2s0.9-2,2-2h51.3c1.1,0,2,0.9,2,2S186.9,223,185.8,223L185.8,223z"/>
	<path class="st7" d="M185.8,236.8h-51.3c-1.1,0-2-0.9-2-2s0.9-2,2-2h51.3c1.1,0,2,0.9,2,2S186.9,236.8,185.8,236.8L185.8,236.8z"/>
</g>
<g id="freepik--character-1--inject-73">
	<path class="st8" d="M152.1,414.2c0,0-5.2,9-3.2,9.4s6.4-7.5,6.4-7.5l11.8-3.1l-8.9-0.9L152.1,414.2z"/>
	<path class="st9" d="M152.1,414.2c0,0-5.2,9-3.2,9.4s6.4-7.5,6.4-7.5l11.8-3.1l-8.9-0.9L152.1,414.2z"/>
	<path class="st8" d="M156.1,408.1c0,0-7.3-1.7-9.4,1.7s-8,13.6-5.7,14.8s4.2-2.6,4.2-2.6L156.1,408.1z"/>
	<path class="st8" d="M186.1,418.5c-4.8,1.7-9.9,2.2-15,1.6l-8.4,2.8c0,0-7.3,3.6-10.8,1.8s8.7-5.8,8.7-5.8s8.1-3.5,5.7-4.4
		s-11.6-0.7-13.4,0.7s-6.6,10.4-10,9.9s1.4-5.4,2.7-7.3s4-9.4,9.6-9.7s24.4,0.6,24.4,0.6l22.1-2.4l5.2,12.6L186.1,418.5z"/>
	<path class="st10" d="M197.6,421.6c1.3,0.9,3,0.9,4.2-0.1c1.4,0.6,2.9,0.3,4-0.7c1.6-1.8,1.8-17.3-2.7-19c-1.3-0.5-4.5-0.5-5,1.4
		c-1.2-0.5-2.6,0.1-3.1,1.3c-0.1,0.2-0.1,0.5-0.2,0.7c-0.4,2.8,2.3,5.4,1.4,13.5C196.1,419.8,196.6,421,197.6,421.6z"/>
	<path class="st9" d="M197.6,421.6c1.3,0.9,3,0.9,4.2-0.1c1.4,0.6,2.9,0.3,4-0.7c1.6-1.8,1.8-17.3-2.7-19c-1.3-0.5-4.5-0.5-5,1.4
		c-1.2-0.5-2.6,0.1-3.1,1.3c-0.1,0.2-0.1,0.5-0.2,0.7c-0.4,2.8,2.3,5.4,1.4,13.5C196.1,419.8,196.6,421,197.6,421.6z"/>
	<path class="st5" d="M202.7,418c0-4.2-0.9-8.4-2.6-12.3"/>
	<path class="st1" d="M307.9,412.4c-0.7,5.7-1.6,11.9-2.5,18.5h-85.8l0.4-11.1c-5.1,1.2-15.1,0.5-15.1,0.5V404c6.1-3.4,7-2.5,7-2.5
		s0.3-39.9,3.9-49.9c1.4-3.8,3.9-7,7.1-9.3l0,0c0.9-0.6,1.8-1.2,2.7-1.8l0.1-0.1c1-0.5,2.2-1.1,3.6-1.7l0.4-0.1
		c13.4-5.5,42.8-11.9,70.1-0.2c1.9,0.8,17.5,8.3,18.8,19C319.3,363.7,315.1,394.2,307.9,412.4z"/>
	<g>
		<g>
			<defs>
				<path id="SVGID_1_" d="M307.9,412.4c-0.7,5.7-1.6,11.9-2.5,18.5h-85.8l0.4-11.1c-5.1,1.2-15.1,0.5-15.1,0.5V404
					c6.1-3.4,7-2.5,7-2.5s0.3-39.9,3.9-49.9c1.4-3.8,3.9-7,7.1-9.3l0,0c0.9-0.6,1.8-1.2,2.7-1.8l0.1-0.1c1-0.5,2.2-1.1,3.6-1.7
					l0.4-0.1c13.4-5.5,42.8-11.9,70.1-0.2c1.9,0.8,17.5,8.3,18.8,19C319.3,363.7,315.1,394.2,307.9,412.4z"/>
			</defs>
			<clipPath id="SVGID_2_">
				<use xlink:href="#SVGID_1_"  style="overflow:visible;"/>
			</clipPath>
			<g class="st11">
				<path class="st12" d="M294.3,363.2l-8.6,39.7c-1.3-1-5.2-1.1-10-0.7c1.1-1.2,1.9-2.5,2.6-3.9C291.2,370.4,294,363.8,294.3,363.2
					z"/>
				<path class="st12" d="M309.9,406.9c-2.1,7.9-3.6,16-4.6,24.1h-85.8l0.8-12.7c5.4-0.8,14.7-1.5,24.5-3.3c0.7,3.1,0.8,6.2,0.2,9.3
					c0,0,39.5,4.9,52.7,1.7c3.8-0.9,7.2-6.2,10.1-13.5C308.5,410.7,309.2,408.8,309.9,406.9z"/>
				<path class="st13" d="M212.8,402.3c0,0-1.9-1.7-8,1.7v16.4c0,0,10-0.4,13.9-2.5c3.4,2.1,2.8-36.2,3.4-56.8
					c-4.9,1.4-5.3,10.7-6.1,19.4C215.4,387.8,214.3,395.1,212.8,402.3z"/>
			</g>
		</g>
	</g>
	<path class="st5" d="M307.9,412.4c-0.7,5.7-1.6,11.9-2.5,18.5h-85.8l0.4-11.1c-5.1,1.2-15.1,0.5-15.1,0.5V404c6.1-3.4,7-2.5,7-2.5
		s0.3-39.9,3.9-49.9c1.4-3.8,3.9-7,7.1-9.3l0,0c0.9-0.6,1.8-1.2,2.7-1.8l0.1-0.1c1-0.5,2.2-1.1,3.6-1.7l0.4-0.1
		c13.4-5.5,42.8-11.9,70.1-0.2c1.9,0.8,17.5,8.3,18.8,19C319.3,363.7,315.1,394.2,307.9,412.4z"/>
	<path class="st5" d="M318.5,357.5c0,0.2,0.1,0.5,0.1,0.8c0.4,7.7-3.7,36.7-10.8,54.1c-2.9,7.3-6.4,12.5-10.1,13.5
		c-13.3,3.2-52.7-1.7-52.7-1.7c1-5.4,0-11-2.9-15.7c0,0,38.8-9.5,43.7-5.6l8.6-39.8"/>
	<path class="st5" d="M288.4,405.1c2.8,1.3,5.1,3.4,6.9,5.9"/>
	<path class="st8" d="M189.6,406.5c0,0-3.6-0.8-5.1,0.9s-7.8,11.1-5.6,12.9s6.5-8.1,6.5-8.1L189.6,406.5z"/>
	<path class="st8" d="M196.9,406.4c0,0-8-1.7-9.8,0.7s-11.9,15.1-5.6,15.5l10-11.3L196.9,406.4z"/>
	<path class="st14" d="M215.1,419.8c0,0-8.3,1.8-11.6,2.5s-9.6,5-13.3,3.3s12-8.1,12-8.1l5.4-2.2L215.1,419.8z"/>
	<path class="st5" d="M221.7,370.5c0.1-3.1,0.2-6.3,0.4-9.4"/>
	<path class="st5" d="M219.5,430.9c1.5-18.9,2.1-56.2,2.1-56.2"/>
	<path class="st8" d="M245,409.6h-28.5c0,0-22.1-6.6-25.8-1.5s-11.5,13-9.3,14.5s11.5-9.2,11.5-9.2l8.1,0.1c0,0-6.9,3-8.3,4.5
		s-4.7,5.6-3,6.4s7.1-4.7,7.1-4.7s8.1-2,10.1-1c6.3,3.2,13.6,3.9,20.4,2l21.7,2.7L245,409.6z"/>
	<path class="st5" d="M291.3,376.9c-0.8-4.6-0.8-9.2-0.1-13.8"/>
	<path class="st5" d="M297.8,353.1c0,0,13.8-18.2,20.8,4.5"/>
	<path class="st1" d="M239.1,407.4c1-1.2,2.7-1.6,4.1-1c1.2-0.9,2.8-1,4.1-0.3c2,1.3,6,16.3,2.1,19.1c-1.1,0.8-4.3,1.5-5.2-0.1
		c-1.1,0.8-2.5,0.6-3.3-0.5c-0.1-0.2-0.3-0.4-0.3-0.6c-1.1-2.6,0.9-5.8-2-13.4C238.1,409.5,238.4,408.3,239.1,407.4z"/>
	<g>
		<g>
			<defs>
				<path id="SVGID_3_" d="M239.1,407.4c1-1.2,2.7-1.6,4.1-1c1.2-0.9,2.8-1,4.1-0.3c2,1.3,6,16.3,2.1,19.1c-1.1,0.8-4.3,1.5-5.2-0.1
					c-1.1,0.8-2.5,0.6-3.3-0.5c-0.1-0.2-0.3-0.4-0.3-0.6c-1.1-2.6,0.9-5.8-2-13.4C238.1,409.5,238.4,408.3,239.1,407.4z"/>
			</defs>
			<clipPath id="SVGID_4_">
				<use xlink:href="#SVGID_3_"  style="overflow:visible;"/>
			</clipPath>
			<g class="st15">
				<path class="st13" d="M239.1,407.4c1-1.2,2.7-1.6,4.1-1c1.2-0.9,2.8-1,4.1-0.3c2,1.3,6,16.3,2.1,19.1c-1.1,0.8-4.3,1.5-5.2-0.1
					c-1.1,0.8-2.5,0.6-3.3-0.5c-0.1-0.2-0.3-0.4-0.3-0.6c-1.1-2.6,0.9-5.8-2-13.4C238.1,409.5,238.4,408.3,239.1,407.4z"/>
			</g>
		</g>
	</g>
	<path class="st5" d="M239.1,407.4c1-1.2,2.7-1.6,4.1-1c1.2-0.9,2.8-1,4.1-0.3c2,1.3,6,16.3,2.1,19.1c-1.1,0.8-4.3,1.5-5.2-0.1
		c-1.1,0.8-2.5,0.6-3.3-0.5c-0.1-0.2-0.3-0.4-0.3-0.6c-1.1-2.6,0.9-5.8-2-13.4C238.1,409.5,238.4,408.3,239.1,407.4z"/>
	<path class="st5" d="M245.5,415.2c0.4,2.3,0.4,4.7,0.1,7"/>
	<path class="st8" d="M258,370.3c-0.1,1.1-1,1.9-2.1,1.8s-1.9-1-1.8-2.1c0.1-1.1,1-1.9,2.1-1.8l0,0C257.2,368.3,258,369.2,258,370.3
		z"/>
	<path class="st8" d="M256.6,400.5c-0.1,1.1-1,1.9-2.1,1.8s-1.9-1-1.8-2.1c0.1-1.1,1-1.9,2-1.8C255.8,398.5,256.6,399.4,256.6,400.5
		z"/>
	<path class="st1" d="M274.4,333.3l-1.4-20.1l-20.9,4.9l-1.1,16.1c-1.3,0.2-2.6,0.4-3.8,0.5l5.1,12.2l10,1.3l15.9-14.7
		C277,333.4,275.7,333.3,274.4,333.3z"/>
	<g>
		<g>
			<defs>
				<path id="SVGID_5_" d="M274.4,333.3l-1.4-20.1l-20.9,4.9l-1.1,16.1c-1.3,0.2-2.6,0.4-3.8,0.5l5.1,12.2l10,1.3l15.9-14.7
					C277,333.4,275.7,333.3,274.4,333.3z"/>
			</defs>
			<clipPath id="SVGID_6_">
				<use xlink:href="#SVGID_5_"  style="overflow:visible;"/>
			</clipPath>
			<g class="st16">
				<path class="st17" d="M251.8,325.1c0.1,14.3,16.9,9.9,21.5-4.4l-0.4-7.6L252,318L251.8,325.1z"/>
			</g>
		</g>
	</g>
	<path class="st5" d="M274.4,333.3l-1.4-20.1l-20.9,4.9l-1.1,16.1c-1.3,0.2-2.6,0.4-3.8,0.5l5.1,12.2l10,1.3l15.9-14.7
		C277,333.4,275.7,333.3,274.4,333.3z"/>
	<path class="st4" d="M239.1,296.1c0,0-7.6-13.2-8.7-20.1c-3.5-21.5,12-14.2,12-14.2s11-9.8,24.6-8.1c13.6,1.7,17.3,7.5,26.4,11.1
		c0,0-6.9,35-15.7,42.9S239.1,296.1,239.1,296.1z"/>
	<path class="st5" d="M243.1,264.9c0,0-3.4-8.3,5.3-14.7"/>
	<path class="st18" d="M258,259.9c10.2-4.5,14.7,3,26.1,5"/>
	<path class="st18" d="M250.2,264.9c0.9-1.2,2-2.2,3.3-3"/>
	<path class="st18" d="M260.6,268.2c0,0,4.4-4.2,13.2,1.3c2.6,1.7,5.6,2.9,8.7,3.4"/>
	<path class="st8" d="M274.1,277.4c-12.7,0.3-25.8-5.4-25.8-5.4c-11.8,7.1-10.1,18.7-10.1,18.7c2.7,27.7,6.4,35.1,19.3,35.1
		c12.9,0,23.5-14,24.3-34C277,292,274.1,277.4,274.1,277.4z"/>
	<path class="st8" d="M280.8,290.7c0.6-0.9,1.6-1.4,2.6-1.5c2.3,0,4,3,3.2,6.8s-1.9,6.7-4.2,6.7c-1.1,0-2-0.7-2.4-1.8"/>
	<path class="st5" d="M255.6,304.3c0,0,1.6,2.1-1.4,3.7s-5.3,1.6-6.1-0.3s2.5-17,2.5-17"/>
	<path class="st5" d="M250.1,293.2c-1.6-0.8-8-3.6-14.1,0.2l0.4,5.9c0,0,2.2,1.2,7.4,1.2c1.7,0,3.4-0.1,5-0.5"/>
	<path class="st5" d="M255.4,293.4l1.9,6.1c0,0,0.8,1,5.9,1s6.8-1.2,6.8-1.2l-0.1-5.9C269.9,293.4,262.4,289,255.4,293.4z"/>
	<line class="st5" x1="250.5" y1="293.4" x2="255.4" y2="293.4"/>
	<path class="st5" d="M251.6,313.6c2.7,0.8,5.5,0.7,8.1-0.3c2-0.8,3.8-2.1,5.1-3.8"/>
	<path class="st5" d="M259.7,287.6c6.4-2.6,9.3,0.5,9.3,0.5"/>
	<path class="st5" d="M242.7,287.3c2.3-1.1,4.9-0.8,6.9,0.8"/>
	<path class="st17" d="M262.3,292c0.6,0,1,1,1,2.2s-0.5,2.2-1.1,2.2s-1-1-1-2.2S261.7,292,262.3,292z"/>
	<path class="st17" d="M246.3,291.8c0.6,0,1,1,1,2.2s-0.5,2.2-1.1,2.2s-1-1-1-2.2S245.7,291.8,246.3,291.8z"/>
	<path class="st18" d="M235.6,280.7c0.2,1.2,0.5,2.3,1,3.4"/>
	<path class="st18" d="M243.3,267.5c-6.3-1.7-8.8,2.1-8.4,8.1"/>
	<path class="st1" d="M250,333.2l7.7,13.9l18.5-14.6l5.7,0.8l-12,21.1c-0.4,0.8-1.4,1.1-2.2,0.6c0,0,0,0-0.1,0l-10.2-6.5l-8,4.9
		c-0.8,0.5-1.8,0.2-2.2-0.5c-0.1-0.2-0.2-0.4-0.2-0.7l-2-18.1L250,333.2z"/>
	<g>
		<g>
			<defs>
				<path id="SVGID_7_" d="M250,333.2l7.7,13.9l18.5-14.6l5.7,0.8l-12,21.1c-0.4,0.8-1.4,1.1-2.2,0.6c0,0,0,0-0.1,0l-10.2-6.5
					l-8,4.9c-0.8,0.5-1.8,0.2-2.2-0.5c-0.1-0.2-0.2-0.4-0.2-0.7l-2-18.1L250,333.2z"/>
			</defs>
			<clipPath id="SVGID_8_">
				<use xlink:href="#SVGID_7_"  style="overflow:visible;"/>
			</clipPath>
			<g class="st19">
				<path class="st13" d="M249.3,333.1l8.4,14l18.8-14.9l5.7,0.9l-12.3,21.3c-0.4,0.8-1.4,1.1-2.2,0.6c0,0,0,0-0.1,0l-10.2-6.5
					l-8,4.9c-0.8,0.5-1.8,0.2-2.2-0.5c-0.1-0.2-0.2-0.4-0.2-0.7l-2-18.1L249.3,333.1z"/>
			</g>
		</g>
	</g>
	<path class="st5" d="M250,333.2l7.7,13.9l18.5-14.6l5.7,0.8l-12,21.1c-0.4,0.8-1.4,1.1-2.2,0.6c0,0,0,0-0.1,0l-10.2-6.5l-8,4.9
		c-0.8,0.5-1.8,0.2-2.2-0.5c-0.1-0.2-0.2-0.4-0.2-0.7l-2-18.1L250,333.2z"/>
	<path class="st4" d="M135.4,424.2h50.3l0,0v6.7l0,0h-50.3c-1.1,0-2-0.9-2-2v-2.7C133.4,425.1,134.3,424.2,135.4,424.2z"/>
	<path class="st20" d="M228.9,430.9h-43.3v-6.7l43.4,2.9c0.7,0.1,1.3,0.6,1.3,1.4v1.1C230.3,430.3,229.7,430.9,228.9,430.9
		L228.9,430.9z"/>
	<path class="st5" d="M269.9,294.4l10.9-3.7l-1.3,1.6"/>
</g>
<g id="freepik--character-2--inject-73">
	<path class="st4" d="M339.6,306.9c0,0-12.5-38.3,19-40.9s35.2,26.7,38.1,41.4c2.3,11.5,23.8,32.6,7.1,48.3
		c-17.4,16.4-59.7,10.9-62.2-12.4S341.4,315.1,339.6,306.9z"/>
	<path class="st1" d="M376.4,313c0,0-1.4,17,7.4,31.5c0,0-11.8,3.9-24.1,0.2l0,0c0.5-4.5,0.3-9.1-0.7-13.5l-0.4-1.9l8.9-7.7
		L376.4,313z"/>
	<g>
		<g>
			<defs>
				<path id="SVGID_9_" d="M376.4,313c0,0-1.4,17,7.4,31.5c0,0-11.8,3.9-24.1,0.2l0,0c0.5-4.5,0.3-9.1-0.7-13.5l-0.4-1.9l8.9-7.7
					L376.4,313z"/>
			</defs>
			<clipPath id="SVGID_10_">
				<use xlink:href="#SVGID_9_"  style="overflow:visible;"/>
			</clipPath>
			<g class="st21">
				<path class="st17" d="M354.7,325.8c1.6,9.1,3.1,11.1,10.9,9.5c5.7-1.2,10.6-9.8,10.9-16.1c-0.3-2.8-0.4-5.7-0.4-8.5l-8.6,11
					L354.7,325.8z"/>
			</g>
		</g>
	</g>
	<path class="st5" d="M376.4,313c0,0-1.4,17,7.4,31.5c0,0-11.8,3.9-24.1,0.2l0,0c0.5-4.5,0.3-9.1-0.7-13.5l-0.4-1.9l8.9-7.7
		L376.4,313z"/>
	<path class="st8" d="M288.6,410.1c0,0-17.5-8-18.4-1.4s3.3,16.8,19.3,11.8l33.5,4.4c0,0,5.7-11.4-0.4-17.7
		C322.6,407.3,293.1,411.9,288.6,410.1z"/>
	<path class="st8" d="M261.7,417.2c0,0-2.8,0.9-3.2,2.7s-1.3,4.4-0.2,4.4s2.4-3.6,2.4-3.6l2.7-0.7L261.7,417.2z"/>
	
		<rect x="263.2" y="400.7" transform="matrix(0.9946 -0.1042 0.1042 0.9946 -41.6247 30.626)" class="st22" width="18.2" height="26"/>
	
		<rect x="260.5" y="401.8" transform="matrix(0.9946 -0.1042 0.1042 0.9946 -41.7964 29.5432)" class="st23" width="2.7" height="26"/>
	<path class="st8" d="M275.1,396.1c-2.2,0.3-3.7,2.2-3.5,4.3c0,0.1,0,0.2,0.1,0.3l0.9-0.1l1-0.1c0-0.1,0-0.2,0-0.3
		c-0.1-1.1,0.7-2.1,1.8-2.3s2.1,0.7,2.3,1.8c0.1,0.7-0.2,1.4-0.8,1.9c0.2,0.7,0.8,1.1,1.5,1.2c1.6-1.5,1.6-4,0.1-5.6
		C277.6,396.4,276.4,396,275.1,396.1L275.1,396.1z"/>
	<line class="st5" x1="265.3" y1="407.1" x2="271.5" y2="406.5"/>
	<line class="st5" x1="265.6" y1="410" x2="277.7" y2="408.7"/>
	<line class="st5" x1="265.9" y1="412.8" x2="272" y2="412.2"/>
	<line class="st5" x1="266.2" y1="415.7" x2="276.3" y2="414.6"/>
	<line class="st5" x1="266.5" y1="418.5" x2="272.5" y2="417.9"/>
	<line class="st5" x1="266.8" y1="421.4" x2="280.1" y2="420"/>
	<line class="st5" x1="267.1" y1="424.2" x2="273.3" y2="423.5"/>
	<path class="st8" d="M271.8,396.5c-2.2,0.3-3.7,2.2-3.5,4.3c0,0.1,0,0.2,0,0.3l0.9-0.1l0,0l1-0.1c0-0.1-0.1-0.2-0.1-0.3
		c0-1.1,0.8-2.1,2-2.1c1,0,1.9,0.7,2.1,1.7c0.1,0.7-0.2,1.4-0.9,1.9c0.2,0.7,0.8,1.1,1.5,1.2c1.6-1.5,1.6-4,0.1-5.6
		C274.2,396.8,273,396.3,271.8,396.5L271.8,396.5z"/>
	<path class="st8" d="M268.4,396.8c-2.2,0.3-3.7,2.2-3.5,4.3c0,0.1,0,0.2,0,0.3l0.9-0.1l1-0.1c0-0.1,0-0.2-0.1-0.3
		c-0.1-1.1,0.7-2.2,1.8-2.3s2.2,0.7,2.3,1.8c0.1,0.7-0.2,1.5-0.8,1.9c0.2,0.7,0.8,1.1,1.5,1.2c0.9-0.8,1.3-2,1.2-3.2
		C272.5,398.2,270.6,396.6,268.4,396.8z"/>
	<path class="st8" d="M265.1,397.2c-2.2,0.3-3.7,2.2-3.5,4.3c0,0.1,0,0.2,0.1,0.3l0.9-0.1l1-0.1c0-0.1,0-0.2,0-0.3
		c-0.1-1.1,0.7-2.1,1.8-2.3s2.1,0.7,2.3,1.8c0.1,0.7-0.2,1.4-0.8,1.9c0.2,0.7,0.8,1.1,1.5,1.2c0.9-0.8,1.3-2,1.2-3.2
		C269.2,398.5,267.2,397,265.1,397.2z"/>
	<path class="st8" d="M260.1,401.7c-0.1-1.1,0.7-2.2,1.8-2.3s2.2,0.7,2.3,1.8c0.1,0.7-0.2,1.5-0.9,1.9c0.2,0.7,0.8,1.1,1.5,1.2
		c1.6-1.5,1.6-4,0.1-5.6s-4-1.6-5.6-0.1s-1.6,4-0.1,5.6l0.1,0.1l-0.2-2.3l1-0.1C260.1,401.8,260.1,401.8,260.1,401.7z"/>
	<path class="st8" d="M257.1,409c0.2,0.4,0.4,0.7,0.6,1.1c-0.4,1.4-0.1,2.9,0.7,4.1c0,0,0.1,2.9,1.1,3.3s2.6,1,2.6,0.2
		s-0.5-3.2-2.3-3.7c0,0,2.1,0.4,1.9-0.8s-0.6-2.8-1.9-3.3l-0.7-0.3c0,0,1.7,0.3,1.5-1s-0.3-2.7-1.2-3.1c-0.2-0.1-0.5-0.1-0.7-0.2
		C257.2,405,256.3,407.2,257.1,409z"/>
	<path class="st8" d="M286.7,409.9c0,0-2-4.3-5.1-6.6s-4.4-6.6-5.7-5.6s-0.1,5.7,1.9,7.3s-0.2,5.1,4.7,9.5"/>
	<path class="st1" d="M404.1,422.5c-0.4,2.7-0.9,5.5-1.4,8.5h-68.6c-0.1-0.9,0.5-2.8,1.2-6c-7.6,2.6-21-1.4-21-1.4
		c1.7-4.4,0.5-15.5,0.5-15.5l7.8-1.6c0,0,3.2-33.8,5.7-43.5c2.6-10.3,16.9-21.5,64.9-18.2l0,0c0,0,22.2-0.4,25.6,14.3
		C422,372.7,405.1,421.8,404.1,422.5z"/>
	<g>
		<g>
			<defs>
				<path id="SVGID_11_" d="M404.1,422.5c-0.4,2.7-0.9,5.5-1.4,8.5h-68.6c-0.1-0.9,0.5-2.8,1.2-6c-7.6,2.6-21-1.4-21-1.4
					c1.7-4.4,0.5-15.5,0.5-15.5l7.8-1.6c0,0,3.2-33.8,5.7-43.5c2.6-10.3,16.9-21.5,64.9-18.2l0,0c0,0,22.2-0.4,25.6,14.3
					C422,372.7,405.1,421.8,404.1,422.5z"/>
			</defs>
			<clipPath id="SVGID_12_">
				<use xlink:href="#SVGID_11_"  style="overflow:visible;"/>
			</clipPath>
			<g class="st24">
				<path class="st12" d="M335.3,424.9c-5.3,1.8-13.4,0.4-17.8-0.6c1.1-0.9,1.9-2.7,2.1-5c3.6-0.6,7.2-6.3,9.6-32.3
					c0.6-6.1,1.8-9.9,3.3-12.5c-1.6,5.9-1.6,12-0.2,17.9c0.9,3.5,3.6,11.9,3.8,15.4C336.6,413.5,336.4,419.3,335.3,424.9z"/>
				<path class="st12" d="M404.1,422.5c-0.4,2.7-0.9,5.5-1.4,8.5h-68.6c1.2-3.8,4.3-21.7,0-32.5c-0.2-0.4,14.7-6.7,24.7-4.1
					c42.3,10.9,27.7-24.1,39.8-30.5l-10.4,40.9l-5.7,1.8c12.3,0.8,8.8,19.2,8.8,19.2C395.8,426.3,400.4,425.1,404.1,422.5z"/>
			</g>
		</g>
	</g>
	<path class="st5" d="M404.1,422.5c-0.4,2.7-0.9,5.5-1.4,8.5h-68.6c-0.1-0.9,0.5-2.8,1.2-6c-7.6,2.6-21-1.4-21-1.4
		c1.7-4.4,0.5-15.5,0.5-15.5l7.8-1.6c0,0,3.2-33.8,5.7-43.5c2.6-10.3,16.9-21.5,64.9-18.2l0,0c0,0,22.2-0.4,25.6,14.3
		C422,372.7,405.1,421.8,404.1,422.5z"/>
	<path class="st1" d="M316.1,406.1c0,0,2.6,1.4,3.5,7.5s-0.5,11.4-3.9,11.3s-4-1.4-3.3-2.7s2.2-3,1-8.2c-1.4-6.5-4.3-6-4.3-6
		S313,404.4,316.1,406.1z"/>
	<path class="st12" d="M319.7,419.4c-0.3,2.3-1,4.1-2.1,5c-0.5,0.4-1.2,0.6-1.8,0.6c-3.4-0.1-4-1.4-3.3-2.7s2.2-3,1-8.2
		c-1.4-6.5-4.3-6-4.3-6s3.9-3.7,7-2c0,0,2.6,1.4,3.5,7.5C319.8,415.6,319.9,417.5,319.7,419.4z"/>
	<path class="st1" d="M381.4,332.5c0,0-17.2,5.2-25.1,2.4l-1.6,10.5c0,0,7.6,6.6,32.1-1.5L381.4,332.5z"/>
	<path class="st25" d="M320.2,403.1c2,6.7,3.9,12,2.1,12.6s-3.3-4.9-5.4-11.6s-3.9-12-2.1-12.6S318.1,396.4,320.2,403.1z"/>
	<path class="st17" d="M316.6,403.2l3.3-1c-0.5-1.6-0.9-3.1-1.4-4.4l-3.3,1C315.7,400.2,316.1,401.7,316.6,403.2z"/>
	<path class="st5" d="M316.3,394.7c0,0,1.5-3.1,2.9-0.9s1.7,8.8,2.7,8.8"/>
	<path class="st5" d="M336.7,362c-1.3,3.8-3,8-4.1,12.6c-1.6,5.9-1.6,12-0.2,17.9c0.9,3.5,3.6,11.9,3.8,15.4
		c0.5,5.7,0.2,11.5-0.9,17.1c-0.6,3.2-1.3,5.1-1.2,6"/>
	<path class="st8" d="M379.1,407.6c0,0-27.9,3.8-37.3,4c-1.4,0-5.8-0.5-5.8-0.5l-6.7-4.5c0,0-5.1-0.8-7.7-0.2l-2.9,3.8
		c0,0-3.6,1.2-1.5,3.9c-0.4,1.3-0.1,2.7,1,3.7c0,0,0.2,2.4,1.7,3.3c0,0,0.3,2.2,2,2.8s12.6-1.1,16-2s35.5,4.1,48.1,3.8
		C386.1,425.7,396.9,413,379.1,407.6z"/>
	<path class="st8" d="M379.5,302c0,0-7.4,2.9-11.7-5.1c-1.9-3.4-5.7-10.6-5.7-10.6c-1.1,2.8,0.3,7.1,0.3,7.1
		c-2.5-1.1-7.3-1.4-7.3-1.4c-1.7-2.9-2.2-9.4-2.2-9.4c-2.4,4-1.7,9.6-1.7,9.6c-3.9,0.4-7.5,1.9-10.5,4.4c0.6,2.5,0.9,6.5,0.6,14.8
		c-0.3,10.8,4.9,13.8,10,17.8s18.9,6.1,23.7-15c0,0,10-3.7,5.1-11.6L379.5,302z"/>
	<path class="st18" d="M371.4,289c3,6.5,8.7,11.4,15.6,13.3"/>
	<path class="st18" d="M368.7,281c0.2,1.3,0.6,2.6,1,3.9"/>
	<path class="st18" d="M373.7,281.5c0,0,5.7,10.8,14.6,11.1"/>
	<path class="st18" d="M391.1,309.1c0,0,14.5,23.4,14.5,37"/>
	<path class="st18" d="M387.3,315.3c0,0,3.6,13,9.3,19.6"/>
	<path class="st18" d="M341.9,281.4c-0.4,1.9-0.7,3.9-0.9,5.9"/>
	<path class="st18" d="M353.7,269.1c0,0-6.7,1.3-11.1,9.2"/>
	<path class="st18" d="M345.2,329.7c0,0-0.2,10.5,5.1,16.4"/>
	<path class="st5" d="M354.7,297.6c7.3-1.4,10.5,2.3,10.5,2.3"/>
	<path class="st5" d="M342.6,300.6c1.6-1.6,3.9-2.5,6.2-2.5"/>
	<path class="st5" d="M359.5,322c2.3-1.3,3.5-4.6,3.5-4.6l-0.5,0.3c-2.9,1.6-6.1,2.6-9.4,3l0,0C354.7,322.5,357.3,323,359.5,322z"/>
	<path class="st5" d="M350.5,315.1c-1-0.1-3.7-1.4-3.9-3.2c-0.1-0.5,0.3-1,0.9-1.5c2.4-1.7,3.7-4.4,3.5-7.3c0-0.2,0-0.3,0-0.3"/>
	<path class="st17" d="M359.9,300.5c0.7-0.1,1.4,1.1,1.6,2.5s-0.2,2.8-0.9,2.9s-1.4-1.1-1.6-2.5S359.2,300.6,359.9,300.5z"/>
	<path class="st17" d="M347.9,304.8c0.2,1.5-0.2,2.7-0.9,2.8s-1.4-1-1.5-2.5s0.2-2.7,0.9-2.8S347.7,303.3,347.9,304.8z"/>
	<path class="st5" d="M370.2,301.8c0,0-0.9-2.6,0.1-4"/>
	<path class="st5" d="M404.1,422.5c-3.7,2.7-8.3,3.8-12.8,3.2c0,0,3.6-18.5-8.8-19.2l5.7-1.8l10.4-40.9"/>
	<path class="st5" d="M391.3,404.6c0,0,6.6,1.7,8.5,7.4"/>
	<path class="st5" d="M364.4,338.9c6.3,0,12.5-1.4,18.2-4"/>
	<path class="st5" d="M355.9,337.9c1.4,0.4,2.8,0.6,4.3,0.8"/>
	<path class="st5" d="M384,349.6c1.8-0.6,3.6-1.4,5.6-2.2"/>
	<path class="st5" d="M353.1,349.8c0,0,6.7,6.4,24.5,1.8"/>
	<path class="st5" d="M358.9,381.4c0,0,1,15.4,12.4,21.1"/>
	<path class="st1" d="M378.8,407.8c0,0,2.2-4.9,8.9-2.5c0,0,6.3,2.2,8.2,8.7s-0.5,12.3-5.1,12.6s-5.5-0.1-4.7-1.5
		c1.7-3.1,1.8-6.9,0.4-10.1C383.7,408.1,378.8,407.8,378.8,407.8z"/>
	<g>
		<g>
			<defs>
				<path id="SVGID_13_" d="M378.8,407.8c0,0,2.2-4.9,8.9-2.5c0,0,6.3,2.2,8.2,8.7s-0.5,12.3-5.1,12.6s-5.5-0.1-4.7-1.5
					c1.7-3.1,1.8-6.9,0.4-10.1C383.7,408.1,378.8,407.8,378.8,407.8z"/>
			</defs>
			<clipPath id="SVGID_14_">
				<use xlink:href="#SVGID_13_"  style="overflow:visible;"/>
			</clipPath>
			<g class="st26">
				<g class="st27">
					<path d="M378.8,407.8c0,0,2.2-4.9,8.9-2.5c0,0,6.3,2.2,8.2,8.7s-0.5,12.3-5.1,12.6s-5.5-0.1-4.7-1.5c1.7-3.1,1.8-6.9,0.4-10.1
						C383.7,408.1,378.8,407.8,378.8,407.8z"/>
				</g>
			</g>
		</g>
	</g>
	<path class="st5" d="M378.8,407.8c0,0,2.2-4.9,8.9-2.5c0,0,6.3,2.2,8.2,8.7s-0.5,12.3-5.1,12.6s-5.5-0.1-4.7-1.5
		c1.7-3.1,1.8-6.9,0.4-10.1C383.7,408.1,378.8,407.8,378.8,407.8z"/>
</g>
<g id="freepik--Desk--inject-73">
	<path class="st28" d="M72.4,387.5c0,0-3.4-29.4-33.9-17.5c0,0,25.9-0.2,30.3,22l4-0.4L72.4,387.5z"/>
	<path class="st29" d="M72.4,387.5c0,0-3.4-29.4-33.9-17.5c0,0,25.9-0.2,30.3,22l4-0.4L72.4,387.5z"/>
	<path class="st28" d="M72.9,387c0,0-2.6-31.4-8.4-55.7c0,0,17.5,18.5,13.5,53.4L72.9,387z"/>
	<path class="st29" d="M72.9,387c0,0-2.6-31.4-8.4-55.7c0,0,17.5,18.5,13.5,53.4L72.9,387z"/>
	<path class="st28" d="M71.2,407.8c0,0-5-43.2-21.8-58c0,0,30,7.5,25.6,53.4L71.2,407.8z"/>
	<path class="st28" d="M76.4,406c0,0,7.3-42.9,24.9-56.8c0,0-30.4,5.8-28.4,51.9L76.4,406z"/>
	<path class="st30" d="M91.8,391.9H56.3v6.2h1.2v21.8c0,6.1,4.9,11,11,11h11c6.1,0,11.1-4.9,11.1-11v-21.8h1.2L91.8,391.9z"/>
	<path class="st30" d="M80.8,397.8h4.7"/>
	<path class="st30" d="M62.3,397.8H76"/>
	<path class="st2" d="M212,403.8l-9.1-74.1c-0.4-2.4-2.4-4.2-4.8-4.3h-10.4l12.1,82.6h8.5c2,0,3.7-1.6,3.8-3.6
		C212,404.2,212,404,212,403.8z"/>
	<path class="st17" d="M206,408H101.2c-2.4-0.1-4.4-1.9-4.8-4.3l-9.1-74.1c-0.3-2,1.1-3.9,3.1-4.2c0.2,0,0.4,0,0.6,0h104.9
		c2.4,0.1,4.4,1.9,4.8,4.3l9.1,74.1c0.3,2-1.1,3.9-3.1,4.2C206.4,408,206.2,408,206,408z"/>
	<g>
		<g>
			<defs>
				<path id="SVGID_15_" d="M206,408H101.2c-2.4-0.1-4.4-1.9-4.8-4.3l-9.1-74.1c-0.3-2,1.1-3.9,3.1-4.2c0.2,0,0.4,0,0.6,0h104.9
					c2.4,0.1,4.4,1.9,4.8,4.3l9.1,74.1c0.3,2-1.1,3.9-3.1,4.2C206.4,408,206.2,408,206,408z"/>
			</defs>
			<clipPath id="SVGID_16_">
				<use xlink:href="#SVGID_15_"  style="overflow:visible;"/>
			</clipPath>
			<g class="st31">
				<path class="st32" d="M206,408H101.2c-2.4-0.1-4.4-1.9-4.8-4.3l-9.1-74.1c-0.3-2,1.1-3.9,3.1-4.2c0.2,0,0.4,0,0.6,0h104.9
					c2.4,0.1,4.4,1.9,4.8,4.3l9.1,74.1c0.3,2-1.1,3.9-3.1,4.2C206.4,408,206.2,408,206,408z"/>
			</g>
		</g>
	</g>
	<path class="st5" d="M206,408H101.2c-2.4-0.1-4.4-1.9-4.8-4.3l-9.1-74.1c-0.3-2,1.1-3.9,3.1-4.2c0.2,0,0.4,0,0.6,0h104.9
		c2.4,0.1,4.4,1.9,4.8,4.3l9.1,74.1c0.3,2-1.1,3.9-3.1,4.2C206.4,408,206.2,408,206,408z"/>
	<path class="st4" d="M157.1,424.9l4.2-47.7c0.1-1.1-0.8-2.1-1.9-2.1h-0.1h-26.4c-1,0-1.9,0.8-2,1.8l-4.6,52
		c-0.1,1.1,0.8,2.1,1.9,2.1h0.1h52.4c1.1,0,2-0.9,2-2l0,0c0-1.1-0.9-2-2-2H159C158,426.9,157.1,426,157.1,424.9L157.1,424.9z"/>
	<path class="st2" d="M182.7,429c0-1.1-0.9-2-2-2h-21.6c-1.1,0-2-0.9-2-2v-0.1l4.2-47.7c0.3-1.1-0.3-2.2-1.3-2.5
		c-1.1-0.3-2.2,0.3-2.5,1.3c-0.1,0.3-0.1,0.5-0.1,0.8l-4.6,52c-0.1,1.1,0.8,2.1,1.9,2.1h0.1h26C181.8,430.9,182.7,430.1,182.7,429z"
		/>
	<line class="st5" x1="62.5" y1="430.9" x2="437.5" y2="430.9"/>
</g>
<g id="freepik--Code--inject-73">
	<path class="st8" d="M412.4,249.3h-19.7c-2.6,0-4.6,2.1-4.6,4.6l0,0v9.6c0,2.6,2.1,4.6,4.6,4.6l0,0h5.1l1.5,8.9l7.9-8.9h5.1
		c2.6,0,4.6-2.1,4.6-4.6l0,0V254C417.1,251.4,415,249.3,412.4,249.3L412.4,249.3z"/>
	<path class="st8" d="M382.2,221h-19.7c-2.6,0-4.6,2.1-4.6,4.6l0,0v9.6c0,2.6,2.1,4.6,4.6,4.6l0,0h5.1l3.9,8.9l5.5-8.9h5.1
		c2.6,0,4.6-2.1,4.6-4.6l0,0v-9.6C386.8,223.1,384.8,221,382.2,221L382.2,221z"/>
	<path class="st8" d="M343.8,230.9h-18.6c-2.4,0-4.4,2-4.4,4.4l0,0v9.1c0,2.4,2,4.4,4.4,4.4l0,0h4.9l5.1,8.4l3.8-8.4h4.9
		c2.4,0,4.4-2,4.4-4.4l0,0v-9.1C348.2,232.9,346.2,230.9,343.8,230.9z"/>
	<path d="M393.3,259.7v-1.3l5.4-2v1.3L395,259l3.7,1.3v1.3L393.3,259.7z"/>
	<path d="M403.9,253.3h1.5l-4.5,11.5h-1.6L403.9,253.3z"/>
	<path d="M406.2,261.6v-1.3l3.7-1.3l-3.7-1.3v-1.3l5.4,2v1.3L406.2,261.6z"/>
</g>
<title>salesforce</title>
<path class="st8" d="M308.1,235.5h-19.7c-2.6,0-4.6,2.1-4.6,4.6l0,0v9.6c0,2.6,2.1,4.6,4.6,4.6l0,0h5.1l1.5,8.9l7.9-8.9h5.1
	c2.6,0,4.6-2.1,4.6-4.6l0,0v-9.5C312.8,237.6,310.7,235.5,308.1,235.5L308.1,235.5z"/>
<path class="st8" d="M268.9,220.2h-19.7c-2.6,0-4.6,2.1-4.6,4.6l0,0v9.6c0,2.6,2.1,4.6,4.6,4.6l0,0h5.1l3.9,8.9l5.5-8.9h5.1
	c2.6,0,4.6-2.1,4.6-4.6l0,0v-9.6C273.5,222.3,271.5,220.2,268.9,220.2L268.9,220.2z"/>
<path class="st8" d="M224.5,237.1h-18.6c-2.4,0-4.4,2-4.4,4.4l0,0v9.1c0,2.4,2,4.4,4.4,4.4l0,0h4.9l5.1,8.4l3.8-8.4h4.9
	c2.4,0,4.4-2,4.4-4.4l0,0v-9.1C228.9,239.1,226.9,237.1,224.5,237.1z"/>
<path d="M258.7,229.1c-0.6,0.4-0.8,1.1-0.5,1.8s1.1,0.8,1.7,0.5s0.8-1.1,0.5-1.8c0,0,0,0,0,0C260.1,229,259.3,228.7,258.7,229.1z
	 M264.3,230.5c-0.1-0.1-0.2-0.2-0.3-0.3c0.1-0.1,0.1-0.1,0.2-0.2c1.1-1.3,1.6-2.6,1.2-3.4c-0.4-0.8-1.7-1-3.3-0.7
	c-0.2,0-0.3,0.1-0.5,0.1c0-0.1-0.1-0.2-0.1-0.3c-0.5-1.7-1.4-2.7-2.3-2.7c-0.8,0-1.7,1-2.2,2.6c-0.1,0.2-0.1,0.3-0.1,0.5
	c-0.1,0-0.2,0-0.3-0.1c-1.7-0.4-3-0.1-3.4,0.7c-0.4,0.8,0,2,1.1,3.2c0.1,0.1,0.2,0.2,0.3,0.4c-0.1,0.1-0.3,0.3-0.4,0.4
	c-1,1.2-1.4,2.4-1,3.2c0.4,0.8,1.8,1,3.4,0.7c0.1,0,0.3-0.1,0.4-0.1c0,0.2,0.1,0.3,0.2,0.5c0.5,1.5,1.3,2.5,2.2,2.5
	c0.9,0,1.7-1,2.3-2.6c0-0.1,0.1-0.3,0.1-0.4c0.2,0,0.3,0.1,0.5,0.1c1.5,0.3,2.8,0.1,3.2-0.7C265.9,233.1,265.4,231.8,264.3,230.5
	L264.3,230.5z M253.8,226.9c0.3-0.5,1.4-0.7,2.8-0.4c0.1,0,0.2,0,0.3,0.1c-0.1,0.6-0.2,1.3-0.3,1.9c-0.5,0.4-1,0.8-1.5,1.2
	c-0.1-0.1-0.2-0.2-0.3-0.3l0,0C253.9,228.4,253.5,227.4,253.8,226.9z M256.5,231.1c-0.4-0.3-0.7-0.6-1-0.9c0.3-0.3,0.6-0.6,1-0.8
	c0,0.3,0,0.6,0,0.9C256.5,230.5,256.5,230.8,256.5,231.1z M256.5,233.9c-0.6,0.1-1.2,0.2-1.9,0.1c-0.3,0-0.7-0.2-0.9-0.5
	c-0.3-0.5,0.1-1.4,1-2.5c0.1-0.1,0.2-0.3,0.3-0.4c0.5,0.4,1,0.9,1.5,1.2c0.1,0.7,0.2,1.3,0.3,2C256.7,233.9,256.6,233.9,256.5,233.9
	z M261.5,228.1c-0.2-0.2-0.5-0.3-0.7-0.4c-0.2-0.1-0.5-0.3-0.7-0.4c0.4-0.2,0.8-0.3,1.2-0.5C261.4,227.2,261.4,227.7,261.5,228.1z
	 M257.7,225.8c0.4-1.3,1.1-2.2,1.6-2.2c0.5,0,1.2,0.9,1.7,2.3c0,0.1,0.1,0.2,0.1,0.3c-0.6,0.2-1.2,0.4-1.8,0.7
	c-0.6-0.3-1.2-0.5-1.8-0.7C257.6,226.1,257.7,225.9,257.7,225.8z M257.4,226.8c0.4,0.1,0.8,0.3,1.2,0.5c-0.5,0.3-1,0.5-1.4,0.9
	C257.3,227.7,257.3,227.2,257.4,226.8z M257.2,232.3c0.2,0.2,0.5,0.3,0.7,0.4c0.2,0.1,0.5,0.3,0.7,0.4c-0.4,0.2-0.8,0.3-1.2,0.5
	C257.3,233.2,257.3,232.8,257.2,232.3z M261,234.6c-0.2,0.6-0.5,1.2-0.9,1.7l0,0c-0.2,0.3-0.5,0.5-0.8,0.5c-0.5,0-1.2-0.8-1.6-2.1
	c-0.1-0.2-0.1-0.3-0.1-0.5c0.6-0.2,1.2-0.4,1.8-0.7c0.6,0.3,1.2,0.5,1.8,0.7C261.1,234.4,261.1,234.5,261,234.6z M261.3,233.6
	c-0.4-0.1-0.8-0.3-1.2-0.5c0.2-0.1,0.5-0.3,0.7-0.4c0.2-0.1,0.5-0.3,0.7-0.5C261.5,232.8,261.4,233.2,261.3,233.6L261.3,233.6z
	 M261.6,230.2c0,0.4,0,0.9,0,1.3c-0.3,0.2-0.7,0.5-1.1,0.7c-0.4,0.2-0.8,0.4-1.1,0.6c-0.4-0.2-0.8-0.4-1.1-0.6
	c-0.4-0.2-0.7-0.5-1.1-0.7c0-0.4,0-0.9,0-1.3l0,0c0-0.4,0-0.9,0-1.3c0.3-0.2,0.7-0.5,1.1-0.7c0.4-0.2,0.8-0.4,1.1-0.6
	c0.4,0.2,0.8,0.4,1.1,0.6c0.4,0.2,0.7,0.4,1.1,0.7C261.6,229.3,261.6,229.8,261.6,230.2L261.6,230.2z M262.3,226.5
	c1.4-0.3,2.4-0.1,2.6,0.4c0.3,0.5-0.1,1.6-1.1,2.7l0,0c-0.1,0.1-0.1,0.1-0.2,0.2c-0.5-0.4-1-0.8-1.5-1.2c-0.1-0.6-0.1-1.3-0.3-1.9
	C262,226.6,262.1,226.6,262.3,226.5z M262.2,229.3c0.4,0.3,0.7,0.6,1,0.9c-0.3,0.3-0.7,0.6-1,0.9c0-0.3,0-0.6,0-0.9
	C262.2,229.9,262.2,229.6,262.2,229.3z M264.9,233.5c-0.3,0.5-1.2,0.6-2.6,0.4c-0.2,0-0.3-0.1-0.5-0.1c0.1-0.6,0.2-1.3,0.3-1.9
	c0.5-0.4,1-0.8,1.5-1.2c0.1,0.1,0.2,0.2,0.2,0.3v0c0.4,0.5,0.8,1,1,1.6C265,232.8,265,233.2,264.9,233.5z"/>
<path d="M213.4,240.8c0.6-0.7,1.5-1.1,2.5-1.1c1.3,0,2.4,0.7,3,1.8c0.5-0.2,1.1-0.4,1.7-0.4c2.3,0,4.2,1.9,4.2,4.3
	c0,2.4-1.9,4.3-4.2,4.3c-0.3,0-0.6,0-0.8-0.1c-0.5,0.9-1.5,1.6-2.7,1.6c-0.5,0-0.9-0.1-1.3-0.3c-0.5,1.3-1.8,2.1-3.2,2.1
	c-1.5,0-2.8-1-3.3-2.3c-0.2,0-0.4,0.1-0.7,0.1c-1.8,0-3.3-1.5-3.3-3.3c0-1.2,0.7-2.3,1.6-2.9c-0.2-0.5-0.3-1-0.3-1.5
	c0-2.1,1.7-3.8,3.8-3.8C211.6,239.3,212.7,239.9,213.4,240.8"/>
<path class="st1" d="M208.1,246.4C208,246.5,208.1,246.5,208.1,246.4c0,0.1,0.1,0.1,0.1,0.1c0.2,0.1,0.4,0.1,0.6,0.1
	c0.4,0,0.7-0.2,0.7-0.6v0c0-0.3-0.3-0.4-0.5-0.5l0,0c-0.2-0.1-0.4-0.1-0.4-0.3v0c0-0.1,0.1-0.2,0.3-0.2c0.2,0,0.4,0.1,0.5,0.1
	c0,0,0,0,0.1,0c0,0,0.1-0.2,0.1-0.2c0,0,0,0,0,0c-0.2-0.1-0.4-0.2-0.6-0.2l0,0c-0.4,0-0.6,0.2-0.6,0.5v0c0,0.3,0.3,0.4,0.5,0.5l0,0
	c0.2,0.1,0.4,0.1,0.4,0.2v0c0,0.1-0.1,0.2-0.3,0.2c-0.1,0-0.3,0-0.5-0.1c0,0,0,0-0.1,0c0,0,0,0-0.1,0L208.1,246.4L208.1,246.4z
	 M213.9,246.4C213.9,246.5,213.9,246.5,213.9,246.4c0,0.1,0.1,0.1,0.1,0.1c0.2,0.1,0.4,0.1,0.6,0.1c0.4,0,0.7-0.2,0.7-0.6v0
	c0-0.3-0.3-0.4-0.5-0.5l0,0c-0.2-0.1-0.4-0.1-0.4-0.3v0c0-0.1,0.1-0.2,0.3-0.2c0.2,0,0.4,0.1,0.5,0.1c0,0,0,0,0.1,0
	c0,0,0.1-0.2,0.1-0.2c0,0,0,0,0,0c-0.2-0.1-0.4-0.2-0.6-0.2l0,0c-0.4,0-0.6,0.2-0.6,0.5v0c0,0.3,0.3,0.4,0.5,0.5l0,0
	c0.2,0.1,0.4,0.1,0.4,0.2v0c0,0.1-0.1,0.2-0.3,0.2c-0.1,0-0.3,0-0.5-0.1c0,0,0,0-0.1,0c0,0,0,0-0.1,0L213.9,246.4L213.9,246.4z
	 M217.9,245.7c0,0.2,0,0.3-0.1,0.5c-0.1,0.1-0.2,0.2-0.3,0.2c-0.1,0-0.3-0.1-0.3-0.2c-0.1-0.1-0.1-0.3-0.1-0.5c0-0.2,0-0.3,0.1-0.5
	c0.1-0.1,0.2-0.2,0.3-0.2c0.1,0,0.3,0.1,0.3,0.2C217.9,245.4,217.9,245.6,217.9,245.7 M218.3,245.4c0-0.1-0.1-0.2-0.2-0.3
	c-0.1-0.1-0.2-0.1-0.3-0.2c-0.1,0-0.2-0.1-0.4-0.1c-0.1,0-0.3,0-0.4,0.1c-0.1,0-0.2,0.1-0.3,0.2c-0.1,0.1-0.1,0.2-0.2,0.3
	c0,0.1,0,0.2,0,0.4c0,0.1,0,0.2,0,0.4c0,0.1,0.1,0.2,0.2,0.3c0.1,0.1,0.2,0.1,0.3,0.2c0.1,0,0.2,0.1,0.4,0.1c0.1,0,0.3,0,0.4-0.1
	c0.1,0,0.2-0.1,0.3-0.2c0.1-0.1,0.1-0.2,0.2-0.3c0-0.1,0-0.2,0-0.4S218.3,245.5,218.3,245.4 M221,246.3
	C221,246.3,221,246.3,221,246.3c-0.1,0-0.1,0-0.2,0c-0.1,0-0.1,0-0.2,0c-0.2,0-0.3,0-0.4-0.1c-0.1-0.1-0.1-0.2-0.1-0.5
	c0-0.2,0-0.3,0.1-0.4c0.1-0.1,0.2-0.2,0.4-0.2c0.1,0,0.2,0,0.4,0.1c0,0,0,0,0,0c0-0.1,0.1-0.1,0.1-0.2c0,0,0,0,0,0
	c0,0-0.1,0-0.2-0.1c-0.1,0-0.2,0-0.3,0c-0.1,0-0.3,0-0.4,0.1c-0.1,0-0.2,0.1-0.3,0.2c-0.1,0.1-0.1,0.2-0.2,0.3
	c0,0.1-0.1,0.2-0.1,0.4c0,0.3,0.1,0.5,0.2,0.7c0.1,0.2,0.4,0.2,0.7,0.2c0.2,0,0.3,0,0.5-0.1c0,0,0,0,0,0L221,246.3L221,246.3z
	 M221.6,245.6c0-0.1,0-0.2,0.1-0.3c0.1-0.1,0.2-0.2,0.3-0.2c0.1,0,0.2,0.1,0.3,0.2c0,0.1,0.1,0.2,0.1,0.3H221.6L221.6,245.6z
	 M222.7,245.3c0-0.1-0.1-0.2-0.1-0.3c-0.1-0.1-0.1-0.1-0.2-0.2c-0.1,0-0.2-0.1-0.3-0.1c-0.1,0-0.3,0-0.4,0.1c-0.1,0-0.2,0.1-0.3,0.2
	c-0.1,0.1-0.1,0.2-0.2,0.3c0,0.1,0,0.2,0,0.4c0,0.1,0,0.3,0.1,0.4c0,0.1,0.1,0.2,0.2,0.3c0.1,0.1,0.2,0.1,0.3,0.2
	c0.1,0,0.3,0.1,0.4,0.1c0.3,0,0.5-0.1,0.6-0.1c0,0,0,0,0-0.1l-0.1-0.2c0,0,0,0,0,0c-0.1,0-0.2,0.1-0.5,0.1c-0.2,0-0.3-0.1-0.4-0.1
	c-0.1-0.1-0.1-0.2-0.1-0.4l1.1,0c0,0,0,0,0,0C222.8,245.8,222.8,245.6,222.7,245.3 M212.5,245.6c0-0.1,0-0.2,0.1-0.3
	c0.1-0.1,0.2-0.2,0.3-0.2s0.2,0.1,0.3,0.2c0,0.1,0.1,0.2,0.1,0.3H212.5z M213.7,245.3c0-0.1-0.1-0.2-0.1-0.3
	c-0.1-0.1-0.1-0.1-0.2-0.2c-0.1,0-0.2-0.1-0.3-0.1c-0.1,0-0.3,0-0.4,0.1c-0.1,0-0.2,0.1-0.3,0.2c-0.1,0.1-0.1,0.2-0.2,0.3
	c0,0.1,0,0.2,0,0.4c0,0.1,0,0.3,0.1,0.4c0,0.1,0.1,0.2,0.2,0.3c0.1,0.1,0.2,0.1,0.3,0.2c0.1,0,0.3,0.1,0.4,0.1
	c0.3,0,0.5-0.1,0.6-0.1c0,0,0,0,0-0.1l-0.1-0.2c0,0,0,0,0,0c-0.1,0-0.2,0.1-0.5,0.1c-0.2,0-0.3-0.1-0.4-0.1
	c-0.1-0.1-0.1-0.2-0.1-0.4l1.1,0c0,0,0,0,0,0C213.7,245.8,213.7,245.6,213.7,245.3 M210.1,246.3C210,246.3,210,246.3,210.1,246.3
	c-0.1-0.1-0.1-0.2-0.1-0.2c0-0.1,0-0.2,0.1-0.2c0,0,0.1-0.1,0.3-0.1c0.2,0,0.3,0,0.3,0v0.5h0c0,0-0.1,0-0.3,0
	C210.2,246.4,210.1,246.3,210.1,246.3 M210.5,245.5c0,0-0.1,0-0.2,0c-0.1,0-0.2,0-0.3,0c-0.1,0-0.2,0.1-0.2,0.1
	c-0.1,0-0.1,0.1-0.2,0.2c0,0.1-0.1,0.2-0.1,0.3c0,0.1,0,0.2,0.1,0.3c0,0.1,0.1,0.1,0.1,0.2c0.1,0,0.1,0.1,0.2,0.1c0.1,0,0.2,0,0.3,0
	c0.1,0,0.2,0,0.3,0c0.1,0,0.2,0,0.3-0.1c0,0,0.1,0,0.1,0c0,0,0,0,0,0l0-1c0-0.2-0.1-0.4-0.2-0.5c-0.1-0.1-0.3-0.2-0.5-0.2
	c-0.1,0-0.2,0-0.3,0c0,0-0.2,0-0.3,0.1c0,0,0,0,0,0l0.1,0.2c0,0,0,0,0,0s0,0,0,0c0.2-0.1,0.5-0.1,0.5-0.1c0.1,0,0.2,0,0.3,0.1
	c0.1,0,0.1,0.1,0.1,0.3v0C210.6,245.5,210.5,245.5,210.5,245.5 M219.7,244.9C219.7,244.9,219.7,244.9,219.7,244.9
	c0,0-0.1-0.1-0.2-0.1c-0.1,0-0.2,0-0.3,0c-0.1,0-0.1,0.1-0.2,0.1v-0.1c0,0,0,0,0,0h-0.3c0,0,0,0,0,0v1.7c0,0,0,0,0,0h0.3
	c0,0,0,0,0,0v-0.8c0-0.1,0-0.2,0-0.3c0-0.1,0.1-0.1,0.1-0.2c0,0,0.1-0.1,0.1-0.1c0.1,0,0.1,0,0.2,0c0.1,0,0.1,0,0.1,0c0,0,0,0,0,0
	C219.6,245.1,219.7,245,219.7,244.9"/>
<path class="st1" d="M216.9,244.1c0,0-0.1,0-0.1,0c0,0-0.1,0-0.2,0c-0.2,0-0.4,0.1-0.5,0.2c-0.1,0.1-0.2,0.3-0.2,0.5l0,0.1h-0.3
	c0,0,0,0,0,0l0,0.2c0,0,0,0,0,0h0.3l-0.3,1.4c0,0.1,0,0.2-0.1,0.3c0,0.1,0,0.1-0.1,0.2c0,0-0.1,0.1-0.1,0.1c0,0-0.1,0-0.1,0
	c0,0-0.1,0-0.1,0c0,0,0,0-0.1,0c0,0,0,0,0,0c0,0-0.1,0.2-0.1,0.2c0,0,0,0,0,0c0,0,0.1,0,0.1,0c0.1,0,0.1,0,0.2,0c0.1,0,0.2,0,0.3,0
	c0.1,0,0.1-0.1,0.2-0.1c0.1-0.1,0.1-0.1,0.1-0.3c0-0.1,0.1-0.2,0.1-0.4l0.3-1.4h0.4c0,0,0,0,0,0l0-0.2c0,0,0,0,0,0h-0.4
	c0,0,0-0.1,0.1-0.3c0-0.1,0.1-0.1,0.1-0.1c0,0,0.1,0,0.1-0.1c0,0,0.1,0,0.1,0c0,0,0.1,0,0.1,0c0,0,0,0,0.1,0c0,0,0,0,0,0
	L216.9,244.1C216.9,244.2,216.9,244.1,216.9,244.1 M211.8,246.6C211.8,246.6,211.8,246.6,211.8,246.6l-0.3,0c0,0,0,0,0,0v-2.4
	c0,0,0,0,0,0h0.3c0,0,0,0,0,0V246.6z"/>
<path d="M293.7,251.8h7.2c0,0-1.6-3.6-1.2-7c0.4-3.3,3-4.9,4.5-5c1.5-0.2,2.3,0.8,2.3,0.8l0.3-0.5c0,0-2.1-2.2-4.9-1.9
	s-4.6,2-5.7,4.2c-1.2,2.2-1.8,3.7-2.3,6C293.5,250.6,293.7,251.8,293.7,251.8L293.7,251.8z M292.2,248.2l1.4,0.1l-0.2,1.4l-1.3-0.2
	L292.2,248.2L292.2,248.2z M294.5,245.2l0.4-1.1l-1.2-0.5l-0.4,1.1L294.5,245.2z M296.2,241.6l0.7-0.9l-0.9-0.6l-0.8,0.8
	L296.2,241.6z M298.1,238.2l0.7,0.8l0.9-0.5l-0.7-0.7C299,237.8,298.1,238.2,298.1,238.2z M301.3,237.3l0.2,0.8l1.1,0l-0.1-0.7
	C302.5,237.4,301.3,237.3,301.3,237.3z M305.1,238.2l0,0.5l0.8,0.4l0.2-0.2L305.1,238.2L305.1,238.2z M304.9,240.3v0.4l0.7,0.1v-0.3
	L304.9,240.3L304.9,240.3z M302.6,240.6l0.4,0.7l0.5-0.4l-0.1-0.4L302.6,240.6L302.6,240.6z M301.5,241.5l0.5,0.8l-0.3,0.6l-0.8-0.9
	C300.9,242,301.5,241.5,301.5,241.5z M300.4,243.7l-0.4,0.7l0.9,0.8l0.2-0.9L300.4,243.7L300.4,243.7z M300,246.2l-0.1,0.9l1.1,0.5
	l-0.1-0.9L300,246.2L300,246.2z M300.3,249.5l0.3,1l1.4,0.1l-0.5-1.1L300.3,249.5L300.3,249.5z"/>
<path d="M327.3,234.7h5.7l1.7,3l1.7-3h5.7l-7.4,12.8"/>
<path class="st33" d="M330.3,234.7h2.7l1.7,3l1.7-3h2.7l-4.4,7.7"/>
<g>
	<path d="M371.6,230.4v-2.7l-2.4-1.4l-2.4,1.4v2.7l2.4,1.4L371.6,230.4z"/>
	<path d="M380.9,230l1.5,0.9l-1.5,0.9l-2.4-1.4v-2.7l2.4-1.4l1.4,0.8c0.1,0.6,0.2,1.2,0.3,1.9l-0.9,0.5v-1l-0.8-0.5l-0.8,0.5v1
		L380.9,230z"/>
	<path d="M381.4,229.3v-0.5l-0.5-0.3l-0.5,0.3v0.5l0.5,0.3L381.4,229.3z"/>
	<path d="M365.7,227.7v3.6l-1.6-0.9v-1.9l-0.8-0.5l-0.8,0.5v1.9l-0.9,0.5c-0.1-0.4-0.1-0.9-0.1-1.3c0-0.8,0.1-1.6,0.3-2.4l1.5-0.9
		L365.7,227.7z"/>
	<path d="M369.2,226.3l2.4,4.1l-2.4,1.4l-2.4-4.1L369.2,226.3z"/>
	<path d="M366.8,230.4l0.8-1.3l-0.8-1.4V230.4z"/>
	<path d="M370.8,229.1l0.8-1.4l-2.4-1.4L370.8,229.1z"/>
	<path d="M375.8,223.1v3.6l-0.8-0.5l-2.4,1.4v2.7l2.4,1.4l2.4-1.4V224L375.8,223.1z M375.8,229.5L375,230l-0.8-0.5v-0.9l0.8-0.5
		l0.8,0.5V229.5z"/>
	<g>
		<path d="M373.2,233.8c0,0,0-0.4-0.5-0.4s-0.7,0.1-0.7,0.3s0.8,0.2,1.2,0.3c0.3,0.1,0.6,0.3,0.5,0.8s-0.6,0.5-1.2,0.5
			s-0.8-0.5-0.8-0.8h0.4c0,0,0,0.3,0.4,0.4c0.4,0.1,0.9,0.1,0.9-0.3c0.1-0.4-1.4-0.2-1.5-0.7c-0.1-0.4,0-0.9,0.7-0.9
			s1.2,0.3,1.2,0.7L373.2,233.8z"/>
		<path d="M369.6,235.6l0.8,0.5c0.4,0.2,0.9-0.1,0.9-0.5v-2.4H371v2.3c0,0.3-0.3,0.4-0.5,0.3l-0.6-0.3v-2.4l2.1-1.2l2.1,1.2v2.4
			l-2.1,1.2l-0.6-0.3l-0.4,0.2l1,0.6l2.4-1.4v-2.8l-2.4-1.4l-2.4,1.4L369.6,235.6z"/>
	</g>
</g>
</svg>
