<svg xmlns="http://www.w3.org/2000/svg"  viewBox="0 0 48 48" width="64px" height="64px" fill="#7979d4"><path d="M 18.300781 3 A 1.50015 1.50015 0 0 0 17.152344 3.5332031 L 12.353516 9.234375 A 1.50015 1.50015 0 0 0 12.505859 11.322266 L 23.005859 20.623047 A 1.50015 1.50015 0 0 0 24.990234 20.626953 L 35.589844 11.328125 A 1.50015 1.50015 0 0 0 35.748047 9.234375 L 30.947266 3.5332031 A 1.50015 1.50015 0 0 0 29.800781 3 L 18.300781 3 z M 18.998047 6 L 19 6 L 19 10 L 15.628906 10 L 18.998047 6 z M 24 6 L 27 10 L 21 10 L 24 6 z M 29 6 L 29.101562 6 L 32.470703 10 L 29 10 L 29 6 z M 21.544922 13 L 26.455078 13 L 24.001953 17.498047 L 23.996094 17.494141 L 21.544922 13 z M 41.585938 22.138672 C 40.471038 22.158232 39.438471 22.61283 38.513672 23.291016 C 37.49661 24.036861 34.460877 26.29626 31.804688 28.271484 C 31.260427 26.398278 29.53653 25 27.5 25 L 23.099609 25 C 20.285816 25 18.985495 24.772388 17.861328 24.533203 C 16.737161 24.294019 15.64784 24 13.800781 24 C 9.9367189 24 7.0167679 26.493874 5.0996094 28.789062 C 3.1824509 31.084252 2.1367188 33.375 2.1367188 33.375 A 1.50015 1.50015 0 1 0 4.8632812 34.625 C 4.8632812 34.625 5.7675491 32.665748 7.4003906 30.710938 C 9.0332321 28.756127 11.264844 27 13.800781 27 C 15.353722 27 16.012449 27.205981 17.238281 27.466797 C 18.464114 27.727612 20.113402 28 23.099609 28 L 27.5 28 C 28.435294 28 29 28.564706 29 29.5 C 29 30.435294 28.435294 31 27.5 31 L 20.5 31 A 1.50015 1.50015 0 1 0 20.5 34 L 27.5 34 C 28.221555 34 28.89625 33.808579 29.503906 33.5 A 1.50015 1.50015 0 0 0 30.195312 33.203125 C 30.195312 33.203125 38.819738 26.785056 40.287109 25.708984 C 40.862311 25.28717 41.328571 25.142159 41.638672 25.136719 C 41.948772 25.131319 42.174765 25.196249 42.539062 25.560547 A 1.50015 1.50015 0 0 0 42.585938 25.605469 C 43.142361 26.115524 43.162662 26.966421 42.554688 27.603516 C 37.248038 32.039423 33.863788 35.030977 31.634766 36.783203 C 29.368267 38.564888 28.4 39 27.5 39 C 23.85641 39 19.843902 38 15.5 38 C 13 38 11.242781 39.343609 10.300781 40.599609 C 9.3587815 41.855609 9.0449219 43.136719 9.0449219 43.136719 A 1.50015 1.50015 0 1 0 11.955078 43.863281 C 11.955078 43.863281 12.141219 43.144391 12.699219 42.400391 C 13.257219 41.656391 14 41 15.5 41 C 19.356098 41 23.34359 42 27.5 42 C 29.4 42 31.081729 41.035895 33.490234 39.142578 C 35.854581 37.283974 39.196931 34.321639 44.457031 29.923828 A 1.50015 1.50015 0 0 0 44.660156 29.759766 L 44.759766 29.660156 A 1.50015 1.50015 0 0 0 45.126953 29.054688 C 46.313379 27.297974 46.227529 24.905919 44.630859 23.419922 C 43.797887 22.599798 42.68949 22.119311 41.585938 22.138672 z"/></svg>