<svg xmlns="http://www.w3.org/2000/svg"  viewBox="0 0 48 48" width="64px" height="64px" fill="#7979d4"><path d="M 26 2 C 20.494917 2 16 6.494921 16 12 C 16 17.505079 20.494917 22 26 22 C 31.505083 22 36 17.505079 36 12 C 36 6.494921 31.505083 2 26 2 z M 26 5 C 29.883764 5 33 8.1162385 33 12 C 33 15.883762 29.883764 19 26 19 C 22.116236 19 19 15.883762 19 12 C 19 8.1162385 22.116236 5 26 5 z M 25.984375 6.5195312 A 1.0001 1.0001 0 0 0 25 7.5332031 L 25 8.0878906 C 23.948415 8.3613978 23.166016 9.2949052 23.166016 10.414062 C 23.166016 11.747063 24.268047 12.832031 25.623047 12.832031 L 26.541016 12.832031 C 26.978016 12.832031 27.332031 13.169031 27.332031 13.582031 C 27.332031 13.995031 26.978016 14.332031 26.541016 14.332031 L 26.154297 14.332031 A 1.0001 1.0001 0 0 0 25.984375 14.318359 A 1.0001 1.0001 0 0 0 25.839844 14.332031 L 25.357422 14.332031 C 24.920422 14.332031 24.595531 14.110391 24.519531 14.025391 C 24.262531 13.652391 23.750094 13.553641 23.371094 13.806641 C 22.988094 14.062641 22.885625 14.579891 23.140625 14.962891 C 23.441854 15.414734 24.155607 15.84856 25 15.955078 L 25 16.466797 A 1.0001 1.0001 0 1 0 27 16.466797 L 27 15.955078 C 28.136764 15.743287 29 14.760927 29 13.582031 C 29 12.249031 27.897969 11.166016 26.542969 11.166016 L 25.625 11.166016 C 25.188 11.166016 24.832031 10.829016 24.832031 10.416016 C 24.832031 10.003016 25.188 9.6660156 25.625 9.6660156 L 25.816406 9.6660156 A 1.0001 1.0001 0 0 0 26.169922 9.6660156 L 26.5 9.6660156 C 26.918 9.6660156 27.116953 9.9294062 27.126953 9.9414062 C 27.370953 10.332406 27.886391 10.450078 28.275391 10.205078 C 28.666391 9.9620781 28.783062 9.4485938 28.539062 9.0585938 C 28.480213 8.9651272 27.997027 8.2420183 27 8.0488281 L 27 7.5332031 A 1.0001 1.0001 0 0 0 25.984375 6.5195312 z M 41.613281 22.019531 C 40.493082 22.029231 39.429184 22.473279 38.484375 23.175781 C 37.470126 23.929243 34.418425 26.208042 31.777344 28.179688 C 31.204622 26.351508 29.505924 25 27.5 25 L 23.107422 25 C 20.296203 25 18.985532 24.772226 17.859375 24.533203 C 16.733218 24.29418 15.646783 24 13.826172 24 C 9.9413941 24 7.0123317 26.492986 5.09375 28.791016 C 3.1751683 31.089045 2.1347656 33.384766 2.1347656 33.384766 A 1.5002787 1.5002787 0 1 0 4.8652344 34.628906 C 4.8652344 34.628906 5.7643161 32.669814 7.3964844 30.714844 C 9.0286527 28.759873 11.25995 27 13.826172 27 C 15.347561 27 16.006735 27.20582 17.236328 27.466797 C 18.465921 27.727774 20.123641 28 23.107422 28 L 27.5 28 C 28.346499 28 29 28.653501 29 29.5 C 29 29.969499 28.794195 30.374296 28.470703 30.646484 C 28.470416 30.646699 28.429688 30.677734 28.429688 30.677734 A 1.5001988 1.5001988 0 0 0 28.345703 30.748047 A 1.5001988 1.5001988 0 0 0 28.34375 30.75 C 28.105295 30.908613 27.816466 31 27.5 31 L 20.5 31 A 1.50015 1.50015 0 1 0 20.5 34 L 27.5 34 C 28.440637 34 29.315307 33.701451 30.041016 33.199219 C 30.042186 33.198409 30.043753 33.198076 30.044922 33.197266 A 1.5001988 1.5001988 0 0 0 30.224609 33.082031 C 30.224609 33.082031 38.775959 26.696426 40.273438 25.583984 A 1.50015 1.50015 0 0 0 40.273438 25.582031 C 40.837627 25.162534 41.309824 25.022381 41.640625 25.019531 C 41.971426 25.016631 42.218287 25.096901 42.560547 25.439453 C 43.150922 26.029324 43.147391 26.935102 42.572266 27.533203 C 37.217133 32.036197 33.848465 35.036886 31.623047 36.794922 C 29.369881 38.574924 28.424996 39 27.5 39 C 23.847885 39 19.80067 38 15.5 38 C 13 38 11.242781 39.343609 10.300781 40.599609 C 9.3587815 41.855609 9.0449219 43.136719 9.0449219 43.136719 A 1.50015 1.50015 0 1 0 11.955078 43.863281 C 11.955078 43.863281 12.141219 43.144391 12.699219 42.400391 C 13.257219 41.656391 14 41 15.5 41 C 19.30733 41 23.336115 42 27.5 42 C 29.402004 42 31.084837 41.044435 33.482422 39.150391 C 35.849764 37.280238 39.175413 34.30991 44.498047 29.833984 A 1.50015 1.50015 0 0 0 44.681641 29.681641 C 44.688541 29.674741 44.690436 29.665143 44.697266 29.658203 L 44.701172 29.662109 L 44.753906 29.607422 A 1.50015 1.50015 0 0 0 45.083984 29.074219 C 46.330485 27.321792 46.248887 24.884269 44.681641 23.318359 C 43.8529 22.488911 42.73348 22.009881 41.613281 22.019531 z"/></svg>