<svg xmlns="http://www.w3.org/2000/svg"  viewBox="0 0 48 48" width="64px" height="64px" fill="#c10f0f"><path d="M 19.978516 3 A 1.50015 1.50015 0 0 0 18.939453 3.4394531 L 11.3125 11.066406 C 9.3323421 11.371092 7.7369626 12.972612 7.515625 15.015625 L 5.0234375 38.03125 L 5.0234375 38.035156 C 4.8914492 39.301044 5.3036755 40.564747 6.15625 41.511719 L 6.15625 41.513672 C 7.0093566 42.459695 8.2264706 43 9.5 43 L 38.5 43 C 39.773529 43 40.990643 42.459736 41.84375 41.513672 L 41.84375 41.511719 C 42.695127 40.56591 43.108557 39.302604 42.976562 38.035156 L 42.976562 38.03125 L 40.484375 15.015625 C 40.2634 12.975955 38.672912 11.376823 36.697266 11.068359 L 30.060547 4.4394531 A 1.50015 1.50015 0 0 0 28.976562 4 A 1.50015 1.50015 0 0 0 27.939453 4.4394531 L 25 7.3789062 L 21.060547 3.4394531 A 1.50015 1.50015 0 0 0 19.978516 3 z M 20 6.6210938 L 23.730469 10.351562 A 1.50015 1.50015 0 0 0 24.160156 10.779297 L 24.382812 11.001953 L 15.619141 11.001953 L 20 6.6210938 z M 29 7.6210938 L 32.386719 11.001953 L 28.623047 11.001953 L 27.121094 9.5 L 29 7.6210938 z M 12.208984 14.001953 L 27.789062 14.001953 A 1.50015 1.50015 0 0 0 28.255859 14.001953 L 35.720703 14.001953 A 1.50015 1.50015 0 0 0 36.253906 14.023438 C 36.916552 14.1275 37.427068 14.648636 37.501953 15.339844 L 39.992188 38.347656 C 40.035508 38.768919 39.896588 39.188358 39.613281 39.503906 C 39.328458 39.818982 38.925847 40 38.5 40 L 9.5 40 C 9.0744303 40 8.6715105 39.820553 8.3867188 39.505859 L 8.3867188 39.503906 C 8.1026136 39.187576 7.964482 38.768479 8.0078125 38.347656 C 8.0078125 38.347656 8.0078125 38.345703 8.0078125 38.345703 L 10.498047 15.339844 C 10.576545 14.615306 11.134266 14.081666 11.84375 14.015625 A 1.50015 1.50015 0 0 0 12.208984 14.001953 z M 16.476562 17.978516 A 1.50015 1.50015 0 0 0 15 19.5 L 15 25 C 15 29.952719 19.047281 34 24 34 C 28.952719 34 33 29.952719 33 25 L 33 19.5 A 1.50015 1.50015 0 1 0 30 19.5 L 30 25 C 30 28.331281 27.331281 31 24 31 C 20.668719 31 18 28.331281 18 25 L 18 19.5 A 1.50015 1.50015 0 0 0 16.476562 17.978516 z"/></svg>