<svg xmlns="http://www.w3.org/2000/svg"  viewBox="0 0 48 48" width="64px" height="64px" fill="#a43dd3"><path d="M 24 2 C 23.13236 2 22.265295 2.1197586 21.425781 2.3613281 L 5.0859375 7.0585938 A 1.50015 1.50015 0 0 0 5.0859375 9.9414062 L 10 11.353516 L 10 12.382812 A 1.50015 1.50015 0 0 0 9.9707031 12.408203 C 6.3338455 15.836815 3 21.247559 3 32.5 L 3 37.5 C 3 40.519774 5.4802259 43 8.5 43 L 17.880859 43 C 19.709774 44.253653 21.779113 45 24 45 C 26.220887 45 28.290226 44.253653 30.119141 43 L 39.5 43 C 42.519774 43 45 40.519774 45 37.5 L 45 32.5 C 45 21.247559 41.666155 15.836815 38.029297 12.408203 A 1.50015 1.50015 0 0 0 38 12.382812 L 38 11.353516 L 42.914062 9.9414062 A 1.50015 1.50015 0 0 0 42.914062 7.0585938 L 26.574219 2.3613281 C 25.734705 2.1197586 24.86764 2 24 2 z M 24 5 C 24.590804 5 25.181608 5.0817102 25.746094 5.2441406 L 37.072266 8.5 L 25.744141 11.755859 C 24.614987 12.080773 23.38306 12.080773 22.253906 11.755859 L 10.927734 8.5 L 22.253906 5.2441406 C 22.818392 5.0817102 23.409196 5 24 5 z M 13 12.216797 L 21.425781 14.638672 C 23.104627 15.121759 24.895373 15.121759 26.574219 14.638672 L 35 12.216797 L 35 14.847656 C 31.361638 16.819134 27.775739 17.987935 24.230469 18 C 20.589285 18.012946 16.843001 16.816787 13 14.830078 L 13 12.216797 z M 10.210938 16.576172 A 1.50015 1.50015 0 0 0 10.78125 17.128906 C 15.203196 19.542759 19.694895 21.016167 24.242188 21 C 26.84144 20.990911 29.408709 20.478795 31.939453 19.578125 C 33.512768 20.75274 34.980968 22.666655 34.994141 26.455078 C 34.741278 30.934068 33.341145 34.908806 31.316406 37.681641 C 30.575776 38.695918 29.763606 39.539823 28.900391 40.208984 A 1.50015 1.50015 0 0 0 28.669922 40.375 C 27.226839 41.429649 25.647229 42 24 42 C 22.355809 42 20.778829 41.43174 19.337891 40.380859 A 1.50015 1.50015 0 0 0 19.101562 40.210938 C 18.237548 39.541521 17.424835 38.696754 16.683594 37.681641 C 14.652825 34.900548 13.244769 30.913317 12.998047 26.417969 A 1.5002913 1.5002913 0 1 0 10.001953 26.582031 C 10.277231 31.597683 11.821988 36.110015 14.261719 39.451172 C 14.401629 39.642776 14.556788 39.816054 14.703125 40 L 8.5 40 C 7.1017741 40 6 38.898226 6 37.5 L 6 32.5 C 6 23.909683 7.8307938 19.54072 10.210938 16.576172 z M 37.789062 16.576172 C 40.169206 19.540696 42 23.909683 42 32.5 L 42 37.5 C 42 38.898226 40.898226 40 39.5 40 L 33.296875 40 C 33.443212 39.816054 33.598371 39.642776 33.738281 39.451172 C 36.178012 36.110015 37.722769 31.597683 37.998047 26.582031 A 1.50015 1.50015 0 0 0 38 26.5 C 38 22.739676 36.647647 20.066496 34.982422 18.298828 C 35.74018 17.932305 36.495854 17.54418 37.246094 17.113281 A 1.50015 1.50015 0 0 0 37.789062 16.576172 z M 19 27 A 2 2 0 0 0 19 31 A 2 2 0 0 0 19 27 z M 29 27 A 2 2 0 0 0 29 31 A 2 2 0 0 0 29 27 z"/></svg>