<svg xmlns="http://www.w3.org/2000/svg"  viewBox="0 0 48 48" width="64px" height="64px" fill="#7979d4"><path d="M 24 3.9980469 C 12.972292 3.9980469 4 12.970339 4 23.998047 C 4 27.273363 4.8627078 30.334853 6.2617188 33.064453 L 4.09375 40.826172 C 3.5887973 42.629575 5.3719261 44.41261 7.1757812 43.908203 L 14.943359 41.740234 C 17.670736 43.136312 20.727751 43.998047 24 43.998047 C 35.027708 43.998047 44 35.025755 44 23.998047 C 44 12.970339 35.027708 3.9980469 24 3.9980469 z M 24 6.9980469 C 33.406292 6.9980469 41 14.591755 41 23.998047 C 41 33.404339 33.406292 40.998047 24 40.998047 C 20.998416 40.998047 18.190601 40.217527 15.742188 38.853516 A 1.50015 1.50015 0 0 0 14.609375 38.71875 L 7.2226562 40.779297 L 9.2851562 33.396484 A 1.50015 1.50015 0 0 0 9.1503906 32.261719 C 7.7836522 29.811523 7 27.002565 7 23.998047 C 7 14.591755 14.593708 6.9980469 24 6.9980469 z M 24.017578 13.103516 A 1.50015 1.50015 0 0 0 22.654297 13.939453 L 20.275391 18.759766 L 14.955078 19.533203 A 1.50015 1.50015 0 0 0 14.123047 22.091797 L 17.972656 25.84375 L 17.064453 31.142578 A 1.50015 1.50015 0 0 0 19.240234 32.724609 L 24 30.222656 L 28.759766 32.724609 A 1.50015 1.50015 0 0 0 30.935547 31.142578 L 30.027344 25.84375 L 33.876953 22.091797 A 1.50015 1.50015 0 0 0 33.044922 19.533203 L 27.724609 18.759766 L 25.345703 13.939453 A 1.50015 1.50015 0 0 0 24.017578 13.103516 z M 24 17.994141 L 25.382812 20.794922 A 1.50015 1.50015 0 0 0 26.511719 21.615234 L 29.605469 22.064453 L 27.367188 24.246094 A 1.50015 1.50015 0 0 0 26.9375 25.574219 L 27.464844 28.65625 L 24.697266 27.201172 A 1.50015 1.50015 0 0 0 23.302734 27.201172 L 20.535156 28.65625 L 21.0625 25.574219 A 1.50015 1.50015 0 0 0 20.632812 24.246094 L 18.394531 22.064453 L 21.488281 21.615234 A 1.50015 1.50015 0 0 0 22.617188 20.794922 L 24 17.994141 z"/></svg>