<svg xmlns="http://www.w3.org/2000/svg"  viewBox="0 0 48 48" width="64px" height="64px" fill="#70cd82"><path d="M 24 3 C 22.356093 3 21.001828 3.8518022 19.998047 5 L 15.5 5 A 1.50015 1.50015 0 0 0 14.095703 7.0273438 L 16.708984 13.998047 C 13.772199 16.369511 4.651878 24.64839 5.0605469 35.873047 C 5.2465469 40.991047 9.4166406 45 14.556641 45 L 26.591797 45 C 25.777797 44.135 25.123734 43.121 24.677734 42 L 14.556641 42 C 11.039641 42 8.1855937 39.261625 8.0585938 35.765625 C 7.6777587 25.28259 17.280777 17.345404 19.013672 16 L 28.980469 16 C 29.89289 16.698594 34.217265 20.161466 37.21875 25.505859 C 38.09775 25.179859 39.036 25 40 25 C 40.133 25 40.261578 25.013531 40.392578 25.019531 C 37.493113 19.307528 33.094243 15.442784 31.289062 14 L 33.904297 7.0273438 A 1.50015 1.50015 0 0 0 32.5 5 L 28.001953 5 C 26.998172 3.8518022 25.643907 3 24 3 z M 24 6 C 24.929268 6 25.709157 6.4989516 26.148438 7.2539062 A 1.50015 1.50015 0 0 0 27.445312 8 L 30.335938 8 L 28.460938 13 L 19.539062 13 L 17.664062 8 L 20.554688 8 A 1.50015 1.50015 0 0 0 21.851562 7.2539062 C 22.290843 6.4989516 23.070732 6 24 6 z M 40 27 C 38.14 27 36.469141 27.849687 35.369141 29.179688 C 39.629141 30.039688 42.860234 33.729219 42.990234 38.199219 C 44.790234 37.159219 46 35.22 46 33 C 46 29.69 43.31 27 40 27 z M 33.5 31 A 7.5 7.5 0 0 0 33.5 46 A 7.5 7.5 0 0 0 33.5 31 z"/></svg>