<svg xmlns="http://www.w3.org/2000/svg"  viewBox="0 0 48 48" width="64px" height="64px" fill="#e0c92d"><path d="M 28.5 2 A 1.50015 1.50015 0 1 0 28.5 5 L 29.080078 5 A 1.50015 1.50015 0 0 0 29 5.5 C 29 7.3259532 28.656311 10.290555 28.128906 11.871094 A 1.50015 1.50015 0 0 0 28.125 11.878906 L 28.105469 11.941406 C 28.008669 12.229144 27.843364 12.544936 27.619141 12.900391 A 1.50015 1.50015 0 0 0 27.617188 12.900391 C 27.068998 13.770245 26.708361 14.726814 26.435547 15.710938 L 22.271484 13.212891 A 1.50015 1.50015 0 0 0 20.3125 13.583984 L 18.427734 16.025391 C 17.139327 15.142234 15.671574 14.5 14 14.5 C 10.112182 14.5 6.8540014 17.310701 6.1464844 21 L 5.5 21 C 4.1364058 21 3 22.136406 3 23.5 L 3 27.5 C 3 28.670167 3.9008442 29.530047 5 29.791016 L 5 39.5 C 5 43.071938 7.9280619 46 11.5 46 L 36.5 46 C 40.071938 46 43 43.071938 43 39.5 L 43 29.791016 C 44.099156 29.530047 45 28.670167 45 27.5 L 45 23.5 C 45 22.136406 43.863594 21 42.5 21 L 42 21 L 42 18.501953 C 42 16.514502 41.435799 14.572657 40.380859 12.900391 C 40.156636 12.544936 39.991333 12.229144 39.894531 11.941406 L 39.892578 11.935547 L 39.875 11.878906 A 1.50015 1.50015 0 0 0 39.871094 11.871094 C 39.343732 10.290583 39 7.3259532 39 5.5 A 1.50015 1.50015 0 0 0 38.919922 5 L 39.5 5 A 1.50015 1.50015 0 1 0 39.5 2 L 28.5 2 z M 31.919922 5 L 36.080078 5 A 1.50015 1.50015 0 0 0 36 5.5 C 36 7.646293 36.294148 10.625485 37.023438 12.814453 L 37.044922 12.876953 A 1.50015 1.50015 0 0 0 37.046875 12.884766 C 37.256275 13.511738 37.553247 14.039474 37.84375 14.5 C 38.59681 15.693733 39 17.081404 39 18.501953 L 39 21 L 35.203125 21 A 1.50015 1.50015 0 0 0 34.962891 20.828125 L 29.158203 17.345703 C 29.317464 16.343154 29.612994 15.362026 30.15625 14.5 C 30.446753 14.039474 30.743682 13.511725 30.953125 12.884766 A 1.50015 1.50015 0 0 0 30.955078 12.876953 L 30.974609 12.820312 C 31.705158 10.630838 32 7.6480468 32 5.5 A 1.50015 1.50015 0 0 0 31.919922 5 z M 21.873047 16.472656 L 29.419922 21 L 18.378906 21 L 21.873047 16.472656 z M 14 17.5 C 14.994412 17.5 15.857654 17.861093 16.630859 18.355469 L 14.589844 21 L 9.2519531 21 C 9.8862521 18.968241 11.747943 17.5 14 17.5 z M 6 24 L 7.2539062 24 A 1.50015 1.50015 0 0 0 7.7402344 24 L 42 24 L 42 27 L 6 27 L 6 24 z M 8 30 L 40 30 L 40 39.5 C 40 41.450062 38.450062 43 36.5 43 L 11.5 43 C 9.5499381 43 8 41.450062 8 39.5 L 8 30 z M 23.478516 31.326172 A 1.50015 1.50015 0 0 0 22.439453 31.763672 L 18.939453 35.263672 A 1.50015 1.50015 0 1 0 21.060547 37.384766 L 22 36.445312 L 22 40.175781 A 1.50015 1.50015 0 1 0 25 40.175781 L 25 36.445312 L 25.939453 37.384766 A 1.50015 1.50015 0 1 0 28.060547 35.263672 L 24.560547 31.763672 A 1.50015 1.50015 0 0 0 23.478516 31.326172 z"/></svg>