<svg xmlns="http://www.w3.org/2000/svg"  viewBox="0 0 48 48" width="64px" height="64px" fill="#8c8080"><path d="M 10.498047 2 C 8.583092 2 6.9980469 3.5850452 6.9980469 5.5 L 6.9980469 20.5 L 6.9980469 24.257812 C 5.8578203 25.168256 4.9980469 26.430675 4.9980469 28 C 4.9980469 30.361234 6.7032253 32.26755 8.9179688 32.779297 C 9.8144151 36.335154 11.304523 39.502845 13.404297 41.828125 C 15.706483 44.377556 18.704933 46 21.998047 46 C 25.29116 46 28.291563 44.377556 30.59375 41.828125 C 32.693524 39.502845 34.183632 36.335154 35.080078 32.779297 C 37.294411 32.267244 38.998047 30.360941 38.998047 28 C 38.998047 26.430284 38.135144 25.174656 36.998047 24.269531 L 36.998047 20.5 L 36.998047 5.5 C 36.998047 3.5850452 35.413002 2 33.498047 2 L 10.498047 2 z M 42.476562 3.9785156 A 1.50015 1.50015 0 0 0 40.998047 5.5 L 40.998047 12.5 A 1.50015 1.50015 0 1 0 43.998047 12.5 L 43.998047 5.5 A 1.50015 1.50015 0 0 0 42.476562 3.9785156 z M 10.498047 5 L 33.498047 5 C 33.793092 5 33.998047 5.2049548 33.998047 5.5 L 33.998047 19 L 9.9980469 19 L 9.9980469 5.5 C 9.9980469 5.2049548 10.203002 5 10.498047 5 z M 21.998047 8 C 21.170047 8 20.498047 8.672 20.498047 9.5 L 20.498047 11 L 18.998047 11 C 18.170047 11 17.498047 11.672 17.498047 12.5 C 17.498047 13.328 18.170047 14 18.998047 14 L 20.498047 14 L 20.498047 15.5 C 20.498047 16.328 21.170047 17 21.998047 17 C 22.826047 17 23.498047 16.328 23.498047 15.5 L 23.498047 14 L 24.998047 14 C 25.826047 14 26.498047 13.328 26.498047 12.5 C 26.498047 11.672 25.826047 11 24.998047 11 L 23.498047 11 L 23.498047 9.5 C 23.498047 8.672 22.826047 8 21.998047 8 z M 42.498047 15 A 1.5 1.5 0 0 0 42.498047 18 A 1.5 1.5 0 0 0 42.498047 15 z M 9.9980469 22 L 33.998047 22 L 33.998047 24.878906 A 1.50015 1.50015 0 0 0 34.855469 26.234375 C 35.54264 26.561015 35.998047 27.202806 35.998047 28 C 35.998047 29.122343 35.12039 30 33.998047 30 C 34.262761 30 34.244217 29.994141 33.9375 29.994141 A 1.50015 1.50015 0 0 0 32.470703 31.185547 C 31.727184 34.728666 30.236501 37.746337 28.367188 39.816406 C 26.497877 41.886516 24.315933 43 21.998047 43 C 19.68016 43 17.500173 41.886475 15.630859 39.816406 C 13.761546 37.746337 12.270863 34.728666 11.527344 31.185547 A 1.50015 1.50015 0 0 0 10.060547 29.994141 C 9.7538325 29.994141 9.7333325 30 9.9980469 30 C 8.8757039 30 7.9980469 29.122343 7.9980469 28 C 7.9980469 27.196375 8.4614975 26.541671 9.1425781 26.21875 A 1.50015 1.50015 0 0 0 9.9980469 24.863281 L 9.9980469 22 z M 16.998047 26 A 2 2 0 0 0 16.998047 30 A 2 2 0 0 0 16.998047 26 z M 26.998047 26 A 2 2 0 0 0 26.998047 30 A 2 2 0 0 0 26.998047 26 z"/></svg>