<svg xmlns="http://www.w3.org/2000/svg"  viewBox="0 0 48 48" width="64px" height="64px" fill="#7979d4"><path d="M 12.900391 5 C 11.392058 5 10.070091 5.6196334 9.2285156 6.5664062 C 8.3869401 7.5131792 8 8.7170574 8 9.9003906 C 8 11.083724 8.3869401 12.287602 9.2285156 13.234375 C 9.4913963 13.530116 9.8066308 13.788733 10.154297 14.011719 C 7.3632572 16.529562 5.4719499 20.027947 5.078125 23.957031 L 4.5605469 23.439453 A 1.50015 1.50015 0 0 0 3.484375 22.984375 A 1.50015 1.50015 0 0 0 2.4394531 25.560547 L 5.4394531 28.560547 A 1.50015 1.50015 0 0 0 7.5605469 28.560547 L 10.560547 25.560547 A 1.50015 1.50015 0 1 0 8.4394531 23.439453 L 8.1386719 23.740234 C 8.7009593 19.791904 11.10914 16.425634 14.46875 14.5625 C 14.934019 14.417325 15.361339 14.209044 15.742188 13.951172 C 17.210988 13.34221 18.816087 13 20.5 13 C 23.892418 13 26.973815 14.369279 29.230469 16.578125 C 29.40027 16.830174 29.580611 17.075462 29.785156 17.302734 A 1.50015 1.50015 0 0 0 30.193359 17.632812 C 31.944425 19.784637 33 22.522172 33 25.5 C 33 32.381818 27.381818 38 20.5 38 L 20 38 L 3.5 38 A 1.50015 1.50015 0 1 0 3.5 41 L 20 41 L 20.5 41 L 40.878906 41 L 40.439453 41.439453 A 1.50015 1.50015 0 1 0 42.560547 43.560547 L 45.431641 40.689453 A 1.50015 1.50015 0 0 0 45.423828 38.302734 L 42.560547 35.439453 A 1.50015 1.50015 0 0 0 41.484375 34.984375 A 1.50015 1.50015 0 0 0 40.439453 37.560547 L 40.878906 38 L 29.5625 38 C 33.440038 35.174159 36 30.631918 36 25.5 C 36 21.331298 34.319333 17.538663 31.613281 14.744141 C 31.230849 14.101915 31 13.287992 31 12.400391 C 31 9.888269 32.888269 8 35.400391 8 C 37.598308 8 39.347681 9.5801072 39.720703 11.599609 L 39.560547 11.439453 A 1.50015 1.50015 0 0 0 38.484375 10.984375 A 1.50015 1.50015 0 0 0 37.439453 13.560547 L 40.439453 16.560547 A 1.50015 1.50015 0 0 0 42.560547 16.560547 L 45.560547 13.560547 A 1.50015 1.50015 0 1 0 43.439453 11.439453 L 42.785156 12.09375 C 42.622019 8.2177276 39.412504 5 35.400391 5 C 31.457082 5 28.244435 8.0853114 28.021484 11.972656 C 25.788929 10.721483 23.225506 10 20.5 10 C 19.568133 10 18.659448 10.097828 17.771484 10.257812 C 17.779446 10.138451 17.800781 10.019619 17.800781 9.9003906 C 17.800781 8.7170574 17.411889 7.5131792 16.570312 6.5664062 C 15.728738 5.6196335 14.408724 5 12.900391 5 z M 12.900391 8 C 13.658723 8 14.036368 8.2303665 14.328125 8.5585938 C 14.619882 8.8868208 14.800781 9.3837238 14.800781 9.9003906 C 14.800781 10.417057 14.619882 10.912007 14.328125 11.240234 C 14.288449 11.28487 14.240859 11.322536 14.197266 11.363281 C 13.91822 11.488824 13.643189 11.620403 13.373047 11.761719 C 13.232868 11.785692 13.078922 11.800781 12.900391 11.800781 C 12.142058 11.800781 11.76246 11.568462 11.470703 11.240234 C 11.178946 10.912007 11 10.417057 11 9.9003906 C 11 9.3837238 11.178946 8.8868208 11.470703 8.5585938 C 11.76246 8.2303665 12.142058 8 12.900391 8 z"/></svg>