<svg xmlns="http://www.w3.org/2000/svg"  viewBox="0 0 48 48" width="64px" height="64px" fill="#7979d4"><path d="M 24 4 C 12.972 4 4 12.971 4 24 C 4 35.029 12.972 44 24 44 C 24.527 44 25.043547 43.961875 25.560547 43.921875 C 24.731547 43.043875 24.021937 42.053656 23.460938 40.972656 C 14.337938 40.684656 7 33.192 7 24 C 7 19.706883 8.6116755 15.792075 11.246094 12.796875 L 21.785156 19.28125 C 22.753156 19.87725 24 19.181922 24 18.044922 L 24 7 C 33.192 7 40.684656 14.337938 40.972656 23.460938 C 42.054656 24.021937 43.044875 24.730547 43.921875 25.560547 C 43.961875 25.043547 44 24.527 44 24 C 44 12.972 35.028 4 24 4 z M 13.914062 17.490234 A 1.50015 1.50015 0 0 0 13.228516 20.287109 L 23.228516 26.287109 A 1.50015 1.50015 0 0 0 24.609375 26.371094 L 33.609375 22.371094 A 1.5004122 1.5004122 0 1 0 32.390625 19.628906 L 24.103516 23.3125 L 14.771484 17.712891 A 1.50015 1.50015 0 0 0 13.914062 17.490234 z M 35 24 C 28.925 24 24 28.925 24 35 C 24 41.075 28.925 46 35 46 C 41.075 46 46 41.075 46 35 C 46 28.925 41.075 24 35 24 z M 35 27 C 35.552 27 36 27.448 36 28 L 36 34 L 42 34 C 42.552 34 43 34.448 43 35 C 43 35.552 42.552 36 42 36 L 36 36 L 36 42 C 36 42.552 35.552 43 35 43 C 34.448 43 34 42.552 34 42 L 34 36 L 28 36 C 27.448 36 27 35.552 27 35 C 27 34.448 27.448 34 28 34 L 34 34 L 34 28 C 34 27.448 34.448 27 35 27 z"/></svg>