<svg xmlns="http://www.w3.org/2000/svg"  viewBox="0 0 48 48" width="64px" height="64px" fill="#7979d4"><path d="M 13.705078 3.3007812 C 12.941484 3.3640625 12.250469 3.8658594 11.980469 4.6308594 C 11.610469 3.6098594 10.490938 3.0691562 9.4609375 3.4101562 C 8.4309375 3.7601562 7.8694531 4.8584375 8.1894531 5.8984375 C 7.2894531 5.2984375 6.0694531 5.5289219 5.4394531 6.4199219 C 4.8194531 7.3099219 5.0203906 8.5286875 5.9003906 9.1796875 C 4.8403906 9.2286875 4 10.099922 4 11.169922 C 4 12.086922 4.618125 12.847937 5.453125 13.085938 C 4.616125 13.324937 4 14.086 4 15 C 4 16.104 4.895 17 6 17 C 6.9259733 17 7.6978271 16.367195 7.9257812 15.513672 C 8.9427982 16.425169 10.365416 17 12 17 C 13.634584 17 15.057202 16.425169 16.074219 15.513672 C 16.302173 16.367195 17.074027 17 18 17 C 19.105 17 20 16.104 20 15 C 20 14.062 19.351469 13.280453 18.480469 13.064453 C 19.348469 12.848453 20 12.072859 20 11.130859 C 20 10.060859 19.149844 9.1808594 18.089844 9.1308594 C 18.959844 8.4808594 19.159531 7.2591406 18.519531 6.3691406 C 17.899531 5.4891406 16.669297 5.2681406 15.779297 5.8691406 C 16.089297 4.8291406 15.520469 3.729625 14.480469 3.390625 C 14.222969 3.308125 13.959609 3.2796875 13.705078 3.3007812 z M 12 8 C 13.124999 8 13.778816 8.3678665 14.253906 8.9023438 C 14.728997 9.4368209 15 10.208333 15 11 C 15 11.791667 14.728997 12.563179 14.253906 13.097656 C 13.778816 13.632133 13.124999 14 12 14 C 10.875001 14 10.221184 13.632133 9.7460938 13.097656 C 9.2710032 12.563179 9 11.791667 9 11 C 9 10.208333 9.2710032 9.4368209 9.7460938 8.9023438 C 10.221184 8.3678665 10.875001 8 12 8 z M 34 9 C 32.125 9 30.528815 9.7571337 29.503906 10.910156 C 28.478997 12.063179 28 13.541667 28 15 C 28 16.458333 28.478997 17.936821 29.503906 19.089844 C 30.528815 20.242867 32.125 21 34 21 C 35.875 21 37.471185 20.242867 38.496094 19.089844 C 39.521003 17.936821 40 16.458333 40 15 C 40 13.541667 39.521003 12.063179 38.496094 10.910156 C 37.471185 9.7571337 35.875 9 34 9 z M 34 12 C 35.124999 12 35.778816 12.367867 36.253906 12.902344 C 36.728997 13.436821 37 14.208333 37 15 C 37 15.791667 36.728997 16.563179 36.253906 17.097656 C 35.778816 17.632133 35.124999 18 34 18 C 32.875001 18 32.221184 17.632133 31.746094 17.097656 C 31.271003 16.563179 31 15.791667 31 15 C 31 14.208333 31.271003 13.436821 31.746094 12.902344 C 32.221184 12.367867 32.875001 12 34 12 z M 6.5 19 C 4.5850452 19 3 20.585045 3 22.5 L 3 25.355469 C 1.826035 25.924061 1 27.121916 1 28.5 L 1 41.5 A 1.50015 1.50015 0 0 0 2.5 43 L 21.5 43 L 45.5 43 A 1.50015 1.50015 0 0 0 47 41.5 L 47 32.5 C 47 30.585045 45.414955 29 43.5 29 L 43 29 L 43 26.5 C 43 24.585045 41.414955 23 39.5 23 L 28.5 23 C 26.585045 23 25 24.585045 25 26.5 L 25 29 L 23 29 L 23 28.5 C 23 27.121916 22.173965 25.924061 21 25.355469 L 21 22.5 C 21 20.585045 19.414955 19 17.5 19 L 6.5 19 z M 6.5 22 L 17.5 22 C 17.795045 22 18 22.204955 18 22.5 L 18 25 L 6 25 L 6 22.5 C 6 22.204955 6.2049548 22 6.5 22 z M 28.5 26 L 39.5 26 C 39.795045 26 40 26.204955 40 26.5 L 40 29 L 28 29 L 28 26.5 C 28 26.204955 28.204955 26 28.5 26 z M 4.5 28 L 19.5 28 C 19.795045 28 20 28.204955 20 28.5 L 20 30.5 L 20 40 L 4 40 L 4 28.5 C 4 28.204955 4.2049548 28 4.5 28 z M 23 32 L 43.5 32 C 43.795045 32 44 32.204955 44 32.5 L 44 40 L 23 40 L 23 32 z"/></svg>