<svg xmlns="http://www.w3.org/2000/svg"  viewBox="0 0 48 48" width="64px" height="64px" fill="#7979d4"><path d="M 24 5.0527344 C 22.445544 5.0527344 20.891089 5.8107396 20.050781 7.328125 L 4.5703125 35.294922 C 2.9376946 38.244782 5.1480864 42 8.5195312 42 L 39.482422 42 C 42.853867 42 45.064258 38.244782 43.431641 35.294922 L 27.949219 7.328125 C 27.108911 5.8107396 25.554456 5.0527344 24 5.0527344 z M 11.484375 5.9824219 A 1.50015 1.50015 0 0 0 10.251953 8.3320312 L 12.251953 11.332031 A 1.50015 1.50015 0 1 0 14.748047 9.6679688 L 12.748047 6.6679688 A 1.50015 1.50015 0 0 0 11.484375 5.9824219 z M 36.470703 5.9824219 A 1.50015 1.50015 0 0 0 35.251953 6.6679688 L 33.251953 9.6679688 A 1.50015 1.50015 0 1 0 35.748047 11.332031 L 37.748047 8.3320312 A 1.50015 1.50015 0 0 0 36.470703 5.9824219 z M 24 7.9492188 C 24.508544 7.9492188 25.016527 8.2256354 25.324219 8.78125 L 40.806641 36.748047 C 41.400023 37.820187 40.704977 39 39.482422 39 L 8.5195312 39 C 7.2969763 39 6.6019304 37.820187 7.1953125 36.748047 L 22.675781 8.78125 C 22.983473 8.2256354 23.491456 7.9492187 24 7.9492188 z M 7.03125 11.990234 A 1.50015 1.50015 0 0 0 6.2558594 14.802734 L 9.7558594 16.802734 A 1.5002871 1.5002871 0 1 0 11.244141 14.197266 L 7.7441406 12.197266 A 1.50015 1.50015 0 0 0 7.03125 11.990234 z M 41.074219 11.990234 A 1.50015 1.50015 0 0 0 40.255859 12.197266 L 36.755859 14.197266 A 1.5002872 1.5002872 0 1 0 38.244141 16.802734 L 41.744141 14.802734 A 1.50015 1.50015 0 0 0 41.074219 11.990234 z M 23.976562 15.978516 A 1.50015 1.50015 0 0 0 22.5 17.5 L 22.5 27.5 A 1.50015 1.50015 0 1 0 25.5 27.5 L 25.5 17.5 A 1.50015 1.50015 0 0 0 23.976562 15.978516 z M 4.5 19 A 1.50015 1.50015 0 1 0 4.5 22 L 8.5 22 A 1.50015 1.50015 0 1 0 8.5 19 L 4.5 19 z M 39.5 19 A 1.50015 1.50015 0 1 0 39.5 22 L 43.5 22 A 1.50015 1.50015 0 1 0 43.5 19 L 39.5 19 z M 24 32 A 2 2 0 0 0 24 36 A 2 2 0 0 0 24 32 z"/></svg>