<svg xmlns="http://www.w3.org/2000/svg"  viewBox="0 0 48 48" width="64px" height="64px" fill="#21bff0"><path d="M 31.984375 4.8574219 C 29.088387 4.8574219 26.192872 5.9575182 23.992188 8.1582031 L 8.1582031 23.992188 C 3.757233 28.393158 3.7580322 35.575087 8.1582031 39.976562 C 12.559406 44.378915 19.742404 44.380597 24.144531 39.978516 L 32.394531 31.728516 A 1.50015 1.50015 0 0 0 32.728516 31.394531 L 39.978516 24.144531 C 44.379885 19.743161 44.379885 12.559573 39.978516 8.1582031 C 37.777831 5.9574722 34.880363 4.8574219 31.984375 4.8574219 z M 31.984375 7.8378906 C 34.106387 7.8378906 36.228154 8.6519817 37.855469 10.279297 C 41.110099 13.533927 41.110099 18.766854 37.855469 22.021484 L 31.5 28.378906 L 19.757812 16.636719 L 26.113281 10.279297 C 27.740596 8.6519817 29.862363 7.8378906 31.984375 7.8378906 z M 17.636719 18.757812 L 29.378906 30.5 L 22.021484 37.855469 C 18.765612 41.111341 13.534094 41.113023 10.279297 37.857422 A 1.50015 1.50015 0 0 0 10.279297 37.855469 C 7.0246665 34.600839 7.0246665 29.367911 10.279297 26.113281 L 17.636719 18.757812 z M 15.5 24 A 1.5 1.5 0 0 0 15.5 27 A 1.5 1.5 0 0 0 15.5 24 z M 20.5 26 A 1.5 1.5 0 0 0 20.5 29 A 1.5 1.5 0 0 0 20.5 26 z M 11.5 29 A 1.5 1.5 0 0 0 11.5 32 A 1.5 1.5 0 0 0 11.5 29 z M 16.5 30 A 1.5 1.5 0 0 0 16.5 33 A 1.5 1.5 0 0 0 16.5 30 z M 22.5 31 A 1.5 1.5 0 0 0 22.5 34 A 1.5 1.5 0 0 0 22.5 31 z M 13.5 34 A 1.5 1.5 0 0 0 13.5 37 A 1.5 1.5 0 0 0 13.5 34 z M 18.5 35 A 1.5 1.5 0 0 0 18.5 38 A 1.5 1.5 0 0 0 18.5 35 z"/></svg>