<svg xmlns="http://www.w3.org/2000/svg"  viewBox="0 0 48 48" width="64px" height="64px"><path d="M 21.5 3 C 11.276513 3 3 11.547519 3 22 C 3 27.500733 5.2914672 32.465735 8.9492188 35.935547 A 1.50015 1.50015 0 0 0 8.9492188 35.9375 C 10.240806 37.161891 11 38.77056 11 40.46875 L 11 43.5 A 1.50015 1.50015 0 1 0 14 43.5 L 14 40.46875 C 14 37.87494 12.838084 35.489327 11.013672 33.759766 C 7.9374232 30.841578 6 26.669267 6 22 C 6 13.122481 12.945487 6 21.5 6 C 29.559501 6 36.148318 12.335983 36.890625 20.492188 A 1.50015 1.50015 0 0 0 37.212891 21.292969 L 42.001953 27.279297 C 42.032683 27.317717 42.0471 27.270609 42 27.287109 L 38.003906 28.683594 A 1.50015 1.50015 0 0 0 37 30.099609 L 37 36.339844 C 37 36.99103 36.591759 37.55617 35.974609 37.761719 L 30.394531 39.621094 C 28.97059 40.09516 28 41.440453 28 42.941406 L 28 43.5 A 1.50015 1.50015 0 1 0 31 43.5 L 31 42.941406 C 31 42.72036 31.131738 42.538684 31.341797 42.46875 L 36.923828 40.607422 C 38.756678 39.996971 40 38.270658 40 36.339844 L 40 31.164062 L 42.992188 30.117188 C 44.903137 29.447671 45.610968 26.985878 44.345703 25.404297 L 39.783203 19.701172 C 38.671105 10.333191 30.955942 3 21.5 3 z M 22 13.595703 C 21.262 13.595703 20.548375 13.688609 19.859375 13.849609 L 19.697266 15.324219 C 19.618266 16.048219 19.199359 16.692641 18.568359 17.056641 C 17.937359 17.420641 17.170906 17.462922 16.503906 17.169922 L 15.146484 16.572266 C 14.169484 17.613266 13.424 18.871437 13 20.273438 L 14.201172 21.15625 C 14.789172 21.58725 15.136719 22.272953 15.136719 23.001953 C 15.136719 23.730953 14.789172 24.414703 14.201172 24.845703 L 13 25.726562 C 13.424 27.128563 14.170484 28.386734 15.146484 29.427734 L 16.503906 28.830078 C 17.170906 28.537078 17.937359 28.578359 18.568359 28.943359 C 19.199359 29.307359 19.618266 29.951781 19.697266 30.675781 L 19.859375 32.150391 C 20.547375 32.310391 21.262 32.404297 22 32.404297 C 22.738 32.404297 23.451625 32.311391 24.140625 32.150391 L 24.302734 30.675781 C 24.381734 29.951781 24.800641 29.307359 25.431641 28.943359 C 26.062641 28.579359 26.829094 28.537078 27.496094 28.830078 L 28.853516 29.427734 C 29.830516 28.386734 30.576 27.128563 31 25.726562 L 29.798828 24.84375 C 29.210828 24.41375 28.863281 23.729 28.863281 23 C 28.863281 22.271 29.210828 21.585297 29.798828 21.154297 L 31 20.273438 C 30.576 18.871437 29.829516 17.613266 28.853516 16.572266 L 27.496094 17.169922 C 26.829094 17.462922 26.062641 17.421641 25.431641 17.056641 C 24.800641 16.692641 24.381734 16.048219 24.302734 15.324219 L 24.140625 13.849609 C 23.452625 13.689609 22.738 13.595703 22 13.595703 z M 22 19.695312 C 23.825 19.695312 25.304688 21.175 25.304688 23 C 25.304688 24.825 23.825 26.304688 22 26.304688 C 20.175 26.304688 18.695312 24.825 18.695312 23 C 18.695312 21.175 20.175 19.695312 22 19.695312 z"/></svg>