<svg xmlns="http://www.w3.org/2000/svg"  viewBox="0 0 48 48" width="64px" height="64px"><path d="M 8.5 6 C 6.0324991 6 4 8.0324991 4 10.5 L 4 37.5 C 4 39.967501 6.0324991 42 8.5 42 L 19.5 42 C 21.967501 42 24 39.967501 24 37.5 L 24 26.585938 L 31 30.585938 L 31 37.5 C 31 38.863594 32.136406 40 33.5 40 L 41.5 40 C 42.863594 40 44 38.863594 44 37.5 L 44 30.5 C 44 29.136406 42.863594 28 41.5 28 L 33.5 28 C 33.238549 28 32.990291 28.053713 32.751953 28.130859 L 25.521484 24 L 32.751953 19.869141 C 32.990291 19.946287 33.238549 20 33.5 20 L 41.5 20 C 42.863594 20 44 18.863594 44 17.5 L 44 10.5 C 44 9.1364058 42.863594 8 41.5 8 L 33.5 8 C 32.136406 8 31 9.1364058 31 10.5 L 31 17.414062 L 24 21.414062 L 24 10.5 C 24 8.0324991 21.967501 6 19.5 6 L 8.5 6 z M 8.5 9 L 19.5 9 C 20.346499 9 21 9.6535009 21 10.5 L 21 16.001953 L 7 16 L 7 10.5 C 7 9.6535009 7.6535009 9 8.5 9 z M 10.5 11 A 1.5 1.5 0 0 0 10.5 14 A 1.5 1.5 0 0 0 10.5 11 z M 34 11 L 41 11 L 41 17 L 34 17 L 34 11 z M 7 19 L 21 19.001953 L 21 26.001953 L 7 26 L 7 19 z M 10.5 21.001953 A 1.5 1.5 0 0 0 10.5 24.001953 A 1.5 1.5 0 0 0 10.5 21.001953 z M 7 29 L 21 29.001953 L 21 37.5 C 21 38.346499 20.346499 39 19.5 39 L 8.5 39 C 7.6535009 39 7 38.346499 7 37.5 L 7 29 z M 34 31 L 41 31 L 41 37 L 34 37 L 34 31 z M 14 32 A 2 2 0 0 0 14 36 A 2 2 0 0 0 14 32 z"/></svg>