<svg xmlns="http://www.w3.org/2000/svg"  viewBox="0 0 48 48" width="64px" height="64px"><path d="M 24 3 A 3.5 3.5 0 1 0 24 10 A 3.5 3.5 0 1 0 24 3 z M 8.5 12 A 3.5 3.5 0 1 0 8.5 19 A 3.5 3.5 0 1 0 8.5 12 z M 39.5 12 A 3.5 3.5 0 1 0 39.5 19 A 3.5 3.5 0 1 0 39.5 12 z M 24 13 C 22.458334 13 21.112148 13.632133 20.253906 14.597656 C 19.395664 15.563179 19 16.791667 19 18 C 19 19.208333 19.395664 20.436821 20.253906 21.402344 C 21.112148 22.367867 22.458334 23 24 23 C 25.541666 23 26.887852 22.367867 27.746094 21.402344 C 28.604336 20.436821 29 19.208333 29 18 C 29 16.791667 28.604336 15.563179 27.746094 14.597656 C 26.887852 13.632133 25.541666 13 24 13 z M 24 16 C 24.791666 16 25.195482 16.242867 25.503906 16.589844 C 25.81233 16.936821 26 17.458333 26 18 C 26 18.541667 25.81233 19.063179 25.503906 19.410156 C 25.195482 19.757133 24.791666 20 24 20 C 23.208334 20 22.804518 19.757133 22.496094 19.410156 C 22.18767 19.063179 22 18.541667 22 18 C 22 17.458333 22.18767 16.936821 22.496094 16.589844 C 22.804518 16.242867 23.208334 16 24 16 z M 18.052734 25 C 16.384766 25 15 26.384766 15 28.052734 L 15 28.949219 C 15 30.778128 16.156829 32.353257 17.771484 33.382812 C 19.386139 34.412368 21.526393 35 24 35 C 26.473607 35 28.613861 34.412368 30.228516 33.382812 C 31.843171 32.353257 33 30.778128 33 28.949219 L 33 28.052734 C 33 26.384766 31.615234 25 29.947266 25 L 18.052734 25 z M 18.052734 28 L 29.947266 28 C 29.993297 28 30 28.006703 30 28.052734 L 30 28.949219 C 30 29.502309 29.637283 30.203071 28.617188 30.853516 C 27.597092 31.503961 25.987393 32 24 32 C 22.012607 32 20.402909 31.503961 19.382812 30.853516 C 18.362717 30.203071 18 29.502309 18 28.949219 L 18 28.052734 C 18 28.006703 18.006703 28 18.052734 28 z M 8.5 29 A 3.5 3.5 0 1 0 8.5 36 A 3.5 3.5 0 1 0 8.5 29 z M 39.5 29 A 3.5 3.5 0 1 0 39.5 36 A 3.5 3.5 0 1 0 39.5 29 z M 24 38 A 3.5 3.5 0 1 0 24 45 A 3.5 3.5 0 1 0 24 38 z"/></svg>