<svg xmlns="http://www.w3.org/2000/svg"  viewBox="0 0 48 48" width="64px" height="64px"><path d="M 5.5 6 C 3.0324991 6 1 8.0324991 1 10.5 L 1 31.5 C 1 33.967501 3.0324991 36 5.5 36 L 16 36 L 16 41 L 15.5 41 A 1.50015 1.50015 0 1 0 15.5 44 L 17.253906 44 A 1.50015 1.50015 0 0 0 17.740234 44 L 30.253906 44 A 1.50015 1.50015 0 0 0 30.740234 44 L 32.5 44 A 1.50015 1.50015 0 1 0 32.5 41 L 32 41 L 32 36 L 42.5 36 C 44.967501 36 47 33.967501 47 31.5 L 47 10.5 C 47 8.0324991 44.967501 6 42.5 6 L 5.5 6 z M 5.5 9 L 42.5 9 C 43.346499 9 44 9.6535009 44 10.5 L 44 31.5 C 44 32.346499 43.346499 33 42.5 33 L 32 33 L 32 21.5 C 32 19.585045 30.414955 18 28.5 18 L 19.5 18 C 17.585045 18 16 19.585045 16 21.5 L 16 33 L 5.5 33 C 4.6535009 33 4 32.346499 4 31.5 L 4 10.5 C 4 9.6535009 4.6535009 9 5.5 9 z M 10 11 A 1 1 0 0 0 10 13 A 1 1 0 0 0 10 11 z M 14 11 A 1 1 0 0 0 14 13 A 1 1 0 0 0 14 11 z M 18 11 A 1 1 0 0 0 18 13 A 1 1 0 0 0 18 11 z M 22 11 A 1 1 0 0 0 22 13 A 1 1 0 0 0 22 11 z M 26 11 A 1 1 0 0 0 26 13 A 1 1 0 0 0 26 11 z M 30 11 A 1 1 0 0 0 30 13 A 1 1 0 0 0 30 11 z M 34 11 A 1 1 0 0 0 34 13 A 1 1 0 0 0 34 11 z M 38 11 A 1 1 0 0 0 38 13 A 1 1 0 0 0 38 11 z M 8 14 A 1 1 0 0 0 8 16 A 1 1 0 0 0 8 14 z M 12 14 A 1 1 0 0 0 12 16 A 1 1 0 0 0 12 14 z M 16 14 A 1 1 0 0 0 16 16 A 1 1 0 0 0 16 14 z M 20 14 A 1 1 0 0 0 20 16 A 1 1 0 0 0 20 14 z M 24 14 A 1 1 0 0 0 24 16 A 1 1 0 0 0 24 14 z M 28 14 A 1 1 0 0 0 28 16 A 1 1 0 0 0 28 14 z M 32 14 A 1 1 0 0 0 32 16 A 1 1 0 0 0 32 14 z M 36 14 A 1 1 0 0 0 36 16 A 1 1 0 0 0 36 14 z M 40 14 A 1 1 0 0 0 40 16 A 1 1 0 0 0 40 14 z M 19.5 21 L 28.5 21 C 28.795045 21 29 21.204955 29 21.5 L 29 34.253906 A 1.50015 1.50015 0 0 0 29 34.740234 L 29 41 L 19 41 L 19 34.746094 A 1.50015 1.50015 0 0 0 19 34.259766 L 19 21.5 C 19 21.204955 19.204955 21 19.5 21 z M 23.970703 22.972656 A 2.0002 2.0002 0 0 0 22 25 L 22 29 A 2.0002 2.0002 0 1 0 26 29 L 26 25 A 2.0002 2.0002 0 0 0 23.970703 22.972656 z M 7 26 A 1 1 0 0 0 7 28 A 1 1 0 0 0 7 26 z M 11 26 A 1 1 0 0 0 11 28 A 1 1 0 0 0 11 26 z M 37 26 A 1 1 0 0 0 37 28 A 1 1 0 0 0 37 26 z M 41 26 A 1 1 0 0 0 41 28 A 1 1 0 0 0 41 26 z M 9 29 A 1 1 0 0 0 9 31 A 1 1 0 0 0 9 29 z M 13 29 A 1 1 0 0 0 13 31 A 1 1 0 0 0 13 29 z M 35 29 A 1 1 0 0 0 35 31 A 1 1 0 0 0 35 29 z M 39 29 A 1 1 0 0 0 39 31 A 1 1 0 0 0 39 29 z"/></svg>