<svg xmlns="http://www.w3.org/2000/svg"  viewBox="0 0 48 48" width="64px" height="64px"><path d="M 36 4 A 4 4 0 0 0 36 12 A 4 4 0 0 0 36 4 z M 7.4765625 6.9785156 A 1.50015 1.50015 0 0 0 6 8.5 L 6 42.5 A 1.50015 1.50015 0 0 0 7.5 44 L 15.253906 44 A 1.50015 1.50015 0 0 0 15.740234 44 L 23.253906 44 A 1.50015 1.50015 0 0 0 23.740234 44 L 32.251953 44 A 1.50015 1.50015 0 0 0 32.738281 44 L 39.251953 44 A 1.50015 1.50015 0 0 0 40.548828 43.589844 A 1.50015 1.50015 0 0 0 40.589844 43.550781 A 1.50015 1.50015 0 0 0 40.998047 42.248047 L 41 32.408203 C 41.581474 32.201513 42 31.651878 42 31 L 42 20 C 42 16.686 39.314 14 36 14 C 32.687 14 30 16.686 30 20 L 30 31 C 30 31.651878 30.418526 32.201513 31 32.408203 L 30.998047 41 L 25 41 L 25 26.5 A 1.50015 1.50015 0 1 0 22 26.5 L 22 41 L 17 41 L 17 34.5 A 1.50015 1.50015 0 1 0 14 34.5 L 14 41 L 9 41 L 9 8.5 A 1.50015 1.50015 0 0 0 7.4765625 6.9785156 z M 34 32 L 38 32 L 37.998047 41 L 33.998047 41 L 34 32 z"/></svg>