<svg xmlns="http://www.w3.org/2000/svg"  viewBox="0 0 48 48" width="64px" height="64px" fill="#7b7979"><path d="M 24.082031 2.9980469 C 23.403298 2.9980563 22.723769 3.0576333 22.052734 3.1757812 A 1.50015 1.50015 0 0 0 22.037109 3.1796875 L 9.3886719 5.5527344 C 9.3872019 5.5529941 9.3862356 5.5544275 9.3847656 5.5546875 C 8.0552188 5.791025 6.9125732 6.6431873 6.3085938 7.8496094 A 1.50015 1.50015 0 0 0 6.2734375 7.9257812 L 4.4160156 12.226562 L 4.4511719 12.150391 C 3.4915724 14.068057 4.1188151 16.431794 5.9042969 17.621094 L 9.015625 19.763672 A 1.50015 1.50015 0 0 0 9 20 L 9 24.257812 C 7.8597735 25.168256 7 26.430675 7 28 C 7 30.361739 8.7044726 32.27003 10.919922 32.78125 C 11.816449 36.336333 13.30684 39.503248 15.40625 41.828125 C 17.708437 44.377556 20.706886 46 24 46 C 27.293114 46 30.291563 44.377556 32.59375 41.828125 C 34.69316 39.503248 36.183551 36.336333 37.080078 32.78125 C 39.295527 32.27003 41 30.361739 41 28 C 41 26.430284 40.137097 25.174656 39 24.269531 L 39 20 A 1.50015 1.50015 0 0 0 38.982422 19.765625 L 42.09375 17.621094 C 43.878737 16.432124 44.505785 14.06821 43.546875 12.150391 L 43.583984 12.226562 L 41.726562 7.9277344 A 1.50015 1.50015 0 0 0 41.691406 7.8515625 C 41.086522 6.641792 39.939936 5.7880821 38.609375 5.5527344 L 26.128906 3.1796875 A 1.50015 1.50015 0 0 0 26.109375 3.1757812 C 25.4387 3.0575956 24.760764 2.9980374 24.082031 2.9980469 z M 24.080078 6 C 24.584662 6.0000094 25.089565 6.043045 25.587891 6.1308594 L 38.068359 8.5039062 A 1.50015 1.50015 0 0 0 38.087891 8.5078125 C 38.485833 8.5782005 38.822293 8.8313531 39.003906 9.1914062 L 40.828125 13.416016 A 1.50015 1.50015 0 0 0 40.865234 13.492188 C 41.158325 14.078368 40.976654 14.760017 40.431641 15.123047 A 1.50015 1.50015 0 0 0 40.412109 15.136719 L 36.259766 18 L 11.740234 18 L 7.5878906 15.136719 A 1.50015 1.50015 0 0 0 7.5683594 15.123047 C 7.0238409 14.760343 6.8423651 14.078475 7.1347656 13.494141 A 1.50015 1.50015 0 0 0 7.1699219 13.416016 L 8.9941406 9.1914062 C 9.1758048 8.8305499 9.5105461 8.5784134 9.9101562 8.5078125 A 1.50015 1.50015 0 0 0 9.9257812 8.5039062 L 22.572266 6.1308594 C 23.071231 6.0430073 23.575495 5.9999906 24.080078 6 z M 17.5 10 C 16.948 10 16.5 10.448 16.5 11 L 16.5 12 C 16.5 12.552 16.948 13 17.5 13 L 19.5 13 L 19.5 11 C 19.5 10.448 19.052 10 18.5 10 L 17.5 10 z M 19.5 13 L 19.5 15 C 19.5 15.552 19.948 16 20.5 16 L 21.5 16 C 22.052 16 22.5 15.552 22.5 15 L 22.5 13 L 19.5 13 z M 22.5 13 L 25.5 13 L 25.5 11 C 25.5 10.448 25.052 10 24.5 10 L 23.5 10 C 22.948 10 22.5 10.448 22.5 11 L 22.5 13 z M 25.5 13 L 25.5 15 C 25.5 15.552 25.948 16 26.5 16 L 27.5 16 C 28.052 16 28.5 15.552 28.5 15 L 28.5 13 L 25.5 13 z M 28.5 13 L 30.5 13 C 31.052 13 31.5 12.552 31.5 12 L 31.5 11 C 31.5 10.448 31.052 10 30.5 10 L 29.5 10 C 28.948 10 28.5 10.448 28.5 11 L 28.5 13 z M 12 22.341797 C 14.457704 23.933171 18.903865 25 24 25 C 29.096135 25 33.542534 23.933171 36 22.341797 L 36 24.878906 A 1.50015 1.50015 0 0 0 36.855469 26.234375 C 37.54264 26.561015 38 27.202806 38 28 C 38 29.122343 37.122343 30 36 30 C 36.264714 30 36.24617 29.994141 35.939453 29.994141 A 1.50015 1.50015 0 0 0 34.470703 31.185547 C 33.727184 34.728666 32.236501 37.746337 30.367188 39.816406 C 28.497877 41.886516 26.317886 43 24 43 C 21.682114 43 19.502126 41.886475 17.632812 39.816406 C 15.763499 37.746337 14.272816 34.728666 13.529297 31.185547 A 1.50015 1.50015 0 0 0 12.060547 29.994141 C 11.753833 29.994141 11.735286 30 12 30 C 10.877657 30 10 29.122343 10 28 C 10 27.196375 10.461497 26.541671 11.142578 26.21875 A 1.50015 1.50015 0 0 0 12 24.863281 L 12 22.341797 z M 19 26 A 2 2 0 0 0 19 30 A 2 2 0 0 0 19 26 z M 29 26 C 27.895 26 27 26.895 27 28 C 27 29.105 27.895 30 29 30 C 30.105 30 31 29.105 31 28 C 31 26.895 30.105 26 29 26 z"/></svg>