<svg xmlns="http://www.w3.org/2000/svg"  viewBox="0 0 48 48" width="64px" height="64px" fill="#7b7979"><path d="M 12.5 5 C 9.4802259 5 7 7.4802259 7 10.5 L 7 16.5 L 7 40.080078 A 1.50015 1.50015 0 0 0 7.5 43 L 8.2539062 43 A 1.50015 1.50015 0 0 0 8.7402344 43 L 27.253906 43 A 1.50015 1.50015 0 0 0 27.740234 43 L 28.5 43 A 1.50015 1.50015 0 0 0 29 40.080078 L 29 31 L 33.5 31 C 33.795045 31 34 31.204955 34 31.5 L 34 35 C 34 37.743657 36.256343 40 39 40 C 41.743657 40 44 37.743657 44 35 L 44 21.966797 C 44 20.579674 43.357931 19.26584 42.261719 18.414062 L 34.419922 12.316406 A 1.50015 1.50015 0 0 0 33.445312 11.986328 A 1.50015 1.50015 0 0 0 32.580078 14.683594 L 36 17.34375 L 36 22 C 36 24.209 37.791 26 40 26 L 41 26 L 41 35 C 41 36.122343 40.122343 37 39 37 C 37.877657 37 37 36.122343 37 35 L 37 31.5 C 37 29.585045 35.414955 28 33.5 28 L 29 28 L 29 16.5 L 29 10.5 C 29 7.4802259 26.519774 5 23.5 5 L 12.5 5 z M 12.5 8 L 23.5 8 C 24.898226 8 26 9.1017741 26 10.5 L 26 16.5 C 26 17.898226 24.898226 19 23.5 19 L 12.5 19 C 11.101774 19 10 17.898226 10 16.5 L 10 10.5 C 10 9.1017741 11.101774 8 12.5 8 z M 10 21.386719 C 10.752279 21.775308 11.600802 22 12.5 22 L 23.5 22 C 24.399198 22 25.247721 21.775308 26 21.386719 L 26 40 L 10 40 L 10 21.386719 z"/></svg>