<svg xmlns="http://www.w3.org/2000/svg"  viewBox="0 0 48 48" width="64px" height="64px"><path d="M 12.5 4 C 10.02 4 8 6.02 8 8.5 L 8 39.5 C 8 41.98 10.02 44 12.5 44 L 25 44 L 25 41 L 12.5 41 C 11.67 41 11 40.33 11 39.5 L 11 8.5 C 11 7.67 11.67 7 12.5 7 L 24 7 L 24 15.5 C 24 17.98 26.02 20 28.5 20 L 37 20 L 37 29.349609 C 37.456 29.131609 37.961 29 38.5 29 C 39.039 29 39.544 29.131609 40 29.349609 L 40 18.5 C 40 18.085 39.831797 17.710703 39.560547 17.439453 L 26.560547 4.4394531 C 26.289297 4.1682031 25.915 4 25.5 4 L 12.5 4 z M 27 9.1210938 L 34.878906 17 L 28.5 17 C 27.67 17 27 16.33 27 15.5 L 27 9.1210938 z M 43.476562 28.978516 A 1.50015 1.50015 0 0 0 42 30.5 L 42 44.5 A 1.50015 1.50015 0 1 0 45 44.5 L 45 30.5 A 1.50015 1.50015 0 0 0 43.476562 28.978516 z M 38.476562 30.978516 A 1.50015 1.50015 0 0 0 37 32.5 L 37 44.5 A 1.50015 1.50015 0 1 0 40 44.5 L 40 32.5 A 1.50015 1.50015 0 0 0 38.476562 30.978516 z M 33.476562 33.978516 A 1.50015 1.50015 0 0 0 32 35.5 L 32 44.5 A 1.50015 1.50015 0 1 0 35 44.5 L 35 35.5 A 1.50015 1.50015 0 0 0 33.476562 33.978516 z M 28.476562 36.978516 A 1.50015 1.50015 0 0 0 27 38.5 L 27 44.5 A 1.50015 1.50015 0 1 0 30 44.5 L 30 38.5 A 1.50015 1.50015 0 0 0 28.476562 36.978516 z"/></svg>