<svg xmlns="http://www.w3.org/2000/svg"  viewBox="0 0 48 48" width="64px" height="64px" fill="#7b7979"><path d="M 6.5 7 A 2.5 2.5 0 0 0 6.5 12 A 2.5 2.5 0 0 0 6.5 7 z M 12.5 8 A 1.5 1.5 0 0 0 12.5 11 A 1.5 1.5 0 0 0 12.5 8 z M 18.5 8 A 1.5 1.5 0 0 0 18.5 11 A 1.5 1.5 0 0 0 18.5 8 z M 24.5 8 A 1.5 1.5 0 0 0 24.5 11 A 1.5 1.5 0 0 0 24.5 8 z M 30.5 8 A 1.5 1.5 0 0 0 30.5 11 A 1.5 1.5 0 0 0 30.5 8 z M 36.5 8 A 1.5 1.5 0 0 0 36.5 11 A 1.5 1.5 0 0 0 36.5 8 z M 42.5 8 A 1.5 1.5 0 0 0 42.5 11 A 1.5 1.5 0 0 0 42.5 8 z M 42.5 14 A 1.5 1.5 0 0 0 42.5 17 A 1.5 1.5 0 0 0 42.5 14 z M 27 15 C 23.704135 15 21 17.704135 21 21 C 21 22.616954 21.801437 23.977864 22.646484 25.386719 C 23.491532 26.795574 24.469887 28.125726 25.121094 28.972656 A 1.50015 1.50015 0 0 0 25.123047 28.972656 C 26.048956 30.175274 27.951044 30.175274 28.876953 28.972656 A 1.50015 1.50015 0 0 0 28.878906 28.972656 C 29.530113 28.125726 30.508468 26.795574 31.353516 25.386719 C 32.198469 23.977864 33 22.616954 33 21 C 33 17.704135 30.295865 15 27 15 z M 27 18 C 28.674135 18 30 19.325865 30 21 C 30 21.254046 29.526453 22.601355 28.78125 23.84375 C 28.199257 24.814044 27.565836 25.659806 27 26.421875 C 26.434164 25.659806 25.800743 24.814044 25.21875 23.84375 C 24.473547 22.601355 24 21.254046 24 21 C 24 19.325865 25.325865 18 27 18 z M 42.5 20 A 1.5 1.5 0 0 0 42.5 23 A 1.5 1.5 0 0 0 42.5 20 z M 6.5 26 A 1.5 1.5 0 0 0 6.5 29 A 1.5 1.5 0 0 0 6.5 26 z M 12.5 26 A 1.5 1.5 0 0 0 12.5 29 A 1.5 1.5 0 0 0 12.5 26 z M 18.5 26 A 1.5 1.5 0 0 0 18.5 29 A 1.5 1.5 0 0 0 18.5 26 z M 36.5 26 A 1.5 1.5 0 0 0 36.5 29 A 1.5 1.5 0 0 0 36.5 26 z M 42.5 26 A 1.5 1.5 0 0 0 42.5 29 A 1.5 1.5 0 0 0 42.5 26 z M 6.5 32 A 1.5 1.5 0 0 0 6.5 35 A 1.5 1.5 0 0 0 6.5 32 z M 42.5 37 A 2.5 2.5 0 0 0 42.5 42 A 2.5 2.5 0 0 0 42.5 37 z M 6.5 38 A 1.5 1.5 0 0 0 6.5 41 A 1.5 1.5 0 0 0 6.5 38 z M 12.5 38 A 1.5 1.5 0 0 0 12.5 41 A 1.5 1.5 0 0 0 12.5 38 z M 18.5 38 A 1.5 1.5 0 0 0 18.5 41 A 1.5 1.5 0 0 0 18.5 38 z M 24.5 38 A 1.5 1.5 0 0 0 24.5 41 A 1.5 1.5 0 0 0 24.5 38 z M 30.5 38 A 1.5 1.5 0 0 0 30.5 41 A 1.5 1.5 0 0 0 30.5 38 z M 36.5 38 A 1.5 1.5 0 0 0 36.5 41 A 1.5 1.5 0 0 0 36.5 38 z"/></svg>