<svg xmlns="http://www.w3.org/2000/svg"  viewBox="0 0 48 48" width="64px" height="64px" fill="#306823"><path d="M 12.681641 1.515625 C 12.325242 1.507078 11.96684 1.5195667 11.607422 1.5527344 C 10.648974 1.6411815 9.6891377 1.8756123 8.7773438 2.25 C 5.1301673 3.7475509 2 7.562112 2 13.060547 A 1.50015 1.50015 0 0 0 4.3242188 14.314453 C 5.2331344 13.717193 6.3050631 13.83749 7.7695312 14.283203 C 9.2339996 14.728916 10.775752 15.560547 12.601562 15.560547 C 14.070735 15.560547 15.536255 15.146481 16.804688 14.373047 C 17.493191 13.953257 18.122444 13.424181 18.644531 12.783203 A 1.50015 1.50015 0 1 0 16.318359 10.888672 C 16.032446 11.239694 15.665683 11.55429 15.242188 11.8125 C 14.460619 12.289066 13.488392 12.560547 12.601562 12.560547 C 11.945374 12.560547 10.38411 11.942147 8.6425781 11.412109 C 7.6401987 11.107034 6.4719108 10.895442 5.2832031 10.982422 C 5.9030008 7.876937 7.7765082 5.9038843 9.9160156 5.0253906 C 11.932486 4.1974168 13.94046 4.361977 15.28125 5.3808594 C 14.458721 5.5267288 13.717175 5.6997436 13.150391 5.8886719 C 11.867277 6.3163765 11.099609 6.8613281 11.099609 6.8613281 A 1.5003909 1.5003909 0 1 0 12.900391 9.2617188 C 12.900391 9.2617188 13.132723 9.0566704 14.099609 8.734375 C 15.02179 8.4269813 16.599366 8.121957 18.773438 8.0917969 C 20.063675 8.4547923 20.833306 9.4717791 21.34375 10.84375 C 21.872825 12.265798 22 13.916667 22 14.5 L 22 15.242188 C 17.622229 15.823671 13.888385 18.700684 13.070312 23.117188 C 9.5772387 23.426233 6.8796651 25.651891 5.09375 27.791016 C 3.1751683 30.089045 2.1347656 32.384766 2.1347656 32.384766 A 1.5002787 1.5002787 0 1 0 4.8652344 33.628906 C 4.8652344 33.628906 5.7643161 31.669814 7.3964844 29.714844 C 9.0286527 27.759873 11.25995 26 13.826172 26 C 15.347561 26 16.006735 26.20582 17.236328 26.466797 C 18.465921 26.727774 20.123641 27 23.107422 27 L 27.5 27 C 28.346499 27 29 27.653501 29 28.5 C 29 28.969499 28.794195 29.374296 28.470703 29.646484 C 28.470416 29.646699 28.429688 29.677734 28.429688 29.677734 A 1.5001988 1.5001988 0 0 0 28.345703 29.748047 A 1.5001988 1.5001988 0 0 0 28.34375 29.75 C 28.105295 29.908613 27.816466 30 27.5 30 L 20.5 30 A 1.50015 1.50015 0 1 0 20.5 33 L 27.5 33 C 28.440637 33 29.315307 32.701451 30.041016 32.199219 C 30.042186 32.198409 30.043753 32.198076 30.044922 32.197266 A 1.5001988 1.5001988 0 0 0 30.224609 32.082031 C 30.224609 32.082031 38.775959 25.696426 40.273438 24.583984 A 1.50015 1.50015 0 0 0 40.273438 24.582031 C 40.837627 24.162534 41.309824 24.022381 41.640625 24.019531 C 41.971426 24.016631 42.218287 24.096901 42.560547 24.439453 C 43.150922 25.029324 43.147391 25.935102 42.572266 26.533203 C 37.217133 31.036197 33.848465 34.036886 31.623047 35.794922 C 29.369881 37.574924 28.424996 38 27.5 38 C 23.847885 38 19.80067 37 15.5 37 C 13 37 11.242781 38.343609 10.300781 39.599609 C 9.3587815 40.855609 9.0449219 42.136719 9.0449219 42.136719 A 1.50015 1.50015 0 1 0 11.955078 42.863281 C 11.955078 42.863281 12.141219 42.144391 12.699219 41.400391 C 13.257219 40.656391 14 40 15.5 40 C 19.30733 40 23.336115 41 27.5 41 C 29.402004 41 31.084837 40.044435 33.482422 38.150391 C 35.849764 36.280238 39.175413 33.30991 44.498047 28.833984 A 1.50015 1.50015 0 0 0 44.681641 28.681641 C 44.688541 28.674741 44.690436 28.665143 44.697266 28.658203 L 44.701172 28.662109 L 44.753906 28.607422 A 1.50015 1.50015 0 0 0 45.083984 28.074219 C 46.330485 26.321792 46.248887 23.884269 44.681641 22.318359 C 43.931805 21.567884 42.942673 21.125111 41.931641 21.050781 A 1.50015 1.50015 0 0 0 41.892578 20.945312 C 41.243134 19.315832 40.071087 18.106443 38.671875 17.416016 C 37.272663 16.725588 35.697636 16.5 34.048828 16.5 C 32.620428 16.5 31.313268 16.931227 30.123047 17.548828 C 28.678842 16.352447 26.941388 15.594699 25 15.306641 L 25 14.5 C 25 13.583333 24.877175 11.734577 24.15625 9.796875 C 23.486057 7.9955313 22.125711 6.0685929 19.837891 5.3046875 A 1.50015 1.50015 0 0 0 19.195312 5.0722656 A 1.50015 1.50015 0 0 0 19.105469 5.0625 A 1.50015 1.50015 0 0 0 19.101562 5.0625 A 1.50015 1.50015 0 0 0 18.925781 5.0585938 A 1.50015 1.50015 0 0 0 18.859375 4.9316406 C 17.534208 2.6673057 15.176432 1.5754542 12.681641 1.515625 z M 23.521484 18 C 25.652308 18 27.555036 18.880441 28.925781 20.298828 A 1.50015 1.50015 0 0 0 30.855469 20.492188 C 31.766 19.865108 32.856415 19.5 34.048828 19.5 C 35.41102 19.5 36.534415 19.705147 37.345703 20.105469 C 38.091822 20.473634 38.610204 20.978247 39.001953 21.837891 C 38.827431 21.945151 38.65177 22.051317 38.484375 22.175781 C 37.470126 22.929243 34.418425 25.208042 31.777344 27.179688 C 31.204622 25.351508 29.505924 24 27.5 24 L 23.107422 24 C 20.296203 24 18.985532 23.772226 17.859375 23.533203 C 17.381095 23.43169 16.669377 23.401184 16.146484 23.306641 C 16.932813 20.084197 19.852026 18 23.521484 18 z"/></svg>