<svg xmlns="http://www.w3.org/2000/svg"  viewBox="0 0 48 48" width="64px" height="64px" fill="#598216"><path d="M 19.119141 4 C 18.785844 4.0061406 18.506844 4.102625 18.308594 4.296875 C 17.515594 5.073875 18.301453 7.13725 20.064453 8.90625 C 21.826453 10.67625 23.898406 11.480125 24.691406 10.703125 C 25.484406 9.927125 24.697547 7.86375 22.935547 6.09375 C 21.614047 4.76625 20.119031 3.9815781 19.119141 4 z M 32.09375 10.013672 C 31.095662 9.8576484 29.516906 11.018922 28.316406 12.873047 C 26.944406 14.992047 26.585625 17.214891 27.515625 17.837891 C 28.444625 18.459891 30.309641 17.245953 31.681641 15.126953 C 33.053641 13.007953 33.412422 10.785109 32.482422 10.162109 C 32.366297 10.084234 32.236334 10.035961 32.09375 10.013672 z M 15.449219 13 C 14.855629 13.000773 14.395734 13.168828 14.162109 13.517578 C 13.539109 14.446578 14.754047 16.311594 16.873047 17.683594 C 18.992047 19.055594 21.214891 19.414375 21.837891 18.484375 C 22.459891 17.555375 21.245953 15.690359 19.126953 14.318359 C 17.802578 13.460859 16.438535 12.998711 15.449219 13 z M 6.5 21 A 1.50015 1.50015 0 1 0 6.5 24 L 13.320312 24 C 14.118906 29.075083 18.535391 33 24 33 C 29.464609 33 33.881094 29.075083 34.679688 24 L 41.5 24 A 1.50015 1.50015 0 1 0 41.5 21 L 33.5 21 A 1.50015 1.50015 0 0 0 32 22.5 C 32 26.615438 28.479133 30 24 30 C 19.520867 30 16 26.615438 16 22.5 A 1.50015 1.50015 0 0 0 14.5 21 L 6.5 21 z M 24.013672 22 C 21.252672 21.983 19.007 22.86475 19 23.96875 C 18.993 25.07275 21.225328 25.981047 23.986328 25.998047 C 26.747328 26.015047 28.993 25.13525 29 24.03125 C 29.007 22.92725 26.774672 22.017 24.013672 22 z M 6.5 26 A 1.50015 1.50015 0 1 0 6.5 29 L 8.5 29 A 1.50015 1.50015 0 1 0 8.5 26 L 6.5 26 z M 39.5 26 A 1.50015 1.50015 0 1 0 39.5 29 L 41.5 29 A 1.50015 1.50015 0 1 0 41.5 26 L 39.5 26 z M 9.5 31 A 1.50015 1.50015 0 1 0 9.5 34 L 14.5 34 A 1.50015 1.50015 0 1 0 14.5 31 L 9.5 31 z M 33.5 31 A 1.50015 1.50015 0 1 0 33.5 34 L 38.5 34 A 1.50015 1.50015 0 1 0 38.5 31 L 33.5 31 z M 6.5 36 A 1.50015 1.50015 0 1 0 6.5 39 L 8.5 39 A 1.50015 1.50015 0 1 0 8.5 36 L 6.5 36 z M 15.5 36 A 1.50015 1.50015 0 1 0 15.5 39 L 20.5 39 A 1.50015 1.50015 0 1 0 20.5 36 L 15.5 36 z M 27.5 36 A 1.50015 1.50015 0 1 0 27.5 39 L 32.5 39 A 1.50015 1.50015 0 1 0 32.5 36 L 27.5 36 z M 39.5 36 A 1.50015 1.50015 0 1 0 39.5 39 L 41.5 39 A 1.50015 1.50015 0 1 0 41.5 36 L 39.5 36 z M 9.5 41 A 1.50015 1.50015 0 1 0 9.5 44 L 14.5 44 A 1.50015 1.50015 0 1 0 14.5 41 L 9.5 41 z M 21.5 41 A 1.50015 1.50015 0 1 0 21.5 44 L 26.5 44 A 1.50015 1.50015 0 1 0 26.5 41 L 21.5 41 z M 33.5 41 A 1.50015 1.50015 0 1 0 33.5 44 L 38.5 44 A 1.50015 1.50015 0 1 0 38.5 41 L 33.5 41 z"/></svg>