<svg xmlns="http://www.w3.org/2000/svg"  viewBox="0 0 48 48" width="64px" height="64px" fill="#d8cf42"><path d="M 16.5 4 C 14.032499 4 12 6.0324991 12 8.5 L 12 39.5 C 12 41.967501 14.032499 44 16.5 44 L 31.5 44 C 33.967501 44 36 41.967501 36 39.5 L 36 8.5 C 36 6.0324991 33.967501 4 31.5 4 L 16.5 4 z M 16.5 7 L 31.5 7 C 32.346499 7 33 7.6535009 33 8.5 L 33 39.5 C 33 40.346499 32.346499 41 31.5 41 L 16.5 41 C 15.653501 41 15 40.346499 15 39.5 L 15 8.5 C 15 7.6535009 15.653501 7 16.5 7 z M 23.976562 14.978516 A 1.50015 1.50015 0 0 0 22.5 16.5 L 22.5 18.902344 L 20.419922 17.701172 A 1.50015 1.50015 0 1 0 18.919922 20.298828 L 21 21.5 L 18.919922 22.701172 A 1.50015 1.50015 0 1 0 20.419922 25.298828 L 22.5 24.097656 L 22.5 26.5 A 1.50015 1.50015 0 1 0 25.5 26.5 L 25.5 24.097656 L 27.580078 25.298828 A 1.50015 1.50015 0 1 0 29.080078 22.701172 L 27 21.5 L 29.080078 20.298828 A 1.50015 1.50015 0 1 0 27.580078 17.701172 L 25.5 18.902344 L 25.5 16.5 A 1.50015 1.50015 0 0 0 23.976562 14.978516 z M 21.5 35 A 1.50015 1.50015 0 1 0 21.5 38 L 26.5 38 A 1.50015 1.50015 0 1 0 26.5 35 L 21.5 35 z"/></svg>