<svg xmlns="http://www.w3.org/2000/svg"  viewBox="0 0 48 48" width="64px" height="64px" fill="#6b911b"><path d="M 13.5 9 C 12.874 9 12.361797 9.4 11.966797 10 L 11.5 10 C 8.468 10 6 12.468 6 15.5 L 6 32.5 C 6 35.071 7.7760625 37.229125 10.164062 37.828125 C 10.062063 38.031125 10 38.258 10 38.5 C 10 39.328 10.672 40 11.5 40 L 15.5 40 C 16.328 40 17 39.328 17 38.5 C 17 38.324 16.964203 38.157 16.908203 38 L 17.091797 38 C 17.035797 38.157 17 38.324 17 38.5 C 17 39.328 17.672 40 18.5 40 L 22.5 40 C 23.328 40 24 39.328 24 38.5 C 24 38.324 23.964203 38.157 23.908203 38 L 24.091797 38 C 24.035797 38.157 24 38.324 24 38.5 C 24 39.328 24.672 40 25.5 40 L 29.5 40 C 30.328 40 31 39.328 31 38.5 C 31 38.324 30.964203 38.157 30.908203 38 L 31.091797 38 C 31.035797 38.157 31 38.324 31 38.5 C 31 39.328 31.672 40 32.5 40 L 36.5 40 C 37.328 40 38 39.328 38 38.5 C 38 38.258 37.937938 38.031125 37.835938 37.828125 C 40.223937 37.229125 42 35.071 42 32.5 L 42 15.5 C 42 12.468 39.532 10 36.5 10 L 36.033203 10 C 35.638203 9.4 35.125 9 34.5 9 C 32.869 9 32 11.703297 32 13.654297 L 32 13.945312 L 32.404297 14.103516 C 33.083297 14.368516 33.793906 14.501953 34.503906 14.501953 C 35.263906 14.501953 36.022187 14.348922 36.742188 14.044922 L 37 13.9375 L 37 13.654297 C 37 13.459297 36.989656 13.255828 36.972656 13.048828 C 38.125656 13.269828 39 14.283 39 15.5 L 39 32.5 C 39 33.879 37.879 35 36.5 35 L 11.5 35 C 10.121 35 9 33.879 9 32.5 L 9 15.5 C 9 14.283 9.8743438 13.269828 11.027344 13.048828 C 11.010344 13.255828 11 13.459297 11 13.654297 L 11 13.945312 L 11.404297 14.103516 C 12.083297 14.368516 12.793906 14.501953 13.503906 14.501953 C 14.263906 14.501953 15.022188 14.348922 15.742188 14.044922 L 16 13.9375 L 16 13.654297 C 16 11.703297 15.131 9 13.5 9 z M 20.5 9 C 18.869 9 18 11.703297 18 13.654297 L 18 13.945312 L 18.404297 14.103516 C 19.083297 14.368516 19.794906 14.501953 20.503906 14.501953 C 21.263906 14.501953 22.022187 14.348922 22.742188 14.044922 L 23 13.9375 L 23 13.654297 C 23 11.703297 22.131 9 20.5 9 z M 27.5 9 C 25.869 9 25 11.703297 25 13.654297 L 25 13.945312 L 25.404297 14.103516 C 26.083297 14.368516 26.794906 14.501953 27.503906 14.501953 C 28.263906 14.501953 29.022187 14.348922 29.742188 14.044922 L 30 13.9375 L 30 13.654297 C 30 11.703297 29.131 9 27.5 9 z M 13.5 18 C 11.869 18 11 20.703297 11 22.654297 L 11 22.945312 L 11.404297 23.103516 C 12.083297 23.368516 12.793906 23.501953 13.503906 23.501953 C 14.263906 23.501953 15.022188 23.348922 15.742188 23.044922 L 16 22.9375 L 16 22.654297 C 16 20.703297 15.131 18 13.5 18 z M 20.5 18 C 18.869 18 18 20.703297 18 22.654297 L 18 22.945312 L 18.404297 23.103516 C 19.083297 23.368516 19.794906 23.501953 20.503906 23.501953 C 21.263906 23.501953 22.022187 23.348922 22.742188 23.044922 L 23 22.9375 L 23 22.654297 C 23 20.703297 22.131 18 20.5 18 z M 27.5 18 C 25.869 18 25 20.703297 25 22.654297 L 25 22.945312 L 25.404297 23.103516 C 26.083297 23.368516 26.794906 23.501953 27.503906 23.501953 C 28.263906 23.501953 29.022187 23.348922 29.742188 23.044922 L 30 22.9375 L 30 22.654297 C 30 20.703297 29.131 18 27.5 18 z M 34.5 18 C 32.869 18 32 20.703297 32 22.654297 L 32 22.945312 L 32.404297 23.103516 C 33.083297 23.368516 33.794906 23.501953 34.503906 23.501953 C 35.263906 23.501953 36.022187 23.348922 36.742188 23.044922 L 37 22.9375 L 37 22.654297 C 37 20.703297 36.131 18 34.5 18 z M 13.5 28 C 11.869 28 11 30.703297 11 32.654297 L 11 32.945312 L 11.404297 33.103516 C 12.083297 33.368516 12.793906 33.501953 13.503906 33.501953 C 14.263906 33.501953 15.022188 33.348922 15.742188 33.044922 L 16 32.9375 L 16 32.654297 C 16 30.703297 15.131 28 13.5 28 z M 20.5 28 C 18.869 28 18 30.703297 18 32.654297 L 18 32.945312 L 18.404297 33.103516 C 19.083297 33.368516 19.794906 33.501953 20.503906 33.501953 C 21.263906 33.501953 22.022187 33.348922 22.742188 33.044922 L 23 32.9375 L 23 32.654297 C 23 30.703297 22.131 28 20.5 28 z M 27.5 28 C 25.869 28 25 30.703297 25 32.654297 L 25 32.945312 L 25.404297 33.103516 C 26.083297 33.368516 26.794906 33.501953 27.503906 33.501953 C 28.263906 33.501953 29.022187 33.348922 29.742188 33.044922 L 30 32.9375 L 30 32.654297 C 30 30.703297 29.131 28 27.5 28 z M 34.5 28 C 32.869 28 32 30.703297 32 32.654297 L 32 32.945312 L 32.404297 33.103516 C 33.083297 33.368516 33.794906 33.501953 34.503906 33.501953 C 35.263906 33.501953 36.022187 33.348922 36.742188 33.044922 L 37 32.9375 L 37 32.654297 C 37 30.703297 36.131 28 34.5 28 z"/></svg>