<svg xmlns="http://www.w3.org/2000/svg"  viewBox="0 0 48 48" width="64px" height="64px" fill="#5b763f"><path d="M 10.5 5 C 8.69025 5 7.2930232 6.122223 6.1152344 7.4824219 C 4.9374455 8.8426208 4 10.576219 4 12.5 C 4 15.541169 6.1646906 17.997372 9 18.695312 L 9 22 L 5.5 22 A 1.50015 1.50015 0 0 0 4 23.740234 L 4 26.5 C 4 27.075 4.3296562 27.598609 4.8476562 27.849609 C 5.0556563 27.950609 5.279 27.998047 5.5 27.998047 C 5.833 27.998047 6.1625937 27.887828 6.4335938 27.673828 C 6.4552646 27.656097 8.7012271 25.913428 12.210938 25 L 17.671875 25 C 6.9062283 31.602333 4.0605469 41.080078 4.0605469 41.080078 A 1.50015 1.50015 0 1 0 6.9394531 41.919922 C 6.9394531 41.919922 10.089352 30.803935 24.302734 25 L 24.5 25 L 29.972656 25 C 20.546479 32.117983 18.052734 41.105469 18.052734 41.105469 A 1.50015 1.50015 0 1 0 20.947266 41.894531 C 20.947266 41.894531 23.689873 31.726019 35.416016 25 L 39.396484 25 C 33.695086 32.787561 32.029297 41.205078 32.029297 41.205078 A 1.50015 1.50015 0 1 0 34.970703 41.794922 C 34.970703 41.794922 36.94359 32.128643 43.628906 24.488281 A 1.50015 1.50015 0 0 0 43.675781 24.431641 A 1.50015 1.50015 0 0 0 43.6875 24.414062 A 1.50015 1.50015 0 0 0 44 23.285156 L 44 14.900391 A 1.50015 1.50015 0 0 0 43.791016 14.134766 L 40.291016 8.234375 A 1.50015 1.50015 0 0 0 39.539062 7.5996094 L 33.039062 5.0996094 A 1.50015 1.50015 0 0 0 32.451172 5 A 1.50015 1.50015 0 0 0 31.960938 5.0996094 L 25.460938 7.5996094 A 1.50015 1.50015 0 0 0 24.708984 8.234375 L 21.208984 14.134766 A 1.50015 1.50015 0 0 0 21 14.900391 L 21 22 L 12 22 L 12 18.695312 C 14.835309 17.997372 17 15.541169 17 12.5 C 17 10.576219 16.062554 8.8426208 14.884766 7.4824219 C 13.706977 6.122223 12.30975 5 10.5 5 z M 10.5 8 C 10.69025 8 11.793023 8.4977145 12.615234 9.4472656 C 13.437446 10.396817 14 11.662781 14 12.5 C 14 14.419433 12.492719 15.934778 10.585938 15.982422 A 1.50015 1.50015 0 0 0 10.414062 15.982422 C 8.5072804 15.934778 7 14.419433 7 12.5 C 7 11.662781 7.5625545 10.396817 8.3847656 9.4472656 C 9.2069768 8.4977145 10.30975 8 10.5 8 z M 32.5 8.1074219 L 37.974609 10.212891 L 41 15.310547 L 41 22 L 36 22 L 36 17.5 C 36 16.672 35.328 16 34.5 16 L 30.5 16 C 29.672 16 29 16.672 29 17.5 L 29 22 L 24.5 22 L 24.162109 22 A 1.50015 1.50015 0 0 0 24 21.992188 L 24 15.310547 L 27.025391 10.212891 L 32.5 8.1074219 z M 32.5 11 A 1.5 1.5 0 0 0 32.5 14 A 1.5 1.5 0 0 0 32.5 11 z"/></svg>