<svg xmlns="http://www.w3.org/2000/svg"  viewBox="0 0 48 48" width="64px" height="64px" fill="#7d951f"><path d="M 13.800781 5.0019531 C 13.421716 4.9963084 13.039676 5.0140236 12.65625 5.0546875 C 11.587585 5.1680237 10.517185 5.4533757 9.5019531 5.9023438 C 5.4410272 7.6982153 2 12.126475 2 18.5 A 1.50015 1.50015 0 0 0 4.3496094 19.736328 C 5.4615276 18.972521 6.731903 19.107216 8.3984375 19.595703 C 10.064972 20.08419 11.805171 21 13.787109 21 C 16.12132 21 18.47438 20.032826 20.107422 18.242188 A 1.50015 1.50015 0 1 0 17.892578 16.220703 C 16.89362 17.316065 15.252899 18 13.787109 18 C 12.963047 18 11.199653 17.29056 9.2421875 16.716797 C 8.0517898 16.367873 6.6704721 16.153479 5.2851562 16.328125 C 5.935138 12.347596 8.1735308 9.769245 10.716797 8.6445312 C 12.655486 7.7871809 14.552405 7.8097941 16.054688 8.5351562 C 12.431971 9.2336415 10.361328 11.523438 10.361328 11.523438 A 1.50015 1.50015 0 1 0 12.638672 13.476562 C 12.638672 13.476562 14.932937 10.603929 19.732422 11.476562 A 1.50015 1.50015 0 0 0 19.814453 11.488281 C 19.814453 11.488281 20.248812 11.494881 20.939453 12.185547 C 21.630095 12.876187 22.5 14.285714 22.5 17.5 L 22.5 27.5 A 1.50015 1.50015 0 1 0 25.5 27.5 L 25.5 17.5 C 25.5 14.285714 26.369906 12.876188 27.060547 12.185547 C 27.750321 11.495772 28.182505 11.488299 28.183594 11.488281 A 1.50015 1.50015 0 0 0 28.185547 11.488281 A 1.50015 1.50015 0 0 0 28.267578 11.476562 C 33.067063 10.603929 35.361328 13.476562 35.361328 13.476562 A 1.50015 1.50015 0 1 0 37.638672 11.523438 C 37.638672 11.523438 35.56803 9.2336415 31.945312 8.5351562 C 33.447595 7.8097942 35.344514 7.7871808 37.283203 8.6445312 C 39.826469 9.7692451 42.064862 12.347596 42.714844 16.328125 C 41.329528 16.153479 39.94821 16.367875 38.757812 16.716797 C 36.800302 17.290561 35.036953 18 34.212891 18 C 32.747101 18 31.10638 17.316065 30.107422 16.220703 A 1.50015 1.50015 0 1 0 27.892578 18.242188 C 29.52562 20.032826 31.87868 21 34.212891 21 C 36.194829 21 37.935029 20.08419 39.601562 19.595703 C 41.268098 19.107216 42.538472 18.972521 43.650391 19.736328 A 1.50015 1.50015 0 0 0 46 18.5 C 46 12.126475 42.558973 7.6982153 38.498047 5.9023438 C 34.569657 4.1650839 29.868406 4.9487623 27.566406 8.5625 A 1.50015 1.50015 0 0 0 27.304688 8.6640625 A 1.50015 1.50015 0 0 0 27.300781 8.6660156 C 26.779745 8.8062699 25.893864 9.1100421 24.939453 10.064453 C 24.580009 10.423897 24.312742 11.072268 24 11.595703 C 23.687258 11.072268 23.419991 10.423897 23.060547 10.064453 C 22.10205 9.1059564 21.211711 8.8027893 20.693359 8.6640625 A 1.50015 1.50015 0 0 0 20.435547 8.5644531 C 18.94211 6.218057 16.454237 5.0414661 13.800781 5.0019531 z M 3.5 26 A 1.50015 1.50015 0 1 0 3.5 29 L 16.5 29 A 1.50015 1.50015 0 1 0 16.5 26 L 3.5 26 z M 31.5 26 A 1.50015 1.50015 0 1 0 31.5 29 L 44.5 29 A 1.50015 1.50015 0 1 0 44.5 26 L 31.5 26 z M 3.5351562 31.986328 A 1.50015 1.50015 0 0 0 2.5097656 34.626953 C 2.5097656 34.626953 3.2980962 35.299071 4.6054688 35.873047 C 5.9128413 36.447022 7.8349925 37 10.332031 37 C 12.829522 37 14.75304 36.447018 16.060547 35.873047 C 16.750493 35.570173 16.804907 35.459249 17.166016 35.214844 C 17.527051 35.459337 17.581165 35.569943 18.271484 35.873047 C 19.578797 36.447059 21.502509 37 24 37 C 26.497491 37 28.421203 36.447059 29.728516 35.873047 C 30.418835 35.569943 30.472949 35.459337 30.833984 35.214844 C 31.195093 35.459249 31.249507 35.570173 31.939453 35.873047 C 33.24696 36.447018 35.170478 37 37.667969 37 C 40.165008 37 42.087159 36.447022 43.394531 35.873047 C 44.701904 35.299071 45.490234 34.626953 45.490234 34.626953 A 1.5001955 1.5001955 0 1 0 43.509766 32.373047 C 43.509766 32.373047 43.159831 32.700929 42.189453 33.126953 C 41.219076 33.552978 39.72593 34 37.667969 34 C 35.60946 34 34.115025 33.552982 33.144531 33.126953 C 32.174038 32.700924 31.822266 32.373047 31.822266 32.373047 A 1.50015 1.50015 0 0 0 29.84375 32.373047 C 29.84375 32.373047 29.491672 32.700965 28.521484 33.126953 C 27.551297 33.552941 26.058509 34 24 34 C 21.941491 34 20.448703 33.552941 19.478516 33.126953 C 18.508328 32.700965 18.15625 32.373047 18.15625 32.373047 A 1.50015 1.50015 0 0 0 16.177734 32.373047 C 16.177734 32.373047 15.825962 32.700924 14.855469 33.126953 C 13.884975 33.552982 12.39054 34 10.332031 34 C 8.2740704 34 6.7809243 33.552978 5.8105469 33.126953 C 4.8401695 32.700929 4.4902344 32.373047 4.4902344 32.373047 A 1.50015 1.50015 0 0 0 3.5351562 31.986328 z M 3.5351562 37.986328 A 1.50015 1.50015 0 0 0 2.5097656 40.626953 C 2.5097656 40.626953 3.2980962 41.299071 4.6054688 41.873047 C 5.9128413 42.447022 7.8349925 43 10.332031 43 C 12.829522 43 14.75304 42.447018 16.060547 41.873047 C 16.750493 41.570173 16.804907 41.459249 17.166016 41.214844 C 17.527051 41.459337 17.581165 41.569943 18.271484 41.873047 C 19.578797 42.447059 21.502509 43 24 43 C 26.497491 43 28.421203 42.447059 29.728516 41.873047 C 30.418835 41.569943 30.472949 41.459337 30.833984 41.214844 C 31.195093 41.459249 31.249507 41.570173 31.939453 41.873047 C 33.24696 42.447018 35.170478 43 37.667969 43 C 40.165008 43 42.087159 42.447022 43.394531 41.873047 C 44.701904 41.299071 45.490234 40.626953 45.490234 40.626953 A 1.5001955 1.5001955 0 1 0 43.509766 38.373047 C 43.509766 38.373047 43.159831 38.700929 42.189453 39.126953 C 41.219076 39.552978 39.72593 40 37.667969 40 C 35.60946 40 34.115025 39.552982 33.144531 39.126953 C 32.174038 38.700924 31.822266 38.373047 31.822266 38.373047 A 1.50015 1.50015 0 0 0 29.84375 38.373047 C 29.84375 38.373047 29.491672 38.700965 28.521484 39.126953 C 27.551297 39.552941 26.058509 40 24 40 C 21.941491 40 20.448703 39.552941 19.478516 39.126953 C 18.508328 38.700965 18.15625 38.373047 18.15625 38.373047 A 1.50015 1.50015 0 0 0 16.177734 38.373047 C 16.177734 38.373047 15.825962 38.700924 14.855469 39.126953 C 13.884975 39.552982 12.39054 40 10.332031 40 C 8.2740704 40 6.7809243 39.552978 5.8105469 39.126953 C 4.8401695 38.700929 4.4902344 38.373047 4.4902344 38.373047 A 1.50015 1.50015 0 0 0 3.5351562 37.986328 z"/></svg>