<svg xmlns="http://www.w3.org/2000/svg"  viewBox="0 0 48 48" width="64px" height="64px" fill="#416422"><path d="M 35.541016 7 A 1.50015 1.50015 0 0 0 34.300781 7.5996094 L 31.375 11.5 L 30.699219 10.599609 A 1.50015 1.50015 0 0 0 28.300781 10.599609 L 27.25 12 L 24.699219 8.5996094 A 1.50015 1.50015 0 0 0 22.300781 8.5996094 L 19.375 12.5 L 18.699219 11.599609 A 1.50015 1.50015 0 0 0 16.300781 11.599609 L 14.875 13.5 L 12.699219 10.599609 A 1.50015 1.50015 0 0 0 10.300781 10.599609 L 7.3007812 14.599609 A 1.50015 1.50015 0 0 0 7 15.5 L 7 18 L 5.5 18 A 1.50015 1.50015 0 1 0 5.5 21 A 1.50015 1.50015 0 1 0 5.5 24 L 7 24 L 7 29 L 5.5 29 A 1.50015 1.50015 0 1 0 5.5 32 A 1.50015 1.50015 0 1 0 5.5 35 L 7 35 L 7 37.5 C 7 39.967501 9.0324991 42 11.5 42 L 14.5 42 L 20.5 42 L 26.5 42 L 32.5 42 L 35.5 42 C 37.967501 42 40 39.967501 40 37.5 L 40 35 L 41.5 35 A 1.50015 1.50015 0 1 0 41.5 32 A 1.50015 1.50015 0 1 0 41.5 29 L 40 29 L 40 24 L 41.5 24 A 1.50015 1.50015 0 1 0 41.5 21 A 1.50015 1.50015 0 1 0 41.5 18 L 40 18 L 40 12.5 A 1.50015 1.50015 0 0 0 39.699219 11.599609 L 36.699219 7.5996094 A 1.50015 1.50015 0 0 0 35.541016 7 z M 35.5 11 L 37 13 L 37 18 L 34 18 L 34 15.5 L 34 13 L 35.5 11 z M 23.5 12 L 25 14 L 25 15.5 L 25 18 L 22 18 L 22 16.5 L 22 14 L 23.5 12 z M 11.5 14 L 13 16 L 13 16.5 L 13 18 L 10 18 L 10 16 L 11.5 14 z M 29.5 14 L 31 16 L 31 18 L 28 18 L 28 16 L 29.5 14 z M 17.5 15 L 19 17 L 19 18 L 16 18 L 16 17 L 17.5 15 z M 10 24 L 13 24 L 13 29 L 10 29 L 10 24 z M 16 24 L 19 24 L 19 29 L 16 29 L 16 24 z M 22 24 L 25 24 L 25 29 L 22 29 L 22 24 z M 28 24 L 31 24 L 31 29 L 28 29 L 28 24 z M 34 24 L 37 24 L 37 29 L 34 29 L 34 24 z M 10 35 L 13 35 L 13 39 L 11.5 39 C 10.653501 39 10 38.346499 10 37.5 L 10 35 z M 16 35 L 19 35 L 19 39 L 16 39 L 16 35 z M 22 35 L 25 35 L 25 39 L 22 39 L 22 35 z M 28 35 L 31 35 L 31 39 L 28 39 L 28 35 z M 34 35 L 37 35 L 37 37.5 C 37 38.346499 36.346499 39 35.5 39 L 34 39 L 34 35 z"/></svg>