<svg xmlns="http://www.w3.org/2000/svg"  viewBox="0 0 48 48" width="64px" height="64px" fill="#5096ce"><path d="M 10.5 4 C 8.0324991 4 6 6.0324991 6 8.5 L 6 39.5 C 6 41.967501 8.0324991 44 10.5 44 L 25.5 44 C 27.967501 44 30 41.967501 30 39.5 L 30 37 L 38 37 L 38 38 C 38 38.552 38.448 39 39 39 L 41 39 C 41.552 39 42 38.552 42 38 L 42 35.5 L 42 29.5 C 42 28.469039 41.587249 27.557488 40.994141 26.794922 A 1.50015 1.50015 0 0 0 40.958984 26.585938 L 40 22.478516 L 40 22.476562 C 39.526979 20.447608 37.70119 19 35.619141 19 L 30 19 L 30 8.5 C 30 6.0324991 27.967501 4 25.5 4 L 10.5 4 z M 10.5 7 L 25.5 7 C 26.346499 7 27 7.6535009 27 8.5 L 27 20.253906 A 1.50015 1.50015 0 0 0 27 20.740234 L 27 26.253906 A 1.50015 1.50015 0 0 0 27 26.740234 L 27 35.253906 A 1.50015 1.50015 0 0 0 27 35.740234 L 27 39.5 C 27 40.346499 26.346499 41 25.5 41 L 10.5 41 C 9.6535009 41 9 40.346499 9 39.5 L 9 8.5 C 9 7.6535009 9.6535009 7 10.5 7 z M 11.75 19 C 11.336 19 11 19.336 11 19.75 L 11 21.25 C 11 21.664 11.336 22 11.75 22 L 13.25 22 C 13.664 22 14 21.664 14 21.25 L 14 19.75 C 14 19.336 13.664 19 13.25 19 L 11.75 19 z M 17.25 19 C 16.836 19 16.5 19.336 16.5 19.75 L 16.5 21.25 C 16.5 21.664 16.836 22 17.25 22 L 18.75 22 C 19.164 22 19.5 21.664 19.5 21.25 L 19.5 19.75 C 19.5 19.336 19.164 19 18.75 19 L 17.25 19 z M 22.75 19 C 22.336 19 22 19.336 22 19.75 L 22 21.25 C 22 21.664 22.336 22 22.75 22 L 24.25 22 C 24.664 22 25 21.664 25 21.25 L 25 19.75 C 25 19.336 24.664 19 24.25 19 L 22.75 19 z M 14.75 22 C 14.336 22 14 22.336 14 22.75 L 14 24.25 C 14 24.664 14.336 25 14.75 25 L 16.25 25 C 16.664 25 17 24.664 17 24.25 L 17 22.75 C 17 22.336 16.664 22 16.25 22 L 14.75 22 z M 19.75 22 C 19.336 22 19 22.336 19 22.75 L 19 24.25 C 19 24.664 19.336 25 19.75 25 L 21.25 25 C 21.664 25 22 24.664 22 24.25 L 22 22.75 C 22 22.336 21.664 22 21.25 22 L 19.75 22 z M 30 22 L 35.619141 22 C 36.324475 22 36.918484 22.47215 37.078125 23.158203 A 1.50015 1.50015 0 0 0 37.080078 23.158203 L 37.509766 25.001953 C 37.506269 25.001945 37.503451 25 37.5 25 L 30 25 L 30 22 z M 30 28 L 37.5 28 C 38.346499 28 39 28.653501 39 29.5 L 39 34 L 30 34 L 30 28 z M 35.5 30 A 1.5 1.5 0 0 0 35.5 33 A 1.5 1.5 0 0 0 35.5 30 z M 15.5 35 A 1.50015 1.50015 0 1 0 15.5 38 L 20.5 38 A 1.50015 1.50015 0 1 0 20.5 35 L 15.5 35 z"/></svg>