<svg xmlns="http://www.w3.org/2000/svg"  viewBox="0 0 48 48" width="64px" height="64px" fill="#ab8b5d"><path d="M 11.755859 4 C 7.3497213 4.1325434 4 7.9437149 4 12.273438 L 4 32 L 4 32.5 C 4 38.83361 9.1663898 44 15.5 44 L 42.5 44 A 1.50015 1.50015 0 1 0 42.5 41 L 15.5 41 C 10.78761 41 7 37.21239 7 32.5 L 7 32 C 7 29.220585 9.220585 27 12 27 C 13.468275 27 14.724531 27.472702 15.59375 28.242188 C 16.450399 29.000546 16.966702 30.036634 16.986328 31.462891 A 1.50015 1.50015 0 0 0 16.986328 31.541016 C 16.965427 33.030993 16.002107 34 15 34 C 13.999704 34 13.132675 33.235933 12.982422 32.269531 A 1.5002303 1.5002303 0 1 0 10.017578 32.730469 C 10.395325 35.160067 12.508296 37 15 37 C 16.847641 37 18.327622 35.868371 19.191406 34.3125 L 21.439453 36.560547 A 1.50015 1.50015 0 0 0 23.560547 36.560547 L 26.5 33.621094 L 29.439453 36.560547 A 1.50015 1.50015 0 0 0 31.560547 36.560547 L 34.5 33.621094 L 37.439453 36.560547 A 1.50015 1.50015 0 0 0 39.560547 36.560547 L 43.560547 32.560547 A 1.50015 1.50015 0 1 0 41.439453 30.439453 L 38.5 33.378906 L 35.560547 30.439453 A 1.50015 1.50015 0 0 0 33.439453 30.439453 L 30.5 33.378906 L 27.560547 30.439453 A 1.50015 1.50015 0 0 0 25.439453 30.439453 L 22.5 33.378906 L 20 30.878906 L 20 26.121094 L 21.439453 27.560547 A 1.50015 1.50015 0 0 0 23.560547 27.560547 L 26.5 24.621094 L 29.439453 27.560547 A 1.50015 1.50015 0 0 0 31.560547 27.560547 L 34.5 24.621094 L 37.439453 27.560547 A 1.50015 1.50015 0 0 0 39.560547 27.560547 L 43.560547 23.560547 A 1.50015 1.50015 0 1 0 41.439453 21.439453 L 38.5 24.378906 L 35.560547 21.439453 A 1.50015 1.50015 0 0 0 33.439453 21.439453 L 30.5 24.378906 L 27.560547 21.439453 A 1.50015 1.50015 0 0 0 25.439453 21.439453 L 22.5 24.378906 L 20 21.878906 L 20 17.121094 L 21.439453 18.560547 A 1.50015 1.50015 0 0 0 23.560547 18.560547 L 26.5 15.621094 L 29.439453 18.560547 A 1.50015 1.50015 0 0 0 31.560547 18.560547 L 34.5 15.621094 L 37.439453 18.560547 A 1.50015 1.50015 0 0 0 39.560547 18.560547 L 43.560547 14.560547 A 1.50015 1.50015 0 1 0 41.439453 12.439453 L 38.5 15.378906 L 35.560547 12.439453 A 1.50015 1.50015 0 0 0 33.439453 12.439453 L 30.5 15.378906 L 27.560547 12.439453 A 1.50015 1.50015 0 0 0 25.439453 12.439453 L 22.5 15.378906 L 20 12.878906 L 20 12 C 20 7.5182341 16.262761 3.8653194 11.755859 4 z M 11.845703 7 C 14.700801 6.9146806 17 9.1697659 17 12 L 17 13.279297 A 1.50015 1.50015 0 0 0 17 13.689453 L 17 22.279297 A 1.50015 1.50015 0 0 0 17 22.689453 L 17 25.53125 C 15.598779 24.523145 13.84796 24 12 24 C 10.111146 24 8.3723603 24.666481 7 25.771484 L 7 12.273438 C 7 9.4851591 9.1378417 7.0814566 11.845703 7 z"/></svg>