<svg xmlns="http://www.w3.org/2000/svg"  viewBox="0 0 48 48" width="64px" height="64px" fill="#375eec"><path d="M 36.984375 3.984375 A 1.50015 1.50015 0 0 0 35.939453 6.5605469 L 37.878906 8.5 L 7.5 8.5 A 1.50015 1.50015 0 1 0 7.5 11.5 L 37.878906 11.5 L 35.939453 13.439453 A 1.50015 1.50015 0 1 0 38.060547 15.560547 L 42.560547 11.060547 A 1.50015 1.50015 0 0 0 42.560547 8.9394531 L 38.060547 4.4394531 A 1.50015 1.50015 0 0 0 36.984375 3.984375 z M 10 19 C 7.2535661 19 4.9941406 21.259425 4.9941406 24.005859 L 4.9941406 39 C 4.9941406 41.746434 7.2535661 44.005859 10 44.005859 C 12.746434 44.005859 15.005859 41.746434 15.005859 39 L 15.005859 24.005859 C 15.005859 21.259425 12.746434 19 10 19 z M 24 19 C 21.253566 19 18.994141 21.259425 18.994141 24.005859 L 18.994141 39 C 18.994141 41.746434 21.253566 44.005859 24 44.005859 C 26.746434 44.005859 29.005859 41.746434 29.005859 39 L 29.005859 24.005859 C 29.005859 21.259425 26.746434 19 24 19 z M 37.994141 19 C 35.247707 19 32.990234 21.259425 32.990234 24.005859 L 32.990234 39 C 32.990234 41.746434 35.247707 44.005859 37.994141 44.005859 C 40.740575 44.005859 43 41.746434 43 39 L 43 24.005859 C 43 21.259425 40.740575 19 37.994141 19 z M 10 22 C 11.125566 22 12.005859 22.880293 12.005859 24.005859 L 12.005859 39 C 12.005859 40.125566 11.125566 41.005859 10 41.005859 C 8.8744339 41.005859 7.9941406 40.125566 7.9941406 39 L 7.9941406 24.005859 C 7.9941406 22.880293 8.8744339 22 10 22 z M 24 22 C 25.125566 22 26.005859 22.880293 26.005859 24.005859 L 26.005859 39 C 26.005859 40.125566 25.125566 41.005859 24 41.005859 C 22.874434 41.005859 21.994141 40.125566 21.994141 39 L 21.994141 24.005859 C 21.994141 22.880293 22.874434 22 24 22 z M 37.994141 22 C 39.119707 22 40 22.880293 40 24.005859 L 40 39 C 40 40.125566 39.119707 41.005859 37.994141 41.005859 C 36.868575 41.005859 35.990234 40.125566 35.990234 39 L 35.990234 24.005859 C 35.990234 22.880293 36.868575 22 37.994141 22 z"/></svg>