<svg xmlns="http://www.w3.org/2000/svg"  viewBox="0 0 48 48" width="64px" height="64px" fill="#18bdf3"><path d="M 13.5 6 C 9.3754991 6 6 9.3754991 6 13.5 L 6 34.5 C 6 38.624501 9.3754991 42 13.5 42 L 34.5 42 C 38.624501 42 42 38.624501 42 34.5 L 42 13.5 C 42 9.3754991 38.624501 6 34.5 6 L 13.5 6 z M 13.5 9 L 34.5 9 C 37.003499 9 39 10.996501 39 13.5 L 39 34.5 C 39 37.003499 37.003499 39 34.5 39 L 13.5 39 C 10.996501 39 9 37.003499 9 34.5 L 9 13.5 C 9 10.996501 10.996501 9 13.5 9 z M 19 15 C 15.69 15 13 17.69 13 21 C 13 22.82 13.809844 24.450781 15.089844 25.550781 C 15.619844 24.820781 16.299609 24.199766 17.099609 23.759766 C 17.619609 20.399766 20.240078 17.729141 23.580078 17.119141 C 22.470078 15.819141 20.83 15 19 15 z M 25 19 C 21.686 19 19 21.686 19 25 C 19 25.047 19.006812 25.091672 19.007812 25.138672 C 17.281812 25.582672 16 27.136 16 29 C 16 31.209 17.791 33 20 33 L 31 33 C 33.761 33 36 30.761 36 28 C 36 25.239 33.761 23 31 23 C 30.885 23 30.777063 23.025203 30.664062 23.033203 C 29.849062 20.686203 27.624 19 25 19 z"/></svg>