<svg xmlns="http://www.w3.org/2000/svg"  viewBox="0 0 48 48" width="64px" height="64px" fill="#ec0000"><path d="M 22.470703 5.9863281 A 1.50015 1.50015 0 0 0 21.439453 6.4394531 L 17.490234 10.388672 A 1.50015 1.50015 0 0 0 17.546875 12.566406 L 21.498047 16.115234 A 1.50015 1.50015 0 1 0 23.501953 13.884766 L 22.517578 13 C 28.878773 13.00952 34 18.136502 34 24.5 C 34 30.869415 28.869415 36 22.5 36 L 4.5 36 A 1.50015 1.50015 0 1 0 4.5 39 L 22.5 39 L 39.878906 39 L 38.490234 40.388672 A 1.50015 1.50015 0 1 0 40.611328 42.509766 L 44.431641 38.689453 A 1.50015 1.50015 0 0 0 44.423828 36.302734 L 40.611328 32.490234 A 1.50015 1.50015 0 0 0 39.535156 32.035156 A 1.50015 1.50015 0 0 0 38.490234 34.611328 L 39.878906 36 L 31.292969 36 C 34.753676 33.346734 37 29.184011 37 24.5 C 37 16.509415 30.490585 10 22.5 10 L 22.121094 10 L 23.560547 8.5605469 A 1.50015 1.50015 0 0 0 22.470703 5.9863281 z M 14.080078 13.150391 A 1.50015 1.50015 0 0 0 13.019531 13.529297 C 9.947492 16.186678 8 20.126234 8 24.5 A 1.50015 1.50015 0 0 0 8.0078125 24.664062 C 8.0482846 28.23411 9.3880197 31.490776 11.572266 34 L 16.029297 34 C 12.996297 31.927 11 28.443 11 24.5 C 11 21.013766 12.540508 17.909447 14.980469 15.798828 A 1.50015 1.50015 0 0 0 14.080078 13.150391 z"/></svg>