<svg xmlns="http://www.w3.org/2000/svg"  viewBox="0 0 48 48" width="64px" height="64px" fill="#ec0000"><path d="M 12.5 6 C 9.4802259 6 7 8.4802259 7 11.5 L 7 14.5 C 7 16.070005 7.6740852 17.490503 8.7421875 18.496094 C 7.6728593 19.500057 7 20.920973 7 22.5 L 7 25.5 C 7 27.077 7.6703281 28.496 8.7363281 29.5 C 7.6703281 30.504 7 31.923 7 33.5 L 7 36.5 C 7 39.533 9.468 42 12.5 42 L 28.240234 42 C 27.667234 41.125 27.169109 40.128 26.787109 39 L 12.5 39 C 11.121 39 10 37.878 10 36.5 L 10 33.5 C 10 32.122 11.121 31 12.5 31 L 26 31 L 26 28 L 12.5 28 C 11.121 28 10 26.878 10 25.5 L 10 22.5 C 10 21.122 11.121 20 12.5 20 L 35.5 20 C 36.343 20 37.086062 20.4225 37.539062 21.0625 C 38.281062 21.1955 38.956344 21.582688 39.402344 22.179688 C 39.871344 22.804688 40.426953 23.286062 41.001953 23.664062 L 41.001953 22.5 C 41.001953 20.920501 40.329511 19.498151 39.259766 18.494141 C 40.326701 17.488656 41 16.069022 41 14.5 L 41 11.5 C 41 8.4802259 38.519774 6 35.5 6 L 12.5 6 z M 12.5 9 L 35.5 9 C 36.898226 9 38 10.101774 38 11.5 L 38 14.5 C 38 15.897563 36.899235 16.998956 35.501953 17 C 35.50129 17 35.500663 17 35.5 17 L 12.5 17 C 11.101774 17 10 15.898226 10 14.5 L 10 11.5 C 10 10.101774 11.101774 9 12.5 9 z M 37 23 C 36.69425 23 36.387719 23.126906 36.199219 23.378906 C 33.548219 26.912906 29.042 26.978516 29 26.978516 C 28.448 26.978516 28 27.426516 28 27.978516 L 28 34 C 28 43.669 36.670813 45.948703 36.757812 45.970703 C 36.837813 45.990703 36.918 46 37 46 C 37.082 46 37.162187 45.990703 37.242188 45.970703 C 37.329188 45.948703 46 43.669 46 34 L 46 27.978516 C 46 27.428516 45.553906 26.981516 45.003906 26.978516 C 44.958906 26.978516 40.451781 26.912906 37.800781 23.378906 C 37.612281 23.126906 37.30575 23 37 23 z"/></svg>