<svg xmlns="http://www.w3.org/2000/svg"  viewBox="0 0 48 48" width="64px" height="64px" fill="#ec0000"><path d="M 12.5 4 C 10.02 4 8 6.02 8 8.5 L 8 39.5 C 8 41.98 10.02 44 12.5 44 L 26.539062 44 C 26.189063 43.4 26 42.73 26 42 L 26 41 L 12.5 41 C 11.67 41 11 40.33 11 39.5 L 11 8.5 C 11 7.67 11.67 7 12.5 7 L 24 7 L 24 15.5 C 24 17.98 26.02 20 28.5 20 L 37 20 L 37 24 C 38.01 24 39.02 24.070938 40 24.210938 L 40 18.5 C 40 18.085 39.831797 17.710703 39.560547 17.439453 L 26.560547 4.4394531 C 26.289297 4.1682031 25.915 4 25.5 4 L 12.5 4 z M 27 9.1210938 L 34.878906 17 L 28.5 17 C 27.67 17 27 16.33 27 15.5 L 27 9.1210938 z M 17.5 25 C 16.67 25 16 25.67 16 26.5 C 16 27.33 16.67 28 17.5 28 L 26.539062 28 C 27.299062 26.67 28.830469 25.66 30.730469 25 L 17.5 25 z M 37 26 C 32.029 26 28 27.791 28 30 C 28 32.209 32.029 34 37 34 C 41.971 34 46 32.209 46 30 C 46 27.791 41.971 26 37 26 z M 17.5 32 C 16.671 32 16 32.672 16 33.5 C 16 34.328 16.671 35 17.5 35 L 26 35 L 26 32 L 17.5 32 z M 28 33 L 28 36 C 28 38.21 32.03 40 37 40 C 41.97 40 46 38.21 46 36 L 46 33 C 46 35.21 41.97 37 37 37 C 32.03 37 28 35.21 28 33 z M 28 39 L 28 42 C 28 44.21 32.03 46 37 46 C 41.97 46 46 44.21 46 42 L 46 39 C 46 41.21 41.97 43 37 43 C 32.03 43 28 41.21 28 39 z"/></svg>