<svg xmlns="http://www.w3.org/2000/svg"  viewBox="0 0 48 48" width="64px" height="64px" fill="#ec0000"><path d="M 23 4 C 17.754444 4 12.622885 5.9409508 8.9277344 10.419922 C 5.2325833 14.898893 3 21.770395 3 31.5 L 3 36.5 C 3 39.519774 5.4802259 42 8.5 42 L 17.880859 42 C 19.709774 43.253653 21.779113 44 24 44 A 1.50015 1.50015 0 1 0 24 41 C 22.393431 41 20.851679 40.453957 19.4375 39.449219 A 1.50015 1.50015 0 0 0 19.042969 39.160156 C 18.201403 38.498119 17.40764 37.673206 16.683594 36.681641 C 14.652825 33.900548 13.244769 29.913317 12.998047 25.417969 A 1.50015 1.50015 0 0 0 11.544922 23.978516 A 1.50015 1.50015 0 0 0 10.001953 25.582031 C 10.277231 30.597683 11.821988 35.110015 14.261719 38.451172 C 14.401629 38.642776 14.556788 38.816054 14.703125 39 L 8.5 39 C 7.1017741 39 6 37.898226 6 36.5 L 6 31.5 C 6 22.229605 8.131088 16.101107 11.242188 12.330078 C 14.353286 8.5590492 18.470556 7 23 7 C 25.25 7 26.727654 7.5500853 27.646484 8.0605469 C 28.565315 8.5710084 28.828125 8.9375 28.828125 8.9375 A 1.50015 1.50015 0 0 0 30 9.5 C 32.201383 9.5 36.95975 11.137823 39.789062 18.066406 A 1.50015 1.50015 0 1 0 42.566406 16.933594 C 39.507128 9.4418556 34.227288 6.8388637 30.582031 6.5996094 C 30.28995 6.2987951 30.055057 5.9680872 29.103516 5.4394531 C 27.772346 4.6999147 25.75 4 23 4 z M 28.537109 14 A 1.50015 1.50015 0 0 0 27.503906 14.378906 C 25.645652 16.030688 22.366199 17.043927 19.560547 17.521484 C 16.754894 17.999042 14.5 18 14.5 18 A 1.50015 1.50015 0 1 0 14.5 21 C 14.5 21 16.995106 21.000958 20.064453 20.478516 C 22.887905 19.997928 26.225694 19.072175 28.804688 17.107422 C 29.332223 17.216038 30.364164 17.477047 31.650391 18.361328 C 33.335637 19.519935 35 21.444444 35 25.5 L 35 30.5 C 35 33.003499 33.003499 35 30.5 35 L 28.660156 35 A 3.5 3.5 0 0 0 25.5 33 A 3.5 3.5 0 1 0 25.5 40 A 3.5 3.5 0 0 0 28.658203 38 L 30.5 38 C 34.455727 38 37.713881 34.892719 37.974609 31 L 38 31 C 40.209 31 42 29.209 42 27 L 42 25 C 42 22.791 40.209 21 38 21 L 37.234375 21 C 36.359776 18.60127 34.85598 16.924302 33.349609 15.888672 C 31.034856 14.297279 28.685547 14.011719 28.685547 14.011719 A 1.50015 1.50015 0 0 0 28.537109 14 z M 19 25 A 2 2 0 0 0 19 29 A 2 2 0 0 0 19 25 z M 29 25 A 2 2 0 0 0 29 29 A 2 2 0 0 0 29 25 z M 43.476562 30.978516 A 1.50015 1.50015 0 0 0 42 32.5 L 42 36.5 C 42 37.898226 40.898226 39 39.5 39 L 36 39 A 1.50015 1.50015 0 1 0 36 42 L 39.5 42 C 42.519774 42 45 39.519774 45 36.5 L 45 32.5 A 1.50015 1.50015 0 0 0 43.476562 30.978516 z"/></svg>