<svg xmlns="http://www.w3.org/2000/svg"  viewBox="0 0 48 48" width="64px" height="64px"><path d="M 15.480469 5 A 1.50015 1.50015 0 0 0 15.402344 5.0058594 A 1.50015 1.50015 0 0 0 15.330078 5.0097656 A 1.50015 1.50015 0 0 0 15.273438 5.0195312 A 1.50015 1.50015 0 0 0 15.189453 5.03125 A 1.50015 1.50015 0 0 0 15.123047 5.0488281 A 1.50015 1.50015 0 0 0 15.050781 5.0683594 A 1.50015 1.50015 0 0 0 14.960938 5.1015625 A 1.50015 1.50015 0 0 0 14.90625 5.125 A 1.50015 1.50015 0 0 0 14.857422 5.1464844 A 1.50015 1.50015 0 0 0 14.771484 5.1894531 A 1.50015 1.50015 0 0 0 14.728516 5.2167969 A 1.50015 1.50015 0 0 0 14.638672 5.2714844 A 1.50015 1.50015 0 0 0 14.636719 5.2734375 A 1.50015 1.50015 0 0 0 14.611328 5.2929688 A 1.50015 1.50015 0 0 0 14.525391 5.359375 A 1.50015 1.50015 0 0 0 14.464844 5.4179688 A 1.50015 1.50015 0 0 0 14.419922 5.4589844 A 1.50015 1.50015 0 0 0 14.367188 5.5214844 A 1.50015 1.50015 0 0 0 14.316406 5.5800781 A 1.50015 1.50015 0 0 0 14.273438 5.640625 A 1.50015 1.50015 0 0 0 14.236328 5.6933594 A 1.50015 1.50015 0 0 0 14.128906 5.8984375 A 1.50015 1.50015 0 0 0 14.054688 6.0996094 A 1.50015 1.50015 0 0 0 14.035156 6.1875 A 1.50015 1.50015 0 0 0 14.003906 6.3984375 A 1.50015 1.50015 0 0 0 14 6.5 L 14 14 L 10.5 14 C 8.0324991 14 6 16.032499 6 18.5 L 6 38.5 C 6 40.967501 8.0324991 43 10.5 43 L 32.5 43 A 1.50015 1.50015 0 0 0 34 41.5 L 34 34 L 37.5 34 C 39.967501 34 42 31.967501 42 29.5 L 42 9.5 C 42 7.0324991 39.967501 5 37.5 5 L 15.5 5 A 1.50015 1.50015 0 0 0 15.480469 5 z M 21.539062 8 L 37.5 8 C 38.346499 8 39 8.6535009 39 9.5 L 39 29.5 C 39 30.346499 38.346499 31 37.5 31 L 34 31 L 34 15.5 A 1.50015 1.50015 0 0 0 33.199219 14.175781 L 33.201172 14.173828 L 21.539062 8 z M 17 8.9921875 L 26.460938 14 L 17 14 L 17 8.9921875 z M 10.5 17 L 31 17 L 31 40 L 10.5 40 C 9.6535009 40 9 39.346499 9 38.5 L 9 18.5 C 9 17.653501 9.6535009 17 10.5 17 z M 13.5 21 A 1.50015 1.50015 0 0 0 12 22.5 L 12 28.5 A 1.50015 1.50015 0 0 0 13.5 30 L 26.5 30 A 1.50015 1.50015 0 0 0 28 28.5 L 28 22.5 A 1.50015 1.50015 0 0 0 26.5 21 L 13.5 21 z M 15 24 L 25 24 L 25 27 L 15 27 L 15 24 z M 13.5 33 A 1.50015 1.50015 0 1 0 13.5 36 L 26.5 36 A 1.50015 1.50015 0 1 0 26.5 33 L 13.5 33 z"/></svg>