<svg xmlns="http://www.w3.org/2000/svg"  viewBox="0 0 48 48" width="64px" height="64px"><path d="M 11.359375 4.046875 C 9.0795744 4.1547914 7 6.0229048 7 8.5273438 L 7 39.472656 C 7 42.811908 10.698497 45.018881 13.636719 43.433594 L 42.644531 27.785156 C 45.583356 26.199599 45.583356 21.802354 42.644531 20.216797 L 13.636719 4.5664062 C 12.902122 4.1696946 12.119309 4.0109029 11.359375 4.046875 z M 12.054688 7.2070312 C 12.110038 7.2300283 12.155926 7.1773232 12.210938 7.2070312 L 31.367188 17.541016 L 26.953125 21.892578 L 12.054688 7.2070312 z M 10 9.3964844 L 24.814453 24 L 10 38.603516 L 10 9.3964844 z M 34.130859 19.03125 L 41.220703 22.855469 C 42.203878 23.385912 42.203878 24.614088 41.220703 25.144531 L 34.130859 28.96875 L 29.089844 24 L 34.130859 19.03125 z M 26.953125 26.107422 L 31.367188 30.458984 L 12.210938 40.792969 C 12.155917 40.822659 12.110051 40.769989 12.054688 40.792969 L 26.953125 26.107422 z"/></svg>