<svg xmlns="http://www.w3.org/2000/svg"  viewBox="0 0 48 48" width="64px" height="64px"><path d="M 14.5 6 A 1.50015 1.50015 0 0 0 13 7.5 L 13 25 L 7.5 25 A 1.50015 1.50015 0 0 0 6 26.5 L 6 42.5 A 1.50015 1.50015 0 1 0 9 42.5 L 9 28 L 14.253906 28 A 1.50015 1.50015 0 0 0 14.740234 28 L 19 28 L 19 42.5 A 1.50015 1.50015 0 1 0 22 42.5 L 22 26.746094 A 1.50015 1.50015 0 0 0 22 26.259766 L 22 22 L 33.253906 22 A 1.50015 1.50015 0 0 0 33.740234 22 L 39 22 L 39 42.5 A 1.50015 1.50015 0 1 0 42 42.5 L 42 20.5 A 1.50015 1.50015 0 0 0 40.5 19 L 35 19 L 35 7.5 A 1.50015 1.50015 0 0 0 33.5 6 L 14.5 6 z M 16 9 L 32 9 L 32 19 L 20.5 19 A 1.50015 1.50015 0 0 0 19 20.5 L 19 25 L 16 25 L 16 9 z M 20 12 C 19.448 12 19 12.448 19 13 L 19 15 C 19 15.552 19.448 16 20 16 L 22 16 C 22.552 16 23 15.552 23 15 L 23 13 C 23 12.448 22.552 12 22 12 L 20 12 z M 26 12 C 25.448 12 25 12.448 25 13 L 25 15 C 25 15.552 25.448 16 26 16 L 28 16 C 28.552 16 29 15.552 29 15 L 29 13 C 29 12.448 28.552 12 28 12 L 26 12 z M 26 25 C 25.448 25 25 25.448 25 26 L 25 28 C 25 28.552 25.448 29 26 29 L 28 29 C 28.552 29 29 28.552 29 28 L 29 26 C 29 25.448 28.552 25 28 25 L 26 25 z M 33 25 C 32.448 25 32 25.448 32 26 L 32 28 C 32 28.552 32.448 29 33 29 L 35 29 C 35.552 29 36 28.552 36 28 L 36 26 C 36 25.448 35.552 25 35 25 L 33 25 z M 13 31 C 12.448 31 12 31.448 12 32 L 12 34 C 12 34.552 12.448 35 13 35 L 15 35 C 15.552 35 16 34.552 16 34 L 16 32 C 16 31.448 15.552 31 15 31 L 13 31 z M 26 31 C 25.448 31 25 31.448 25 32 L 25 34 C 25 34.552 25.448 35 26 35 L 28 35 C 28.552 35 29 34.552 29 34 L 29 32 C 29 31.448 28.552 31 28 31 L 26 31 z M 33 31 C 32.448 31 32 31.448 32 32 L 32 34 C 32 34.552 32.448 35 33 35 L 35 35 C 35.552 35 36 34.552 36 34 L 36 32 C 36 31.448 35.552 31 35 31 L 33 31 z M 13 37 C 12.448 37 12 37.448 12 38 L 12 40 C 12 40.552 12.448 41 13 41 L 15 41 C 15.552 41 16 40.552 16 40 L 16 38 C 16 37.448 15.552 37 15 37 L 13 37 z M 26 37 C 25.448 37 25 37.448 25 38 L 25 40 C 25 40.552 25.448 41 26 41 L 28 41 C 28.552 41 29 40.552 29 40 L 29 38 C 29 37.448 28.552 37 28 37 L 26 37 z M 33 37 C 32.448 37 32 37.448 32 38 L 32 40 C 32 40.552 32.448 41 33 41 L 35 41 C 35.552 41 36 40.552 36 40 L 36 38 C 36 37.448 35.552 37 35 37 L 33 37 z"/></svg>