<svg xmlns="http://www.w3.org/2000/svg"  viewBox="0 0 48 48" width="64px" height="64px"><path d="M 6.2949219 5 C 3.9270877 5 2 6.9749816 2 9.3417969 L 2 39.658203 C 2 42.025018 3.9270877 44 6.2949219 44 L 41.703125 44 C 44.071426 44 46 42.025018 46 39.658203 L 46 9.3417969 C 46 6.9743446 44.070959 5 41.703125 5 L 6.2949219 5 z M 6.2949219 8 L 41.703125 8 C 42.423291 8 43 8.5692491 43 9.3417969 L 43 39.658203 C 43 40.431388 42.424824 41 41.703125 41 L 6.2949219 41 C 5.5747561 41 5 40.431388 5 39.658203 L 5 9.3417969 C 5 8.5686122 5.5747561 8 6.2949219 8 z M 8.5 10 A 1.50015 1.50015 0 0 0 7 11.5 L 7 37.5 A 1.50015 1.50015 0 0 0 8.5 39 L 39.5 39 A 1.50015 1.50015 0 0 0 41 37.5 L 41 11.5 A 1.50015 1.50015 0 0 0 39.5 10 L 8.5 10 z M 10 13 L 38 13 L 38 36 L 33.5 36 A 1.50015 1.50015 0 1 0 33.5 33 L 26.5 33 A 1.50015 1.50015 0 1 0 26.5 36 L 10 36 L 10 13 z M 24 17 A 3 3 0 0 0 24 23 A 3 3 0 0 0 24 17 z M 15 21 A 2 2 0 0 0 15 25 A 2 2 0 0 0 15 21 z M 33 21 A 2 2 0 0 0 33 25 A 2 2 0 0 0 33 21 z M 24 24.5 C 21.789 24.5 19.971063 26.046844 19.289062 26.714844 C 19.111062 26.898844 19.011719 27.144391 19.011719 27.400391 C 18.999719 27.802391 19 28.452 19 29 C 19 29.552 19.448 30 20 30 L 28 30 C 28.552 30 29 29.552 29 29 L 29 27.400391 C 29 27.140391 28.89975 26.892078 28.71875 26.705078 C 28.02775 26.046078 26.211 24.5 24 24.5 z M 15 26 C 13.338 26 11.954078 26.992906 11.330078 27.503906 C 11.120078 27.693906 11 27.963094 11 28.246094 L 11 29 C 11 29.265 11.105969 29.519031 11.292969 29.707031 C 11.479969 29.895031 11.735 30 12 30 L 16 30 C 16.265 30 16.519031 29.894031 16.707031 29.707031 C 16.895031 29.520031 17 29.265 17 29 C 17 28.407 16.999234 27.672297 16.990234 27.154297 C 16.990234 26.731297 16.722266 26.354797 16.322266 26.216797 C 15.944266 26.089797 15.513 26 15 26 z M 33 26 C 32.527 26 32.12525 26.043281 31.78125 26.113281 C 31.32925 26.215281 31.007812 26.618031 31.007812 27.082031 C 30.999813 27.633031 31 28.394 31 29 C 31 29.265 31.104969 29.520031 31.292969 29.707031 C 31.480969 29.894031 31.735 30 32 30 L 36 30 C 36.265 30 36.520031 29.895031 36.707031 29.707031 C 36.894031 29.519031 37 29.265 37 29 L 37 28.234375 C 37 27.959375 36.8865 27.696813 36.6875 27.507812 C 36.0835 26.997812 34.728 26 33 26 z"/></svg>