<svg xmlns="http://www.w3.org/2000/svg"  viewBox="0 0 48 48" width="64px" height="64px"><path d="M 21.763672 5.0097656 C 20.286175 5.0097656 18.807766 5.5689336 17.689453 6.6875 C 15.450607 8.9250019 15.450607 12.600389 17.689453 14.837891 A 1.50015 1.50015 0 0 0 17.689453 14.839844 L 25.441406 22.5625 A 1.50015 1.50015 0 0 0 27.558594 22.5625 L 35.310547 14.839844 A 1.50015 1.50015 0 0 0 35.310547 14.837891 C 37.548729 12.601052 37.549308 8.9271436 35.3125 6.6894531 C 33.075401 4.4496639 29.399208 4.4496639 27.162109 6.6894531 L 26.5 7.2988281 L 25.837891 6.6894531 C 24.719341 5.5695585 23.242046 5.0097656 21.763672 5.0097656 z M 31.238281 7.9902344 C 31.94213 7.9902344 32.645003 8.2634884 33.189453 8.8085938 A 1.50015 1.50015 0 0 0 33.191406 8.8105469 C 34.282096 9.9005811 34.281168 11.62427 33.191406 12.714844 L 26.5 19.380859 L 19.808594 12.716797 L 19.808594 12.714844 C 18.718832 11.62427 18.717904 9.9005811 19.808594 8.8105469 A 1.50015 1.50015 0 0 0 19.810547 8.8085938 C 20.354997 8.2634883 21.059546 7.9921875 21.763672 7.9921875 C 22.467798 7.9921875 23.170393 8.2634883 23.714844 8.8085938 A 1.50015 1.50015 0 0 0 23.757812 8.8496094 L 25.482422 10.443359 A 1.50015 1.50015 0 0 0 27.517578 10.443359 L 29.242188 8.8496094 A 1.50015 1.50015 0 0 0 29.285156 8.8085938 C 29.829607 8.2634883 30.534432 7.9902344 31.238281 7.9902344 z M 41.613281 22.019531 C 40.493082 22.029231 39.429184 22.473279 38.484375 23.175781 C 37.470126 23.929243 34.418425 26.208042 31.777344 28.179688 C 31.204622 26.351508 29.505924 25 27.5 25 L 23.107422 25 C 20.296203 25 18.985532 24.772226 17.859375 24.533203 C 16.733218 24.29418 15.646783 24 13.826172 24 C 9.9413941 24 7.0123317 26.492986 5.09375 28.791016 C 3.1751683 31.089045 2.1347656 33.384766 2.1347656 33.384766 A 1.5002787 1.5002787 0 1 0 4.8652344 34.628906 C 4.8652344 34.628906 5.7643161 32.669814 7.3964844 30.714844 C 9.0286527 28.759873 11.25995 27 13.826172 27 C 15.347561 27 16.006735 27.20582 17.236328 27.466797 C 18.465921 27.727774 20.123641 28 23.107422 28 L 27.5 28 C 28.346499 28 29 28.653501 29 29.5 C 29 29.969499 28.794195 30.374296 28.470703 30.646484 C 28.470416 30.646699 28.429688 30.677734 28.429688 30.677734 A 1.5001988 1.5001988 0 0 0 28.345703 30.748047 A 1.5001988 1.5001988 0 0 0 28.34375 30.75 C 28.105295 30.908613 27.816466 31 27.5 31 L 20.5 31 A 1.50015 1.50015 0 1 0 20.5 34 L 27.5 34 C 28.440637 34 29.315307 33.701451 30.041016 33.199219 C 30.042186 33.198409 30.043753 33.198076 30.044922 33.197266 A 1.5001988 1.5001988 0 0 0 30.224609 33.082031 C 30.224609 33.082031 38.775959 26.696426 40.273438 25.583984 A 1.50015 1.50015 0 0 0 40.273438 25.582031 C 40.837627 25.162534 41.309824 25.022381 41.640625 25.019531 C 41.971426 25.016631 42.218287 25.096901 42.560547 25.439453 C 43.150922 26.029324 43.147391 26.935102 42.572266 27.533203 C 37.217133 32.036197 33.848465 35.036886 31.623047 36.794922 C 29.369881 38.574924 28.424996 39 27.5 39 C 23.847885 39 19.80067 38 15.5 38 C 13 38 11.242781 39.343609 10.300781 40.599609 C 9.3587815 41.855609 9.0449219 43.136719 9.0449219 43.136719 A 1.50015 1.50015 0 1 0 11.955078 43.863281 C 11.955078 43.863281 12.141219 43.144391 12.699219 42.400391 C 13.257219 41.656391 14 41 15.5 41 C 19.30733 41 23.336115 42 27.5 42 C 29.402004 42 31.084837 41.044435 33.482422 39.150391 C 35.849764 37.280238 39.175413 34.30991 44.498047 29.833984 A 1.50015 1.50015 0 0 0 44.681641 29.681641 C 44.688541 29.674741 44.690436 29.665143 44.697266 29.658203 L 44.701172 29.662109 L 44.753906 29.607422 A 1.50015 1.50015 0 0 0 45.083984 29.074219 C 46.330485 27.321792 46.248887 24.884269 44.681641 23.318359 C 43.8529 22.488911 42.73348 22.009881 41.613281 22.019531 z"/></svg>