<svg xmlns="http://www.w3.org/2000/svg"  viewBox="0 0 48 48" width="64px" height="64px"><path d="M 15 5.125 C 12.808718 5.125 11 6.9337176 11 9.125 L 11 15.076172 C 7.0650206 15.57445 3.4184738 17.512551 0.81835938 20.53125 C -0.10766906 21.605634 0.04132719 23.335688 1.2148438 24.199219 L 3.2832031 25.722656 C 2.4251399 27.293448 1.9375 29.092382 1.9375 31.001953 C 1.9375 37.094631 6.9085474 42.0625 13 42.0625 C 15.053541 42.0625 16.973689 41.488043 18.625 40.505859 L 20.230469 42.527344 A 1.50015 1.50015 0 0 0 20.232422 42.529297 C 21.13568 43.663278 22.862181 43.75735 23.904297 42.796875 C 25.395668 41.421375 26.577639 39.787002 27.443359 38 L 41.0625 38 C 44.910902 38 48.0625 34.848402 48.0625 31 C 48.0625 27.151598 44.910902 24 41.0625 24 L 27.429688 24 C 25.692264 20.441271 22.687908 17.611437 19 16.115234 L 19 9.125 C 19 6.9337176 17.191282 5.125 15 5.125 z M 15 8.125 C 15.570718 8.125 16 8.5542824 16 9.125 L 16 15.230469 C 15.34652 15.10587 14.678413 15.030537 14 14.988281 L 14 9.125 C 14 8.5542824 14.429282 8.125 15 8.125 z M 13 17.9375 C 20.21655 17.9375 26.0625 23.784426 26.0625 31.001953 C 26.0625 34.512432 24.658607 37.761115 22.214844 40.201172 L 20.978516 38.644531 C 21.355571 38.250702 21.699465 37.827171 22.015625 37.380859 C 22.075189 37.297026 22.138044 37.216388 22.195312 37.130859 C 22.324637 36.937122 22.443353 36.737239 22.560547 36.535156 C 22.642082 36.395082 22.723355 36.255185 22.798828 36.111328 C 22.890898 35.935149 22.975875 35.755776 23.058594 35.574219 C 23.142033 35.391856 23.219328 35.206994 23.292969 35.019531 C 23.357709 34.854042 23.421619 34.688739 23.478516 34.519531 C 23.550228 34.307187 23.611016 34.09087 23.669922 33.873047 C 23.712975 33.713165 23.758946 33.555178 23.794922 33.392578 C 23.854955 33.122455 23.897729 32.847354 23.9375 32.570312 C 23.953677 32.457167 23.977519 32.34661 23.990234 32.232422 C 24.035519 31.827406 24.0625 31.416755 24.0625 31 C 24.0625 29.477089 23.752708 28.023827 23.191406 26.701172 C 22.910799 26.03982 22.566317 25.41096 22.167969 24.822266 C 21.769349 24.233171 21.315907 23.68488 20.814453 23.183594 C 20.313689 22.68292 19.766052 22.23016 19.177734 21.832031 C 19.177275 21.831721 19.176241 21.832342 19.175781 21.832031 C 18.881836 21.633172 18.578611 21.445845 18.265625 21.275391 C 18.265111 21.275111 18.264185 21.27567 18.263672 21.275391 C 17.950682 21.104995 17.628981 20.948715 17.298828 20.808594 C 17.298268 20.808356 17.297435 20.808831 17.296875 20.808594 C 16.966714 20.668532 16.628652 20.543465 16.283203 20.435547 C 16.282605 20.43536 16.281848 20.435734 16.28125 20.435547 C 15.935789 20.327689 15.583484 20.235952 15.224609 20.162109 C 15.223983 20.161981 15.223282 20.162238 15.222656 20.162109 C 14.863765 20.088328 14.499337 20.032034 14.128906 19.994141 C 14.128266 19.994075 14.127593 19.994206 14.126953 19.994141 C 13.755858 19.956246 13.378839 19.9375 12.998047 19.9375 C 12.994755 19.9375 12.991572 19.937497 12.988281 19.9375 C 12.566817 19.937945 12.151617 19.966905 11.742188 20.013672 C 11.615617 20.028052 11.492463 20.051682 11.367188 20.070312 C 11.087831 20.112067 10.811299 20.160284 10.539062 20.222656 C 10.383556 20.258103 10.23111 20.299863 10.078125 20.341797 C 9.8423548 20.406733 9.6101316 20.478656 9.3808594 20.558594 C 9.2203928 20.614271 9.0613537 20.671613 8.9042969 20.734375 C 8.7040108 20.814775 8.5088146 20.904491 8.3144531 20.996094 C 8.1358181 21.07992 7.9565064 21.160973 7.7832031 21.253906 C 7.6434663 21.329126 7.5110856 21.41512 7.375 21.496094 C 6.8825769 21.788044 6.4101609 22.108523 5.9707031 22.470703 C 5.7533777 22.649812 5.5486155 22.842232 5.3457031 23.037109 C 5.2706276 23.109306 5.1941228 23.179644 5.1210938 23.253906 C 5.1026899 23.272602 5.082724 23.289768 5.0644531 23.308594 L 3.4707031 22.134766 C 5.9239307 19.508883 9.3756279 17.9375 13 17.9375 z M 12.988281 22.9375 C 12.991575 22.937496 12.994752 22.9375 12.998047 22.9375 C 13.277504 22.9375 13.554238 22.951115 13.826172 22.978516 C 13.826812 22.97858 13.827485 22.978451 13.828125 22.978516 C 14.099393 23.005915 14.366448 23.04626 14.628906 23.099609 C 14.629532 23.099736 14.630234 23.099482 14.630859 23.099609 C 14.893298 23.15302 15.150033 23.220786 15.402344 23.298828 C 15.402943 23.299013 15.403698 23.298643 15.404297 23.298828 C 15.656593 23.37693 15.903684 23.466943 16.144531 23.568359 C 16.145092 23.568596 16.145923 23.568123 16.146484 23.568359 C 16.387322 23.669835 16.621542 23.782775 16.849609 23.90625 C 16.850124 23.906529 16.851048 23.905971 16.851562 23.90625 C 17.308179 24.153583 17.737286 24.445832 18.134766 24.773438 C 18.135167 24.773768 18.136318 24.773107 18.136719 24.773438 C 18.733115 25.265173 19.256025 25.841642 19.689453 26.484375 C 19.978586 26.913131 20.22828 27.370812 20.431641 27.853516 C 20.533321 28.094867 20.622923 28.342852 20.701172 28.595703 C 20.857669 29.101405 20.966667 29.628128 21.021484 30.171875 C 21.048893 30.443749 21.0625 30.720603 21.0625 31 C 21.0625 31.304635 21.042412 31.604968 21.009766 31.900391 C 21.000922 31.980846 20.985779 32.058966 20.974609 32.138672 C 20.944234 32.354177 20.910284 32.567855 20.863281 32.777344 C 20.8431 32.867833 20.816142 32.955633 20.792969 33.044922 C 20.74244 33.238417 20.687293 33.429772 20.623047 33.617188 C 20.594617 33.700615 20.564254 33.783085 20.533203 33.865234 C 20.454212 34.072956 20.368718 34.277576 20.273438 34.476562 C 20.249875 34.526039 20.227659 34.576094 20.203125 34.625 C 20.083254 34.862689 19.952593 35.094947 19.810547 35.318359 C 19.804458 35.327936 19.799097 35.338107 19.792969 35.347656 C 19.790446 35.351604 19.787686 35.355432 19.785156 35.359375 C 19.337901 36.053613 18.781864 36.66811 18.148438 37.195312 A 1.50015 1.50015 0 0 0 17.828125 37.457031 C 16.483509 38.461623 14.817068 39.0625 13 39.0625 C 8.5294526 39.0625 4.9375 35.473275 4.9375 31.001953 C 4.9375 29.328336 5.4424351 27.779317 6.3066406 26.494141 A 1.50015 1.50015 0 0 0 6.6679688 26.025391 C 6.796961 25.861404 6.9254763 25.696316 7.0664062 25.542969 C 7.0816991 25.526335 7.0958969 25.508691 7.1113281 25.492188 C 7.3159186 25.273264 7.5303491 25.066049 7.7578125 24.871094 C 8.2199187 24.47503 8.729419 24.131643 9.2734375 23.847656 C 9.3066814 23.830385 9.3414834 23.815648 9.375 23.798828 C 9.5941172 23.688344 9.818671 23.588503 10.048828 23.498047 C 10.136461 23.463765 10.225334 23.431672 10.314453 23.400391 C 10.496626 23.336161 10.683055 23.27975 10.871094 23.228516 C 10.981814 23.198493 11.092482 23.169927 11.205078 23.144531 C 11.389451 23.102752 11.576535 23.069945 11.765625 23.041016 C 11.873011 23.02465 11.97912 23.00431 12.087891 22.992188 C 12.383391 22.959174 12.683532 22.937862 12.988281 22.9375 z M 28.535156 27 L 41.0625 27 C 43.290098 27 45.0625 28.772402 45.0625 31 C 45.0625 33.227598 43.290098 35 41.0625 35 L 28.539062 35 C 28.870061 33.707102 29.0625 32.369948 29.0625 31.001953 C 29.0625 29.618931 28.866805 28.282183 28.535156 27 z M 13 29.03125 C 11.913 29.03125 11.03125 29.912 11.03125 31 C 11.03125 32.088 11.912 32.96875 13 32.96875 C 14.088 32.96875 14.96875 32.088 14.96875 31 C 14.96875 29.912 14.087 29.03125 13 29.03125 z"/></svg>