<svg xmlns="http://www.w3.org/2000/svg"  viewBox="0 0 48 48" width="64px" height="64px"><path d="M 13.5 6 C 11.032499 6 9 8.0324991 9 10.5 L 9 16 L 7.5 16 C 5.0324991 16 3 18.032499 3 20.5 L 3 35.5 C 3 39.071938 5.9280619 42 9.5 42 L 38.5 42 C 42.071938 42 45 39.071938 45 35.5 L 45 10.5 C 45 8.0324991 42.967501 6 40.5 6 L 13.5 6 z M 13.5 9 L 40.5 9 C 41.346499 9 42 9.6535009 42 10.5 L 42 35.5 C 42 37.450062 40.450062 39 38.5 39 L 9.5 39 C 7.5499381 39 6 37.450062 6 35.5 L 6 20.5 C 6 19.653501 6.6535009 19 7.5 19 L 9 19 L 9 34.5 A 1.50015 1.50015 0 1 0 12 34.5 L 12 17.746094 A 1.50015 1.50015 0 0 0 12 17.259766 L 12 10.5 C 12 9.6535009 12.653501 9 13.5 9 z M 16.5 15 A 1.50015 1.50015 0 1 0 16.5 18 L 37.5 18 A 1.50015 1.50015 0 1 0 37.5 15 L 16.5 15 z M 16.5 23 A 1.50015 1.50015 0 1 0 16.5 26 L 24.5 26 A 1.50015 1.50015 0 1 0 24.5 23 L 16.5 23 z M 30.5 23 A 1.50015 1.50015 0 1 0 30.5 26 L 37.5 26 A 1.50015 1.50015 0 1 0 37.5 23 L 30.5 23 z M 16.5 30 A 1.50015 1.50015 0 1 0 16.5 33 L 24.5 33 A 1.50015 1.50015 0 1 0 24.5 30 L 16.5 30 z M 30.5 30 A 1.50015 1.50015 0 1 0 30.5 33 L 37.5 33 A 1.50015 1.50015 0 1 0 37.5 30 L 30.5 30 z"/></svg>