<svg xmlns="http://www.w3.org/2000/svg"  viewBox="0 0 48 48" width="64px" height="64px"><path d="M 33.998047 2 A 3.5 2.5 0 0 0 33.294922 2.0527344 C 27.023058 2.4259375 22.013672 7.646326 22.013672 14.007812 C 22.013672 20.610763 27.404864 26 34.007812 26 C 40.610762 26 45.998047 20.610589 45.998047 14.007812 C 45.998047 7.6286749 40.964239 2.3957397 34.667969 2.0488281 A 3.5 2.5 0 0 0 33.998047 2 z M 37.148438 5.5878906 C 38.587535 6.1228945 39.849872 7.0098742 40.830078 8.1523438 C 39.58602 8.6851198 39.131174 10.521398 39.824219 12.294922 C 40.444491 13.882219 41.773985 14.885759 42.960938 14.755859 C 42.849811 16.11315 42.440593 17.380447 41.796875 18.498047 C 40.889209 17.773627 39.283701 17.836669 37.898438 18.742188 C 36.307095 19.782416 35.610882 21.537009 36.308594 22.693359 C 35.573294 22.886724 34.805271 23 34.007812 23 C 33.418022 23 32.842824 22.939587 32.285156 22.832031 C 32.305075 22.800855 32.333437 22.776767 32.351562 22.744141 C 33.021563 21.537141 32.194859 19.797375 30.505859 18.859375 C 29.007731 18.027377 27.336281 18.108599 26.509766 18.978516 C 25.673552 17.71766 25.153939 16.231903 25.044922 14.628906 C 25.054789 14.632959 25.062301 14.640641 25.072266 14.644531 C 26.357266 15.146531 27.970828 14.093922 28.673828 12.294922 C 29.376828 10.495922 28.904141 8.627 27.619141 8.125 C 27.509634 8.0822534 27.394748 8.0656169 27.28125 8.0449219 C 28.245153 6.9581058 29.465406 6.1100699 30.853516 5.5917969 A 3.5 2.5 0 0 0 33.998047 7 A 3.5 2.5 0 0 0 37.148438 5.5878906 z M 10.498047 6 C 10.295047 6 10.096437 6.0122031 9.8984375 6.0332031 C 10.882437 8.0272031 12.862797 9.9037344 15.591797 9.4277344 C 14.771797 7.4187344 12.801047 6 10.498047 6 z M 7.9921875 6.609375 C 6.2161875 7.522375 4.9980469 9.368 4.9980469 11.5 C 4.9980469 11.669 5.0084375 11.835953 5.0234375 12.001953 C 8.7534375 11.745953 11.823563 13.462297 12.976562 16.404297 C 14.767563 15.497297 15.998047 13.644 15.998047 11.5 C 15.998047 11.462 15.993187 11.424719 15.992188 11.386719 C 15.583187 11.461719 15.175437 11.505859 14.773438 11.505859 C 11.998437 11.505859 9.4471563 9.76025 8.0351562 6.78125 C 8.0081563 6.72525 8.0071875 6.667375 7.9921875 6.609375 z M 34.248047 10.5 A 3.5 3.5 0 1 0 34.248047 17.5 A 3.5 3.5 0 1 0 34.248047 10.5 z M 5.5976562 13.984375 C 6.5066562 15.772375 8.3570469 17 10.498047 17 C 10.682047 17 10.863969 16.990656 11.042969 16.972656 C 10.069969 14.726656 7.7196563 13.948375 5.5976562 13.984375 z M 13.214844 19.408203 C 12.362516 19.431404 11.529085 19.525674 10.724609 19.689453 C 7.5067068 20.344569 4.6981332 22.175304 3.3222656 25.076172 C 1.9469326 27.97718 2.3065441 31.31064 3.8359375 34.216797 C 5.3653309 37.122954 8.0522528 39.684861 11.542969 41.339844 C 15.034072 42.995295 18.719397 43.455909 21.9375 42.800781 C 22.339763 42.71889 22.735584 42.618464 23.123047 42.5 A 1.50015 1.50015 0 0 0 23.392578 42.447266 C 27.177019 41.418071 33.352608 41.050924 37.529297 42.527344 C 37.737783 42.954443 38.084261 43.31651 38.552734 43.523438 L 44.089844 45.974609 C 45.143844 46.441609 46.378703 45.964156 46.845703 44.910156 C 47.312703 43.855156 46.833297 42.620297 45.779297 42.154297 L 40.242188 39.703125 C 39.779656 39.498189 39.286029 39.485433 38.833984 39.613281 C 35.06128 37.541048 31.231469 32.629172 29.300781 29.255859 A 1.50015 1.50015 0 0 0 29.240234 29.158203 C 29.111171 28.859687 28.979237 28.562299 28.826172 28.271484 C 27.296626 25.365446 24.60826 22.803875 21.117188 21.148438 C 19.371868 20.320964 17.578283 19.792466 15.818359 19.552734 C 14.938398 19.432869 14.067172 19.385002 13.214844 19.408203 z M 13.292969 22.410156 C 13.846779 22.39586 14.419705 22.429089 15 22.490234 A 1.5 1.5 0 0 0 16.498047 24 A 1.5 1.5 0 0 0 17.873047 23.09375 C 18.527288 23.301247 19.18283 23.549629 19.832031 23.857422 C 19.920805 23.899518 20.00241 23.948716 20.089844 23.992188 A 1.5 1.5 0 0 0 21.498047 26 A 1.5 1.5 0 0 0 22.578125 25.539062 C 23.931747 26.574505 25.022583 27.774613 25.798828 29.03125 A 1.5 1.5 0 0 0 25.498047 29 A 1.5 1.5 0 0 0 25.498047 32 A 1.5 1.5 0 0 0 26.818359 31.210938 C 27.378342 32.946389 27.333013 34.641771 26.628906 36.126953 C 26.069693 37.306237 25.145004 38.248038 23.939453 38.919922 A 1.5 1.5 0 0 0 22.498047 37 A 1.5 1.5 0 0 0 21.701172 39.767578 C 21.579864 39.796806 21.464288 39.834041 21.339844 39.859375 C 20.284945 40.074127 19.124917 40.127295 17.919922 40.023438 A 1.5 1.5 0 0 0 16.498047 39 A 1.5 1.5 0 0 0 15.335938 39.554688 C 14.552024 39.338196 13.764884 39.055098 12.984375 38.695312 A 1.5 1.5 0 0 0 11.498047 37 A 1.5 1.5 0 0 0 10.582031 37.316406 C 9.1896112 36.340565 8.0502136 35.188394 7.203125 33.96875 A 1.5 1.5 0 0 0 7.4980469 34 A 1.5 1.5 0 0 0 7.4980469 31 A 1.5 1.5 0 0 0 6.0957031 31.976562 C 5.2748948 29.999511 5.2346472 28.045733 6.0332031 26.361328 C 6.9453355 24.438196 8.8214182 23.13804 11.322266 22.628906 C 11.947477 22.501623 12.607738 22.427846 13.292969 22.410156 z M 10.498047 23 A 1.5 1.5 0 0 0 10.498047 26 A 1.5 1.5 0 0 0 10.498047 23 z M 15.498047 25 A 1.5 1.5 0 0 0 15.498047 28 A 1.5 1.5 0 0 0 15.498047 25 z M 8.4980469 27 A 1.5 1.5 0 0 0 8.4980469 30 A 1.5 1.5 0 0 0 8.4980469 27 z M 20.498047 27 A 1.5 1.5 0 0 0 20.498047 30 A 1.5 1.5 0 0 0 20.498047 27 z M 13.498047 28.734375 A 1.5 1.5 0 0 0 13.498047 31.734375 A 1.5 1.5 0 0 0 13.498047 28.734375 z M 18.498047 31 A 1.5 1.5 0 0 0 18.498047 34 A 1.5 1.5 0 0 0 18.498047 31 z M 23.498047 32.734375 A 1.5 1.5 0 0 0 23.498047 35.734375 A 1.5 1.5 0 0 0 23.498047 32.734375 z M 12.498047 33 A 1.5 1.5 0 0 0 12.498047 36 A 1.5 1.5 0 0 0 12.498047 33 z M 17.498047 35 A 1.5 1.5 0 0 0 17.498047 38 A 1.5 1.5 0 0 0 17.498047 35 z M 29.970703 35.505859 C 30.819967 36.573349 31.731306 37.638092 32.738281 38.634766 C 31.357213 38.540616 29.972264 38.542118 28.630859 38.619141 C 28.893114 38.237778 29.136741 37.840419 29.339844 37.412109 C 29.632537 36.794727 29.829708 36.15414 29.970703 35.505859 z"/></svg>