<svg xmlns="http://www.w3.org/2000/svg"  viewBox="0 0 48 48" width="64px" height="64px"><path d="M 21.5 4 C 19.585045 4 18 5.5850452 18 7.5 L 18 9 L 9.5 9 C 6.4802259 9 4 11.480226 4 14.5 L 4 35.5 C 4 38.519774 6.4802259 41 9.5 41 L 38.5 41 C 41.519774 41 44 38.519774 44 35.5 L 44 14.5 C 44 11.480226 41.519774 9 38.5 9 L 30 9 L 30 7.5 C 30 5.5850452 28.414955 4 26.5 4 L 21.5 4 z M 21.5 7 L 26.5 7 C 26.795045 7 27 7.2049548 27 7.5 L 27 9 L 21 9 L 21 7.5 C 21 7.2049548 21.204955 7 21.5 7 z M 9.5 12 L 19.253906 12 A 1.50015 1.50015 0 0 0 19.740234 12 L 28.253906 12 A 1.50015 1.50015 0 0 0 28.740234 12 L 38.5 12 C 39.898226 12 41 13.101774 41 14.5 L 41 35.5 C 41 36.898226 39.898226 38 38.5 38 L 9.5 38 C 8.1017741 38 7 36.898226 7 35.5 L 7 14.5 C 7 13.101774 8.1017741 12 9.5 12 z M 19 16 C 17.458334 16 16.112148 16.632133 15.253906 17.597656 C 14.395664 18.563179 14 19.791667 14 21 C 14 22.208333 14.395664 23.436821 15.253906 24.402344 C 16.112148 25.367867 17.458334 26 19 26 C 20.541666 26 21.887852 25.367867 22.746094 24.402344 C 23.604336 23.436821 24 22.208333 24 21 C 24 19.791667 23.604336 18.563179 22.746094 17.597656 C 21.887852 16.632133 20.541666 16 19 16 z M 19 19 C 19.791666 19 20.195482 19.242867 20.503906 19.589844 C 20.81233 19.936821 21 20.458333 21 21 C 21 21.541667 20.81233 22.063179 20.503906 22.410156 C 20.195482 22.757133 19.791666 23 19 23 C 18.208334 23 17.804518 22.757133 17.496094 22.410156 C 17.18767 22.063179 17 21.541667 17 21 C 17 20.458333 17.18767 19.936821 17.496094 19.589844 C 17.804518 19.242867 18.208334 19 19 19 z M 34.275391 23.015625 A 1.50015 1.50015 0 0 0 33.734375 23.128906 L 23.566406 27.324219 A 1.50015 1.50015 0 0 0 22.751953 29.283203 L 24.675781 33.943359 A 1.50015 1.50015 0 0 0 26.634766 34.757812 L 36.802734 30.560547 A 1.50015 1.50015 0 0 0 37.617188 28.601562 L 35.693359 23.943359 A 1.50015 1.50015 0 0 0 34.275391 23.015625 z M 33.492188 26.472656 L 34.271484 28.359375 L 26.876953 31.412109 L 26.097656 29.525391 L 33.492188 26.472656 z"/></svg>