<svg xmlns="http://www.w3.org/2000/svg"  viewBox="0 0 48 48" width="64px" height="64px"><path d="M 24 4 C 12.972292 4 4 12.972292 4 24 C 4 35.027708 12.972292 44 24 44 C 35.027708 44 44 35.027708 44 24 C 44 12.972292 35.027708 4 24 4 z M 24 7 C 33.406292 7 41 14.593708 41 24 C 41 33.406292 33.406292 41 24 41 C 14.593708 41 7 33.406292 7 24 C 7 14.593708 14.593708 7 24 7 z M 19.414062 15.177734 C 18.157794 15.255922 17 16.294687 17 17.65625 L 17 30.34375 C 17 32.159167 19.058191 33.400567 20.664062 32.556641 L 20.664062 32.554688 L 32.716797 26.210938 L 32.716797 26.212891 C 34.422794 25.316763 34.422976 22.684725 32.71875 21.787109 L 32.716797 21.787109 L 20.664062 15.443359 C 20.262595 15.232378 19.832819 15.151672 19.414062 15.177734 z M 20 18.482422 L 30.480469 24 L 20 29.515625 L 20 18.482422 z"/></svg>