<svg xmlns="http://www.w3.org/2000/svg"  viewBox="0 0 48 48" width="64px" height="64px"><path d="M 24 4 C 19.047202 4 15 8.0472057 15 13 C 15 17.952794 19.047202 22 24 22 C 28.952798 22 33 17.952794 33 13 C 33 8.0472057 28.952798 4 24 4 z M 24 7 C 27.331479 7 30 9.6685232 30 13 C 30 16.331477 27.331479 19 24 19 C 20.668521 19 18 16.331477 18 13 C 18 9.6685232 20.668521 7 24 7 z M 14.5 24 C 12.032499 24 10 26.032499 10 28.5 L 10 39.5 C 10 40.027452 10.109157 40.527904 10.279297 41 L 8.5 41 A 1.50015 1.50015 0 1 0 8.5 44 L 39.5 44 A 1.50015 1.50015 0 1 0 39.5 41 L 37.720703 41 C 37.890843 40.527904 38 40.027452 38 39.5 L 38 28.5 C 38 26.032499 35.967501 24 33.5 24 L 14.5 24 z M 14.5 27 L 33.5 27 C 34.346499 27 35 27.653501 35 28.5 L 35 39.5 C 35 40.346499 34.346499 41 33.5 41 L 14.5 41 C 13.653501 41 13 40.346499 13 39.5 L 13 28.5 C 13 27.653501 13.653501 27 14.5 27 z M 24 32 A 2 2 0 0 0 24 36 A 2 2 0 0 0 24 32 z"/></svg>