<svg xmlns="http://www.w3.org/2000/svg"  viewBox="0 0 48 48" width="64px" height="64px"><path d="M 11.5 6 C 8.4802259 6 6 8.4802259 6 11.5 L 6 36.5 C 6 39.519774 8.4802259 42 11.5 42 L 36.5 42 C 39.519774 42 42 39.519774 42 36.5 L 42 11.5 C 42 8.4802259 39.519774 6 36.5 6 L 11.5 6 z M 11.5 9 L 36.5 9 C 37.898226 9 39 10.101774 39 11.5 L 39 29 L 28.572266 29 C 28.836412 28.355905 29 27.682041 29 27 C 29 25.791667 28.604336 24.563179 27.746094 23.597656 C 26.887852 22.632133 25.541666 22 24 22 C 22.458334 22 21.112148 22.632133 20.253906 23.597656 C 19.395664 24.563179 19 25.791667 19 27 C 19 27.682041 19.163588 28.355905 19.427734 29 L 9 29 L 9 11.5 C 9 10.101774 10.101774 9 11.5 9 z M 24 25 C 24.791666 25 25.195482 25.242867 25.503906 25.589844 C 25.81233 25.936821 26 26.458333 26 27 C 26 27.541667 25.81233 28.063179 25.503906 28.410156 C 25.195482 28.757133 24.791666 29 24 29 C 23.208334 29 22.804518 28.757133 22.496094 28.410156 C 22.18767 28.063179 22 27.541667 22 27 C 22 26.458333 22.18767 25.936821 22.496094 25.589844 C 22.804518 25.242867 23.208334 25 24 25 z M 9 32 L 24 32 L 39 32 L 39 34 L 9 34 L 9 32 z M 9 36 L 39 36 L 39 36.5 C 39 37.898226 37.898226 39 36.5 39 L 11.5 39 C 10.101774 39 9 37.898226 9 36.5 L 9 36 z"/></svg>