<svg xmlns="http://www.w3.org/2000/svg"  viewBox="0 0 48 48" width="64px" height="64px"><path d="M 13.476562 2.9785156 A 1.50015 1.50015 0 0 0 12 4.5 L 12 8 L 11.5 8 C 9.5850452 8 8 9.5850452 8 11.5 L 8 23.050781 C 5.756334 23.30317 4 25.190108 4 27.5 L 4 34.154297 C 4 34.300297 4.0215 34.443984 4.0625 34.583984 L 4.1054688 34.726562 C 4.2384688 34.713563 4.359 34.683594 4.5 34.683594 C 5.786 34.683594 6.7274531 35.233406 7.5644531 36.191406 C 7.5984531 36.213406 7.6452188 36.242437 7.6992188 36.273438 L 7 33.935547 L 7 27.5 C 7 26.673 7.673 26 8.5 26 L 9.2539062 26 A 1.50015 1.50015 0 0 0 9.7402344 26 L 18.253906 26 A 1.50015 1.50015 0 0 0 18.740234 26 L 31.113281 26 C 31.642281 26 32.135297 25.721625 32.404297 25.265625 L 33.322266 23.716797 C 33.950266 22.657797 35.103984 22 36.333984 22 L 42.494141 22 C 42.692141 22 42.817047 22.108828 42.873047 22.173828 C 42.931047 22.238828 43.022141 22.380031 42.994141 22.582031 C 42.101141 28.992031 37.474234 35.115406 35.990234 36.941406 C 36.299234 36.975406 36.629 37 37 37 C 38.71 37 39.743844 36.574359 40.214844 36.318359 C 42.355844 33.244359 45.227844 28.291094 45.964844 22.996094 C 46.105844 21.987094 45.802766 20.970125 45.134766 20.203125 C 44.470766 19.438125 43.507141 19 42.494141 19 L 36.333984 19 C 34.048984 19 31.906187 20.2215 30.742188 22.1875 L 30.259766 23 L 20 23 L 20 16.199219 L 21.585938 14.535156 A 1.50015 1.50015 0 0 0 22 13.5 L 22 11.5 C 22 9.5850452 20.414955 8 18.5 8 L 15 8 L 15 4.5 A 1.50015 1.50015 0 0 0 13.476562 2.9785156 z M 11.5 11 L 18.5 11 C 18.795045 11 19 11.204955 19 11.5 L 19 12.900391 L 17.414062 14.5625 A 1.50015 1.50015 0 0 0 17 15.597656 L 17 23 L 11 23 L 11 11.5 C 11 11.204955 11.204955 11 11.5 11 z M 37.5 24 A 1.5 1.5 0 0 0 37.5 27 A 1.5 1.5 0 0 0 37.5 24 z M 4.4609375 36.984375 A 1.50015 1.50015 0 0 0 3.4550781 39.576172 C 3.4550781 39.576172 4.2007788 40.275284 5.4511719 40.859375 C 6.7015649 41.443466 8.5561225 42 11 42 C 13.443878 42 15.298435 41.443466 16.548828 40.859375 C 17.144621 40.581064 17.159619 40.490241 17.5 40.248047 C 17.840381 40.490241 17.855379 40.581064 18.451172 40.859375 C 19.701565 41.443466 21.556122 42 24 42 C 26.443878 42 28.298435 41.443466 29.548828 40.859375 C 30.144621 40.581064 30.159619 40.490241 30.5 40.248047 C 30.840381 40.490241 30.855379 40.581064 31.451172 40.859375 C 32.701565 41.443466 34.556122 42 37 42 C 39.443878 42 41.298435 41.443466 42.548828 40.859375 C 43.799221 40.275284 44.544922 39.576172 44.544922 39.576172 A 1.50015 1.50015 0 1 0 42.455078 37.423828 C 42.455078 37.423828 42.169654 37.724716 41.279297 38.140625 C 40.38894 38.556534 38.993122 39 37 39 C 35.006878 39 33.61106 38.556534 32.720703 38.140625 C 31.830346 37.724716 31.544922 37.423828 31.544922 37.423828 A 1.50015 1.50015 0 0 0 29.455078 37.423828 C 29.455078 37.423828 29.169654 37.724716 28.279297 38.140625 C 27.38894 38.556534 25.993122 39 24 39 C 22.006878 39 20.61106 38.556534 19.720703 38.140625 C 18.880811 37.74829 18.642929 37.496571 18.611328 37.464844 A 1.50015 1.50015 0 0 0 17.482422 36.984375 A 1.50015 1.50015 0 0 0 17.34375 36.994141 A 1.50015 1.50015 0 0 0 16.384766 37.466797 C 16.351456 37.500147 16.116375 37.749604 15.279297 38.140625 C 14.38894 38.5565 12.993122 39 11 39 C 9.0068775 39 7.6110601 38.556534 6.7207031 38.140625 C 5.8303462 37.724716 5.5449219 37.423828 5.5449219 37.423828 A 1.50015 1.50015 0 0 0 4.4609375 36.984375 z"/></svg>