<svg xmlns="http://www.w3.org/2000/svg"  viewBox="0 0 48 48" width="64px" height="64px"><path d="M 17.5 4 A 1.5 1.5 0 0 0 17.5 7 A 1.5 1.5 0 0 0 17.5 4 z M 35.5 4 A 1.5 1.5 0 0 0 35.5 7 A 1.5 1.5 0 0 0 35.5 4 z M 26.431641 4.0078125 C 22.862532 4.0091025 19.933594 6.9300152 19.933594 10.501953 C 19.933594 12.354337 20.71893 14.042883 21.970703 15.224609 C 21.960903 15.214609 21.967109 15.214577 21.974609 15.248047 L 22.958984 19.878906 L 22.960938 19.886719 C 23.233595 21.113684 24.337974 22.001953 25.595703 22.001953 L 26.433594 22.001953 L 27.269531 22.001953 C 28.527261 22.001953 29.633591 21.113684 29.90625 19.886719 L 29.90625 19.878906 L 30.894531 15.232422 C 30.894907 15.231492 30.902484 15.216926 30.896484 15.222656 L 30.894531 15.222656 C 32.14457 14.041344 32.933594 12.355036 32.933594 10.501953 C 32.933594 6.9300152 30.002703 4.0091052 26.433594 4.0078125 L 26.431641 4.0078125 z M 26.431641 7.0078125 L 26.433594 7.0078125 C 28.385538 7.0095725 29.933594 8.5525596 29.933594 10.501953 C 29.933594 11.510871 29.511946 12.402281 28.833984 13.042969 C 28.372246 13.47986 28.090827 14.031526 27.964844 14.59375 L 27.962891 14.601562 L 27.453125 17 L 25.414062 17 L 24.904297 14.601562 L 24.902344 14.59375 C 24.776427 14.029942 24.49127 13.478234 24.03125 13.042969 C 23.353024 12.402695 22.933594 11.511569 22.933594 10.501953 C 22.933594 8.5525596 24.479697 7.0095763 26.431641 7.0078125 z M 15.5 9 A 1.5 1.5 0 0 0 15.5 12 A 1.5 1.5 0 0 0 15.5 9 z M 37.5 9 A 1.5 1.5 0 0 0 37.5 12 A 1.5 1.5 0 0 0 37.5 9 z M 17.5 14 A 1.5 1.5 0 0 0 17.5 17 A 1.5 1.5 0 0 0 17.5 14 z M 35.5 14 A 1.5 1.5 0 0 0 35.5 17 A 1.5 1.5 0 0 0 35.5 14 z M 41.613281 21.019531 C 40.493082 21.029231 39.429184 21.473279 38.484375 22.175781 C 37.470126 22.929243 34.418425 25.208042 31.777344 27.179688 C 31.204622 25.351508 29.505924 24 27.5 24 L 23.107422 24 C 20.296203 24 18.985532 23.772226 17.859375 23.533203 C 16.733218 23.29418 15.646783 23 13.826172 23 C 9.9413941 23 7.0123317 25.492986 5.09375 27.791016 C 3.1751683 30.089045 2.1347656 32.384766 2.1347656 32.384766 A 1.5002787 1.5002787 0 1 0 4.8652344 33.628906 C 4.8652344 33.628906 5.7643161 31.669814 7.3964844 29.714844 C 9.0286527 27.759873 11.25995 26 13.826172 26 C 15.347561 26 16.006735 26.20582 17.236328 26.466797 C 18.465921 26.727774 20.123641 27 23.107422 27 L 27.5 27 C 28.346499 27 29 27.653501 29 28.5 C 29 28.969499 28.794195 29.374296 28.470703 29.646484 C 28.470416 29.646699 28.429688 29.677734 28.429688 29.677734 A 1.5001988 1.5001988 0 0 0 28.345703 29.748047 A 1.5001988 1.5001988 0 0 0 28.34375 29.75 C 28.105295 29.908613 27.816466 30 27.5 30 L 20.5 30 A 1.50015 1.50015 0 1 0 20.5 33 L 27.5 33 C 28.440637 33 29.315307 32.701451 30.041016 32.199219 C 30.042186 32.198409 30.043753 32.198076 30.044922 32.197266 A 1.5001988 1.5001988 0 0 0 30.224609 32.082031 C 30.224609 32.082031 38.775959 25.696426 40.273438 24.583984 A 1.50015 1.50015 0 0 0 40.273438 24.582031 C 40.837627 24.162534 41.309824 24.022381 41.640625 24.019531 C 41.971426 24.016631 42.218287 24.096901 42.560547 24.439453 C 43.150922 25.029324 43.147391 25.935102 42.572266 26.533203 C 37.217133 31.036197 33.848465 34.036886 31.623047 35.794922 C 29.369881 37.574924 28.424996 38 27.5 38 C 23.847885 38 19.80067 37 15.5 37 C 13 37 11.242781 38.343609 10.300781 39.599609 C 9.3587815 40.855609 9.0449219 42.136719 9.0449219 42.136719 A 1.50015 1.50015 0 1 0 11.955078 42.863281 C 11.955078 42.863281 12.141219 42.144391 12.699219 41.400391 C 13.257219 40.656391 14 40 15.5 40 C 19.30733 40 23.336115 41 27.5 41 C 29.402004 41 31.084837 40.044435 33.482422 38.150391 C 35.849764 36.280238 39.175413 33.30991 44.498047 28.833984 A 1.50015 1.50015 0 0 0 44.681641 28.681641 C 44.688541 28.674741 44.690436 28.665143 44.697266 28.658203 L 44.701172 28.662109 L 44.753906 28.607422 A 1.50015 1.50015 0 0 0 45.083984 28.074219 C 46.330485 26.321792 46.248887 23.884269 44.681641 22.318359 C 43.8529 21.488911 42.73348 21.009881 41.613281 21.019531 z"/></svg>