<svg xmlns="http://www.w3.org/2000/svg"  viewBox="0 0 48 48" width="64px" height="64px"><path d="M 23.927734 4.0019531 A 1.50015 1.50015 0 0 0 23.345703 4.1503906 L 5.8457031 12.634766 A 1.50015 1.50015 0 0 0 6 15.419922 L 6 37.5 C 6 40.519774 8.4802259 43 11.5 43 L 23.753906 43 A 1.50015 1.50015 0 0 0 24.240234 43 L 36.5 43 C 39.519774 43 42 40.519774 42 37.5 L 42 15.421875 A 1.50015 1.50015 0 0 0 42.154297 12.634766 L 24.654297 4.1503906 A 1.50015 1.50015 0 0 0 23.927734 4.0019531 z M 22.5 7.8945312 L 22.5 24 L 9 24 L 9 14.439453 L 22.5 7.8945312 z M 25.5 7.8945312 L 39 14.439453 L 39 24 L 25.5 24 L 25.5 7.8945312 z M 14.5 14 A 1.50015 1.50015 0 1 0 14.5 17 L 16.5 17 A 1.50015 1.50015 0 1 0 16.5 14 L 14.5 14 z M 31.5 14 A 1.50015 1.50015 0 1 0 31.5 17 L 33.5 17 A 1.50015 1.50015 0 1 0 33.5 14 L 31.5 14 z M 9 27 L 22.5 27 L 22.5 40 L 11.5 40 C 10.101774 40 9 38.898226 9 37.5 L 9 27 z M 25.5 27 L 39 27 L 39 37.5 C 39 38.898226 37.898226 40 36.5 40 L 25.5 40 L 25.5 27 z M 14.5 30 A 1.50015 1.50015 0 1 0 14.5 33 L 16.5 33 A 1.50015 1.50015 0 1 0 16.5 30 L 14.5 30 z M 31.5 30 A 1.50015 1.50015 0 1 0 31.5 33 L 33.5 33 A 1.50015 1.50015 0 1 0 33.5 30 L 31.5 30 z"/></svg>