<svg xmlns="http://www.w3.org/2000/svg"  viewBox="0 0 48 48" width="64px" height="64px" fill="#7b7979"><path d="M 24 3 C 17.72 3 12.551016 7.85 12.041016 14 L 11.5 14 C 6.813 14 3 17.813 3 22.5 C 3 27.187 6.813 31 11.5 31 L 23.759766 31 C 23.061766 30.131 22.548719 29.112 22.261719 28 L 11.5 28 C 8.468 28 6 25.532 6 22.5 C 6 19.468 8.468 17 11.5 17 L 13.525391 17 C 13.935391 17 14.326375 16.832156 14.609375 16.535156 C 14.892375 16.239156 15.043437 15.839688 15.023438 15.429688 L 15.009766 15.220703 C 15.005766 15.146703 15 15.074 15 15 C 15 10.037 19.037 6 24 6 C 28.963 6 33 10.037 33 15 C 33 15.074 32.993281 15.146703 32.988281 15.220703 L 32.976562 15.429688 C 32.956562 15.839688 33.105672 16.240156 33.388672 16.535156 C 33.672672 16.832156 34.063609 17 34.474609 17 L 36.5 17 C 39.532 17 42 19.468 42 22.5 C 42 25.092 40.194344 27.26475 37.777344 27.84375 C 37.500344 29.01675 36.970234 30.09 36.240234 31 L 36.5 31 C 41.187 31 45 27.187 45 22.5 C 45 17.813 41.187 14 36.5 14 L 35.958984 14 C 35.448984 7.85 30.28 3 24 3 z M 30 20 C 28.125 20 26.528815 20.757133 25.503906 21.910156 C 24.478997 23.063179 24 24.541667 24 26 C 24 27.458333 24.478997 28.936821 25.503906 30.089844 C 26.528815 31.242867 28.125 32 30 32 C 31.875 32 33.471185 31.242867 34.496094 30.089844 C 35.521003 28.936821 36 27.458333 36 26 C 36 24.541667 35.521003 23.063179 34.496094 21.910156 C 33.471185 20.757133 31.875 20 30 20 z M 30 23 C 31.124999 23 31.778816 23.367867 32.253906 23.902344 C 32.728997 24.436821 33 25.208333 33 26 C 33 26.791667 32.728997 27.563179 32.253906 28.097656 C 31.778816 28.632133 31.124999 29 30 29 C 28.875001 29 28.221184 28.632133 27.746094 28.097656 C 27.271003 27.563179 27 26.791667 27 26 C 27 25.208333 27.271003 24.436821 27.746094 23.902344 C 28.221184 23.367867 28.875001 23 30 23 z M 24.5 34 C 22.585045 34 21 35.585045 21 37.5 L 21 40 C 21 41.918154 22.279921 43.481204 23.925781 44.46875 C 25.571641 45.456296 27.68576 46 30 46 C 32.31424 46 34.428359 45.456296 36.074219 44.46875 C 37.720079 43.481204 39 41.918154 39 40 L 39 37.5 C 39 35.585045 37.414955 34 35.5 34 L 24.5 34 z M 24.5 37 L 35.5 37 C 35.795045 37 36 37.204955 36 37.5 L 36 40 C 36 40.566846 35.59989 41.255281 34.53125 41.896484 C 33.46261 42.537688 31.82776 43 30 43 C 28.17224 43 26.53739 42.537688 25.46875 41.896484 C 24.40011 41.255281 24 40.566846 24 40 L 24 37.5 C 24 37.204955 24.204955 37 24.5 37 z"/></svg>