<svg xmlns="http://www.w3.org/2000/svg"  viewBox="0 0 48 48" width="64px" height="64px"><path d="M 11.5 6 C 8.4802259 6 6 8.4802259 6 11.5 L 6 36.5 C 6 39.519774 8.4802259 42 11.5 42 L 36.5 42 C 39.519774 42 42 39.519774 42 36.5 L 42 11.5 C 42 8.4802259 39.519774 6 36.5 6 L 11.5 6 z M 11.5 9 L 36.5 9 C 37.898226 9 39 10.101774 39 11.5 L 39 36.5 C 39 37.898226 37.898226 39 36.5 39 L 11.5 39 C 10.101774 39 9 37.898226 9 36.5 L 9 11.5 C 9 10.101774 10.101774 9 11.5 9 z M 24 12 C 22.125 12 20.528815 12.757133 19.503906 13.910156 C 18.478997 15.063179 18 16.541667 18 18 C 18 19.458333 18.478997 20.936821 19.503906 22.089844 C 20.528815 23.242867 22.125 24 24 24 C 25.875 24 27.471185 23.242867 28.496094 22.089844 C 29.521003 20.936821 30 19.458333 30 18 C 30 16.541667 29.521003 15.063179 28.496094 13.910156 C 27.471185 12.757133 25.875 12 24 12 z M 24 15 C 25.124999 15 25.778816 15.367867 26.253906 15.902344 C 26.728997 16.436821 27 17.208333 27 18 C 27 18.791667 26.728997 19.563179 26.253906 20.097656 C 25.778816 20.632133 25.124999 21 24 21 C 22.875001 21 22.221184 20.632133 21.746094 20.097656 C 21.271003 19.563179 21 18.791667 21 18 C 21 17.208333 21.271003 16.436821 21.746094 15.902344 C 22.221184 15.367867 22.875001 15 24 15 z M 17.259766 26 C 15.478261 26 14 27.477066 14 29.259766 L 14 30.341797 C 14 32.32976 15.256514 34.057405 17.046875 35.199219 C 18.837236 36.341033 21.229275 37.001953 24 37.001953 C 26.770725 37.001953 29.162764 36.341033 30.953125 35.199219 C 32.743486 34.057405 34 32.32976 34 30.341797 L 34 29.259766 C 34 27.478261 32.522934 26 30.740234 26 L 17.259766 26 z M 17.259766 29 L 30.740234 29 C 30.901535 29 31 29.09927 31 29.259766 L 31 30.341797 C 31 31.053834 30.535733 31.907236 29.339844 32.669922 C 28.143954 33.432608 26.284275 34.001953 24 34.001953 C 21.715725 34.001953 19.856046 33.432608 18.660156 32.669922 C 17.464267 31.907236 17 31.053834 17 30.341797 L 17 29.259766 C 17 29.098465 17.09927 29 17.259766 29 z"/></svg>