<svg xmlns="http://www.w3.org/2000/svg"  viewBox="0 0 48 48" width="64px" height="64px" fill="#7b7979"><path d="M 31.476562 9.9785156 A 1.50015 1.50015 0 0 0 31.257812 10 L 6.5 10 C 4.0324991 10 2 12.032499 2 14.5 L 2 32.5 C 2 34.967501 4.0324991 37 6.5 37 L 7.2148438 37 C 7.8742368 39.298413 10.000264 41 12.5 41 C 14.999736 41 17.125763 39.298413 17.785156 37 L 30.214844 37 C 30.874237 39.298413 33.000264 41 35.5 41 C 37.999736 41 40.125763 39.298413 40.785156 37 L 41.5 37 C 43.967501 37 46 34.967501 46 32.5 L 46 27.746094 A 1.50015 1.50015 0 0 0 46 27.259766 L 46 21.746094 A 1.50015 1.50015 0 0 0 45.992188 21.21875 C 45.974805 20.493427 45.819669 19.777686 45.525391 19.115234 L 42.927734 13.267578 C 42.046762 11.284705 40.070258 10 37.900391 10 L 31.746094 10 A 1.50015 1.50015 0 0 0 31.476562 9.9785156 z M 6.5 13 L 30 13 L 30 21.5 A 1.50015 1.50015 0 0 0 31.5 23 L 43 23 L 43 26 L 41.5 26 A 1.50015 1.50015 0 1 0 41.5 29 L 43 29 L 43 32.5 C 43 33.346499 42.346499 34 41.5 34 L 40.785156 34 C 40.125763 31.701587 37.999736 30 35.5 30 C 33.000264 30 30.874237 31.701587 30.214844 34 L 17.785156 34 C 17.125763 31.701587 14.999736 30 12.5 30 C 10.000264 30 7.8742368 31.701587 7.2148438 34 L 6.5 34 C 5.6535009 34 5 33.346499 5 32.5 L 5 14.5 C 5 13.653501 5.6535009 13 6.5 13 z M 33 13 L 37.900391 13 C 38.892523 13 39.782519 13.577248 40.185547 14.484375 L 42.636719 20 L 33 20 L 33 13 z M 12.5 33 C 13.896406 33 15 34.103594 15 35.5 C 15 36.896406 13.896406 38 12.5 38 C 11.151253 38 10.08552 36.967201 10.013672 35.638672 A 1.50015 1.50015 0 0 0 10.013672 35.361328 C 10.08552 34.032799 11.151253 33 12.5 33 z M 35.5 33 C 36.848747 33 37.91448 34.032799 37.986328 35.361328 A 1.50015 1.50015 0 0 0 37.986328 35.638672 C 37.91448 36.967201 36.848747 38 35.5 38 C 34.103594 38 33 36.896406 33 35.5 C 33 34.103594 34.103594 33 35.5 33 z"/></svg>