<svg xmlns="http://www.w3.org/2000/svg"  viewBox="0 0 48 48" width="64px" height="64px" fill="#7b7979"><path d="M 23.482422 4.0019531 C 21.683084 4.0019531 20.046826 5.081239 19.341797 6.7382812 L 16.677734 13 L 8.5 13 L 7.5 13 A 1.50015 1.50015 0 0 0 6.4863281 15.623047 L 6.0214844 16.878906 C 5.3463166 18.708677 5 20.644138 5 22.595703 L 5 29.611328 C 5 31.711004 5.3998108 33.78914 6.1796875 35.738281 L 7.1074219 38.056641 A 1.50015 1.50015 0 0 0 8.5 39 L 14.214844 39 C 14.874199 41.298472 17.000115 43 19.5 43 L 38.5 43 C 41.519774 43 44 40.519774 44 37.5 L 44 30.5 C 44 27.480226 41.519774 25 38.5 25 L 24 25 L 24 22.595703 C 24 20.644702 23.655124 18.7096 22.978516 16.878906 L 22.513672 15.621094 A 1.50015 1.50015 0 0 0 21.5 13 L 20.525391 13 L 19.939453 13 L 22.103516 7.9140625 C 22.340487 7.3571049 22.87776 7.0019531 23.482422 7.0019531 L 29.5 7.0019531 A 1.50015 1.50015 0 1 0 29.5 4.0019531 L 23.482422 4.0019531 z M 9.5449219 16 L 19.455078 16 L 20.164062 17.917969 A 1.50015 1.50015 0 0 0 20.164062 17.919922 C 20.717454 19.417181 21 20.998704 21 22.595703 L 21 25 L 19.5 25 C 16.480226 25 14 27.480226 14 30.5 L 14 36 L 9.515625 36 L 8.9648438 34.625 C 8.3267203 33.030142 8 31.329652 8 29.611328 L 8 22.595703 C 8 22.051116 8.21975 21.53864 8.2851562 21 L 16.5 21 A 1.50015 1.50015 0 1 0 16.5 18 L 8.8203125 18 C 8.8298625 17.97362 8.8262225 17.944299 8.8359375 17.917969 L 9.5449219 16 z M 19.5 28 L 38.5 28 C 39.726763 28 40.722762 28.847653 40.949219 30 L 17.050781 30 C 17.277238 28.847653 18.273237 28 19.5 28 z M 17 33 L 41 33 L 41 35 L 17 35 L 17 33 z M 17.050781 38 L 40.949219 38 C 40.722762 39.152347 39.726763 40 38.5 40 L 19.5 40 C 18.273237 40 17.277238 39.152347 17.050781 38 z"/></svg>