<svg xmlns="http://www.w3.org/2000/svg"  viewBox="0 0 48 48" width="64px" height="64px" fill="#7b7979"><path d="M 22.5 3.0097656 C 21.394215 3.0097427 20.288142 3.4267019 19.453125 4.2617188 L 13.714844 10 L 10.740234 10 L 10.675781 9.6582031 C 10.272657 7.5455321 8.4069705 6 6.2558594 6 L 3.5 6 A 1.50015 1.50015 0 1 0 3.5 9 L 6.2558594 9 C 6.9837923 9 7.5905865 9.5029243 7.7285156 10.21875 L 8.0273438 11.78125 L 11.251953 28.716797 C 11.835068 31.772321 14.527135 34 17.638672 34 L 36.361328 34 C 39.472865 34 42.166064 31.773177 42.748047 28.716797 L 45.972656 11.78125 A 1.50015 1.50015 0 0 0 44.5 10 L 40.121094 10 L 35.298828 5.1757812 C 33.766145 3.6430985 31.235808 3.6430985 29.703125 5.1757812 L 28.082031 6.796875 L 25.546875 4.2636719 L 25.544922 4.2617188 C 24.710554 3.4276323 23.604907 3.0097885 22.5 3.0097656 z M 22.5 5.9902344 C 22.831568 5.9903324 23.162476 6.1212214 23.423828 6.3828125 L 27.039062 10 L 17.958984 10 L 21.574219 6.3828125 C 21.836202 6.1208294 22.168432 5.9901364 22.5 5.9902344 z M 32.5 7.0058594 C 32.74155 7.0058594 32.984076 7.1032164 33.177734 7.296875 L 35.878906 10 L 31.285156 10 L 30.203125 8.9179688 L 31.824219 7.296875 C 32.017877 7.1032164 32.25845 7.0058594 32.5 7.0058594 z M 11.3125 13 L 39.277344 13 A 1.50015 1.50015 0 0 0 39.769531 13 L 42.6875 13 L 39.800781 28.15625 C 39.484764 29.81587 38.051791 31 36.361328 31 L 17.638672 31 C 15.948808 31 14.516781 29.8158 14.199219 28.15625 L 14.199219 28.154297 L 11.3125 13 z M 20 36 A 3 3 0 0 0 20 42 A 3 3 0 0 0 20 36 z M 34 36 A 3 3 0 0 0 34 42 A 3 3 0 0 0 34 36 z"/></svg>