<svg xmlns="http://www.w3.org/2000/svg"  viewBox="0 0 48 48" width="64px" height="64px" fill="#7b7979"><path d="M 24 4.0742188 C 22.716667 4.0742188 21.573836 4.7363565 20.919922 5.6191406 C 20.266008 6.5019247 20 7.546441 20 8.5742188 C 20 8.6145387 20.006986 8.654946 20.007812 8.6953125 C 19.128244 7.9395156 18.001239 7.4726562 16.753906 7.4726562 C 14.871058 7.4726562 13.243125 8.5201945 12.359375 10.050781 C 12.112043 10.011701 11.908769 9.8808594 11.648438 9.8808594 C 9.0823851 9.8808594 6.9391909 11.811016 6.5917969 14.287109 C 6.4319227 14.312747 6.2751142 14.351231 6.1230469 14.40625 C 5.4695025 14.642708 4.9103037 15.141321 4.6367188 15.832031 A 1.50015 1.50015 0 0 0 4.6367188 15.833984 C 3.569124 18.532491 3.7052883 21.470717 4.8378906 23.994141 C 3.2339571 24.30945 2 25.737489 2 27.425781 C 2 36.493963 9.4318182 43.925781 18.5 43.925781 L 29.5 43.925781 C 38.594719 43.925781 46 36.520501 46 27.425781 C 46 25.590373 44.539484 24.073357 42.732422 23.949219 C 43.172528 21.955932 43.041493 19.828514 42.251953 17.833984 C 41.829101 16.766426 40.727515 16.377938 39.644531 16.488281 C 39.644827 16.465211 39.660156 16.446948 39.660156 16.423828 C 39.660156 13.467017 37.230248 11.037109 34.273438 11.037109 C 34.012026 11.037109 33.798981 11.160138 33.548828 11.197266 C 32.622417 9.5689342 30.910625 8.4453125 28.914062 8.4453125 C 28.600448 8.4453125 28.296261 8.4821028 27.998047 8.5351562 C 27.991387 7.5199824 27.725725 6.4907642 27.080078 5.6191406 C 26.426164 4.7363565 25.283333 4.0742187 24 4.0742188 z M 24 7.0742188 C 24.383333 7.0742188 24.490503 7.1640338 24.669922 7.40625 C 24.849341 7.6484659 25 8.1019964 25 8.5742188 C 25 9.046441 24.849341 9.5019247 24.669922 9.7441406 C 24.490503 9.9863565 24.383333 10.074219 24 10.074219 C 23.616667 10.074219 23.509497 9.986357 23.330078 9.7441406 C 23.150659 9.5019247 23 9.046441 23 8.5742188 C 23 8.1019964 23.150659 7.6484659 23.330078 7.40625 C 23.509497 7.1640341 23.616667 7.0742186 24 7.0742188 z M 16.753906 10.472656 C 17.75619 10.472656 18.561341 11.152394 18.791016 12.072266 A 1.50015 1.50015 0 0 0 20.867188 13.074219 C 21.146618 12.947093 21.431698 12.880859 21.734375 12.880859 C 22.676086 12.880859 23.447394 13.472454 23.726562 14.308594 C 20.910579 15.081495 18.55976 16.992967 17.214844 19.523438 L 9.5644531 15.318359 C 9.5474725 15.212625 9.5371094 15.103169 9.5371094 14.990234 C 9.5371094 13.807167 10.46537 12.880859 11.648438 12.880859 C 11.969523 12.880859 12.272846 12.958659 12.576172 13.109375 A 1.50015 1.50015 0 0 0 14.705078 12.103516 C 14.920995 11.170989 15.740504 10.472656 16.753906 10.472656 z M 28.914062 11.445312 C 30.045882 11.445312 30.957077 12.213796 31.216797 13.253906 A 1.50015 1.50015 0 0 0 33.294922 14.255859 C 33.607091 14.1135 33.929059 14.037109 34.273438 14.037109 C 35.608626 14.037109 36.660156 15.088639 36.660156 16.423828 C 36.660156 16.826295 36.563456 17.194319 36.390625 17.523438 A 1.50015 1.50015 0 0 0 36.244141 17.912109 L 34.626953 18.802734 C 33.768038 17.960947 32.623971 17.425781 31.339844 17.425781 C 31.20047 17.425781 31.062938 17.437103 30.925781 17.449219 C 30.548636 15.457626 28.70943 14.025853 26.671875 13.943359 C 26.62861 13.789878 26.587281 13.635923 26.539062 13.484375 A 1.50015 1.50015 0 0 0 26.597656 13.291016 C 26.842381 12.236063 27.77076 11.445313 28.914062 11.445312 z M 26.490234 16.925781 C 27.333112 16.925781 28.053901 17.604135 27.996094 18.300781 C 27.902501 19.435826 27.128016 23.557104 27.058594 23.925781 L 23.609375 23.925781 L 24.884766 21.373047 A 1.0001 1.0001 0 0 0 23.945312 19.914062 A 1.0001 1.0001 0 0 0 23.095703 20.478516 L 21.371094 23.925781 L 19.015625 23.925781 C 19.271855 20.002194 22.49869 16.925781 26.490234 16.925781 z M 7.2890625 17.490234 L 16.193359 22.386719 C 16.094088 22.887163 16.04054 23.402971 16.015625 23.925781 L 8.2304688 23.925781 C 6.9665688 22.069915 6.6064817 19.703095 7.2890625 17.490234 z M 39.568359 19.507812 C 40.019158 20.977909 40.062629 22.512697 39.638672 23.925781 L 35.970703 23.925781 C 36.102695 23.464581 36.177734 22.979892 36.177734 22.478516 C 36.177734 22.121696 36.136045 21.772504 36.066406 21.433594 L 39.568359 19.507812 z M 31.339844 20.425781 C 31.909027 20.425781 32.430973 20.718135 32.773438 21.193359 A 1.50015 1.50015 0 0 0 33.039062 21.6875 C 33.126804 21.927579 33.177734 22.19194 33.177734 22.478516 C 33.177734 23.063419 32.956466 23.563244 32.628906 23.925781 L 30.113281 23.925781 C 30.248123 23.241089 30.47818 22.046466 30.716797 20.552734 C 30.910472 20.473919 31.11624 20.425781 31.339844 20.425781 z M 5.5 26.925781 L 42.5 26.925781 C 42.795045 26.925781 43 27.130736 43 27.425781 C 43 34.899062 36.973281 40.925781 29.5 40.925781 L 18.5 40.925781 C 11.068182 40.925781 5 34.857599 5 27.425781 C 5 27.130736 5.2049548 26.925781 5.5 26.925781 z"/></svg>