<svg xmlns="http://www.w3.org/2000/svg"  viewBox="0 0 48 48" width="64px" height="64px"><path d="M 12.5 6 C 11.136406 6 10 7.1364058 10 8.5 L 10 9.7363281 L 5.1171875 13.287109 A 1.50015 1.50015 0 0 0 4.5 14.5 L 4.5 16.330078 C 4.5 18.089624 5.4830573 19.728839 7 20.513672 L 7 32.5 C 7 35.018334 8.7266524 37.156432 11.050781 37.798828 C 11.020894 38.029252 11 38.261921 11 38.5 C 11 41.519594 13.480406 44 16.5 44 C 19.519594 44 22 41.519594 22 38.5 C 22 38.331086 21.989793 38.165199 21.974609 38 L 31 38 L 31 42.5 A 1.50015 1.50015 0 1 0 34 42.5 L 34 38 L 35.5 38 C 38.519955 38 41 35.519955 41 32.5 L 41 20.513672 C 42.516791 19.728949 43.5 18.089985 43.5 16.330078 L 43.5 14.5 A 1.50015 1.50015 0 0 0 42.882812 13.287109 L 38 9.7363281 L 38 8.5 C 38 7.1364058 36.863594 6 35.5 6 L 12.5 6 z M 13 9 L 35 9 L 35 10.5 A 1.50015 1.50015 0 0 0 35.617188 11.712891 L 40.5 15.263672 L 40.5 16.330078 C 40.5 17.206095 39.85186 17.956729 39.083984 17.998047 C 38.189 18.044607 37.5 17.373158 37.5 16.5 L 34.5 16.5 C 34.5 17.346499 33.846499 18 33 18 C 32.153501 18 31.5 17.346499 31.5 16.5 A 1.50015 1.50015 0 0 0 28.5 16.5 C 28.5 17.346499 27.846499 18 27 18 C 26.153501 18 25.5 17.346499 25.5 16.5 A 1.50015 1.50015 0 0 0 22.5 16.5 C 22.5 17.346499 21.846499 18 21 18 C 20.153501 18 19.5 17.346499 19.5 16.5 A 1.50015 1.50015 0 0 0 16.5 16.5 C 16.5 17.346499 15.846499 18 15 18 C 14.153501 18 13.5 17.346499 13.5 16.5 A 1.50015 1.50015 0 0 0 10.5 16.5 C 10.5 17.372488 9.8119498 18.043471 8.9179688 17.998047 C 8.1499302 17.957823 7.5 17.20531 7.5 16.330078 L 7.5 15.263672 L 12.382812 11.712891 A 1.50015 1.50015 0 0 0 13 10.5 L 13 9 z M 18 19.794922 C 18.801263 20.525058 19.84203 21 21 21 C 22.15797 21 23.198737 20.525058 24 19.794922 C 24.801263 20.525058 25.84203 21 27 21 C 28.15797 21 29.198737 20.525058 30 19.794922 C 30.801263 20.525058 31.84203 21 33 21 C 34.152944 21 35.188245 20.527257 35.988281 19.802734 C 36.550426 20.315672 37.242978 20.676512 38 20.859375 L 38 26 L 10 26 L 10 20.859375 C 10.757023 20.676512 11.449574 20.315672 12.011719 19.802734 C 12.811755 20.527257 13.847056 21 15 21 C 16.15797 21 17.198737 20.525058 18 19.794922 z M 10 29 L 38 29 L 38 32.5 C 38 33.900045 36.900045 35 35.5 35 L 32.746094 35 A 1.50015 1.50015 0 0 0 32.476562 34.978516 A 1.50015 1.50015 0 0 0 32.257812 35 L 20.728516 35 C 19.716647 33.781944 18.193606 33 16.5 33 C 14.816273 33 13.300957 33.772655 12.289062 34.978516 C 10.992924 34.87262 10 33.827613 10 32.5 L 10 29 z M 16.5 36 C 17.896406 36 19 37.103594 19 38.5 C 19 39.896406 17.896406 41 16.5 41 C 15.103594 41 14 39.896406 14 38.5 C 14 37.103594 15.103594 36 16.5 36 z"/></svg>