<svg xmlns="http://www.w3.org/2000/svg"  viewBox="0 0 48 48" width="64px" height="64px" fill="#7b7979"><path d="M 20.5 4 C 18.032499 4 16 6.0324991 16 8.5 L 16 15 L 4.5 15 A 1.50015 1.50015 0 0 0 3 16.5 L 3 27.5 A 1.50015 1.50015 0 0 0 4.5 29 L 16 29 L 16 39.5 C 16 41.967501 18.032499 44 20.5 44 L 36.5 44 C 38.967501 44 41 41.967501 41 39.5 L 41 8.5 C 41 6.0324991 38.967501 4 36.5 4 L 20.5 4 z M 20.5 7 L 36.5 7 C 37.346499 7 38 7.6535009 38 8.5 L 38 39.5 C 38 40.346499 37.346499 41 36.5 41 L 20.5 41 C 19.653501 41 19 40.346499 19 39.5 L 19 29 L 27.5 29 A 1.50015 1.50015 0 0 0 29 27.5 L 29 16.5 A 1.50015 1.50015 0 0 0 27.5 15 L 19 15 L 19 8.5 C 19 7.6535009 19.653501 7 20.5 7 z M 6 18 L 17.253906 18 A 1.50015 1.50015 0 0 0 17.740234 18 L 26 18 L 26 26 L 17.746094 26 A 1.50015 1.50015 0 0 0 17.259766 26 L 6 26 L 6 18 z M 10 20 A 2 2 0 0 0 10 24 A 2 2 0 0 0 10 20 z M 16 20 A 2 2 0 0 0 16 24 A 2 2 0 0 0 16 20 z M 22 20 A 2 2 0 0 0 22 24 A 2 2 0 0 0 22 20 z M 25.5 35 A 1.50015 1.50015 0 1 0 25.5 38 L 31.5 38 A 1.50015 1.50015 0 1 0 31.5 35 L 25.5 35 z"/></svg>