<svg xmlns="http://www.w3.org/2000/svg"  viewBox="0 0 48 48" width="64px" height="64px" fill="#7b7979"><path d="M 24 4 C 12.972 4 4 12.972 4 24 C 4 32.183 8.945 39.225359 16 42.318359 L 16 38.990234 C 10.65 36.124234 7 30.483 7 24 C 7 14.626 14.626 7 24 7 C 33.374 7 41 14.626 41 24 C 41 30.483 37.35 36.125187 32 38.992188 L 32 42.318359 C 39.055 39.224359 44 32.183 44 24 C 44 12.972 35.028 4 24 4 z M 14.984375 12.986328 A 1.0001 1.0001 0 0 0 14 14 L 14 20.5 L 14 22.5 C 14 25.009633 15.69634 27.131081 18 27.787109 L 18 42.5 A 1.50015 1.50015 0 1 0 21 42.5 L 21 27.787109 C 23.30366 27.131081 25 25.009633 25 22.5 L 25 20 L 25 14 A 1.0001 1.0001 0 1 0 23 14 L 23 20 L 23 20.5 C 23 20.786937 22.786937 21 22.5 21 L 21 21 C 20.713063 21 20.5 20.786937 20.5 20.5 L 20.5 14 A 1.0001 1.0001 0 1 0 18.5 14 L 18.5 20.5 C 18.5 20.786937 18.286937 21 18 21 L 16.5 21 C 16.213063 21 16 20.786937 16 20.5 L 16 20 L 16 14 A 1.0001 1.0001 0 0 0 14.984375 12.986328 z M 28.113281 13.007812 C 27.929531 12.986937 27.738906 13.016609 27.566406 13.099609 C 27.219406 13.265609 27 13.616 27 14 L 27 32.400391 L 27 42.5 A 1.50015 1.50015 0 1 0 30 42.5 L 30 31.814453 L 32.238281 29.576172 C 32.729281 29.085172 33 28.432281 33 27.738281 L 33 26.800781 C 33 16.834781 28.803 13.362703 28.625 13.220703 C 28.4745 13.100203 28.297031 13.028688 28.113281 13.007812 z"/></svg>