<svg xmlns="http://www.w3.org/2000/svg"  viewBox="0 0 48 48" width="64px" height="64px"><path d="M 20.507812 4 C 20.416646 3.9991582 20.323344 4.0074375 20.230469 4.0234375 C 19.763469 4.1084375 17.397734 4.5395781 16.677734 4.7675781 C 11.156734 6.5215781 9.9960938 11.202359 9.9960938 14.818359 L 9.9960938 16.503906 L 9.9960938 16.509766 C 10.001094 18.435766 11.685906 20 13.753906 20 L 14.996094 20 L 14.996094 25.201172 C 15.536094 24.825172 16.101672 24.361641 16.763672 23.806641 L 17 23.607422 C 17.299 23.359422 17.641094 23.204953 17.996094 23.126953 L 17.996094 14.681641 C 17.996094 13.853641 17.324094 13.181641 16.496094 13.181641 C 15.668094 13.181641 14.996094 13.853641 14.996094 14.681641 L 14.996094 17 L 13.753906 17 C 13.385906 17 12.996094 16.743 12.996094 16.5 L 12.996094 14.818359 C 12.996094 9.6793594 15.615938 8.2549063 17.585938 7.6289062 C 17.857937 7.5419063 18.756578 7.3565469 19.642578 7.1855469 C 20.470578 8.5425469 22.038094 10 24.496094 10 C 26.908094 10 28.464687 8.5977188 29.304688 7.2617188 C 29.818687 7.3997187 30.342375 7.5439063 30.609375 7.6289062 C 31.922375 8.0459062 34.998047 9.0207969 34.998047 14.716797 L 34.998047 16.398438 C 34.998047 16.730438 34.748406 17.001953 34.441406 17.001953 L 32.998047 17.001953 L 32.998047 14.501953 C 32.998047 13.673953 32.326047 13.001953 31.498047 13.001953 C 30.670047 13.001953 29.998047 13.673953 29.998047 14.501953 L 29.998047 22.994141 C 30.225047 23.053141 30.443719 23.1565 30.636719 23.3125 C 31.577719 24.0945 32.304125 24.633297 32.953125 25.029297 C 32.980125 24.916297 32.998047 24.800688 32.998047 24.679688 L 32.998047 20 L 34.441406 20 C 36.400406 20 37.994047 18.38925 37.998047 16.40625 L 37.998047 16.400391 L 37.998047 14.716797 C 37.998047 9.4807969 35.817531 6.1325781 31.519531 4.7675781 C 30.823531 4.5465781 28.950094 4.067875 28.871094 4.046875 C 28.114094 3.851875 27.332172 4.2844844 27.076172 5.0214844 C 27.004172 5.2254844 26.334094 7 24.496094 7 C 22.658094 7 21.989828 5.2242031 21.923828 5.0332031 C 21.720828 4.4110781 21.145975 4.0058926 20.507812 4 z M 26.496094 13 A 1.5 1.5 0 0 0 26.496094 16 A 1.5 1.5 0 0 0 26.496094 13 z M 22.996094 17 A 2 2 0 0 0 22.996094 21 A 2 2 0 0 0 22.996094 17 z M 9.5527344 20.039062 C 9.4529316 20.035293 9.3505469 20.040016 9.2480469 20.056641 C 8.4320469 20.195641 7.8815312 20.968156 8.0195312 21.785156 L 10.964844 39.244141 C 11.428844 41.999141 13.810906 44 16.628906 44 L 31.365234 44 C 34.183234 44 36.564297 42.000094 37.029297 39.246094 L 39.976562 21.785156 C 40.114562 20.968156 39.562094 20.194641 38.746094 20.056641 C 37.925094 19.923641 37.155578 20.468156 37.017578 21.285156 L 35.884766 28 L 35.146484 28 C 33.126484 28 32.030891 26.997703 30.587891 25.470703 C 30.021891 24.868703 28.97325 24.868703 28.40625 25.470703 L 28.259766 25.626953 C 27.011766 26.951953 26.023094 28 23.996094 28 C 21.969094 28 20.982375 26.951953 19.734375 25.626953 L 19.587891 25.470703 C 19.021891 24.868703 17.97325 24.868703 17.40625 25.470703 C 15.96425 26.997703 14.867609 28 12.849609 28 L 12.109375 28 L 10.976562 21.285156 C 10.854938 20.570281 10.251354 20.065449 9.5527344 20.039062 z M 18.488281 28.644531 C 19.743281 29.854531 21.375047 31 23.998047 31 C 26.621047 31 28.252813 29.853531 29.507812 28.644531 C 30.789813 29.842531 32.516484 31 35.146484 31 L 35.378906 31 L 34.070312 38.746094 C 33.851312 40.052094 32.714234 41 31.365234 41 L 16.628906 41 C 15.279906 41 14.143828 40.053094 13.923828 38.746094 L 12.615234 31 L 12.849609 31 C 15.479609 31 17.204281 29.842531 18.488281 28.644531 z"/></svg>