<svg xmlns="http://www.w3.org/2000/svg" width="100" height="100"
    style="width:100%;height:100%;transform:translate3d(0,0,0);content-visibility:visible"
    viewBox="0 0 500 500">
    <defs>
        <clipPath id="a">
            <path d="M0 0h500v500H0z" />
        </clipPath>
    </defs>
    <g clip-path="url(#a)">
        <g fill="none" stroke-linecap="round" stroke-linejoin="round" stroke-width="10"
            style="display:block">
            <path stroke="#ec0000" d="M251.658 129.911h-95.061l-26.687 40.03v68.71m0-68.711h95.464" />
            <path stroke="#121330"
                d="m223.313 252.659-53.373-56.032-53.373 56.032v157.46h106.746v-157.46z" />
            <path stroke="#ec0000"
                d="M149.925 303.373h40.03v-42.698h-40.03v42.698zm229.58-122.434h-155.94m-.251 24.109h156.444" />
            <path stroke="#121330"
                d="M253.436 270.809h36.39v-33.152h-36.39v33.152zm59.807 0h36.39v-33.152h-36.39v33.152zm-59.807 55.641h36.39v-33.152h-36.39v33.152zm59.807 0h36.39v-33.152h-36.39v33.152zm-59.807 55.64h36.39v-33.152h-36.39v33.152zm59.807 0h36.39v-33.152h-36.39v33.152z" />
            <path stroke="#ec0000" d="M149.925 378.095h40.03v-42.698h-40.03v42.698z" />
            <path stroke="#121330"
                d="M326.072 152.817H277m51.025-34.208c29.85 8.38 51.73 35.8 51.73 68.33v223.18h-156.44v-223.18c0-32.53 21.88-59.95 51.73-68.33l26.49-28.54 26.49 28.54z" />
        </g>
        <g fill="none" style="display:none">
            <path />
            <path />
        </g>
        <path fill="none" style="display:none" />
        <g fill="none" style="display:none">
            <path />
            <path />
            <path />
            <path />
        </g>
        <path fill="none" style="display:none" />
        <path fill="none" style="display:none" />
        <path fill="none" style="display:none" />
        <path fill="none" style="display:none" />
        <path fill="none" style="display:none" />
        <path fill="none" style="display:none" />
        <path fill="none" style="display:none" />
        <path fill="none" style="display:none" />
        <g class="com" style="display:none">
            <path />
            <path />
            <path />
            <path />
            <path />
            <path />
            <path />
            <path />
            <path />
            <path />
            <path />
            <path />
        </g>
    </g>
</svg>