<svg xmlns="http://www.w3.org/2000/svg" width="100" height="100"
    style="width:100%;height:100%;transform:translate3d(0,0,0);content-visibility:visible"
    viewBox="0 0 500 500">
    <defs>
        <clipPath id="a">
            <path d="M0 0h500v500H0z" />
        </clipPath>
    </defs>
    <g clip-path="url(#a)">
        <path fill="none" stroke="#ec0000" stroke-linecap="round" stroke-linejoin="round"
            stroke-width="10.04"
            d="m211.533 261.76-36.976 27.244 36.976 27.245m90.934-54.489 36.976 27.244-36.976 27.245m-37.045-54.489-17.656 54.489"
            style="display:block" />
        <path fill="none" stroke="#121330" stroke-linecap="round" stroke-linejoin="round"
            stroke-width="2.5"
            d="M34.663-13.18C29.536-25.199 17.614-33.625 3.722-33.625c-12.984 0-24.241 7.364-29.844 18.139A10.43 10.43 0 0 0-29.354-16c-5.779 0-10.463 4.685-10.463 10.464 0 .774.09 1.526.249 2.252-6.227 3.278-10.479 9.802-10.479 17.328 0 10.814 8.767 19.581 19.581 19.581h56.271c13.388 0 24.242-10.853 24.242-24.241 0-10.261-6.379-19.026-15.384-22.564z"
            style="display:block" transform="matrix(3.5 0 0 3.5 250 247.375)" />
        <path fill="none" stroke="#121330" stroke-linecap="round" stroke-linejoin="round"
            stroke-width="2.5"
            d="M-19.496-9.07c-1.457-4.037-5.312-6.93-9.851-6.93m63.933 2.588A33.513 33.513 0 0 1 37.367 0s.011 3.551-1.221 7.909"
            style="display:block" transform="matrix(3.5 0 0 3.5 250.301 247.375)" />
        <g class="com" style="display:none">
            <path />
            <path />
            <path />
            <path />
            <path />
            <path />
            <path />
            <path />
            <path />
            <path />
            <path />
            <path />
        </g>
    </g>
</svg>