<svg xmlns="http://www.w3.org/2000/svg" width="100" height="100"
    style="width:100%;height:100%;transform:translate3d(0,0,0);content-visibility:visible"
    viewBox="0 0 500 500">
    <defs>
        <clipPath id="e">
            <path d="M0 0h500v500H0z" />
        </clipPath>
        <clipPath id="f">
            <path d="M0 0h500v500H0z" />
        </clipPath>
        <filter id="a" width="100%" height="100%" x="0%" y="0%" filterUnits="objectBoundingBox">
            <feComponentTransfer in="SourceGraphic">
                <feFuncA tableValues="1.0 0.0" type="table" />
            </feComponentTransfer>
        </filter>
        <filter id="c" width="100%" height="100%" x="0%" y="0%" filterUnits="objectBoundingBox">
            <feComponentTransfer in="SourceGraphic">
                <feFuncA tableValues="1.0 0.0" type="table" />
            </feComponentTransfer>
        </filter>
        <mask id="h" mask-type="alpha">
            <g filter="url(#a)">
                <path fill="#fff" d="M0 0h500v500H0z" opacity="0" />
                <use xmlns:ns1="http://www.w3.org/1999/xlink" ns1:href="#b" />
            </g>
        </mask>
        <mask id="g" mask-type="alpha">
            <g filter="url(#c)">
                <path fill="#fff" d="M0 0h500v500H0z" opacity="0" />
                <use xmlns:ns2="http://www.w3.org/1999/xlink" ns2:href="#d" />
            </g>
        </mask>
        <path id="d" fill="#FFF"
            d="M-78.005-6.501c0-43.081 34.924-78.006 78.005-78.006 43.081 0 78.005 34.925 78.005 78.006S43.081 71.504 0 71.504c-43.081 0-78.005-34.924-78.005-78.005z"
            style="display:block" transform="translate(250 338.615)" />
        <g id="b" style="display:block">
            <path fill-opacity="0" stroke="#08A789" stroke-linecap="round" stroke-linejoin="round"
                stroke-width="0" d="m335.335 90.161-83.748 207.23" />
            <path fill-opacity="0" stroke="#121331" stroke-linecap="round" stroke-linejoin="round"
                stroke-width="0"
                d="M378.933 89.881S319.5 235 292.524 303.373c-33.524.127-85.397 0-85.397 0l86.409-213.492" />
            <path fill="#FFF"
                d="M121.067 89.881S180.5 237 207.476 303.373c24.524.627 61.524.127 85.397 0C262 227.5 206.464 89.881 206.464 89.881" />
            <path fill-opacity="0" stroke="#121331" stroke-linecap="round" stroke-linejoin="round"
                stroke-width="0"
                d="M121.067 89.881S180.5 237 207.476 303.373c24.524.627 61.524.127 85.397 0C262 227.5 206.464 89.881 206.464 89.881" />
            <path fill-opacity="0" stroke="#08A789" stroke-linecap="round" stroke-linejoin="round"
                stroke-width="0" d="m164.256 89.881 83.748 207.23" />
        </g>
    </defs>
    <g clip-path="url(#e)">
        <g fill="none" stroke-linecap="round" stroke-linejoin="round" stroke-width="10"
            clip-path="url(#f)" mask="url(#g)" style="display:block">
            <g mask="url(#h)" style="display:block">
                <path stroke="#ec0000" d="m335.335 90.161-83.748 207.23" />
                <path stroke="#121330"
                    d="M378.933 89.881S319.5 235 292.524 303.373c-33.524.127-85.397 0-85.397 0l86.409-213.492" />
            </g>
            <g style="display:block">
                <path stroke="#121330"
                    d="M121.067 89.881S180.5 237 207.476 303.373c24.524.627 61.524.127 85.397 0C262 227.5 206.464 89.881 206.464 89.881" />
                <path stroke="#ec0000" d="m164.256 89.881 83.748 207.23" />
            </g>
        </g>
        <g fill="none" stroke-linecap="round" stroke-linejoin="round" stroke-width="10"
            style="display:block">
            <path stroke="#121330"
                d="M171.995 332.114c0-43.081 34.924-78.005 78.005-78.005 43.081 0 78.005 34.924 78.005 78.005 0 43.081-34.924 78.005-78.005 78.005-43.081 0-78.005-34.924-78.005-78.005z" />
            <path stroke="#121330" stroke-dasharray="0.1 28"
                d="M196.719 332.114c0-29.427 23.854-53.281 53.281-53.281s53.281 23.854 53.281 53.281-23.854 53.281-53.281 53.281-53.281-23.854-53.281-53.281z" />
            <path stroke="#ec0000" d="m238.406 323.662 14.46-14.46v45.824" />
        </g>
        <path style="display:none" />
    </g>
</svg>