<svg xmlns="http://www.w3.org/2000/svg" width="500" height="500"
    style="width:100%;height:100%;transform:translate3d(0,0,0);content-visibility:visible"
    viewBox="0 0 500 500">
    <defs>
        <clipPath id="a">
            <path d="M0 0h500v500H0z" />
        </clipPath>
        <clipPath id="c">
            <path d="M0 0h500v500H0z" />
        </clipPath>
        <clipPath id="b">
            <path d="M0 0h500v500H0z" />
        </clipPath>
    </defs>
    <g clip-path="url(#a)">
        <g clip-path="url(#b)" opacity="0" style="display:block">
            <g fill="none" stroke-linecap="round" stroke-linejoin="round" opacity="1"
                style="display:block">
                <path stroke="#121330" stroke-width="12"
                    d="M387.712 410.12H112.288c-12.375 0-22.407-10.033-22.407-22.408V112.288c0-12.375 10.032-22.407 22.407-22.407h275.424c12.375 0 22.407 10.032 22.407 22.407v275.424c0 12.375-10.032 22.408-22.407 22.408zm20.407-268.866H89.881"
                    opacity="1" />
                <path stroke="#07A889" stroke-width="15"
                    d="M177.864 115.567H178m-56.432 0h.136m28.012 0h.136" opacity="1" />
                <path stroke="#07A889" stroke-width="12"
                    d="M247.76 328.335H338m-167.996 0 52.648-52.649-52.648-52.649" opacity="1" />
            </g>
            <g opacity="1" style="display:block">
                <g opacity="0">
                    <path fill="none" stroke="#121330" stroke-linecap="round"
                        stroke-linejoin="round" stroke-width="12"
                        d="M168.521 378.433h-.227m-.052 0H168" opacity="1" />
                </g>
                <g opacity="0">
                    <path fill="none" stroke="#121330" stroke-linecap="round"
                        stroke-linejoin="round" stroke-width="12"
                        d="M168.128 355.375H168m.179 0h-.002m.345 0h-.294" opacity="1" />
                </g>
                <g opacity="0">
                    <path fill="none" stroke="#121330" stroke-linecap="round"
                        stroke-linejoin="round" stroke-width="12"
                        d="M146.459 330.374h.006m-.01 0h-.008m.01 0h-.001m-.009-.314s0 0 0 0m-.002 0s0 0 0 0"
                        opacity="1" />
                </g>
                <path fill="none" stroke="#121330" stroke-linecap="round" stroke-linejoin="round"
                    stroke-width="12" d="M146.557 305.373h.022" opacity="0" />
                <g fill="none" stroke-linecap="round" stroke-linejoin="round" stroke-width="12"
                    opacity="0">
                    <path stroke="#07A788"
                        d="M119.552 276.372s0 0 0 0m.015 0s0 0 0 0m-.007 0s0 0 0 0" opacity="1" />
                    <path stroke="#07A889" d="M119.546 276.372h-.046" opacity="1" />
                </g>
                <g opacity="0">
                    <path fill="none" stroke="#121330" stroke-linecap="round"
                        stroke-linejoin="round" stroke-width="12"
                        d="M146.567 249.839h-.033m-.005 0h-.029" opacity="1" />
                </g>
                <g opacity="0">
                    <path fill="none" stroke="#121330" stroke-linecap="round"
                        stroke-linejoin="round" stroke-width="12"
                        d="M146.512 224.206h-.012m.018 0s0 0 0 0m.049 0h-.044" opacity="1" />
                </g>
                <g opacity="0">
                    <path fill="none" stroke="#121330" stroke-linecap="round"
                        stroke-linejoin="round" stroke-width="12"
                        d="M146.561 197.573h-.011m.017 0s0 0 0 0m-.03 0h-.011m.017 0s0 0 0 0"
                        opacity="1" />
                </g>
                <g opacity="0">
                    <path fill="none" stroke="#ec0000" stroke-linecap="round"
                        stroke-linejoin="round" stroke-width="12"
                        d="M119.568 169.94h-.019m-.012 0h-.012m.018 0s0 0 0 0" opacity="1" />
                </g>
            </g>
        </g>
        <g fill="none" stroke-linecap="round" stroke-linejoin="round" clip-path="url(#c)"
            style="display:block">
            <path stroke="#121330" stroke-width="12"
                d="M387.712 410.12H112.288c-12.375 0-22.407-10.033-22.407-22.408V112.288c0-12.375 10.032-22.407 22.407-22.407h275.424c12.375 0 22.407 10.032 22.407 22.407v275.424c0 12.375-10.032 22.408-22.407 22.408zm20.407-268.866H89.881" />
            <path stroke="#ec0000" stroke-width="15"
                d="M177.864 115.567H178m-56.432 0h.136m28.012 0h.136" />
            <path stroke="#ec0000" stroke-width="12"
                d="M247.76 328.335H338m-167.996 0 52.648-52.649-52.648-52.649" />
        </g>
        <path style="display:none" />
    </g>
</svg>