<svg xmlns="http://www.w3.org/2000/svg" width="100" height="100"
    style="width:100%;height:100%;transform:translate3d(0,0,0);content-visibility:visible"
    viewBox="0 0 500 500">
    <defs>
        <filter id="a" width="100%" height="100%" x="0%" y="0%" filterUnits="objectBoundingBox">
            <feComponentTransfer in="SourceGraphic">
                <feFuncA tableValues="1.0 0.0" type="table" />
            </feComponentTransfer>
        </filter>
        <filter id="c" width="100%" height="100%" x="0%" y="0%" filterUnits="objectBoundingBox">
            <feComponentTransfer in="SourceGraphic">
                <feFuncA tableValues="1.0 0.0" type="table" />
            </feComponentTransfer>
        </filter>
        <mask id="g" mask-type="alpha">
            <g filter="url(#a)">
                <path fill="#fff" d="M0 0h500v500H0z" opacity="0" />
                <use xmlns:ns1="http://www.w3.org/1999/xlink" ns1:href="#b" />
            </g>
        </mask>
        <mask id="f" mask-type="alpha">
            <g filter="url(#c)">
                <path fill="#fff" d="M0 0h500v500H0z" opacity="0" />
                <use xmlns:ns2="http://www.w3.org/1999/xlink" ns2:href="#d" />
            </g>
        </mask>
        <g id="b" style="display:block">
            <path fill="#FFF"
                d="M226.091 361.576h41.236c22.774 0 41.237 18.462 41.237 41.236v13.795a7.452 7.452 0 0 1-6.596 7.403l-14.43 1.67a42.32 42.32 0 0 0-11.463 2.995 76.525 76.525 0 0 1-58.888.06l-.099-.041a44.431 44.431 0 0 0-11.958-3.109l-13.677-1.577a7.452 7.452 0 0 1-6.599-7.403v-13.793c0-22.774 18.463-41.236 41.237-41.236z" />
            <path fill-opacity="0" stroke="#121330" stroke-linecap="round" stroke-linejoin="round"
                stroke-width="0"
                d="M226.091 361.576h41.236c22.774 0 41.237 18.462 41.237 41.236v13.795a7.452 7.452 0 0 1-6.596 7.403l-14.43 1.67a42.32 42.32 0 0 0-11.463 2.995s0 0 0 0a76.525 76.525 0 0 1-58.888.06l-.099-.041a44.431 44.431 0 0 0-11.958-3.109l-13.677-1.577a7.452 7.452 0 0 1-6.599-7.403v-13.793c0-22.774 18.463-41.236 41.237-41.236z" />
            <path fill="#FFF"
                d="M245.745 251.549h1.928c16.76 0 30.181 13.895 29.598 30.645l-.964 27.713c-.555 15.946-13.643 28.586-29.598 28.586-15.955 0-29.043-12.64-29.598-28.586l-.964-27.713c-.583-16.75 12.838-30.645 29.598-30.645z" />
            <path fill-opacity="0" stroke="#121330" stroke-linecap="round" stroke-linejoin="round"
                stroke-width="0"
                d="M245.745 251.549h1.928c16.76 0 30.181 13.895 29.598 30.645l-.964 27.713c-.555 15.946-13.643 28.586-29.598 28.586 0 0 0 0 0 0-15.955 0-29.043-12.64-29.598-28.586l-.964-27.713c-.583-16.75 12.838-30.645 29.598-30.645z" />
        </g>
        <g id="d" style="display:block">
            <path fill="#FFF"
                d="M226.091 361.576h41.236c22.774 0 41.237 18.462 41.237 41.236v13.795a7.452 7.452 0 0 1-6.596 7.403l-14.43 1.67a42.32 42.32 0 0 0-11.463 2.995 76.525 76.525 0 0 1-58.888.06l-.099-.041a44.431 44.431 0 0 0-11.958-3.109l-13.677-1.577a7.452 7.452 0 0 1-6.599-7.403v-13.793c0-22.774 18.463-41.236 41.237-41.236z" />
            <path fill-opacity="0" stroke="#121330" stroke-linecap="round" stroke-linejoin="round"
                stroke-width="0"
                d="M226.091 361.576h41.236c22.774 0 41.237 18.462 41.237 41.236v13.795a7.452 7.452 0 0 1-6.596 7.403l-14.43 1.67a42.32 42.32 0 0 0-11.463 2.995s0 0 0 0a76.525 76.525 0 0 1-58.888.06l-.099-.041a44.431 44.431 0 0 0-11.958-3.109l-13.677-1.577a7.452 7.452 0 0 1-6.599-7.403v-13.793c0-22.774 18.463-41.236 41.237-41.236z" />
            <path fill="#FFF"
                d="M245.745 251.549h1.928c16.76 0 30.181 13.895 29.598 30.645l-.964 27.713c-.555 15.946-13.643 28.586-29.598 28.586-15.955 0-29.043-12.64-29.598-28.586l-.964-27.713c-.583-16.75 12.838-30.645 29.598-30.645z" />
            <path fill-opacity="0" stroke="#121330" stroke-linecap="round" stroke-linejoin="round"
                stroke-width="0"
                d="M245.745 251.549h1.928c16.76 0 30.181 13.895 29.598 30.645l-.964 27.713c-.555 15.946-13.643 28.586-29.598 28.586 0 0 0 0 0 0-15.955 0-29.043-12.64-29.598-28.586l-.964-27.713c-.583-16.75 12.838-30.645 29.598-30.645z" />
        </g>
        <clipPath id="e">
            <path d="M0 0h500v500H0z" />
        </clipPath>
    </defs>
    <g clip-path="url(#e)">
        <g mask="url(#f)" style="display:block">
            <path fill="none" stroke="#121330" stroke-linecap="round" stroke-linejoin="round"
                stroke-width="10.04"
                d="M329.479 362.616h32.556c17.98 0 32.557 14.576 32.557 32.556v10.892a5.884 5.884 0 0 1-5.208 5.845l-11.392 1.317a33.4 33.4 0 0 0-9.05 2.365h-.001a60.417 60.417 0 0 1-46.492.048l-.078-.033a35.052 35.052 0 0 0-9.441-2.454l-10.798-1.245a5.884 5.884 0 0 1-5.21-5.845v-10.89c0-17.98 14.577-32.556 32.557-32.556zm15.557-86.868h1.442c12.543 0 22.587 10.4 22.151 22.935l-.721 20.741c-.415 11.934-10.21 21.394-22.151 21.394 0 0 0 0 0 0-11.941 0-21.736-9.46-22.151-21.394l-.721-20.741c-.436-12.535 9.608-22.935 22.151-22.935z" />
        </g>
        <g mask="url(#g)" style="display:block">
            <path fill="none" stroke="#121330" stroke-linecap="round" stroke-linejoin="round"
                stroke-width="10.04"
                d="M133.18 362.616h32.556c17.98 0 32.557 14.576 32.557 32.556v10.892a5.884 5.884 0 0 1-5.208 5.845l-11.392 1.317a33.4 33.4 0 0 0-9.05 2.365h-.001a60.417 60.417 0 0 1-46.492.048l-.078-.033a35.052 35.052 0 0 0-9.441-2.454l-10.798-1.245a5.884 5.884 0 0 1-5.21-5.845v-10.89c0-17.98 14.577-32.556 32.557-32.556zm15.557-86.868h1.442c12.543 0 22.587 10.4 22.151 22.935l-.721 20.741c-.415 11.934-10.21 21.394-22.151 21.394 0 0 0 0 0 0-11.941 0-21.736-9.46-22.151-21.394l-.721-20.741c-.436-12.535 9.608-22.935 22.151-22.935z" />
        </g>
        <path fill="none" stroke="#121330" stroke-linecap="round" stroke-linejoin="round"
            stroke-width="10.04"
            d="M226.091 361.576h41.236c22.774 0 41.237 18.462 41.237 41.236v13.795a7.452 7.452 0 0 1-6.596 7.403l-14.43 1.67a42.32 42.32 0 0 0-11.463 2.995s0 0 0 0a76.525 76.525 0 0 1-58.888.06l-.099-.041a44.431 44.431 0 0 0-11.958-3.109l-13.677-1.577a7.452 7.452 0 0 1-6.599-7.403v-13.793c0-22.774 18.463-41.236 41.237-41.236zm19.654-110.027h1.928c16.76 0 30.181 13.895 29.598 30.645l-.964 27.713c-.555 15.946-13.643 28.586-29.598 28.586 0 0 0 0 0 0-15.955 0-29.043-12.64-29.598-28.586l-.964-27.713c-.583-16.75 12.838-30.645 29.598-30.645z"
            style="display:block" />
        <g fill="none" stroke-linecap="round" stroke-linejoin="round" stroke-width="10.04"
            style="display:block">
            <path stroke="#121330"
                d="m208.491 174.465 41.595 41.595 41.607-41.595h53.621c6.782 0 12.28-5.497 12.28-12.279V75.674c0-6.782-5.498-12.28-12.28-12.28H154.186c-6.782 0-12.28 5.498-12.28 12.28v86.512c0 6.782 5.498 12.279 12.28 12.279h54.305z" />
            <path stroke="#ec0000" d="M274.499 120.156h-49.498m24.749 24.749V95.407" />
        </g>
        <g class="com" style="display:none">
            <path />
            <path />
            <path />
            <path />
            <path />
            <path />
            <path />
            <path />
            <path />
            <path />
            <path />
            <path />
        </g>
    </g>
</svg>