<svg xmlns="http://www.w3.org/2000/svg" width="100" height="100"
    style="width:100%;height:100%;transform:translate3d(0,0,0);content-visibility:visible"
    viewBox="0 0 500 500">
    <defs>
        <clipPath id="a">
            <path d="M0 0h500v500H0z" />
        </clipPath>
        <clipPath id="f">
            <path d="M0 0h500v500H0z" />
        </clipPath>
        <clipPath id="g">
            <path d="M0 0h500v500H0z" />
        </clipPath>
        <clipPath id="d">
            <path d="M0 0h500v500H0z" />
        </clipPath>
        <clipPath id="e">
            <path d="M0 0h500v500H0z" />
        </clipPath>
        <clipPath id="b">
            <path d="M0 0h500v500H0z" />
        </clipPath>
        <clipPath id="c">
            <path d="M0 0h500v500H0z" />
        </clipPath>
    </defs>
    <g clip-path="url(#a)">
        <g fill="none" clip-path="url(#b)" opacity="0" style="display:block"
            transform="translate(-27.777 -27.777) scale(1.11111)">
            <g clip-path="url(#c)" opacity="1" style="display:block"
                transform="matrix(.9 0 0 .9 25 25)">
                <path style="display:none" />
                <path style="display:none" />
                <path style="display:none" />
                <path style="display:none" />
                <path style="display:none" />
                <path style="display:none" />
                <path style="display:none" />
                <path stroke="#ec0000" stroke-linecap="round" stroke-linejoin="round"
                    stroke-width="2.5"
                    d="M126.667 50c-17.029 0-30.834-22.386-30.834-50s13.805-50 30.834-50m0 100c.083-8.75.166-22.386.166-50s-.083-34.25-.166-50"
                    opacity="1" style="display:block"
                    transform="matrix(3.69 0 0 3.69 -217.488 249.997)" />
                <path stroke="#ec0000" stroke-linecap="round" stroke-linejoin="round"
                    stroke-width="2.5"
                    d="M126.667 50C144.248 50 158.5 27.614 158.5 0s-14.252-50-31.833-50m-50 50h100"
                    opacity="1" style="display:block"
                    transform="matrix(3.69 0 0 3.69 -217.488 249.997)" />
                <path stroke="#ec0000" stroke-linecap="round" stroke-linejoin="round"
                    stroke-width="2.5"
                    d="M158.993-38.138c-8.71 4.56-19.99 7.31-32.32 7.31-12.33 0-23.61-2.75-32.33-7.31m0 76.278c8.71-4.56 19.99-7.31 32.32-7.31 12.33 0 23.61 2.75 32.33 7.31"
                    opacity="1" style="display:block"
                    transform="matrix(3.69 0 0 3.69 -217.484 249.997)" />
            </g>
            <path stroke="#121330" stroke-linecap="round" stroke-linejoin="round" stroke-width="2.5"
                d="M176.667 0c0 27.614-22.386 50-50 50s-50-22.386-50-50 22.386-50 50-50 50 22.386 50 50z"
                opacity="1" style="display:block" transform="translate(-170.736 250) scale(3.321)" />
        </g>
        <g fill="none" clip-path="url(#d)" opacity="0" style="display:block"
            transform="translate(-27.777 -27.777) scale(1.11111)">
            <g clip-path="url(#e)" opacity="1" style="display:block"
                transform="matrix(.9 0 0 .9 25 25)">
                <path style="display:none" />
                <path style="display:none" />
                <path style="display:none" />
                <path style="display:none" />
                <path style="display:none" />
                <path style="display:none" />
                <path style="display:none" />
                <path stroke="#ec0000" stroke-linecap="round" stroke-linejoin="round"
                    stroke-width="2.5"
                    d="M126.667 50c-17.029 0-30.834-22.386-30.834-50s13.805-50 30.834-50m0 100c.083-8.75.166-22.386.166-50s-.083-34.25-.166-50"
                    opacity="1" style="display:block"
                    transform="matrix(3.69 0 0 3.69 -217.488 249.997)" />
                <path stroke="#ec0000" stroke-linecap="round" stroke-linejoin="round"
                    stroke-width="2.5"
                    d="M126.667 50C144.248 50 158.5 27.614 158.5 0s-14.252-50-31.833-50m-50 50h100"
                    opacity="1" style="display:block"
                    transform="matrix(3.69 0 0 3.69 -217.488 249.997)" />
                <path stroke="#ec0000" stroke-linecap="round" stroke-linejoin="round"
                    stroke-width="2.5"
                    d="M158.993-38.138c-8.71 4.56-19.99 7.31-32.32 7.31-12.33 0-23.61-2.75-32.33-7.31m0 76.278c8.71-4.56 19.99-7.31 32.32-7.31 12.33 0 23.61 2.75 32.33 7.31"
                    opacity="1" style="display:block"
                    transform="matrix(3.69 0 0 3.69 -217.484 249.997)" />
            </g>
            <path stroke="#121330" stroke-linecap="round" stroke-linejoin="round" stroke-width="2.5"
                d="M176.667 0c0 27.614-22.386 50-50 50s-50-22.386-50-50 22.386-50 50-50 50 22.386 50 50z"
                opacity="1" style="display:block" transform="translate(-170.736 250) scale(3.321)" />
        </g>
        <g fill="none" clip-path="url(#f)" style="display:block"
            transform="translate(-27.777 -27.777) scale(1.11111)">
            <g clip-path="url(#g)" style="display:block" transform="matrix(.9 0 0 .9 25 25)">
                <path style="display:none" />
                <path style="display:none" />
                <path style="display:none" />
                <path style="display:none" />
                <path style="display:none" />
                <path style="display:none" />
                <path style="display:none" />
                <path stroke="#ec0000" stroke-linecap="round" stroke-linejoin="round"
                    stroke-width="2.5"
                    d="M126.667 50c-17.029 0-30.834-22.386-30.834-50s13.805-50 30.834-50m0 100c.083-8.75.166-22.386.166-50s-.083-34.25-.166-50"
                    style="display:block" transform="matrix(3.69 0 0 3.69 -217.488 249.997)" />
                <path stroke="#ec0000" stroke-linecap="round" stroke-linejoin="round"
                    stroke-width="2.5"
                    d="M126.667 50C144.248 50 158.5 27.614 158.5 0s-14.252-50-31.833-50m-50 50h100"
                    style="display:block" transform="matrix(3.69 0 0 3.69 -217.488 249.997)" />
                <path stroke="#ec0000" stroke-linecap="round" stroke-linejoin="round"
                    stroke-width="2.5"
                    d="M158.993-38.138c-8.71 4.56-19.99 7.31-32.32 7.31-12.33 0-23.61-2.75-32.33-7.31m0 76.278c8.71-4.56 19.99-7.31 32.32-7.31 12.33 0 23.61 2.75 32.33 7.31"
                    style="display:block" transform="matrix(3.69 0 0 3.69 -217.484 249.997)" />
            </g>
            <path stroke="#121330" stroke-linecap="round" stroke-linejoin="round" stroke-width="2.5"
                d="M176.667 0c0 27.614-22.386 50-50 50s-50-22.386-50-50 22.386-50 50-50 50 22.386 50 50z"
                style="display:block" transform="translate(-170.736 250) scale(3.321)" />
        </g>
        <path style="display:none" />
    </g>
</svg>