<svg xmlns="http://www.w3.org/2000/svg" width="100" height="100"
    style="width:100%;height:100%;transform:translate3d(0,0,0);content-visibility:visible"
    viewBox="0 0 500 500">
    <defs>
        <clipPath id="a">
            <path d="M0 0h500v500H0z" />
        </clipPath>
    </defs>
    <g clip-path="url(#a)">
        <g fill="none" stroke-width="10" style="display:block">
            <path stroke="#121330" stroke-linecap="round" stroke-linejoin="round"
                d="M153.337 313.363s-8.476 1.087-12.28 5.805c-5.957 7.385-5.831 19.632 15.055 19.632H331.4" />
            <path stroke="#ec0000"
                d="M169.062 338.8c15.316 0 27.75 12.435 27.75 27.75s-12.434 27.75-27.75 27.75c-15.315 0-27.75-12.435-27.75-27.75s12.435-27.75 27.75-27.75zm164.188 0c15.315 0 27.75 12.435 27.75 27.75s-12.435 27.75-27.75 27.75-27.75-12.435-27.75-27.75 12.435-27.75 27.75-27.75z" />
        </g>
        <path fill="none" stroke="#121330" stroke-linecap="round" stroke-linejoin="round"
            stroke-width="2.5"
            d="M-47-38h6.875c3.794 0 7.618 4.419 8.534 9.862L-24 17m-6.939-45.027 66.439.023L46.125-28s0 0 0 0c.345 0 .516.377.382.84 0 0 0 0 0 0l-3.028 10.446L38.409.77c-1.536 5.301-7.236 10.112-12.72 10.737l-39.378 4.486c-5.484.625-10.68 1.484-11.596 1.917 0 0-.631-.491-1.659.784"
            style="display:block" transform="matrix(3.7 0 0 3.7 240.75 250)" />
        <g class="com" style="display:none">
            <path />
            <path />
            <path />
            <path />
            <path />
            <path />
            <path />
            <path />
            <path />
            <path />
            <path />
            <path />
        </g>
    </g>
</svg>