<svg xmlns="http://www.w3.org/2000/svg" width="100" height="100"
    style="width:100%;height:100%;transform:translate3d(0,0,0);content-visibility:visible"
    viewBox="0 0 500 500">
    <defs>
        <clipPath id="a">
            <path d="M0 0h500v500H0z" />
        </clipPath>
        <clipPath id="e">
            <path d="M0 0h500v500H0z" />
        </clipPath>
        <clipPath id="d">
            <path d="M0 0h500v500H0z" />
        </clipPath>
        <clipPath id="c">
            <path d="M0 0h500v500H0z" />
        </clipPath>
        <clipPath id="b">
            <path d="M0 0h500v500H0z" />
        </clipPath>
    </defs>
    <g clip-path="url(#a)">
        <g opacity="0" style="display:block">
            <g fill="none" stroke-linecap="round" stroke-linejoin="round" stroke-width="12.74"
                clip-path="url(#b)" opacity="1" style="display:block">
                <path stroke="#ec0000"
                    d="M304.963 218.14c0 30.355-24.608 54.96-54.964 54.96-30.355 0-54.964-24.605-54.964-54.96 0-30.356 24.609-54.964 54.964-54.964 30.356 0 54.964 24.608 54.964 54.964z"
                    opacity="1" />
                <path stroke="#121330"
                    d="M139.158 255.138c-3.77-11.665-5.978-24.07-5.978-37.005 0-67.064 56.525-120.929 124.572-116.547 57.69 3.714 104.59 50.274 108.745 107.933 1.085 15.05-.823 29.509-4.84 43.001C342.902 315.475 250.01 408.2 250.01 408.2s-87.437-80.619-110.852-153.062z"
                    opacity="1" />
            </g>
        </g>
        <g opacity="0" style="display:block">
            <g fill="none" stroke-linecap="round" stroke-linejoin="round" stroke-width="12.74"
                clip-path="url(#c)" opacity="1" style="display:block">
                <path stroke="#ec0000"
                    d="M304.963 218.14c0 30.355-24.608 54.96-54.964 54.96-30.355 0-54.964-24.605-54.964-54.96 0-30.356 24.609-54.964 54.964-54.964 30.356 0 54.964 24.608 54.964 54.964z"
                    opacity="1" />
                <path stroke="#121330"
                    d="M139.158 255.138c-3.77-11.665-5.978-24.07-5.978-37.005 0-67.064 56.525-120.929 124.572-116.547 57.69 3.714 104.59 50.274 108.745 107.933 1.085 15.05-.823 29.509-4.84 43.001C342.902 315.475 250.01 408.2 250.01 408.2s-87.437-80.619-110.852-153.062z"
                    opacity="1" />
            </g>
        </g>
        <g fill="none" stroke-linecap="round" stroke-linejoin="round" clip-path="url(#d)"
            opacity="0" style="display:block">
            <path stroke="#ec0000" stroke-width="12.6" d="M0 0" opacity="1" style="display:block"
                transform="translate(250 250)" />
            <g stroke-width="12.74" opacity="1" style="display:block">
                <path stroke="#ec0000"
                    d="M304.963 218.14c0 30.355-24.608 54.96-54.964 54.96-30.355 0-54.964-24.605-54.964-54.96 0-30.356 24.609-54.964 54.964-54.964 30.356 0 54.964 24.608 54.964 54.964z"
                    opacity="1" />
                <path stroke="#121330"
                    d="M139.158 255.138c-3.77-11.665-5.978-24.07-5.978-37.005 0-67.064 56.525-120.929 124.572-116.547 57.69 3.714 104.59 50.274 108.745 107.933 1.085 15.05-.823 29.509-4.84 43.001C342.902 315.475 250.01 408.2 250.01 408.2s-87.437-80.619-110.852-153.062z"
                    opacity="1" />
            </g>
        </g>
        <g fill="none" stroke-linecap="round" stroke-linejoin="round" clip-path="url(#e)"
            style="display:block">
            <path stroke="#ec0000" stroke-width="10.6" d="M0 0" style="display:block"
                transform="translate(250 250)" />
            <path stroke="#121330" stroke-width="2.64"
                d="M-31.669 6.468c-1.077-3.333-1.708-6.877-1.708-10.573 0-19.161 16.15-34.551 35.592-33.299 16.483 1.061 29.883 14.364 31.07 30.838.31 4.3-.235 8.431-1.383 12.286C26.544 23.707.003 50.2.003 50.2S-24.979 27.166-31.669 6.468z"
                style="display:block" transform="matrix(3.5 0 0 3.5 250 232.5)" />
            <path stroke="#ec0000" stroke-width="2.64"
                d="M15.704-4.103C15.704 4.57 8.673 11.6 0 11.6c-8.673 0-15.704-7.03-15.704-15.703 0-8.673 7.031-15.704 15.704-15.704 8.673 0 15.704 7.031 15.704 15.704z"
                style="display:block" transform="matrix(3.5 0 0 3.5 250 232.5)" />
        </g>
        <g class="com" style="display:none">
            <path />
            <path />
            <path />
            <path />
            <path />
            <path />
            <path />
            <path />
            <path />
            <path />
            <path />
            <path />
        </g>
    </g>
</svg>