<svg xmlns="http://www.w3.org/2000/svg" width="100" height="100"
    style="width:100%;height:100%;transform:translate3d(0,0,0);content-visibility:visible"
    viewBox="0 0 500 500">
    <defs>
        <clipPath id="g">
            <path d="M0 0h500v500H0z" />
        </clipPath>
        <clipPath id="m">
            <path d="M0 0h500v500H0z" />
        </clipPath>
        <clipPath id="p">
            <path d="M0 0h270v370H0z" />
        </clipPath>
        <clipPath id="n">
            <path d="M0 0h270v370H0z" />
        </clipPath>
        <clipPath id="h">
            <path d="M0 0h500v500H0z" />
        </clipPath>
        <clipPath id="l">
            <path d="M0 0h270v370H0z" />
        </clipPath>
        <clipPath id="j">
            <path d="M0 0h270v370H0z" />
        </clipPath>
        <filter id="a" width="100%" height="100%" x="0%" y="0%" filterUnits="objectBoundingBox">
            <feComponentTransfer in="SourceGraphic">
                <feFuncA tableValues="1.0 0.0" type="table" />
            </feComponentTransfer>
        </filter>
        <filter id="c" width="100%" height="100%" x="0%" y="0%" filterUnits="objectBoundingBox">
            <feComponentTransfer in="SourceGraphic">
                <feFuncA tableValues="1.0 0.0" type="table" />
            </feComponentTransfer>
        </filter>
        <filter id="e" width="100%" height="100%" x="0%" y="0%" filterUnits="objectBoundingBox">
            <feComponentTransfer in="SourceGraphic">
                <feFuncA tableValues="1.0 0.0" type="table" />
            </feComponentTransfer>
        </filter>
        <mask id="o" mask-type="alpha">
            <g filter="url(#a)">
                <path fill="#fff" d="M0 0h500v500H0z" opacity="0" />
                <use xmlns:ns1="http://www.w3.org/1999/xlink" ns1:href="#b" />
            </g>
        </mask>
        <mask id="k" mask-type="alpha">
            <g filter="url(#c)">
                <path fill="#fff" d="M0 0h500v500H0z" opacity="0" />
                <use xmlns:ns2="http://www.w3.org/1999/xlink" ns2:href="#d" />
            </g>
        </mask>
        <mask id="i" mask-type="alpha">
            <g filter="url(#e)">
                <path fill="#fff" d="M0 0h500v500H0z" opacity="0" />
                <use xmlns:ns3="http://www.w3.org/1999/xlink" ns3:href="#f" />
            </g>
        </mask>
        <g id="d" style="display:none">
            <path fill-opacity="0" />
            <path />
        </g>
        <g id="f" style="display:none">
            <path fill-opacity="0" />
            <path />
        </g>
        <path id="b" fill="red" d="M26.69-186.57h.06v106.81h106.68v-.06L26.69-186.57z"
            style="display:block" transform="translate(249 249.76)" />
    </defs>
    <g clip-path="url(#g)">
        <g clip-path="url(#h)" opacity="0" style="display:block">
            <g mask="url(#i)" style="display:block">
                <g clip-path="url(#j)" transform="translate(115 65)">
                    <g style="display:block">
                        <path d="M54.94 265.06h160.12" />
                        <path fill="none" stroke="#ec0000" stroke-linecap="round"
                            stroke-linejoin="round" stroke-width="12" d="M54.94 265.06h160.12" />
                        <path d="M161.686 318.433h53.374" />
                        <path fill="none" stroke="#ec0000" stroke-linecap="round"
                            stroke-linejoin="round" stroke-width="12" d="M161.686 318.433h53.374" />
                        <path d="M54.94 318.433H135" />
                        <path fill="none" stroke="#ec0000" stroke-linecap="round"
                            stroke-linejoin="round" stroke-width="12" d="M54.94 318.433H135" />
                    </g>
                    <path fill="none" stroke="#ec0000" stroke-linecap="round"
                        stroke-linejoin="round" stroke-width="12"
                        d="m35.806-27.485-5.2 32.28a40.798 40.798 0 0 1-14.271 22.431L0 40.03l-16.335-12.804A40.798 40.798 0 0 1-30.606 4.795l-5.2-32.28S-5.516-33.879 0-40.03c5.517 6.151 35.806 12.545 35.806 12.545z"
                        style="display:block" transform="translate(135 184.76)" />
                </g>
            </g>
            <g fill="none" stroke="#121330" stroke-linecap="round" stroke-linejoin="round"
                stroke-width="12" mask="url(#k)" style="display:block">
                <path d="M276.689 63.231v106.746h106.747m0 0L276.689 63.231" />
                <path d="M276.69 63.19H116.57v373.14h266.86V169.94" />
            </g>
            <g clip-path="url(#l)" style="display:none">
                <g style="display:none">
                    <path />
                    <path fill="none" />
                    <path />
                    <path fill="none" />
                    <path />
                    <path fill="none" />
                </g>
                <path fill="none" style="display:none" />
            </g>
            <path fill="none" style="display:none" />
            <path fill="none" style="display:none" />
            <path fill="none" style="display:none" />
            <g fill="none" style="display:none">
                <path />
                <path />
            </g>
            <g fill="none" style="display:none">
                <path />
                <path />
            </g>
        </g>
        <g clip-path="url(#m)" style="display:block">
            <g clip-path="url(#n)" style="display:none">
                <g style="display:none">
                    <path />
                    <path fill="none" />
                    <path />
                    <path fill="none" />
                    <path />
                    <path fill="none" />
                </g>
                <path fill="none" style="display:none" />
            </g>
            <g mask="url(#o)" style="display:block">
                <g clip-path="url(#p)" transform="translate(115 65)">
                    <g style="display:block">
                        <path d="M54.94 265.06h160.12" />
                        <path fill="none" stroke="#ec0000" stroke-linecap="round"
                            stroke-linejoin="round" stroke-width="12" d="M54.94 265.06h160.12" />
                        <path d="M161.686 318.433h53.374" />
                        <path fill="none" stroke="#ec0000" stroke-linecap="round"
                            stroke-linejoin="round" stroke-width="12" d="M161.686 318.433h53.374" />
                        <path d="M54.94 318.433H135" />
                        <path fill="none" stroke="#ec0000" stroke-linecap="round"
                            stroke-linejoin="round" stroke-width="12" d="M54.94 318.433H135" />
                    </g>
                    <path fill="none" stroke="#ec0000" stroke-linecap="round"
                        stroke-linejoin="round" stroke-width="12"
                        d="m35.806-27.485-5.2 32.28a40.798 40.798 0 0 1-14.271 22.431L0 40.03l-16.335-12.804A40.798 40.798 0 0 1-30.606 4.795l-5.2-32.28S-5.516-33.879 0-40.03c5.517 6.151 35.806 12.545 35.806 12.545z"
                        style="display:block" transform="translate(135 184.76)" />
                </g>
            </g>
            <g fill="none" stroke="#121330" stroke-linecap="round" stroke-linejoin="round"
                stroke-width="12" style="display:block">
                <path d="M276.69 63.19H116.57v373.14h266.86V169.94L276.69 63.19z" />
                <path d="M276.687 63.194V169.94h106.746" />
            </g>
            <path fill="none" stroke="#121330" stroke-linecap="round" stroke-linejoin="round"
                stroke-width="12"
                d="M-53.373-53.373s3.306 2.315 53 52.746c50.313 51.06 53.746 54 53.746 54"
                style="display:block" transform="translate(330.06 116.567)" />
        </g>
        <path style="display:none" />
    </g>
</svg>