<svg xmlns="http://www.w3.org/2000/svg" width="100" height="100"
    style="width:100%;height:100%;transform:translate3d(0,0,0);content-visibility:visible"
    viewBox="0 0 500 500">
    <defs>
        <clipPath id="a">
            <path d="M0 0h500v500H0z" />
        </clipPath>
    </defs>
    <g clip-path="url(#a)">
        <path fill="none" stroke="#ec0000" stroke-linecap="round" stroke-linejoin="round"
            stroke-width="10"
            d="M48.565-89.685v159.62c0 .26-.01.52-.02.78-.4 10.55-9.08 18.97-19.73 18.97s-19.33-8.42-19.73-18.97c-.01-.26-.02-.52-.02-.78v-44.32c0-3.48-1.97-6.52-4.87-8.03a8.967 8.967 0 0 0-4.2-1.03c-1.51 0-2.94.37-4.2 1.03a9.062 9.062 0 0 0-4.86 8.03v18.26c0 10.91-8.84 19.75-19.75 19.75s-19.75-8.84-19.75-19.75v-76.23"
            style="display:block" transform="translate(330.605 343.672)" />
        <g fill="none" stroke="#121330" stroke-linecap="round" stroke-linejoin="round"
            stroke-width="10" style="display:block">
            <path
                d="M283.14 202.287h-.02m-1.082-112.839h-64.049l-32.024 55.468 32.024 55.468h64.049l32.025-55.468-32.025-55.468zm0 110.935h-64.049l-32.024 55.469 32.024 55.469h64.049l32.025-55.469-32.025-55.469zm-15.461 26.781h-33.126l-16.563 28.688 16.563 28.688h33.126l16.563-28.688-16.563-28.688zm-80.623-82.239h-64.049L89.88 200.393l32.025 55.468h64.049l32.024-55.468-32.024-55.468zm0 110.927h-64.049L89.881 311.32l32.024 55.468h64.049l32.025-55.468-32.025-55.468zm192.14-110.936h-64.048l-32.025 55.468 32.025 55.468h64.048l32.025-55.468-32.025-55.468z" />
            <path
                d="M170.492 171.705h-33.125l-16.563 28.688 16.563 28.688h33.125l16.563-28.688-16.563-28.688z" />
        </g>
        <path fill="none" style="display:none" />
        <path fill="none" style="display:none" />
        <path fill="none" style="display:none" />
        <path fill="none" style="display:none" />
        <path fill="none" style="display:none" />
        <path fill="none" style="display:none" />
        <path fill="none" style="display:none" />
        <path style="display:none" />
    </g>
</svg>