<svg xmlns="http://www.w3.org/2000/svg" width="100" height="100"
    style="width:100%;height:100%;transform:translate3d(0,0,0);content-visibility:visible"
    viewBox="0 0 500 500">
    <defs>
        <clipPath id="a">
            <path d="M0 0h500v500H0z" />
        </clipPath>
    </defs>
    <g clip-path="url(#a)">
        <path fill="none" stroke="#121330" stroke-linecap="round" stroke-linejoin="round"
            stroke-width="1.8"
            d="M-16.278-36.544A39.825 39.825 0 0 1 0-40s0 0 0 0c12.69 0 24.008 5.923 31.338 15.152"
            style="display:block" transform="matrix(-4.5 0 0 -4.5 250 250)" />
        <path fill="none" stroke="#121330" stroke-linecap="round" stroke-linejoin="round"
            stroke-width="1.8" d="M-16.438 11.713V23.5h11.75" style="display:block"
            transform="matrix(0 4.5 -4.5 0 209.216 429.721)" />
        <path fill="none" stroke="#121330" stroke-linecap="round" stroke-linejoin="round"
            stroke-width="1.8"
            d="M-16.278-36.544A39.825 39.825 0 0 1 0-40s0 0 0 0c12.69 0 24.008 5.923 31.338 15.152"
            style="display:block" transform="matrix(4.5 0 0 4.5 250 250)" />
        <path fill="none" stroke="#121330" stroke-linecap="round" stroke-linejoin="round"
            stroke-width="1.8" d="M-16.438 11.713V23.5h11.75" style="display:block"
            transform="matrix(0 -4.5 4.5 0 290.784 70.279)" />
        <path fill="none" stroke="#ec0000" stroke-linecap="round" stroke-linejoin="round"
            stroke-width="1.8"
            d="M-16.278-36.544A39.825 39.825 0 0 1 0-40s0 0 0 0c12.69 0 24.008 5.923 31.338 15.152"
            style="display:block" transform="rotate(90 0 250) scale(4.5)" />
        <path fill="none" stroke="#ec0000" stroke-linecap="round" stroke-linejoin="round"
            stroke-width="1.8" d="M-16.438 11.713V23.5h11.75" style="display:block"
            transform="matrix(4.5 0 0 4.5 429.721 290.784)" />
        <path fill="none" stroke="#ec0000" stroke-linecap="round" stroke-linejoin="round"
            stroke-width="1.8"
            d="M-16.278-36.544A39.825 39.825 0 0 1 0-40s0 0 0 0c12.69 0 24.008 5.923 31.338 15.152"
            style="display:block" transform="rotate(-90 250 0) scale(4.5)" />
        <path fill="none" stroke="#ec0000" stroke-linecap="round" stroke-linejoin="round"
            stroke-width="1.8" d="M-16.438 11.713V23.5h11.75" style="display:block"
            transform="matrix(-4.5 0 0 -4.5 70.28 209.216)" />
        <g class="com" style="display:none">
            <path />
            <path />
            <path />
            <path />
            <path />
            <path />
            <path />
            <path />
            <path />
            <path />
            <path />
            <path />
        </g>
    </g>
</svg>