<svg xmlns="http://www.w3.org/2000/svg" width="100" height="100"
    style="width:100%;height:100%;transform:translate3d(0,0,0);content-visibility:visible"
    viewBox="0 0 500 500">
    <defs>
        <clipPath id="a">
            <path d="M0 0h500v500H0z" />
        </clipPath>
    </defs>
    <g clip-path="url(#a)">
        <g fill="none" stroke-linecap="round" stroke-linejoin="round" stroke-width="10"
            style="display:block">
            <path stroke="#ec0000"
                d="M155.188 190.897s-51.86-54.246-80.138-24.026c-33.721 36.037 6.992 137.797 90.485 137.797m179.277-113.771s51.861-54.246 80.139-24.026c33.721 36.037-6.992 137.797-90.485 137.797" />
            <path stroke="#121330"
                d="M249.898 356.289h-.001c-52.307 0-94.709-42.402-94.709-94.709v-70.684l84.081-21.33a43.236 43.236 0 0 1 21.257 0l84.081 21.33v70.684c0 52.307-42.402 94.709-94.709 94.709zm-94.71-111.755 84.081-21.33a43.236 43.236 0 0 1 21.257 0l84.081 21.33m-186.065 42.085c83.843 36.953 166.036 6.836 182.722-.054" />
        </g>
        <path style="display:none" />
    </g>
</svg>