<?xml version="1.0" standalone="no"?>
<!DOCTYPE svg PUBLIC "-//W3C//DTD SVG 1.1//EN" "http://www.w3.org/Graphics/SVG/1.1/DTD/svg11.dtd" >
<svg xmlns="http://www.w3.org/2000/svg" xmlns:xlink="http://www.w3.org/1999/xlink" version="1.1">
<metadata>
Created by FontForge 20201107 at Tue Aug 16 01:12:22 2016
 By Unknown
November is a rational, utilitarian typeface inspired by street signage.
</metadata>
<defs>
<font id="NovemberPro-Reg" horiz-adv-x="609" >
  <font-face 
    font-family="November Pro Reg"
    font-weight="400"
    font-stretch="normal"
    units-per-em="1000"
    panose-1="0 0 0 0 0 0 0 0 0 0"
    ascent="786"
    descent="-214"
    x-height="535"
    cap-height="755"
    bbox="-526 -309 2421 1158"
    underline-thickness="50"
    underline-position="-150"
    stemh="79"
    stemv="93"
    unicode-range="U+0020-1F6CF"
  />
<missing-glyph horiz-adv-x="712" 
d="M80 0v27h27v-27h-27zM80 75v27h27v-27h-27zM80 150v27h27v-27h-27zM80 225v27h27v-27h-27zM80 300v27h27v-27h-27zM80 375v27h27v-27h-27zM80 450v27h27v-27h-27zM80 525v27h27v-27h-27zM80 600v27h27v-27h-27zM80 675v27h27v-27h-27zM155 0v27h27v-27h-27zM155 675v27
h27v-27h-27zM230 0v27h27v-27h-27zM230 525v27h27v-27h-27zM230 675v27h27v-27h-27zM305 0v27h27v-27h-27zM305 150v27h27v-27h-27zM305 300v27h27v-27h-27zM305 375v27h27v-27h-27zM305 525v27h27v-27h-27zM305 675v27h27v-27h-27zM380 0v27h27v-27h-27zM380 375v27h27v-27
h-27zM380 525v27h27v-27h-27zM380 675v27h27v-27h-27zM455 0v27h27v-27h-27zM455 375v27h27v-27h-27zM455 450v27h27v-27h-27zM455 525v27h27v-27h-27zM455 675v27h27v-27h-27zM530 0v27h27v-27h-27zM530 675v27h27v-27h-27zM605 0v27h27v-27h-27zM605 75v27h27v-27h-27z
M605 150v27h27v-27h-27zM605 225v27h27v-27h-27zM605 300v27h27v-27h-27zM605 375v27h27v-27h-27zM605 450v27h27v-27h-27zM605 525v27h27v-27h-27zM605 600v27h27v-27h-27zM605 675v27h27v-27h-27z" />
    <glyph glyph-name="uni301A" unicode="[[" horiz-adv-x="480" 
d="M88 -157v1038h353v-83h-90v-872h90v-83h-353zM181 798v-872h77v872h-77z" />
    <glyph glyph-name="uni301B" unicode="]]" horiz-adv-x="480" 
d="M392 881v-1038h-353v83h90v872h-90v83h353zM222 798v-872h77v872h-77z" />
    <glyph glyph-name="fi" unicode="fi" horiz-adv-x="602" 
d="M44 456v79h55v44c0 118 66 190 197 190c24 0 37 -3 50 -7v-85c-11 5 -28 9 -50 9c-65 0 -104 -33 -104 -113v-38h140v-79h-140v-456h-93v456h-55zM430 0v535h93v-535h-93zM427 646v109h99v-109h-99z" />
    <glyph glyph-name="fl" unicode="fl" horiz-adv-x="638" 
d="M44 456v79h55v44c0 118 66 190 197 190c24 0 37 -3 50 -7v-85c-11 5 -28 9 -50 9c-65 0 -104 -33 -104 -113v-38h140v-79h-140v-456h-93v456h-55zM427 145v610h93v-604c0 -60 10 -83 51 -83c22 0 39 4 50 9v-80c-13 -6 -37 -12 -61 -12c-108 0 -133 55 -133 160z" />
    <glyph glyph-name="dblparenleft" unicode="&#x28;&#x28;" horiz-adv-x="484" 
d="M81 23v678c0 105 35 180 163 180h20v-83h-10c-58 0 -80 -43 -80 -103v-666c0 -60 22 -103 80 -103h10v-83h-20c-128 0 -163 75 -163 180zM262 23v678c0 105 35 180 163 180h20v-83h-10c-58 0 -80 -43 -80 -103v-666c0 -60 22 -103 80 -103h10v-83h-20
c-128 0 -163 75 -163 180z" />
    <glyph glyph-name="dblparenright" unicode="&#x29;&#x29;" horiz-adv-x="484" 
d="M403 701v-678c0 -105 -35 -180 -163 -180h-20v83h10c58 0 80 43 80 103v666c0 60 -22 103 -80 103h-10v83h20c128 0 163 -75 163 -180zM222 701v-678c0 -105 -35 -180 -163 -180h-20v83h10c58 0 80 43 80 103v666c0 60 -22 103 -80 103h-10v83h20c128 0 163 -75 163 -180
z" />
    <glyph glyph-name="f_igrave" unicode="f&#xec;" horiz-adv-x="602" 
d="M44 456v79h55v44c0 118 66 190 197 190c24 0 37 -3 50 -7v-85c-11 5 -28 9 -50 9c-65 0 -104 -33 -104 -113v-38h140v-79h-140v-456h-93v456h-55zM430 0v535h93v-535h-93zM363 775h89l88 -153h-78z" />
    <glyph glyph-name="f_idieresis" unicode="f&#xef;" horiz-adv-x="602" 
d="M44 456v79h55v44c0 118 66 190 197 190c24 0 37 -3 50 -7v-85c-11 5 -28 9 -50 9c-65 0 -104 -33 -104 -113v-38h140v-79h-140v-456h-93v456h-55zM430 0v535h93v-535h-93zM532 636v99h94v-99h-94zM368 636v99h94v-99h-94z" />
    <glyph glyph-name=".notdef" horiz-adv-x="712" 
d="M80 0v27h27v-27h-27zM80 75v27h27v-27h-27zM80 150v27h27v-27h-27zM80 225v27h27v-27h-27zM80 300v27h27v-27h-27zM80 375v27h27v-27h-27zM80 450v27h27v-27h-27zM80 525v27h27v-27h-27zM80 600v27h27v-27h-27zM80 675v27h27v-27h-27zM155 0v27h27v-27h-27zM155 675v27
h27v-27h-27zM230 0v27h27v-27h-27zM230 525v27h27v-27h-27zM230 675v27h27v-27h-27zM305 0v27h27v-27h-27zM305 150v27h27v-27h-27zM305 300v27h27v-27h-27zM305 375v27h27v-27h-27zM305 525v27h27v-27h-27zM305 675v27h27v-27h-27zM380 0v27h27v-27h-27zM380 375v27h27v-27
h-27zM380 525v27h27v-27h-27zM380 675v27h27v-27h-27zM455 0v27h27v-27h-27zM455 375v27h27v-27h-27zM455 450v27h27v-27h-27zM455 525v27h27v-27h-27zM455 675v27h27v-27h-27zM530 0v27h27v-27h-27zM530 675v27h27v-27h-27zM605 0v27h27v-27h-27zM605 75v27h27v-27h-27z
M605 150v27h27v-27h-27zM605 225v27h27v-27h-27zM605 300v27h27v-27h-27zM605 375v27h27v-27h-27zM605 450v27h27v-27h-27zM605 525v27h27v-27h-27zM605 600v27h27v-27h-27zM605 675v27h27v-27h-27z" />
    <glyph glyph-name="space" unicode=" " horiz-adv-x="246" 
 />
    <glyph glyph-name="exclam" unicode="!" horiz-adv-x="270" 
d="M181 207h-93v548h93v-548zM88 0v109h99v-109h-99z" />
    <glyph glyph-name="quotedbl" unicode="&#x22;" horiz-adv-x="429" 
d="M167 755l-16 -267h-73l-16 267h105zM367 755l-16 -267h-73l-16 267h105z" />
    <glyph glyph-name="numbersign" unicode="#" horiz-adv-x="626" 
d="M340 0l21 163h-159l-21 -163h-79l21 163h-78v79h89l36 275h-89v79h99l21 159h78l-21 -159h160l21 159h78l-21 -159h85v-79h-95l-36 -275h95v-79h-105l-21 -163h-79zM248 517l-36 -275h160l36 275h-160z" />
    <glyph glyph-name="dollar" unicode="$" horiz-adv-x="581" 
d="M58 47v101c62 -40 121 -69 197 -74v268l-13 2c-119 14 -188 83 -188 209c0 120 82 195 201 211v101h92v-100c68 -6 112 -26 158 -56v-101c-53 36 -100 62 -158 71v-257c120 -17 196 -70 196 -207c0 -124 -78 -199 -196 -220v-127h-92v122c-76 2 -130 20 -197 57zM151 551
c0 -75 19 -102 104 -117v244c-71 -13 -104 -55 -104 -127zM445 208c0 73 -23 104 -98 121v-248c64 17 98 64 98 127z" />
    <glyph glyph-name="percent" unicode="%" horiz-adv-x="973" 
d="M207 0l473 755h87l-472 -755h-88zM430 575v-68c0 -120 -88 -189 -196 -189c-107 0 -195 67 -195 189v68c0 121 88 195 195 195c108 0 196 -74 196 -195zM344 507v68c0 66 -39 112 -109 112c-71 0 -110 -48 -110 -112v-68c0 -65 39 -110 111 -110s108 45 108 110zM934 243
v-68c0 -120 -88 -189 -196 -189c-107 0 -195 67 -195 189v68c0 121 88 195 195 195c108 0 196 -74 196 -195zM848 175v68c0 66 -39 112 -109 112c-71 0 -110 -48 -110 -112v-68c0 -65 39 -110 111 -110s108 45 108 110z" />
    <glyph glyph-name="ampersand" unicode="&#x26;" horiz-adv-x="705" 
d="M194 392l-19 20c-54 63 -81 110 -81 175c0 115 104 182 207 182c133 0 209 -67 209 -177c0 -68 -45 -129 -118 -174l-59 -36l177 -185c23 42 36 93 36 152h92c0 -84 -25 -157 -67 -216l128 -133h-120l-67 67c-61 -52 -139 -82 -220 -82c-158 0 -236 74 -236 205
c0 70 35 140 102 180zM152 187c0 -65 52 -116 140 -116c62 0 118 20 161 57l-200 204l-24 -14c-45 -28 -77 -75 -77 -131zM277 441l48 29c52 31 87 70 87 119c0 78 -55 98 -111 98c-61 0 -111 -32 -111 -98c0 -26 5 -55 48 -107z" />
    <glyph glyph-name="quotesingle" unicode="'" horiz-adv-x="229" 
d="M167 755l-16 -267h-73l-16 267h105z" />
    <glyph glyph-name="parenleft" unicode="(" horiz-adv-x="303" 
d="M174 695v-666c0 -60 22 -103 80 -103h10v-83h-20c-128 0 -163 75 -163 180v678c0 105 35 180 163 180h20v-83h-10c-58 0 -80 -43 -80 -103z" />
    <glyph glyph-name="parenright" unicode=")" horiz-adv-x="303" 
d="M222 701v-678c0 -105 -35 -180 -163 -180h-20v83h10c58 0 80 43 80 103v666c0 60 -22 103 -80 103h-10v83h20c128 0 163 -75 163 -180z" />
    <glyph glyph-name="asterisk" unicode="*" horiz-adv-x="517" 
d="M75 645l143 -52v162h78v-166l147 54l30 -68l-146 -57l107 -139l-62 -46l-116 147l-114 -142l-60 46l107 134l-142 57z" />
    <glyph glyph-name="plus" unicode="+" horiz-adv-x="528" 
d="M47 348v79h174v177h85v-177h175v-79h-175v-178h-85v178h-174z" />
    <glyph glyph-name="comma" unicode="," horiz-adv-x="235" 
d="M38 -133l39 235h93l-39 -235h-93z" />
    <glyph glyph-name="hyphen" unicode="&#xad;" horiz-adv-x="428" 
d="M70 227v79h288v-79h-288z" />
    <glyph glyph-name="hyphen" unicode="-" horiz-adv-x="428" 
d="M70 227v79h288v-79h-288z" />
    <glyph glyph-name="period" unicode="." horiz-adv-x="239" 
d="M70 0v109h99v-109h-99z" />
    <glyph glyph-name="slash" unicode="/" horiz-adv-x="472" 
d="M23 -163l347 961h78l-346 -961h-79z" />
    <glyph glyph-name="zero" unicode="0" horiz-adv-x="605" 
d="M71 238v272c0 157 71 259 231 259s233 -101 233 -259v-272c0 -147 -73 -253 -233 -253s-231 96 -231 253zM169 517v-286c0 -93 33 -157 133 -157c101 0 135 64 135 157v286c0 113 -44 163 -135 163c-90 0 -133 -50 -133 -163z" />
    <glyph glyph-name="one" unicode="1" horiz-adv-x="387" 
d="M30 547v98l195 110h68v-755h-98v632z" />
    <glyph glyph-name="two" unicode="2" horiz-adv-x="560" 
d="M255 679c-75 0 -123 -21 -200 -78v101c55 45 117 67 212 67c144 0 229 -68 229 -202c0 -88 -53 -169 -114 -242l-198 -237h325l-1 -88h-456v63l268 324c44 54 77 116 77 165c0 84 -54 127 -142 127z" />
    <glyph glyph-name="three" unicode="3" horiz-adv-x="548" 
d="M248 768c136 0 228 -76 228 -198c0 -86 -49 -142 -110 -172c77 -29 125 -95 125 -188c0 -132 -124 -225 -267 -225c-86 0 -133 20 -169 39v94c64 -33 102 -44 170 -44c96 0 171 48 171 133c0 108 -73 140 -175 140h-61v86h60c89 0 165 37 165 126c0 85 -63 120 -149 120
c-57 0 -108 -17 -174 -71v95c53 42 116 65 186 65z" />
    <glyph glyph-name="four" unicode="4" horiz-adv-x="576" 
d="M355 0v151h-323v79l228 525h100l-224 -516h219v208h93v-208h98v-88h-98v-151h-93z" />
    <glyph glyph-name="five" unicode="5" horiz-adv-x="554" 
d="M507 237c0 -174 -136 -252 -276 -252c-68 0 -122 19 -169 40v98c46 -22 100 -50 176 -50c103 0 174 45 174 146c0 104 -65 148 -152 148c-66 0 -106 -13 -179 -50v438h391v-88h-300v-230c28 10 60 15 95 15c130 0 240 -63 240 -215z" />
    <glyph glyph-name="six" unicode="6" horiz-adv-x="560" 
d="M526 219c0 -133 -98 -234 -242 -234s-242 101 -242 234c0 79 48 160 65 193l163 343h106l-149 -308c18 4 37 6 57 6c144 0 242 -101 242 -234zM425 219c0 80 -54 144 -143 144c-90 0 -144 -64 -144 -144c0 -79 54 -144 144 -144c89 0 143 65 143 144z" />
    <glyph glyph-name="seven" unicode="7" horiz-adv-x="506" 
d="M216 0h-102l258 667h-347v88h456v-63z" />
    <glyph glyph-name="eight" unicode="8" horiz-adv-x="583" 
d="M525 209c0 -128 -95 -224 -234 -224s-234 96 -234 224c0 82 39 148 103 186c-53 36 -84 95 -84 166c0 119 87 208 217 208s217 -89 217 -208c0 -72 -32 -132 -86 -168c63 -37 101 -103 101 -184zM431 211c0 75 -53 137 -138 137s-137 -62 -137 -137s52 -137 137 -137
s138 62 138 137zM421 558c0 69 -49 126 -126 126c-78 0 -126 -57 -126 -126s48 -126 126 -126c77 0 126 57 126 126z" />
    <glyph glyph-name="nine" unicode="9" horiz-adv-x="560" 
d="M33 535c0 133 98 234 242 234s242 -101 242 -234c0 -68 -35 -134 -52 -166l-176 -369h-106l148 306c-18 -3 -36 -5 -56 -5c-144 0 -242 101 -242 234zM134 535c0 -80 54 -144 143 -144c90 0 144 64 144 144c0 79 -54 144 -144 144c-89 0 -143 -65 -143 -144z" />
    <glyph glyph-name="colon" unicode=":" horiz-adv-x="241" 
d="M71 0v109h99v-109h-99zM71 425v109h99v-109h-99z" />
    <glyph glyph-name="semicolon" unicode=";" horiz-adv-x="274" 
d="M63 -133l39 235h93l-39 -235h-93zM89 425v109h99v-109h-99z" />
    <glyph glyph-name="less" unicode="&#x3c;" horiz-adv-x="516" 
d="M442 117l-401 213v104l401 218v-91l-331 -177l331 -174v-93z" />
    <glyph glyph-name="equal" unicode="=" horiz-adv-x="580" 
d="M73 477v79h434v-79h-434zM73 227v79h434v-79h-434z" />
    <glyph glyph-name="greater" unicode="&#x3e;" horiz-adv-x="516" 
d="M475 330l-401 -213v93l331 174l-331 177v91l401 -218v-104z" />
    <glyph glyph-name="question" unicode="?" horiz-adv-x="504" 
d="M199 0v109h99v-109h-99zM467 561c0 -176 -176 -188 -176 -306v-48h-93v33c0 173 178 177 178 318c0 83 -49 129 -126 129c-68 0 -126 -42 -126 -129v-10h-93v10c0 115 81 211 217 211s219 -78 219 -208z" />
    <glyph glyph-name="at" unicode="@" horiz-adv-x="698" 
d="M613 100h-93v51c-29 -44 -73 -66 -140 -66c-113 0 -159 57 -159 154c0 120 67 168 199 168h100v18c0 89 -59 142 -178 142c-118 0 -183 -41 -183 -168v-231c0 -204 118 -227 224 -227h66v-86h-90c-163 -6 -293 76 -293 316v216c0 167 88 262 284 262
c167 0 263 -66 263 -219v-330zM391 164c65 0 126 30 129 127v37h-105c-79 0 -101 -18 -101 -86c0 -52 22 -78 77 -78z" />
    <glyph glyph-name="A" unicode="A" horiz-adv-x="684" 
d="M5 0l286 755h107l276 -755h-115l-64 188h-318l-68 -188h-104zM340 641l-132 -365h257z" />
    <glyph glyph-name="B" unicode="B" horiz-adv-x="677" 
d="M363 0h-269v755h257c172 0 251 -75 251 -199c0 -83 -39 -131 -105 -162c76 -23 126 -82 126 -178c0 -116 -69 -216 -260 -216zM355 343h-163v-255h160c102 0 169 32 169 122c0 94 -38 133 -166 133zM339 667h-147v-238h158c120 0 151 44 151 118c0 102 -73 120 -162 120z
" />
    <glyph glyph-name="C" unicode="C" horiz-adv-x="613" 
d="M575 719v-100c-44 36 -108 62 -194 62c-120 0 -221 -81 -221 -254v-106c0 -173 91 -248 221 -248c70 0 135 11 192 44v-90c-52 -27 -111 -42 -192 -42c-185 0 -322 116 -322 343v92c0 227 137 349 322 349c100 0 153 -24 194 -50z" />
    <glyph glyph-name="D" unicode="D" horiz-adv-x="699" 
d="M326 755c185 0 313 -108 313 -335v-92c0 -227 -128 -328 -313 -328h-232v755h232zM326 667h-134v-579h134c131 0 213 60 213 233v106c0 173 -92 240 -213 240z" />
    <glyph glyph-name="E" unicode="E" horiz-adv-x="614" 
d="M558 88v-88h-464v755h455v-88h-357v-238h328v-86h-328v-255h366z" />
    <glyph glyph-name="F" unicode="F" horiz-adv-x="589" 
d="M520 429v-86h-328v-343h-98v755h455v-88h-357v-238h328z" />
    <glyph glyph-name="G" unicode="G" horiz-adv-x="684" 
d="M618 418v-380c-52 -27 -120 -53 -227 -53c-185 0 -332 116 -332 343v92c0 227 147 349 332 349c100 0 163 -24 204 -50v-100c-44 36 -118 62 -204 62c-120 0 -231 -81 -231 -254v-106c0 -173 101 -248 231 -248c50 0 92 5 129 14v240h-193v91h291z" />
    <glyph glyph-name="H" unicode="H" horiz-adv-x="751" 
d="M657 755v-755h-98v340h-367v-340h-98v755h98v-324h367v324h98z" />
    <glyph glyph-name="I" unicode="I" horiz-adv-x="286" 
d="M192 755v-755h-98v755h98z" />
    <glyph glyph-name="J" unicode="J" horiz-adv-x="486" 
d="M299 199v468h-245v88h343v-560c0 -140 -97 -210 -228 -210c-47 0 -93 12 -124 27v90c32 -19 75 -29 124 -29c65 0 130 11 130 126z" />
    <glyph glyph-name="K" unicode="K" horiz-adv-x="661" 
d="M192 755v-326h116l218 326h112l-250 -364l264 -391h-118l-227 343h-115v-343h-98v755h98z" />
    <glyph glyph-name="L" unicode="L" horiz-adv-x="520" 
d="M508 88v-88h-414v755h98v-667h316z" />
    <glyph glyph-name="M" unicode="M" horiz-adv-x="852" 
d="M386 190l-199 371v-561h-93v755h93l237 -448l241 448h93v-755h-93v570l-202 -380h-77z" />
    <glyph glyph-name="N" unicode="N" horiz-adv-x="741" 
d="M647 755v-755h-93l-367 589v-589h-93v755h93l367 -585v585h93z" />
    <glyph glyph-name="O" unicode="O" horiz-adv-x="725" 
d="M60 328v92c0 227 117 349 302 349s303 -122 303 -349v-92c0 -227 -118 -343 -303 -343s-302 116 -302 343zM161 427v-106c0 -173 71 -248 201 -248c131 0 203 75 203 248v106c0 173 -82 254 -203 254c-120 0 -201 -81 -201 -254z" />
    <glyph glyph-name="P" unicode="P" horiz-adv-x="635" 
d="M602 526c0 -140 -81 -243 -247 -243h-163v-283h-98v755h257c172 0 251 -105 251 -229zM339 667h-147v-298h158c120 0 151 74 151 148c0 102 -53 150 -162 150z" />
    <glyph glyph-name="Q" unicode="Q" horiz-adv-x="725" 
d="M60 328v92c0 227 117 349 302 349s303 -122 303 -349v-92c0 -126 -37 -218 -101 -275l95 -138h-108l-63 92c-37 -14 -80 -22 -126 -22c-185 0 -302 116 -302 343zM336 231h107l68 -100c35 40 54 102 54 190v106c0 173 -82 254 -203 254c-120 0 -201 -81 -201 -254v-106
c0 -173 71 -248 201 -248c27 0 52 3 74 10z" />
    <glyph glyph-name="R" unicode="R" horiz-adv-x="671" 
d="M602 546c0 -103 -44 -174 -132 -206l166 -340h-116l-146 323h-182v-323h-98v755h257c172 0 251 -85 251 -209zM339 667h-147v-258h158c120 0 151 54 151 128c0 102 -53 130 -162 130z" />
    <glyph glyph-name="S" unicode="S" horiz-adv-x="614" 
d="M62 47v101c70 -45 146 -75 236 -75c105 0 170 54 170 135c0 88 -42 116 -162 130l-50 6c-119 14 -198 83 -198 209c0 136 115 214 258 214c95 0 159 -21 214 -58v-101c-65 45 -132 74 -211 74c-105 0 -162 -43 -162 -131c0 -84 32 -108 145 -122l50 -6
c125 -15 216 -67 216 -208c0 -147 -121 -226 -278 -226c-87 0 -155 18 -228 58z" />
    <glyph glyph-name="T" unicode="T" horiz-adv-x="614" 
d="M601 755v-91h-240v-664h-98v664h-250v91h588z" />
    <glyph glyph-name="U" unicode="U" horiz-adv-x="757" 
d="M573 755h98v-427c0 -227 -108 -343 -293 -343s-292 116 -292 343v427h99v-434c0 -173 63 -248 193 -248c131 0 195 75 195 248v434z" />
    <glyph glyph-name="V" unicode="V" horiz-adv-x="657" 
d="M644 755l-266 -755h-107l-251 755h110l199 -637l211 637h104z" />
    <glyph glyph-name="W" unicode="W" horiz-adv-x="985" 
d="M967 755l-204 -755h-103l-87 289l-84 303l-86 -303l-90 -289h-105l-177 755h106l131 -622l179 622h98l168 -624l150 624h104z" />
    <glyph glyph-name="X" unicode="X" horiz-adv-x="641" 
d="M9 0l254 384l-237 371h116l181 -298l188 298h107l-238 -365l249 -390h-116l-193 315l-200 -315h-111z" />
    <glyph glyph-name="Y" unicode="Y" horiz-adv-x="629" 
d="M610 755l-248 -472v-283h-98v286l-242 469h115l179 -370l190 370h104z" />
    <glyph glyph-name="Z" unicode="Z" horiz-adv-x="618" 
d="M573 755v-91l-419 -573h419v-91h-527v91l423 573h-423v91h527z" />
    <glyph glyph-name="bracketleft" unicode="[" horiz-adv-x="310" 
d="M88 -157v1038h183v-83h-90v-872h90v-83h-183z" />
    <glyph glyph-name="backslash" unicode="\" horiz-adv-x="472" 
d="M102 798l347 -961h-79l-346 961h78z" />
    <glyph glyph-name="bracketright" unicode="]" horiz-adv-x="310" 
d="M222 881v-1038h-183v83h90v872h-90v83h183z" />
    <glyph glyph-name="asciicircum" unicode="^" horiz-adv-x="614" 
d="M572 397h-105l-165 269l-156 -269h-104l215 358h94z" />
    <glyph glyph-name="underscore" unicode="_" horiz-adv-x="530" 
d="M485 -199h-440v80h440v-80z" />
    <glyph glyph-name="grave" unicode="`" horiz-adv-x="500" 
d="M208 775h89l88 -153h-78z" />
    <glyph glyph-name="a" unicode="a" horiz-adv-x="549" 
d="M475 0h-93v58c-35 -49 -90 -73 -160 -73c-123 0 -179 57 -179 154c0 120 77 168 229 168h110v18c0 89 -21 142 -140 142c-70 0 -116 -17 -169 -65v91c42 34 86 56 186 56c167 0 216 -66 216 -219v-330zM382 199v29h-115c-99 0 -131 -18 -131 -86c0 -52 32 -78 97 -78
c67 0 149 32 149 135z" />
    <glyph glyph-name="b" unicode="b" 
d="M79 0v755h93v-290c35 50 90 84 165 84c145 0 218 -108 218 -249v-66c0 -152 -75 -249 -218 -249c-77 0 -130 40 -165 94v-79h-93zM322 467c-72 0 -140 -63 -150 -142v-96c0 -80 67 -162 152 -162c86 0 138 60 138 162v76c0 102 -54 162 -140 162z" />
    <glyph glyph-name="c" unicode="c" horiz-adv-x="501" 
d="M299 549c61 0 112 -12 155 -36v-96c-53 37 -104 50 -156 50c-95 0 -151 -55 -151 -162v-76c0 -102 55 -162 147 -162c51 0 100 13 159 50v-88c-38 -26 -94 -44 -161 -44c-142 0 -238 97 -238 249v66c0 139 76 249 245 249z" />
    <glyph glyph-name="d" unicode="d" 
d="M437 465v290h93v-755h-93v79c-36 -54 -88 -94 -165 -94c-143 0 -218 97 -218 249v66c0 141 73 249 218 249c75 0 129 -34 165 -84zM287 467c-86 0 -140 -60 -140 -162v-76c0 -102 52 -162 138 -162c83 0 149 78 152 156v102c-10 79 -78 142 -150 142z" />
    <glyph glyph-name="e" unicode="e" horiz-adv-x="563" 
d="M511 310v-83h-364c1 -102 69 -160 164 -160c68 0 118 6 187 48v-83c-59 -34 -112 -47 -196 -47c-142 0 -248 87 -248 249v66c0 152 96 249 228 249s229 -77 229 -239zM282 467c-86 0 -135 -60 -135 -161h271v9c0 102 -50 152 -136 152z" />
    <glyph glyph-name="f" unicode="f" horiz-adv-x="353" 
d="M44 456v79h55v44c0 118 66 190 197 190c24 0 37 -3 50 -7v-85c-11 5 -28 9 -50 9c-65 0 -104 -33 -104 -113v-38h140v-79h-140v-456h-93v456h-55z" />
    <glyph glyph-name="g" unicode="g" 
d="M530 535v-516c0 -141 -83 -253 -262 -253c-64 0 -129 14 -180 34v87c61 -27 133 -38 182 -38c130 0 167 72 167 176v54c-36 -54 -88 -94 -165 -94c-143 0 -218 97 -218 249v66c0 141 73 249 218 249c75 0 129 -34 165 -84v70h93zM287 467c-86 0 -140 -60 -140 -162v-76
c0 -102 52 -162 138 -162c85 0 152 82 152 162v96c-10 79 -78 142 -150 142z" />
    <glyph glyph-name="h" unicode="h" horiz-adv-x="610" 
d="M79 0v755h93v-287c37 50 93 81 168 81c135 0 196 -83 196 -223v-326h-93v319c0 102 -61 143 -126 143c-73 0 -142 -51 -145 -142v-320h-93z" />
    <glyph glyph-name="i" unicode="i" horiz-adv-x="251" 
d="M79 0v535h93v-535h-93zM76 646v109h99v-109h-99z" />
    <glyph glyph-name="j" unicode="j" horiz-adv-x="259" 
d="M180 535v-579c0 -118 -46 -190 -177 -190c-24 0 -37 3 -50 7v85c11 -5 28 -9 50 -9c65 0 84 33 84 113v573h93zM84 646v109h99v-109h-99z" />
    <glyph glyph-name="k" unicode="k" horiz-adv-x="528" 
d="M79 0v755h93v-433h81l146 213h105l-181 -248l196 -287h-107l-164 245h-76v-245h-93z" />
    <glyph glyph-name="l" unicode="l" horiz-adv-x="286" 
d="M75 145v610h93v-604c0 -60 10 -83 51 -83c22 0 39 4 50 9v-80c-13 -6 -37 -12 -61 -12c-108 0 -133 55 -133 160z" />
    <glyph glyph-name="m" unicode="m" horiz-adv-x="954" 
d="M79 0v535h93v-63c34 47 85 77 158 77c88 0 145 -36 174 -100c36 60 96 100 180 100c135 0 196 -83 196 -223v-326h-93v319c0 102 -61 143 -126 143c-75 0 -135 -53 -135 -149v-313h-93v319c0 102 -61 143 -126 143c-73 0 -132 -51 -135 -142v-320h-93z" />
    <glyph glyph-name="n" unicode="n" horiz-adv-x="610" 
d="M79 0v535h93v-67c37 50 93 81 168 81c135 0 196 -83 196 -223v-326h-93v319c0 102 -61 143 -126 143c-73 0 -142 -51 -145 -142v-320h-93z" />
    <glyph glyph-name="o" unicode="o" horiz-adv-x="584" 
d="M54 234v66c0 162 106 249 238 249s239 -87 239 -249v-66c0 -162 -107 -249 -239 -249s-238 87 -238 249zM147 305v-76c0 -102 59 -162 145 -162s146 60 146 162v76c0 102 -60 162 -146 162s-145 -60 -145 -162z" />
    <glyph glyph-name="p" unicode="p" 
d="M79 -222v757h93v-70c35 50 90 84 165 84c145 0 218 -108 218 -249v-66c0 -152 -75 -249 -218 -249c-77 0 -130 40 -165 94v-301h-93zM322 467c-72 0 -140 -63 -150 -142v-96c0 -80 67 -162 152 -162c86 0 138 60 138 162v76c0 102 -54 162 -140 162z" />
    <glyph glyph-name="q" unicode="q" 
d="M437 465v70h93v-758h-93v302c-36 -54 -88 -94 -165 -94c-143 0 -218 97 -218 249v66c0 141 73 249 218 249c75 0 129 -34 165 -84zM287 467c-86 0 -140 -60 -140 -162v-76c0 -102 52 -162 138 -162c83 0 149 78 152 156v102c-10 79 -78 142 -150 142z" />
    <glyph glyph-name="r" unicode="r" horiz-adv-x="362" 
d="M79 0v535h93v-80c37 55 92 94 167 94v-89c-7 1 -14 2 -22 2c-73 0 -142 -70 -145 -162v-300h-93z" />
    <glyph glyph-name="s" unicode="s" horiz-adv-x="516" 
d="M58 27v92c61 -30 120 -52 190 -52c78 0 132 24 132 82c0 57 -47 79 -112 82l-53 4c-84 5 -164 38 -164 156c0 102 98 159 203 159c82 0 148 -16 194 -41v-93c-60 34 -133 50 -184 50c-78 0 -124 -26 -124 -80c0 -58 59 -68 112 -72l60 -5c90 -7 159 -44 159 -154
c0 -119 -124 -169 -227 -169c-58 0 -140 16 -186 41z" />
    <glyph glyph-name="t" unicode="t" horiz-adv-x="394" 
d="M24 456v79h95v165h93v-165h140v-79h-140v-275c0 -80 19 -113 85 -113c20 0 54 3 69 8v-81c-17 -5 -44 -10 -76 -10c-123 0 -171 74 -171 190v281h-95z" />
    <glyph glyph-name="u" unicode="u" horiz-adv-x="605" 
d="M526 535v-535h-93v62c-34 -47 -85 -76 -157 -76c-135 0 -202 83 -202 223v326h93v-329c0 -102 61 -133 126 -133c75 0 140 53 140 149v313h93z" />
    <glyph glyph-name="v" unicode="v" horiz-adv-x="553" 
d="M534 535l-204 -535h-108l-203 535h101l157 -440l161 440h96z" />
    <glyph glyph-name="w" unicode="w" horiz-adv-x="855" 
d="M832 535l-164 -535h-106l-132 398l-136 -398h-108l-163 535h101l120 -437l142 437h90l138 -431l122 431h96z" />
    <glyph glyph-name="x" unicode="x" horiz-adv-x="512" 
d="M15 0l192 274l-175 261h111l115 -185l124 185h102l-181 -254l192 -281h-111l-132 204l-131 -204h-106z" />
    <glyph glyph-name="y" unicode="y" horiz-adv-x="553" 
d="M259 -222h-100l72 200l-210 557h101l157 -440l161 440h96l-204 -535h-1z" />
    <glyph glyph-name="z" unicode="z" horiz-adv-x="513" 
d="M467 535v-65l-312 -388h315v-82h-429v69l307 384h-299v82h418z" />
    <glyph glyph-name="braceleft" unicode="{" horiz-adv-x="339" 
d="M117 24v194c0 60 -22 103 -80 103h-10v83h10c58 0 80 43 80 103v194c0 105 35 180 163 180h20v-83h-10c-58 0 -80 -43 -80 -103v-213c0 -44 -22 -88 -57 -119c35 -32 57 -83 57 -153v-180c0 -60 22 -103 80 -103h10v-83h-20c-128 0 -163 75 -163 180z" />
    <glyph glyph-name="bar" unicode="|" horiz-adv-x="256" 
d="M167 798v-891h-78v891h78z" />
    <glyph glyph-name="braceright" unicode="}" horiz-adv-x="339" 
d="M222 218v-194c0 -105 -35 -180 -163 -180h-20v83h10c58 0 80 43 80 103v180c0 70 22 121 56 153c-34 31 -56 75 -56 119v213c0 60 -22 103 -80 103h-10v83h20c128 0 163 -75 163 -180v-194c0 -60 22 -103 80 -103h10v-83h-10c-58 0 -80 -43 -80 -103z" />
    <glyph glyph-name="asciitilde" unicode="~" horiz-adv-x="614" 
d="M203 286c-42 0 -90 -29 -129 -53v72c29 26 76 61 129 61c70 0 152 -62 215 -62c42 0 86 27 123 51v-69c-29 -30 -79 -62 -128 -62c-68 0 -150 62 -210 62z" />
    <glyph glyph-name="exclamdown" unicode="&#xa1;" horiz-adv-x="257" 
d="M81 328h93v-548h-93v548zM81 426v109h99v-109h-99z" />
    <glyph glyph-name="cent" unicode="&#xa2;" horiz-adv-x="513" 
d="M328 658v-110c49 -3 91 -15 127 -35v-96c-43 30 -85 44 -127 48v-396c40 5 79 19 126 48v-88c-31 -22 -75 -37 -126 -42v-110h-78v112c-118 17 -195 109 -195 245v66c0 124 61 225 195 245v113h78zM148 229c0 -84 37 -140 102 -157v389c-65 -17 -102 -69 -102 -156v-76z
" />
    <glyph glyph-name="sterling" unicode="&#xa3;" horiz-adv-x="593" 
d="M552 88v-88h-501v88h90v250h-90v88h90v93c0 140 94 250 238 250c73 0 103 -18 134 -33v-90c-32 19 -77 35 -134 35c-83 0 -140 -43 -140 -166v-89h221v-88h-221v-250h313z" />
    <glyph glyph-name="currency" unicode="&#xa4;" horiz-adv-x="624" 
d="M503 405v-38c0 -41 -11 -76 -28 -104l91 -103l-62 -53l-88 99c-31 -19 -69 -28 -109 -28c-38 0 -73 8 -102 24l-84 -95l-62 53l84 96c-20 29 -31 66 -31 111v38c0 43 11 80 31 110l-84 96l62 53l81 -92c30 18 66 28 105 28c41 0 80 -12 112 -32l85 96l62 -53l-90 -102
c17 -29 27 -64 27 -104zM415 367v38c0 66 -37 112 -107 112c-71 0 -110 -48 -110 -112v-38c0 -65 39 -110 111 -110s106 45 106 110z" />
    <glyph glyph-name="yen" unicode="&#xa5;" horiz-adv-x="650" 
d="M621 755l-206 -383h154v-79h-196v-81h196v-79h-196v-133h-98v133h-200v79h200v81h-200v79h160l-202 383h115l178 -361l191 361h104z" />
    <glyph glyph-name="brokenbar" unicode="&#xa6;" horiz-adv-x="252" 
d="M165 798v-357h-78v357h78zM165 264v-357h-78v357h78z" />
    <glyph glyph-name="section" unicode="&#xa7;" horiz-adv-x="560" 
d="M504 297c0 -67 -34 -118 -89 -150c55 -27 87 -72 87 -142c0 -126 -103 -187 -244 -187c-67 0 -129 14 -191 46v94c60 -37 128 -60 200 -60c88 0 140 35 140 104c0 72 -58 84 -130 93l-48 6c-104 13 -167 88 -167 185c0 62 32 113 85 146c-53 30 -83 83 -83 150
c0 119 96 189 230 189c62 0 130 -13 178 -45v-94c-57 37 -113 59 -184 59c-84 0 -130 -41 -130 -111c0 -61 36 -86 117 -96l47 -6c111 -14 182 -77 182 -181zM279 399l-6 1c-85 -3 -119 -49 -119 -116c0 -61 38 -94 119 -104l17 -2c83 6 124 51 124 116
c0 72 -63 96 -135 105z" />
    <glyph glyph-name="dieresis" unicode="&#xa8;" horiz-adv-x="478" 
d="M85 636v99h94v-99h-94zM299 636v99h94v-99h-94z" />
    <glyph glyph-name="copyright" unicode="&#xa9;" horiz-adv-x="887" 
d="M52 377c0 216 175 392 391 392s392 -176 392 -392s-176 -391 -392 -391s-391 175 -391 391zM122 377c0 -177 132 -326 321 -326c188 0 322 149 322 326s-125 327 -322 327c-194 0 -321 -150 -321 -327zM548 560v-73c-23 19 -62 31 -102 31c-62 0 -102 -38 -102 -115v-56
c0 -81 42 -111 104 -111c29 0 70 5 99 22v-67c-27 -14 -68 -21 -106 -21c-101 0 -173 61 -173 181v49c0 120 71 184 174 184c47 0 86 -11 106 -24z" />
    <glyph glyph-name="ordfeminine" unicode="&#xaa;" horiz-adv-x="515" 
d="M432 325h-78v47c-30 -40 -77 -59 -141 -59c-99 0 -148 46 -148 127c0 94 67 133 195 133h94v13c0 71 -18 112 -121 112c-58 0 -97 -13 -142 -52v77c35 28 73 45 155 45c144 0 186 -52 186 -176v-267zM76 176v74h369v-74h-369zM354 486v22h-99c-80 0 -111 -14 -111 -64
c0 -45 25 -65 79 -65c61 0 131 25 131 107z" />
    <glyph glyph-name="guillemotleft" unicode="&#xab;" horiz-adv-x="470" 
d="M249 490l-119 -206l118 -218h-83l-124 216l127 208h81zM419 490l-119 -206l118 -218h-83l-124 216l127 208h81z" />
    <glyph glyph-name="logicalnot" unicode="&#xac;" horiz-adv-x="682" 
d="M61 348v79h544v-317h-85v238h-459z" />
    <glyph glyph-name="registered" unicode="&#xae;" horiz-adv-x="671" 
d="M57 491c0 153 124 278 278 278s279 -125 279 -278c0 -155 -125 -279 -279 -279s-278 124 -278 279zM110 491c0 -127 91 -232 225 -232s226 105 226 232c0 125 -85 232 -226 232c-138 0 -225 -107 -225 -232zM456 557c0 -40 -17 -73 -50 -90l61 -131h-68l-51 120h-60v-120
h-59v317h120c73 0 107 -42 107 -96zM334 603h-46v-98h50c44 0 59 18 59 49c0 38 -21 49 -63 49z" />
    <glyph glyph-name="macron" unicode="&#xaf;" horiz-adv-x="506" 
d="M112 658v68h265v-68h-265z" />
    <glyph glyph-name="degree" unicode="&#xb0;" horiz-adv-x="493" 
d="M442 575v-38c0 -120 -88 -189 -196 -189c-107 0 -195 67 -195 189v38c0 121 88 195 195 195c108 0 196 -74 196 -195zM354 537v38c0 66 -37 112 -107 112c-71 0 -110 -48 -110 -112v-38c0 -65 39 -110 111 -110s106 45 106 110z" />
    <glyph glyph-name="plusminus" unicode="&#xb1;" horiz-adv-x="568" 
d="M67 348v79h174v177h85v-177h175v-79h-175v-178h-85v178h-174zM67 0v79h434v-79h-434z" />
    <glyph glyph-name="twosuperior" unicode="&#xb2;" horiz-adv-x="304" 
d="M127 754c-28 0 -55 -8 -86 -29v60c26 19 60 27 98 27c73 0 120 -32 120 -96c0 -45 -22 -81 -54 -115l-90 -96h152v-55h-230v42l125 143c20 23 32 45 32 68c0 32 -24 51 -67 51z" />
    <glyph glyph-name="threesuperior" unicode="&#xb3;" horiz-adv-x="301" 
d="M142 813c71 0 112 -40 112 -95c0 -41 -24 -66 -54 -80c37 -13 61 -42 61 -85c0 -62 -49 -109 -135 -109c-33 0 -63 7 -86 20v59c29 -15 52 -22 81 -22c50 0 78 21 78 56c0 38 -33 49 -76 49h-29v51h28c42 0 73 19 73 52c0 29 -24 48 -66 48c-25 0 -54 -6 -85 -31v60
c27 17 63 27 98 27z" />
    <glyph glyph-name="acute" unicode="&#xb4;" horiz-adv-x="500" 
d="M296 775h89l-99 -153h-78z" />
    <glyph glyph-name="mu" unicode="&#xb5;" horiz-adv-x="628" 
d="M540 535v-535h-93v62c-34 -47 -85 -76 -157 -76c-49 0 -84 11 -109 32v-240h-93v757h93v-337c3 -95 63 -125 126 -125c73 0 137 50 140 142v320h93z" />
    <glyph glyph-name="paragraph" unicode="&#xb6;" horiz-adv-x="683" 
d="M411 755v-755h-98v303h-33c-166 0 -247 83 -247 223c0 124 79 229 251 229h127zM589 755v-755h-98v755h98zM134 527c0 -74 31 -138 151 -138h28v278h-17c-109 0 -162 -38 -162 -140z" />
    <glyph glyph-name="periodcentered" unicode="&#xb7;" horiz-adv-x="241" 
d="M71 329v109h99v-109h-99z" />
    <glyph glyph-name="cedilla" unicode="&#xb8;" horiz-adv-x="442" 
d="M335 -124c0 -60 -41 -98 -121 -98h-62v64h43c44 0 68 2 67 31c-1 25 -14 30 -43 30h-64v102h60v-43h10c70 0 110 -27 110 -86z" />
    <glyph glyph-name="onesuperior" unicode="&#xb9;" horiz-adv-x="228" 
d="M29 693v63l89 49h48v-355h-63v281z" />
    <glyph glyph-name="ordmasculine" unicode="&#xba;" horiz-adv-x="536" 
d="M86 176v74h369v-74h-369zM142 571v-61c0 -81 51 -128 124 -128c74 0 125 47 125 128v61c0 82 -51 129 -125 129c-73 0 -124 -47 -124 -129zM65 514v53c0 132 90 201 201 201c112 0 203 -69 203 -201v-53c0 -131 -91 -201 -203 -201c-111 0 -201 70 -201 201z" />
    <glyph glyph-name="guillemotright" unicode="&#xbb;" horiz-adv-x="460" 
d="M170 284l-119 206h81l127 -208l-124 -216h-83zM330 284l-119 206h81l127 -208l-124 -216h-83z" />
    <glyph glyph-name="onequarter" unicode="&#xbc;" horiz-adv-x="745" 
d="M83 0l503 755h83l-503 -755h-83zM613 0v70h-151v52l102 233h63l-102 -232h88v88h60v-88h38v-53h-38v-70h-60zM33 643v63l89 49h48v-355h-63v281z" />
    <glyph glyph-name="onehalf" unicode="&#xbd;" horiz-adv-x="776" 
d="M84 0l503 755h83l-503 -755h-83zM594 304c-28 0 -55 -8 -86 -29v60c26 19 60 27 98 27c73 0 120 -32 120 -96c0 -45 -22 -81 -54 -115l-90 -96h152v-55h-230v42l125 143c20 23 32 45 32 68c0 32 -24 51 -67 51zM33 643v63l89 49h48v-355h-63v281z" />
    <glyph glyph-name="threequarters" unicode="&#xbe;" horiz-adv-x="806" 
d="M135 0l503 755h83l-503 -755h-83zM150 757c71 0 112 -40 112 -95c0 -41 -24 -66 -54 -80c37 -13 61 -42 61 -85c0 -62 -49 -109 -135 -109c-33 0 -63 7 -86 20v59c29 -15 52 -22 81 -22c50 0 78 21 78 56c0 38 -33 49 -76 49h-29v51h28c42 0 73 19 73 52
c0 29 -24 48 -66 48c-25 0 -54 -6 -85 -31v60c27 17 63 27 98 27zM676 0v70h-151v52l102 233h63l-102 -232h88v88h60v-88h38v-53h-38v-70h-60z" />
    <glyph glyph-name="questiondown" unicode="&#xbf;" horiz-adv-x="498" 
d="M302 535v-109h-99v109h99zM34 -26c0 176 176 188 176 306v48h93v-33c0 -173 -178 -177 -178 -318c0 -83 49 -129 126 -129c68 0 126 42 126 129v10h93v-10c0 -115 -81 -211 -217 -211s-219 78 -219 208z" />
    <glyph glyph-name="Agrave" unicode="&#xc0;" horiz-adv-x="684" 
d="M5 0l286 755h107l276 -755h-115l-64 188h-318l-68 -188h-104zM340 641l-132 -365h257zM217 960h89l77 -133h-78z" />
    <glyph glyph-name="Aacute" unicode="&#xc1;" horiz-adv-x="684" 
d="M5 0l286 755h107l276 -755h-115l-64 188h-318l-68 -188h-104zM340 641l-132 -365h257zM391 960h89l-88 -133h-78z" />
    <glyph glyph-name="Acircumflex" unicode="&#xc2;" horiz-adv-x="684" 
d="M5 0l286 755h107l276 -755h-115l-64 188h-318l-68 -188h-104zM340 641l-132 -365h257zM381 960l121 -133h-93l-66 74l-65 -74h-94l121 133h76z" />
    <glyph glyph-name="Atilde" unicode="&#xc3;" horiz-adv-x="684" 
d="M5 0l286 755h107l276 -755h-115l-64 188h-318l-68 -188h-104zM340 641l-132 -365h257zM279 868c-26 0 -56 -19 -80 -35v66c18 17 47 40 80 40c43 0 94 -41 133 -41c26 0 53 18 76 34v-64c-18 -20 -49 -41 -79 -41c-42 0 -93 41 -130 41z" />
    <glyph glyph-name="Adieresis" unicode="&#xc4;" horiz-adv-x="684" 
d="M5 0l286 755h107l276 -755h-115l-64 188h-318l-68 -188h-104zM340 641l-132 -365h257zM190 846v99h94v-99h-94zM394 846v99h94v-99h-94z" />
    <glyph glyph-name="Aring" unicode="&#xc5;" horiz-adv-x="684" 
d="M5 0l286 755h107l276 -755h-115l-64 188h-318l-68 -188h-104zM340 641l-132 -365h257zM452 907c0 -63 -46 -99 -103 -99c-56 0 -102 35 -102 99c0 63 46 102 102 102c57 0 103 -39 103 -102zM404 907c0 34 -23 56 -55 56s-55 -22 -55 -56s23 -54 55 -54s55 20 55 54z" />
    <glyph glyph-name="AE" unicode="&#xc6;" horiz-adv-x="952" 
d="M-6 0l366 755h527v-88h-357v-238h328v-86h-328v-255h366v-88h-464v238h-223l-111 -238h-104zM410 667l-159 -341h181v341h-22z" />
    <glyph glyph-name="Ccedilla" unicode="&#xc7;" horiz-adv-x="613" 
d="M331 -102v90c-159 19 -272 134 -272 340v92c0 227 137 349 322 349c100 0 153 -24 194 -50v-100c-44 36 -108 62 -194 62c-120 0 -221 -81 -221 -254v-106c0 -173 91 -248 221 -248c70 0 135 11 192 44v-90c-50 -26 -106 -41 -182 -42v-28h10c70 0 110 -27 110 -86
c0 -60 -41 -98 -121 -98h-62v64h43c44 0 68 2 67 31c-1 25 -14 30 -43 30h-64z" />
    <glyph glyph-name="Egrave" unicode="&#xc8;" horiz-adv-x="614" 
d="M558 88v-88h-464v755h455v-88h-357v-238h328v-86h-328v-255h366zM206 960h89l77 -133h-78z" />
    <glyph glyph-name="Eacute" unicode="&#xc9;" horiz-adv-x="614" 
d="M558 88v-88h-464v755h455v-88h-357v-238h328v-86h-328v-255h366zM345 960h89l-88 -133h-78z" />
    <glyph glyph-name="Ecircumflex" unicode="&#xca;" horiz-adv-x="614" 
d="M558 88v-88h-464v755h455v-88h-357v-238h328v-86h-328v-255h366zM366 960l121 -133h-93l-66 74l-65 -74h-94l121 133h76z" />
    <glyph glyph-name="Edieresis" unicode="&#xcb;" horiz-adv-x="614" 
d="M558 88v-88h-464v755h455v-88h-357v-238h328v-86h-328v-255h366zM381 846v99h94v-99h-94zM177 846v99h94v-99h-94z" />
    <glyph glyph-name="Igrave" unicode="&#xcc;" horiz-adv-x="286" 
d="M192 755v-755h-98v755h98zM12 960h89l77 -133h-78z" />
    <glyph glyph-name="Iacute" unicode="&#xcd;" horiz-adv-x="286" 
d="M192 755v-755h-98v755h98zM185 960h89l-88 -133h-78z" />
    <glyph glyph-name="Icircumflex" unicode="&#xce;" horiz-adv-x="286" 
d="M192 755v-755h-98v755h98zM188 960l121 -133h-93l-66 74l-65 -74h-94l121 133h76z" />
    <glyph glyph-name="Idieresis" unicode="&#xcf;" horiz-adv-x="286" 
d="M192 755v-755h-98v755h98zM-1 846v99h94v-99h-94zM203 846v99h94v-99h-94z" />
    <glyph glyph-name="Eth" unicode="&#xd0;" horiz-adv-x="703" 
d="M29 346v80h69v329h232c185 0 313 -108 313 -335v-92c0 -227 -128 -328 -313 -328h-232v346h-69zM329 346h-133v-258h134c131 0 213 60 213 233v106c0 173 -92 240 -213 240h-134v-241h133v-80z" />
    <glyph glyph-name="Ntilde" unicode="&#xd1;" horiz-adv-x="741" 
d="M647 755v-755h-93l-367 589v-589h-93v755h93l367 -585v585h93zM315 868c-26 0 -56 -19 -80 -35v66c18 17 47 40 80 40c43 0 94 -41 133 -41c26 0 53 18 76 34v-64c-18 -20 -49 -41 -79 -41c-42 0 -93 41 -130 41z" />
    <glyph glyph-name="Ograve" unicode="&#xd2;" horiz-adv-x="725" 
d="M231 960h89l77 -133h-78zM60 328v92c0 227 117 349 302 349s303 -122 303 -349v-92c0 -227 -118 -343 -303 -343s-302 116 -302 343zM161 427v-106c0 -173 71 -248 201 -248c131 0 203 75 203 248v106c0 173 -82 254 -203 254c-120 0 -201 -81 -201 -254z" />
    <glyph glyph-name="Oacute" unicode="&#xd3;" horiz-adv-x="725" 
d="M391 960h89l-88 -133h-78zM60 328v92c0 227 117 349 302 349s303 -122 303 -349v-92c0 -227 -118 -343 -303 -343s-302 116 -302 343zM161 427v-106c0 -173 71 -248 201 -248c131 0 203 75 203 248v106c0 173 -82 254 -203 254c-120 0 -201 -81 -201 -254z" />
    <glyph glyph-name="Ocircumflex" unicode="&#xd4;" horiz-adv-x="725" 
d="M396 960l121 -133h-93l-66 74l-65 -74h-94l121 133h76zM60 328v92c0 227 117 349 302 349s303 -122 303 -349v-92c0 -227 -118 -343 -303 -343s-302 116 -302 343zM161 427v-106c0 -173 71 -248 201 -248c131 0 203 75 203 248v106c0 173 -82 254 -203 254
c-120 0 -201 -81 -201 -254z" />
    <glyph glyph-name="Otilde" unicode="&#xd5;" horiz-adv-x="725" 
d="M301 868c-26 0 -56 -19 -80 -35v66c18 17 47 40 80 40c43 0 94 -41 133 -41c26 0 53 18 76 34v-64c-18 -20 -49 -41 -79 -41c-42 0 -93 41 -130 41zM60 328v92c0 227 117 349 302 349s303 -122 303 -349v-92c0 -227 -118 -343 -303 -343s-302 116 -302 343zM161 427v-106
c0 -173 71 -248 201 -248c131 0 203 75 203 248v106c0 173 -82 254 -203 254c-120 0 -201 -81 -201 -254z" />
    <glyph glyph-name="Odieresis" unicode="&#xd6;" horiz-adv-x="725" 
d="M212 846v99h94v-99h-94zM416 846v99h94v-99h-94zM60 328v92c0 227 117 349 302 349s303 -122 303 -349v-92c0 -227 -118 -343 -303 -343s-302 116 -302 343zM161 427v-106c0 -173 71 -248 201 -248c131 0 203 75 203 248v106c0 173 -82 254 -203 254
c-120 0 -201 -81 -201 -254z" />
    <glyph glyph-name="multiply" unicode="&#xd7;" horiz-adv-x="485" 
d="M116 202l-55 56l122 122l-125 126l60 60l125 -126l124 125l56 -56l-124 -124l126 -126l-60 -60l-126 126z" />
    <glyph glyph-name="Oslash" unicode="&#xd8;" horiz-adv-x="728" 
d="M62 328v92c0 227 117 349 302 349c72 0 133 -19 182 -54l36 54h86l-70 -106c44 -58 69 -140 69 -243v-92c0 -227 -118 -343 -303 -343c-72 0 -133 17 -181 51l-34 -51h-87l68 102c-44 57 -68 137 -68 241zM567 427c0 60 -10 108 -28 147l-305 -461c32 -27 76 -40 130 -40
c131 0 203 75 203 248v106zM163 427v-106c0 -60 8 -109 25 -146l306 461c-34 30 -79 45 -130 45c-120 0 -201 -81 -201 -254z" />
    <glyph glyph-name="Ugrave" unicode="&#xd9;" horiz-adv-x="757" 
d="M270 960h89l77 -133h-78zM573 755h98v-427c0 -227 -108 -343 -293 -343s-292 116 -292 343v427h99v-434c0 -173 63 -248 193 -248c131 0 195 75 195 248v434z" />
    <glyph glyph-name="Uacute" unicode="&#xda;" horiz-adv-x="757" 
d="M419 960h89l-88 -133h-78zM573 755h98v-427c0 -227 -108 -343 -293 -343s-292 116 -292 343v427h99v-434c0 -173 63 -248 193 -248c131 0 195 75 195 248v434z" />
    <glyph glyph-name="Ucircumflex" unicode="&#xdb;" horiz-adv-x="757" 
d="M573 755h98v-427c0 -227 -108 -343 -293 -343s-292 116 -292 343v427h99v-434c0 -173 63 -248 193 -248c131 0 195 75 195 248v434zM413 960l121 -133h-93l-66 74l-65 -74h-94l121 133h76z" />
    <glyph glyph-name="Udieresis" unicode="&#xdc;" horiz-adv-x="757" 
d="M231 846v99h94v-99h-94zM435 846v99h94v-99h-94zM573 755h98v-427c0 -227 -108 -343 -293 -343s-292 116 -292 343v427h99v-434c0 -173 63 -248 193 -248c131 0 195 75 195 248v434z" />
    <glyph glyph-name="Yacute" unicode="&#xdd;" horiz-adv-x="629" 
d="M610 755l-248 -472v-283h-98v286l-242 469h115l179 -370l190 370h104zM348 960h89l-88 -133h-78z" />
    <glyph glyph-name="Thorn" unicode="&#xde;" horiz-adv-x="640" 
d="M192 755v-135h159c172 0 251 -95 251 -219c0 -140 -81 -233 -247 -233h-163v-168h-98v755h98zM339 532h-147v-278h158c120 0 151 64 151 138c0 102 -53 140 -162 140z" />
    <glyph glyph-name="germandbls" unicode="&#xdf;" horiz-adv-x="601" 
d="M257 0v83h48c102 0 149 37 149 127v40c0 94 -46 136 -146 136h-39v81h34c108 0 131 40 131 104c0 72 -38 116 -127 116c-91 0 -135 -43 -135 -152v-535h-93v535c0 135 64 234 229 234c167 0 219 -85 219 -189c0 -82 -33 -120 -96 -147c73 -24 116 -82 116 -177v-40
c0 -116 -40 -216 -231 -216h-59z" />
    <glyph glyph-name="agrave" unicode="&#xe0;" horiz-adv-x="549" 
d="M475 0h-93v58c-35 -49 -90 -73 -160 -73c-123 0 -179 57 -179 154c0 120 77 168 229 168h110v18c0 89 -21 142 -140 142c-70 0 -116 -17 -169 -65v91c42 34 86 56 186 56c167 0 216 -66 216 -219v-330zM382 199v29h-115c-99 0 -131 -18 -131 -86c0 -52 32 -78 97 -78
c67 0 149 32 149 135zM126 775h89l88 -153h-78z" />
    <glyph glyph-name="aacute" unicode="&#xe1;" horiz-adv-x="549" 
d="M475 0h-93v58c-35 -49 -90 -73 -160 -73c-123 0 -179 57 -179 154c0 120 77 168 229 168h110v18c0 89 -21 142 -140 142c-70 0 -116 -17 -169 -65v91c42 34 86 56 186 56c167 0 216 -66 216 -219v-330zM233 64c65 0 145 30 149 127v37h-115c-99 0 -131 -18 -131 -86
c0 -52 32 -78 97 -78zM300 775h89l-99 -153h-78z" />
    <glyph glyph-name="acircumflex" unicode="&#xe2;" horiz-adv-x="549" 
d="M475 0h-93v58c-35 -49 -90 -73 -160 -73c-123 0 -179 57 -179 154c0 120 77 168 229 168h110v18c0 89 -21 142 -140 142c-70 0 -116 -17 -169 -65v91c42 34 86 56 186 56c167 0 216 -66 216 -219v-330zM382 199v29h-115c-99 0 -131 -18 -131 -86c0 -52 32 -78 97 -78
c67 0 149 32 149 135zM302 775l121 -153h-85l-74 99l-77 -99h-82l121 153h76z" />
    <glyph glyph-name="atilde" unicode="&#xe3;" horiz-adv-x="549" 
d="M475 0h-93v58c-35 -49 -90 -73 -160 -73c-123 0 -179 57 -179 154c0 120 77 168 229 168h110v18c0 89 -21 142 -140 142c-70 0 -116 -17 -169 -65v91c42 34 86 56 186 56c167 0 216 -66 216 -219v-330zM382 199v29h-115c-99 0 -131 -18 -131 -86c0 -52 32 -78 97 -78
c67 0 149 32 149 135zM202 677c-26 0 -56 -19 -80 -35v66c18 17 47 40 80 40c43 0 94 -41 133 -41c26 0 53 18 76 34v-64c-18 -20 -49 -41 -79 -41c-42 0 -93 41 -130 41z" />
    <glyph glyph-name="adieresis" unicode="&#xe4;" horiz-adv-x="549" 
d="M475 0h-93v58c-35 -49 -90 -73 -160 -73c-123 0 -179 57 -179 154c0 120 77 168 229 168h110v18c0 89 -21 142 -140 142c-70 0 -116 -17 -169 -65v91c42 34 86 56 186 56c167 0 216 -66 216 -219v-330zM233 64c65 0 145 30 149 127v37h-115c-99 0 -131 -18 -131 -86
c0 -52 32 -78 97 -78zM110 636v99h94v-99h-94zM324 636v99h94v-99h-94z" />
    <glyph glyph-name="aring" unicode="&#xe5;" horiz-adv-x="549" 
d="M475 0h-93v58c-35 -49 -90 -73 -160 -73c-123 0 -179 57 -179 154c0 120 77 168 229 168h110v18c0 89 -21 142 -140 142c-70 0 -116 -17 -169 -65v91c42 34 86 56 186 56c167 0 216 -66 216 -219v-330zM374 713c0 -83 -46 -119 -103 -119c-56 0 -102 35 -102 119
c0 63 46 102 102 102c57 0 103 -39 103 -102zM382 199v29h-115c-99 0 -131 -18 -131 -86c0 -52 32 -78 97 -78c67 0 149 32 149 135zM326 713c0 34 -23 56 -55 56s-55 -22 -55 -76c0 -34 23 -54 55 -54s55 20 55 74z" />
    <glyph glyph-name="ae" unicode="&#xe6;" horiz-adv-x="891" 
d="M839 227h-364c1 -102 69 -160 164 -160c68 0 118 6 187 48v-83c-59 -34 -112 -47 -196 -47c-95 0 -174 38 -216 112c-35 -70 -101 -112 -182 -112c-129 0 -189 57 -189 154c0 120 77 168 229 168h110v18c0 89 -21 142 -140 142c-70 0 -116 -17 -169 -65v91
c42 34 86 56 186 56c89 0 145 -29 174 -83c41 53 103 83 177 83c132 0 229 -77 229 -239v-83zM610 467c-86 0 -135 -60 -135 -161h271v9c0 102 -50 152 -136 152zM233 64c81 0 148 52 149 155v9h-115c-99 0 -131 -18 -131 -86c0 -52 32 -78 97 -78z" />
    <glyph glyph-name="ccedilla" unicode="&#xe7;" horiz-adv-x="501" 
d="M231 -97v89c-108 23 -177 113 -177 242v66c0 139 76 249 245 249c61 0 112 -12 155 -36v-96c-53 37 -104 50 -156 50c-95 0 -151 -55 -151 -162v-76c0 -102 55 -162 147 -162c51 0 100 13 159 50v-88c-38 -26 -94 -44 -161 -44h-1v-23h10c70 0 110 -27 110 -86
c0 -60 -41 -98 -121 -98h-62v64h43c44 0 68 2 67 31c-1 25 -14 30 -43 30h-64z" />
    <glyph glyph-name="egrave" unicode="&#xe8;" horiz-adv-x="563" 
d="M511 310v-83h-364c1 -102 69 -160 164 -160c68 0 118 6 187 48v-83c-59 -34 -112 -47 -196 -47c-142 0 -248 87 -248 249v66c0 152 96 249 228 249s229 -77 229 -239zM282 467c-86 0 -135 -60 -135 -161h271v9c0 102 -50 152 -136 152zM166 775h89l88 -153h-78z" />
    <glyph glyph-name="eacute" unicode="&#xe9;" horiz-adv-x="563" 
d="M511 227h-364c1 -102 69 -160 164 -160c68 0 118 6 187 48v-83c-59 -34 -112 -47 -196 -47c-142 0 -248 87 -248 249v66c0 152 96 249 228 249s229 -77 229 -239v-83zM282 467c-86 0 -135 -60 -135 -161h271v9c0 102 -50 152 -136 152zM332 775h89l-99 -153h-78z" />
    <glyph glyph-name="ecircumflex" unicode="&#xea;" horiz-adv-x="563" 
d="M511 227h-364c1 -102 69 -160 164 -160c68 0 118 6 187 48v-83c-59 -34 -112 -47 -196 -47c-142 0 -248 87 -248 249v66c0 152 96 249 228 249s229 -77 229 -239v-83zM282 467c-86 0 -135 -60 -135 -161h271v9c0 102 -50 152 -136 152zM328 775l121 -153h-85l-74 99
l-77 -99h-82l121 153h76z" />
    <glyph glyph-name="edieresis" unicode="&#xeb;" horiz-adv-x="563" 
d="M511 310v-83h-364c1 -102 69 -160 164 -160c68 0 118 6 187 48v-83c-59 -34 -112 -47 -196 -47c-142 0 -248 87 -248 249v66c0 152 96 249 228 249s229 -77 229 -239zM282 467c-86 0 -135 -60 -135 -161h271v9c0 102 -50 152 -136 152zM352 636v99h94v-99h-94zM138 636
v99h94v-99h-94z" />
    <glyph glyph-name="igrave" unicode="&#xec;" horiz-adv-x="251" 
d="M79 0v535h93v-535h-93zM-17 775h89l88 -153h-78z" />
    <glyph glyph-name="iacute" unicode="&#xed;" horiz-adv-x="251" 
d="M180 775h89l-99 -153h-78zM79 0v535h93v-535h-93z" />
    <glyph glyph-name="icircumflex" unicode="&#xee;" horiz-adv-x="251" 
d="M164 775l121 -153h-85l-74 99l-77 -99h-82l121 153h76zM79 0v535h93v-535h-93z" />
    <glyph glyph-name="idieresis" unicode="&#xef;" horiz-adv-x="251" 
d="M-35 636v99h94v-99h-94zM179 636v99h94v-99h-94zM79 0v535h93v-535h-93z" />
    <glyph glyph-name="eth" unicode="&#xf0;" horiz-adv-x="592" 
d="M358 811l54 -36l-51 -74c119 -96 170 -222 170 -394v-73c0 -162 -107 -249 -239 -249s-238 87 -238 249v56c0 162 106 249 238 249c41 0 98 -19 133 -61c-25 60 -66 113 -111 155l-46 -66l-52 33l49 73c-20 14 -40 26 -59 36l43 64c21 -11 41 -23 60 -35zM147 295v-66
c0 -102 59 -162 145 -162s146 60 146 162v66c0 102 -60 162 -146 162s-145 -60 -145 -162z" />
    <glyph glyph-name="ntilde" unicode="&#xf1;" horiz-adv-x="610" 
d="M79 0v535h93v-67c37 50 93 81 168 81c135 0 196 -83 196 -223v-326h-93v319c0 102 -61 143 -126 143c-73 0 -142 -51 -145 -142v-320h-93zM246 677c-26 0 -56 -19 -80 -35v66c18 17 47 40 80 40c43 0 94 -41 133 -41c26 0 53 18 76 34v-64c-18 -20 -49 -41 -79 -41
c-42 0 -93 41 -130 41z" />
    <glyph glyph-name="ograve" unicode="&#xf2;" horiz-adv-x="584" 
d="M54 234v66c0 162 106 249 238 249s239 -87 239 -249v-66c0 -162 -107 -249 -239 -249s-238 87 -238 249zM147 305v-76c0 -102 59 -162 145 -162s146 60 146 162v76c0 102 -60 162 -146 162s-145 -60 -145 -162zM160 775h89l88 -153h-78z" />
    <glyph glyph-name="oacute" unicode="&#xf3;" horiz-adv-x="584" 
d="M334 775h89l-99 -153h-78zM54 234v66c0 162 106 249 238 249s239 -87 239 -249v-66c0 -162 -107 -249 -239 -249s-238 87 -238 249zM147 305v-76c0 -102 59 -162 145 -162s146 60 146 162v76c0 102 -60 162 -146 162s-145 -60 -145 -162z" />
    <glyph glyph-name="ocircumflex" unicode="&#xf4;" horiz-adv-x="584" 
d="M332 770l121 -153h-85l-74 99l-77 -99h-82l121 153h76zM54 234v66c0 162 106 249 238 249s239 -87 239 -249v-66c0 -162 -107 -249 -239 -249s-238 87 -238 249zM147 305v-76c0 -102 59 -162 145 -162s146 60 146 162v76c0 102 -60 162 -146 162s-145 -60 -145 -162z" />
    <glyph glyph-name="otilde" unicode="&#xf5;" horiz-adv-x="584" 
d="M54 234v66c0 162 106 249 238 249s239 -87 239 -249v-66c0 -162 -107 -249 -239 -249s-238 87 -238 249zM147 305v-76c0 -102 59 -162 145 -162s146 60 146 162v76c0 102 -60 162 -146 162s-145 -60 -145 -162zM225 677c-26 0 -56 -19 -80 -35v66c18 17 47 40 80 40
c43 0 94 -41 133 -41c26 0 53 18 76 34v-64c-18 -20 -49 -41 -79 -41c-42 0 -93 41 -130 41z" />
    <glyph glyph-name="odieresis" unicode="&#xf6;" horiz-adv-x="584" 
d="M137 636v99h94v-99h-94zM351 636v99h94v-99h-94zM54 234v66c0 162 106 249 238 249s239 -87 239 -249v-66c0 -162 -107 -249 -239 -249s-238 87 -238 249zM147 305v-76c0 -102 59 -162 145 -162s146 60 146 162v76c0 102 -60 162 -146 162s-145 -60 -145 -162z" />
    <glyph glyph-name="divide" unicode="&#xf7;" horiz-adv-x="555" 
d="M222 147v109h99v-109h-99zM222 515v109h99v-109h-99zM60 348v79h434v-79h-434z" />
    <glyph glyph-name="oslash" unicode="&#xf8;" horiz-adv-x="585" 
d="M54 234v66c0 162 106 249 238 249c50 0 97 -13 136 -38l27 38h76l-56 -79c35 -41 56 -98 56 -170v-66c0 -162 -107 -249 -239 -249c-51 0 -98 13 -136 37l-27 -37h-75l56 78c-35 42 -56 99 -56 171zM438 305c0 34 -7 63 -19 87l-213 -299c23 -17 52 -26 86 -26
c86 0 146 60 146 162v76zM147 305v-76c0 -34 6 -64 18 -88l213 300c-23 17 -53 26 -86 26c-86 0 -145 -60 -145 -162z" />
    <glyph glyph-name="ugrave" unicode="&#xf9;" horiz-adv-x="605" 
d="M526 535v-535h-93v62c-34 -47 -85 -76 -157 -76c-135 0 -202 83 -202 223v326h93v-329c0 -102 61 -133 126 -133c75 0 140 53 140 149v313h93zM172 775h89l88 -153h-78z" />
    <glyph glyph-name="uacute" unicode="&#xfa;" horiz-adv-x="605" 
d="M526 535v-535h-93v62c-34 -47 -85 -76 -157 -76c-135 0 -202 83 -202 223v326h93v-329c0 -102 61 -133 126 -133c75 0 140 53 140 149v313h93zM349 775h89l-99 -153h-78z" />
    <glyph glyph-name="ucircumflex" unicode="&#xfb;" horiz-adv-x="605" 
d="M526 535v-535h-93v62c-34 -47 -85 -76 -157 -76c-135 0 -202 83 -202 223v326h93v-329c0 -102 61 -133 126 -133c73 0 137 50 140 142v320h93zM326 775l121 -153h-85l-74 99l-77 -99h-82l121 153h76z" />
    <glyph glyph-name="udieresis" unicode="&#xfc;" horiz-adv-x="605" 
d="M526 535v-535h-93v62c-34 -47 -85 -76 -157 -76c-135 0 -202 83 -202 223v326h93v-329c0 -102 61 -133 126 -133c75 0 140 53 140 149v313h93zM352 636v99h94v-99h-94zM138 636v99h94v-99h-94z" />
    <glyph glyph-name="yacute" unicode="&#xfd;" horiz-adv-x="553" 
d="M259 -222h-100l72 200l-210 557h101l157 -440l161 440h96l-204 -535h-1zM346 775h89l-99 -153h-78z" />
    <glyph glyph-name="thorn" unicode="&#xfe;" 
d="M79 -222v977h93v-290c35 50 90 84 165 84c145 0 218 -108 218 -249v-66c0 -152 -75 -249 -218 -249c-77 0 -130 40 -165 94v-301h-93zM322 467c-72 0 -140 -63 -150 -142v-96c0 -80 67 -162 152 -162c86 0 138 60 138 162v76c0 102 -54 162 -140 162z" />
    <glyph glyph-name="ydieresis" unicode="&#xff;" horiz-adv-x="553" 
d="M259 -222h-100l72 200l-210 557h101l157 -440l161 440h96l-204 -535h-1zM345 637v99h94v-99h-94zM131 637v99h94v-99h-94z" />
    <glyph glyph-name="Amacron" unicode="&#x100;" horiz-adv-x="684" 
d="M5 0l286 755h107l276 -755h-115l-64 188h-318l-68 -188h-104zM340 641l-132 -365h257zM204 858v68h300v-68h-300z" />
    <glyph glyph-name="amacron" unicode="&#x101;" horiz-adv-x="549" 
d="M475 0h-93v58c-35 -49 -90 -73 -160 -73c-123 0 -179 57 -179 154c0 120 77 168 229 168h110v18c0 89 -21 142 -140 142c-70 0 -116 -17 -169 -65v91c42 34 86 56 186 56c167 0 216 -66 216 -219v-330zM233 64c65 0 145 30 149 127v37h-115c-99 0 -131 -18 -131 -86
c0 -52 32 -78 97 -78zM133 658v68h265v-68h-265z" />
    <glyph glyph-name="Abreve" unicode="&#x102;" horiz-adv-x="684" 
d="M5 0l286 755h107l276 -755h-115l-64 188h-318l-68 -188h-104zM340 641l-132 -365h257zM403 954h75c0 -78 -43 -123 -133 -123c-95 0 -132 48 -132 123h72c0 -50 25 -60 60 -60c31 0 58 9 58 60z" />
    <glyph glyph-name="abreve" unicode="&#x103;" horiz-adv-x="549" 
d="M475 0h-93v58c-35 -49 -90 -73 -160 -73c-123 0 -179 57 -179 154c0 120 77 168 229 168h110v18c0 89 -21 142 -140 142c-70 0 -116 -17 -169 -65v91c42 34 86 56 186 56c167 0 216 -66 216 -219v-330zM233 64c65 0 145 30 149 127v37h-115c-99 0 -131 -18 -131 -86
c0 -52 32 -78 97 -78zM324 756h75c0 -78 -42 -133 -132 -133c-95 0 -133 58 -133 133h72c0 -50 26 -70 61 -70c31 0 57 19 57 70z" />
    <glyph glyph-name="Aogonek" unicode="&#x104;" horiz-adv-x="684" 
d="M507 -111c0 45 20 83 52 111l-64 188h-318l-68 -188h-104l286 755h107l276 -755h-22c-55 -23 -71 -61 -71 -97c0 -37 18 -53 62 -53h35v-72h-53c-80 0 -118 50 -118 111zM340 641l-132 -365h257z" />
    <glyph glyph-name="aogonek" unicode="&#x105;" horiz-adv-x="549" 
d="M314 -111c0 52 27 95 68 123v46c-35 -49 -90 -73 -160 -73c-123 0 -179 57 -179 154c0 120 77 168 229 168h110v18c0 89 -21 142 -140 142c-70 0 -116 -17 -169 -65v91c42 34 86 56 186 56c167 0 216 -66 216 -219v-330h-16c-55 -23 -71 -61 -71 -97c0 -37 18 -53 62 -53
h35v-72h-53c-80 0 -118 50 -118 111zM233 64c65 0 145 30 149 127v37h-115c-99 0 -131 -18 -131 -86c0 -52 32 -78 97 -78z" />
    <glyph glyph-name="Cacute" unicode="&#x106;" horiz-adv-x="613" 
d="M575 719v-100c-44 36 -108 62 -194 62c-120 0 -221 -81 -221 -254v-106c0 -173 91 -248 221 -248c70 0 135 11 192 44v-90c-52 -27 -111 -42 -192 -42c-185 0 -322 116 -322 343v92c0 227 137 349 322 349c100 0 153 -24 194 -50zM396 960h89l-88 -133h-78z" />
    <glyph glyph-name="cacute" unicode="&#x107;" horiz-adv-x="501" 
d="M321 775h89l-99 -153h-78zM299 549c61 0 112 -12 155 -36v-96c-53 37 -104 50 -156 50c-95 0 -151 -55 -151 -162v-76c0 -102 55 -162 147 -162c51 0 100 13 159 50v-88c-38 -26 -94 -44 -161 -44c-142 0 -238 97 -238 249v66c0 139 76 249 245 249z" />
    <glyph glyph-name="Ccircumflex" unicode="&#x108;" horiz-adv-x="613" 
d="M575 719v-100c-44 36 -108 62 -194 62c-120 0 -221 -81 -221 -254v-106c0 -173 91 -248 221 -248c70 0 135 11 192 44v-90c-52 -27 -111 -42 -192 -42c-185 0 -322 116 -322 343v92c0 227 137 349 322 349c100 0 153 -24 194 -50zM415 960l121 -133h-93l-66 74l-65 -74
h-94l121 133h76z" />
    <glyph glyph-name="ccircumflex" unicode="&#x109;" horiz-adv-x="501" 
d="M321 775l121 -153h-85l-74 99l-77 -99h-82l121 153h76zM299 549c61 0 112 -12 155 -36v-96c-53 37 -104 50 -156 50c-95 0 -151 -55 -151 -162v-76c0 -102 55 -162 147 -162c51 0 100 13 159 50v-88c-38 -26 -94 -44 -161 -44c-142 0 -238 97 -238 249v66
c0 139 76 249 245 249z" />
    <glyph glyph-name="Cdotaccent" unicode="&#x10a;" horiz-adv-x="613" 
d="M332 846v99h94v-99h-94zM575 719v-100c-44 36 -108 62 -194 62c-120 0 -221 -81 -221 -254v-106c0 -173 91 -248 221 -248c70 0 135 11 192 44v-90c-52 -27 -111 -42 -192 -42c-185 0 -322 116 -322 343v92c0 227 137 349 322 349c100 0 153 -24 194 -50z" />
    <glyph glyph-name="cdotaccent" unicode="&#x10b;" horiz-adv-x="501" 
d="M299 549c61 0 112 -12 155 -36v-96c-53 37 -104 50 -156 50c-95 0 -151 -55 -151 -162v-76c0 -102 55 -162 147 -162c51 0 100 13 159 50v-88c-38 -26 -94 -44 -161 -44c-142 0 -238 97 -238 249v66c0 139 76 249 245 249zM239 636v99h94v-99h-94z" />
    <glyph glyph-name="Ccaron" unicode="&#x10c;" horiz-adv-x="613" 
d="M331 827l-121 133h93l66 -74l65 74h94l-121 -133h-76zM575 719v-100c-44 36 -108 62 -194 62c-120 0 -221 -81 -221 -254v-106c0 -173 91 -248 221 -248c70 0 135 11 192 44v-90c-52 -27 -111 -42 -192 -42c-185 0 -322 116 -322 343v92c0 227 137 349 322 349
c100 0 153 -24 194 -50z" />
    <glyph glyph-name="ccaron" unicode="&#x10d;" horiz-adv-x="501" 
d="M250 622l-121 153h85l74 -99l77 99h82l-121 -153h-76zM299 549c61 0 112 -12 155 -36v-96c-53 37 -104 50 -156 50c-95 0 -151 -55 -151 -162v-76c0 -102 55 -162 147 -162c51 0 100 13 159 50v-88c-38 -26 -94 -44 -161 -44c-142 0 -238 97 -238 249v66
c0 139 76 249 245 249z" />
    <glyph glyph-name="Dcaron" unicode="&#x10e;" horiz-adv-x="699" 
d="M326 755c185 0 313 -108 313 -335v-92c0 -227 -128 -328 -313 -328h-232v755h232zM326 667h-134v-579h134c131 0 213 60 213 233v106c0 173 -92 240 -213 240zM260 827l-121 133h93l66 -74l65 74h94l-121 -133h-76z" />
    <glyph glyph-name="dcaron" unicode="&#x10f;" 
d="M437 465v290h93v-755h-93v79c-36 -54 -88 -94 -165 -94c-143 0 -218 97 -218 249v66c0 141 73 249 218 249c75 0 129 -34 165 -84zM287 467c-86 0 -140 -60 -140 -162v-76c0 -102 52 -162 138 -162c85 0 152 82 152 162v96c-10 79 -78 142 -150 142zM659 540h-63l14 215
h81z" />
    <glyph glyph-name="Dcroat" unicode="&#x110;" horiz-adv-x="703" 
d="M29 346v80h69v329h232c185 0 313 -108 313 -335v-92c0 -227 -128 -328 -313 -328h-232v346h-69zM329 346h-133v-258h134c131 0 213 60 213 233v106c0 173 -92 240 -213 240h-134v-241h133v-80z" />
    <glyph glyph-name="dcroat" unicode="&#x111;" 
d="M437 673v82h93v-82h59v-72h-59v-601h-93v79c-36 -54 -88 -94 -165 -94c-143 0 -218 97 -218 249v66c0 141 73 249 218 249c75 0 129 -34 165 -84v136h-149v72h149zM287 467c-86 0 -140 -60 -140 -162v-76c0 -102 52 -162 138 -162c85 0 152 82 152 162v96
c-10 79 -78 142 -150 142z" />
    <glyph glyph-name="Emacron" unicode="&#x112;" horiz-adv-x="614" 
d="M558 88v-88h-464v755h455v-88h-357v-238h328v-86h-328v-255h366zM174 858v68h300v-68h-300z" />
    <glyph glyph-name="emacron" unicode="&#x113;" horiz-adv-x="563" 
d="M511 227h-364c1 -102 69 -160 164 -160c68 0 118 6 187 48v-83c-59 -34 -112 -47 -196 -47c-142 0 -248 87 -248 249v66c0 152 96 249 228 249s229 -77 229 -239v-83zM282 467c-86 0 -135 -60 -135 -161h271v9c0 102 -50 152 -136 152zM157 658v68h265v-68h-265z" />
    <glyph glyph-name="Ebreve" unicode="&#x114;" horiz-adv-x="614" 
d="M558 88v-88h-464v755h455v-88h-357v-238h328v-86h-328v-255h366zM377 954h75c0 -78 -43 -123 -133 -123c-95 0 -132 48 -132 123h72c0 -50 25 -60 60 -60c31 0 58 9 58 60z" />
    <glyph glyph-name="ebreve" unicode="&#x115;" horiz-adv-x="563" 
d="M511 310v-83h-364c1 -102 69 -160 164 -160c68 0 118 6 187 48v-83c-59 -34 -112 -47 -196 -47c-142 0 -248 87 -248 249v66c0 152 96 249 228 249s229 -77 229 -239zM282 467c-86 0 -135 -60 -135 -161h271v9c0 102 -50 152 -136 152zM353 756h75
c0 -78 -42 -133 -132 -133c-95 0 -133 58 -133 133h72c0 -50 26 -70 61 -70c31 0 57 19 57 70z" />
    <glyph glyph-name="Edotaccent" unicode="&#x116;" horiz-adv-x="614" 
d="M558 88v-88h-464v755h455v-88h-357v-238h328v-86h-328v-255h366zM277 846v99h94v-99h-94z" />
    <glyph glyph-name="edotaccent" unicode="&#x117;" horiz-adv-x="563" 
d="M511 310v-83h-364c1 -102 69 -160 164 -160c68 0 118 6 187 48v-83c-59 -34 -112 -47 -196 -47c-142 0 -248 87 -248 249v66c0 152 96 249 228 249s229 -77 229 -239zM282 467c-86 0 -135 -60 -135 -161h271v9c0 102 -50 152 -136 152zM240 636v99h94v-99h-94z" />
    <glyph glyph-name="Eogonek" unicode="&#x118;" horiz-adv-x="614" 
d="M558 88v-88h-32c-55 -23 -71 -61 -71 -97c0 -37 18 -53 62 -53h35v-72h-53c-80 0 -118 50 -118 111c0 45 20 83 52 111h-339v755h455v-88h-357v-238h328v-86h-328v-255h366z" />
    <glyph glyph-name="eogonek" unicode="&#x119;" horiz-adv-x="563" 
d="M255 -113c0 38 15 72 39 98c-138 3 -240 90 -240 249v66c0 152 96 249 228 249s229 -77 229 -239v-83h-364c1 -102 69 -160 164 -160c68 0 118 6 187 48v-83c-37 -22 -72 -34 -113 -41c-43 -23 -56 -57 -56 -90c0 -37 18 -53 62 -53h35v-72h-53c-80 0 -118 50 -118 111z
M282 467c-86 0 -135 -60 -135 -161h271v9c0 102 -50 152 -136 152z" />
    <glyph glyph-name="Ecaron" unicode="&#x11a;" horiz-adv-x="614" 
d="M558 88v-88h-464v755h455v-88h-357v-238h328v-86h-328v-255h366zM290 827l-121 133h93l66 -74l65 74h94l-121 -133h-76z" />
    <glyph glyph-name="ecaron" unicode="&#x11b;" horiz-adv-x="563" 
d="M511 227h-364c1 -102 69 -160 164 -160c68 0 118 6 187 48v-83c-59 -34 -112 -47 -196 -47c-142 0 -248 87 -248 249v66c0 152 96 249 228 249s229 -77 229 -239v-83zM282 467c-86 0 -135 -60 -135 -161h271v9c0 102 -50 152 -136 152zM252 622l-121 153h85l74 -99l77 99
h82l-121 -153h-76z" />
    <glyph glyph-name="Gcircumflex" unicode="&#x11c;" horiz-adv-x="684" 
d="M618 418v-380c-52 -27 -120 -53 -227 -53c-185 0 -332 116 -332 343v92c0 227 147 349 332 349c100 0 163 -24 204 -50v-100c-44 36 -118 62 -204 62c-120 0 -231 -81 -231 -254v-106c0 -173 101 -248 231 -248c50 0 92 5 129 14v240h-193v91h291zM425 960l121 -133h-93
l-66 74l-65 -74h-94l121 133h76z" />
    <glyph glyph-name="gcircumflex" unicode="&#x11d;" 
d="M530 535v-516c0 -141 -83 -253 -262 -253c-64 0 -129 14 -180 34v87c61 -27 133 -38 182 -38c130 0 167 72 167 176v54c-36 -54 -88 -94 -165 -94c-143 0 -218 97 -218 249v66c0 141 73 249 218 249c75 0 129 -34 165 -84v70h93zM287 467c-86 0 -140 -60 -140 -162v-76
c0 -102 52 -162 138 -162c83 0 149 78 152 156v102c-10 79 -78 142 -150 142zM340 775l121 -153h-85l-74 99l-77 -99h-82l121 153h76z" />
    <glyph glyph-name="Gbreve" unicode="&#x11e;" horiz-adv-x="684" 
d="M618 418v-380c-52 -27 -120 -53 -227 -53c-185 0 -332 116 -332 343v92c0 227 147 349 332 349c100 0 163 -24 204 -50v-100c-44 36 -118 62 -204 62c-120 0 -231 -81 -231 -254v-106c0 -173 101 -248 231 -248c50 0 92 5 129 14v240h-193v91h291zM424 954h75
c0 -78 -43 -123 -133 -123c-95 0 -132 48 -132 123h72c0 -50 25 -60 60 -60c31 0 58 9 58 60z" />
    <glyph glyph-name="gbreve" unicode="&#x11f;" 
d="M530 535v-516c0 -141 -83 -253 -262 -253c-64 0 -129 14 -180 34v87c61 -27 133 -38 182 -38c130 0 167 72 167 176v54c-36 -54 -88 -94 -165 -94c-143 0 -218 97 -218 249v66c0 141 73 249 218 249c75 0 129 -34 165 -84v70h93zM287 467c-86 0 -140 -60 -140 -162v-76
c0 -102 52 -162 138 -162c83 0 149 78 152 156v102c-10 79 -78 142 -150 142zM359 756h75c0 -78 -42 -133 -132 -133c-95 0 -133 58 -133 133h72c0 -50 26 -70 61 -70c31 0 57 19 57 70z" />
    <glyph glyph-name="Gdotaccent" unicode="&#x120;" horiz-adv-x="684" 
d="M618 418v-380c-52 -27 -120 -53 -227 -53c-185 0 -332 116 -332 343v92c0 227 147 349 332 349c100 0 163 -24 204 -50v-100c-44 36 -118 62 -204 62c-120 0 -231 -81 -231 -254v-106c0 -173 101 -248 231 -248c50 0 92 5 129 14v240h-193v91h291zM335 846v99h94v-99h-94
z" />
    <glyph glyph-name="gdotaccent" unicode="&#x121;" 
d="M530 535v-516c0 -141 -83 -253 -262 -253c-64 0 -129 14 -180 34v87c61 -27 133 -38 182 -38c130 0 167 72 167 176v54c-36 -54 -88 -94 -165 -94c-143 0 -218 97 -218 249v66c0 141 73 249 218 249c75 0 129 -34 165 -84v70h93zM287 467c-86 0 -140 -60 -140 -162v-76
c0 -102 52 -162 138 -162c83 0 149 78 152 156v102c-10 79 -78 142 -150 142zM263 636v99h94v-99h-94z" />
    <glyph glyph-name="Gcommaaccent" unicode="&#x122;" horiz-adv-x="684" 
d="M618 418v-380c-52 -27 -120 -53 -227 -53c-185 0 -332 116 -332 343v92c0 227 147 349 332 349c100 0 163 -24 204 -50v-100c-44 36 -118 62 -204 62c-120 0 -231 -81 -231 -254v-106c0 -173 101 -248 231 -248c50 0 92 5 129 14v240h-193v91h291zM404 -245h-68l9 151h85
z" />
    <glyph glyph-name="gcommaaccent" unicode="&#x123;" 
d="M530 535v-516c0 -141 -83 -253 -262 -253c-64 0 -129 14 -180 34v87c61 -27 133 -38 182 -38c130 0 167 72 167 176v54c-36 -54 -88 -94 -165 -94c-143 0 -218 97 -218 249v66c0 141 73 249 218 249c75 0 129 -34 165 -84v70h93zM287 467c-86 0 -140 -60 -140 -162v-76
c0 -102 52 -162 138 -162c83 0 149 78 152 156v102c-10 79 -78 142 -150 142zM293 796h68l-15 -182h-75z" />
    <glyph glyph-name="Hcircumflex" unicode="&#x124;" horiz-adv-x="751" 
d="M657 755v-755h-98v340h-367v-340h-98v755h98v-324h367v324h98zM424 960l121 -133h-93l-66 74l-65 -74h-94l121 133h76z" />
    <glyph glyph-name="hcircumflex" unicode="&#x125;" horiz-adv-x="610" 
d="M79 0v755h93v-287c37 50 93 81 168 81c135 0 196 -83 196 -223v-326h-93v319c0 102 -61 143 -126 143c-73 0 -142 -51 -145 -142v-320h-93zM158 927l121 -133h-93l-66 74l-65 -74h-94l121 133h76z" />
    <glyph glyph-name="Hbar" unicode="&#x126;" horiz-adv-x="755" 
d="M659 755v-83h58v-79h-58v-593h-98v340h-367v-340h-98v593h-59v79h59v83h98v-83h367v83h98zM194 593v-162h367v162h-367z" />
    <glyph glyph-name="hbar" unicode="&#x127;" horiz-adv-x="610" 
d="M79 0v609h-76v72h76v74h93v-74h172v-72h-172v-141c37 50 93 81 168 81c135 0 196 -83 196 -223v-326h-93v319c0 102 -61 143 -126 143c-73 0 -142 -51 -145 -142v-320h-93z" />
    <glyph glyph-name="Itilde" unicode="&#x128;" horiz-adv-x="286" 
d="M192 755v-755h-98v755h98zM85 868c-26 0 -56 -19 -80 -35v66c18 17 47 40 80 40c43 0 94 -41 133 -41c26 0 53 18 76 34v-64c-18 -20 -49 -41 -79 -41c-42 0 -93 41 -130 41z" />
    <glyph glyph-name="itilde" unicode="&#x129;" horiz-adv-x="251" 
d="M79 0v535h93v-535h-93zM62 677c-26 0 -56 -19 -80 -35v66c18 17 47 40 80 40c43 0 94 -41 133 -41c26 0 53 18 76 34v-64c-18 -20 -49 -41 -79 -41c-42 0 -93 41 -130 41z" />
    <glyph glyph-name="Imacron" unicode="&#x12a;" horiz-adv-x="286" 
d="M192 755v-755h-98v755h98zM-9 858v68h300v-68h-300z" />
    <glyph glyph-name="imacron" unicode="&#x12b;" horiz-adv-x="251" 
d="M79 0v535h93v-535h-93zM-11 658v68h265v-68h-265z" />
    <glyph glyph-name="Ibreve" unicode="&#x12c;" horiz-adv-x="286" 
d="M192 755v-755h-98v755h98zM197 954h75c0 -78 -43 -123 -133 -123c-95 0 -132 48 -132 123h72c0 -50 25 -60 60 -60c31 0 58 9 58 60z" />
    <glyph glyph-name="ibreve" unicode="&#x12d;" horiz-adv-x="251" 
d="M79 0v535h93v-535h-93zM192 756h75c0 -78 -42 -133 -132 -133c-95 0 -133 58 -133 133h72c0 -50 26 -70 61 -70c31 0 57 19 57 70z" />
    <glyph glyph-name="Iogonek" unicode="&#x12e;" horiz-adv-x="286" 
d="M37 -111c0 47 22 87 57 115v751h98v-755h-10c-55 -23 -71 -61 -71 -97c0 -37 18 -53 62 -53h35v-72h-53c-80 0 -118 50 -118 111z" />
    <glyph glyph-name="iogonek" unicode="&#x12f;" horiz-adv-x="252" 
d="M-1 -111c0 57 33 104 81 132v514h93v-535h-29c-55 -23 -71 -61 -71 -97c0 -37 18 -53 62 -53h35v-72h-53c-80 0 -118 50 -118 111zM77 646v109h99v-109h-99z" />
    <glyph glyph-name="Idotaccent" unicode="&#x130;" horiz-adv-x="286" 
d="M192 755v-755h-98v755h98zM96 846v99h94v-99h-94z" />
    <glyph glyph-name="dotlessi" unicode="&#x131;" horiz-adv-x="251" 
d="M79 0v535h93v-535h-93z" />
    <glyph glyph-name="IJ" unicode="&#x132;" horiz-adv-x="772" 
d="M585 199v468h-245v88h343v-560c0 -140 -97 -210 -228 -210c-47 0 -93 12 -124 27v90c32 -19 75 -29 124 -29c65 0 130 11 130 126zM192 755v-755h-98v755h98z" />
    <glyph glyph-name="ij" unicode="&#x133;" horiz-adv-x="510" 
d="M79 0v535h93v-535h-93zM76 646v109h99v-109h-99zM431 535v-579c0 -118 -46 -190 -177 -190c-24 0 -37 3 -50 7v85c11 -5 28 -9 50 -9c65 0 84 33 84 113v573h93zM335 646v109h99v-109h-99z" />
    <glyph glyph-name="Jcircumflex" unicode="&#x134;" horiz-adv-x="486" 
d="M299 199v468h-245v88h343v-560c0 -140 -97 -210 -228 -210c-47 0 -93 12 -124 27v90c32 -19 75 -29 124 -29c65 0 130 11 130 126zM271 960l121 -133h-93l-66 74l-65 -74h-94l121 133h76z" />
    <glyph glyph-name="jcircumflex" unicode="&#x135;" horiz-adv-x="259" 
d="M171 775l121 -153h-85l-74 99l-77 -99h-82l121 153h76zM180 535v-579c0 -118 -46 -190 -177 -190c-24 0 -37 3 -50 7v85c11 -5 28 -9 50 -9c65 0 84 33 84 113v573h93z" />
    <glyph glyph-name="Kcommaaccent" unicode="&#x136;" horiz-adv-x="661" 
d="M192 755v-326h116l218 326h112l-250 -364l264 -391h-118l-227 343h-115v-343h-98v755h98zM363 -245h-68l9 151h85z" />
    <glyph glyph-name="kcommaaccent" unicode="&#x137;" horiz-adv-x="528" 
d="M79 0v755h93v-433h81l146 213h105l-181 -248l196 -287h-107l-164 245h-76v-245h-93zM286 -245h-68l9 151h85z" />
    <glyph glyph-name="uni0138" unicode="&#x138;" horiz-adv-x="528" 
d="M79 0v535h93v-213h81l146 213h105l-181 -248l196 -287h-107l-164 245h-76v-245h-93z" />
    <glyph glyph-name="Lacute" unicode="&#x139;" horiz-adv-x="520" 
d="M508 88v-88h-414v755h98v-667h316zM186 960h89l-88 -133h-78z" />
    <glyph glyph-name="lacute" unicode="&#x13a;" horiz-adv-x="286" 
d="M160 960h89l-88 -133h-78zM75 145v610h93v-604c0 -60 10 -83 51 -83c22 0 39 4 50 9v-80c-13 -6 -37 -12 -61 -12c-108 0 -133 55 -133 160z" />
    <glyph glyph-name="Lcommaaccent" unicode="&#x13b;" horiz-adv-x="520" 
d="M508 88v-88h-414v755h98v-667h316zM318 -245h-68l9 151h85z" />
    <glyph glyph-name="lcommaaccent" unicode="&#x13c;" horiz-adv-x="286" 
d="M200 -245h-68l9 151h85zM75 145v610h93v-604c0 -60 10 -83 51 -83c22 0 39 4 50 9v-80c-13 -6 -37 -12 -61 -12c-108 0 -133 55 -133 160z" />
    <glyph glyph-name="Lcaron" unicode="&#x13d;" horiz-adv-x="520" 
d="M508 88v-88h-414v755h98v-667h316zM394 612h-63l14 215h81z" />
    <glyph glyph-name="lcaron" unicode="&#x13e;" horiz-adv-x="295" 
d="M309 540h-63l14 215h81zM75 145v610h93v-604c0 -60 10 -83 51 -83c22 0 39 4 50 9v-80c-13 -6 -37 -12 -61 -12c-108 0 -133 55 -133 160z" />
    <glyph glyph-name="Ldot" unicode="&#x13f;" horiz-adv-x="521" 
d="M508 88v-88h-414v755h98v-667h316zM325 339v102h97v-102h-97z" />
    <glyph glyph-name="ldot" unicode="&#x140;" horiz-adv-x="326" 
d="M238 338v99h94v-99h-94zM75 145v610h93v-604c0 -60 10 -83 51 -83c22 0 39 4 50 9v-80c-13 -6 -37 -12 -61 -12c-108 0 -133 55 -133 160z" />
    <glyph glyph-name="Lslash" unicode="&#x141;" horiz-adv-x="538" 
d="M210 755v-318l167 97v-83l-167 -97v-266h316v-88h-414v298l-87 -50v82l87 50v375h98z" />
    <glyph glyph-name="lslash" unicode="&#x142;" horiz-adv-x="351" 
d="M118 145v171l-85 -53v85l85 53v354h93v-296l92 57v-83l-92 -58v-224c0 -60 10 -83 51 -83c22 0 39 4 50 9v-80c-13 -6 -37 -12 -61 -12c-108 0 -133 55 -133 160z" />
    <glyph glyph-name="Nacute" unicode="&#x143;" horiz-adv-x="741" 
d="M647 755v-755h-93l-367 589v-589h-93v755h93l367 -585v585h93zM413 960h89l-88 -133h-78z" />
    <glyph glyph-name="nacute" unicode="&#x144;" horiz-adv-x="610" 
d="M79 0v535h93v-67c37 50 93 81 168 81c135 0 196 -83 196 -223v-326h-93v319c0 102 -61 143 -126 143c-73 0 -142 -51 -145 -142v-320h-93zM367 775h89l-99 -153h-78z" />
    <glyph glyph-name="Ncommaaccent" unicode="&#x145;" horiz-adv-x="741" 
d="M647 755v-755h-93l-367 589v-589h-93v755h93l367 -585v585h93zM394 -245h-68l9 151h85z" />
    <glyph glyph-name="ncommaaccent" unicode="&#x146;" horiz-adv-x="610" 
d="M79 0v535h93v-67c37 50 93 81 168 81c135 0 196 -83 196 -223v-326h-93v319c0 102 -61 143 -126 143c-73 0 -142 -51 -145 -142v-320h-93zM326 -245h-68l9 151h85z" />
    <glyph glyph-name="Ncaron" unicode="&#x147;" horiz-adv-x="741" 
d="M647 755v-755h-93l-367 589v-589h-93v755h93l367 -585v585h93zM348 827l-121 133h93l66 -74l65 74h94l-121 -133h-76z" />
    <glyph glyph-name="ncaron" unicode="&#x148;" horiz-adv-x="610" 
d="M79 0v535h93v-67c37 50 93 81 168 81c135 0 196 -83 196 -223v-326h-93v319c0 102 -61 143 -126 143c-73 0 -142 -51 -145 -142v-320h-93zM269 622l-121 153h85l74 -99l77 99h82l-121 -153h-76z" />
    <glyph glyph-name="napostrophe" unicode="&#x149;" horiz-adv-x="610" 
d="M79 0v535h93v-67c37 50 93 81 168 81c135 0 196 -83 196 -223v-326h-93v319c0 102 -61 143 -126 143c-73 0 -142 -51 -145 -142v-320h-93zM7 611l39 235h93l-39 -235h-93z" />
    <glyph glyph-name="Eng" unicode="&#x14a;" horiz-adv-x="741" 
d="M647 755v-778c0 -140 -92 -210 -223 -210c-47 0 -93 12 -124 27v90c32 -19 75 -29 124 -29c65 0 130 11 130 126v19l-367 589v-589h-93v755h93l367 -585v585h93z" />
    <glyph glyph-name="eng" unicode="&#x14b;" horiz-adv-x="610" 
d="M536 -44c0 -118 -46 -190 -177 -190c-24 0 -37 3 -50 7v85c11 -5 28 -9 50 -9c65 0 84 33 84 113v357c0 102 -61 143 -126 143c-75 0 -145 -53 -145 -149v-313h-93v535h93v-67c37 50 93 81 168 81c135 0 196 -83 196 -223v-370z" />
    <glyph glyph-name="Omacron" unicode="&#x14c;" horiz-adv-x="725" 
d="M210 858v68h300v-68h-300zM60 328v92c0 227 117 349 302 349s303 -122 303 -349v-92c0 -227 -118 -343 -303 -343s-302 116 -302 343zM161 427v-106c0 -173 71 -248 201 -248c131 0 203 75 203 248v106c0 173 -82 254 -203 254c-120 0 -201 -81 -201 -254z" />
    <glyph glyph-name="omacron" unicode="&#x14d;" horiz-adv-x="584" 
d="M160 658v68h265v-68h-265zM54 234v66c0 162 106 249 238 249s239 -87 239 -249v-66c0 -162 -107 -249 -239 -249s-238 87 -238 249zM147 305v-76c0 -102 59 -162 145 -162s146 60 146 162v76c0 102 -60 162 -146 162s-145 -60 -145 -162z" />
    <glyph glyph-name="Obreve" unicode="&#x14e;" horiz-adv-x="725" 
d="M427 954h75c0 -78 -43 -123 -133 -123c-95 0 -132 48 -132 123h72c0 -50 25 -60 60 -60c31 0 58 9 58 60zM60 328v92c0 227 117 349 302 349s303 -122 303 -349v-92c0 -227 -118 -343 -303 -343s-302 116 -302 343zM161 427v-106c0 -173 71 -248 201 -248
c131 0 203 75 203 248v106c0 173 -82 254 -203 254c-120 0 -201 -81 -201 -254z" />
    <glyph glyph-name="obreve" unicode="&#x14f;" horiz-adv-x="584" 
d="M54 234v66c0 162 106 249 238 249s239 -87 239 -249v-66c0 -162 -107 -249 -239 -249s-238 87 -238 249zM147 305v-76c0 -102 59 -162 145 -162s146 60 146 162v76c0 102 -60 162 -146 162s-145 -60 -145 -162zM344 756h75c0 -78 -42 -133 -132 -133
c-95 0 -133 58 -133 133h72c0 -50 26 -70 61 -70c31 0 57 19 57 70z" />
    <glyph glyph-name="Ohungarumlaut" unicode="&#x150;" horiz-adv-x="725" 
d="M60 328v92c0 227 117 349 302 349s303 -122 303 -349v-92c0 -227 -118 -343 -303 -343s-302 116 -302 343zM161 427v-106c0 -173 71 -248 201 -248c131 0 203 75 203 248v106c0 173 -82 254 -203 254c-120 0 -201 -81 -201 -254zM305 960h89l-88 -133h-78zM457 960h89
l-88 -133h-78z" />
    <glyph glyph-name="ohungarumlaut" unicode="&#x151;" horiz-adv-x="584" 
d="M247 801h89l-99 -153h-78zM412 801h89l-109 -153h-78zM54 234v66c0 162 106 249 238 249s239 -87 239 -249v-66c0 -162 -107 -249 -239 -249s-238 87 -238 249zM147 305v-76c0 -102 59 -162 145 -162s146 60 146 162v76c0 102 -60 162 -146 162s-145 -60 -145 -162z" />
    <glyph glyph-name="OE" unicode="&#x152;" horiz-adv-x="1071" 
d="M1015 88v-88h-464v64c-40 -53 -101 -79 -189 -79c-185 0 -302 116 -302 343v92c0 227 117 349 302 349c88 0 149 -29 189 -83v69h455v-88h-357v-238h328v-86h-328v-255h366zM161 427v-106c0 -173 71 -248 201 -248c131 0 189 75 189 248v119c-4 164 -71 241 -189 241
c-120 0 -201 -81 -201 -254z" />
    <glyph glyph-name="oe" unicode="&#x153;" horiz-adv-x="947" 
d="M54 234v66c0 162 106 249 238 249c78 0 148 -31 192 -90c40 57 105 90 182 90c132 0 229 -77 229 -239v-83h-364v-5c3 -99 71 -155 164 -155c68 0 118 6 187 48v-83c-59 -34 -112 -47 -196 -47c-85 0 -158 31 -202 91c-43 -60 -113 -91 -192 -91c-132 0 -238 87 -238 249
zM147 305v-76c0 -102 59 -162 145 -162s146 60 146 162v76c0 102 -60 162 -146 162s-145 -60 -145 -162zM531 312v-6h271v9c0 102 -50 152 -136 152c-84 0 -133 -58 -135 -155z" />
    <glyph glyph-name="Racute" unicode="&#x154;" horiz-adv-x="671" 
d="M602 546c0 -103 -44 -174 -132 -206l166 -340h-116l-146 323h-182v-323h-98v755h257c172 0 251 -85 251 -209zM339 667h-147v-258h158c120 0 151 54 151 128c0 102 -53 130 -162 130zM359 960h89l-88 -133h-78z" />
    <glyph glyph-name="racute" unicode="&#x155;" horiz-adv-x="362" 
d="M79 0v535h93v-80c37 55 92 94 167 94v-89c-7 1 -14 2 -22 2c-73 0 -142 -70 -145 -162v-300h-93zM271 775h89l-99 -153h-78z" />
    <glyph glyph-name="Rcommaaccent" unicode="&#x156;" horiz-adv-x="671" 
d="M602 546c0 -103 -44 -174 -132 -206l166 -340h-116l-146 323h-182v-323h-98v755h257c172 0 251 -85 251 -209zM339 667h-147v-258h158c120 0 151 54 151 128c0 102 -53 130 -162 130zM367 -245h-68l9 151h85z" />
    <glyph glyph-name="rcommaaccent" unicode="&#x157;" horiz-adv-x="362" 
d="M79 0v535h93v-80c37 55 92 94 167 94v-89c-7 1 -14 2 -22 2c-73 0 -142 -70 -145 -162v-300h-93zM145 -245h-68l9 151h85z" />
    <glyph glyph-name="Rcaron" unicode="&#x158;" horiz-adv-x="671" 
d="M602 546c0 -103 -44 -174 -132 -206l166 -340h-116l-146 323h-182v-323h-98v755h257c172 0 251 -85 251 -209zM339 667h-147v-258h158c120 0 151 54 151 128c0 102 -53 130 -162 130zM287 827l-121 133h93l66 -74l65 74h94l-121 -133h-76z" />
    <glyph glyph-name="rcaron" unicode="&#x159;" horiz-adv-x="362" 
d="M79 0v535h93v-80c37 55 92 94 167 94v-89c-7 1 -14 2 -22 2c-73 0 -142 -70 -145 -162v-300h-93zM170 622l-121 153h85l74 -99l77 99h82l-121 -153h-76z" />
    <glyph glyph-name="Sacute" unicode="&#x15a;" horiz-adv-x="614" 
d="M62 47v101c70 -45 146 -75 236 -75c105 0 170 54 170 135c0 88 -42 116 -162 130l-50 6c-119 14 -198 83 -198 209c0 136 115 214 258 214c95 0 159 -21 214 -58v-101c-65 45 -132 74 -211 74c-105 0 -162 -43 -162 -131c0 -84 32 -108 145 -122l50 -6
c125 -15 216 -67 216 -208c0 -147 -121 -226 -278 -226c-87 0 -155 18 -228 58zM334 960h89l-88 -133h-78z" />
    <glyph glyph-name="sacute" unicode="&#x15b;" horiz-adv-x="516" 
d="M303 775h89l-99 -153h-78zM58 27v92c61 -30 120 -52 190 -52c78 0 132 24 132 82c0 57 -47 79 -112 82l-53 4c-84 5 -164 38 -164 156c0 102 98 159 203 159c82 0 148 -16 194 -41v-93c-60 34 -133 50 -184 50c-78 0 -124 -26 -124 -80c0 -58 59 -68 112 -72l60 -5
c90 -7 159 -44 159 -154c0 -119 -124 -169 -227 -169c-58 0 -140 16 -186 41z" />
    <glyph glyph-name="Scircumflex" unicode="&#x15c;" horiz-adv-x="614" 
d="M62 47v101c70 -45 146 -75 236 -75c105 0 170 54 170 135c0 88 -42 116 -162 130l-50 6c-119 14 -198 83 -198 209c0 136 115 214 258 214c95 0 159 -21 214 -58v-101c-65 45 -132 74 -211 74c-105 0 -162 -43 -162 -131c0 -84 32 -108 145 -122l50 -6
c125 -15 216 -67 216 -208c0 -147 -121 -226 -278 -226c-87 0 -155 18 -228 58zM348 960l121 -133h-93l-66 74l-65 -74h-94l121 133h76z" />
    <glyph glyph-name="scircumflex" unicode="&#x15d;" horiz-adv-x="516" 
d="M294 775l121 -153h-85l-74 99l-77 -99h-82l121 153h76zM58 27v92c61 -30 120 -52 190 -52c78 0 132 24 132 82c0 57 -47 79 -112 82l-53 4c-84 5 -164 38 -164 156c0 102 98 159 203 159c82 0 148 -16 194 -41v-93c-60 34 -133 50 -184 50c-78 0 -124 -26 -124 -80
c0 -58 59 -68 112 -72l60 -5c90 -7 159 -44 159 -154c0 -119 -124 -169 -227 -169c-58 0 -140 16 -186 41z" />
    <glyph glyph-name="Scedilla" unicode="&#x15e;" horiz-adv-x="614" 
d="M256 -102v92c-72 4 -131 22 -194 57v101c70 -45 146 -75 236 -75c105 0 170 54 170 135c0 88 -42 116 -162 130l-50 6c-119 14 -198 83 -198 209c0 136 115 214 258 214c95 0 159 -21 214 -58v-101c-65 45 -132 74 -211 74c-105 0 -162 -43 -162 -131
c0 -84 32 -108 145 -122l50 -6c125 -15 216 -67 216 -208c0 -139 -108 -217 -252 -225v-33h10c70 0 110 -27 110 -86c0 -60 -41 -98 -121 -98h-62v64h43c44 0 68 2 67 31c-1 25 -14 30 -43 30h-64z" />
    <glyph glyph-name="scedilla" unicode="&#x15f;" horiz-adv-x="516" 
d="M204 -97v86c-52 5 -110 18 -146 38v92c61 -30 120 -52 190 -52c78 0 132 24 132 82c0 57 -47 79 -112 82l-53 4c-84 5 -164 38 -164 156c0 102 98 159 203 159c82 0 148 -16 194 -41v-93c-60 34 -133 50 -184 50c-78 0 -124 -26 -124 -80c0 -58 59 -68 112 -72l60 -5
c90 -7 159 -44 159 -154c0 -112 -109 -162 -207 -168v-25h10c70 0 110 -27 110 -86c0 -60 -41 -98 -121 -98h-62v64h43c44 0 68 2 67 31c-1 25 -14 30 -43 30h-64z" />
    <glyph glyph-name="Scaron" unicode="&#x160;" horiz-adv-x="614" 
d="M274 827l-121 133h93l66 -74l65 74h94l-121 -133h-76zM62 47v101c70 -45 146 -75 236 -75c105 0 170 54 170 135c0 88 -42 116 -162 130l-50 6c-119 14 -198 83 -198 209c0 136 115 214 258 214c95 0 159 -21 214 -58v-101c-65 45 -132 74 -211 74
c-105 0 -162 -43 -162 -131c0 -84 32 -108 145 -122l50 -6c125 -15 216 -67 216 -208c0 -147 -121 -226 -278 -226c-87 0 -155 18 -228 58z" />
    <glyph glyph-name="scaron" unicode="&#x161;" horiz-adv-x="516" 
d="M219 622l-121 153h85l74 -99l77 99h82l-121 -153h-76zM58 27v92c61 -30 120 -52 190 -52c78 0 132 24 132 82c0 57 -47 79 -112 82l-53 4c-84 5 -164 38 -164 156c0 102 98 159 203 159c82 0 148 -16 194 -41v-93c-60 34 -133 50 -184 50c-78 0 -124 -26 -124 -80
c0 -58 59 -68 112 -72l60 -5c90 -7 159 -44 159 -154c0 -119 -124 -169 -227 -169c-58 0 -140 16 -186 41z" />
    <glyph glyph-name="Tcommaaccent" unicode="&#x162;" horiz-adv-x="614" 
d="M601 755v-91h-240v-664h-98v664h-250v91h588zM327 -245h-68l9 151h85z" />
    <glyph glyph-name="tcommaaccent" unicode="&#x163;" horiz-adv-x="394" 
d="M24 456v79h95v165h93v-165h140v-79h-140v-275c0 -80 19 -113 85 -113c20 0 54 3 69 8v-81c-17 -5 -44 -10 -76 -10c-123 0 -171 74 -171 190v281h-95zM261 -245h-68l9 151h85z" />
    <glyph glyph-name="Tcaron" unicode="&#x164;" horiz-adv-x="614" 
d="M601 755v-91h-240v-664h-98v664h-250v91h588zM270 827l-121 133h93l66 -74l65 74h94l-121 -133h-76z" />
    <glyph glyph-name="tcaron" unicode="&#x165;" horiz-adv-x="394" 
d="M24 456v79h95v165h93v-165h140v-79h-140v-275c0 -80 19 -113 85 -113c20 0 54 3 69 8v-81c-17 -5 -44 -10 -76 -10c-123 0 -171 74 -171 190v281h-95zM355 612h-63l14 215h81z" />
    <glyph glyph-name="Tbar" unicode="&#x166;" horiz-adv-x="631" 
d="M609 755v-91h-240v-268h147v-81h-147v-315h-98v315h-150v81h150v268h-250v91h588z" />
    <glyph glyph-name="tbar" unicode="&#x167;" horiz-adv-x="397" 
d="M26 456v79h95v165h93v-165h140v-79h-140v-136h115v-82h-115v-57c0 -80 19 -113 85 -113c20 0 54 3 69 8v-81c-17 -5 -44 -10 -76 -10c-123 0 -171 74 -171 190v63h-77v82h77v136h-95z" />
    <glyph glyph-name="Utilde" unicode="&#x168;" horiz-adv-x="757" 
d="M321 868c-26 0 -56 -19 -80 -35v66c18 17 47 40 80 40c43 0 94 -41 133 -41c26 0 53 18 76 34v-64c-18 -20 -49 -41 -79 -41c-42 0 -93 41 -130 41zM573 755h98v-427c0 -227 -108 -343 -293 -343s-292 116 -292 343v427h99v-434c0 -173 63 -248 193 -248
c131 0 195 75 195 248v434z" />
    <glyph glyph-name="utilde" unicode="&#x169;" horiz-adv-x="605" 
d="M526 535v-535h-93v62c-34 -47 -85 -76 -157 -76c-135 0 -202 83 -202 223v326h93v-329c0 -102 61 -133 126 -133c73 0 137 50 140 142v320h93zM246 677c-26 0 -56 -19 -80 -35v66c18 17 47 40 80 40c43 0 94 -41 133 -41c26 0 53 18 76 34v-64c-18 -20 -49 -41 -79 -41
c-42 0 -93 41 -130 41z" />
    <glyph glyph-name="Umacron" unicode="&#x16a;" horiz-adv-x="757" 
d="M227 858v68h300v-68h-300zM573 755h98v-427c0 -227 -108 -343 -293 -343s-292 116 -292 343v427h99v-434c0 -173 63 -248 193 -248c131 0 195 75 195 248v434z" />
    <glyph glyph-name="umacron" unicode="&#x16b;" horiz-adv-x="605" 
d="M526 535v-535h-93v62c-34 -47 -85 -76 -157 -76c-135 0 -202 83 -202 223v326h93v-329c0 -102 61 -133 126 -133c73 0 137 50 140 142v320h93zM168 658v68h265v-68h-265z" />
    <glyph glyph-name="Ubreve" unicode="&#x16c;" horiz-adv-x="757" 
d="M435 954h75c0 -78 -43 -123 -133 -123c-95 0 -132 48 -132 123h72c0 -50 25 -60 60 -60c31 0 58 9 58 60zM573 755h98v-427c0 -227 -108 -343 -293 -343s-292 116 -292 343v427h99v-434c0 -173 63 -248 193 -248c131 0 195 75 195 248v434z" />
    <glyph glyph-name="ubreve" unicode="&#x16d;" horiz-adv-x="605" 
d="M526 535v-535h-93v62c-34 -47 -85 -76 -157 -76c-135 0 -202 83 -202 223v326h93v-329c0 -102 61 -133 126 -133c73 0 137 50 140 142v320h93zM357 756h75c0 -78 -42 -133 -132 -133c-95 0 -133 58 -133 133h72c0 -50 26 -70 61 -70c31 0 57 19 57 70z" />
    <glyph glyph-name="Uring" unicode="&#x16e;" horiz-adv-x="757" 
d="M489 910c0 -63 -46 -99 -103 -99c-56 0 -102 35 -102 99c0 63 46 102 102 102c57 0 103 -39 103 -102zM441 910c0 34 -23 56 -55 56s-55 -22 -55 -56s23 -54 55 -54s55 20 55 54zM573 755h98v-427c0 -227 -108 -343 -293 -343s-292 116 -292 343v427h99v-434
c0 -173 63 -248 193 -248c131 0 195 75 195 248v434z" />
    <glyph glyph-name="uring" unicode="&#x16f;" horiz-adv-x="605" 
d="M526 535v-535h-93v62c-34 -47 -85 -76 -157 -76c-135 0 -202 83 -202 223v326h93v-329c0 -102 61 -133 126 -133c73 0 137 50 140 142v320h93zM401 705c0 -83 -46 -119 -103 -119c-56 0 -102 35 -102 119c0 63 46 102 102 102c57 0 103 -39 103 -102zM353 705
c0 34 -23 56 -55 56s-55 -22 -55 -76c0 -34 23 -54 55 -54s55 20 55 74z" />
    <glyph glyph-name="Uhungarumlaut" unicode="&#x170;" horiz-adv-x="757" 
d="M573 755h98v-427c0 -227 -108 -343 -293 -343s-292 116 -292 343v427h99v-434c0 -173 63 -248 193 -248c131 0 195 75 195 248v434zM336 960h89l-88 -133h-78zM488 960h89l-88 -133h-78z" />
    <glyph glyph-name="uhungarumlaut" unicode="&#x171;" horiz-adv-x="605" 
d="M526 535v-535h-93v62c-34 -47 -85 -76 -157 -76c-135 0 -202 83 -202 223v326h93v-329c0 -102 61 -133 126 -133c73 0 137 50 140 142v320h93zM425 801h89l-109 -153h-78zM260 801h89l-99 -153h-78z" />
    <glyph glyph-name="Uogonek" unicode="&#x172;" horiz-adv-x="757" 
d="M573 755h98v-427c0 -196 -81 -309 -221 -336c-50 -23 -64 -59 -64 -94c0 -37 18 -53 62 -53h35v-72h-53c-80 0 -118 50 -118 111c0 40 16 75 42 102c-170 10 -268 125 -268 342v427h99v-434c0 -173 63 -248 193 -248c131 0 195 75 195 248v434z" />
    <glyph glyph-name="uogonek" unicode="&#x173;" horiz-adv-x="605" 
d="M526 535v-535h-21c-55 -23 -71 -61 -71 -97c0 -37 18 -53 62 -53h35v-72h-53c-80 0 -118 50 -118 111c0 54 29 98 73 127v46c-34 -47 -85 -76 -157 -76c-135 0 -202 83 -202 223v326h93v-329c0 -102 61 -133 126 -133c75 0 140 53 140 149v313h93z" />
    <glyph glyph-name="Wcircumflex" unicode="&#x174;" horiz-adv-x="985" 
d="M967 755l-204 -755h-103l-87 289l-84 303l-86 -303l-90 -289h-105l-177 755h106l131 -622l179 622h98l168 -624l150 624h104zM533 960l121 -133h-93l-66 74l-65 -74h-94l121 133h76z" />
    <glyph glyph-name="wcircumflex" unicode="&#x175;" horiz-adv-x="855" 
d="M832 535l-164 -535h-106l-132 398l-136 -398h-108l-163 535h101l120 -437l142 437h90l138 -431l122 431h96zM467 775l121 -153h-85l-74 99l-77 -99h-82l121 153h76z" />
    <glyph glyph-name="Ycircumflex" unicode="&#x176;" horiz-adv-x="629" 
d="M610 755l-248 -472v-283h-98v286l-242 469h115l179 -370l190 370h104zM362 960l121 -133h-93l-66 74l-65 -74h-94l121 133h76z" />
    <glyph glyph-name="ycircumflex" unicode="&#x177;" horiz-adv-x="553" 
d="M259 -222h-100l72 200l-210 557h101l157 -440l161 440h96l-204 -535h-1zM321 775l121 -153h-85l-74 99l-77 -99h-82l121 153h76z" />
    <glyph glyph-name="Ydieresis" unicode="&#x178;" horiz-adv-x="629" 
d="M610 755l-248 -472v-283h-98v286l-242 469h115l179 -370l190 370h104zM373 846v99h94v-99h-94zM169 846v99h94v-99h-94z" />
    <glyph glyph-name="Zacute" unicode="&#x179;" horiz-adv-x="618" 
d="M573 755v-91l-419 -573h419v-91h-527v91l423 573h-423v91h527zM337 960h89l-88 -133h-78z" />
    <glyph glyph-name="zacute" unicode="&#x17a;" horiz-adv-x="513" 
d="M467 535v-65l-312 -388h315v-82h-429v69l307 384h-299v82h418zM292 775h89l-99 -153h-78z" />
    <glyph glyph-name="Zdotaccent" unicode="&#x17b;" horiz-adv-x="618" 
d="M573 755v-91l-419 -573h419v-91h-527v91l423 573h-423v91h527zM271 846v99h94v-99h-94z" />
    <glyph glyph-name="zdotaccent" unicode="&#x17c;" horiz-adv-x="513" 
d="M467 535v-65l-312 -388h315v-82h-429v69l307 384h-299v82h418zM211 636v99h94v-99h-94z" />
    <glyph glyph-name="Zcaron" unicode="&#x17d;" horiz-adv-x="618" 
d="M573 755v-91l-419 -573h419v-91h-527v91l423 573h-423v91h527zM278 827l-121 133h93l66 -74l65 74h94l-121 -133h-76z" />
    <glyph glyph-name="zcaron" unicode="&#x17e;" horiz-adv-x="513" 
d="M467 535v-65l-312 -388h315v-82h-429v69l307 384h-299v82h418zM217 622l-121 153h85l74 -99l77 99h82l-121 -153h-76z" />
    <glyph glyph-name="uni018E" unicode="&#x18e;" horiz-adv-x="611" 
d="M53 0v88h366v255h-328v86h328v238h-357v88h455v-755h-464z" />
    <glyph glyph-name="uni018F" unicode="&#x18f;" horiz-adv-x="687" 
d="M52 420h477v7c0 173 -111 254 -241 254c-77 0 -157 -28 -197 -62v100c40 26 125 50 212 50c197 0 324 -122 324 -349v-92c0 -227 -110 -343 -295 -343s-280 116 -280 343v92zM334 73c129 0 195 70 195 248v8h-378v-8c0 -174 51 -248 183 -248z" />
    <glyph glyph-name="florin" unicode="&#x192;" horiz-adv-x="535" 
d="M262 535v-109h221v-88h-221v-372c0 -101 -48 -200 -186 -200c-65 0 -105 22 -127 33v90c32 -20 86 -35 126 -35c73 0 89 51 89 115v369h-120v88h120v113c0 140 72 230 221 230c67 0 101 -18 131 -33v-90c-36 21 -78 35 -137 35c-80 0 -117 -25 -117 -146z" />
    <glyph glyph-name="Ohorn" unicode="&#x1a0;" horiz-adv-x="733" 
d="M60 328v92c0 227 117 349 302 349c56 0 105 -11 148 -33h5c45 5 85 37 85 87v66h71v-77c0 -71 -42 -113 -92 -129c55 -59 86 -147 86 -263v-92c0 -227 -118 -343 -303 -343s-302 116 -302 343zM161 427v-106c0 -173 71 -248 201 -248c131 0 203 75 203 248v106
c0 173 -82 254 -203 254c-120 0 -201 -81 -201 -254z" />
    <glyph glyph-name="ohorn" unicode="&#x1a1;" horiz-adv-x="596" 
d="M54 234v66c0 162 106 249 238 249c43 0 83 -9 118 -27h10c49 0 62 34 62 68v66h71v-77c0 -62 -28 -101 -74 -113c33 -41 52 -97 52 -166v-66c0 -162 -107 -249 -239 -249s-238 87 -238 249zM147 305v-76c0 -102 59 -162 145 -162s146 60 146 162v76
c0 102 -60 162 -146 162s-145 -60 -145 -162z" />
    <glyph glyph-name="Uhorn" unicode="&#x1af;" horiz-adv-x="761" 
d="M573 755h72c49 0 62 34 62 68v66h71v-77c0 -76 -41 -117 -107 -117v-367c0 -227 -108 -343 -293 -343s-292 116 -292 343v427h99v-434c0 -173 63 -248 193 -248c131 0 195 75 195 248v434z" />
    <glyph glyph-name="uhorn" unicode="&#x1b0;" horiz-adv-x="638" 
d="M74 535h93v-329c0 -102 61 -133 126 -133c73 0 137 50 140 142v320h88c49 0 62 34 62 68v66h71v-77c0 -76 -41 -117 -108 -117h-20v-475h-93v62c-34 -47 -85 -76 -157 -76c-135 0 -202 83 -202 223v326z" />
    <glyph glyph-name="uni01C4" unicode="&#x1c4;" horiz-adv-x="1317" 
d="M326 755c185 0 313 -108 313 -335v-92c0 -227 -128 -328 -313 -328h-232v755h232zM326 667h-134v-579h134c131 0 213 60 213 233v106c0 173 -92 240 -213 240zM1272 755v-91l-419 -573h419v-91h-527v91l423 573h-423v91h527zM977 827l-121 133h93l66 -74l65 74h94
l-121 -133h-76z" />
    <glyph glyph-name="uni01C5" unicode="&#x1c5;" horiz-adv-x="1212" 
d="M326 755c185 0 313 -108 313 -335v-92c0 -227 -128 -328 -313 -328h-232v755h232zM326 667h-134v-579h134c131 0 213 60 213 233v106c0 173 -92 240 -213 240zM1166 535v-65l-312 -388h315v-82h-429v69l307 384h-299v82h418zM916 622l-121 153h85l74 -99l77 99h82
l-121 -153h-76z" />
    <glyph glyph-name="uni01C6" unicode="&#x1c6;" horiz-adv-x="1122" 
d="M437 465v290h93v-755h-93v79c-36 -54 -88 -94 -165 -94c-143 0 -218 97 -218 249v66c0 141 73 249 218 249c75 0 129 -34 165 -84zM1076 535v-65l-312 -388h315v-82h-429v69l307 384h-299v82h418zM287 467c-86 0 -140 -60 -140 -162v-76c0 -102 52 -162 138 -162
c83 0 149 78 152 156v102c-10 79 -78 142 -150 142zM826 622l-121 153h85l74 -99l77 99h82l-121 -153h-76z" />
    <glyph glyph-name="uni01C7" unicode="&#x1c7;" horiz-adv-x="1006" 
d="M819 199v468h-245v88h343v-560c0 -140 -97 -210 -228 -210c-47 0 -93 12 -124 27v90c32 -19 75 -29 124 -29c65 0 130 11 130 126zM508 88v-88h-414v755h98v-667h316z" />
    <glyph glyph-name="uni01C8" unicode="&#x1c8;" horiz-adv-x="779" 
d="M508 88v-88h-414v755h98v-667h316zM700 535v-579c0 -118 -46 -190 -177 -190c-24 0 -37 3 -50 7v85c11 -5 28 -9 50 -9c65 0 84 33 84 113v573h93zM604 646v109h99v-109h-99z" />
    <glyph glyph-name="uni01C9" unicode="&#x1c9;" horiz-adv-x="545" 
d="M75 145v610h93v-604c0 -60 10 -83 51 -83c22 0 39 4 50 9v-80c-13 -6 -37 -12 -61 -12c-108 0 -133 55 -133 160zM466 535v-579c0 -118 -46 -190 -177 -190c-24 0 -37 3 -50 7v85c11 -5 28 -9 50 -9c65 0 84 33 84 113v573h93zM370 646v109h99v-109h-99z" />
    <glyph glyph-name="uni01CA" unicode="&#x1ca;" horiz-adv-x="1227" 
d="M647 755v-755h-93l-367 589v-589h-93v755h93l367 -585v585h93zM1040 199v468h-245v88h343v-560c0 -140 -97 -210 -228 -210c-47 0 -93 12 -124 27v90c32 -19 75 -29 124 -29c65 0 130 11 130 126z" />
    <glyph glyph-name="uni01CB" unicode="&#x1cb;" horiz-adv-x="1000" 
d="M647 755v-755h-93l-367 589v-589h-93v755h93l367 -585v585h93zM921 535v-579c0 -118 -46 -190 -177 -190c-24 0 -37 3 -50 7v85c11 -5 28 -9 50 -9c65 0 84 33 84 113v573h93zM825 646v109h99v-109h-99z" />
    <glyph glyph-name="uni01CC" unicode="&#x1cc;" horiz-adv-x="869" 
d="M79 0v535h93v-67c37 50 93 81 168 81c135 0 196 -83 196 -223v-326h-93v319c0 102 -61 143 -126 143c-75 0 -145 -53 -145 -149v-313h-93zM790 535v-579c0 -118 -46 -190 -177 -190c-24 0 -37 3 -50 7v85c11 -5 28 -9 50 -9c65 0 84 33 84 113v573h93zM694 646v109h99
v-109h-99z" />
    <glyph glyph-name="uni01CD" unicode="&#x1cd;" horiz-adv-x="684" 
d="M5 0l286 755h107l276 -755h-115l-64 188h-318l-68 -188h-104zM340 641l-132 -365h257zM307 827l-121 133h93l66 -74l65 74h94l-121 -133h-76z" />
    <glyph glyph-name="uni01CE" unicode="&#x1ce;" horiz-adv-x="549" 
d="M475 0h-93v58c-35 -49 -90 -73 -160 -73c-123 0 -179 57 -179 154c0 120 77 168 229 168h110v18c0 89 -21 142 -140 142c-70 0 -116 -17 -169 -65v91c42 34 86 56 186 56c167 0 216 -66 216 -219v-330zM233 64c65 0 145 30 149 127v37h-115c-99 0 -131 -18 -131 -86
c0 -52 32 -78 97 -78zM230 622l-121 153h85l74 -99l77 99h82l-121 -153h-76z" />
    <glyph glyph-name="uni01CF" unicode="&#x1cf;" horiz-adv-x="286" 
d="M192 755v-755h-98v755h98zM104 827l-121 133h93l66 -74l65 74h94l-121 -133h-76z" />
    <glyph glyph-name="uni01D0" unicode="&#x1d0;" horiz-adv-x="251" 
d="M87 622l-121 153h85l74 -99l77 99h82l-121 -153h-76zM79 0v535h93v-535h-93z" />
    <glyph glyph-name="uni01D1" unicode="&#x1d1;" horiz-adv-x="725" 
d="M324 827l-121 133h93l66 -74l65 74h94l-121 -133h-76zM60 328v92c0 227 117 349 302 349s303 -122 303 -349v-92c0 -227 -118 -343 -303 -343s-302 116 -302 343zM161 427v-106c0 -173 71 -248 201 -248c131 0 203 75 203 248v106c0 173 -82 254 -203 254
c-120 0 -201 -81 -201 -254z" />
    <glyph glyph-name="uni01D2" unicode="&#x1d2;" horiz-adv-x="584" 
d="M252 622l-121 153h85l74 -99l77 99h82l-121 -153h-76zM54 234v66c0 162 106 249 238 249s239 -87 239 -249v-66c0 -162 -107 -249 -239 -249s-238 87 -238 249zM147 305v-76c0 -102 59 -162 145 -162s146 60 146 162v76c0 102 -60 162 -146 162s-145 -60 -145 -162z" />
    <glyph glyph-name="uni01D3" unicode="&#x1d3;" horiz-adv-x="757" 
d="M344 827l-121 133h93l66 -74l65 74h94l-121 -133h-76zM573 755h98v-427c0 -227 -108 -343 -293 -343s-292 116 -292 343v427h99v-434c0 -173 63 -248 193 -248c131 0 195 75 195 248v434z" />
    <glyph glyph-name="uni01D4" unicode="&#x1d4;" horiz-adv-x="605" 
d="M526 535v-535h-93v62c-34 -47 -85 -76 -157 -76c-135 0 -202 83 -202 223v326h93v-329c0 -102 61 -133 126 -133c73 0 137 50 140 142v320h93zM271 622l-121 153h85l74 -99l77 99h82l-121 -153h-76z" />
    <glyph glyph-name="uni01D5" unicode="&#x1d5;" horiz-adv-x="757" 
d="M230 826v99h94v-99h-94zM434 826v99h94v-99h-94zM573 755h98v-427c0 -227 -108 -343 -293 -343s-292 116 -292 343v427h99v-434c0 -173 63 -248 193 -248c131 0 195 75 195 248v434zM246 991v68h265v-68h-265z" />
    <glyph glyph-name="uni01D6" unicode="&#x1d6;" horiz-adv-x="605" 
d="M526 535v-535h-93v62c-34 -47 -85 -76 -157 -76c-135 0 -202 83 -202 223v326h93v-329c0 -102 61 -133 126 -133c73 0 137 50 140 142v320h93zM174 777v68h265v-68h-265zM368 606v99h94v-99h-94zM154 606v99h94v-99h-94z" />
    <glyph glyph-name="uni01D7" unicode="&#x1d7;" horiz-adv-x="757" 
d="M237 826v99h94v-99h-94zM441 826v99h94v-99h-94zM426 1092h89l-88 -133h-78zM573 755h98v-427c0 -227 -108 -343 -293 -343s-292 116 -292 343v427h99v-434c0 -173 63 -248 193 -248c131 0 195 75 195 248v434z" />
    <glyph glyph-name="uni01D8" unicode="&#x1d8;" horiz-adv-x="605" 
d="M526 535v-535h-93v62c-34 -47 -85 -76 -157 -76c-135 0 -202 83 -202 223v326h93v-329c0 -102 61 -133 126 -133c75 0 140 53 140 149v313h93zM359 932h89l-99 -153h-78zM364 606v99h94v-99h-94zM150 606v99h94v-99h-94z" />
    <glyph glyph-name="uni01D9" unicode="&#x1d9;" horiz-adv-x="757" 
d="M241 826v99h94v-99h-94zM445 826v99h94v-99h-94zM573 755h98v-427c0 -227 -108 -343 -293 -343s-292 116 -292 343v427h99v-434c0 -173 63 -248 193 -248c131 0 195 75 195 248v434zM348 955l-121 133h93l66 -74l65 74h94l-121 -133h-76z" />
    <glyph glyph-name="uni01DA" unicode="&#x1da;" horiz-adv-x="605" 
d="M526 535v-535h-93v62c-34 -47 -85 -76 -157 -76c-135 0 -202 83 -202 223v326h93v-329c0 -102 61 -133 126 -133c75 0 140 53 140 149v313h93zM265 755l-121 153h85l74 -99l77 99h82l-121 -153h-76zM360 606v99h94v-99h-94zM146 606v99h94v-99h-94z" />
    <glyph glyph-name="uni01DB" unicode="&#x1db;" horiz-adv-x="757" 
d="M262 1083h89l77 -133h-78zM240 826v99h94v-99h-94zM444 826v99h94v-99h-94zM573 755h98v-427c0 -227 -108 -343 -293 -343s-292 116 -292 343v427h99v-434c0 -173 63 -248 193 -248c131 0 195 75 195 248v434z" />
    <glyph glyph-name="uni01DC" unicode="&#x1dc;" horiz-adv-x="605" 
d="M526 535v-535h-93v62c-34 -47 -85 -76 -157 -76c-135 0 -202 83 -202 223v326h93v-329c0 -102 61 -133 126 -133c73 0 137 50 140 142v320h93zM180 923h89l88 -153h-78zM367 606v99h94v-99h-94zM153 606v99h94v-99h-94z" />
    <glyph glyph-name="uni01DD" unicode="&#x1dd;" horiz-adv-x="562" 
d="M281 -14c-132 0 -229 77 -229 239v83h364c-1 101 -70 160 -164 160c-68 0 -118 -6 -187 -48v83c59 34 112 47 196 47c142 0 248 -87 248 -249v-66c0 -152 -96 -249 -228 -249zM281 68c85 0 134 59 135 161h-271v-9c0 -102 50 -152 136 -152z" />
    <glyph glyph-name="uni01E2" unicode="&#x1e2;" horiz-adv-x="952" 
d="M-6 0l366 755h527v-88h-357v-238h328v-86h-328v-255h366v-88h-464v238h-223l-111 -238h-104zM410 667l-159 -341h181v341h-22zM531 858v68h300v-68h-300z" />
    <glyph glyph-name="uni01E3" unicode="&#x1e3;" horiz-adv-x="891" 
d="M839 227h-364c1 -102 69 -160 164 -160c68 0 118 6 187 48v-83c-59 -34 -112 -47 -196 -47c-95 0 -174 38 -216 112c-35 -70 -101 -112 -182 -112c-129 0 -189 57 -189 154c0 120 77 168 229 168h110v18c0 89 -21 142 -140 142c-70 0 -116 -17 -169 -65v91
c42 34 86 56 186 56c89 0 145 -29 174 -83c41 53 103 83 177 83c132 0 229 -77 229 -239v-83zM610 467c-86 0 -135 -60 -135 -161h271v9c0 102 -50 152 -136 152zM233 64c81 0 148 52 149 155v9h-115c-99 0 -131 -18 -131 -86c0 -52 32 -78 97 -78zM308 658v68h265v-68h-265
z" />
    <glyph glyph-name="uni01E6" unicode="&#x1e6;" horiz-adv-x="684" 
d="M618 418v-380c-52 -27 -120 -53 -227 -53c-185 0 -332 116 -332 343v92c0 227 147 349 332 349c100 0 163 -24 204 -50v-100c-44 36 -118 62 -204 62c-120 0 -231 -81 -231 -254v-106c0 -173 101 -248 231 -248c50 0 92 5 129 14v240h-193v91h291zM351 827l-121 133h93
l66 -74l65 74h94l-121 -133h-76z" />
    <glyph glyph-name="uni01E7" unicode="&#x1e7;" 
d="M530 535v-516c0 -141 -83 -253 -262 -253c-64 0 -129 14 -180 34v87c61 -27 133 -38 182 -38c130 0 167 72 167 176v54c-36 -54 -88 -94 -165 -94c-143 0 -218 97 -218 249v66c0 141 73 249 218 249c75 0 129 -34 165 -84v70h93zM287 467c-86 0 -140 -60 -140 -162v-76
c0 -102 52 -162 138 -162c85 0 152 82 152 162v96c-10 79 -78 142 -150 142zM273 622l-121 153h85l74 -99l77 99h82l-121 -153h-76z" />
    <glyph glyph-name="uni01E8" unicode="&#x1e8;" horiz-adv-x="661" 
d="M192 755v-326h116l218 326h112l-250 -364l264 -391h-118l-227 343h-115v-343h-98v755h98zM305 827l-121 133h93l66 -74l65 74h94l-121 -133h-76z" />
    <glyph glyph-name="uni01E9" unicode="&#x1e9;" horiz-adv-x="528" 
d="M79 0v755h93v-433h81l146 213h105l-181 -248l196 -287h-107l-164 245h-76v-245h-93zM258 797l-121 133h93l66 -74l65 74h94l-121 -133h-76z" />
    <glyph glyph-name="uni01EA" unicode="&#x1ea;" horiz-adv-x="725" 
d="M60 328v92c0 227 117 349 302 349s303 -122 303 -349v-92c0 -205 -96 -319 -250 -339c-37 -23 -48 -55 -48 -86c0 -37 18 -53 62 -53h35v-72h-53c-80 0 -118 50 -118 111c0 38 14 71 38 98c-167 12 -271 127 -271 341zM161 427v-106c0 -173 71 -248 201 -248
c131 0 203 75 203 248v106c0 173 -82 254 -203 254c-120 0 -201 -81 -201 -254z" />
    <glyph glyph-name="uni01EB" unicode="&#x1eb;" horiz-adv-x="584" 
d="M54 234v66c0 162 106 249 238 249s239 -87 239 -249v-66c0 -140 -80 -224 -186 -244c-39 -23 -51 -56 -51 -87c0 -37 18 -53 62 -53h35v-72h-53c-80 0 -118 50 -118 111c0 38 15 72 39 98c-116 13 -205 99 -205 247zM147 305v-76c0 -102 59 -162 145 -162s146 60 146 162
v76c0 102 -60 162 -146 162s-145 -60 -145 -162z" />
    <glyph glyph-name="uni01EC" unicode="&#x1ec;" horiz-adv-x="725" 
d="M293 -111c0 38 14 71 38 98c-167 12 -271 127 -271 341v92c0 227 117 349 302 349s303 -122 303 -349v-92c0 -205 -96 -319 -250 -339c-37 -23 -48 -55 -48 -86c0 -37 18 -53 62 -53h35v-72h-53c-80 0 -118 50 -118 111zM161 427v-106c0 -173 71 -248 201 -248
c131 0 203 75 203 248v106c0 173 -82 254 -203 254c-120 0 -201 -81 -201 -254zM213 858v68h300v-68h-300z" />
    <glyph glyph-name="uni01ED" unicode="&#x1ed;" horiz-adv-x="584" 
d="M220 -111c0 38 15 72 39 98c-116 13 -205 99 -205 247v66c0 162 106 249 238 249s239 -87 239 -249v-66c0 -140 -80 -224 -186 -244c-39 -23 -51 -56 -51 -87c0 -37 18 -53 62 -53h35v-72h-53c-80 0 -118 50 -118 111zM147 305v-76c0 -102 59 -162 145 -162
s146 60 146 162v76c0 102 -60 162 -146 162s-145 -60 -145 -162zM163 658v68h265v-68h-265z" />
    <glyph glyph-name="uni01EE" unicode="&#x1ee;" horiz-adv-x="603" 
d="M53 664v91h491v-91l-272 -242c208 -2 276 -92 276 -212c0 -116 -73 -225 -285 -225c-91 0 -170 35 -214 62v100c47 -33 128 -74 214 -74c114 0 183 41 183 131c0 85 -42 135 -205 135h-90v81l266 244h-364zM259 827l-121 133h93l66 -74l65 74h94l-121 -133h-76z" />
    <glyph glyph-name="uni01EF" unicode="&#x1ef;" horiz-adv-x="498" 
d="M453 468l-245 -269c158 -5 251 -76 251 -219c0 -115 -96 -214 -253 -214c-58 0 -137 16 -183 41v88c57 -30 110 -46 186 -46c78 0 155 40 155 132c0 93 -57 137 -180 137h-82v80l230 255h-305v82h426v-67zM201 622l-121 153h85l74 -99l77 99h82l-121 -153h-76z" />
    <glyph glyph-name="uni01F1" unicode="&#x1f1;" horiz-adv-x="1317" 
d="M326 755c185 0 313 -108 313 -335v-92c0 -227 -128 -328 -313 -328h-232v755h232zM326 667h-134v-579h134c131 0 213 60 213 233v106c0 173 -92 240 -213 240zM1272 755v-91l-419 -573h419v-91h-527v91l423 573h-423v91h527z" />
    <glyph glyph-name="uni01F2" unicode="&#x1f2;" horiz-adv-x="1212" 
d="M326 755c185 0 313 -108 313 -335v-92c0 -227 -128 -328 -313 -328h-232v755h232zM326 667h-134v-579h134c131 0 213 60 213 233v106c0 173 -92 240 -213 240zM1166 535v-65l-312 -388h315v-82h-429v69l307 384h-299v82h418z" />
    <glyph glyph-name="uni01F3" unicode="&#x1f3;" horiz-adv-x="1122" 
d="M437 465v290h93v-755h-93v79c-36 -54 -88 -94 -165 -94c-143 0 -218 97 -218 249v66c0 141 73 249 218 249c75 0 129 -34 165 -84zM1076 535v-65l-312 -388h315v-82h-429v69l307 384h-299v82h418zM287 467c-86 0 -140 -60 -140 -162v-76c0 -102 52 -162 138 -162
c85 0 152 82 152 162v96c-10 79 -78 142 -150 142z" />
    <glyph glyph-name="uni01F4" unicode="&#x1f4;" horiz-adv-x="684" 
d="M618 418v-380c-52 -27 -120 -53 -227 -53c-185 0 -332 116 -332 343v92c0 227 147 349 332 349c100 0 163 -24 204 -50v-100c-44 36 -118 62 -204 62c-120 0 -231 -81 -231 -254v-106c0 -173 101 -248 231 -248c50 0 92 5 129 14v240h-193v91h291zM403 960h89l-88 -133
h-78z" />
    <glyph glyph-name="uni01F5" unicode="&#x1f5;" 
d="M530 535v-516c0 -141 -83 -253 -262 -253c-64 0 -129 14 -180 34v87c61 -27 133 -38 182 -38c130 0 167 72 167 176v54c-36 -54 -88 -94 -165 -94c-143 0 -218 97 -218 249v66c0 141 73 249 218 249c75 0 129 -34 165 -84v70h93zM287 467c-86 0 -140 -60 -140 -162v-76
c0 -102 52 -162 138 -162c85 0 152 82 152 162v96c-10 79 -78 142 -150 142zM341 775h89l-99 -153h-78z" />
    <glyph glyph-name="uni01F8" unicode="&#x1f8;" horiz-adv-x="741" 
d="M647 755v-755h-93l-367 589v-589h-93v755h93l367 -585v585h93zM251 960h89l77 -133h-78z" />
    <glyph glyph-name="uni01F9" unicode="&#x1f9;" horiz-adv-x="610" 
d="M79 0v535h93v-67c37 50 93 81 168 81c135 0 196 -83 196 -223v-326h-93v319c0 102 -61 143 -126 143c-73 0 -142 -51 -145 -142v-320h-93zM175 775h89l88 -153h-78z" />
    <glyph glyph-name="uni01FA" unicode="&#x1fa;" horiz-adv-x="684" 
d="M5 0l286 755h107l276 -755h-115l-64 188h-318l-68 -188h-104zM340 641l-132 -365h257zM448 892c0 -63 -46 -99 -103 -99c-56 0 -102 35 -102 99c0 63 46 102 102 102c57 0 103 -39 103 -102zM380 1153h89l-88 -133h-78zM400 892c0 34 -23 56 -55 56s-55 -22 -55 -56
s23 -54 55 -54s55 20 55 54z" />
    <glyph glyph-name="uni01FB" unicode="&#x1fb;" horiz-adv-x="549" 
d="M475 0h-93v58c-35 -49 -90 -73 -160 -73c-123 0 -179 57 -179 154c0 120 77 168 229 168h110v18c0 89 -21 142 -140 142c-70 0 -116 -17 -169 -65v91c42 34 86 56 186 56c167 0 216 -66 216 -219v-330zM376 685c0 -63 -46 -99 -103 -99c-56 0 -102 35 -102 119
c0 63 46 102 102 102c57 0 103 -39 103 -122zM382 199v29h-115c-99 0 -131 -18 -131 -86c0 -52 32 -78 97 -78c67 0 149 32 149 135zM328 705c0 34 -23 56 -55 56s-55 -22 -55 -76c0 -34 23 -54 55 -54s55 20 55 74zM311 977h89l-88 -133h-78z" />
    <glyph glyph-name="AEacute" unicode="&#x1fc;" horiz-adv-x="952" 
d="M-6 0l366 755h527v-88h-357v-238h328v-86h-328v-255h366v-88h-464v238h-223l-111 -238h-104zM410 667l-159 -341h181v341h-22zM699 960h89l-88 -133h-78z" />
    <glyph glyph-name="aeacute" unicode="&#x1fd;" horiz-adv-x="891" 
d="M839 227h-364c1 -102 69 -160 164 -160c68 0 118 6 187 48v-83c-59 -34 -112 -47 -196 -47c-95 0 -174 38 -216 112c-35 -70 -101 -112 -182 -112c-129 0 -189 57 -189 154c0 120 77 168 229 168h110v18c0 89 -21 142 -140 142c-70 0 -116 -17 -169 -65v91
c42 34 86 56 186 56c89 0 145 -29 174 -83c41 53 103 83 177 83c132 0 229 -77 229 -239v-83zM610 467c-86 0 -135 -60 -135 -161h271v9c0 102 -50 152 -136 152zM233 64c81 0 148 52 149 155v9h-115c-99 0 -131 -18 -131 -86c0 -52 32 -78 97 -78zM484 775h89l-99 -153h-78
z" />
    <glyph glyph-name="Oslashacute" unicode="&#x1fe;" horiz-adv-x="728" 
d="M62 328v92c0 227 117 349 302 349c72 0 133 -19 182 -54l36 54h86l-70 -106c44 -58 69 -140 69 -243v-92c0 -227 -118 -343 -303 -343c-72 0 -133 17 -181 51l-34 -51h-87l68 102c-44 57 -68 137 -68 241zM567 427c0 60 -10 108 -28 147l-305 -461c32 -27 76 -40 130 -40
c131 0 203 75 203 248v106zM163 427v-106c0 -60 8 -109 25 -146l306 461c-34 30 -79 45 -130 45c-120 0 -201 -81 -201 -254zM405 960h89l-88 -133h-78z" />
    <glyph glyph-name="oslashacute" unicode="&#x1ff;" horiz-adv-x="585" 
d="M54 234v66c0 162 106 249 238 249c50 0 97 -13 136 -38l27 38h76l-56 -79c35 -41 56 -98 56 -170v-66c0 -162 -107 -249 -239 -249c-51 0 -98 13 -136 37l-27 -37h-75l56 78c-35 42 -56 99 -56 171zM438 305c0 34 -7 63 -19 87l-213 -299c23 -17 52 -26 86 -26
c86 0 146 60 146 162v76zM147 305v-76c0 -34 6 -64 18 -88l213 300c-23 17 -53 26 -86 26c-86 0 -145 -60 -145 -162zM342 775h89l-99 -153h-78z" />
    <glyph glyph-name="Scommaaccent" unicode="&#x218;" horiz-adv-x="614" 
d="M315 -245h-68l9 151h85zM62 47v101c70 -45 146 -75 236 -75c105 0 170 54 170 135c0 88 -42 116 -162 130l-50 6c-119 14 -198 83 -198 209c0 136 115 214 258 214c95 0 159 -21 214 -58v-101c-65 45 -132 74 -211 74c-105 0 -162 -43 -162 -131c0 -84 32 -108 145 -122
l50 -6c125 -15 216 -67 216 -208c0 -147 -121 -226 -278 -226c-87 0 -155 18 -228 58z" />
    <glyph glyph-name="scommaaccent" unicode="&#x219;" horiz-adv-x="516" 
d="M265 -245h-68l9 151h85zM58 27v92c61 -30 120 -52 190 -52c78 0 132 24 132 82c0 57 -47 79 -112 82l-53 4c-84 5 -164 38 -164 156c0 102 98 159 203 159c82 0 148 -16 194 -41v-93c-60 34 -133 50 -184 50c-78 0 -124 -26 -124 -80c0 -58 59 -68 112 -72l60 -5
c90 -7 159 -44 159 -154c0 -119 -124 -169 -227 -169c-58 0 -140 16 -186 41z" />
    <glyph glyph-name="uni021A" unicode="&#x21a;" horiz-adv-x="614" 
d="M601 755v-91h-240v-664h-98v664h-250v91h588zM327 -245h-68l9 151h85z" />
    <glyph glyph-name="uni021B" unicode="&#x21b;" horiz-adv-x="394" 
d="M24 456v79h95v165h93v-165h140v-79h-140v-275c0 -80 19 -113 85 -113c20 0 54 3 69 8v-81c-17 -5 -44 -10 -76 -10c-123 0 -171 74 -171 190v281h-95zM263 -245h-68l9 151h85z" />
    <glyph glyph-name="uni021C" unicode="&#x21c;" horiz-adv-x="607" 
d="M264 -15c-81 0 -170 35 -214 62v100c47 -33 138 -74 214 -74c118 0 183 41 183 131c0 94 -68 139 -190 139h-114v86h115c120 0 177 50 177 124c0 102 -80 128 -172 128c-76 0 -152 -34 -206 -72v101c48 31 123 59 214 59c187 0 265 -83 265 -207
c0 -84 -52 -136 -128 -169c81 -25 141 -87 141 -183c0 -116 -70 -225 -285 -225z" />
    <glyph glyph-name="uni021D" unicode="&#x21d;" horiz-adv-x="502" 
d="M212 549c159 0 227 -79 227 -192c0 -89 -47 -145 -125 -177c81 -22 143 -87 143 -187c0 -120 -68 -227 -251 -227c-58 0 -137 16 -183 41v88c57 -30 110 -46 186 -46c90 0 153 48 153 138c0 93 -62 153 -184 153h-77v79h79c108 0 166 47 166 123c0 99 -66 123 -142 123
c-38 0 -110 -16 -170 -50v93c43 24 118 41 178 41z" />
    <glyph glyph-name="uni021E" unicode="&#x21e;" horiz-adv-x="751" 
d="M657 755v-755h-98v340h-367v-340h-98v755h98v-324h367v324h98zM339 827l-121 133h93l66 -74l65 74h94l-121 -133h-76z" />
    <glyph glyph-name="uni021F" unicode="&#x21f;" horiz-adv-x="610" 
d="M79 0v755h93v-287c37 50 93 81 168 81c135 0 196 -83 196 -223v-326h-93v319c0 102 -61 143 -126 143c-73 0 -142 -51 -145 -142v-320h-93zM277 797l-121 133h93l66 -74l65 74h94l-121 -133h-76z" />
    <glyph glyph-name="uni0226" unicode="&#x226;" horiz-adv-x="684" 
d="M5 0l286 755h107l276 -755h-115l-64 188h-318l-68 -188h-104zM340 641l-132 -365h257zM297 846v99h94v-99h-94z" />
    <glyph glyph-name="uni0227" unicode="&#x227;" horiz-adv-x="549" 
d="M475 0h-93v58c-35 -49 -90 -73 -160 -73c-123 0 -179 57 -179 154c0 120 77 168 229 168h110v18c0 89 -21 142 -140 142c-70 0 -116 -17 -169 -65v91c42 34 86 56 186 56c167 0 216 -66 216 -219v-330zM233 64c65 0 145 30 149 127v37h-115c-99 0 -131 -18 -131 -86
c0 -52 32 -78 97 -78zM228 636v99h94v-99h-94z" />
    <glyph glyph-name="uni0228" unicode="&#x228;" horiz-adv-x="614" 
d="M459 -124c0 -60 -41 -98 -121 -98h-62v64h43c44 0 68 2 67 31c-1 25 -14 30 -43 30h-64v97h-185v755h455v-88h-357v-238h328v-86h-328v-255h366v-88h-219v-38h10c70 0 110 -27 110 -86z" />
    <glyph glyph-name="uni0229" unicode="&#x229;" horiz-adv-x="563" 
d="M431 -124c0 -60 -41 -98 -121 -98h-62v64h43c44 0 68 2 67 31c-1 25 -14 30 -43 30h-64v86c-116 18 -197 103 -197 245v66c0 152 96 249 228 249s229 -77 229 -239v-83h-364c1 -102 69 -160 164 -160c68 0 118 6 187 48v-83c-57 -33 -108 -46 -187 -47v-23h10
c70 0 110 -27 110 -86zM282 467c-86 0 -135 -60 -135 -161h271v9c0 102 -50 152 -136 152z" />
    <glyph glyph-name="uni022E" unicode="&#x22e;" horiz-adv-x="725" 
d="M306 846v99h94v-99h-94zM60 328v92c0 227 117 349 302 349s303 -122 303 -349v-92c0 -227 -118 -343 -303 -343s-302 116 -302 343zM161 427v-106c0 -173 71 -248 201 -248c131 0 203 75 203 248v106c0 173 -82 254 -203 254c-120 0 -201 -81 -201 -254z" />
    <glyph glyph-name="uni022F" unicode="&#x22f;" horiz-adv-x="584" 
d="M54 234v66c0 162 106 249 238 249s239 -87 239 -249v-66c0 -162 -107 -249 -239 -249s-238 87 -238 249zM147 305v-76c0 -102 59 -162 145 -162s146 60 146 162v76c0 102 -60 162 -146 162s-145 -60 -145 -162zM235 636v99h94v-99h-94z" />
    <glyph glyph-name="uni0232" unicode="&#x232;" horiz-adv-x="629" 
d="M610 755l-248 -472v-283h-98v286l-242 469h115l179 -370l190 370h104zM168 858v68h300v-68h-300z" />
    <glyph glyph-name="uni0233" unicode="&#x233;" horiz-adv-x="553" 
d="M259 -222h-100l72 200l-210 557h101l157 -440l161 440h96l-204 -535h-1zM146 659v68h265v-68h-265z" />
    <glyph glyph-name="uni0237" unicode="&#x237;" horiz-adv-x="259" 
d="M180 535v-579c0 -118 -46 -190 -177 -190c-24 0 -37 3 -50 7v85c11 -5 28 -9 50 -9c65 0 84 33 84 113v573h93z" />
    <glyph glyph-name="uni0259" unicode="&#x259;" horiz-adv-x="562" 
d="M281 -14c-132 0 -229 77 -229 239v83h364c-1 101 -70 160 -164 160c-68 0 -118 -6 -187 -48v83c59 34 112 47 196 47c142 0 248 -87 248 -249v-66c0 -152 -96 -249 -228 -249zM281 68c85 0 134 59 135 161h-271v-9c0 -102 50 -152 136 -152z" />
    <glyph glyph-name="uni02BC" unicode="&#x2bc;" horiz-adv-x="217" 
d="M58 588c11 32 17 69 17 108c0 19 -1 39 -4 59h82c3 -18 5 -38 5 -58c0 -39 -6 -78 -17 -109h-83z" />
    <glyph glyph-name="circumflex" unicode="&#x2c6;" horiz-adv-x="500" 
d="M288 775l121 -153h-85l-74 99l-77 -99h-82l121 153h76z" />
    <glyph glyph-name="caron" unicode="&#x2c7;" horiz-adv-x="563" 
d="M242 622l-121 153h85l74 -99l77 99h82l-121 -153h-76z" />
    <glyph glyph-name="breve" unicode="&#x2d8;" horiz-adv-x="531" 
d="M323 756h75c0 -78 -42 -133 -132 -133c-95 0 -133 58 -133 133h72c0 -50 26 -70 61 -70c31 0 57 19 57 70z" />
    <glyph glyph-name="dotaccent" unicode="&#x2d9;" horiz-adv-x="427" 
d="M179 636v99h94v-99h-94z" />
    <glyph glyph-name="ring" unicode="&#x2da;" horiz-adv-x="475" 
d="M341 705c0 -83 -46 -119 -103 -119c-56 0 -102 35 -102 119c0 63 46 102 102 102c57 0 103 -39 103 -102zM293 705c0 34 -23 56 -55 56s-55 -22 -55 -76c0 -34 23 -54 55 -54s55 20 55 74z" />
    <glyph glyph-name="ogonek" unicode="&#x2db;" horiz-adv-x="442" 
d="M250 -111c0 77 60 134 136 155l19 -40c-63 -23 -81 -63 -81 -101c0 -37 18 -53 62 -53h35v-72h-53c-80 0 -118 50 -118 111z" />
    <glyph glyph-name="tilde" unicode="&#x2dc;" horiz-adv-x="489" 
d="M183 677c-26 0 -56 -19 -80 -35v66c18 17 47 40 80 40c43 0 94 -41 133 -41c26 0 53 18 76 34v-64c-18 -20 -49 -41 -79 -41c-42 0 -93 41 -130 41z" />
    <glyph glyph-name="hungarumlaut" unicode="&#x2dd;" horiz-adv-x="574" 
d="M221 801h89l-99 -153h-78zM386 801h89l-109 -153h-78z" />
    <glyph glyph-name="gravecmb" unicode="&#x300;" horiz-adv-x="0" 
d="M-356 755h89l88 -153h-78z" />
    <glyph glyph-name="acutecmb" unicode="&#x301;" horiz-adv-x="0" 
d="M-264 755h89l-99 -153h-78z" />
    <glyph glyph-name="uni0302" unicode="&#x302;" horiz-adv-x="0" 
d="M-224 755l121 -153h-85l-74 99l-77 -99h-82l121 153h76z" />
    <glyph glyph-name="tildecmb" unicode="&#x303;" horiz-adv-x="0" 
d="M-331 677c-26 0 -56 -19 -80 -35v66c18 17 47 40 80 40c43 0 94 -41 133 -41c26 0 53 18 76 34v-64c-18 -20 -49 -41 -79 -41c-42 0 -93 41 -130 41z" />
    <glyph glyph-name="uni0304" unicode="&#x304;" horiz-adv-x="0" 
d="M-397 658v68h265v-68h-265z" />
    <glyph glyph-name="uni0306" unicode="&#x306;" horiz-adv-x="0" 
d="M-199 756h75c0 -78 -42 -133 -132 -133c-95 0 -133 58 -133 133h72c0 -50 26 -70 61 -70c31 0 57 19 57 70z" />
    <glyph glyph-name="uni0307" unicode="&#x307;" horiz-adv-x="0" 
d="M-315 636v99h94v-99h-94z" />
    <glyph glyph-name="uni0308" unicode="&#x308;" horiz-adv-x="0" 
d="M-418 636v99h94v-99h-94zM-204 636v99h94v-99h-94z" />
    <glyph glyph-name="hookcmb" unicode="&#x309;" horiz-adv-x="0" 
d="M-173 689c0 -41 -24 -73 -39 -87h-73c26 23 42 52 42 79c0 30 -20 40 -44 40c-17 0 -44 -5 -57 -11v58c17 7 47 11 66 11c53 0 105 -29 105 -90z" />
    <glyph glyph-name="uni030A" unicode="&#x30a;" horiz-adv-x="0" 
d="M-160 685c0 -63 -46 -99 -103 -99c-56 0 -102 35 -102 119c0 63 46 102 102 102c57 0 103 -39 103 -122zM-208 705c0 34 -23 56 -55 56s-55 -22 -55 -76c0 -34 23 -54 55 -54s55 20 55 74z" />
    <glyph glyph-name="uni030B" unicode="&#x30b;" horiz-adv-x="0" 
d="M-327 801h89l-99 -153h-78zM-162 801h89l-109 -153h-78z" />
    <glyph glyph-name="uni030C" unicode="&#x30c;" horiz-adv-x="0" 
d="M-308 602l-121 153h85l74 -99l77 99h82l-121 -153h-76z" />
    <glyph glyph-name="uni0310" unicode="&#x310;" horiz-adv-x="0" 
d="M-194 756h75c0 -78 -42 -133 -152 -133c-115 0 -153 58 -153 133h72c0 -50 26 -70 81 -70c51 0 77 19 77 70zM-320 765v99h94v-99h-94z" />
    <glyph glyph-name="dotbelowcmb" unicode="&#x323;" horiz-adv-x="72" 
d="M-152 -209v109h99v-109h-99z" />
    <glyph glyph-name="uni0324" unicode="&#x324;" horiz-adv-x="0" 
d="M-413 -208v99h94v-99h-94zM-199 -208v99h94v-99h-94z" />
    <glyph glyph-name="uni0325" unicode="&#x325;" horiz-adv-x="0" 
d="M-154 -190c0 -83 -46 -119 -103 -119c-56 0 -102 35 -102 119c0 63 46 102 102 102c57 0 103 -39 103 -102zM-202 -190c0 34 -23 56 -55 56s-55 -22 -55 -76c0 -34 23 -54 55 -54s55 20 55 74z" />
    <glyph glyph-name="uni0327" unicode="&#x327;" horiz-adv-x="0" 
d="M-175 -124c0 -60 -41 -98 -121 -98h-62v64h43c44 0 68 2 67 31c-1 25 -14 30 -43 30h-64v102h60v-43h10c70 0 110 -27 110 -86z" />
    <glyph glyph-name="uni0328" unicode="&#x328;" horiz-adv-x="0" 
d="M-346 -111c0 77 60 134 136 155l19 -40c-63 -23 -81 -63 -81 -101c0 -37 18 -53 62 -53h35v-72h-53c-80 0 -118 50 -118 111z" />
    <glyph glyph-name="uni032E" unicode="&#x32e;" horiz-adv-x="0" 
d="M-210 -87h75c0 -78 -42 -133 -132 -133c-95 0 -133 58 -133 133h72c0 -50 26 -70 61 -70c31 0 57 19 57 70z" />
    <glyph glyph-name="uni0331" unicode="&#x331;" horiz-adv-x="0" 
d="M-406 -189v68h265v-68h-265z" />
    <glyph glyph-name="uni0374" unicode="&#x374;" horiz-adv-x="269" 
d="M62 521l39 235h93l-39 -235h-93z" />
    <glyph glyph-name="uni0375" unicode="&#x375;" horiz-adv-x="282" 
d="M52 -133l39 235h93l-39 -235h-93z" />
    <glyph glyph-name="uni037E" unicode="&#x37e;" horiz-adv-x="272" 
d="M56 -133l39 235h93l-39 -235h-93zM96 371v109h99v-109h-99z" />
    <glyph glyph-name="tonos" unicode="&#x384;" horiz-adv-x="492" 
d="M236 775h89l-39 -153h-78z" />
    <glyph glyph-name="dieresistonos" unicode="&#x385;" horiz-adv-x="518" 
d="M216 767h97l-56 -135h-85zM55 632v99h94v-99h-94zM319 632v99h94v-99h-94z" />
    <glyph glyph-name="Alphatonos" unicode="&#x386;" horiz-adv-x="684" 
d="M5 0l286 755h107l276 -755h-115l-64 188h-318l-68 -188h-104zM340 641l-132 -365h257zM87 755h97l-56 -135h-85z" />
    <glyph glyph-name="anoteleia" unicode="&#x387;" horiz-adv-x="322" 
d="M67 238v109h99v-109h-99z" />
    <glyph glyph-name="Epsilontonos" unicode="&#x388;" horiz-adv-x="614" 
d="M558 88v-88h-464v755h455v-88h-357v-238h328v-86h-328v-255h366zM-53 755h97l-56 -135h-85z" />
    <glyph glyph-name="Etatonos" unicode="&#x389;" horiz-adv-x="751" 
d="M657 755v-755h-98v340h-367v-340h-98v755h98v-324h367v324h98zM-63 755h97l-56 -135h-85z" />
    <glyph glyph-name="Iotatonos" unicode="&#x38a;" horiz-adv-x="286" 
d="M192 755v-755h-98v755h98zM-73 755h97l-56 -135h-85z" />
    <glyph glyph-name="Omicrontonos" unicode="&#x38c;" horiz-adv-x="725" 
d="M60 328v92c0 227 117 349 302 349s303 -122 303 -349v-92c0 -227 -118 -343 -303 -343s-302 116 -302 343zM161 427v-106c0 -173 71 -248 201 -248c131 0 203 75 203 248v106c0 173 -82 254 -203 254c-120 0 -201 -81 -201 -254zM-28 755h97l-56 -135h-85z" />
    <glyph glyph-name="Upsilontonos" unicode="&#x38e;" horiz-adv-x="629" 
d="M610 755l-248 -472v-283h-98v286l-242 469h115l179 -370l190 370h104zM-113 755h97l-56 -135h-85z" />
    <glyph glyph-name="Omegatonos" unicode="&#x38f;" horiz-adv-x="754" 
d="M317 74v-74h-253v88h126c-65 62 -116 153 -116 250v82c0 227 117 349 302 349s303 -122 303 -349v-82c0 -110 -56 -192 -116 -250h129v-88h-253v74c38 40 140 129 140 257v96c0 173 -82 254 -203 254c-120 0 -201 -81 -201 -254v-96c0 -96 67 -208 142 -256l-1 -1h1z
M6 755h97l-56 -135h-85z" />
    <glyph glyph-name="iotadieresistonos" unicode="&#x390;" horiz-adv-x="286" 
d="M75 145v390h93v-384c0 -60 10 -83 51 -83c22 0 39 4 50 9v-80c-13 -6 -37 -12 -61 -12c-108 0 -133 55 -133 160zM122 766h97l-56 -135h-85zM-39 631v99h94v-99h-94zM225 631v99h94v-99h-94z" />
    <glyph glyph-name="Alpha" unicode="&#x391;" horiz-adv-x="684" 
d="M5 0l286 755h107l276 -755h-115l-64 188h-318l-68 -188h-104zM340 641l-132 -365h257z" />
    <glyph glyph-name="Beta" unicode="&#x392;" horiz-adv-x="677" 
d="M363 0h-269v755h257c172 0 251 -75 251 -199c0 -83 -39 -131 -105 -162c76 -23 126 -82 126 -178c0 -116 -69 -216 -260 -216zM355 343h-163v-255h160c102 0 169 32 169 122c0 94 -38 133 -166 133zM339 667h-147v-238h158c120 0 151 44 151 118c0 102 -73 120 -162 120z
" />
    <glyph glyph-name="Gamma" unicode="&#x393;" horiz-adv-x="561" 
d="M549 755v-91h-357v-664h-98v755h455z" />
    <glyph glyph-name="uni0394" unicode="&#x394;" horiz-adv-x="684" 
d="M5 0l286 755h107l276 -755h-669zM340 641l-200 -553h389z" />
    <glyph glyph-name="Epsilon" unicode="&#x395;" horiz-adv-x="614" 
d="M558 88v-88h-464v755h455v-88h-357v-238h328v-86h-328v-255h366z" />
    <glyph glyph-name="Zeta" unicode="&#x396;" horiz-adv-x="618" 
d="M573 755v-91l-419 -573h419v-91h-527v91l423 573h-423v91h527z" />
    <glyph glyph-name="Eta" unicode="&#x397;" horiz-adv-x="751" 
d="M657 755v-755h-98v340h-367v-340h-98v755h98v-324h367v324h98z" />
    <glyph glyph-name="Theta" unicode="&#x398;" horiz-adv-x="725" 
d="M60 328v92c0 227 117 349 302 349s303 -122 303 -349v-92c0 -227 -118 -343 -303 -343s-302 116 -302 343zM161 427v-106c0 -173 71 -248 201 -248c131 0 203 75 203 248v106c0 173 -82 254 -203 254c-120 0 -201 -81 -201 -254zM483 427v-79h-247v79h247z" />
    <glyph glyph-name="Iota" unicode="&#x399;" horiz-adv-x="286" 
d="M192 755v-755h-98v755h98z" />
    <glyph glyph-name="Kappa" unicode="&#x39a;" horiz-adv-x="661" 
d="M192 755v-326h116l218 326h112l-250 -364l264 -391h-118l-227 343h-115v-343h-98v755h98z" />
    <glyph glyph-name="Lambda" unicode="&#x39b;" horiz-adv-x="684" 
d="M5 0l286 755h107l276 -755h-115l-219 641l-231 -641h-104z" />
    <glyph glyph-name="Mu" unicode="&#x39c;" horiz-adv-x="852" 
d="M386 190l-199 371v-561h-93v755h93l237 -448l241 448h93v-755h-93v570l-202 -380h-77z" />
    <glyph glyph-name="Nu" unicode="&#x39d;" horiz-adv-x="741" 
d="M647 755v-755h-93l-367 589v-589h-93v755h93l367 -585v585h93z" />
    <glyph glyph-name="Xi" unicode="&#x39e;" horiz-adv-x="573" 
d="M519 755v-88h-464v88h464zM481 429v-86h-392v86h392zM519 88v-88h-464v88h464z" />
    <glyph glyph-name="Omicron" unicode="&#x39f;" horiz-adv-x="725" 
d="M60 328v92c0 227 117 349 302 349s303 -122 303 -349v-92c0 -227 -118 -343 -303 -343s-302 116 -302 343zM161 427v-106c0 -173 71 -248 201 -248c131 0 203 75 203 248v106c0 173 -82 254 -203 254c-120 0 -201 -81 -201 -254z" />
    <glyph glyph-name="Pi" unicode="&#x3a0;" horiz-adv-x="741" 
d="M647 755v-755h-98v664h-357v-664h-98v755h553z" />
    <glyph glyph-name="Rho" unicode="&#x3a1;" horiz-adv-x="635" 
d="M602 526c0 -140 -81 -243 -247 -243h-163v-283h-98v755h257c172 0 251 -105 251 -229zM339 667h-147v-298h158c120 0 151 74 151 148c0 102 -53 150 -162 150z" />
    <glyph glyph-name="Sigma" unicode="&#x3a3;" horiz-adv-x="623" 
d="M574 755v-91h-405l198 -270l-205 -303h412v-91h-527v81l209 307l-209 286v81h527z" />
    <glyph glyph-name="Tau" unicode="&#x3a4;" horiz-adv-x="614" 
d="M601 755v-91h-240v-664h-98v664h-250v91h588z" />
    <glyph glyph-name="Upsilon" unicode="&#x3a5;" horiz-adv-x="629" 
d="M610 755l-248 -472v-283h-98v286l-242 469h115l179 -370l190 370h104z" />
    <glyph glyph-name="Phi" unicode="&#x3a6;" horiz-adv-x="874" 
d="M834 390v-22c0 -207 -145 -303 -332 -303h-16v-90h-98v90h-16c-187 0 -332 96 -332 303v22c0 207 145 309 332 309h16v80h98v-80h16c187 0 332 -102 332 -309zM502 613h-16v-462h16c128 0 231 55 231 210v36c0 155 -109 216 -231 216zM141 361c0 -155 103 -210 231 -210
h16v462h-16c-122 0 -231 -61 -231 -216v-36z" />
    <glyph glyph-name="Chi" unicode="&#x3a7;" horiz-adv-x="641" 
d="M9 0l254 384l-237 371h116l181 -298l188 298h107l-238 -365l249 -390h-116l-193 315l-200 -315h-111z" />
    <glyph glyph-name="Psi" unicode="&#x3a8;" horiz-adv-x="828" 
d="M781 755v-207c0 -207 -115 -303 -302 -303h-16v-245h-98v245h-16c-187 0 -302 96 -302 303v207l101 1v-215c0 -155 73 -210 201 -210h16v424h98v-424h16c128 0 201 55 201 210v214h101z" />
    <glyph glyph-name="uni03A9" unicode="&#x3a9;" horiz-adv-x="754" 
d="M317 74v-74h-253v88h126c-65 62 -116 153 -116 250v82c0 227 117 349 302 349s303 -122 303 -349v-82c0 -110 -56 -192 -116 -250h129v-88h-253v74c38 40 140 129 140 257v96c0 173 -82 254 -203 254c-120 0 -201 -81 -201 -254v-96c0 -96 67 -208 142 -256l-1 -1h1z" />
    <glyph glyph-name="Iotadieresis" unicode="&#x3aa;" horiz-adv-x="286" 
d="M192 755v-755h-98v755h98zM-5 846v99h94v-99h-94zM199 846v99h94v-99h-94z" />
    <glyph glyph-name="Upsilondieresis" unicode="&#x3ab;" horiz-adv-x="629" 
d="M610 755l-248 -472v-283h-98v286l-242 469h115l179 -370l190 370h104zM370 846v99h94v-99h-94zM166 846v99h94v-99h-94z" />
    <glyph glyph-name="alphatonos" unicode="&#x3ac;" 
d="M437 0v79c-36 -54 -88 -94 -165 -94c-143 0 -218 97 -218 249v66c0 141 73 249 218 249c75 0 129 -34 165 -84v70h93v-535h-93zM285 67c83 0 149 78 152 156v102c-10 79 -78 142 -150 142c-86 0 -140 -60 -140 -162v-76c0 -102 52 -162 138 -162zM287 775h89l-39 -153
h-78z" />
    <glyph glyph-name="epsilontonos" unicode="&#x3ad;" horiz-adv-x="512" 
d="M281 -14c-187 0 -231 85 -231 167c0 67 40 110 99 126c-50 21 -80 59 -80 116c0 88 52 155 218 155c62 0 125 -15 172 -37v-93c-55 32 -121 46 -162 46c-68 0 -135 -10 -135 -77c0 -53 41 -74 125 -74h85v-81h-92c-83 0 -138 -13 -138 -80c0 -64 52 -87 143 -87
c44 0 119 14 176 47v-87c-52 -28 -128 -41 -180 -41zM254 775h89l-39 -153h-78z" />
    <glyph glyph-name="etatonos" unicode="&#x3ae;" horiz-adv-x="610" 
d="M79 0v535h93v-67c37 50 93 81 168 81c135 0 196 -83 196 -223v-548h-93v541c0 102 -61 143 -126 143c-73 0 -142 -51 -145 -142v-320h-93zM282 775h89l-39 -153h-78z" />
    <glyph glyph-name="iotatonos" unicode="&#x3af;" horiz-adv-x="286" 
d="M75 145v390h93v-384c0 -60 10 -83 51 -83c22 0 39 4 50 9v-80c-13 -6 -37 -12 -61 -12c-108 0 -133 55 -133 160zM113 775h89l-39 -153h-78z" />
    <glyph glyph-name="upsilondieresistonos" unicode="&#x3b0;" horiz-adv-x="599" 
d="M433 535h93v-326c0 -140 -92 -223 -219 -223c-177 0 -233 91 -233 221v328h93v-313c0 -118 56 -149 140 -149c76 0 126 31 126 133v329zM285 767h97l-56 -135h-85zM124 632v99h94v-99h-94zM388 632v99h94v-99h-94z" />
    <glyph glyph-name="alpha" unicode="&#x3b1;" 
d="M437 0v79c-36 -54 -88 -94 -165 -94c-143 0 -218 97 -218 249v66c0 141 73 249 218 249c75 0 129 -34 165 -84v70h93v-535h-93zM285 67c83 0 149 78 152 156v102c-10 79 -78 142 -150 142c-86 0 -140 -60 -140 -162v-76c0 -102 52 -162 138 -162z" />
    <glyph glyph-name="beta" unicode="&#x3b2;" horiz-adv-x="611" 
d="M326 -15c-71 0 -120 26 -154 73v-280h-93v721c0 160 82 270 242 270c174 0 208 -106 208 -178c0 -60 -37 -131 -117 -156c95 -26 149 -95 149 -187v-37c0 -121 -86 -226 -235 -226zM172 523v-314l1 1c8 -93 69 -143 155 -143c78 0 140 56 140 145v30
c0 86 -41 152 -159 152h-48v79h45c91 0 131 40 131 109c0 63 -38 105 -117 105c-81 0 -148 -33 -148 -164z" />
    <glyph glyph-name="gamma" unicode="&#x3b3;" horiz-adv-x="551" 
d="M228 -222v222l-210 535h101l157 -424l161 424h96l-212 -536v-221h-93z" />
    <glyph glyph-name="delta" unicode="&#x3b4;" horiz-adv-x="584" 
d="M197 633c0 -106 333 -39 333 -333v-66c0 -162 -107 -249 -239 -249s-238 87 -238 249v66c0 97 52 170 134 210c-51 22 -88 54 -88 118c0 98 96 141 204 141c98 0 149 -16 187 -34v-90c-55 25 -101 45 -181 45s-112 -21 -112 -57zM437 305c0 114 -84 147 -168 175
c-83 -32 -123 -99 -123 -175v-76c0 -102 59 -162 145 -162s146 60 146 162v76z" />
    <glyph glyph-name="epsilon" unicode="&#x3b5;" horiz-adv-x="512" 
d="M281 -14c-187 0 -231 85 -231 167c0 67 40 110 99 126c-50 21 -80 59 -80 116c0 88 52 155 218 155c62 0 125 -15 172 -37v-93c-55 32 -121 46 -162 46c-68 0 -135 -10 -135 -77c0 -53 41 -74 125 -74h85v-81h-92c-83 0 -138 -13 -138 -80c0 -64 52 -87 143 -87
c44 0 119 14 176 47v-87c-52 -28 -128 -41 -180 -41z" />
    <glyph glyph-name="zeta" unicode="&#x3b6;" horiz-adv-x="460" 
d="M450 755v-79c-144 -144 -305 -305 -305 -469c0 -222 303 -48 303 -272c0 -27 -5 -66 -12 -97h-75c6 23 9 48 9 66c0 164 -321 3 -321 297c0 176 166 352 296 475h-279v79h384z" />
    <glyph glyph-name="eta" unicode="&#x3b7;" horiz-adv-x="610" 
d="M79 0v535h93v-67c37 50 93 81 168 81c135 0 196 -83 196 -223v-548h-93v541c0 102 -61 143 -126 143c-73 0 -142 -51 -145 -142v-320h-93z" />
    <glyph glyph-name="theta" unicode="&#x3b8;" horiz-adv-x="621" 
d="M72 234v286c0 162 106 249 238 249s239 -87 239 -249v-286c0 -162 -107 -249 -239 -249s-238 87 -238 249zM310 67c86 0 146 60 146 162v119h-291v-119c0 -102 59 -162 145 -162zM165 525v-98h291v98c0 102 -60 162 -146 162s-145 -60 -145 -162z" />
    <glyph glyph-name="iota" unicode="&#x3b9;" horiz-adv-x="286" 
d="M75 145v390h93v-384c0 -60 10 -83 51 -83c22 0 39 4 50 9v-80c-13 -6 -37 -12 -61 -12c-108 0 -133 55 -133 160z" />
    <glyph glyph-name="kappa" unicode="&#x3ba;" horiz-adv-x="528" 
d="M79 0v535h93v-213h81l146 213h105l-181 -248l196 -287h-107l-164 245h-76v-245h-93z" />
    <glyph glyph-name="lambda" unicode="&#x3bb;" horiz-adv-x="556" 
d="M313 607l221 -607h-96l-162 437l-156 -437h-101l212 557l-12 35c-24 66 -61 88 -103 88c-13 0 -27 -2 -41 -6v89c21 4 40 7 58 7c86 0 139 -51 180 -163z" />
    <glyph glyph-name="uni03BC" unicode="&#x3bc;" horiz-adv-x="610" 
d="M531 535v-535h-93v62c-34 -47 -85 -76 -157 -76c-49 0 -84 11 -109 32v-240h-93v757h93v-337c3 -95 63 -125 126 -125c73 0 137 50 140 142v320h93z" />
    <glyph glyph-name="nu" unicode="&#x3bd;" horiz-adv-x="553" 
d="M534 535l-204 -535h-108l-203 535h101l157 -440l161 440h96z" />
    <glyph glyph-name="xi" unicode="&#x3be;" horiz-adv-x="492" 
d="M50 222c0 108 66 183 139 200c-61 25 -100 88 -100 152c0 88 52 195 218 195c62 0 125 -15 172 -37v-93c-55 32 -121 46 -162 46c-86 0 -135 -50 -135 -117c0 -53 41 -114 125 -114h85v-81h-92c-83 0 -158 -54 -158 -150c0 -248 337 -50 337 -296c0 -27 -6 -58 -13 -89
h-75c6 23 9 52 9 70c0 168 -350 -25 -350 314z" />
    <glyph glyph-name="omicron" unicode="&#x3bf;" horiz-adv-x="584" 
d="M54 234v66c0 162 106 249 238 249s239 -87 239 -249v-66c0 -162 -107 -249 -239 -249s-238 87 -238 249zM147 305v-76c0 -102 59 -162 145 -162s146 60 146 162v76c0 102 -60 162 -146 162s-145 -60 -145 -162z" />
    <glyph glyph-name="pi" unicode="&#x3c0;" horiz-adv-x="605" 
d="M433 0v456h-261v-456h-93v535h447v-535h-93z" />
    <glyph glyph-name="rho" unicode="&#x3c1;" horiz-adv-x="601" 
d="M325 -15c-74 0 -126 31 -161 80v-287h-93v517c0 161 96 254 248 254c137 0 228 -108 228 -249v-66c0 -152 -79 -249 -222 -249zM164 295v-66c0 -80 67 -162 152 -162c86 0 138 60 138 162v76c0 102 -54 162 -140 162c-72 0 -150 -45 -150 -172z" />
    <glyph glyph-name="uni03C2" unicode="&#x3c2;" horiz-adv-x="496" 
d="M300 549c61 0 112 -12 155 -36v-96c-53 37 -104 50 -156 50c-95 0 -151 -55 -151 -162v-76c0 -255 313 -68 313 -295c0 -32 -5 -65 -12 -96h-75c6 22 9 50 9 67c0 156 -328 -9 -328 329v66c0 139 76 249 245 249z" />
    <glyph glyph-name="sigma" unicode="&#x3c3;" horiz-adv-x="608" 
d="M582 456h-126c49 -35 75 -92 75 -171v-51c0 -162 -107 -249 -239 -249s-238 87 -238 249v66c0 162 105 235 237 235h291v-79zM438 305c0 83 -47 148 -101 151h-45c-86 0 -145 -49 -145 -151v-76c0 -102 59 -162 145 -162s146 60 146 162v76z" />
    <glyph glyph-name="tau" unicode="&#x3c4;" horiz-adv-x="485" 
d="M20 456v79h434v-79h-182v-305c0 -60 20 -83 61 -83c22 0 59 7 70 12v-80c-13 -6 -47 -15 -81 -15c-114 0 -143 55 -143 160v311h-159z" />
    <glyph glyph-name="upsilon" unicode="&#x3c5;" horiz-adv-x="599" 
d="M433 535h93v-326c0 -140 -92 -223 -219 -223c-177 0 -233 91 -233 221v328h93v-313c0 -118 56 -149 140 -149c76 0 126 31 126 133v329z" />
    <glyph glyph-name="phi" unicode="&#x3c6;" horiz-adv-x="783" 
d="M53 234v66c0 162 106 249 238 249h52v206h93v-206h55c132 0 239 -87 239 -249v-66c0 -162 -107 -249 -239 -249h-55v-207h-93v207h-52c-132 0 -238 87 -238 249zM491 467h-55v-400h55c86 0 146 60 146 162v76c0 102 -60 162 -146 162zM146 305v-76
c0 -102 59 -162 145 -162h52v400h-52c-86 0 -145 -60 -145 -162z" />
    <glyph glyph-name="chi" unicode="&#x3c7;" horiz-adv-x="512" 
d="M15 0l192 274l-175 261h111l115 -185l124 185h102l-181 -254l192 -281h-111l-132 204l-131 -204h-106z" />
    <glyph glyph-name="psi" unicode="&#x3c8;" horiz-adv-x="761" 
d="M596 535h93v-301c0 -162 -107 -249 -239 -249h-25v-207h-93v207h-22c-132 0 -238 87 -238 249v301h93v-306c0 -102 59 -162 145 -162h22v688h93v-688h25c86 0 146 60 146 162v306z" />
    <glyph glyph-name="omega" unicode="&#x3c9;" horiz-adv-x="773" 
d="M719 268c0 -159 -74 -281 -187 -281c-74 0 -127 42 -146 102c-26 -58 -77 -104 -146 -104c-121 0 -185 105 -185 281c0 111 33 222 55 269h95c-37 -96 -56 -180 -56 -261c0 -137 30 -206 97 -206c68 0 96 65 96 156v115h93v-122c0 -83 29 -148 96 -148c64 0 97 90 97 201
c0 97 -28 195 -57 265h97c28 -63 51 -164 51 -267z" />
    <glyph glyph-name="iotadieresis" unicode="&#x3ca;" horiz-adv-x="286" 
d="M75 145v390h93v-384c0 -60 10 -83 51 -83c22 0 39 4 50 9v-80c-13 -6 -37 -12 -61 -12c-108 0 -133 55 -133 160zM-30 636v99h94v-99h-94zM184 636v99h94v-99h-94z" />
    <glyph glyph-name="upsilondieresis" unicode="&#x3cb;" horiz-adv-x="599" 
d="M433 535h93v-326c0 -140 -92 -223 -219 -223c-177 0 -233 91 -233 221v328h93v-313c0 -118 56 -149 140 -149c76 0 126 31 126 133v329zM139 636v99h94v-99h-94zM353 636v99h94v-99h-94z" />
    <glyph glyph-name="omicrontonos" unicode="&#x3cc;" horiz-adv-x="584" 
d="M54 234v66c0 162 106 249 238 249s239 -87 239 -249v-66c0 -162 -107 -249 -239 -249s-238 87 -238 249zM147 305v-76c0 -102 59 -162 145 -162s146 60 146 162v76c0 102 -60 162 -146 162s-145 -60 -145 -162zM269 775h89l-39 -153h-78z" />
    <glyph glyph-name="upsilontonos" unicode="&#x3cd;" horiz-adv-x="599" 
d="M433 535h93v-326c0 -140 -92 -223 -219 -223c-177 0 -233 91 -233 221v328h93v-313c0 -118 56 -149 140 -149c76 0 126 31 126 133v329zM280 775h89l-39 -153h-78z" />
    <glyph glyph-name="omegatonos" unicode="&#x3ce;" horiz-adv-x="773" 
d="M719 268c0 -159 -74 -281 -187 -281c-74 0 -127 42 -146 102c-26 -58 -77 -104 -146 -104c-121 0 -185 105 -185 281c0 111 33 222 55 269h95c-37 -96 -56 -180 -56 -261c0 -137 30 -206 97 -206c68 0 96 65 96 156v115h93v-122c0 -83 29 -148 96 -148c64 0 97 90 97 201
c0 97 -28 195 -57 265h97c28 -63 51 -164 51 -267zM374 775h89l-39 -153h-78z" />
    <glyph glyph-name="uni0400" unicode="&#x400;" horiz-adv-x="614" 
d="M558 88v-88h-464v755h455v-88h-357v-238h328v-86h-328v-255h366zM229 960h89l77 -133h-78z" />
    <glyph glyph-name="uni0401" unicode="&#x401;" horiz-adv-x="614" 
d="M558 88v-88h-464v755h455v-88h-357v-238h328v-86h-328v-255h366zM177 846v99h94v-99h-94zM381 846v99h94v-99h-94z" />
    <glyph glyph-name="uni0402" unicode="&#x402;" horiz-adv-x="803" 
d="M14 664v91h598v-91h-270v-217c42 16 90 27 154 27c188 0 272 -115 272 -237c0 -137 -76 -243 -219 -243c-13 -1 -45 3 -59 8v88c14 -5 40 -8 52 -8c96 0 125 65 125 151c0 95 -60 153 -187 153c-41 0 -85 -4 -138 -26v-360h-98v664h-230z" />
    <glyph glyph-name="uni0403" unicode="&#x403;" horiz-adv-x="561" 
d="M549 755v-91h-357v-664h-98v755h455zM326 960h89l-88 -133h-78z" />
    <glyph glyph-name="uni0404" unicode="&#x404;" horiz-adv-x="626" 
d="M575 719v-100c-44 36 -108 62 -194 62c-119 0 -220 -80 -221 -250h326v-91h-326v-19c0 -173 91 -248 221 -248c70 0 135 11 192 44v-90c-52 -27 -111 -42 -192 -42c-185 0 -322 116 -322 343v92c0 227 137 349 322 349c100 0 153 -24 194 -50z" />
    <glyph glyph-name="uni0405" unicode="&#x405;" horiz-adv-x="614" 
d="M62 47v101c70 -45 146 -75 236 -75c105 0 170 54 170 135c0 88 -42 116 -162 130l-50 6c-119 14 -198 83 -198 209c0 136 115 214 258 214c95 0 159 -21 214 -58v-101c-65 45 -132 74 -211 74c-105 0 -162 -43 -162 -131c0 -84 32 -108 145 -122l50 -6
c125 -15 216 -67 216 -208c0 -147 -121 -226 -278 -226c-87 0 -155 18 -228 58z" />
    <glyph glyph-name="uni0406" unicode="&#x406;" horiz-adv-x="286" 
d="M192 755v-755h-98v755h98z" />
    <glyph glyph-name="uni0407" unicode="&#x407;" horiz-adv-x="286" 
d="M192 755v-755h-98v755h98zM-6 846v99h94v-99h-94zM198 846v99h94v-99h-94z" />
    <glyph glyph-name="uni0408" unicode="&#x408;" horiz-adv-x="486" 
d="M299 199v468h-245v88h343v-560c0 -140 -97 -210 -228 -210c-47 0 -93 12 -124 27v90c32 -19 75 -29 124 -29c65 0 130 11 130 126z" />
    <glyph glyph-name="uni0409" unicode="&#x409;" horiz-adv-x="1013" 
d="M175 755h415v-314h152c165 0 238 -98 238 -211c0 -134 -75 -230 -235 -230h-253v667h-225v-96c0 -91 -8 -247 -18 -327c-23 -185 -82 -248 -176 -248c-20 0 -44 2 -64 7v84c14 -5 29 -7 41 -7c55 0 86 41 106 165c13 80 19 232 19 327v183zM734 353h-144v-265h151
c110 0 138 63 138 133c0 92 -47 132 -145 132z" />
    <glyph glyph-name="uni040A" unicode="&#x40a;" horiz-adv-x="1040" 
d="M617 755v-314h152c165 0 238 -98 238 -211c0 -134 -75 -230 -235 -230h-253v353h-327v-353h-98v755h98v-314h327v314h98zM761 353h-144v-265h151c110 0 138 63 138 133c0 92 -47 132 -145 132z" />
    <glyph glyph-name="uni040B" unicode="&#x40b;" horiz-adv-x="814" 
d="M14 664v91h588v-91h-260v-228c53 19 125 34 174 34c183 0 250 -80 250 -267v-203h-99v209c0 133 -48 173 -160 173c-42 0 -106 -8 -165 -35v-347h-98v664h-230z" />
    <glyph glyph-name="uni040C" unicode="&#x40c;" horiz-adv-x="661" 
d="M192 755v-326h116l218 326h112l-250 -364l264 -391h-118l-227 343h-115v-343h-98v755h98zM377 960h89l-88 -133h-78z" />
    <glyph glyph-name="uni040D" unicode="&#x40d;" horiz-adv-x="741" 
d="M94 755h93v-588l367 588h93v-755h-93v592l-367 -592h-93v755zM258 960h89l77 -133h-78z" />
    <glyph glyph-name="uni040E" unicode="&#x40e;" horiz-adv-x="641" 
d="M213 -15c-25 0 -49 5 -71 15v83c21 -9 39 -12 60 -12c33 0 69 12 101 97l-298 587h110l236 -483l174 483h104l-228 -580c-49 -126 -97 -190 -188 -190zM387 954h75c0 -78 -56 -123 -146 -123c-95 0 -145 48 -145 123h72c0 -50 38 -60 73 -60c31 0 71 9 71 60z" />
    <glyph glyph-name="uni040F" unicode="&#x40f;" horiz-adv-x="732" 
d="M638 755v-755h-226v-160h-92v160h-226v755h98v-664h348v664h98z" />
    <glyph glyph-name="uni0410" unicode="&#x410;" horiz-adv-x="684" 
d="M5 0l286 755h107l276 -755h-115l-64 188h-318l-68 -188h-104zM340 641l-132 -365h257z" />
    <glyph glyph-name="uni0411" unicode="&#x411;" horiz-adv-x="657" 
d="M569 755v-88h-377v-209h166c174 0 254 -97 254 -221c0 -140 -82 -237 -250 -237h-268v755h475zM346 370h-154v-284h165c120 0 154 68 154 142c0 102 -56 142 -165 142z" />
    <glyph glyph-name="uni0412" unicode="&#x412;" horiz-adv-x="677" 
d="M363 0h-269v755h257c172 0 251 -75 251 -199c0 -83 -39 -131 -105 -162c76 -23 126 -82 126 -178c0 -116 -69 -216 -260 -216zM355 343h-163v-255h160c102 0 169 32 169 122c0 94 -38 133 -166 133zM339 667h-147v-238h158c120 0 151 44 151 118c0 102 -73 120 -162 120z
" />
    <glyph glyph-name="uni0413" unicode="&#x413;" horiz-adv-x="561" 
d="M549 755v-91h-357v-664h-98v755h455z" />
    <glyph glyph-name="uni0414" unicode="&#x414;" horiz-adv-x="750" 
d="M9 -160v251h77c50 56 104 160 104 492v172h432v-664h103v-251h-92v160h-532v-160h-92zM283 583c0 -332 -49 -436 -91 -492h332v576h-241v-84z" />
    <glyph glyph-name="uni0415" unicode="&#x415;" horiz-adv-x="614" 
d="M558 88v-88h-464v755h455v-88h-357v-238h328v-86h-328v-255h366z" />
    <glyph glyph-name="uni0416" unicode="&#x416;" horiz-adv-x="956" 
d="M127 0h-118l260 391l-246 364h112l214 -326h80v326h98v-326h80l214 326h112l-247 -364l261 -391h-118l-223 343h-79v-343h-98v343h-79z" />
    <glyph glyph-name="uni0417" unicode="&#x417;" horiz-adv-x="605" 
d="M264 -15c-81 0 -170 35 -214 62v100c47 -33 138 -74 214 -74c118 0 183 41 183 131c0 94 -68 139 -190 139h-114v86h115c120 0 177 50 177 124c0 102 -80 128 -172 128c-76 0 -152 -34 -206 -72v101c48 31 123 59 214 59c187 0 265 -83 265 -207
c0 -84 -52 -136 -128 -169c81 -25 141 -87 141 -183c0 -116 -70 -225 -285 -225z" />
    <glyph glyph-name="uni0418" unicode="&#x418;" horiz-adv-x="741" 
d="M94 755h93v-588l367 588h93v-755h-93v592l-367 -592h-93v755z" />
    <glyph glyph-name="uni0419" unicode="&#x419;" horiz-adv-x="741" 
d="M94 755h93v-588l367 588h93v-755h-93v592l-367 -592h-93v755zM433 954h75c0 -78 -56 -123 -146 -123c-95 0 -145 48 -145 123h72c0 -50 38 -60 73 -60c31 0 71 9 71 60z" />
    <glyph glyph-name="uni041A" unicode="&#x41a;" horiz-adv-x="661" 
d="M192 755v-326h116l218 326h112l-250 -364l264 -391h-118l-227 343h-115v-343h-98v755h98z" />
    <glyph glyph-name="uni041B" unicode="&#x41b;" horiz-adv-x="709" 
d="M517 0v667h-250v-96c0 -91 -8 -247 -18 -327c-23 -185 -85 -248 -176 -248c-20 0 -44 2 -64 7v84c14 -5 29 -7 41 -7c55 0 86 41 106 165c13 80 19 232 19 327v183h440v-755h-98z" />
    <glyph glyph-name="uni041C" unicode="&#x41c;" horiz-adv-x="852" 
d="M386 190l-199 371v-561h-93v755h93l237 -448l241 448h93v-755h-93v570l-202 -380h-77z" />
    <glyph glyph-name="uni041D" unicode="&#x41d;" horiz-adv-x="751" 
d="M657 755v-755h-98v340h-367v-340h-98v755h98v-324h367v324h98z" />
    <glyph glyph-name="uni041E" unicode="&#x41e;" horiz-adv-x="725" 
d="M60 328v92c0 227 117 349 302 349s303 -122 303 -349v-92c0 -227 -118 -343 -303 -343s-302 116 -302 343zM161 427v-106c0 -173 71 -248 201 -248c131 0 203 75 203 248v106c0 173 -82 254 -203 254c-120 0 -201 -81 -201 -254z" />
    <glyph glyph-name="uni041F" unicode="&#x41f;" horiz-adv-x="741" 
d="M647 755v-755h-98v664h-357v-664h-98v755h553z" />
    <glyph glyph-name="uni0420" unicode="&#x420;" horiz-adv-x="635" 
d="M602 526c0 -140 -81 -243 -247 -243h-163v-283h-98v755h257c172 0 251 -105 251 -229zM339 667h-147v-298h158c120 0 151 74 151 148c0 102 -53 150 -162 150z" />
    <glyph glyph-name="uni0421" unicode="&#x421;" horiz-adv-x="613" 
d="M575 719v-100c-44 36 -108 62 -194 62c-120 0 -221 -81 -221 -254v-106c0 -173 91 -248 221 -248c70 0 135 11 192 44v-90c-52 -27 -111 -42 -192 -42c-185 0 -322 116 -322 343v92c0 227 137 349 322 349c100 0 153 -24 194 -50z" />
    <glyph glyph-name="uni0422" unicode="&#x422;" horiz-adv-x="614" 
d="M601 755v-91h-240v-664h-98v664h-250v91h588z" />
    <glyph glyph-name="uni0423" unicode="&#x423;" horiz-adv-x="641" 
d="M213 -15c-25 0 -49 5 -71 15v83c21 -9 39 -12 60 -12c33 0 69 12 101 97l-298 587h110l236 -483l174 483h104l-228 -580c-49 -126 -97 -190 -188 -190z" />
    <glyph glyph-name="uni0424" unicode="&#x424;" horiz-adv-x="874" 
d="M834 390v-22c0 -207 -145 -303 -332 -303h-16v-90h-98v90h-16c-187 0 -332 96 -332 303v22c0 207 145 309 332 309h16v80h98v-80h16c187 0 332 -102 332 -309zM502 613h-16v-462h16c128 0 231 55 231 210v36c0 155 -109 216 -231 216zM141 361c0 -155 103 -210 231 -210
h16v462h-16c-122 0 -231 -61 -231 -216v-36z" />
    <glyph glyph-name="uni0425" unicode="&#x425;" horiz-adv-x="641" 
d="M9 0l254 384l-237 371h116l181 -298l188 298h107l-238 -365l249 -390h-116l-193 315l-200 -315h-111z" />
    <glyph glyph-name="uni0426" unicode="&#x426;" horiz-adv-x="765" 
d="M539 755h98v-664h103v-251h-92v160h-554v755h98v-664h347v664z" />
    <glyph glyph-name="uni0427" unicode="&#x427;" horiz-adv-x="670" 
d="M478 755h98v-755h-98v328c-50 -17 -123 -33 -187 -33c-181 0 -237 86 -237 249v211h98v-211c0 -133 48 -161 161 -161c52 0 116 14 165 33v339z" />
    <glyph glyph-name="uni0428" unicode="&#x428;" horiz-adv-x="1044" 
d="M852 755h98v-755h-856v755h98v-664h281v664h98v-664h281v664z" />
    <glyph glyph-name="uni0429" unicode="&#x429;" horiz-adv-x="1078" 
d="M852 755h98v-664h103v-251h-92v160h-867v755h98v-664h281v664h98v-664h281v664z" />
    <glyph glyph-name="uni042A" unicode="&#x42a;" horiz-adv-x="797" 
d="M14 664v91h338v-281h159c172 0 251 -105 251 -229c0 -140 -81 -245 -247 -245h-261v664h-240zM499 386h-147v-298h158c120 0 151 74 151 148c0 102 -53 150 -162 150z" />
    <glyph glyph-name="uni042B" unicode="&#x42b;" horiz-adv-x="890" 
d="M94 755h98v-281h139c172 0 251 -105 251 -229c0 -140 -81 -245 -247 -245h-241v755zM319 386h-127v-298h138c120 0 151 74 151 148c0 102 -53 150 -162 150zM698 755h98v-755h-98v755z" />
    <glyph glyph-name="uni042C" unicode="&#x42c;" horiz-adv-x="637" 
d="M94 755h98v-281h159c172 0 251 -105 251 -229c0 -140 -81 -245 -247 -245h-261v755zM339 386h-147v-298h158c120 0 151 74 151 148c0 102 -53 150 -162 150z" />
    <glyph glyph-name="uni042D" unicode="&#x42d;" horiz-adv-x="634" 
d="M148 340v91h326c-2 170 -100 250 -223 250c-86 0 -156 -26 -200 -62v100c41 26 100 50 200 50c192 0 324 -122 324 -349v-92c0 -227 -134 -343 -324 -343c-81 0 -146 15 -198 42v90c57 -33 128 -44 198 -44c134 0 223 75 223 248v19h-326z" />
    <glyph glyph-name="uni042E" unicode="&#x42e;" horiz-adv-x="1008" 
d="M357 328v12h-165v-340h-98v755h98v-324h165c3 220 118 338 295 338c180 0 296 -122 296 -349v-92c0 -227 -116 -343 -296 -343s-295 116 -295 343zM458 427v-106c0 -173 69 -248 194 -248c126 0 196 75 196 248v106c0 173 -80 254 -196 254c-115 0 -194 -81 -194 -254z
" />
    <glyph glyph-name="uni042F" unicode="&#x42f;" horiz-adv-x="662" 
d="M60 546c0 124 79 209 251 209h257v-755h-98v323h-123l-205 -323h-116l216 328c-122 19 -182 97 -182 218zM161 537c0 -74 31 -128 151 -128h158v258h-147c-109 0 -162 -28 -162 -130z" />
    <glyph glyph-name="uni0430" unicode="&#x430;" horiz-adv-x="549" 
d="M475 0h-93v58c-35 -49 -90 -73 -160 -73c-123 0 -179 57 -179 154c0 120 77 168 229 168h110v18c0 89 -21 142 -140 142c-70 0 -116 -17 -169 -65v91c42 34 86 56 186 56c167 0 216 -66 216 -219v-330zM382 199v29h-115c-99 0 -131 -18 -131 -86c0 -52 32 -78 97 -78
c67 0 149 32 149 135z" />
    <glyph glyph-name="uni0431" unicode="&#x431;" horiz-adv-x="602" 
d="M309 -15c-132 0 -238 80 -238 257v184c0 135 39 209 97 256c47 37 103 52 148 60c107 18 183 24 201 27v-88c-47 -5 -130 -10 -197 -21c-89 -15 -154 -51 -163 -183l-3 -46c36 66 103 104 186 104c131 0 208 -76 208 -249v-52c0 -158 -107 -249 -239 -249zM164 291v-62
c0 -102 59 -162 145 -162s146 60 146 162v62c0 102 -51 162 -139 162c-90 0 -152 -65 -152 -162z" />
    <glyph glyph-name="uni0432" unicode="&#x432;" horiz-adv-x="541" 
d="M280 0h-201v535h191c143 0 203 -52 203 -140c0 -59 -33 -93 -87 -115c64 -16 104 -57 104 -127c0 -82 -52 -153 -210 -153zM260 237h-88v-161h89c83 0 137 14 137 78c0 67 -35 83 -138 83zM249 459h-77v-147h81c97 0 127 19 127 72c0 72 -60 75 -131 75z" />
    <glyph glyph-name="uni0433" unicode="&#x433;" horiz-adv-x="451" 
d="M79 0v535h350v-79h-257v-456h-93z" />
    <glyph glyph-name="uni0434" unicode="&#x434;" horiz-adv-x="617" 
d="M586 79v-219h-88v140h-387v-140h-88v219h52c25 26 48 70 60 109c16 53 24 153 24 252v95h349v-456h78zM244 435c0 -112 -13 -203 -24 -250s-31 -83 -48 -106h243v377h-171v-21z" />
    <glyph glyph-name="uni0435" unicode="&#x435;" horiz-adv-x="563" 
d="M511 310v-83h-364c1 -102 69 -160 164 -160c68 0 118 6 187 48v-83c-59 -34 -112 -47 -196 -47c-142 0 -248 87 -248 249v66c0 152 96 249 228 249s229 -77 229 -239zM282 467c-86 0 -135 -60 -135 -161h271v9c0 102 -50 152 -136 152z" />
    <glyph glyph-name="uni0436" unicode="&#x436;" horiz-adv-x="759" 
d="M123 0h-107l187 288l-172 247h105l136 -213h61v213h93v-213h60l137 213h105l-172 -247l187 -288h-107l-156 245h-54v-245h-93v245h-55z" />
    <glyph glyph-name="uni0437" unicode="&#x437;" horiz-adv-x="510" 
d="M226 -14c-43 0 -128 13 -180 41v92c57 -33 132 -52 176 -52c91 0 143 23 143 87c0 67 -55 80 -140 80h-90v81h83c84 0 137 21 137 74c0 67 -65 77 -135 77c-39 0 -107 -17 -162 -49v93c47 22 120 40 172 40c166 0 218 -67 218 -155c0 -57 -37 -95 -90 -116
c58 -16 99 -59 99 -126c0 -82 -44 -167 -231 -167z" />
    <glyph glyph-name="uni0438" unicode="&#x438;" horiz-adv-x="615" 
d="M79 535h93v-398l271 398h93v-535h-93v398l-271 -398h-93v535z" />
    <glyph glyph-name="uni0439" unicode="&#x439;" horiz-adv-x="615" 
d="M79 535h93v-398l271 398h93v-535h-93v398l-271 -398h-93v535zM382 756h75c0 -78 -52 -133 -142 -133c-95 0 -143 58 -143 133h72c0 -50 36 -70 71 -70c31 0 67 19 67 70z" />
    <glyph glyph-name="uni043A" unicode="&#x43a;" horiz-adv-x="528" 
d="M79 0v535h93v-213h81l146 213h105l-181 -248l196 -287h-107l-164 245h-76v-245h-93z" />
    <glyph glyph-name="uni043B" unicode="&#x43b;" horiz-adv-x="571" 
d="M141 535h351v-535h-93v456h-173v-12c0 -98 -8 -209 -18 -277c-16 -114 -58 -171 -134 -171c-14 0 -40 3 -55 8v74c11 -3 21 -5 32 -5c42 0 62 33 73 101c9 54 17 161 17 272v89z" />
    <glyph glyph-name="uni043C" unicode="&#x43c;" horiz-adv-x="715" 
d="M325 106l-157 261v-367h-89v535h89l188 -317l191 317h89v-535h-89v371l-159 -265h-63z" />
    <glyph glyph-name="uni043D" unicode="&#x43d;" horiz-adv-x="615" 
d="M443 0v234h-271v-234h-93v535h93v-222h271v222h93v-535h-93z" />
    <glyph glyph-name="uni043E" unicode="&#x43e;" horiz-adv-x="584" 
d="M54 234v66c0 162 106 249 238 249s239 -87 239 -249v-66c0 -162 -107 -249 -239 -249s-238 87 -238 249zM147 305v-76c0 -102 59 -162 145 -162s146 60 146 162v76c0 102 -60 162 -146 162s-145 -60 -145 -162z" />
    <glyph glyph-name="uni043F" unicode="&#x43f;" horiz-adv-x="605" 
d="M433 0v456h-261v-456h-93v535h447v-535h-93z" />
    <glyph glyph-name="uni0440" unicode="&#x440;" 
d="M79 -222v757h93v-70c35 50 90 84 165 84c145 0 218 -108 218 -249v-66c0 -152 -75 -249 -218 -249c-77 0 -130 40 -165 94v-301h-93zM322 467c-72 0 -140 -63 -150 -142v-96c0 -80 67 -162 152 -162c86 0 138 60 138 162v76c0 102 -54 162 -140 162z" />
    <glyph glyph-name="uni0441" unicode="&#x441;" horiz-adv-x="501" 
d="M299 549c61 0 112 -12 155 -36v-96c-53 37 -104 50 -156 50c-95 0 -151 -55 -151 -162v-76c0 -102 55 -162 147 -162c51 0 100 13 159 50v-88c-38 -26 -94 -44 -161 -44c-142 0 -238 97 -238 249v66c0 139 76 249 245 249z" />
    <glyph glyph-name="uni0442" unicode="&#x442;" horiz-adv-x="479" 
d="M23 456v79h433v-79h-170v-456h-93v456h-170z" />
    <glyph glyph-name="uni0443" unicode="&#x443;" horiz-adv-x="553" 
d="M259 -222h-100l72 200l-210 557h101l157 -440l161 440h96l-204 -535h-1z" />
    <glyph glyph-name="uni0444" unicode="&#x444;" horiz-adv-x="858" 
d="M803 300v-66c0 -158 -64 -249 -197 -249c-48 0 -99 22 -131 65v-272h-93v271c-32 -42 -83 -64 -130 -64c-133 0 -197 91 -197 249v66c0 149 64 249 188 249c47 0 97 -19 139 -70v276h93v-277c41 52 92 71 140 71c124 0 188 -100 188 -249zM592 467
c-33 0 -99 -14 -117 -98v-210c18 -75 85 -92 119 -92c86 0 116 60 116 162v76c0 102 -32 162 -118 162zM264 67c33 0 98 16 118 88v219c-20 80 -84 93 -116 93c-86 0 -118 -60 -118 -162v-76c0 -102 30 -162 116 -162z" />
    <glyph glyph-name="uni0445" unicode="&#x445;" horiz-adv-x="512" 
d="M15 0l192 274l-175 261h111l115 -185l124 185h102l-181 -254l192 -281h-111l-132 204l-131 -204h-106z" />
    <glyph glyph-name="uni0446" unicode="&#x446;" horiz-adv-x="624" 
d="M79 0v535h93v-456h251v456h93v-456h72v-219h-88v140h-421z" />
    <glyph glyph-name="uni0447" unicode="&#x447;" horiz-adv-x="550" 
d="M471 535v-535h-93v217c-39 -17 -83 -27 -141 -27c-129 0 -187 52 -187 194v151h93v-132c0 -106 35 -132 121 -132c45 0 85 10 114 23v241h93z" />
    <glyph glyph-name="uni0448" unicode="&#x448;" horiz-adv-x="857" 
d="M778 535v-535h-699v535h93v-456h210v456h93v-456h210v456h93z" />
    <glyph glyph-name="uni0449" unicode="&#x449;" horiz-adv-x="878" 
d="M770 535v-456h72v-219h-88v140h-675v535h93v-456h206v456h93v-456h206v456h93z" />
    <glyph glyph-name="uni044A" unicode="&#x44a;" horiz-adv-x="608" 
d="M24 456v79h233v-189h103c165 0 211 -78 211 -168c0 -99 -60 -178 -207 -178h-200v456h-140zM342 267h-85v-188h95c104 0 126 40 126 93c0 71 -45 95 -136 95z" />
    <glyph glyph-name="uni044B" unicode="&#x44b;" horiz-adv-x="725" 
d="M466 178c0 -99 -60 -178 -207 -178h-180v535h93v-189h83c165 0 211 -78 211 -168zM646 535v-535h-93v535h93zM237 267h-65v-188h75c104 0 126 40 126 93c0 71 -45 95 -136 95z" />
    <glyph glyph-name="uni044C" unicode="&#x44c;" horiz-adv-x="523" 
d="M486 178c0 -99 -60 -178 -207 -178h-200v535h93v-189h103c165 0 211 -78 211 -168zM257 267h-85v-188h95c104 0 126 40 126 93c0 71 -45 95 -136 95z" />
    <glyph glyph-name="uni044D" unicode="&#x44d;" horiz-adv-x="504" 
d="M121 234v79h237c-3 102 -59 154 -151 154c-52 0 -103 -13 -156 -50v96c43 24 94 36 155 36c169 0 245 -110 245 -249v-66c0 -152 -96 -249 -238 -249c-67 0 -123 18 -161 44v88c59 -37 108 -50 159 -50c92 0 147 60 147 162v5h-237z" />
    <glyph glyph-name="uni044E" unicode="&#x44e;" horiz-adv-x="809" 
d="M279 234h-107v-234h-93v535h93v-222h107c5 153 109 236 238 236c132 0 239 -87 239 -249v-66c0 -162 -107 -249 -239 -249s-238 87 -238 249zM372 305v-76c0 -102 59 -162 145 -162s146 60 146 162v76c0 102 -60 162 -146 162s-145 -60 -145 -162z" />
    <glyph glyph-name="uni044F" unicode="&#x44f;" horiz-adv-x="557" 
d="M50 377c0 88 63 158 204 158h224v-535h-93v211h-95l-145 -211h-107l157 216c-92 14 -145 60 -145 161zM143 370c0 -54 34 -80 121 -80h121v166h-112c-81 0 -130 -13 -130 -86z" />
    <glyph glyph-name="uni0450" unicode="&#x450;" horiz-adv-x="563" 
d="M511 310v-83h-364c1 -102 69 -160 164 -160c68 0 118 6 187 48v-83c-59 -34 -112 -47 -196 -47c-142 0 -248 87 -248 249v66c0 152 96 249 228 249s229 -77 229 -239zM282 467c-86 0 -135 -60 -135 -161h271v9c0 102 -50 152 -136 152zM164 775h89l88 -153h-78z" />
    <glyph glyph-name="uni0451" unicode="&#x451;" horiz-adv-x="563" 
d="M511 310v-83h-364c1 -102 69 -160 164 -160c68 0 118 6 187 48v-83c-59 -34 -112 -47 -196 -47c-142 0 -248 87 -248 249v66c0 152 96 249 228 249s229 -77 229 -239zM282 467c-86 0 -135 -60 -135 -161h271v9c0 102 -50 152 -136 152zM139 636v99h94v-99h-94zM353 636
v99h94v-99h-94z" />
    <glyph glyph-name="uni0452" unicode="&#x452;" horiz-adv-x="610" 
d="M79 0v609h-76v72h76v74h93v-74h172v-72h-172v-141c37 50 93 81 168 81c135 0 196 -83 196 -223v-370c0 -118 -46 -190 -177 -190c-24 0 -37 3 -50 7v85c11 -5 28 -9 50 -9c65 0 84 33 84 113v357c0 102 -61 143 -126 143c-73 0 -142 -51 -145 -142v-320h-93z" />
    <glyph glyph-name="uni0453" unicode="&#x453;" horiz-adv-x="450" 
d="M79 0v535h350v-79h-257v-456h-93zM273 775h89l-99 -153h-78z" />
    <glyph glyph-name="uni0454" unicode="&#x454;" horiz-adv-x="505" 
d="M299 549c61 0 112 -12 155 -36v-96c-53 37 -104 50 -156 50c-93 0 -149 -52 -151 -154h237v-79h-237v-5c0 -102 55 -162 147 -162c51 0 100 13 159 50v-88c-38 -26 -94 -44 -161 -44c-142 0 -238 97 -238 249v66c0 139 76 249 245 249z" />
    <glyph glyph-name="uni0455" unicode="&#x455;" horiz-adv-x="516" 
d="M58 27v92c61 -30 120 -52 190 -52c78 0 132 24 132 82c0 57 -47 79 -112 82l-53 4c-84 5 -164 38 -164 156c0 102 98 159 203 159c82 0 148 -16 194 -41v-93c-60 34 -133 50 -184 50c-78 0 -124 -26 -124 -80c0 -58 59 -68 112 -72l60 -5c90 -7 159 -44 159 -154
c0 -119 -124 -169 -227 -169c-58 0 -140 16 -186 41z" />
    <glyph glyph-name="uni0456" unicode="&#x456;" horiz-adv-x="251" 
d="M79 0v535h93v-535h-93zM76 646v109h99v-109h-99z" />
    <glyph glyph-name="uni0457" unicode="&#x457;" horiz-adv-x="251" 
d="M79 0v535h93v-535h-93zM-28 636v99h94v-99h-94zM186 636v99h94v-99h-94z" />
    <glyph glyph-name="uni0458" unicode="&#x458;" horiz-adv-x="259" 
d="M180 535v-579c0 -118 -46 -190 -177 -190c-24 0 -37 3 -50 7v85c11 -5 28 -9 50 -9c65 0 84 33 84 113v573h93zM84 646v109h99v-109h-99z" />
    <glyph glyph-name="uni0459" unicode="&#x459;" horiz-adv-x="796" 
d="M760 167c0 -94 -57 -167 -195 -167h-181v456h-158v-12c0 -98 -8 -209 -18 -277c-16 -114 -58 -171 -134 -171c-14 0 -40 3 -55 8v74c11 -3 21 -5 32 -5c42 0 62 33 73 101c9 54 17 161 17 272v89h336v-212h84c156 0 199 -71 199 -156zM544 244h-67v-165h77
c92 0 113 37 113 84c0 59 -40 81 -123 81z" />
    <glyph glyph-name="uni045A" unicode="&#x45a;" horiz-adv-x="825" 
d="M789 167c0 -94 -57 -167 -195 -167h-181v244h-241v-244h-93v535h93v-212h241v212h93v-212h84c156 0 199 -71 199 -156zM573 244h-67v-165h77c92 0 113 37 113 84c0 59 -40 81 -123 81z" />
    <glyph glyph-name="uni045B" unicode="&#x45b;" horiz-adv-x="610" 
d="M79 0v609h-76v72h76v74h93v-74h172v-72h-172v-141c37 50 93 81 168 81c135 0 196 -83 196 -223v-326h-93v319c0 102 -61 143 -126 143c-73 0 -142 -51 -145 -142v-320h-93z" />
    <glyph glyph-name="uni045C" unicode="&#x45c;" horiz-adv-x="528" 
d="M79 0v535h93v-213h81l146 213h105l-181 -248l196 -287h-107l-164 245h-76v-245h-93zM309 775h89l-99 -153h-78z" />
    <glyph glyph-name="uni045D" unicode="&#x45d;" horiz-adv-x="615" 
d="M79 535h93v-398l271 398h93v-535h-93v398l-271 -398h-93v535zM179 775h89l88 -153h-78z" />
    <glyph glyph-name="uni045E" unicode="&#x45e;" horiz-adv-x="553" 
d="M259 -222h-100l72 200l-210 557h101l157 -440l161 440h96l-204 -535h-1zM346 756h75c0 -78 -52 -133 -142 -133c-95 0 -143 58 -143 133h72c0 -50 36 -70 71 -70c31 0 67 19 67 70z" />
    <glyph glyph-name="uni045F" unicode="&#x45f;" horiz-adv-x="595" 
d="M79 0v535h93v-456h251v456h93v-535h-175v-140h-87v140h-175z" />
    <glyph glyph-name="uni0462" unicode="&#x462;" horiz-adv-x="710" 
d="M27 564v84h170v107h98v-107h210v-84h-210v-123h143c165 0 238 -98 238 -211c0 -134 -75 -230 -235 -230h-244v564h-170zM430 353h-135v-265h142c110 0 138 63 138 133c0 92 -47 132 -145 132z" />
    <glyph glyph-name="uni0463" unicode="&#x463;" horiz-adv-x="608" 
d="M24 456v79h140v220h93v-220h167v-79h-167v-110h103c165 0 211 -78 211 -168c0 -99 -60 -178 -207 -178h-200v456h-140zM342 267h-85v-188h95c104 0 126 40 126 93c0 71 -45 95 -136 95z" />
    <glyph glyph-name="uni0472" unicode="&#x472;" horiz-adv-x="725" 
d="M60 328v92c0 227 117 349 302 349s303 -122 303 -349v-92c0 -227 -118 -343 -303 -343s-302 116 -302 343zM362 73c131 0 203 75 203 248v15h-404v-15c0 -173 71 -248 201 -248zM161 427v-3h404v3c0 173 -82 254 -203 254c-120 0 -201 -81 -201 -254z" />
    <glyph glyph-name="uni0473" unicode="&#x473;" horiz-adv-x="584" 
d="M54 234v66c0 162 106 249 238 249s239 -87 239 -249v-66c0 -162 -107 -249 -239 -249s-238 87 -238 249zM292 67c86 0 146 60 146 162v5h-291v-5c0 -102 59 -162 145 -162zM292 467c-85 0 -144 -59 -145 -158h291c-2 99 -61 158 -146 158z" />
    <glyph glyph-name="uni0474" unicode="&#x474;" horiz-adv-x="708" 
d="M19 755h110l188 -633l149 509c28 100 78 138 152 138c20 0 40 -2 61 -7v-84c-14 3 -25 5 -39 5c-44 0 -67 -23 -87 -89l-186 -594h-107z" />
    <glyph glyph-name="uni0475" unicode="&#x475;" horiz-adv-x="585" 
d="M19 535h101l155 -433l80 309c26 100 66 138 146 138c20 0 30 -2 50 -6v-83c-14 3 -21 5 -35 5c-33 0 -57 -13 -78 -82l-116 -383h-100z" />
    <glyph glyph-name="uni048A" unicode="&#x48a;" horiz-adv-x="787" 
d="M94 755h93v-588l367 588h93v-664h124l-65 -251h-83l37 160h-106v592l-367 -592h-93v755zM433 954h75c0 -78 -56 -123 -146 -123c-95 0 -145 48 -145 123h72c0 -50 38 -60 73 -60c31 0 71 9 71 60z" />
    <glyph glyph-name="uni048B" unicode="&#x48b;" horiz-adv-x="670" 
d="M172 0h-93v535h93v-398l271 398h93v-456h115l-60 -219h-76l34 140h-106v398zM382 756h75c0 -78 -52 -133 -142 -133c-95 0 -143 58 -143 133h72c0 -50 36 -70 71 -70c31 0 67 19 67 70z" />
    <glyph glyph-name="uni048C" unicode="&#x48c;" horiz-adv-x="681" 
d="M29 564v84h140v107h98v-107h170v-84h-170v-123h143c165 0 238 -98 238 -211c0 -134 -75 -230 -235 -230h-244v564h-140zM402 353h-135v-265h142c110 0 138 63 138 133c0 92 -47 132 -145 132z" />
    <glyph glyph-name="uni048D" unicode="&#x48d;" horiz-adv-x="608" 
d="M24 456v79h140v220h93v-220h160v-79h-160v-110h103c165 0 211 -78 211 -168c0 -99 -60 -178 -207 -178h-200v456h-140zM342 267h-85v-188h95c104 0 126 40 126 93c0 71 -45 95 -136 95z" />
    <glyph glyph-name="uni048E" unicode="&#x48e;" horiz-adv-x="636" 
d="M602 526c0 -93 -36 -169 -107 -210l84 -132h-98l-66 104c-19 -4 -39 -5 -60 -5h-163v-283h-98v755h257c172 0 251 -105 251 -229zM285 492h98l63 -99c42 28 55 76 55 124c0 102 -53 150 -162 150h-147v-298h171z" />
    <glyph glyph-name="uni048F" unicode="&#x48f;" 
d="M79 -222v757h93v-70c35 50 90 84 165 84c145 0 218 -108 218 -249v-66c0 -88 -25 -158 -74 -201l74 -113h-91l-50 77c-23 -8 -49 -12 -77 -12c-77 0 -130 40 -165 94v-301h-93zM279 204h91l62 -96c19 26 30 65 30 121v76c0 102 -54 162 -140 162
c-72 0 -140 -63 -150 -142v-96c0 -80 69 -164 154 -164c14 0 28 1 41 4z" />
    <glyph glyph-name="uni0490" unicode="&#x490;" horiz-adv-x="561" 
d="M94 755h363v180h92v-271h-357v-664h-98v755z" />
    <glyph glyph-name="uni0491" unicode="&#x491;" horiz-adv-x="450" 
d="M79 535h263v140h87v-219h-257v-456h-93v535z" />
    <glyph glyph-name="uni0492" unicode="&#x492;" horiz-adv-x="595" 
d="M15 330v91h110v334h455v-91h-357v-243h220v-91h-220v-330h-98v330h-110z" />
    <glyph glyph-name="uni0493" unicode="&#x493;" horiz-adv-x="490" 
d="M391 299v-75h-180v-224h-93v224h-90v75h90v236h350v-79h-257v-157h180z" />
    <glyph glyph-name="uni0494" unicode="&#x494;" horiz-adv-x="658" 
d="M94 755h455v-91h-357v-260c50 22 112 36 165 36c189 0 253 -115 253 -273v-78c0 -162 -86 -249 -219 -249c-20 0 -42 3 -63 9v81c14 -3 37 -9 63 -9c86 0 126 61 126 163v81c0 130 -50 188 -169 188c-50 0 -102 -10 -156 -38v-315h-98v755z" />
    <glyph glyph-name="uni0495" unicode="&#x495;" horiz-adv-x="560" 
d="M79 0v535h350v-79h-257v-174c35 13 79 23 127 23c157 0 223 -86 223 -249v-26c0 -181 -57 -264 -187 -264c-24 0 -45 3 -58 7v81c11 -5 28 -9 50 -9c79 0 102 55 102 176v40c0 103 -42 162 -146 162c-42 0 -80 -9 -111 -21v-202h-93z" />
    <glyph glyph-name="uni0496" unicode="&#x496;" horiz-adv-x="1001" 
d="M829 0l-223 343h-79v-343h-98v343h-79l-223 -343h-118l260 391l-246 364h112l214 -326h80v326h98v-326h80l214 326h112l-247 -364l200 -300h99v-251h-88v160h-68z" />
    <glyph glyph-name="uni0497" unicode="&#x497;" horiz-adv-x="797" 
d="M636 0l-156 245h-54v-245h-93v245h-55l-155 -245h-107l187 288l-172 247h105l136 -213h61v213h93v-213h60l137 213h105l-172 -247l135 -209h83v-219h-84v140h-54z" />
    <glyph glyph-name="uni0498" unicode="&#x498;" horiz-adv-x="606" 
d="M334 -160h-88v146c-76 4 -155 36 -196 61v100c47 -33 138 -74 214 -74c118 0 183 41 183 131c0 94 -68 139 -190 139h-114v86h115c120 0 177 50 177 124c0 102 -80 128 -172 128c-76 0 -152 -34 -206 -72v101c48 31 123 59 214 59c187 0 265 -83 265 -207
c0 -84 -52 -136 -128 -169c81 -25 141 -87 141 -183c0 -103 -55 -199 -215 -220v-150z" />
    <glyph glyph-name="uni0499" unicode="&#x499;" horiz-adv-x="510" 
d="M289 -140h-82v127c-46 3 -116 15 -161 40v92c57 -33 132 -52 176 -52c91 0 143 23 143 87c0 67 -55 80 -140 80h-90v81h83c84 0 137 21 137 74c0 67 -65 77 -135 77c-39 0 -107 -17 -162 -49v93c47 22 120 40 172 40c166 0 218 -67 218 -155c0 -57 -37 -95 -90 -116
c58 -16 99 -59 99 -126c0 -72 -34 -146 -168 -163v-130z" />
    <glyph glyph-name="uni049A" unicode="&#x49a;" horiz-adv-x="705" 
d="M192 755v-326h116l218 326h112l-250 -364l202 -300h99v-251h-88v160h-67l-227 343h-115v-343h-98v755h98z" />
    <glyph glyph-name="uni049B" unicode="&#x49b;" horiz-adv-x="564" 
d="M79 0v535h93v-213h81l146 213h105l-181 -248l142 -208h82v-219h-84v140h-51l-164 245h-76v-245h-93z" />
    <glyph glyph-name="uni049C" unicode="&#x49c;" horiz-adv-x="718" 
d="M259 585h86v-156h31l206 326h112l-237 -363l251 -392h-118l-214 343h-31v-170h-86v170h-67v-343h-98v755h98v-326h67v156z" />
    <glyph glyph-name="uni049D" unicode="&#x49d;" horiz-adv-x="589" 
d="M222 125v120h-50v-245h-93v535h93v-213h50v120h74v-120h26l137 213h105l-172 -247l187 -288h-107l-156 245h-20v-120h-74z" />
    <glyph glyph-name="uni049E" unicode="&#x49e;" horiz-adv-x="705" 
d="M368 653v-78h-132v-146h116l218 326h112l-250 -364l264 -391h-118l-227 343h-115v-343h-98v575h-122v78h122v102h98v-102h132z" />
    <glyph glyph-name="uni049F" unicode="&#x49f;" horiz-adv-x="528" 
d="M3 609v72h76v74h93v-74h172v-72h-172v-287h81l146 213h105l-181 -248l196 -287h-107l-164 245h-76v-245h-93v609h-76z" />
    <glyph glyph-name="uni04A0" unicode="&#x4a0;" horiz-adv-x="820" 
d="M13 664v91h338v-326h116l218 326h112l-250 -364l264 -391h-118l-227 343h-115v-343h-98v664h-240z" />
    <glyph glyph-name="uni04A1" unicode="&#x4a1;" horiz-adv-x="652" 
d="M23 456v79h273v-213h81l146 213h105l-181 -248l196 -287h-107l-164 245h-76v-245h-93v456h-180z" />
    <glyph glyph-name="uni04A2" unicode="&#x4a2;" horiz-adv-x="785" 
d="M657 755v-664h103v-251h-88v160h-113v340h-367v-340h-98v755h98v-324h367v324h98z" />
    <glyph glyph-name="uni04A3" unicode="&#x4a3;" horiz-adv-x="644" 
d="M443 535h93v-456h72v-219h-88v140h-77v234h-271v-234h-93v535h93v-222h271v222z" />
    <glyph glyph-name="uni04A4" unicode="&#x4a4;" horiz-adv-x="918" 
d="M907 755v-91h-280v-664h-98v340h-337v-340h-98v755h98v-324h337v324h378z" />
    <glyph glyph-name="uni04A5" unicode="&#x4a5;" horiz-adv-x="757" 
d="M413 535h323v-79h-230v-456h-93v234h-241v-234h-93v535h93v-222h241v222z" />
    <glyph glyph-name="uni04A6" unicode="&#x4a6;" horiz-adv-x="1088" 
d="M627 755v-333c49 22 112 38 164 38c190 0 253 -115 253 -273v-98c0 -162 -87 -249 -219 -249c-20 0 -42 3 -63 9v81c14 -3 37 -9 63 -9c86 0 126 61 126 163v101c0 130 -52 188 -169 188c-50 0 -101 -10 -155 -37v-336h-98v664h-337v-664h-98v755h533z" />
    <glyph glyph-name="uni04A7" unicode="&#x4a7;" horiz-adv-x="874" 
d="M79 0v535h417v-234c32 13 71 24 117 24c157 0 223 -86 223 -249v-46c0 -181 -57 -264 -187 -264c-24 0 -45 3 -58 7v79c11 -3 28 -7 50 -7c79 0 102 55 102 176v60c0 113 -43 162 -147 162c-39 0 -73 -10 -100 -21v-222h-93v456h-231v-456h-93z" />
    <glyph glyph-name="uni04A8" unicode="&#x4a8;" horiz-adv-x="947" 
d="M390 -15c-188 0 -332 130 -332 383v52c0 243 148 338 270 349v-91c-98 -17 -169 -94 -169 -251v-66c0 -188 99 -288 231 -288c60 0 98 7 133 19c-99 73 -177 189 -176 357c1 174 103 320 270 320c177 0 267 -119 267 -312c0 -166 -77 -283 -181 -361
c33 -11 66 -16 97 -16c26 0 64 3 83 11v-90c-21 -7 -51 -9 -74 -9c-56 0 -128 15 -198 48c-12 -6 -25 -12 -38 -17c-54 -22 -112 -38 -183 -38zM448 449c0 -146 76 -251 169 -311c89 58 167 161 167 319c0 137 -51 224 -167 224c-106 0 -169 -94 -169 -232z" />
    <glyph glyph-name="uni04A9" unicode="&#x4a9;" horiz-adv-x="764" 
d="M649 67c18 0 36 2 57 10v-80c-22 -8 -50 -12 -83 -12c-34 0 -82 12 -131 35c-48 -22 -102 -35 -165 -35c-155 0 -275 90 -275 276v37c0 170 117 241 210 250v-83c-58 -9 -117 -57 -117 -161v-49c0 -117 85 -188 190 -188c30 0 53 2 72 7c-67 55 -121 136 -121 244
c0 124 85 231 214 231c133 0 208 -95 208 -231c0 -101 -55 -183 -128 -242c22 -6 46 -9 69 -9zM379 318c0 -89 49 -162 117 -205c65 40 119 107 119 205c0 89 -33 149 -114 149c-73 0 -122 -55 -122 -149z" />
    <glyph glyph-name="uni04AA" unicode="&#x4aa;" horiz-adv-x="613" 
d="M575 719v-100c-44 36 -108 62 -194 62c-120 0 -221 -81 -221 -254v-106c0 -173 91 -248 221 -248c70 0 135 11 192 44v-90c-45 -23 -95 -38 -159 -41v-146h-88v149c-157 20 -267 135 -267 339v92c0 227 137 349 322 349c100 0 153 -24 194 -50z" />
    <glyph glyph-name="uni04AB" unicode="&#x4ab;" horiz-adv-x="501" 
d="M299 549c61 0 112 -12 155 -36v-96c-53 37 -104 50 -156 50c-95 0 -151 -55 -151 -162v-76c0 -102 55 -162 147 -162c51 0 100 13 159 50v-88c-31 -22 -75 -37 -126 -42v-127h-82v129c-116 19 -191 110 -191 245v66c0 139 76 249 245 249z" />
    <glyph glyph-name="uni04AC" unicode="&#x4ac;" horiz-adv-x="619" 
d="M601 755v-91h-240v-573h103v-251h-88v160h-113v664h-250v91h588z" />
    <glyph glyph-name="uni04AD" unicode="&#x4ad;" horiz-adv-x="483" 
d="M23 456v79h433v-79h-170v-377h72v-219h-88v140h-77v456h-170z" />
    <glyph glyph-name="uni04AE" unicode="&#x4ae;" horiz-adv-x="629" 
d="M610 755l-248 -472v-283h-98v286l-242 469h115l179 -370l190 370h104z" />
    <glyph glyph-name="uni04AF" unicode="&#x4af;" horiz-adv-x="551" 
d="M228 -222v222l-210 535h101l157 -424l161 424h96l-212 -536v-221h-93z" />
    <glyph glyph-name="uni04B0" unicode="&#x4b0;" horiz-adv-x="628" 
d="M513 285v-84h-150v-201h-98v201h-150v84h149l-242 470h115l179 -370l190 370h104l-247 -470h150z" />
    <glyph glyph-name="uni04B1" unicode="&#x4b1;" horiz-adv-x="551" 
d="M79 0v75h120l-180 460h101l157 -424l161 424h96l-182 -460h120v-75h-150v-222h-93v221l-1 1h-149z" />
    <glyph glyph-name="uni04B2" unicode="&#x4b2;" horiz-adv-x="686" 
d="M9 0l254 384l-237 371h116l181 -298l188 298h107l-238 -365l191 -299h98v-251h-88v160h-68l-193 315l-200 -315h-111z" />
    <glyph glyph-name="uni04B3" unicode="&#x4b3;" horiz-adv-x="547" 
d="M15 0l192 274l-175 261h111l115 -185l124 185h102l-181 -254l138 -202h82v-219h-84v140h-55l-132 204l-131 -204h-106z" />
    <glyph glyph-name="uni04B4" unicode="&#x4b4;" horiz-adv-x="915" 
d="M224 0v664h-210v91h528v-91h-220v-573h367v664h98v-664h103v-251h-90v160h-576z" />
    <glyph glyph-name="uni04B5" unicode="&#x4b5;" horiz-adv-x="738" 
d="M23 456v79h413v-79h-160v-377h261v456h93v-456h72v-219h-88v140h-431v456h-160z" />
    <glyph glyph-name="uni04B6" unicode="&#x4b6;" horiz-adv-x="704" 
d="M576 755v-664h103v-251h-88v160h-113v328c-50 -17 -123 -33 -187 -33c-181 0 -237 86 -237 249v211h98v-211c0 -133 48 -161 161 -161c52 0 116 14 165 33v339h98z" />
    <glyph glyph-name="uni04B7" unicode="&#x4b7;" horiz-adv-x="579" 
d="M378 0v217c-39 -17 -83 -27 -141 -27c-129 0 -187 52 -187 194v151h93v-132c0 -106 35 -132 121 -132c45 0 85 10 114 23v241h93v-456h72v-219h-88v140h-77z" />
    <glyph glyph-name="uni04B8" unicode="&#x4b8;" horiz-adv-x="665" 
d="M571 755v-755h-98v360c-33 -12 -74 -22 -114 -28v-159h-86v154c-176 7 -224 88 -224 267v161h99v-167c0 -121 25 -165 125 -172v169h86v-167c40 5 81 15 114 30v307h98z" />
    <glyph glyph-name="uni04B9" unicode="&#x4b9;" horiz-adv-x="546" 
d="M223 105v105c-123 2 -175 55 -175 194v131h93v-112c0 -95 16 -126 82 -131v130h74v-128c31 5 57 12 77 21v220h93v-535h-93v238c-23 -11 -48 -18 -77 -23v-110h-74z" />
    <glyph glyph-name="uni04BA" unicode="&#x4ba;" horiz-adv-x="672" 
d="M94 0v755h98v-300c49 19 115 35 174 35c181 0 250 -80 250 -267v-223h-99v229c0 133 -49 173 -160 173c-52 0 -111 -11 -165 -35v-367h-98z" />
    <glyph glyph-name="uni04BB" unicode="&#x4bb;" horiz-adv-x="610" 
d="M79 0v755h93v-287c37 50 93 81 168 81c135 0 196 -83 196 -223v-326h-93v319c0 102 -61 143 -126 143c-73 0 -142 -51 -145 -142v-320h-93z" />
    <glyph glyph-name="uni04BC" unicode="&#x4bc;" horiz-adv-x="840" 
d="M41 609h92c-5 -19 -10 -51 -10 -71c0 -83 23 -106 104 -107c4 222 123 338 284 338c196 0 273 -122 273 -349v-80h-456v-19c0 -173 71 -248 205 -248c128 0 183 43 230 75v-101c-55 -32 -112 -62 -230 -62c-197 0 -306 116 -306 343v12c-134 1 -196 48 -196 193
c0 20 4 57 10 76zM511 681c-105 0 -182 -76 -183 -250h356c-1 170 -47 250 -173 250z" />
    <glyph glyph-name="uni04BD" unicode="&#x4bd;" horiz-adv-x="693" 
d="M45 454h79c-5 -16 -10 -45 -10 -63c0 -53 10 -79 70 -84c3 148 98 242 228 242c132 0 229 -77 229 -239v-83h-364c1 -102 69 -160 164 -160c68 0 118 6 187 48v-83c-59 -34 -112 -47 -196 -47c-140 0 -245 84 -248 242c-108 5 -150 47 -150 159c0 23 6 54 11 68zM412 467
c-86 0 -135 -60 -135 -161h271v9c0 102 -50 152 -136 152z" />
    <glyph glyph-name="uni04BE" unicode="&#x4be;" horiz-adv-x="840" 
d="M41 609h92c-5 -19 -10 -51 -10 -71c0 -83 23 -106 104 -107c4 222 123 338 284 338c196 0 273 -122 273 -349v-80h-456v-19c0 -173 71 -248 205 -248c128 0 183 43 230 75v-101c-52 -30 -106 -59 -210 -62v-145h-88v151c-154 24 -238 137 -238 337v12
c-134 1 -196 48 -196 193c0 20 4 57 10 76zM511 681c-105 0 -182 -76 -183 -250h356c-1 170 -47 250 -173 250z" />
    <glyph glyph-name="uni04BF" unicode="&#x4bf;" horiz-adv-x="693" 
d="M641 227h-364c1 -102 69 -160 164 -160c68 0 118 6 187 48v-83c-53 -31 -101 -44 -170 -46v-126h-82v130c-111 20 -190 101 -192 237c-108 5 -150 47 -150 159c0 23 6 54 11 68h79c-5 -16 -10 -45 -10 -63c0 -53 10 -79 70 -84c3 148 98 242 228 242
c132 0 229 -77 229 -239v-83zM412 467c-86 0 -135 -60 -135 -161h271v9c0 102 -50 152 -136 152z" />
    <glyph glyph-name="uni04C0" unicode="&#x4c0;" horiz-adv-x="286" 
d="M192 755v-755h-98v755h98z" />
    <glyph glyph-name="uni04C1" unicode="&#x4c1;" horiz-adv-x="956" 
d="M127 0h-118l260 391l-246 364h112l214 -326h80v326h98v-326h80l214 326h112l-247 -364l261 -391h-118l-223 343h-79v-343h-98v343h-79zM548 954h75c0 -78 -56 -123 -146 -123c-95 0 -145 48 -145 123h72c0 -50 38 -60 73 -60c31 0 71 9 71 60z" />
    <glyph glyph-name="uni04C2" unicode="&#x4c2;" horiz-adv-x="759" 
d="M123 0h-107l187 288l-172 247h105l136 -213h61v213h93v-213h60l137 213h105l-172 -247l187 -288h-107l-156 245h-54v-245h-93v245h-55zM447 756h75c0 -78 -52 -133 -142 -133c-95 0 -143 58 -143 133h72c0 -50 36 -70 71 -70c31 0 67 19 67 70z" />
    <glyph glyph-name="uni04C3" unicode="&#x4c3;" horiz-adv-x="680" 
d="M192 755v-326h117l217 326h112l-231 -335c163 -23 217 -139 217 -286v-45c0 -162 -87 -249 -219 -249c-20 0 -42 3 -63 9v81c14 -3 37 -9 63 -9c86 0 126 61 126 163v48c0 137 -58 211 -193 211h-146v-343h-98v755h98z" />
    <glyph glyph-name="uni04C4" unicode="&#x4c4;" horiz-adv-x="543" 
d="M79 535h93v-232h68l159 232h105l-175 -240c103 -16 165 -95 165 -239v-36c0 -171 -57 -254 -187 -254c-24 0 -45 3 -58 7v79c11 -4 28 -7 50 -7c79 0 102 55 102 166v50c0 103 -47 163 -163 163h-66v-224h-93v535z" />
    <glyph glyph-name="uni04C5" unicode="&#x4c5;" horiz-adv-x="755" 
d="M175 755h440v-664h124l-66 -251h-83l38 160h-111v667h-250v-96c0 -91 -8 -247 -18 -327c-23 -185 -82 -248 -176 -248c-20 0 -44 2 -64 7v84c14 -5 29 -7 41 -7c55 0 86 41 106 165c13 80 19 232 19 327v183z" />
    <glyph glyph-name="uni04C6" unicode="&#x4c6;" horiz-adv-x="624" 
d="M141 535h351v-456h113l-60 -219h-75l34 140h-105v456h-173v-12c0 -98 -8 -209 -18 -277c-16 -114 -58 -171 -134 -171c-14 0 -40 3 -55 8v74c11 -3 21 -5 32 -5c42 0 62 33 73 101c9 54 17 161 17 272v89z" />
    <glyph glyph-name="uni04C7" unicode="&#x4c7;" horiz-adv-x="751" 
d="M559 84v256h-367v-340h-98v755h98v-324h367v324h98v-666c0 -162 -87 -249 -219 -249c-20 0 -42 3 -63 9v81c14 -3 37 -9 63 -9c86 0 121 61 121 163z" />
    <glyph glyph-name="uni04C8" unicode="&#x4c8;" horiz-adv-x="615" 
d="M443 535h93v-505c0 -181 -47 -264 -177 -264c-24 0 -45 3 -58 7v79c12 -4 28 -7 50 -7c79 0 92 55 92 176v213h-271v-234h-93v535h93v-222h271v222z" />
    <glyph glyph-name="uni04C9" unicode="&#x4c9;" horiz-adv-x="797" 
d="M657 755v-664h124l-66 -251h-83l38 160h-111v340h-367v-340h-98v755h98v-324h367v324h98z" />
    <glyph glyph-name="uni04CA" unicode="&#x4ca;" horiz-adv-x="669" 
d="M443 535h93v-456h114l-60 -219h-75l34 140h-106v234h-271v-234h-93v535h93v-222h271v222z" />
    <glyph glyph-name="uni04CB" unicode="&#x4cb;" horiz-adv-x="670" 
d="M576 755v-755h-113v-160h-88v251h103v237c-50 -17 -123 -33 -187 -33c-181 0 -237 86 -237 249v211h98v-211c0 -133 48 -161 161 -161c52 0 116 14 165 33v339h98z" />
    <glyph glyph-name="uni04CC" unicode="&#x4cc;" horiz-adv-x="550" 
d="M471 535v-535h-77v-140h-88v219h72v138c-39 -17 -83 -27 -141 -27c-129 0 -187 52 -187 194v151h93v-132c0 -106 35 -132 121 -132c45 0 85 10 114 23v241h93z" />
    <glyph glyph-name="uni04CD" unicode="&#x4cd;" horiz-adv-x="898" 
d="M758 755v-664h124l-66 -251h-83l38 160h-106v570l-202 -380h-77l-199 371v-561h-93v755h93l237 -448l241 448h93z" />
    <glyph glyph-name="uni04CE" unicode="&#x4ce;" horiz-adv-x="769" 
d="M636 535v-456h114l-60 -219h-75l34 140h-102v371l-159 -265h-63l-157 261v-367h-89v535h89l188 -317l191 317h89z" />
    <glyph glyph-name="uni04CF" unicode="&#x4cf;" horiz-adv-x="251" 
d="M79 0v755h93v-755h-93z" />
    <glyph glyph-name="uni04D0" unicode="&#x4d0;" horiz-adv-x="684" 
d="M5 0l286 755h107l276 -755h-115l-64 188h-318l-68 -188h-104zM340 641l-132 -365h257zM410 954h75c0 -78 -56 -123 -146 -123c-95 0 -145 48 -145 123h72c0 -50 38 -60 73 -60c31 0 71 9 71 60z" />
    <glyph glyph-name="uni04D1" unicode="&#x4d1;" horiz-adv-x="549" 
d="M475 0h-93v58c-35 -49 -90 -73 -160 -73c-123 0 -179 57 -179 154c0 120 77 168 229 168h110v18c0 89 -21 142 -140 142c-70 0 -116 -17 -169 -65v91c42 34 86 56 186 56c167 0 216 -66 216 -219v-330zM233 64c65 0 145 30 149 127v37h-115c-99 0 -131 -18 -131 -86
c0 -52 32 -78 97 -78zM326 756h75c0 -78 -52 -133 -142 -133c-95 0 -143 58 -143 133h72c0 -50 36 -70 71 -70c31 0 67 19 67 70z" />
    <glyph glyph-name="uni04D2" unicode="&#x4d2;" horiz-adv-x="684" 
d="M5 0l286 755h107l276 -755h-115l-64 188h-318l-68 -188h-104zM340 641l-132 -365h257zM190 846v99h94v-99h-94zM394 846v99h94v-99h-94z" />
    <glyph glyph-name="uni04D3" unicode="&#x4d3;" horiz-adv-x="549" 
d="M475 0h-93v58c-35 -49 -90 -73 -160 -73c-123 0 -179 57 -179 154c0 120 77 168 229 168h110v18c0 89 -21 142 -140 142c-70 0 -116 -17 -169 -65v91c42 34 86 56 186 56c167 0 216 -66 216 -219v-330zM233 64c65 0 145 30 149 127v37h-115c-99 0 -131 -18 -131 -86
c0 -52 32 -78 97 -78zM112 636v99h94v-99h-94zM326 636v99h94v-99h-94z" />
    <glyph glyph-name="uni04D4" unicode="&#x4d4;" horiz-adv-x="952" 
d="M-6 0l366 755h527v-88h-357v-238h328v-86h-328v-255h366v-88h-464v238h-223l-111 -238h-104zM410 667l-159 -341h181v341h-22z" />
    <glyph glyph-name="uni04D5" unicode="&#x4d5;" horiz-adv-x="891" 
d="M839 227h-364c1 -102 69 -160 164 -160c68 0 118 6 187 48v-83c-59 -34 -112 -47 -196 -47c-95 0 -174 38 -216 112c-35 -70 -101 -112 -182 -112c-129 0 -189 57 -189 154c0 120 77 168 229 168h110v18c0 89 -21 142 -140 142c-70 0 -116 -17 -169 -65v91
c42 34 86 56 186 56c89 0 145 -29 174 -83c41 53 103 83 177 83c132 0 229 -77 229 -239v-83zM610 467c-86 0 -135 -60 -135 -161h271v9c0 102 -50 152 -136 152zM233 64c81 0 148 52 149 155v9h-115c-99 0 -131 -18 -131 -86c0 -52 32 -78 97 -78z" />
    <glyph glyph-name="uni04D6" unicode="&#x4d6;" horiz-adv-x="614" 
d="M558 88v-88h-464v755h455v-88h-357v-238h328v-86h-328v-255h366zM396 954h75c0 -78 -56 -123 -146 -123c-95 0 -145 48 -145 123h72c0 -50 38 -60 73 -60c31 0 71 9 71 60z" />
    <glyph glyph-name="uni04D7" unicode="&#x4d7;" horiz-adv-x="563" 
d="M511 227h-364c1 -102 69 -160 164 -160c68 0 118 6 187 48v-83c-59 -34 -112 -47 -196 -47c-142 0 -248 87 -248 249v66c0 152 96 249 228 249s229 -77 229 -239v-83zM282 467c-86 0 -135 -60 -135 -161h271v9c0 102 -50 152 -136 152zM348 756h75
c0 -78 -52 -133 -142 -133c-95 0 -143 58 -143 133h72c0 -50 36 -70 71 -70c31 0 67 19 67 70z" />
    <glyph glyph-name="uni04D8" unicode="&#x4d8;" horiz-adv-x="677" 
d="M311 681c-128 0 -187 -43 -234 -75v101c55 32 116 62 234 62c197 0 306 -116 306 -343v-92c0 -230 -123 -349 -286 -349c-196 0 -275 122 -275 349v30l-1 2v48h461v19c0 173 -71 248 -205 248zM331 73c105 0 184 76 185 250h-360c0 -171 49 -250 175 -250z" />
    <glyph glyph-name="uni04D9" unicode="&#x4d9;" horiz-adv-x="562" 
d="M281 -14c-132 0 -229 77 -229 239v83h364c-1 101 -70 160 -164 160c-68 0 -118 -6 -187 -48v83c59 34 112 47 196 47c142 0 248 -87 248 -249v-66c0 -152 -96 -249 -228 -249zM281 68c85 0 134 59 135 161h-271v-9c0 -102 50 -152 136 -152z" />
    <glyph glyph-name="uni04DA" unicode="&#x4da;" horiz-adv-x="677" 
d="M311 681c-128 0 -187 -43 -234 -75v101c55 32 116 62 234 62c197 0 306 -116 306 -343v-92c0 -230 -123 -349 -286 -349c-196 0 -275 122 -275 349v30l-1 2v48h461v19c0 173 -71 248 -205 248zM331 73c105 0 184 76 185 250h-360c0 -171 49 -250 175 -250zM175 846v99h94
v-99h-94zM379 846v99h94v-99h-94z" />
    <glyph glyph-name="uni04DB" unicode="&#x4db;" horiz-adv-x="562" 
d="M281 -14c-132 0 -229 77 -229 239v83h364c-1 101 -70 160 -164 160c-68 0 -118 -6 -187 -48v83c59 34 112 47 196 47c142 0 248 -87 248 -249v-66c0 -152 -96 -249 -228 -249zM281 68c85 0 134 59 135 161h-271v-9c0 -102 50 -152 136 -152zM118 636v99h94v-99h-94z
M332 636v99h94v-99h-94z" />
    <glyph glyph-name="uni04DC" unicode="&#x4dc;" horiz-adv-x="956" 
d="M127 0h-118l260 391l-246 364h112l214 -326h80v326h98v-326h80l214 326h112l-247 -364l261 -391h-118l-223 343h-79v-343h-98v343h-79zM329 846v99h94v-99h-94zM533 846v99h94v-99h-94z" />
    <glyph glyph-name="uni04DD" unicode="&#x4dd;" horiz-adv-x="759" 
d="M123 0h-107l187 288l-172 247h105l136 -213h61v213h93v-213h60l137 213h105l-172 -247l187 -288h-107l-156 245h-54v-245h-93v245h-55zM226 636v99h94v-99h-94zM440 636v99h94v-99h-94z" />
    <glyph glyph-name="uni04DE" unicode="&#x4de;" horiz-adv-x="605" 
d="M264 -15c-81 0 -170 35 -214 62v100c47 -33 138 -74 214 -74c118 0 183 41 183 131c0 94 -68 139 -190 139h-114v86h115c120 0 177 50 177 124c0 102 -80 128 -172 128c-76 0 -152 -34 -206 -72v101c48 31 123 59 214 59c187 0 265 -83 265 -207
c0 -84 -52 -136 -128 -169c81 -25 141 -87 141 -183c0 -116 -70 -225 -285 -225zM349 846v99h94v-99h-94zM145 846v99h94v-99h-94z" />
    <glyph glyph-name="uni04DF" unicode="&#x4df;" horiz-adv-x="510" 
d="M226 -14c-43 0 -128 13 -180 41v92c57 -33 132 -52 176 -52c91 0 143 23 143 87c0 67 -55 80 -140 80h-90v81h83c84 0 137 21 137 74c0 67 -65 77 -135 77c-39 0 -107 -17 -162 -49v93c47 22 120 40 172 40c166 0 218 -67 218 -155c0 -57 -37 -95 -90 -116
c58 -16 99 -59 99 -126c0 -82 -44 -167 -231 -167zM296 636v99h94v-99h-94zM82 636v99h94v-99h-94z" />
    <glyph glyph-name="uni04E0" unicode="&#x4e0;" horiz-adv-x="603" 
d="M53 664v91h491v-91l-272 -242c208 -2 276 -92 276 -212c0 -116 -73 -225 -285 -225c-91 0 -170 35 -214 62v100c47 -33 128 -74 214 -74c114 0 183 41 183 131c0 85 -42 135 -205 135h-90v81l266 244h-364z" />
    <glyph glyph-name="uni04E1" unicode="&#x4e1;" horiz-adv-x="502" 
d="M457 468l-245 -269c158 -5 251 -76 251 -219c0 -115 -96 -214 -253 -214c-58 0 -137 16 -183 41v88c57 -30 110 -46 186 -46c78 0 155 40 155 132c0 93 -57 137 -180 137h-82v80l230 255h-305v82h426v-67z" />
    <glyph glyph-name="uni04E2" unicode="&#x4e2;" horiz-adv-x="741" 
d="M94 755h93v-588l367 588h93v-755h-93v592l-367 -592h-93v755zM220 858v68h300v-68h-300z" />
    <glyph glyph-name="uni04E3" unicode="&#x4e3;" horiz-adv-x="615" 
d="M79 535h93v-398l271 398h93v-535h-93v398l-271 -398h-93v535zM175 658v68h265v-68h-265z" />
    <glyph glyph-name="uni04E4" unicode="&#x4e4;" horiz-adv-x="741" 
d="M94 755h93v-588l367 588h93v-755h-93v592l-367 -592h-93v755zM425 846v99h94v-99h-94zM221 846v99h94v-99h-94z" />
    <glyph glyph-name="uni04E5" unicode="&#x4e5;" horiz-adv-x="615" 
d="M79 535h93v-398l271 398h93v-535h-93v398l-271 -398h-93v535zM367 636v99h94v-99h-94zM153 636v99h94v-99h-94z" />
    <glyph glyph-name="uni04E6" unicode="&#x4e6;" horiz-adv-x="725" 
d="M60 328v92c0 227 117 349 302 349s303 -122 303 -349v-92c0 -227 -118 -343 -303 -343s-302 116 -302 343zM161 427v-106c0 -173 71 -248 201 -248c131 0 203 75 203 248v106c0 173 -82 254 -203 254c-120 0 -201 -81 -201 -254zM213 846v99h94v-99h-94zM417 846v99h94
v-99h-94z" />
    <glyph glyph-name="uni04E7" unicode="&#x4e7;" horiz-adv-x="584" 
d="M54 234v66c0 162 106 249 238 249s239 -87 239 -249v-66c0 -162 -107 -249 -239 -249s-238 87 -238 249zM147 305v-76c0 -102 59 -162 145 -162s146 60 146 162v76c0 102 -60 162 -146 162s-145 -60 -145 -162zM138 636v99h94v-99h-94zM352 636v99h94v-99h-94z" />
    <glyph glyph-name="uni04E8" unicode="&#x4e8;" horiz-adv-x="725" 
d="M60 328v92c0 227 117 349 302 349s303 -122 303 -349v-92c0 -227 -118 -343 -303 -343s-302 116 -302 343zM362 73c131 0 203 75 203 248v15h-404v-15c0 -173 71 -248 201 -248zM161 427v-3h404v3c0 173 -82 254 -203 254c-120 0 -201 -81 -201 -254z" />
    <glyph glyph-name="uni04E9" unicode="&#x4e9;" horiz-adv-x="584" 
d="M54 234v66c0 162 106 249 238 249s239 -87 239 -249v-66c0 -162 -107 -249 -239 -249s-238 87 -238 249zM292 67c86 0 146 60 146 162v5h-291v-5c0 -102 59 -162 145 -162zM292 467c-85 0 -144 -59 -145 -158h291c-2 99 -61 158 -146 158z" />
    <glyph glyph-name="uni04EA" unicode="&#x4ea;" horiz-adv-x="725" 
d="M60 328v92c0 227 117 349 302 349s303 -122 303 -349v-92c0 -227 -118 -343 -303 -343s-302 116 -302 343zM362 73c131 0 203 75 203 248v15h-404v-15c0 -173 71 -248 201 -248zM161 427v-3h404v3c0 173 -82 254 -203 254c-120 0 -201 -81 -201 -254zM213 846v99h94v-99
h-94zM417 846v99h94v-99h-94z" />
    <glyph glyph-name="uni04EB" unicode="&#x4eb;" horiz-adv-x="584" 
d="M54 234v66c0 162 106 249 238 249s239 -87 239 -249v-66c0 -162 -107 -249 -239 -249s-238 87 -238 249zM292 67c86 0 146 60 146 162v5h-291v-5c0 -102 59 -162 145 -162zM292 467c-85 0 -144 -59 -145 -158h291c-2 99 -61 158 -146 158zM352 636v99h94v-99h-94z
M138 636v99h94v-99h-94z" />
    <glyph glyph-name="uni04EC" unicode="&#x4ec;" horiz-adv-x="634" 
d="M148 340v91h326c-2 170 -100 250 -223 250c-86 0 -156 -26 -200 -62v100c41 26 100 50 200 50c192 0 324 -122 324 -349v-92c0 -227 -134 -343 -324 -343c-81 0 -146 15 -198 42v90c57 -33 128 -44 198 -44c134 0 223 75 223 248v19h-326zM348 846v99h94v-99h-94z
M144 846v99h94v-99h-94z" />
    <glyph glyph-name="uni04ED" unicode="&#x4ed;" horiz-adv-x="504" 
d="M121 234v79h237c-3 102 -59 154 -151 154c-52 0 -103 -13 -156 -50v96c43 24 94 36 155 36c169 0 245 -110 245 -249v-66c0 -152 -96 -249 -238 -249c-67 0 -123 18 -161 44v88c59 -37 108 -50 159 -50c92 0 147 60 147 162v5h-237zM287 636v99h94v-99h-94zM73 636v99h94
v-99h-94z" />
    <glyph glyph-name="uni04EE" unicode="&#x4ee;" horiz-adv-x="641" 
d="M213 -15c-25 0 -49 5 -71 15v83c21 -9 39 -12 60 -12c33 0 69 12 101 97l-298 587h110l236 -483l174 483h104l-228 -580c-49 -126 -97 -190 -188 -190zM167 858v68h300v-68h-300z" />
    <glyph glyph-name="uni04EF" unicode="&#x4ef;" horiz-adv-x="553" 
d="M259 -222h-100l72 200l-210 557h101l157 -440l161 440h96l-204 -535h-1zM146 658v68h265v-68h-265z" />
    <glyph glyph-name="uni04F0" unicode="&#x4f0;" horiz-adv-x="641" 
d="M213 -15c-25 0 -49 5 -71 15v83c21 -9 39 -12 60 -12c33 0 69 12 101 97l-298 587h110l236 -483l174 483h104l-228 -580c-49 -126 -97 -190 -188 -190zM378 846v99h94v-99h-94zM174 846v99h94v-99h-94z" />
    <glyph glyph-name="uni04F1" unicode="&#x4f1;" horiz-adv-x="553" 
d="M259 -222h-100l72 200l-210 557h101l157 -440l161 440h96l-204 -535h-1zM338 636v99h94v-99h-94zM124 636v99h94v-99h-94z" />
    <glyph glyph-name="uni04F2" unicode="&#x4f2;" horiz-adv-x="641" 
d="M213 -15c-25 0 -49 5 -71 15v83c21 -9 39 -12 60 -12c33 0 69 12 101 97l-298 587h110l236 -483l174 483h104l-228 -580c-49 -126 -97 -190 -188 -190zM427 960h89l-88 -133h-78zM275 960h89l-88 -133h-78z" />
    <glyph glyph-name="uni04F3" unicode="&#x4f3;" horiz-adv-x="553" 
d="M259 -222h-100l72 200l-210 557h101l157 -440l161 440h96l-204 -535h-1zM410 775h89l-109 -153h-78zM245 775h89l-99 -153h-78z" />
    <glyph glyph-name="uni04F4" unicode="&#x4f4;" horiz-adv-x="670" 
d="M478 755h98v-755h-98v328c-50 -17 -123 -33 -187 -33c-181 0 -237 86 -237 249v211h98v-211c0 -133 48 -161 161 -161c52 0 116 14 165 33v339zM376 846v99h94v-99h-94zM172 846v99h94v-99h-94z" />
    <glyph glyph-name="uni04F5" unicode="&#x4f5;" horiz-adv-x="550" 
d="M471 535v-535h-93v217c-39 -17 -83 -27 -141 -27c-129 0 -187 52 -187 194v151h93v-132c0 -106 35 -132 121 -132c45 0 85 10 114 23v241h93zM321 636v99h94v-99h-94zM107 636v99h94v-99h-94z" />
    <glyph glyph-name="uni04F6" unicode="&#x4f6;" horiz-adv-x="561" 
d="M94 0v755h455v-91h-357v-573h103v-251h-88v160h-113z" />
    <glyph glyph-name="uni04F7" unicode="&#x4f7;" horiz-adv-x="451" 
d="M79 0v535h350v-79h-257v-377h72v-219h-88v140h-77z" />
    <glyph glyph-name="uni04F8" unicode="&#x4f8;" horiz-adv-x="890" 
d="M94 755h98v-281h139c172 0 251 -105 251 -229c0 -140 -81 -245 -247 -245h-241v755zM319 386h-127v-298h138c120 0 151 74 151 148c0 102 -53 150 -162 150zM698 755h98v-755h-98v755zM296 846v99h94v-99h-94zM500 846v99h94v-99h-94z" />
    <glyph glyph-name="uni04F9" unicode="&#x4f9;" horiz-adv-x="725" 
d="M466 178c0 -99 -60 -178 -207 -178h-180v535h93v-189h83c165 0 211 -78 211 -168zM646 535v-535h-93v535h93zM237 267h-65v-188h75c104 0 126 40 126 93c0 71 -45 95 -136 95zM425 636v99h94v-99h-94zM211 636v99h94v-99h-94z" />
    <glyph glyph-name="uni0524" unicode="&#x524;" horiz-adv-x="775" 
d="M549 0v664h-357v-664h-98v755h553v-664h103v-251h-88v160h-113z" />
    <glyph glyph-name="uni0525" unicode="&#x525;" horiz-adv-x="634" 
d="M433 0v456h-261v-456h-93v535h447v-456h72v-219h-88v140h-77z" />
    <glyph glyph-name="uni1E02" unicode="&#x1e02;" horiz-adv-x="677" 
d="M363 0h-269v755h257c172 0 251 -75 251 -199c0 -83 -39 -131 -105 -162c76 -23 126 -82 126 -178c0 -116 -69 -216 -260 -216zM355 343h-163v-255h160c102 0 169 32 169 122c0 94 -38 133 -166 133zM339 667h-147v-238h158c120 0 151 44 151 118c0 102 -73 120 -162 120z
M276 846v99h94v-99h-94z" />
    <glyph glyph-name="uni1E03" unicode="&#x1e03;" 
d="M79 0v755h93v-290c35 50 90 84 165 84c145 0 218 -108 218 -249v-66c0 -152 -75 -249 -218 -249c-77 0 -130 40 -165 94v-79h-93zM322 467c-72 0 -140 -63 -150 -142v-96c0 -80 67 -162 152 -162c86 0 138 60 138 162v76c0 102 -54 162 -140 162zM307 656v99h94v-99h-94z
" />
    <glyph glyph-name="uni1E04" unicode="&#x1e04;" horiz-adv-x="677" 
d="M363 0h-269v755h257c172 0 251 -75 251 -199c0 -83 -39 -131 -105 -162c76 -23 126 -82 126 -178c0 -116 -69 -216 -260 -216zM355 343h-163v-255h160c102 0 169 32 169 122c0 94 -38 133 -166 133zM339 667h-147v-238h158c120 0 151 44 151 118c0 102 -73 120 -162 120z
M269 -209v109h99v-109h-99z" />
    <glyph glyph-name="uni1E05" unicode="&#x1e05;" 
d="M79 0v755h93v-290c35 50 90 84 165 84c145 0 218 -108 218 -249v-66c0 -152 -75 -249 -218 -249c-77 0 -130 40 -165 94v-79h-93zM322 467c-72 0 -140 -63 -150 -142v-96c0 -80 67 -162 152 -162c86 0 138 60 138 162v76c0 102 -54 162 -140 162zM255 -209v109h99v-109
h-99z" />
    <glyph glyph-name="uni1E06" unicode="&#x1e06;" horiz-adv-x="677" 
d="M94 0v755h257c172 0 251 -75 251 -199c0 -83 -39 -131 -105 -162c76 -23 126 -82 126 -178c0 -116 -69 -216 -260 -216h-269zM355 343h-163v-255h160c102 0 169 32 169 122c0 94 -38 133 -166 133zM339 667h-147v-238h158c120 0 151 44 151 118c0 102 -73 120 -162 120z
M190 -189v68h265v-68h-265z" />
    <glyph glyph-name="uni1E07" unicode="&#x1e07;" 
d="M79 0v755h93v-290c35 50 90 84 165 84c145 0 218 -108 218 -249v-66c0 -152 -75 -249 -218 -249c-77 0 -130 40 -165 94v-79h-93zM322 467c-72 0 -140 -63 -150 -142v-96c0 -80 67 -162 152 -162c86 0 138 60 138 162v76c0 102 -54 162 -140 162zM182 -189v68h265v-68
h-265z" />
    <glyph glyph-name="uni1E0A" unicode="&#x1e0a;" horiz-adv-x="699" 
d="M326 755c185 0 313 -108 313 -335v-92c0 -227 -128 -328 -313 -328h-232v755h232zM326 667h-134v-579h134c131 0 213 60 213 233v106c0 173 -92 240 -213 240zM278 846v99h94v-99h-94z" />
    <glyph glyph-name="uni1E0B" unicode="&#x1e0b;" 
d="M437 465v290h93v-755h-93v79c-36 -54 -88 -94 -165 -94c-143 0 -218 97 -218 249v66c0 141 73 249 218 249c75 0 129 -34 165 -84zM287 467c-86 0 -140 -60 -140 -162v-76c0 -102 52 -162 138 -162c85 0 152 82 152 162v96c-10 79 -78 142 -150 142zM217 657v99h94v-99
h-94z" />
    <glyph glyph-name="uni1E0C" unicode="&#x1e0c;" horiz-adv-x="699" 
d="M326 755c185 0 313 -108 313 -335v-92c0 -227 -128 -328 -313 -328h-232v755h232zM326 667h-134v-579h134c131 0 213 60 213 233v106c0 173 -92 240 -213 240zM269 -209v109h99v-109h-99z" />
    <glyph glyph-name="uni1E0D" unicode="&#x1e0d;" 
d="M437 465v290h93v-755h-93v79c-36 -54 -88 -94 -165 -94c-143 0 -218 97 -218 249v66c0 141 73 249 218 249c75 0 129 -34 165 -84zM287 467c-86 0 -140 -60 -140 -162v-76c0 -102 52 -162 138 -162c83 0 149 78 152 156v102c-10 79 -78 142 -150 142zM265 -209v109h99
v-109h-99z" />
    <glyph glyph-name="uni1E0E" unicode="&#x1e0e;" horiz-adv-x="699" 
d="M326 755c185 0 313 -108 313 -335v-92c0 -227 -128 -328 -313 -328h-232v755h232zM326 667h-134v-579h134c131 0 213 60 213 233v106c0 173 -92 240 -213 240zM190 -189v68h265v-68h-265z" />
    <glyph glyph-name="uni1E0F" unicode="&#x1e0f;" 
d="M437 465v290h93v-755h-93v79c-36 -54 -88 -94 -165 -94c-143 0 -218 97 -218 249v66c0 141 73 249 218 249c75 0 129 -34 165 -84zM287 467c-86 0 -140 -60 -140 -162v-76c0 -102 52 -162 138 -162c85 0 152 82 152 162v96c-10 79 -78 142 -150 142zM165 -189v68h265v-68
h-265z" />
    <glyph glyph-name="uni1E1E" unicode="&#x1e1e;" horiz-adv-x="589" 
d="M520 429v-86h-328v-343h-98v755h455v-88h-357v-238h328zM272 846v99h94v-99h-94z" />
    <glyph glyph-name="uni1E1F" unicode="&#x1e1f;" horiz-adv-x="353" 
d="M44 456v79h55v44c0 118 66 190 197 190c24 0 37 -3 50 -7v-85c-11 5 -28 9 -50 9c-65 0 -104 -33 -104 -113v-38h140v-79h-140v-456h-93v456h-55zM36 757v99h94v-99h-94z" />
    <glyph glyph-name="uni1E20" unicode="&#x1e20;" horiz-adv-x="684" 
d="M618 418v-380c-52 -27 -120 -53 -227 -53c-185 0 -332 116 -332 343v92c0 227 147 349 332 349c100 0 163 -24 204 -50v-100c-44 36 -118 62 -204 62c-120 0 -231 -81 -231 -254v-106c0 -173 101 -248 231 -248c50 0 92 5 129 14v240h-193v91h291zM230 858v68h300v-68
h-300z" />
    <glyph glyph-name="uni1E21" unicode="&#x1e21;" 
d="M530 535v-516c0 -141 -83 -253 -262 -253c-64 0 -129 14 -180 34v87c61 -27 133 -38 182 -38c130 0 167 72 167 176v54c-36 -54 -88 -94 -165 -94c-143 0 -218 97 -218 249v66c0 141 73 249 218 249c75 0 129 -34 165 -84v70h93zM287 467c-86 0 -140 -60 -140 -162v-76
c0 -102 52 -162 138 -162c85 0 152 82 152 162v96c-10 79 -78 142 -150 142zM168 658v68h265v-68h-265z" />
    <glyph glyph-name="uni1E22" unicode="&#x1e22;" horiz-adv-x="751" 
d="M657 755v-755h-98v340h-367v-340h-98v755h98v-324h367v324h98zM330 846v99h94v-99h-94z" />
    <glyph glyph-name="uni1E23" unicode="&#x1e23;" horiz-adv-x="610" 
d="M79 0v755h93v-287c37 50 93 81 168 81c135 0 196 -83 196 -223v-326h-93v319c0 102 -61 143 -126 143c-73 0 -142 -51 -145 -142v-320h-93zM300 656v99h94v-99h-94z" />
    <glyph glyph-name="uni1E24" unicode="&#x1e24;" horiz-adv-x="751" 
d="M657 755v-755h-98v340h-367v-340h-98v755h98v-324h367v324h98zM334 -209v109h99v-109h-99z" />
    <glyph glyph-name="uni1E25" unicode="&#x1e25;" horiz-adv-x="610" 
d="M79 0v755h93v-287c37 50 93 81 168 81c135 0 196 -83 196 -223v-326h-93v319c0 102 -61 143 -126 143c-73 0 -142 -51 -145 -142v-320h-93zM255 -209v109h99v-109h-99z" />
    <glyph glyph-name="uni1E2A" unicode="&#x1e2a;" horiz-adv-x="751" 
d="M657 755v-755h-98v340h-367v-340h-98v755h98v-324h367v324h98zM437 -87h75c0 -78 -42 -133 -132 -133c-95 0 -133 58 -133 133h72c0 -50 26 -70 61 -70c31 0 57 19 57 70z" />
    <glyph glyph-name="uni1E2B" unicode="&#x1e2b;" horiz-adv-x="610" 
d="M79 0v755h93v-287c37 50 93 81 168 81c135 0 196 -83 196 -223v-326h-93v319c0 102 -61 143 -126 143c-73 0 -142 -51 -145 -142v-320h-93zM367 -87h75c0 -78 -42 -133 -132 -133c-95 0 -133 58 -133 133h72c0 -50 26 -70 61 -70c31 0 57 19 57 70z" />
    <glyph glyph-name="uni1E32" unicode="&#x1e32;" horiz-adv-x="661" 
d="M192 755v-326h116l218 326h112l-250 -364l264 -391h-118l-227 343h-115v-343h-98v755h98zM292 -209v109h99v-109h-99z" />
    <glyph glyph-name="uni1E33" unicode="&#x1e33;" horiz-adv-x="528" 
d="M79 0v755h93v-433h81l146 213h105l-181 -248l196 -287h-107l-164 245h-76v-245h-93zM230 -209v109h99v-109h-99z" />
    <glyph glyph-name="uni1E34" unicode="&#x1e34;" horiz-adv-x="661" 
d="M192 755v-326h116l218 326h112l-250 -364l264 -391h-118l-227 343h-115v-343h-98v755h98zM217 -189v68h265v-68h-265z" />
    <glyph glyph-name="uni1E35" unicode="&#x1e35;" horiz-adv-x="528" 
d="M79 0v755h93v-433h81l146 213h105l-181 -248l196 -287h-107l-164 245h-76v-245h-93zM157 -189v68h265v-68h-265z" />
    <glyph glyph-name="uni1E36" unicode="&#x1e36;" horiz-adv-x="520" 
d="M508 88v-88h-414v755h98v-667h316zM247 -209v109h99v-109h-99z" />
    <glyph glyph-name="uni1E37" unicode="&#x1e37;" horiz-adv-x="286" 
d="M134 -209v109h99v-109h-99zM75 145v610h93v-604c0 -60 10 -83 51 -83c22 0 39 4 50 9v-80c-13 -6 -37 -12 -61 -12c-108 0 -133 55 -133 160z" />
    <glyph glyph-name="uni1E38" unicode="&#x1e38;" horiz-adv-x="520" 
d="M508 88v-88h-414v755h98v-667h316zM-9 858v68h300v-68h-300zM247 -209v109h99v-109h-99z" />
    <glyph glyph-name="uni1E39" unicode="&#x1e39;" horiz-adv-x="286" 
d="M-25 868v68h300v-68h-300zM75 145v610h93v-604c0 -60 10 -83 51 -83c22 0 39 4 50 9v-80c-13 -6 -37 -12 -61 -12c-108 0 -133 55 -133 160zM134 -209v109h99v-109h-99z" />
    <glyph glyph-name="uni1E3A" unicode="&#x1e3a;" horiz-adv-x="520" 
d="M508 88v-88h-414v755h98v-667h316zM172 -189v68h265v-68h-265z" />
    <glyph glyph-name="uni1E3B" unicode="&#x1e3b;" horiz-adv-x="286" 
d="M75 145v610h93v-604c0 -60 10 -83 51 -83c22 0 39 4 50 9v-80c-13 -6 -37 -12 -61 -12c-108 0 -133 55 -133 160zM39 -189v68h265v-68h-265z" />
    <glyph glyph-name="uni1E3E" unicode="&#x1e3e;" horiz-adv-x="852" 
d="M386 190l-199 371v-561h-93v755h93l237 -448l241 448h93v-755h-93v570l-202 -380h-77zM446 960h89l-88 -133h-78z" />
    <glyph glyph-name="uni1E3F" unicode="&#x1e3f;" horiz-adv-x="954" 
d="M79 0v535h93v-63c34 47 85 77 158 77c88 0 145 -36 174 -100c36 60 96 100 180 100c135 0 196 -83 196 -223v-326h-93v319c0 102 -61 143 -126 143c-73 0 -132 -51 -135 -142v-320h-93v319c0 102 -61 143 -126 143c-73 0 -132 -51 -135 -142v-320h-93zM530 775h89
l-99 -153h-78z" />
    <glyph glyph-name="uni1E40" unicode="&#x1e40;" horiz-adv-x="852" 
d="M386 190l-199 371v-561h-93v755h93l237 -448l241 448h93v-755h-93v570l-202 -380h-77zM378 846v99h94v-99h-94z" />
    <glyph glyph-name="uni1E41" unicode="&#x1e41;" horiz-adv-x="954" 
d="M79 0v535h93v-63c34 47 85 77 158 77c88 0 145 -36 174 -100c36 60 96 100 180 100c135 0 196 -83 196 -223v-326h-93v319c0 102 -61 143 -126 143c-75 0 -135 -53 -135 -149v-313h-93v319c0 102 -61 143 -126 143c-73 0 -132 -51 -135 -142v-320h-93zM424 636v99h94v-99
h-94z" />
    <glyph glyph-name="uni1E42" unicode="&#x1e42;" horiz-adv-x="852" 
d="M386 190l-199 371v-561h-93v755h93l237 -448l241 448h93v-755h-93v570l-202 -380h-77zM360 -209v109h99v-109h-99z" />
    <glyph glyph-name="uni1E43" unicode="&#x1e43;" horiz-adv-x="954" 
d="M79 0v535h93v-63c34 47 85 77 158 77c88 0 145 -36 174 -100c36 60 96 100 180 100c135 0 196 -83 196 -223v-326h-93v319c0 102 -61 143 -126 143c-75 0 -135 -53 -135 -149v-313h-93v319c0 102 -61 143 -126 143c-73 0 -132 -51 -135 -142v-320h-93zM427 -209v109h99
v-109h-99z" />
    <glyph glyph-name="uni1E44" unicode="&#x1e44;" horiz-adv-x="741" 
d="M647 755v-755h-93l-367 589v-589h-93v755h93l367 -585v585h93zM327 846v99h94v-99h-94z" />
    <glyph glyph-name="uni1E45" unicode="&#x1e45;" horiz-adv-x="610" 
d="M79 0v535h93v-67c37 50 93 81 168 81c135 0 196 -83 196 -223v-326h-93v319c0 102 -61 143 -126 143c-73 0 -142 -51 -145 -142v-320h-93zM261 636v99h94v-99h-94z" />
    <glyph glyph-name="uni1E46" unicode="&#x1e46;" horiz-adv-x="741" 
d="M647 755v-755h-93l-367 589v-589h-93v755h93l367 -585v585h93zM336 -209v109h99v-109h-99z" />
    <glyph glyph-name="uni1E47" unicode="&#x1e47;" horiz-adv-x="610" 
d="M79 0v535h93v-67c37 50 93 81 168 81c135 0 196 -83 196 -223v-326h-93v319c0 102 -61 143 -126 143c-73 0 -142 -51 -145 -142v-320h-93zM256 -204v99h94v-99h-94z" />
    <glyph glyph-name="uni1E48" unicode="&#x1e48;" horiz-adv-x="741" 
d="M647 755v-755h-93l-367 589v-589h-93v755h93l367 -585v585h93zM238 -189v68h265v-68h-265z" />
    <glyph glyph-name="uni1E49" unicode="&#x1e49;" horiz-adv-x="610" 
d="M79 0v535h93v-67c37 50 93 81 168 81c135 0 196 -83 196 -223v-326h-93v319c0 102 -61 143 -126 143c-75 0 -145 -53 -145 -149v-313h-93zM172 -189v68h265v-68h-265z" />
    <glyph glyph-name="uni1E56" unicode="&#x1e56;" horiz-adv-x="635" 
d="M602 526c0 -140 -81 -243 -247 -243h-163v-283h-98v755h257c172 0 251 -105 251 -229zM339 667h-147v-298h158c120 0 151 74 151 148c0 102 -53 150 -162 150zM279 846v99h94v-99h-94z" />
    <glyph glyph-name="uni1E57" unicode="&#x1e57;" 
d="M79 -222v757h93v-70c35 50 90 84 165 84c145 0 218 -108 218 -249v-66c0 -152 -75 -249 -218 -249c-77 0 -130 40 -165 94v-301h-93zM322 467c-72 0 -140 -63 -150 -142v-96c0 -80 67 -162 152 -162c86 0 138 60 138 162v76c0 102 -54 162 -140 162zM276 636v99h94v-99
h-94z" />
    <glyph glyph-name="uni1E58" unicode="&#x1e58;" horiz-adv-x="671" 
d="M602 546c0 -103 -44 -174 -132 -206l166 -340h-116l-146 323h-182v-323h-98v755h257c172 0 251 -85 251 -209zM339 667h-147v-258h158c120 0 151 54 151 128c0 102 -53 130 -162 130zM261 846v99h94v-99h-94z" />
    <glyph glyph-name="uni1E59" unicode="&#x1e59;" horiz-adv-x="362" 
d="M79 0v535h93v-80c37 55 92 94 167 94v-89c-7 1 -14 2 -22 2c-73 0 -142 -70 -145 -162v-300h-93zM183 636v99h94v-99h-94z" />
    <glyph glyph-name="uni1E5A" unicode="&#x1e5a;" horiz-adv-x="671" 
d="M602 546c0 -103 -44 -174 -132 -206l166 -340h-116l-146 323h-182v-323h-98v755h257c172 0 251 -85 251 -209zM339 667h-147v-258h158c120 0 151 54 151 128c0 102 -53 130 -162 130zM292 -209v109h99v-109h-99z" />
    <glyph glyph-name="uni1E5B" unicode="&#x1e5b;" horiz-adv-x="362" 
d="M79 0v535h93v-80c37 55 92 94 167 94v-89c-7 1 -14 2 -22 2c-73 0 -142 -70 -145 -162v-300h-93zM80 -209v109h99v-109h-99z" />
    <glyph glyph-name="uni1E5C" unicode="&#x1e5c;" horiz-adv-x="671" 
d="M602 546c0 -103 -44 -174 -132 -206l166 -340h-116l-146 323h-182v-323h-98v755h257c172 0 251 -85 251 -209zM339 667h-147v-258h158c120 0 151 54 151 128c0 102 -53 130 -162 130zM176 858v68h300v-68h-300zM292 -209v109h99v-109h-99z" />
    <glyph glyph-name="uni1E5D" unicode="&#x1e5d;" horiz-adv-x="362" 
d="M79 0v535h93v-80c37 55 92 94 167 94v-89c-7 1 -14 2 -22 2c-75 0 -145 -73 -145 -169v-293h-93zM86 658v68h265v-68h-265zM80 -209v109h99v-109h-99z" />
    <glyph glyph-name="uni1E5E" unicode="&#x1e5e;" horiz-adv-x="671" 
d="M602 546c0 -103 -44 -174 -132 -206l166 -340h-116l-146 323h-182v-323h-98v755h257c172 0 251 -85 251 -209zM339 667h-147v-258h158c120 0 151 54 151 128c0 102 -53 130 -162 130zM224 -189v68h265v-68h-265z" />
    <glyph glyph-name="uni1E5F" unicode="&#x1e5f;" horiz-adv-x="362" 
d="M79 0v535h93v-80c37 55 92 94 167 94v-89c-7 1 -14 2 -22 2c-73 0 -142 -70 -145 -162v-300h-93zM1 -189v68h265v-68h-265z" />
    <glyph glyph-name="uni1E60" unicode="&#x1e60;" horiz-adv-x="614" 
d="M263 846v99h94v-99h-94zM62 47v101c70 -45 146 -75 236 -75c105 0 170 54 170 135c0 88 -42 116 -162 130l-50 6c-119 14 -198 83 -198 209c0 136 115 214 258 214c95 0 159 -21 214 -58v-101c-65 45 -132 74 -211 74c-105 0 -162 -43 -162 -131c0 -84 32 -108 145 -122
l50 -6c125 -15 216 -67 216 -208c0 -147 -121 -226 -278 -226c-87 0 -155 18 -228 58z" />
    <glyph glyph-name="uni1E61" unicode="&#x1e61;" horiz-adv-x="516" 
d="M58 27v92c61 -30 120 -52 190 -52c78 0 132 24 132 82c0 57 -47 79 -112 82l-53 4c-84 5 -164 38 -164 156c0 102 98 159 203 159c82 0 148 -16 194 -41v-93c-60 34 -133 50 -184 50c-78 0 -124 -26 -124 -80c0 -58 59 -68 112 -72l60 -5c90 -7 159 -44 159 -154
c0 -119 -124 -169 -227 -169c-58 0 -140 16 -186 41zM210 636v99h94v-99h-94z" />
    <glyph glyph-name="uni1E62" unicode="&#x1e62;" horiz-adv-x="614" 
d="M248 -209v109h99v-109h-99zM62 47v101c70 -45 146 -75 236 -75c105 0 170 54 170 135c0 88 -42 116 -162 130l-50 6c-119 14 -198 83 -198 209c0 136 115 214 258 214c95 0 159 -21 214 -58v-101c-65 45 -132 74 -211 74c-105 0 -162 -43 -162 -131
c0 -84 32 -108 145 -122l50 -6c125 -15 216 -67 216 -208c0 -147 -121 -226 -278 -226c-87 0 -155 18 -228 58z" />
    <glyph glyph-name="uni1E63" unicode="&#x1e63;" horiz-adv-x="516" 
d="M58 27v92c61 -30 120 -52 190 -52c78 0 132 24 132 82c0 57 -47 79 -112 82l-53 4c-84 5 -164 38 -164 156c0 102 98 159 203 159c82 0 148 -16 194 -41v-93c-60 34 -133 50 -184 50c-78 0 -124 -26 -124 -80c0 -58 59 -68 112 -72l60 -5c90 -7 159 -44 159 -154
c0 -119 -124 -169 -227 -169c-58 0 -140 16 -186 41zM205 -209v109h99v-109h-99z" />
    <glyph glyph-name="uni1E6A" unicode="&#x1e6a;" horiz-adv-x="614" 
d="M601 755v-91h-240v-664h-98v664h-250v91h588zM268 846v99h94v-99h-94z" />
    <glyph glyph-name="uni1E6B" unicode="&#x1e6b;" horiz-adv-x="394" 
d="M24 456v79h95v165h93v-165h140v-79h-140v-275c0 -80 19 -113 85 -113c20 0 54 3 69 8v-81c-17 -5 -44 -10 -76 -10c-123 0 -171 74 -171 190v281h-95zM119 776v99h94v-99h-94z" />
    <glyph glyph-name="uni1E6C" unicode="&#x1e6c;" horiz-adv-x="614" 
d="M601 755v-91h-240v-664h-98v664h-250v91h588zM264 -209v109h99v-109h-99z" />
    <glyph glyph-name="uni1E6D" unicode="&#x1e6d;" horiz-adv-x="394" 
d="M24 456v79h95v165h93v-165h140v-79h-140v-275c0 -80 19 -113 85 -113c20 0 54 3 69 8v-81c-17 -5 -44 -10 -76 -10c-123 0 -171 74 -171 190v281h-95zM181 -209v109h99v-109h-99z" />
    <glyph glyph-name="uni1E6E" unicode="&#x1e6e;" horiz-adv-x="614" 
d="M601 755v-91h-240v-664h-98v664h-250v91h588zM176 -189v68h265v-68h-265z" />
    <glyph glyph-name="uni1E6F" unicode="&#x1e6f;" horiz-adv-x="394" 
d="M24 456v79h95v165h93v-165h140v-79h-140v-275c0 -80 19 -113 85 -113c20 0 54 3 69 8v-81c-17 -5 -44 -10 -76 -10c-123 0 -171 74 -171 190v281h-95zM110 -189v68h265v-68h-265z" />
    <glyph glyph-name="uni1E7C" unicode="&#x1e7c;" horiz-adv-x="657" 
d="M644 755l-266 -755h-107l-251 755h110l199 -637l211 637h104zM278 868c-26 0 -56 -19 -80 -35v66c18 17 47 40 80 40c43 0 94 -41 133 -41c26 0 53 18 76 34v-64c-18 -20 -49 -41 -79 -41c-42 0 -93 41 -130 41z" />
    <glyph glyph-name="uni1E7D" unicode="&#x1e7d;" horiz-adv-x="553" 
d="M534 535l-204 -535h-108l-203 535h101l157 -440l161 440h96zM220 677c-26 0 -56 -19 -80 -35v66c18 17 47 40 80 40c43 0 94 -41 133 -41c26 0 53 18 76 34v-64c-18 -20 -49 -41 -79 -41c-42 0 -93 41 -130 41z" />
    <glyph glyph-name="uni1E7E" unicode="&#x1e7e;" horiz-adv-x="657" 
d="M644 755l-266 -755h-107l-251 755h110l199 -637l211 637h104zM277 -209v109h99v-109h-99z" />
    <glyph glyph-name="uni1E7F" unicode="&#x1e7f;" horiz-adv-x="553" 
d="M534 535l-204 -535h-108l-203 535h101l157 -440l161 440h96zM225 -209v109h99v-109h-99z" />
    <glyph glyph-name="Wgrave" unicode="&#x1e80;" horiz-adv-x="985" 
d="M967 755l-204 -755h-103l-87 289l-84 303l-86 -303l-90 -289h-105l-177 755h106l131 -622l179 622h98l168 -624l150 624h104zM374 960h89l77 -133h-78z" />
    <glyph glyph-name="wgrave" unicode="&#x1e81;" horiz-adv-x="855" 
d="M832 535l-164 -535h-106l-132 398l-136 -398h-108l-163 535h101l120 -437l142 437h90l138 -431l122 431h96zM297 775h89l88 -153h-78z" />
    <glyph glyph-name="Wacute" unicode="&#x1e82;" horiz-adv-x="985" 
d="M967 755l-204 -755h-103l-87 289l-84 303l-86 -303l-90 -289h-105l-177 755h106l131 -622l179 622h98l168 -624l150 624h104zM545 960h89l-88 -133h-78z" />
    <glyph glyph-name="wacute" unicode="&#x1e83;" horiz-adv-x="855" 
d="M832 535l-164 -535h-106l-132 398l-136 -398h-108l-163 535h101l120 -437l142 437h90l138 -431l122 431h96zM481 775h89l-99 -153h-78z" />
    <glyph glyph-name="Wdieresis" unicode="&#x1e84;" horiz-adv-x="985" 
d="M967 755l-204 -755h-103l-87 289l-84 303l-86 -303l-90 -289h-105l-177 755h106l131 -622l179 622h98l168 -624l150 624h104zM548 846v99h94v-99h-94zM344 846v99h94v-99h-94z" />
    <glyph glyph-name="wdieresis" unicode="&#x1e85;" horiz-adv-x="855" 
d="M832 535l-164 -535h-106l-132 398l-136 -398h-108l-163 535h101l120 -437l142 437h90l138 -431l122 431h96zM494 636v99h94v-99h-94zM280 636v99h94v-99h-94z" />
    <glyph glyph-name="uni1E86" unicode="&#x1e86;" horiz-adv-x="985" 
d="M967 755l-204 -755h-103l-87 289l-84 303l-86 -303l-90 -289h-105l-177 755h106l131 -622l179 622h98l168 -624l150 624h104zM450 846v99h94v-99h-94z" />
    <glyph glyph-name="uni1E87" unicode="&#x1e87;" horiz-adv-x="855" 
d="M832 535l-164 -535h-106l-132 398l-136 -398h-108l-163 535h101l120 -437l142 437h90l138 -431l122 431h96zM386 636v99h94v-99h-94z" />
    <glyph glyph-name="uni1E88" unicode="&#x1e88;" horiz-adv-x="985" 
d="M967 755l-204 -755h-103l-87 289l-84 303l-86 -303l-90 -289h-105l-177 755h106l131 -622l179 622h98l168 -624l150 624h104zM442 -209v109h99v-109h-99z" />
    <glyph glyph-name="uni1E89" unicode="&#x1e89;" horiz-adv-x="855" 
d="M832 535l-164 -535h-106l-132 398l-136 -398h-108l-163 535h101l120 -437l142 437h90l138 -431l122 431h96zM379 -209v109h99v-109h-99z" />
    <glyph glyph-name="uni1E8A" unicode="&#x1e8a;" horiz-adv-x="641" 
d="M9 0l254 384l-237 371h116l181 -298l188 298h107l-238 -365l249 -390h-116l-193 315l-200 -315h-111zM276 846v99h94v-99h-94z" />
    <glyph glyph-name="uni1E8B" unicode="&#x1e8b;" horiz-adv-x="512" 
d="M15 0l192 274l-175 261h111l115 -185l124 185h102l-181 -254l192 -281h-111l-132 204l-131 -204h-106zM211 636v99h94v-99h-94z" />
    <glyph glyph-name="uni1E8E" unicode="&#x1e8e;" horiz-adv-x="629" 
d="M610 755l-248 -472v-283h-98v286l-242 469h115l179 -370l190 370h104zM278 846v99h94v-99h-94z" />
    <glyph glyph-name="uni1E8F" unicode="&#x1e8f;" horiz-adv-x="553" 
d="M259 -222h-100l72 200l-210 557h101l157 -440l161 440h96l-204 -535h-1zM236 636v99h94v-99h-94z" />
    <glyph glyph-name="uni1E92" unicode="&#x1e92;" horiz-adv-x="618" 
d="M573 755v-91l-419 -573h419v-91h-527v91l423 573h-423v91h527zM257 -209v109h99v-109h-99z" />
    <glyph glyph-name="uni1E93" unicode="&#x1e93;" horiz-adv-x="513" 
d="M467 535v-65l-312 -388h315v-82h-429v69l307 384h-299v82h418zM200 -209v109h99v-109h-99z" />
    </font>
</defs>
</svg>
