<?xml version="1.0" standalone="no"?>
<!DOCTYPE svg PUBLIC "-//W3C//DTD SVG 1.1//EN" "http://www.w3.org/Graphics/SVG/1.1/DTD/svg11.dtd" >
<svg xmlns="http://www.w3.org/2000/svg" xmlns:xlink="http://www.w3.org/1999/xlink" version="1.1">
<metadata>
Created by FontForge 20201107 at Tue Aug 16 01:11:16 2016
 By Unknown
November is a rational, utilitarian typeface inspired by street signage.
</metadata>
<defs>
<font id="NovemberPro-Blk" horiz-adv-x="661" >
  <font-face 
    font-family="November Pro Blk"
    font-weight="900"
    font-stretch="normal"
    units-per-em="1000"
    panose-1="0 0 0 0 0 0 0 0 0 0"
    ascent="786"
    descent="-214"
    x-height="555"
    cap-height="755"
    bbox="-550 -328 2421 1219"
    underline-thickness="50"
    underline-position="-150"
    stemh="142"
    stemv="193"
    unicode-range="U+0020-1F6CF"
  />
<missing-glyph horiz-adv-x="712" 
d="M80 0v27h27v-27h-27zM80 75v27h27v-27h-27zM80 150v27h27v-27h-27zM80 225v27h27v-27h-27zM80 300v27h27v-27h-27zM80 375v27h27v-27h-27zM80 450v27h27v-27h-27zM80 525v27h27v-27h-27zM80 600v27h27v-27h-27zM80 675v27h27v-27h-27zM155 0v27h27v-27h-27zM155 675v27
h27v-27h-27zM230 0v27h27v-27h-27zM230 525v27h27v-27h-27zM230 675v27h27v-27h-27zM305 0v27h27v-27h-27zM305 150v27h27v-27h-27zM305 300v27h27v-27h-27zM305 375v27h27v-27h-27zM305 525v27h27v-27h-27zM305 675v27h27v-27h-27zM380 0v27h27v-27h-27zM380 375v27h27v-27
h-27zM380 525v27h27v-27h-27zM380 675v27h27v-27h-27zM455 0v27h27v-27h-27zM455 375v27h27v-27h-27zM455 450v27h27v-27h-27zM455 525v27h27v-27h-27zM455 675v27h27v-27h-27zM530 0v27h27v-27h-27zM530 675v27h27v-27h-27zM605 0v27h27v-27h-27zM605 75v27h27v-27h-27z
M605 150v27h27v-27h-27zM605 225v27h27v-27h-27zM605 300v27h27v-27h-27zM605 375v27h27v-27h-27zM605 450v27h27v-27h-27zM605 525v27h27v-27h-27zM605 600v27h27v-27h-27zM605 675v27h27v-27h-27z" />
    <glyph glyph-name="uni301A" unicode="[[" horiz-adv-x="610" 
d="M67 -207v1138h513v-133h-90v-872h90v-133h-513zM240 798v-872h77v872h-77z" />
    <glyph glyph-name="uni301B" unicode="]]" horiz-adv-x="610" 
d="M543 931v-1138h-513v133h90v872h-90v133h513zM293 798v-872h77v872h-77z" />
    <glyph glyph-name="fi" unicode="fi" horiz-adv-x="725" 
d="M31 413v142h65v37c0 119 82 178 195 178c34 0 88 -4 119 -12v-133c-18 3 -36 6 -51 6c-43 0 -70 -6 -70 -60v-16h110v-142h-110v-413h-193v413h-65zM473 0v555h193v-555h-193zM473 623v155h193v-155h-193z" />
    <glyph glyph-name="fl" unicode="fl" horiz-adv-x="777" 
d="M31 413v142h65v37c0 119 82 178 195 178c34 0 88 -4 119 -12v-133c-18 3 -36 6 -51 6c-43 0 -70 -6 -70 -60v-16h110v-142h-110v-413h-193v413h-65zM473 145v610h193v-533c0 -62 10 -82 53 -82c19 0 37 3 48 8v-151c-31 -8 -75 -12 -109 -12c-99 0 -185 41 -185 160z" />
    <glyph glyph-name="dblparenleft" unicode="&#x28;&#x28;" horiz-adv-x="615" 
d="M61 13v698c0 105 65 220 193 220h70v-133h-10c-58 0 -80 -43 -80 -103v-666c0 -60 22 -103 80 -103h10v-133h-70c-153 0 -193 115 -193 220zM321 13v698c0 105 65 220 193 220h70v-133h-10c-58 0 -80 -43 -80 -103v-666c0 -60 22 -103 80 -103h10v-133h-70
c-153 0 -193 115 -193 220z" />
    <glyph glyph-name="dblparenright" unicode="&#x29;&#x29;" horiz-adv-x="615" 
d="M554 711v-698c0 -105 -40 -220 -193 -220h-70v133h10c58 0 80 43 80 103v666c0 60 -22 103 -80 103h-10v133h70c128 0 193 -115 193 -220zM294 711v-698c0 -105 -40 -220 -193 -220h-70v133h10c58 0 80 43 80 103v666c0 60 -22 103 -80 103h-10v133h70
c128 0 193 -115 193 -220z" />
    <glyph glyph-name="f_igrave" unicode="f&#xec;" horiz-adv-x="711" 
d="M31 413v142h65v37c0 119 82 178 195 178c34 0 88 -4 119 -12v-133c-18 3 -36 6 -51 6c-43 0 -70 -6 -70 -60v-16h110v-142h-110v-413h-193v413h-65zM459 0v555h193v-555h-193zM412 775h159l88 -153h-148z" />
    <glyph glyph-name="f_idieresis" unicode="f&#xef;" horiz-adv-x="711" 
d="M31 413v142h65v37c0 119 82 178 195 178c34 0 88 -4 119 -12v-133c-18 3 -36 6 -51 6c-43 0 -70 -6 -70 -60v-16h110v-142h-110v-413h-193v413h-65zM459 0v555h193v-555h-193zM440 616v149h144v-149h-144zM614 616v149h144v-149h-144z" />
    <glyph glyph-name=".notdef" horiz-adv-x="712" 
d="M80 0v27h27v-27h-27zM80 75v27h27v-27h-27zM80 150v27h27v-27h-27zM80 225v27h27v-27h-27zM80 300v27h27v-27h-27zM80 375v27h27v-27h-27zM80 450v27h27v-27h-27zM80 525v27h27v-27h-27zM80 600v27h27v-27h-27zM80 675v27h27v-27h-27zM155 0v27h27v-27h-27zM155 675v27
h27v-27h-27zM230 0v27h27v-27h-27zM230 525v27h27v-27h-27zM230 675v27h27v-27h-27zM305 0v27h27v-27h-27zM305 150v27h27v-27h-27zM305 300v27h27v-27h-27zM305 375v27h27v-27h-27zM305 525v27h27v-27h-27zM305 675v27h27v-27h-27zM380 0v27h27v-27h-27zM380 375v27h27v-27
h-27zM380 525v27h27v-27h-27zM380 675v27h27v-27h-27zM455 0v27h27v-27h-27zM455 375v27h27v-27h-27zM455 450v27h27v-27h-27zM455 525v27h27v-27h-27zM455 675v27h27v-27h-27zM530 0v27h27v-27h-27zM530 675v27h27v-27h-27zM605 0v27h27v-27h-27zM605 75v27h27v-27h-27z
M605 150v27h27v-27h-27zM605 225v27h27v-27h-27zM605 300v27h27v-27h-27zM605 375v27h27v-27h-27zM605 450v27h27v-27h-27zM605 525v27h27v-27h-27zM605 600v27h27v-27h-27zM605 675v27h27v-27h-27z" />
    <glyph glyph-name="space" unicode=" " horiz-adv-x="220" 
 />
    <glyph glyph-name="exclam" unicode="!" horiz-adv-x="316" 
d="M247 267h-178v488h178v-488zM69 0v164h178v-164h-178z" />
    <glyph glyph-name="quotedbl" unicode="&#x22;" horiz-adv-x="497" 
d="M231 755l-16 -267h-153l-16 267h185zM451 755l-16 -267h-153l-16 267h185z" />
    <glyph glyph-name="numbersign" unicode="#" horiz-adv-x="642" 
d="M314 0l21 163h-81l-21 -163h-149l21 163h-68v139h86l21 158h-69v139h87l21 156h148l-21 -156h82l21 156h148l-21 -156h65v-139h-83l-20 -158h65v-139h-83l-21 -163h-149zM292 460l-20 -158h81l21 158h-82z" />
    <glyph glyph-name="dollar" unicode="$" horiz-adv-x="640" 
d="M55 43v181c63 -40 138 -63 210 -69v143l-44 6c-133 19 -183 99 -183 217c0 155 101 223 227 241v103h113v-98c66 -4 156 -17 202 -49v-181c-56 39 -135 60 -202 65v-143l30 -4c148 -20 200 -117 200 -225c0 -151 -103 -217 -230 -235v-117h-113v112
c-72 3 -146 18 -210 53zM410 221c0 28 -10 45 -32 55v-113c21 10 32 28 32 58zM235 538c0 -26 11 -44 30 -56v106c-20 -11 -30 -27 -30 -50z" />
    <glyph glyph-name="percent" unicode="%" horiz-adv-x="976" 
d="M203 0l403 755h167l-402 -755h-168zM420 585v-78c0 -120 -88 -179 -196 -179c-107 0 -195 57 -195 179v78c0 121 88 185 195 185c108 0 196 -64 196 -185zM287 510v76c0 40 -17 72 -63 72c-45 0 -62 -32 -62 -72v-76c0 -38 17 -70 62 -70c46 0 63 32 63 70zM947 243v-78
c0 -120 -88 -179 -196 -179c-107 0 -195 57 -195 179v78c0 121 88 185 195 185c108 0 196 -64 196 -185zM814 168v76c0 40 -17 72 -63 72c-45 0 -62 -32 -62 -72v-76c0 -38 17 -70 62 -70c46 0 63 32 63 70z" />
    <glyph glyph-name="ampersand" unicode="&#x26;" horiz-adv-x="783" 
d="M187 391l-20 21c-57 60 -71 107 -71 154c0 138 120 203 257 203c148 0 239 -75 239 -178c0 -74 -48 -138 -159 -200l-12 -7l119 -126c23 40 37 88 38 141h172c0 -87 -41 -178 -107 -252l138 -147h-220l-43 45c-66 -38 -141 -60 -219 -60c-125 0 -267 58 -267 204
c0 75 37 139 129 188zM221 221c0 -46 41 -88 117 -88c28 0 55 5 80 16l-146 152c-35 -20 -51 -51 -51 -80zM339 472l18 10c35 18 57 53 57 92s-23 63 -70 63c-57 0 -69 -35 -69 -60c0 -33 23 -61 55 -95z" />
    <glyph glyph-name="quotesingle" unicode="'" horiz-adv-x="277" 
d="M231 755l-16 -267h-153l-16 267h185z" />
    <glyph glyph-name="parenleft" unicode="(" horiz-adv-x="355" 
d="M234 695v-666c0 -60 22 -103 80 -103h10v-133h-70c-153 0 -193 115 -193 220v698c0 105 65 220 193 220h70v-133h-10c-58 0 -80 -43 -80 -103z" />
    <glyph glyph-name="parenright" unicode=")" horiz-adv-x="355" 
d="M294 711v-698c0 -105 -40 -220 -193 -220h-70v133h10c58 0 80 43 80 103v666c0 60 -22 103 -80 103h-10v133h70c128 0 193 -115 193 -220z" />
    <glyph glyph-name="asterisk" unicode="*" horiz-adv-x="506" 
d="M79 676l105 -37v116h134v-118l111 38l48 -113l-112 -46l81 -103l-105 -76l-91 111l-88 -111l-105 77l83 102l-108 43z" />
    <glyph glyph-name="plus" unicode="+" horiz-adv-x="506" 
d="M36 318v139h148v147h139v-147h147v-139h-147v-148h-139v148h-148z" />
    <glyph glyph-name="comma" unicode="," horiz-adv-x="297" 
d="M21 -125l49 297h180l-56 -297h-173z" />
    <glyph glyph-name="hyphen" unicode="&#xad;" horiz-adv-x="398" 
d="M55 197v139h288v-139h-288z" />
    <glyph glyph-name="hyphen" unicode="-" horiz-adv-x="398" 
d="M55 197v139h288v-139h-288z" />
    <glyph glyph-name="period" unicode="." horiz-adv-x="305" 
d="M56 0v188h193v-188h-193z" />
    <glyph glyph-name="slash" unicode="/" horiz-adv-x="546" 
d="M20 -163l347 961h158l-346 -961h-159z" />
    <glyph glyph-name="zero" unicode="0" horiz-adv-x="662" 
d="M48 298v162c0 218 110 309 293 309c187 0 272 -96 272 -309v-162c0 -227 -107 -313 -284 -313s-281 86 -281 313zM246 467v-176c0 -102 12 -136 86 -136c66 0 83 28 83 136v176c0 89 -10 132 -87 132c-63 0 -82 -29 -82 -132z" />
    <glyph glyph-name="one" unicode="1" horiz-adv-x="439" 
d="M25 464v191l175 100h168v-755h-198v539z" />
    <glyph glyph-name="two" unicode="2" horiz-adv-x="607" 
d="M229 594c-54 0 -114 -14 -178 -46v175c62 34 140 47 214 47c166 0 285 -67 285 -218c0 -92 -43 -162 -116 -237l-147 -150h282v-165h-526v140l244 258c41 43 60 80 60 118c0 57 -42 78 -118 78z" />
    <glyph glyph-name="three" unicode="3" horiz-adv-x="597" 
d="M287 769c179 0 256 -98 256 -205c0 -88 -53 -138 -120 -166c79 -26 132 -84 132 -182c0 -124 -83 -231 -301 -231c-61 0 -146 9 -208 44v177c79 -39 128 -50 190 -50c90 0 121 25 121 79c0 57 -35 75 -125 75h-61v145h60c87 0 121 35 121 79c0 30 -16 66 -106 66
c-48 0 -124 -11 -190 -58v175c63 34 155 52 231 52z" />
    <glyph glyph-name="four" unicode="4" horiz-adv-x="617" 
d="M344 0v131h-319v159l204 465h200l-205 -466h120v158h187v-158h62v-158h-62v-131h-187z" />
    <glyph glyph-name="five" unicode="5" horiz-adv-x="596" 
d="M561 251c0 -184 -133 -264 -300 -264c-85 0 -149 9 -208 39v170c69 -32 126 -40 187 -40c84 0 123 26 123 87c0 71 -55 84 -129 84c-62 0 -126 -13 -169 -34v462h465v-171h-294v-97c18 3 37 4 60 4c193 0 265 -109 265 -240z" />
    <glyph glyph-name="six" unicode="6" horiz-adv-x="623" 
d="M604 240c0 -145 -108 -255 -289 -255c-185 0 -286 116 -286 249c0 79 45 162 96 260l134 261h211l-142 -266h34c149 -7 242 -106 242 -249zM404 244c0 50 -26 101 -88 101c-63 0 -86 -51 -86 -104c0 -67 41 -96 88 -96c63 0 86 54 86 99z" />
    <glyph glyph-name="seven" unicode="7" horiz-adv-x="545" 
d="M283 0h-202l233 584h-292v171h506v-123z" />
    <glyph glyph-name="eight" unicode="8" horiz-adv-x="654" 
d="M615 223c0 -139 -107 -238 -289 -238c-185 0 -286 102 -286 240c0 83 37 138 101 170c-52 35 -81 87 -81 154c0 108 75 220 268 220c196 0 264 -116 264 -219c0 -68 -31 -120 -82 -154c65 -31 105 -87 105 -173zM415 236c0 39 -26 87 -88 87c-63 0 -86 -48 -86 -91
c0 -57 41 -87 88 -87c64 0 86 56 86 91zM402 536c0 53 -32 72 -75 72c-51 0 -77 -26 -77 -73c0 -57 39 -76 78 -76c47 0 74 28 74 77z" />
    <glyph glyph-name="nine" unicode="9" horiz-adv-x="622" 
d="M19 516c0 145 108 255 289 255c185 0 286 -126 286 -259c0 -79 -45 -152 -96 -250l-134 -261h-211l142 266h-32c-150 7 -244 105 -244 249zM219 512c0 -50 26 -101 88 -101c63 0 86 51 86 104c0 67 -41 96 -88 96c-63 0 -86 -54 -86 -99z" />
    <glyph glyph-name="colon" unicode=":" horiz-adv-x="303" 
d="M55 0v188h193v-188h-193zM55 425v188h193v-188h-193z" />
    <glyph glyph-name="semicolon" unicode=";" horiz-adv-x="320" 
d="M29 -125l49 297h180l-56 -297h-173zM73 425v188h193v-188h-193z" />
    <glyph glyph-name="less" unicode="&#x3c;" horiz-adv-x="496" 
d="M431 97l-401 223v124l401 228v-171l-214 -114l214 -107v-183z" />
    <glyph glyph-name="equal" unicode="=" horiz-adv-x="580" 
d="M58 448v139h464v-139h-464zM58 198v139h464v-139h-464z" />
    <glyph glyph-name="greater" unicode="&#x3e;" horiz-adv-x="496" 
d="M466 320l-401 -223v183l213 107l-213 114v171l401 -228v-124z" />
    <glyph glyph-name="question" unicode="?" horiz-adv-x="589" 
d="M192 0v164h178v-164h-178zM561 556c0 -178 -196 -183 -196 -301v-18h-173v28c0 178 177 176 177 291c0 41 -23 65 -78 65c-71 0 -99 -39 -99 -94v-22h-164v20c0 172 119 244 267 244c156 0 266 -80 266 -213z" />
    <glyph glyph-name="at" unicode="@" horiz-adv-x="811" 
d="M755 100h-173v49c-27 -42 -68 -63 -132 -63c-107 0 -176 58 -176 161c0 101 66 159 208 159h100c0 103 -69 131 -166 131c-153 0 -195 -70 -195 -155v-235c0 -132 68 -177 174 -177h116v-138h-140c-165 0 -323 78 -323 318v237c0 167 136 292 363 292
c195 0 344 -92 344 -229v-350zM509 207c36 0 62 10 73 51v46h-56c-62 0 -80 -17 -80 -49c0 -33 19 -48 63 -48z" />
    <glyph glyph-name="A" unicode="A" horiz-adv-x="709" 
d="M-15 0l272 755h207l248 -755h-220l-36 128h-233l-39 -128h-199zM345 522l-76 -246h145z" />
    <glyph glyph-name="B" unicode="B" horiz-adv-x="703" 
d="M407 0h-336v755h329c172 0 251 -76 251 -197c0 -84 -38 -130 -111 -160c75 -26 119 -88 119 -184c0 -113 -61 -214 -252 -214zM379 304h-115v-143h112c52 0 83 21 83 69c0 51 -34 74 -80 74zM368 596h-104v-143h107c51 0 69 30 69 68c0 41 -21 75 -72 75z" />
    <glyph glyph-name="C" unicode="C" horiz-adv-x="627" 
d="M589 727v-183c-43 37 -128 54 -190 54c-115 0 -158 -58 -158 -171v-106c0 -132 66 -165 162 -165c40 0 131 6 184 39v-173c-50 -27 -150 -37 -210 -37c-204 0 -334 116 -334 343v92c0 227 129 349 336 349c75 0 174 -17 210 -42z" />
    <glyph glyph-name="D" unicode="D" horiz-adv-x="731" 
d="M374 755c185 0 313 -108 313 -335v-92c0 -227 -128 -328 -313 -328h-303v755h303zM374 586h-105v-415h105c81 0 115 36 115 150v106c0 86 -22 159 -115 159z" />
    <glyph glyph-name="E" unicode="E" horiz-adv-x="652" 
d="M611 161v-161h-540v755h526v-161h-328v-135h290v-161h-290v-137h342z" />
    <glyph glyph-name="F" unicode="F" horiz-adv-x="627" 
d="M559 429v-161h-290v-268h-198v755h526v-161h-328v-165h290z" />
    <glyph glyph-name="G" unicode="G" horiz-adv-x="719" 
d="M668 446v-409c-82 -37 -165 -52 -265 -52c-191 0 -359 81 -359 343v92c0 260 174 349 363 349c87 0 158 -14 233 -47v-174c-73 40 -135 51 -212 51c-106 0 -186 -37 -186 -172v-106c0 -134 78 -165 165 -165c25 0 44 1 63 4v125h-103v161h301z" />
    <glyph glyph-name="H" unicode="H" horiz-adv-x="801" 
d="M730 755v-755h-198v308h-263v-308h-198v755h198v-276h263v276h198z" />
    <glyph glyph-name="I" unicode="I" horiz-adv-x="340" 
d="M269 755v-755h-198v755h198z" />
    <glyph glyph-name="J" unicode="J" horiz-adv-x="526" 
d="M261 230v354h-215v171h413v-560c0 -140 -121 -210 -252 -210c-67 0 -131 19 -162 34v157c27 -10 78 -24 127 -24c62 0 89 23 89 78z" />
    <glyph glyph-name="K" unicode="K" horiz-adv-x="709" 
d="M269 755v-296h58l163 296h210l-202 -356l206 -399h-227l-137 298h-71v-298h-198v755h198z" />
    <glyph glyph-name="L" unicode="L" horiz-adv-x="574" 
d="M561 161v-161h-490v755h198v-594h292z" />
    <glyph glyph-name="M" unicode="M" horiz-adv-x="876" 
d="M357 190l-105 227l7 -212v-205h-188v755h188l181 -365l177 365h188v-755h-188v195l7 231l-110 -236h-157z" />
    <glyph glyph-name="N" unicode="N" horiz-adv-x="795" 
d="M536 0l-282 444l5 -185v-259h-188v755h188l282 -444l-5 200v244h188v-755h-188z" />
    <glyph glyph-name="O" unicode="O" horiz-adv-x="733" 
d="M44 318v112c0 227 137 339 322 339s323 -113 323 -339v-112c0 -226 -138 -333 -323 -333s-322 106 -322 333zM242 437v-126c0 -81 17 -166 123 -166c108 0 126 84 126 166v126c0 88 -12 172 -126 172c-102 0 -123 -84 -123 -172z" />
    <glyph glyph-name="P" unicode="P" horiz-adv-x="681" 
d="M658 486c0 -153 -108 -264 -274 -264h-115v-222h-198v755h309c172 0 278 -118 278 -269zM336 591h-67v-207h67c82 0 124 27 124 102c0 76 -33 105 -124 105z" />
    <glyph glyph-name="Q" unicode="Q" horiz-adv-x="733" 
d="M44 318v112c0 227 137 339 322 339s323 -113 323 -339v-112c0 -150 -61 -248 -156 -296l42 -107h-128l-28 73c-17 -2 -35 -3 -53 -3c-185 0 -322 106 -322 333zM302 291h127l37 -97c20 32 25 74 25 117v126c0 88 -12 172 -126 172c-102 0 -123 -84 -123 -172v-126
c0 -80 16 -163 116 -166z" />
    <glyph glyph-name="R" unicode="R" horiz-adv-x="701" 
d="M658 503c0 -88 -38 -173 -111 -221l122 -282h-216l-95 242h-89v-242h-198v755h329c172 0 258 -121 258 -252zM325 596h-56v-197h67c82 0 124 25 124 100c0 76 -44 97 -135 97z" />
    <glyph glyph-name="S" unicode="S" horiz-adv-x="647" 
d="M58 43v181c76 -48 170 -71 253 -71c70 0 102 16 102 68c0 45 -25 60 -82 68l-107 15c-133 19 -183 99 -183 217c0 185 145 247 302 247c65 0 185 -11 240 -50v-181c-63 44 -155 66 -227 66c-79 0 -118 -19 -118 -65c0 -43 30 -64 77 -70l96 -13
c148 -20 200 -117 200 -225c0 -183 -151 -241 -313 -241c-80 0 -167 14 -240 54z" />
    <glyph glyph-name="T" unicode="T" horiz-adv-x="646" 
d="M632 755v-161h-210v-594h-198v594h-210v161h618z" />
    <glyph glyph-name="U" unicode="U" horiz-adv-x="763" 
d="M501 755h198v-457c0 -227 -136 -313 -321 -313s-314 86 -314 313v457h199v-434c0 -114 24 -167 117 -167c68 0 121 29 121 167v434z" />
    <glyph glyph-name="V" unicode="V" horiz-adv-x="708" 
d="M724 755l-273 -755h-207l-247 755h220l143 -521l154 521h210z" />
    <glyph glyph-name="W" unicode="W" horiz-adv-x="1061" 
d="M1068 755l-209 -755h-197l-77 266l-52 212l-57 -208l-82 -270h-197l-199 755h210l101 -517l135 517h189l136 -516l100 516h199z" />
    <glyph glyph-name="X" unicode="X" horiz-adv-x="693" 
d="M-6 0l241 382l-224 373h208l133 -235l128 235h204l-224 -369l237 -386h-218l-132 247l-139 -247h-214z" />
    <glyph glyph-name="Y" unicode="Y" 
d="M666 755l-233 -487v-268h-198v265l-252 490h205l151 -318l133 318h194z" />
    <glyph glyph-name="Z" unicode="Z" horiz-adv-x="656" 
d="M614 755v-161l-356 -433h356v-161h-577v161l355 433h-345v161h567z" />
    <glyph glyph-name="bracketleft" unicode="[" horiz-adv-x="360" 
d="M67 -207v1138h263v-133h-90v-872h90v-133h-263z" />
    <glyph glyph-name="backslash" unicode="\" horiz-adv-x="546" 
d="M179 798l347 -961h-159l-346 961h158z" />
    <glyph glyph-name="bracketright" unicode="]" horiz-adv-x="360" 
d="M293 931v-1138h-263v133h90v872h-90v133h263z" />
    <glyph glyph-name="asciicircum" unicode="^" horiz-adv-x="606" 
d="M578 397h-195l-85 169l-86 -169h-184l185 358h174z" />
    <glyph glyph-name="underscore" unicode="_" horiz-adv-x="482" 
d="M461 -169h-440v110h440v-110z" />
    <glyph glyph-name="grave" unicode="`" horiz-adv-x="500" 
d="M178 775h159l88 -153h-148z" />
    <glyph glyph-name="a" unicode="a" horiz-adv-x="614" 
d="M560 0h-193v61c-29 -52 -74 -76 -148 -76c-112 0 -186 67 -186 166c0 117 70 176 222 176h111c-5 53 -24 70 -100 70c-68 0 -131 -13 -203 -55v167c65 40 148 60 240 60c163 0 257 -62 257 -214v-355zM283 114c48 0 81 17 84 93v11h-65c-68 0 -85 -18 -85 -55
c0 -33 22 -49 66 -49z" />
    <glyph glyph-name="b" unicode="b" horiz-adv-x="660" 
d="M59 0v755h193v-253c30 42 76 67 145 67c145 0 223 -78 223 -249v-86c0 -182 -80 -249 -223 -249c-70 0 -115 25 -145 68v-53h-193zM332 427c-48 0 -80 -23 -80 -101v-107c2 -63 29 -92 82 -92c51 0 83 30 83 102v96c0 72 -32 102 -85 102z" />
    <glyph glyph-name="c" unicode="c" horiz-adv-x="548" 
d="M333 569c40 0 112 -4 177 -37v-151c-58 30 -116 38 -159 38c-68 0 -111 -29 -111 -108v-74c0 -72 45 -102 114 -102c47 0 100 9 151 37v-145c-45 -29 -102 -42 -180 -42c-201 0 -287 89 -287 259v66c0 172 107 259 295 259z" />
    <glyph glyph-name="d" unicode="d" horiz-adv-x="659" 
d="M407 504v251h193v-755h-193v53c-30 -43 -75 -68 -144 -68c-143 0 -223 67 -223 249v86c0 171 78 249 223 249c68 0 114 -24 144 -65zM328 427c-53 0 -85 -30 -85 -102v-96c0 -72 32 -102 83 -102c55 0 81 32 81 102v119c-6 60 -36 79 -79 79z" />
    <glyph glyph-name="e" unicode="e" horiz-adv-x="613" 
d="M574 216h-337c9 -64 47 -79 123 -79c65 0 124 5 204 39v-137c-76 -42 -144 -54 -242 -54c-201 0 -284 91 -284 259v66c0 172 105 259 267 259s269 -87 269 -259v-94zM305 427c-45 0 -67 -29 -70 -98h141c-2 69 -20 98 -71 98z" />
    <glyph glyph-name="f" unicode="f" horiz-adv-x="414" 
d="M31 413v142h65v37c0 119 82 178 195 178c34 0 88 -4 119 -12v-133c-18 3 -36 6 -51 6c-43 0 -70 -6 -70 -60v-16h110v-142h-110v-413h-193v413h-65z" />
    <glyph glyph-name="g" unicode="g" horiz-adv-x="659" 
d="M600 555v-510c0 -200 -137 -279 -331 -279c-107 0 -150 18 -201 38v157c61 -27 131 -39 202 -39c96 0 137 43 137 124v32c-30 -43 -75 -68 -144 -68c-143 0 -223 67 -223 249v61c0 171 78 249 223 249c68 0 114 -24 144 -65v51h193zM328 427c-53 0 -85 -30 -85 -102v-71
c0 -72 32 -102 83 -102c52 0 78 29 81 92v104c-6 60 -36 79 -79 79z" />
    <glyph glyph-name="h" unicode="h" 
d="M59 0v755h193v-274c34 54 84 88 169 88c118 0 185 -73 185 -213v-356h-193v278c0 82 -15 122 -80 122c-62 0 -80 -38 -81 -116v-284h-193z" />
    <glyph glyph-name="i" unicode="i" horiz-adv-x="311" 
d="M59 0v555h193v-555h-193zM59 623v155h193v-155h-193z" />
    <glyph glyph-name="j" unicode="j" horiz-adv-x="319" 
d="M260 555v-575c0 -175 -101 -214 -200 -214c-39 0 -78 5 -102 13v152c20 -4 38 -6 53 -6c34 0 56 16 56 69v561h193zM67 623v155h193v-155h-193z" />
    <glyph glyph-name="k" unicode="k" horiz-adv-x="612" 
d="M59 0v755h193v-408h51l88 208h219l-160 -250l160 -305h-216l-89 206h-53v-206h-193z" />
    <glyph glyph-name="l" unicode="l" horiz-adv-x="360" 
d="M56 145v610h193v-533c0 -62 10 -82 53 -82c19 0 37 3 48 8v-151c-31 -8 -75 -12 -109 -12c-99 0 -185 41 -185 160z" />
    <glyph glyph-name="m" unicode="m" horiz-adv-x="995" 
d="M59 0v555h193v-74c34 54 84 88 169 88s138 -38 161 -112c34 68 86 112 183 112c118 0 175 -73 175 -213v-356h-193v278c0 82 -5 122 -70 122s-81 -42 -81 -128v-272h-193v278c0 82 -5 122 -70 122c-62 0 -80 -38 -81 -116v-284h-193z" />
    <glyph glyph-name="n" unicode="n" 
d="M59 0v555h193v-74c34 54 84 88 169 88c118 0 185 -73 185 -213v-356h-193v278c0 82 -15 122 -80 122c-62 0 -80 -38 -81 -116v-284h-193z" />
    <glyph glyph-name="o" unicode="o" horiz-adv-x="640" 
d="M37 244v66c0 182 120 259 282 259s284 -77 284 -259v-66c0 -182 -122 -259 -284 -259s-282 77 -282 259zM239 305v-56c0 -92 24 -122 80 -122s82 30 82 122v56c0 92 -26 122 -82 122s-80 -30 -80 -122z" />
    <glyph glyph-name="p" unicode="p" horiz-adv-x="660" 
d="M59 -222v777h193v-53c30 42 76 67 145 67c145 0 223 -78 223 -249v-86c0 -182 -90 -249 -233 -249c-62 0 -105 19 -135 53v-260h-193zM332 427c-46 0 -77 -21 -80 -90v-108c0 -70 27 -102 82 -102c51 0 83 30 83 102v96c0 72 -32 102 -85 102z" />
    <glyph glyph-name="q" unicode="q" horiz-adv-x="659" 
d="M407 504v51h193v-777h-193v275c-30 -43 -75 -68 -144 -68c-143 0 -223 67 -223 249v86c0 171 78 249 223 249c68 0 114 -24 144 -65zM328 427c-53 0 -85 -30 -85 -102v-96c0 -72 32 -102 83 -102c55 0 81 32 81 102v119c-6 60 -36 79 -79 79z" />
    <glyph glyph-name="r" unicode="r" horiz-adv-x="440" 
d="M59 0v555h193v-94c33 64 90 108 169 108v-197c-12 2 -24 3 -35 3c-94 0 -131 -63 -134 -171v-204h-193z" />
    <glyph glyph-name="s" unicode="s" horiz-adv-x="565" 
d="M48 31v145c60 -30 142 -47 225 -47c47 0 80 12 80 36c0 23 -14 28 -56 33l-91 11c-87 12 -169 53 -169 168c0 148 137 192 257 192c67 0 161 -14 207 -43v-158c-56 34 -132 60 -208 60c-53 0 -79 -15 -79 -35s10 -28 60 -33l76 -8c115 -11 182 -60 182 -168
c0 -153 -134 -196 -262 -196c-71 0 -162 13 -222 43z" />
    <glyph glyph-name="t" unicode="t" horiz-adv-x="441" 
d="M18 413v142h76v146h193v-146h120v-142h-120v-211c0 -53 27 -60 65 -60c20 0 32 2 56 6v-151c-31 -8 -86 -12 -116 -12c-117 0 -198 59 -198 178v250h-76z" />
    <glyph glyph-name="u" unicode="u" 
d="M602 555v-555h-193v72c-34 -53 -85 -87 -169 -87c-118 0 -185 73 -185 213v357h193v-279c0 -82 15 -122 80 -122c61 0 79 38 81 115v286h193z" />
    <glyph glyph-name="v" unicode="v" horiz-adv-x="605" 
d="M604 555l-204 -555h-191l-212 555h198l113 -357l99 357h197z" />
    <glyph glyph-name="w" unicode="w" horiz-adv-x="856" 
d="M849 555l-136 -555h-197l-87 337l-94 -337h-191l-138 555h182l60 -357l104 357h160l102 -359l58 359h177z" />
    <glyph glyph-name="x" unicode="x" horiz-adv-x="588" 
d="M-1 0l192 279l-181 276h194l92 -146l92 146h180l-171 -259l196 -296h-208l-93 154l-97 -154h-196z" />
    <glyph glyph-name="y" unicode="y" horiz-adv-x="612" 
d="M612 555l-195 -555l-73 -222h-190l70 194l-225 583h201l111 -356l101 356h200z" />
    <glyph glyph-name="z" unicode="z" horiz-adv-x="559" 
d="M520 555v-126l-241 -287h241v-142h-481v126l256 287h-256v142h481z" />
    <glyph glyph-name="braceleft" unicode="{" horiz-adv-x="398" 
d="M108 4v182c0 60 -22 103 -80 103h-10v143h10c58 0 80 43 80 103v178c0 105 49 208 177 208h86v-123h-10c-58 0 -80 -43 -80 -103v-211c0 -51 -28 -94 -68 -127c40 -36 68 -83 68 -139v-188c0 -60 22 -103 80 -103h10v-123h-87c-128 0 -176 95 -176 200z" />
    <glyph glyph-name="bar" unicode="|" horiz-adv-x="294" 
d="M226 798v-891h-158v891h158z" />
    <glyph glyph-name="braceright" unicode="}" horiz-adv-x="398" 
d="M290 186v-182c0 -105 -48 -200 -176 -200h-87v123h10c58 0 80 43 80 103v188c0 56 28 103 67 139c-39 33 -67 76 -67 127v211c0 60 -22 103 -80 103h-10v123h86c128 0 177 -103 177 -208v-178c0 -59 20 -101 75 -103h15v-143h-10c-58 0 -80 -43 -80 -103z" />
    <glyph glyph-name="asciitilde" unicode="~" horiz-adv-x="584" 
d="M188 256c-42 0 -90 -29 -129 -53v152c29 26 76 61 129 61c70 0 152 -62 215 -62c42 0 86 27 123 51v-149c-29 -30 -79 -62 -128 -62c-68 0 -150 62 -210 62z" />
    <glyph glyph-name="exclamdown" unicode="&#xa1;" horiz-adv-x="306" 
d="M64 288h178v-488h-178v488zM64 391v164h178v-164h-178z" />
    <glyph glyph-name="cent" unicode="&#xa2;" horiz-adv-x="563" 
d="M426 658v-97c28 -5 59 -14 89 -29v-151c-31 15 -61 25 -89 31v-271c27 6 56 15 84 31v-145c-24 -16 -52 -27 -84 -33v-117h-128v109c-179 9 -255 97 -255 258v66c0 159 92 245 255 257v91h128zM245 237c0 -48 20 -77 53 -91v263c-34 -14 -53 -45 -53 -98v-74z" />
    <glyph glyph-name="sterling" unicode="&#xa3;" horiz-adv-x="645" 
d="M613 160v-160h-571v160h90v148h-90v148h90v83c0 140 122 230 272 230c67 0 139 -18 170 -33v-165c-36 21 -78 35 -138 35c-79 0 -116 -19 -116 -91v-59h181v-148h-181v-148h293z" />
    <glyph glyph-name="currency" unicode="&#xa4;" horiz-adv-x="653" 
d="M519 405v-38c0 -22 -3 -42 -9 -61l104 -117l-98 -88l-90 101c-30 -16 -65 -24 -103 -24c-36 0 -70 7 -99 22l-87 -99l-98 88l99 112c-7 20 -10 42 -10 66v38c0 22 2 42 8 61l-97 110l98 88l81 -92c30 18 66 28 105 28c40 0 78 -11 109 -30l84 94l98 -88l-102 -116
c5 -17 7 -35 7 -55zM359 347v78c0 22 -16 35 -36 35c-19 0 -35 -13 -35 -35v-78c0 -19 16 -29 35 -29c20 0 36 11 36 29z" />
    <glyph glyph-name="yen" unicode="&#xa5;" horiz-adv-x="739" 
d="M710 755l-172 -359h125v-129h-186v-54h186v-129h-186v-84h-198v84h-198v129h198v52l-1 2h-197v129h130l-184 359h205l151 -318l133 318h194z" />
    <glyph glyph-name="brokenbar" unicode="&#xa6;" horiz-adv-x="290" 
d="M224 798v-357h-158v357h158zM224 264v-357h-158v357h158z" />
    <glyph glyph-name="section" unicode="&#xa7;" horiz-adv-x="616" 
d="M569 320c0 -75 -32 -120 -84 -146c51 -30 87 -77 87 -149c0 -141 -133 -207 -275 -207c-65 0 -185 11 -240 50v161c60 -41 142 -66 235 -66s114 25 114 63s-22 45 -95 54l-48 6c-137 17 -210 76 -210 178c0 71 35 115 87 141c-58 34 -94 87 -94 157
c0 137 140 209 281 209c54 0 167 -9 222 -48v-161c-63 44 -144 64 -219 64c-84 0 -107 -25 -107 -59c0 -44 38 -62 86 -68l47 -6c152 -19 213 -70 213 -173zM383 435l-9 -83c-17 3 -36 5 -60 5c-88 0 -106 -27 -106 -65c0 -41 22 -62 99 -72l7 -1c87 2 99 41 99 73
c0 48 -28 58 -100 67l-48 6c-47 6 -90 19 -125 40c51 26 118 34 184 34c22 0 40 -1 59 -4z" />
    <glyph glyph-name="dieresis" unicode="&#xa8;" horiz-adv-x="478" 
d="M61 627v145h163v-145h-163zM263 627v145h163v-145h-163z" />
    <glyph glyph-name="copyright" unicode="&#xa9;" horiz-adv-x="855" 
d="M36 377c0 216 175 392 391 392s392 -176 392 -392s-176 -391 -392 -391s-391 175 -391 391zM123 374c0 -169 126 -310 305 -310s306 141 306 310c0 168 -119 310 -306 310c-184 0 -305 -142 -305 -310zM558 583v-119c-25 22 -77 31 -110 31c-65 0 -83 -31 -83 -88v-62
c0 -70 35 -84 86 -84c19 0 76 5 105 22v-112c-28 -15 -93 -21 -124 -21c-121 0 -196 67 -196 199v54c0 132 74 203 197 203c40 0 106 -9 125 -23z" />
    <glyph glyph-name="ordfeminine" unicode="&#xaa;" horiz-adv-x="495" 
d="M430 392h-143v40c-21 -34 -51 -50 -101 -50c-82 0 -135 42 -135 115c0 71 49 113 157 113h77c-4 29 -18 37 -67 37c-48 0 -94 -8 -146 -35v117c47 27 109 40 174 40c115 0 184 -40 184 -140v-237zM64 220v104h372v-104h-372zM233 472c33 0 53 10 54 63h-43
c-45 0 -57 -12 -57 -32c0 -21 14 -31 46 -31z" />
    <glyph glyph-name="guillemotleft" unicode="&#xab;" horiz-adv-x="567" 
d="M309 490l-119 -206l118 -218h-163l-119 214l122 210h161zM529 490l-119 -206l118 -218h-163l-119 214l122 210h161z" />
    <glyph glyph-name="logicalnot" unicode="&#xac;" horiz-adv-x="720" 
d="M45 308v159h614v-347h-155v188h-459z" />
    <glyph glyph-name="registered" unicode="&#xae;" horiz-adv-x="656" 
d="M41 481c0 159 128 288 287 288s288 -129 288 -288s-129 -287 -288 -287s-287 128 -287 287zM111 482c0 -122 88 -223 217 -223c128 0 219 100 219 223c0 118 -85 221 -218 221s-218 -102 -218 -221zM462 535c0 -35 -15 -70 -43 -91l46 -108h-98l-34 89h-25v-89h-90v304
h140c69 0 104 -52 104 -105zM321 569h-13v-73h17c30 0 48 7 48 37c0 28 -17 36 -52 36z" />
    <glyph glyph-name="macron" unicode="&#xaf;" horiz-adv-x="506" 
d="M112 637v118h275v-118h-275z" />
    <glyph glyph-name="degree" unicode="&#xb0;" horiz-adv-x="465" 
d="M428 585v-58c0 -120 -88 -179 -196 -179c-107 0 -195 57 -195 179v58c0 121 88 185 195 185c108 0 196 -64 196 -185zM295 530v56c0 40 -17 72 -63 72c-45 0 -62 -32 -62 -72v-56c0 -38 17 -70 62 -70c46 0 63 32 63 70z" />
    <glyph glyph-name="plusminus" unicode="&#xb1;" horiz-adv-x="536" 
d="M51 329v139h148v136h139v-136h147v-139h-147v-139h-139v139h-148zM51 0v139h434v-139h-434z" />
    <glyph glyph-name="twosuperior" unicode="&#xb2;" horiz-adv-x="346" 
d="M128 733c-30 0 -63 -6 -95 -19v95c35 16 79 21 116 21c91 0 161 -32 161 -111c0 -44 -22 -77 -63 -114l-72 -65h145l1 -90h-293v78l127 120c20 18 30 33 30 51c0 22 -14 34 -57 34z" />
    <glyph glyph-name="threesuperior" unicode="&#xb3;" horiz-adv-x="341" 
d="M166 830c104 0 142 -51 142 -101c0 -45 -30 -69 -66 -83c41 -12 72 -38 72 -90c0 -58 -39 -113 -166 -113c-29 0 -81 3 -118 22v97c44 -20 66 -25 100 -25c46 0 62 9 62 33c0 21 -14 28 -59 28h-33v79h32c46 0 58 19 58 32c0 11 -8 28 -56 28c-25 0 -63 -5 -98 -27v96
c35 15 89 24 130 24z" />
    <glyph glyph-name="acute" unicode="&#xb4;" horiz-adv-x="500" 
d="M266 775h159l-99 -153h-148z" />
    <glyph glyph-name="mu" unicode="&#xb5;" horiz-adv-x="679" 
d="M613 555v-555h-193v59c-24 -44 -66 -74 -137 -74c-9 0 -17 0 -24 2v-209h-193v777h193v-279c0 -82 15 -122 80 -122s81 42 81 128v273h193z" />
    <glyph glyph-name="paragraph" unicode="&#xb6;" horiz-adv-x="740" 
d="M455 755v-755h-158v303h-23c-166 0 -247 83 -247 223c0 124 79 229 251 229h177zM664 755v-755h-158v755h158zM187 531c0 -57 19 -102 91 -102h19v198h-10c-70 0 -100 -24 -100 -96z" />
    <glyph glyph-name="periodcentered" unicode="&#xb7;" horiz-adv-x="305" 
d="M56 309v188h193v-188h-193z" />
    <glyph glyph-name="cedilla" unicode="&#xb8;" horiz-adv-x="442" 
d="M335 -124c0 -60 -41 -108 -121 -108h-112v104h86c13 0 23 3 23 15s-9 16 -22 16h-84v102h110v-43h10c70 0 110 -27 110 -86z" />
    <glyph glyph-name="onesuperior" unicode="&#xb9;" horiz-adv-x="261" 
d="M18 669v105l90 48h106v-372h-121v254z" />
    <glyph glyph-name="ordmasculine" unicode="&#xba;" horiz-adv-x="509" 
d="M69 220v104h372v-104h-372zM201 592v-35c0 -59 15 -76 53 -76s54 17 54 76v35c0 60 -16 77 -54 77s-53 -17 -53 -77zM51 553v44c0 122 86 171 203 171c116 0 204 -49 204 -171v-44c0 -122 -88 -172 -204 -172c-117 0 -203 50 -203 172z" />
    <glyph glyph-name="guillemotright" unicode="&#xbb;" horiz-adv-x="567" 
d="M157 284l-119 206h161l122 -210l-119 -214h-163zM377 284l-119 206h161l122 -210l-119 -214h-163z" />
    <glyph glyph-name="onequarter" unicode="&#xbc;" horiz-adv-x="837" 
d="M117 0l453 754h133l-454 -754h-132zM667 0v62h-171v88l106 222h123l-107 -224h49v72h114v-72h28v-86h-28v-62h-114zM29 601v105l90 48h106v-372h-121v254z" />
    <glyph glyph-name="onehalf" unicode="&#xbd;" horiz-adv-x="871" 
d="M116 0l453 754h133l-454 -754h-132zM647 283c-30 0 -63 -6 -95 -19v95c35 16 79 21 116 21c91 0 161 -32 161 -111c0 -44 -22 -77 -63 -114l-72 -65h145l1 -90h-293v78l127 120c20 18 30 33 30 51c0 22 -14 34 -57 34zM28 601v105l90 48h106v-372h-121v254z" />
    <glyph glyph-name="threequarters" unicode="&#xbe;" horiz-adv-x="887" 
d="M156 0l453 754h133l-454 -754h-132zM173 768c104 0 142 -51 142 -101c0 -45 -30 -69 -66 -83c41 -12 72 -38 72 -90c0 -58 -39 -113 -166 -113c-29 0 -81 3 -118 22v97c44 -20 66 -25 100 -25c46 0 62 9 62 33c0 21 -14 28 -59 28h-33v79h32c46 0 58 19 58 32
c0 11 -8 28 -56 28c-25 0 -63 -5 -98 -27v96c35 15 89 24 130 24zM718 0v62h-171v88l106 222h123l-107 -224h49v72h114v-72h28v-86h-28v-62h-114z" />
    <glyph glyph-name="questiondown" unicode="&#xbf;" horiz-adv-x="584" 
d="M395 555v-164h-178v164h178zM26 -1c0 178 196 183 196 301v18h173v-28c0 -178 -177 -176 -177 -291c0 -41 23 -65 78 -65c71 0 99 39 99 94v22h164v-20c0 -172 -119 -244 -267 -244c-156 0 -266 80 -266 213z" />
    <glyph glyph-name="Agrave" unicode="&#xc0;" horiz-adv-x="709" 
d="M-15 0l272 755h207l248 -755h-220l-36 128h-233l-39 -128h-199zM192 960h169l77 -133h-158zM345 522l-76 -246h145z" />
    <glyph glyph-name="Aacute" unicode="&#xc1;" horiz-adv-x="709" 
d="M-15 0l272 755h207l248 -755h-220l-36 128h-233l-39 -128h-199zM364 960h169l-88 -133h-158zM345 522l-76 -246h145z" />
    <glyph glyph-name="Acircumflex" unicode="&#xc2;" horiz-adv-x="709" 
d="M-15 0l272 755h207l248 -755h-220l-36 128h-233l-39 -128h-199zM431 960l103 -132h-155l-30 42l-31 -42h-142l99 132h156zM345 522l-76 -246h145z" />
    <glyph glyph-name="Atilde" unicode="&#xc3;" horiz-adv-x="709" 
d="M-15 0l272 755h207l248 -755h-220l-36 128h-233l-39 -128h-199zM280 869c-26 0 -56 -19 -80 -35v126c18 17 47 40 80 40c43 0 125 -41 164 -41c26 0 53 18 76 34v-124c-18 -20 -49 -41 -79 -41c-42 0 -124 41 -161 41zM345 522l-76 -246h145z" />
    <glyph glyph-name="Adieresis" unicode="&#xc4;" horiz-adv-x="709" 
d="M-15 0l272 755h207l248 -755h-220l-36 128h-233l-39 -128h-199zM178 826v145h163v-145h-163zM380 826v145h163v-145h-163zM345 522l-76 -246h145z" />
    <glyph glyph-name="Aring" unicode="&#xc5;" horiz-adv-x="709" 
d="M-15 0l272 755h207l248 -755h-220l-36 128h-233l-39 -128h-199zM497 937c0 -81 -59 -127 -133 -127c-72 0 -131 45 -131 127s59 132 132 132c72 0 132 -50 132 -132zM345 522l-76 -246h145zM415 941c0 20 -10 49 -51 49s-51 -28 -51 -51s10 -51 50 -51c42 0 52 32 52 53z
" />
    <glyph glyph-name="AE" unicode="&#xc6;" horiz-adv-x="1010" 
d="M-19 0l315 755h658v-171h-328v-115h290v-171h-290v-127h342v-171h-540v128h-197l-51 -128h-199zM414 584l-123 -308h137v308h-14z" />
    <glyph glyph-name="Ccedilla" unicode="&#xc7;" horiz-adv-x="627" 
d="M295 -102v94c-156 28 -252 141 -252 336v92c0 227 129 349 336 349c75 0 174 -17 210 -42v-183c-43 37 -128 54 -190 54c-115 0 -158 -58 -158 -171v-106c0 -132 66 -165 162 -165c40 0 131 6 184 39v-173c-43 -23 -123 -34 -182 -36v-29h10c70 0 110 -27 110 -86
c0 -60 -41 -108 -121 -108h-112v104h86c13 0 23 3 23 15c0 11 -7 15 -17 16h-89z" />
    <glyph glyph-name="Egrave" unicode="&#xc8;" horiz-adv-x="652" 
d="M611 161v-161h-540v755h526v-161h-328v-135h290v-161h-290v-137h342zM189 960h169l77 -133h-158z" />
    <glyph glyph-name="Eacute" unicode="&#xc9;" horiz-adv-x="652" 
d="M611 161v-161h-540v755h526v-161h-328v-135h290v-161h-290v-137h342zM331 960h169l-88 -133h-158z" />
    <glyph glyph-name="Ecircumflex" unicode="&#xca;" horiz-adv-x="652" 
d="M611 161v-161h-540v755h526v-161h-328v-135h290v-161h-290v-137h342zM421 960l103 -132h-155l-30 42l-31 -42h-142l99 132h156z" />
    <glyph glyph-name="Edieresis" unicode="&#xcb;" horiz-adv-x="652" 
d="M611 161v-161h-540v755h526v-161h-328v-135h290v-161h-290v-137h342zM358 826v145h163v-145h-163zM156 826v145h163v-145h-163z" />
    <glyph glyph-name="Igrave" unicode="&#xcc;" horiz-adv-x="340" 
d="M2 960h169l77 -133h-158zM269 755v-755h-198v755h198z" />
    <glyph glyph-name="Iacute" unicode="&#xcd;" horiz-adv-x="340" 
d="M269 755v-755h-198v755h198zM174 960h169l-88 -133h-158z" />
    <glyph glyph-name="Icircumflex" unicode="&#xce;" horiz-adv-x="340" 
d="M249 960l103 -132h-155l-30 42l-31 -42h-142l99 132h156zM269 755v-755h-198v755h198z" />
    <glyph glyph-name="Idieresis" unicode="&#xcf;" horiz-adv-x="340" 
d="M-12 826v145h163v-145h-163zM190 826v145h163v-145h-163zM269 755v-755h-198v755h198z" />
    <glyph glyph-name="Eth" unicode="&#xd0;" horiz-adv-x="745" 
d="M17 316v140h68v299h303c185 0 313 -108 313 -335v-92c0 -227 -128 -328 -313 -328h-303v316h-68zM387 316h-104v-145h105c81 0 115 36 115 150v106c0 86 -22 159 -115 159h-105v-130h104v-140z" />
    <glyph glyph-name="Ntilde" unicode="&#xd1;" horiz-adv-x="795" 
d="M536 0l-282 444l5 -185v-259h-188v755h188l282 -444l-5 200v244h188v-755h-188zM325 869c-26 0 -56 -19 -80 -35v126c18 17 47 40 80 40c43 0 125 -41 164 -41c26 0 53 18 76 34v-124c-18 -20 -49 -41 -79 -41c-42 0 -124 41 -161 41z" />
    <glyph glyph-name="Ograve" unicode="&#xd2;" horiz-adv-x="733" 
d="M195 960h169l77 -133h-158zM44 318v112c0 227 137 339 322 339s323 -113 323 -339v-112c0 -226 -138 -333 -323 -333s-322 106 -322 333zM242 437v-126c0 -81 17 -166 123 -166c108 0 126 84 126 166v126c0 88 -12 172 -126 172c-102 0 -123 -84 -123 -172z" />
    <glyph glyph-name="Oacute" unicode="&#xd3;" horiz-adv-x="733" 
d="M354 960h169l-88 -133h-158zM44 318v112c0 227 137 339 322 339s323 -113 323 -339v-112c0 -226 -138 -333 -323 -333s-322 106 -322 333zM242 437v-126c0 -81 17 -166 123 -166c108 0 126 84 126 166v126c0 88 -12 172 -126 172c-102 0 -123 -84 -123 -172z" />
    <glyph glyph-name="Ocircumflex" unicode="&#xd4;" horiz-adv-x="733" 
d="M446 960l103 -132h-155l-30 42l-31 -42h-142l99 132h156zM44 318v112c0 227 137 339 322 339s323 -113 323 -339v-112c0 -226 -138 -333 -323 -333s-322 106 -322 333zM242 437v-126c0 -81 17 -166 123 -166c108 0 126 84 126 166v126c0 88 -12 172 -126 172
c-102 0 -123 -84 -123 -172z" />
    <glyph glyph-name="Otilde" unicode="&#xd5;" horiz-adv-x="733" 
d="M279 869c-26 0 -56 -19 -80 -35v126c18 17 47 40 80 40c43 0 125 -41 164 -41c26 0 53 18 76 34v-124c-18 -20 -49 -41 -79 -41c-42 0 -124 41 -161 41zM44 318v112c0 227 137 339 322 339s323 -113 323 -339v-112c0 -226 -138 -333 -323 -333s-322 106 -322 333z
M242 437v-126c0 -81 17 -166 123 -166c108 0 126 84 126 166v126c0 88 -12 172 -126 172c-102 0 -123 -84 -123 -172z" />
    <glyph glyph-name="Odieresis" unicode="&#xd6;" horiz-adv-x="733" 
d="M183 826v145h163v-145h-163zM385 826v145h163v-145h-163zM44 318v112c0 227 137 339 322 339s323 -113 323 -339v-112c0 -226 -138 -333 -323 -333s-322 106 -322 333zM242 437v-126c0 -81 17 -166 123 -166c108 0 126 84 126 166v126c0 88 -12 172 -126 172
c-102 0 -123 -84 -123 -172z" />
    <glyph glyph-name="multiply" unicode="&#xd7;" horiz-adv-x="485" 
d="M138 180l-98 98l104 104l-104 105l99 98l103 -104l104 104l99 -98l-105 -105l105 -104l-98 -98l-105 104z" />
    <glyph glyph-name="Oslash" unicode="&#xd8;" horiz-adv-x="734" 
d="M45 318v112c0 227 137 339 322 339c63 0 121 -13 169 -40l18 26h136l-68 -99c43 -55 68 -131 68 -226v-112c0 -226 -138 -333 -323 -333c-67 0 -127 14 -177 42l-18 -26h-127l64 95c-41 54 -64 127 -64 222zM492 437c0 10 0 19 -1 29l-203 -297c18 -15 43 -24 78 -24
c108 0 126 84 126 166v126zM243 437v-143l199 295c-18 13 -43 20 -76 20c-102 0 -123 -84 -123 -172z" />
    <glyph glyph-name="Ugrave" unicode="&#xd9;" horiz-adv-x="763" 
d="M217 960h169l77 -133h-158zM501 755h198v-457c0 -227 -136 -313 -321 -313s-314 86 -314 313v457h199v-434c0 -114 24 -167 117 -167c68 0 121 29 121 167v434z" />
    <glyph glyph-name="Uacute" unicode="&#xda;" horiz-adv-x="763" 
d="M377 960h169l-88 -133h-158zM501 755h198v-457c0 -227 -136 -313 -321 -313s-314 86 -314 313v457h199v-434c0 -114 24 -167 117 -167c68 0 121 29 121 167v434z" />
    <glyph glyph-name="Ucircumflex" unicode="&#xdb;" horiz-adv-x="763" 
d="M501 755h198v-457c0 -227 -136 -313 -321 -313s-314 86 -314 313v457h199v-434c0 -114 24 -167 117 -167c68 0 121 29 121 167v434zM460 960l103 -132h-155l-30 42l-31 -42h-142l99 132h156z" />
    <glyph glyph-name="Udieresis" unicode="&#xdc;" horiz-adv-x="763" 
d="M185 826v145h163v-145h-163zM387 826v145h163v-145h-163zM501 755h198v-457c0 -227 -136 -313 -321 -313s-314 86 -314 313v457h199v-434c0 -114 24 -167 117 -167c68 0 121 29 121 167v434z" />
    <glyph glyph-name="Yacute" unicode="&#xdd;" 
d="M666 755l-233 -487v-268h-198v265l-252 490h205l151 -318l133 318h194zM341 960h169l-88 -133h-158z" />
    <glyph glyph-name="Thorn" unicode="&#xde;" horiz-adv-x="708" 
d="M269 755v-90h151c172 0 258 -121 258 -252c0 -133 -88 -261 -254 -261h-155v-152h-198v755h198zM345 496h-76v-177h87c82 0 124 15 124 90c0 76 -44 87 -135 87z" />
    <glyph glyph-name="germandbls" unicode="&#xdf;" horiz-adv-x="667" 
d="M320 0v143h48c49 0 69 21 69 72v40c0 57 -18 81 -76 81h-39v131h34c45 0 61 25 61 84c0 41 -8 79 -83 79c-66 0 -82 -30 -82 -95v-535h-193v535c0 135 121 234 295 234c161 0 256 -85 256 -194c0 -75 -46 -114 -113 -142c77 -24 133 -82 133 -177v-40
c0 -116 -60 -216 -251 -216h-59z" />
    <glyph glyph-name="agrave" unicode="&#xe0;" horiz-adv-x="614" 
d="M560 0h-193v61c-29 -52 -74 -76 -148 -76c-112 0 -186 67 -186 166c0 117 70 176 222 176h111c-5 53 -24 70 -100 70c-68 0 -131 -13 -203 -55v167c65 40 148 60 240 60c163 0 257 -62 257 -214v-355zM129 775h159l88 -153h-148zM283 114c48 0 81 17 84 93v11h-65
c-68 0 -85 -18 -85 -55c0 -33 22 -49 66 -49z" />
    <glyph glyph-name="aacute" unicode="&#xe1;" horiz-adv-x="614" 
d="M560 0h-193v61c-29 -52 -74 -76 -148 -76c-112 0 -186 67 -186 166c0 117 70 176 222 176h111c-5 53 -24 70 -100 70c-68 0 -131 -13 -203 -55v167c65 40 148 60 240 60c163 0 257 -62 257 -214v-355zM305 775h159l-99 -153h-148zM283 114c48 0 81 17 84 93v11h-65
c-68 0 -85 -18 -85 -55c0 -33 22 -49 66 -49z" />
    <glyph glyph-name="acircumflex" unicode="&#xe2;" horiz-adv-x="614" 
d="M560 0h-193v61c-29 -52 -74 -76 -148 -76c-112 0 -186 67 -186 166c0 117 70 176 222 176h111c-5 53 -24 70 -100 70c-68 0 -131 -13 -203 -55v167c65 40 148 60 240 60c163 0 257 -62 257 -214v-355zM362 775l103 -153h-155l-27 69l-34 -69h-142l99 153h156zM283 114
c50 0 83 19 84 104h-65c-68 0 -85 -18 -85 -55c0 -33 22 -49 66 -49z" />
    <glyph glyph-name="atilde" unicode="&#xe3;" horiz-adv-x="614" 
d="M560 0h-193v61c-29 -52 -74 -76 -148 -76c-112 0 -186 67 -186 166c0 117 70 176 222 176h111c-5 53 -24 70 -100 70c-68 0 -131 -13 -203 -55v167c65 40 148 60 240 60c163 0 257 -62 257 -214v-355zM219 663c-26 0 -56 -19 -80 -35v126c18 17 47 40 80 40
c43 0 125 -41 164 -41c26 0 53 18 76 34v-124c-18 -20 -49 -41 -79 -41c-42 0 -124 41 -161 41zM283 114c50 0 83 19 84 104h-65c-68 0 -85 -18 -85 -55c0 -33 22 -49 66 -49z" />
    <glyph glyph-name="adieresis" unicode="&#xe4;" horiz-adv-x="614" 
d="M560 0h-193v61c-29 -52 -74 -76 -148 -76c-112 0 -186 67 -186 166c0 117 70 176 222 176h111c-5 53 -24 70 -100 70c-68 0 -131 -13 -203 -55v167c65 40 148 60 240 60c163 0 257 -62 257 -214v-355zM119 627v145h163v-145h-163zM321 627v145h163v-145h-163zM283 114
c48 0 81 17 84 93v11h-65c-68 0 -85 -18 -85 -55c0 -33 22 -49 66 -49z" />
    <glyph glyph-name="aring" unicode="&#xe5;" horiz-adv-x="614" 
d="M560 0h-193v61c-29 -52 -74 -76 -148 -76c-112 0 -186 67 -186 166c0 117 70 176 222 176h111c-5 53 -24 70 -100 70c-68 0 -131 -13 -203 -55v167c65 40 148 60 240 60c163 0 257 -62 257 -214v-355zM438 741c0 -81 -59 -127 -133 -127c-72 0 -131 45 -131 127
s59 132 132 132c72 0 132 -50 132 -132zM283 114c50 0 83 19 84 104h-65c-68 0 -85 -18 -85 -55c0 -33 22 -49 66 -49zM356 745c0 20 -10 49 -51 49s-51 -28 -51 -51s10 -51 50 -51c42 0 52 32 52 53z" />
    <glyph glyph-name="ae" unicode="&#xe6;" horiz-adv-x="942" 
d="M33 159c0 105 70 168 222 168h111c-5 53 -25 70 -101 70c-67 0 -130 -13 -202 -55v167c62 39 151 60 233 60c70 0 124 -16 160 -51c45 34 106 51 178 51c162 0 269 -87 269 -259v-94h-337c9 -66 48 -79 131 -79c52 0 117 5 196 39v-137c-76 -43 -155 -54 -231 -54
c-117 0 -195 26 -241 78c-36 -55 -98 -78 -179 -78c-137 0 -209 67 -209 174zM283 114c50 0 83 19 84 104h-65c-66 0 -85 -18 -85 -53s20 -51 66 -51zM636 427c-47 0 -69 -28 -72 -98h141c-2 67 -20 98 -69 98z" />
    <glyph glyph-name="ccedilla" unicode="&#xe7;" horiz-adv-x="548" 
d="M252 -97v87c-149 19 -214 106 -214 254v66c0 172 107 259 295 259c40 0 112 -4 177 -37v-151c-58 30 -116 38 -159 38c-68 0 -111 -29 -111 -108v-74c0 -72 45 -102 114 -102c47 0 100 9 151 37v-145c-38 -24 -84 -37 -143 -41v-24h10c70 0 110 -27 110 -86
c0 -60 -41 -108 -121 -108h-112v104h86c13 0 23 3 23 15s-9 16 -22 16h-84z" />
    <glyph glyph-name="egrave" unicode="&#xe8;" horiz-adv-x="613" 
d="M574 216h-337c9 -64 47 -79 123 -79c65 0 124 5 204 39v-137c-76 -42 -144 -54 -242 -54c-201 0 -284 91 -284 259v66c0 172 105 259 267 259s269 -87 269 -259v-94zM126 775h159l88 -153h-148zM305 427c-45 0 -67 -29 -70 -98h141c-2 69 -20 98 -71 98z" />
    <glyph glyph-name="eacute" unicode="&#xe9;" horiz-adv-x="613" 
d="M574 216h-337c9 -64 47 -79 123 -79c65 0 124 5 204 39v-137c-76 -42 -144 -54 -242 -54c-201 0 -284 91 -284 259v66c0 172 105 259 267 259s269 -87 269 -259v-94zM320 775h159l-99 -153h-148zM305 427c-45 0 -67 -29 -70 -98h141c-2 69 -20 98 -71 98z" />
    <glyph glyph-name="ecircumflex" unicode="&#xea;" horiz-adv-x="613" 
d="M574 310v-94h-337c9 -64 47 -79 123 -79c65 0 124 5 204 39v-137c-76 -42 -144 -54 -242 -54c-201 0 -284 91 -284 259v66c0 172 105 259 267 259s269 -87 269 -259zM388 775l103 -153h-155l-27 69l-34 -69h-142l99 153h156zM305 427c-45 0 -67 -29 -70 -98h141
c-2 69 -20 98 -71 98z" />
    <glyph glyph-name="edieresis" unicode="&#xeb;" horiz-adv-x="613" 
d="M574 310v-94h-337c9 -64 47 -79 123 -79c65 0 124 5 204 39v-137c-76 -42 -144 -54 -242 -54c-201 0 -284 91 -284 259v66c0 172 105 259 267 259s269 -87 269 -259zM325 627v145h163v-145h-163zM123 627v145h163v-145h-163zM305 427c-45 0 -67 -29 -70 -98h141
c-2 69 -20 98 -71 98z" />
    <glyph glyph-name="igrave" unicode="&#xec;" horiz-adv-x="311" 
d="M59 0v555h193v-555h-193zM-16 775h159l88 -153h-148z" />
    <glyph glyph-name="iacute" unicode="&#xed;" horiz-adv-x="311" 
d="M168 775h159l-99 -153h-148zM59 0v555h193v-555h-193z" />
    <glyph glyph-name="icircumflex" unicode="&#xee;" horiz-adv-x="311" 
d="M233 775l103 -153h-155l-27 69l-34 -69h-142l99 153h156zM59 0v555h193v-555h-193z" />
    <glyph glyph-name="idieresis" unicode="&#xef;" horiz-adv-x="311" 
d="M-30 627v145h163v-145h-163zM172 627v145h163v-145h-163zM59 0v555h193v-555h-193z" />
    <glyph glyph-name="eth" unicode="&#xf0;" horiz-adv-x="642" 
d="M334 798l73 -53l-23 -35c131 -76 219 -234 219 -403v-73c0 -162 -122 -249 -284 -249c-163 0 -282 87 -282 249v56c0 156 85 253 228 253c39 0 74 -7 128 -47c-23 38 -54 71 -88 98l-31 -46l-74 51l27 41l-30 12l63 103c13 -2 26 -5 39 -9zM239 275v-46
c0 -37 9 -102 80 -102c68 0 82 60 82 102v46c0 95 0 145 -80 145c-69 0 -82 -37 -82 -145z" />
    <glyph glyph-name="ntilde" unicode="&#xf1;" 
d="M59 0v555h193v-74c34 54 84 88 169 88c118 0 185 -73 185 -213v-356h-193v278c0 82 -15 122 -80 122s-81 -42 -81 -128v-272h-193zM241 663c-26 0 -56 -19 -80 -35v126c18 17 47 40 80 40c43 0 125 -41 164 -41c26 0 53 18 76 34v-124c-18 -20 -49 -41 -79 -41
c-42 0 -124 41 -161 41z" />
    <glyph glyph-name="ograve" unicode="&#xf2;" horiz-adv-x="640" 
d="M37 244v66c0 182 120 259 282 259s284 -77 284 -259v-66c0 -182 -122 -259 -284 -259s-282 77 -282 259zM239 305v-56c0 -92 24 -122 80 -122s82 30 82 122v56c0 92 -26 122 -82 122s-80 -30 -80 -122zM153 775h159l88 -153h-148z" />
    <glyph glyph-name="oacute" unicode="&#xf3;" horiz-adv-x="640" 
d="M327 775h159l-99 -153h-148zM37 244v66c0 182 120 259 282 259s284 -77 284 -259v-66c0 -182 -122 -259 -284 -259s-282 77 -282 259zM239 305v-56c0 -92 24 -122 80 -122s82 30 82 122v56c0 92 -26 122 -82 122s-80 -30 -80 -122z" />
    <glyph glyph-name="ocircumflex" unicode="&#xf4;" horiz-adv-x="640" 
d="M393 770l103 -153h-155l-27 69l-34 -69h-142l99 153h156zM37 244v66c0 182 120 259 282 259s284 -77 284 -259v-66c0 -182 -122 -259 -284 -259s-282 77 -282 259zM239 305v-56c0 -92 24 -122 80 -122s82 30 82 122v56c0 92 -26 122 -82 122s-80 -30 -80 -122z" />
    <glyph glyph-name="otilde" unicode="&#xf5;" horiz-adv-x="640" 
d="M37 244v66c0 182 120 259 282 259s284 -77 284 -259v-66c0 -182 -122 -259 -284 -259s-282 77 -282 259zM239 305v-56c0 -92 24 -122 80 -122s82 30 82 122v56c0 92 -26 122 -82 122s-80 -30 -80 -122zM236 663c-26 0 -56 -19 -80 -35v126c18 17 47 40 80 40
c43 0 125 -41 164 -41c26 0 53 18 76 34v-124c-18 -20 -49 -41 -79 -41c-42 0 -124 41 -161 41z" />
    <glyph glyph-name="odieresis" unicode="&#xf6;" horiz-adv-x="640" 
d="M136 627v145h163v-145h-163zM338 627v145h163v-145h-163zM37 244v66c0 182 120 259 282 259s284 -77 284 -259v-66c0 -182 -122 -259 -284 -259s-282 77 -282 259zM239 305v-56c0 -92 24 -122 80 -122s82 30 82 122v56c0 92 -26 122 -82 122s-80 -30 -80 -122z" />
    <glyph glyph-name="divide" unicode="&#xf7;" horiz-adv-x="510" 
d="M160 117v149h179v-149h-179zM160 505v149h179v-149h-179zM38 318v139h434v-139h-434z" />
    <glyph glyph-name="oslash" unicode="&#xf8;" horiz-adv-x="640" 
d="M37 244v66c0 182 120 259 282 259c55 0 105 -9 148 -28l22 29h116l-63 -82c38 -41 61 -100 61 -178v-66c0 -182 -122 -259 -284 -259c-55 0 -104 9 -146 27l-21 -27h-115l61 79c-39 42 -61 101 -61 180zM239 305v-58l129 166c-13 10 -29 14 -49 14
c-56 0 -80 -30 -80 -122zM401 249v57l-130 -167c12 -8 28 -12 48 -12c56 0 82 30 82 122z" />
    <glyph glyph-name="ugrave" unicode="&#xf9;" 
d="M602 555v-555h-193v72c-34 -53 -85 -87 -169 -87c-118 0 -185 73 -185 213v357h193v-279c0 -82 15 -122 80 -122s81 42 81 128v273h193zM166 775h159l88 -153h-148z" />
    <glyph glyph-name="uacute" unicode="&#xfa;" 
d="M602 555v-555h-193v72c-34 -53 -85 -87 -169 -87c-118 0 -185 73 -185 213v357h193v-279c0 -82 15 -122 80 -122s81 42 81 128v273h193zM352 775h159l-99 -153h-148z" />
    <glyph glyph-name="ucircumflex" unicode="&#xfb;" 
d="M602 555v-555h-193v72c-34 -53 -85 -87 -169 -87c-118 0 -185 73 -185 213v357h193v-279c0 -82 15 -122 80 -122s81 42 81 128v273h193zM406 775l103 -153h-155l-27 69l-34 -69h-142l99 153h156z" />
    <glyph glyph-name="udieresis" unicode="&#xfc;" 
d="M602 555v-555h-193v72c-34 -53 -85 -87 -169 -87c-118 0 -185 73 -185 213v357h193v-279c0 -82 15 -122 80 -122c61 0 79 38 81 115v286h193zM349 627v145h163v-145h-163zM147 627v145h163v-145h-163z" />
    <glyph glyph-name="yacute" unicode="&#xfd;" horiz-adv-x="612" 
d="M612 555l-195 -555l-73 -222h-190l70 194l-225 583h201l111 -356l101 356h200zM323 775h159l-99 -153h-148z" />
    <glyph glyph-name="thorn" unicode="&#xfe;" horiz-adv-x="660" 
d="M59 -222v977h193v-253c30 42 76 67 145 67c145 0 223 -78 223 -249v-86c0 -182 -80 -249 -223 -249c-70 0 -115 25 -145 68v-275h-193zM332 427c-48 0 -80 -23 -80 -101v-107c2 -63 29 -92 82 -92c51 0 83 30 83 102v96c0 72 -32 102 -85 102z" />
    <glyph glyph-name="ydieresis" unicode="&#xff;" horiz-adv-x="612" 
d="M612 555l-195 -555l-73 -222h-190l70 194l-225 583h201l111 -356l101 356h200zM326 628v145h163v-145h-163zM124 628v145h163v-145h-163z" />
    <glyph glyph-name="Amacron" unicode="&#x100;" horiz-adv-x="709" 
d="M-15 0l272 755h207l248 -755h-220l-36 128h-233l-39 -128h-199zM208 838v118h300v-118h-300zM345 522l-76 -246h145z" />
    <glyph glyph-name="amacron" unicode="&#x101;" horiz-adv-x="614" 
d="M560 0h-193v61c-29 -52 -74 -76 -148 -76c-112 0 -186 67 -186 166c0 117 70 176 222 176h111c-5 53 -24 70 -100 70c-68 0 -131 -13 -203 -55v167c65 40 148 60 240 60c163 0 257 -62 257 -214v-355zM162 637v118h275v-118h-275zM283 114c48 0 81 17 84 93v11h-65
c-68 0 -85 -18 -85 -55c0 -33 22 -49 66 -49z" />
    <glyph glyph-name="Abreve" unicode="&#x102;" horiz-adv-x="709" 
d="M-15 0l272 755h207l248 -755h-220l-36 128h-233l-39 -128h-199zM402 1001h135c0 -130 -82 -173 -171 -173c-96 0 -174 48 -174 173h132c0 -49 16 -60 39 -60c20 0 39 8 39 60zM345 522l-76 -246h145z" />
    <glyph glyph-name="abreve" unicode="&#x103;" horiz-adv-x="614" 
d="M560 0h-193v61c-29 -52 -74 -76 -148 -76c-112 0 -186 67 -186 166c0 117 70 176 222 176h111c-5 53 -24 70 -100 70c-68 0 -131 -13 -203 -55v167c65 40 148 60 240 60c163 0 257 -62 257 -214v-355zM324 786h135c0 -130 -72 -163 -161 -163c-96 0 -164 38 -164 163h132
c0 -49 6 -60 29 -60c20 0 29 8 29 60zM283 114c50 0 83 19 84 104h-65c-68 0 -85 -18 -85 -55c0 -33 22 -49 66 -49z" />
    <glyph glyph-name="Aogonek" unicode="&#x104;" horiz-adv-x="709" 
d="M469 -117c0 51 24 90 58 117h-35l-36 128h-233l-39 -128h-199l272 755h207l248 -755h-59c-60 -24 -70 -47 -70 -70c0 -34 23 -40 62 -40h35v-122h-73c-80 0 -138 36 -138 115zM345 522l-76 -246h145z" />
    <glyph glyph-name="aogonek" unicode="&#x105;" horiz-adv-x="614" 
d="M342 -117c0 51 24 90 58 117h-33v61c-29 -52 -74 -76 -148 -76c-112 0 -186 67 -186 166c0 117 70 176 222 176h111c-5 53 -24 70 -100 70c-68 0 -131 -13 -203 -55v167c65 40 148 60 240 60c163 0 257 -62 257 -214v-355h-34c-60 -24 -70 -47 -70 -70
c0 -34 23 -40 62 -40h35v-122h-73c-80 0 -138 36 -138 115zM283 114c50 0 83 19 84 104h-65c-68 0 -85 -18 -85 -55c0 -33 22 -49 66 -49z" />
    <glyph glyph-name="Cacute" unicode="&#x106;" horiz-adv-x="627" 
d="M589 727v-183c-43 37 -128 54 -190 54c-115 0 -158 -58 -158 -171v-106c0 -132 66 -165 162 -165c40 0 131 6 184 39v-173c-50 -27 -150 -37 -210 -37c-204 0 -334 116 -334 343v92c0 227 129 349 336 349c75 0 174 -17 210 -42zM363 960h169l-88 -133h-158z" />
    <glyph glyph-name="cacute" unicode="&#x107;" horiz-adv-x="548" 
d="M308 775h159l-99 -153h-148zM333 569c40 0 112 -4 177 -37v-151c-58 30 -116 38 -159 38c-68 0 -111 -29 -111 -108v-74c0 -72 45 -102 114 -102c47 0 100 9 151 37v-145c-45 -29 -102 -42 -180 -42c-201 0 -287 89 -287 259v66c0 172 107 259 295 259z" />
    <glyph glyph-name="Ccircumflex" unicode="&#x108;" horiz-adv-x="627" 
d="M589 727v-183c-43 37 -128 54 -190 54c-115 0 -158 -58 -158 -171v-106c0 -132 66 -165 162 -165c40 0 131 6 184 39v-173c-50 -27 -150 -37 -210 -37c-204 0 -334 116 -334 343v92c0 227 129 349 336 349c75 0 174 -17 210 -42zM459 960l103 -132h-155l-30 42l-31 -42
h-142l99 132h156z" />
    <glyph glyph-name="ccircumflex" unicode="&#x109;" horiz-adv-x="548" 
d="M378 775l103 -153h-155l-27 69l-34 -69h-142l99 153h156zM333 569c40 0 112 -4 177 -37v-151c-58 30 -116 38 -159 38c-68 0 -111 -29 -111 -108v-74c0 -72 45 -102 114 -102c47 0 100 9 151 37v-145c-45 -29 -102 -42 -180 -42c-201 0 -287 89 -287 259v66
c0 172 107 259 295 259z" />
    <glyph glyph-name="Cdotaccent" unicode="&#x10a;" horiz-adv-x="627" 
d="M280 826v155h193v-155h-193zM589 727v-183c-43 37 -128 54 -190 54c-115 0 -158 -58 -158 -171v-106c0 -132 66 -165 162 -165c40 0 131 6 184 39v-173c-50 -27 -150 -37 -210 -37c-204 0 -334 116 -334 343v92c0 227 129 349 336 349c75 0 174 -17 210 -42z" />
    <glyph glyph-name="cdotaccent" unicode="&#x10b;" horiz-adv-x="548" 
d="M333 569c40 0 112 -4 177 -37v-151c-58 30 -116 38 -159 38c-68 0 -111 -29 -111 -108v-74c0 -72 45 -102 114 -102c47 0 100 9 151 37v-145c-45 -29 -102 -42 -180 -42c-201 0 -287 89 -287 259v66c0 172 107 259 295 259zM205 627v155h193v-155h-193z" />
    <glyph glyph-name="Ccaron" unicode="&#x10c;" horiz-adv-x="627" 
d="M299 828l-103 132h155l30 -42l31 42h142l-99 -132h-156zM589 727v-183c-43 37 -128 54 -190 54c-115 0 -158 -58 -158 -171v-106c0 -132 66 -165 162 -165c40 0 131 6 184 39v-173c-50 -27 -150 -37 -210 -37c-204 0 -334 116 -334 343v92c0 227 129 349 336 349
c75 0 174 -17 210 -42z" />
    <glyph glyph-name="ccaron" unicode="&#x10d;" horiz-adv-x="548" 
d="M231 622l-103 153h155l30 -63l31 63h142l-99 -153h-156zM333 569c40 0 112 -4 177 -37v-151c-58 30 -116 38 -159 38c-68 0 -111 -29 -111 -108v-74c0 -72 45 -102 114 -102c47 0 100 9 151 37v-145c-45 -29 -102 -42 -180 -42c-201 0 -287 89 -287 259v66
c0 172 107 259 295 259z" />
    <glyph glyph-name="Dcaron" unicode="&#x10e;" horiz-adv-x="731" 
d="M374 755c185 0 313 -108 313 -335v-92c0 -227 -128 -328 -313 -328h-303v755h303zM374 586h-105v-415h105c81 0 115 36 115 150v106c0 86 -22 159 -115 159zM227 828l-103 132h155l30 -42l31 42h142l-99 -132h-156z" />
    <glyph glyph-name="dcaron" unicode="&#x10f;" horiz-adv-x="771" 
d="M407 504v251h193v-755h-193v53c-30 -43 -75 -68 -144 -68c-143 0 -223 67 -223 249v86c0 171 78 249 223 249c68 0 114 -24 144 -65zM328 427c-53 0 -85 -30 -85 -102v-96c0 -72 32 -102 83 -102c55 0 81 32 81 102v119c-6 60 -36 79 -79 79zM776 510h-120l14 245h151z
" />
    <glyph glyph-name="Dcroat" unicode="&#x110;" horiz-adv-x="745" 
d="M17 316v140h68v299h303c185 0 313 -108 313 -335v-92c0 -227 -128 -328 -313 -328h-303v316h-68zM387 316h-104v-145h105c81 0 115 36 115 150v106c0 86 -22 159 -115 159h-105v-130h104v-140z" />
    <glyph glyph-name="dcroat" unicode="&#x111;" horiz-adv-x="659" 
d="M407 713v42h193v-42h70v-112h-70v-601h-193v53c-30 -43 -75 -68 -144 -68c-143 0 -223 67 -223 249v86c0 171 78 249 223 249c68 0 114 -24 144 -65v97h-128v112h128zM328 427c-53 0 -85 -30 -85 -102v-96c0 -72 32 -102 83 -102c55 0 81 32 81 102v119
c-6 60 -36 79 -79 79z" />
    <glyph glyph-name="Emacron" unicode="&#x112;" horiz-adv-x="652" 
d="M611 161v-161h-540v755h526v-161h-328v-135h290v-161h-290v-137h342zM187 838v118h300v-118h-300z" />
    <glyph glyph-name="emacron" unicode="&#x113;" horiz-adv-x="613" 
d="M574 310v-94h-337c9 -64 47 -79 123 -79c65 0 124 5 204 39v-137c-76 -42 -144 -54 -242 -54c-201 0 -284 91 -284 259v66c0 172 105 259 267 259s269 -87 269 -259zM160 637v118h275v-118h-275zM305 427c-45 0 -67 -29 -70 -98h141c-2 69 -20 98 -71 98z" />
    <glyph glyph-name="Ebreve" unicode="&#x114;" horiz-adv-x="652" 
d="M611 161v-161h-540v755h526v-161h-328v-135h290v-161h-290v-137h342zM380 1001h135c0 -130 -82 -173 -171 -173c-96 0 -174 48 -174 173h132c0 -49 16 -60 39 -60c20 0 39 8 39 60z" />
    <glyph glyph-name="ebreve" unicode="&#x115;" horiz-adv-x="613" 
d="M574 216h-337c9 -64 47 -79 123 -79c65 0 124 5 204 39v-137c-76 -42 -144 -54 -242 -54c-201 0 -284 91 -284 259v66c0 172 105 259 267 259s269 -87 269 -259v-94zM332 786h135c0 -130 -72 -163 -161 -163c-96 0 -164 38 -164 163h132c0 -49 6 -60 29 -60
c20 0 29 8 29 60zM305 427c-45 0 -67 -29 -70 -98h141c-2 69 -20 98 -71 98z" />
    <glyph glyph-name="Edotaccent" unicode="&#x116;" horiz-adv-x="652" 
d="M611 161v-161h-540v755h526v-161h-328v-135h290v-161h-290v-137h342zM248 826v155h193v-155h-193z" />
    <glyph glyph-name="edotaccent" unicode="&#x117;" horiz-adv-x="613" 
d="M574 216h-337c9 -64 47 -79 123 -79c65 0 124 5 204 39v-137c-76 -42 -144 -54 -242 -54c-201 0 -284 91 -284 259v66c0 172 105 259 267 259s269 -87 269 -259v-94zM202 627v155h193v-155h-193zM305 427c-45 0 -67 -29 -70 -98h141c-2 69 -20 98 -71 98z" />
    <glyph glyph-name="Eogonek" unicode="&#x118;" horiz-adv-x="652" 
d="M611 161v-161h-88c-60 -24 -70 -47 -70 -70c0 -34 23 -40 62 -40h35v-122h-73c-80 0 -138 36 -138 115c0 51 24 90 58 117h-326v755h526v-161h-328v-135h290v-161h-290v-137h342z" />
    <glyph glyph-name="eogonek" unicode="&#x119;" horiz-adv-x="613" 
d="M574 216h-337c9 -64 47 -79 123 -79c65 0 124 5 204 39v-137c-43 -24 -83 -38 -128 -45c-51 -23 -59 -44 -59 -66c0 -34 23 -40 62 -40h35v-122h-73c-80 0 -138 36 -138 115c0 44 17 78 43 104c-190 5 -268 95 -268 259v66c0 172 105 259 267 259s269 -87 269 -259v-94z
M305 427c-45 0 -67 -29 -70 -98h141c-2 69 -20 98 -71 98z" />
    <glyph glyph-name="Ecaron" unicode="&#x11a;" horiz-adv-x="652" 
d="M611 161v-161h-540v755h526v-161h-328v-135h290v-161h-290v-137h342zM258 828l-103 132h155l30 -42l31 42h142l-99 -132h-156z" />
    <glyph glyph-name="ecaron" unicode="&#x11b;" horiz-adv-x="613" 
d="M574 216h-337c9 -64 47 -79 123 -79c65 0 124 5 204 39v-137c-76 -42 -144 -54 -242 -54c-201 0 -284 91 -284 259v66c0 172 105 259 267 259s269 -87 269 -259v-94zM219 622l-103 153h155l30 -63l31 63h142l-99 -153h-156zM305 427c-45 0 -67 -29 -70 -98h141
c-2 69 -20 98 -71 98z" />
    <glyph glyph-name="Gcircumflex" unicode="&#x11c;" horiz-adv-x="719" 
d="M668 446v-409c-82 -37 -165 -52 -265 -52c-191 0 -359 81 -359 343v92c0 260 174 349 363 349c87 0 158 -14 233 -47v-174c-73 40 -135 51 -212 51c-106 0 -186 -37 -186 -172v-106c0 -134 78 -165 165 -165c25 0 44 1 63 4v125h-103v161h301zM470 960l103 -132h-155
l-30 42l-31 -42h-142l99 132h156z" />
    <glyph glyph-name="gcircumflex" unicode="&#x11d;" horiz-adv-x="659" 
d="M600 555v-510c0 -200 -137 -279 -331 -279c-107 0 -150 18 -201 38v157c61 -27 131 -39 202 -39c96 0 137 43 137 124v32c-30 -43 -75 -68 -144 -68c-143 0 -223 67 -223 249v61c0 171 78 249 223 249c68 0 114 -24 144 -65v51h193zM328 427c-53 0 -85 -30 -85 -102v-71
c0 -72 32 -102 83 -102c52 0 78 29 81 92v104c-6 60 -36 79 -79 79zM418 775l103 -153h-155l-27 69l-34 -69h-142l99 153h156z" />
    <glyph glyph-name="Gbreve" unicode="&#x11e;" horiz-adv-x="719" 
d="M668 446v-409c-82 -37 -165 -52 -265 -52c-191 0 -359 81 -359 343v92c0 260 174 349 363 349c87 0 158 -14 233 -47v-174c-73 40 -135 51 -212 51c-106 0 -186 -37 -186 -172v-106c0 -134 78 -165 165 -165c25 0 44 1 63 4v125h-103v161h301zM431 1001h135
c0 -130 -82 -173 -171 -173c-96 0 -174 48 -174 173h132c0 -49 16 -60 39 -60c20 0 39 8 39 60z" />
    <glyph glyph-name="gbreve" unicode="&#x11f;" horiz-adv-x="659" 
d="M600 555v-510c0 -200 -137 -279 -331 -279c-107 0 -150 18 -201 38v157c61 -27 131 -39 202 -39c96 0 137 43 137 124v32c-30 -43 -75 -68 -144 -68c-143 0 -223 67 -223 249v61c0 171 78 249 223 249c68 0 114 -24 144 -65v51h193zM362 786h135
c0 -130 -72 -163 -161 -163c-96 0 -164 38 -164 163h132c0 -49 6 -60 29 -60c20 0 29 8 29 60zM328 427c-53 0 -85 -30 -85 -102v-71c0 -72 32 -102 83 -102c52 0 78 29 81 92v104c-6 60 -36 79 -79 79z" />
    <glyph glyph-name="Gdotaccent" unicode="&#x120;" horiz-adv-x="719" 
d="M668 446v-409c-82 -37 -165 -52 -265 -52c-191 0 -359 81 -359 343v92c0 260 174 349 363 349c87 0 158 -14 233 -47v-174c-73 40 -135 51 -212 51c-106 0 -186 -37 -186 -172v-106c0 -134 78 -165 165 -165c25 0 44 1 63 4v125h-103v161h301zM303 826v155h193v-155h-193
z" />
    <glyph glyph-name="gdotaccent" unicode="&#x121;" horiz-adv-x="659" 
d="M600 555v-510c0 -200 -137 -279 -331 -279c-107 0 -150 18 -201 38v157c61 -27 131 -39 202 -39c96 0 137 43 137 124v32c-30 -43 -75 -68 -144 -68c-143 0 -223 67 -223 249v61c0 171 78 249 223 249c68 0 114 -24 144 -65v51h193zM328 427c-53 0 -85 -30 -85 -102v-71
c0 -72 32 -102 83 -102c55 0 81 32 81 102v94c-6 60 -36 79 -79 79zM246 627v155h193v-155h-193z" />
    <glyph glyph-name="Gcommaaccent" unicode="&#x122;" horiz-adv-x="719" 
d="M668 446v-409c-82 -37 -165 -52 -265 -52c-191 0 -359 81 -359 343v92c0 260 174 349 363 349c87 0 158 -14 233 -47v-174c-73 40 -135 51 -212 51c-106 0 -186 -37 -186 -172v-106c0 -134 78 -165 165 -165c25 0 44 1 63 4v125h-103v161h301zM444 -278h-133l14 185h151z
" />
    <glyph glyph-name="gcommaaccent" unicode="&#x123;" horiz-adv-x="659" 
d="M600 555v-510c0 -200 -137 -279 -331 -279c-107 0 -150 18 -201 38v157c61 -27 131 -39 202 -39c96 0 137 43 137 124v32c-30 -43 -75 -68 -144 -68c-143 0 -223 67 -223 249v61c0 171 78 249 223 249c68 0 114 -24 144 -65v51h193zM328 427c-53 0 -85 -30 -85 -102v-71
c0 -72 32 -102 83 -102c52 0 78 29 81 92v104c-6 60 -36 79 -79 79zM284 796h138l-15 -182h-145z" />
    <glyph glyph-name="Hcircumflex" unicode="&#x124;" horiz-adv-x="801" 
d="M730 755v-755h-198v308h-263v-308h-198v755h198v-276h263v276h198zM481 960l103 -132h-155l-30 42l-31 -42h-142l99 132h156z" />
    <glyph glyph-name="hcircumflex" unicode="&#x125;" 
d="M59 0v755h193v-274c34 54 84 88 169 88c118 0 185 -73 185 -213v-356h-193v278c0 82 -15 122 -80 122c-62 0 -80 -38 -81 -116v-284h-193zM234 927l103 -132h-155l-30 42l-31 -42h-142l99 132h156z" />
    <glyph glyph-name="Hbar" unicode="&#x126;" horiz-adv-x="803" 
d="M731 755v-53h35v-140h-35v-562h-198v308h-263v-308h-198v562h-38v140h38v53h198v-53h263v53h198zM270 562v-83h263v83h-263z" />
    <glyph glyph-name="hbar" unicode="&#x127;" 
d="M59 0v601h-56v112h56v42h193v-42h142v-112h-142v-120c34 54 84 88 169 88c118 0 185 -73 185 -213v-356h-193v278c0 82 -15 122 -80 122c-62 0 -80 -38 -81 -116v-284h-193z" />
    <glyph glyph-name="Itilde" unicode="&#x128;" horiz-adv-x="340" 
d="M99 869c-26 0 -56 -19 -80 -35v126c18 17 47 40 80 40c43 0 125 -41 164 -41c26 0 53 18 76 34v-124c-18 -20 -49 -41 -79 -41c-42 0 -124 41 -161 41zM269 755v-755h-198v755h198z" />
    <glyph glyph-name="itilde" unicode="&#x129;" horiz-adv-x="311" 
d="M59 0v555h193v-555h-193zM81 663c-26 0 -56 -19 -80 -35v126c18 17 47 40 80 40c43 0 125 -41 164 -41c26 0 53 18 76 34v-124c-18 -20 -49 -41 -79 -41c-42 0 -124 41 -161 41z" />
    <glyph glyph-name="Imacron" unicode="&#x12a;" horiz-adv-x="340" 
d="M22 838v118h300v-118h-300zM269 755v-755h-198v755h198z" />
    <glyph glyph-name="imacron" unicode="&#x12b;" horiz-adv-x="311" 
d="M59 0v555h193v-555h-193zM11 637v118h275v-118h-275z" />
    <glyph glyph-name="Ibreve" unicode="&#x12c;" horiz-adv-x="340" 
d="M206 1001h135c0 -130 -82 -173 -171 -173c-96 0 -174 48 -174 173h132c0 -49 16 -60 39 -60c20 0 39 8 39 60zM269 755v-755h-198v755h198z" />
    <glyph glyph-name="ibreve" unicode="&#x12d;" horiz-adv-x="311" 
d="M59 0v555h193v-555h-193zM188 786h135c0 -130 -72 -163 -161 -163c-96 0 -164 38 -164 163h132c0 -49 6 -60 29 -60c20 0 29 8 29 60z" />
    <glyph glyph-name="Iogonek" unicode="&#x12e;" horiz-adv-x="340" 
d="M269 755v-755h-31c-60 -24 -70 -47 -70 -70c0 -34 23 -40 62 -40h35v-122h-73c-80 0 -138 36 -138 115c0 51 24 90 58 117h-41v755h198z" />
    <glyph glyph-name="iogonek" unicode="&#x12f;" horiz-adv-x="311" 
d="M59 0v555h193v-555h-29c-60 -24 -70 -47 -70 -70c0 -34 23 -40 62 -40h35v-122h-73c-80 0 -138 36 -138 115c0 51 24 90 58 117h-38zM59 623v155h193v-155h-193z" />
    <glyph glyph-name="Idotaccent" unicode="&#x130;" horiz-adv-x="340" 
d="M76 826v155h193v-155h-193zM269 755v-755h-198v755h198z" />
    <glyph glyph-name="dotlessi" unicode="&#x131;" horiz-adv-x="311" 
d="M59 0v555h193v-555h-193z" />
    <glyph glyph-name="IJ" unicode="&#x132;" horiz-adv-x="866" 
d="M601 230v354h-215v171h413v-560c0 -140 -121 -210 -252 -210c-67 0 -131 19 -162 34v157c27 -10 78 -24 127 -24c62 0 89 23 89 78zM269 755v-755h-198v755h198z" />
    <glyph glyph-name="ij" unicode="&#x133;" horiz-adv-x="630" 
d="M59 0v555h193v-555h-193zM59 623v155h193v-155h-193zM571 555v-575c0 -175 -101 -214 -200 -214c-39 0 -78 5 -102 13v152c20 -4 38 -6 53 -6c34 0 56 16 56 69v561h193zM378 623v155h193v-155h-193z" />
    <glyph glyph-name="Jcircumflex" unicode="&#x134;" horiz-adv-x="526" 
d="M261 230v354h-215v171h413v-560c0 -140 -121 -210 -252 -210c-67 0 -131 19 -162 34v157c27 -10 78 -24 127 -24c62 0 89 23 89 78zM341 960l103 -132h-155l-30 42l-31 -42h-142l99 132h156z" />
    <glyph glyph-name="jcircumflex" unicode="&#x135;" horiz-adv-x="319" 
d="M237 775l103 -153h-155l-27 69l-34 -69h-142l99 153h156zM260 555v-575c0 -175 -94 -214 -193 -214c-39 0 -66 5 -109 13v153c20 -4 38 -7 53 -7c34 0 56 16 56 69v561h193z" />
    <glyph glyph-name="Kcommaaccent" unicode="&#x136;" horiz-adv-x="709" 
d="M269 755v-296h58l163 296h210l-202 -356l206 -399h-227l-137 298h-71v-298h-198v755h198zM407 -278h-133l14 185h151z" />
    <glyph glyph-name="kcommaaccent" unicode="&#x137;" horiz-adv-x="612" 
d="M59 0v755h193v-408h51l88 208h219l-160 -250l160 -305h-216l-89 206h-53v-206h-193zM385 -278h-133l14 185h151z" />
    <glyph glyph-name="uni0138" unicode="&#x138;" horiz-adv-x="612" 
d="M59 0v555h193v-208h51l88 208h219l-160 -250l160 -305h-216l-89 206h-53v-206h-193z" />
    <glyph glyph-name="Lacute" unicode="&#x139;" horiz-adv-x="574" 
d="M561 161v-161h-490v755h198v-594h292zM163 960h169l-88 -133h-158z" />
    <glyph glyph-name="lacute" unicode="&#x13a;" horiz-adv-x="360" 
d="M154 960h169l-88 -133h-158zM56 145v610h193v-533c0 -62 10 -82 53 -82c19 0 37 3 48 8v-151c-31 -8 -75 -12 -109 -12c-99 0 -185 41 -185 160z" />
    <glyph glyph-name="Lcommaaccent" unicode="&#x13b;" horiz-adv-x="574" 
d="M561 161v-161h-490v755h198v-594h292zM366 -278h-133l14 185h151z" />
    <glyph glyph-name="lcommaaccent" unicode="&#x13c;" horiz-adv-x="360" 
d="M256 -278h-133l14 185h151zM56 145v610h193v-533c0 -62 10 -82 53 -82c19 0 37 3 48 8v-151c-31 -8 -75 -12 -109 -12c-99 0 -185 41 -185 160z" />
    <glyph glyph-name="Lcaron" unicode="&#x13d;" horiz-adv-x="574" 
d="M561 161v-161h-490v755h198v-594h292zM462 510h-120l14 245h151z" />
    <glyph glyph-name="lcaron" unicode="&#x13e;" horiz-adv-x="421" 
d="M413 510h-120l14 245h151zM56 145v610h193v-533c0 -62 10 -82 53 -82c19 0 37 3 48 8v-151c-31 -8 -75 -12 -109 -12c-99 0 -185 41 -185 160z" />
    <glyph glyph-name="Ldot" unicode="&#x13f;" horiz-adv-x="579" 
d="M561 161v-161h-490v755h198v-594h292zM327 318v160h200v-160h-200z" />
    <glyph glyph-name="ldot" unicode="&#x140;" horiz-adv-x="433" 
d="M285 314v159h168v-159h-168zM56 145v610h193v-533c0 -62 10 -82 53 -82c19 0 37 3 48 8v-151c-31 -8 -75 -12 -109 -12c-99 0 -185 41 -185 160z" />
    <glyph glyph-name="Lslash" unicode="&#x141;" horiz-adv-x="593" 
d="M288 755v-240l98 56v-153l-98 -55v-202h292v-161h-490v252l-66 -37v152l66 37v351h198z" />
    <glyph glyph-name="lslash" unicode="&#x142;" horiz-adv-x="416" 
d="M92 145v128l-60 -30v137l60 29v346h193v-250l87 43v-135l-87 -44v-147c0 -62 10 -82 53 -82c19 0 37 3 48 8v-151c-31 -8 -75 -12 -109 -12c-99 0 -185 41 -185 160z" />
    <glyph glyph-name="Nacute" unicode="&#x143;" horiz-adv-x="795" 
d="M724 755v-755h-188l-282 444l5 -185v-259h-188v755h188l282 -444l-5 200v244h188zM401 960h169l-88 -133h-158z" />
    <glyph glyph-name="nacute" unicode="&#x144;" 
d="M59 0v555h193v-74c34 54 84 88 169 88c118 0 185 -73 185 -213v-356h-193v278c0 82 -15 122 -80 122c-62 0 -80 -38 -81 -116v-284h-193zM352 775h159l-99 -153h-148z" />
    <glyph glyph-name="Ncommaaccent" unicode="&#x145;" horiz-adv-x="795" 
d="M724 755v-755h-188l-282 444l5 -185v-259h-188v755h188l282 -444l-5 200v244h188zM435 -278h-133l14 185h151z" />
    <glyph glyph-name="ncommaaccent" unicode="&#x146;" 
d="M59 0v555h193v-74c34 54 84 88 169 88c118 0 185 -73 185 -213v-356h-193v278c0 82 -15 122 -80 122c-62 0 -80 -38 -81 -116v-284h-193zM371 -278h-133l14 185h151z" />
    <glyph glyph-name="Ncaron" unicode="&#x147;" horiz-adv-x="795" 
d="M724 755v-755h-188l-282 444l5 -185v-259h-188v755h188l282 -444l-5 200v244h188zM325 828l-103 132h155l30 -42l31 42h142l-99 -132h-156z" />
    <glyph glyph-name="ncaron" unicode="&#x148;" 
d="M59 0v555h193v-74c34 54 84 88 169 88c118 0 185 -73 185 -213v-356h-193v278c0 82 -15 122 -80 122c-62 0 -80 -38 -81 -116v-284h-193zM248 622l-103 153h155l30 -63l31 63h142l-99 -153h-156z" />
    <glyph glyph-name="napostrophe" unicode="&#x149;" 
d="M59 0v555h193v-74c34 54 84 88 169 88c118 0 185 -73 185 -213v-356h-193v278c0 82 -15 122 -80 122c-62 0 -80 -38 -81 -116v-284h-193zM6 624l45 228h163l-51 -228h-157z" />
    <glyph glyph-name="Eng" unicode="&#x14a;" horiz-adv-x="795" 
d="M724 755v-781c0 -140 -97 -210 -228 -210c-47 0 -103 12 -134 27v167c33 -12 71 -17 94 -17c41 0 82 17 89 47l-291 457l5 -186v-259h-188v755h188l282 -444l-5 200v244h188z" />
    <glyph glyph-name="eng" unicode="&#x14b;" 
d="M606 -20c0 -175 -101 -214 -200 -214c-39 0 -78 5 -102 13v152c20 -4 38 -6 53 -6c34 0 56 16 56 69v284c0 82 -15 122 -80 122s-81 -42 -81 -128v-272h-193v555h193v-74c34 54 84 88 169 88c118 0 185 -73 185 -213v-376z" />
    <glyph glyph-name="Omacron" unicode="&#x14c;" horiz-adv-x="733" 
d="M211 838v118h300v-118h-300zM44 318v112c0 227 137 339 322 339s323 -113 323 -339v-112c0 -226 -138 -333 -323 -333s-322 106 -322 333zM242 437v-126c0 -81 17 -166 123 -166c108 0 126 84 126 166v126c0 88 -12 172 -126 172c-102 0 -123 -84 -123 -172z" />
    <glyph glyph-name="omacron" unicode="&#x14d;" horiz-adv-x="640" 
d="M183 637v118h275v-118h-275zM37 244v66c0 182 120 259 282 259s284 -77 284 -259v-66c0 -182 -122 -259 -284 -259s-282 77 -282 259zM239 305v-56c0 -92 24 -122 80 -122s82 30 82 122v56c0 92 -26 122 -82 122s-80 -30 -80 -122z" />
    <glyph glyph-name="Obreve" unicode="&#x14e;" horiz-adv-x="733" 
d="M410 1001h135c0 -130 -82 -173 -171 -173c-96 0 -174 48 -174 173h132c0 -49 16 -60 39 -60c20 0 39 8 39 60zM44 318v112c0 227 137 339 322 339s323 -113 323 -339v-112c0 -226 -138 -333 -323 -333s-322 106 -322 333zM242 437v-126c0 -81 17 -166 123 -166
c108 0 126 84 126 166v126c0 88 -12 172 -126 172c-102 0 -123 -84 -123 -172z" />
    <glyph glyph-name="obreve" unicode="&#x14f;" horiz-adv-x="640" 
d="M37 244v66c0 182 120 259 282 259s284 -77 284 -259v-66c0 -182 -122 -259 -284 -259s-282 77 -282 259zM239 305v-56c0 -92 24 -122 80 -122s82 30 82 122v56c0 92 -26 122 -82 122s-80 -30 -80 -122zM347 786h135c0 -130 -72 -163 -161 -163c-96 0 -164 38 -164 163
h132c0 -49 6 -60 29 -60c20 0 29 8 29 60z" />
    <glyph glyph-name="Ohungarumlaut" unicode="&#x150;" horiz-adv-x="733" 
d="M44 318v112c0 227 137 339 322 339s323 -113 323 -339v-112c0 -226 -138 -333 -323 -333s-322 106 -322 333zM242 437v-126c0 -81 17 -166 123 -166c108 0 126 84 126 166v126c0 88 -12 172 -126 172c-102 0 -123 -84 -123 -172zM259 960h169l-88 -133h-158zM459 960h169
l-88 -133h-158z" />
    <glyph glyph-name="ohungarumlaut" unicode="&#x151;" horiz-adv-x="640" 
d="M235 775h159l-99 -153h-148zM425 775h159l-99 -153h-148zM37 244v66c0 182 120 259 282 259s284 -77 284 -259v-66c0 -182 -122 -259 -284 -259s-282 77 -282 259zM239 305v-56c0 -92 24 -122 80 -122s82 30 82 122v56c0 92 -26 122 -82 122s-80 -30 -80 -122z" />
    <glyph glyph-name="OE" unicode="&#x152;" horiz-adv-x="1072" 
d="M1031 161v-161h-540v43c-37 -35 -87 -58 -154 -58c-150 0 -293 106 -293 333v112c0 227 134 339 297 339c61 0 111 -20 150 -54v40h526v-161h-328v-135h290v-161h-290v-137h342zM242 437v-126c0 -82 17 -166 124 -166c101 0 123 77 125 154v157c-2 78 -21 153 -122 153
c-106 0 -127 -81 -127 -172z" />
    <glyph glyph-name="oe" unicode="&#x153;" horiz-adv-x="981" 
d="M942 216h-337c9 -64 47 -79 123 -79c65 0 124 5 204 39v-137c-76 -42 -144 -54 -242 -54c-83 0 -146 15 -191 45c-48 -31 -111 -45 -180 -45c-162 0 -282 77 -282 259v66c0 182 120 259 282 259c70 0 134 -15 182 -47c45 31 103 47 172 47c162 0 269 -87 269 -259v-94z
M239 305v-56c0 -92 24 -122 80 -122s82 30 82 122v56c0 92 -26 122 -82 122s-80 -30 -80 -122zM673 427c-45 0 -67 -29 -70 -98h141c-2 69 -20 98 -71 98z" />
    <glyph glyph-name="Racute" unicode="&#x154;" horiz-adv-x="701" 
d="M658 503c0 -88 -38 -173 -111 -221l122 -282h-216l-95 242h-89v-242h-198v755h329c172 0 258 -121 258 -252zM325 596h-56v-197h67c82 0 124 25 124 100c0 76 -44 97 -135 97zM305 960h169l-88 -133h-158z" />
    <glyph glyph-name="racute" unicode="&#x155;" horiz-adv-x="440" 
d="M59 0v555h193v-94c33 64 90 108 169 108v-197c-12 2 -24 3 -35 3c-94 0 -131 -63 -134 -171v-204h-193zM268 775h159l-99 -153h-148z" />
    <glyph glyph-name="Rcommaaccent" unicode="&#x156;" horiz-adv-x="701" 
d="M658 503c0 -88 -38 -173 -111 -221l122 -282h-216l-95 242h-89v-242h-198v755h329c172 0 258 -121 258 -252zM325 596h-56v-197h67c82 0 124 25 124 100c0 76 -44 97 -135 97zM383 -278h-133l14 185h151z" />
    <glyph glyph-name="rcommaaccent" unicode="&#x157;" horiz-adv-x="440" 
d="M59 0v555h193v-94c33 64 90 108 169 108v-197c-12 2 -24 3 -35 3c-94 0 -131 -63 -134 -171v-204h-193zM199 -278h-133l14 185h151z" />
    <glyph glyph-name="Rcaron" unicode="&#x158;" horiz-adv-x="701" 
d="M658 503c0 -88 -38 -173 -111 -221l122 -282h-216l-95 242h-89v-242h-198v755h329c172 0 258 -121 258 -252zM325 596h-56v-197h67c82 0 124 25 124 100c0 76 -44 97 -135 97zM239 828l-103 132h155l30 -42l31 42h142l-99 -132h-156z" />
    <glyph glyph-name="rcaron" unicode="&#x159;" horiz-adv-x="440" 
d="M59 0v555h193v-94c33 64 90 108 169 108v-197c-12 2 -24 3 -35 3c-94 0 -131 -63 -134 -171v-204h-193zM175 622l-103 153h155l30 -63l31 63h142l-99 -153h-156z" />
    <glyph glyph-name="Sacute" unicode="&#x15a;" horiz-adv-x="647" 
d="M58 43v181c76 -48 170 -71 253 -71c70 0 102 16 102 68c0 45 -25 60 -82 68l-107 15c-133 19 -183 99 -183 217c0 185 145 247 302 247c65 0 185 -11 240 -50v-181c-63 44 -155 66 -227 66c-79 0 -118 -19 -118 -65c0 -43 30 -64 77 -70l96 -13
c148 -20 200 -117 200 -225c0 -183 -151 -241 -313 -241c-80 0 -167 14 -240 54zM322 960h169l-88 -133h-158z" />
    <glyph glyph-name="sacute" unicode="&#x15b;" horiz-adv-x="565" 
d="M287 775h159l-99 -153h-148zM48 31v145c60 -30 142 -47 225 -47c47 0 80 12 80 36c0 23 -14 28 -56 33l-91 11c-87 12 -169 53 -169 168c0 148 137 192 257 192c67 0 161 -14 207 -43v-158c-56 34 -132 60 -208 60c-53 0 -79 -15 -79 -35s10 -28 60 -33l76 -8
c115 -11 182 -60 182 -168c0 -153 -134 -196 -262 -196c-71 0 -162 13 -222 43z" />
    <glyph glyph-name="Scircumflex" unicode="&#x15c;" horiz-adv-x="647" 
d="M58 43v181c76 -48 170 -71 253 -71c70 0 102 16 102 68c0 45 -25 60 -82 68l-107 15c-133 19 -183 99 -183 217c0 185 145 247 302 247c65 0 185 -11 240 -50v-181c-63 44 -155 66 -227 66c-79 0 -118 -19 -118 -65c0 -43 30 -64 77 -70l96 -13
c148 -20 200 -117 200 -225c0 -183 -151 -241 -313 -241c-80 0 -167 14 -240 54zM413 960l103 -132h-155l-30 42l-31 -42h-142l99 132h156z" />
    <glyph glyph-name="scircumflex" unicode="&#x15d;" horiz-adv-x="565" 
d="M364 775l103 -153h-155l-27 69l-34 -69h-142l99 153h156zM48 31v145c60 -30 142 -47 225 -47c47 0 80 12 80 36c0 23 -14 28 -56 33l-91 11c-87 12 -169 53 -169 168c0 148 137 192 257 192c67 0 161 -14 207 -43v-158c-56 34 -132 60 -208 60c-53 0 -79 -15 -79 -35
s10 -28 60 -33l76 -8c115 -11 182 -60 182 -168c0 -153 -134 -196 -262 -196c-71 0 -162 13 -222 43z" />
    <glyph glyph-name="Scedilla" unicode="&#x15e;" horiz-adv-x="647" 
d="M243 -102v94c-64 5 -129 20 -185 51v181c76 -48 170 -71 253 -71c70 0 102 16 102 68c0 45 -25 60 -82 68l-107 15c-133 19 -183 99 -183 217c0 185 145 247 302 247c65 0 185 -11 240 -50v-181c-63 44 -155 66 -227 66c-79 0 -118 -19 -118 -65c0 -43 30 -64 77 -70
l96 -13c148 -20 200 -117 200 -225c0 -162 -119 -226 -258 -238v-35h10c70 0 110 -27 110 -86c0 -60 -41 -108 -121 -108h-112v104h86c13 0 23 3 23 15c0 11 -7 15 -17 16h-89z" />
    <glyph glyph-name="scedilla" unicode="&#x15f;" horiz-adv-x="565" 
d="M440 -124c0 -60 -41 -108 -121 -108h-112v104h86c13 0 23 3 23 15c0 11 -7 15 -17 16h-89v88c-58 6 -118 18 -162 40v145c60 -30 142 -47 225 -47c47 0 80 12 80 36c0 23 -14 28 -56 33l-91 11c-87 12 -169 53 -169 168c0 148 137 192 257 192c67 0 161 -14 207 -43v-158
c-56 34 -132 60 -208 60c-53 0 -79 -15 -79 -35s10 -28 60 -33l76 -8c115 -11 182 -60 182 -168c0 -133 -102 -184 -212 -194v-28h10c70 0 110 -27 110 -86z" />
    <glyph glyph-name="Scaron" unicode="&#x160;" horiz-adv-x="647" 
d="M245 828l-103 132h155l30 -42l31 42h142l-99 -132h-156zM58 43v181c76 -48 170 -71 253 -71c70 0 102 16 102 68c0 45 -25 60 -82 68l-107 15c-133 19 -183 99 -183 217c0 185 145 247 302 247c65 0 185 -11 240 -50v-181c-63 44 -155 66 -227 66
c-79 0 -118 -19 -118 -65c0 -43 30 -64 77 -70l96 -13c148 -20 200 -117 200 -225c0 -183 -151 -241 -313 -241c-80 0 -167 14 -240 54z" />
    <glyph glyph-name="scaron" unicode="&#x161;" horiz-adv-x="565" 
d="M205 622l-103 153h155l30 -63l31 63h142l-99 -153h-156zM48 31v145c60 -30 142 -47 225 -47c47 0 80 12 80 36c0 23 -14 28 -56 33l-91 11c-87 12 -169 53 -169 168c0 148 137 192 257 192c67 0 161 -14 207 -43v-158c-56 34 -132 60 -208 60c-53 0 -79 -15 -79 -35
s10 -28 60 -33l76 -8c115 -11 182 -60 182 -168c0 -153 -134 -196 -262 -196c-71 0 -162 13 -222 43z" />
    <glyph glyph-name="Tcommaaccent" unicode="&#x162;" horiz-adv-x="646" 
d="M632 755v-161h-210v-594h-198v594h-210v161h618zM371 -278h-133l14 185h151z" />
    <glyph glyph-name="tcommaaccent" unicode="&#x163;" horiz-adv-x="441" 
d="M18 413v142h76v146h193v-146h120v-142h-120v-211c0 -53 27 -60 65 -60c20 0 32 2 56 6v-151c-31 -8 -86 -12 -116 -12c-117 0 -198 59 -198 178v250h-76zM292 -278h-133l14 185h151z" />
    <glyph glyph-name="Tcaron" unicode="&#x164;" horiz-adv-x="646" 
d="M632 755v-161h-210v-594h-198v594h-210v161h618zM237 828l-103 132h155l30 -42l31 42h142l-99 -132h-156z" />
    <glyph glyph-name="tcaron" unicode="&#x165;" horiz-adv-x="441" 
d="M18 413v142h76v146h193v-146h120v-142h-120v-211c0 -53 27 -60 65 -60c20 0 32 2 56 6v-151c-31 -8 -86 -12 -116 -12c-117 0 -198 59 -198 178v250h-76zM454 582h-120l14 245h151z" />
    <glyph glyph-name="Tbar" unicode="&#x166;" horiz-adv-x="662" 
d="M640 755v-161h-210v-198h125v-141h-125v-255h-198v255h-122v141h122v198h-210v161h618z" />
    <glyph glyph-name="tbar" unicode="&#x167;" horiz-adv-x="444" 
d="M20 413v142h76v146h193v-146h120v-142h-120v-72h112v-112h-112v-27c0 -53 27 -60 65 -60c20 0 32 2 56 6v-151c-31 -8 -86 -12 -116 -12c-117 0 -198 59 -198 178v66h-66v112h66v72h-76z" />
    <glyph glyph-name="Utilde" unicode="&#x168;" horiz-adv-x="763" 
d="M299 869c-26 0 -56 -19 -80 -35v126c18 17 47 40 80 40c43 0 125 -41 164 -41c26 0 53 18 76 34v-124c-18 -20 -49 -41 -79 -41c-42 0 -124 41 -161 41zM501 755h198v-457c0 -227 -136 -313 -321 -313s-314 86 -314 313v457h199v-434c0 -114 24 -167 117 -167
c68 0 121 29 121 167v434z" />
    <glyph glyph-name="utilde" unicode="&#x169;" 
d="M602 555v-555h-193v72c-34 -53 -85 -87 -169 -87c-118 0 -185 73 -185 213v357h193v-279c0 -82 15 -122 80 -122c61 0 79 38 81 115v286h193zM251 663c-26 0 -56 -19 -80 -35v126c18 17 47 40 80 40c43 0 125 -41 164 -41c26 0 53 18 76 34v-124c-18 -20 -49 -41 -79 -41
c-42 0 -124 41 -161 41z" />
    <glyph glyph-name="Umacron" unicode="&#x16a;" horiz-adv-x="763" 
d="M216 838v118h300v-118h-300zM501 755h198v-457c0 -227 -136 -313 -321 -313s-314 86 -314 313v457h199v-434c0 -114 24 -167 117 -167c68 0 121 29 121 167v434z" />
    <glyph glyph-name="umacron" unicode="&#x16b;" 
d="M602 555v-555h-193v72c-34 -53 -85 -87 -169 -87c-118 0 -185 73 -185 213v357h193v-279c0 -82 15 -122 80 -122c61 0 79 38 81 115v286h193zM193 637v118h275v-118h-275z" />
    <glyph glyph-name="Ubreve" unicode="&#x16c;" horiz-adv-x="763" 
d="M408 1001h135c0 -130 -82 -173 -171 -173c-96 0 -174 48 -174 173h132c0 -49 16 -60 39 -60c20 0 39 8 39 60zM501 755h198v-457c0 -227 -136 -313 -321 -313s-314 86 -314 313v457h199v-434c0 -114 24 -167 117 -167c68 0 121 29 121 167v434z" />
    <glyph glyph-name="ubreve" unicode="&#x16d;" 
d="M602 555v-555h-193v72c-34 -53 -85 -87 -169 -87c-118 0 -185 73 -185 213v357h193v-279c0 -82 15 -122 80 -122c61 0 79 38 81 115v286h193zM356 786h135c0 -130 -72 -163 -161 -163c-96 0 -164 38 -164 163h132c0 -49 6 -60 29 -60c20 0 29 8 29 60z" />
    <glyph glyph-name="Uring" unicode="&#x16e;" horiz-adv-x="763" 
d="M510 940c0 -81 -59 -127 -133 -127c-72 0 -131 45 -131 127s59 132 132 132c72 0 132 -50 132 -132zM428 944c0 20 -10 49 -51 49s-51 -28 -51 -51s10 -51 50 -51c42 0 52 32 52 53zM501 755h198v-457c0 -227 -136 -313 -321 -313s-314 86 -314 313v457h199v-434
c0 -114 24 -167 117 -167c68 0 121 29 121 167v434z" />
    <glyph glyph-name="uring" unicode="&#x16f;" 
d="M602 555v-555h-193v72c-34 -53 -85 -87 -169 -87c-118 0 -185 73 -185 213v357h193v-279c0 -82 15 -122 80 -122c61 0 79 38 81 115v286h193zM470 733c0 -81 -59 -127 -133 -127c-72 0 -131 45 -131 127s59 132 132 132c72 0 132 -50 132 -132zM388 737
c0 20 -10 49 -51 49s-51 -28 -51 -51s10 -51 50 -51c42 0 52 32 52 53z" />
    <glyph glyph-name="Uhungarumlaut" unicode="&#x170;" horiz-adv-x="763" 
d="M501 755h198v-457c0 -227 -136 -313 -321 -313s-314 86 -314 313v457h199v-434c0 -114 24 -167 117 -167c68 0 121 29 121 167v434zM261 960h169l-88 -133h-158zM461 960h169l-88 -133h-158z" />
    <glyph glyph-name="uhungarumlaut" unicode="&#x171;" 
d="M602 555v-555h-193v72c-34 -53 -85 -87 -169 -87c-118 0 -185 73 -185 213v357h193v-279c0 -82 15 -122 80 -122s81 42 81 128v273h193zM436 775h159l-99 -153h-148zM246 775h159l-99 -153h-148z" />
    <glyph glyph-name="Uogonek" unicode="&#x172;" horiz-adv-x="763" 
d="M501 755h198v-457c0 -211 -118 -300 -283 -311c-44 -21 -51 -42 -51 -62c0 -34 23 -40 62 -40h35v-122h-73c-80 0 -138 36 -138 115c0 48 21 86 52 113c-144 21 -239 112 -239 307v457h199v-434c0 -114 24 -167 117 -167c68 0 121 29 121 167v434z" />
    <glyph glyph-name="uogonek" unicode="&#x173;" 
d="M602 555v-555h-23c-60 -24 -70 -47 -70 -70c0 -34 23 -40 62 -40h35v-122h-73c-80 0 -138 36 -138 115c0 51 24 90 58 117h-44v72c-34 -53 -85 -87 -169 -87c-118 0 -185 73 -185 213v357h193v-279c0 -82 15 -122 80 -122s81 42 81 128v273h193z" />
    <glyph glyph-name="Wcircumflex" unicode="&#x174;" horiz-adv-x="1061" 
d="M1068 755l-209 -755h-197l-77 266l-52 212l-57 -208l-82 -270h-197l-199 755h210l101 -517l135 517h189l136 -516l100 516h199zM626 960l103 -132h-155l-30 42l-31 -42h-142l99 132h156z" />
    <glyph glyph-name="wcircumflex" unicode="&#x175;" horiz-adv-x="856" 
d="M849 555l-136 -555h-197l-87 337l-94 -337h-191l-138 555h182l60 -357l104 357h160l102 -359l58 359h177zM516 775l103 -153h-155l-27 69l-34 -69h-142l99 153h156z" />
    <glyph glyph-name="Ycircumflex" unicode="&#x176;" 
d="M666 755l-233 -487v-268h-198v265l-252 490h205l151 -318l133 318h194zM411 960l103 -132h-155l-30 42l-31 -42h-142l99 132h156z" />
    <glyph glyph-name="ycircumflex" unicode="&#x177;" horiz-adv-x="612" 
d="M612 555l-195 -555l-73 -222h-190l70 194l-225 583h201l111 -356l101 356h200zM376 775l103 -153h-155l-27 69l-34 -69h-142l99 153h156z" />
    <glyph glyph-name="Ydieresis" unicode="&#x178;" 
d="M666 755l-233 -487v-268h-198v265l-252 490h205l151 -318l133 318h194zM364 826v145h163v-145h-163zM162 826v145h163v-145h-163z" />
    <glyph glyph-name="Zacute" unicode="&#x179;" horiz-adv-x="656" 
d="M614 755v-161l-356 -433h356v-161h-577v161l355 433h-345v161h567zM329 960h169l-88 -133h-158z" />
    <glyph glyph-name="zacute" unicode="&#x17a;" horiz-adv-x="559" 
d="M520 555v-126l-241 -287h241v-142h-481v126l256 287h-256v142h481zM295 775h159l-99 -153h-148z" />
    <glyph glyph-name="Zdotaccent" unicode="&#x17b;" horiz-adv-x="656" 
d="M614 755v-161l-356 -433h356v-161h-577v161l355 433h-345v161h567zM240 826v155h193v-155h-193z" />
    <glyph glyph-name="zdotaccent" unicode="&#x17c;" horiz-adv-x="559" 
d="M520 555v-126l-241 -287h241v-142h-481v126l256 287h-256v142h481zM186 627v155h193v-155h-193z" />
    <glyph glyph-name="Zcaron" unicode="&#x17d;" horiz-adv-x="656" 
d="M614 755v-161l-356 -433h356v-161h-577v161l355 433h-345v161h567zM256 828l-103 132h155l30 -42l31 42h142l-99 -132h-156z" />
    <glyph glyph-name="zcaron" unicode="&#x17e;" horiz-adv-x="559" 
d="M520 555v-126l-241 -287h241v-142h-481v126l256 287h-256v142h481zM208 622l-103 153h155l30 -63l31 63h142l-99 -153h-156z" />
    <glyph glyph-name="uni018E" unicode="&#x18e;" horiz-adv-x="650" 
d="M39 0v161h342v137h-290v161h290v135h-328v161h526v-755h-540z" />
    <glyph glyph-name="uni018F" unicode="&#x18f;" horiz-adv-x="722" 
d="M35 443h446c-4 97 -50 156 -187 156c-79 0 -155 -19 -218 -46v171c71 33 169 45 234 45c209 0 370 -122 370 -349v-92c0 -227 -138 -343 -323 -343s-322 116 -322 343v115zM352 155c65 0 123 47 129 147h-248c5 -75 38 -147 119 -147z" />
    <glyph glyph-name="florin" unicode="&#x192;" horiz-adv-x="580" 
d="M351 512v-86h171v-150h-171v-280c0 -146 -66 -230 -225 -230c-49 0 -111 8 -140 23v165c33 -20 79 -25 100 -25c57 0 77 35 77 84v263h-116v150h116v113c0 140 119 230 247 230c36 0 121 -7 154 -23v-165c-47 18 -69 25 -126 25c-48 0 -87 -17 -87 -94z" />
    <glyph glyph-name="Ohorn" unicode="&#x1a0;" horiz-adv-x="747" 
d="M44 318v112c0 227 137 339 322 339c37 0 73 -5 106 -14h56c49 0 62 34 62 68v66h141v-77c0 -61 -17 -138 -102 -166c38 -54 60 -126 60 -216v-112c0 -226 -138 -333 -323 -333s-322 106 -322 333zM242 437v-126c0 -81 17 -166 123 -166c108 0 126 84 126 166v126
c0 88 -12 172 -126 172c-102 0 -123 -84 -123 -172z" />
    <glyph glyph-name="ohorn" unicode="&#x1a1;" horiz-adv-x="663" 
d="M37 244v66c0 182 120 259 282 259c54 0 104 -9 146 -27c47 1 60 34 60 68v66h141v-77c0 -58 -15 -131 -90 -162c17 -35 27 -77 27 -127v-66c0 -182 -122 -259 -284 -259s-282 77 -282 259zM239 305v-56c0 -92 24 -122 80 -122s82 30 82 122v56c0 92 -26 122 -82 122
s-80 -30 -80 -122z" />
    <glyph glyph-name="Uhorn" unicode="&#x1af;" horiz-adv-x="793" 
d="M501 755h121c46 1 59 35 59 68v66h141v-77c0 -66 -20 -150 -123 -172v-342c0 -227 -136 -313 -321 -313s-314 86 -314 313v457h199v-434c0 -114 24 -167 117 -167c68 0 121 29 121 167v434z" />
    <glyph glyph-name="uhorn" unicode="&#x1b0;" horiz-adv-x="728" 
d="M55 555h193v-279c0 -82 15 -122 80 -122s81 42 81 128v273h148c49 0 62 34 62 68v66h141v-77c0 -73 -24 -168 -158 -177v-435h-193v72c-34 -53 -85 -87 -169 -87c-118 0 -185 73 -185 213v357z" />
    <glyph glyph-name="uni01C4" unicode="&#x1c4;" horiz-adv-x="1387" 
d="M374 755c185 0 313 -108 313 -335v-92c0 -227 -128 -328 -313 -328h-303v755h303zM1345 755v-161l-356 -433h356v-161h-577v161l355 433h-345v161h567zM374 586h-105v-415h105c81 0 115 36 115 150v106c0 86 -22 159 -115 159zM987 828l-103 132h155l30 -42l31 42h142
l-99 -132h-156z" />
    <glyph glyph-name="uni01C5" unicode="&#x1c5;" horiz-adv-x="1290" 
d="M374 755c185 0 313 -108 313 -335v-92c0 -227 -128 -328 -313 -328h-303v755h303zM1251 555v-126l-241 -287h241v-142h-481v126l256 287h-256v142h481zM374 586h-105v-415h105c81 0 115 36 115 150v106c0 86 -22 159 -115 159zM939 622l-103 153h155l30 -63l31 63h142
l-99 -153h-156z" />
    <glyph glyph-name="uni01C6" unicode="&#x1c6;" horiz-adv-x="1218" 
d="M407 504v251h193v-755h-193v53c-30 -43 -75 -68 -144 -68c-143 0 -223 67 -223 249v86c0 171 78 249 223 249c68 0 114 -24 144 -65zM1179 555v-126l-241 -287h241v-142h-481v126l256 287h-256v142h481zM328 427c-53 0 -85 -30 -85 -102v-96c0 -72 32 -102 83 -102
c52 0 78 29 81 92v129c-6 60 -36 79 -79 79zM867 622l-103 153h155l30 -63l31 63h142l-99 -153h-156z" />
    <glyph glyph-name="uni01C7" unicode="&#x1c7;" horiz-adv-x="1100" 
d="M835 230v354h-215v171h413v-560c0 -140 -121 -210 -252 -210c-67 0 -131 19 -162 34v157c27 -10 78 -24 127 -24c62 0 89 23 89 78zM561 161v-161h-490v755h198v-594h292z" />
    <glyph glyph-name="uni01C8" unicode="&#x1c8;" horiz-adv-x="893" 
d="M561 161v-161h-490v755h198v-594h292zM834 555v-575c0 -175 -101 -214 -200 -214c-39 0 -78 5 -102 13v152c20 -4 38 -6 53 -6c34 0 56 16 56 69v561h193zM641 623v155h193v-155h-193z" />
    <glyph glyph-name="uni01C9" unicode="&#x1c9;" horiz-adv-x="679" 
d="M56 145v610h193v-533c0 -62 10 -82 53 -82c19 0 37 3 48 8v-151c-31 -8 -75 -12 -109 -12c-99 0 -185 41 -185 160zM620 555v-575c0 -175 -101 -214 -200 -214c-39 0 -78 5 -102 13v152c20 -4 38 -6 53 -6c34 0 56 16 56 69v561h193zM427 623v155h193v-155h-193z" />
    <glyph glyph-name="uni01CA" unicode="&#x1ca;" horiz-adv-x="1321" 
d="M724 755v-755h-188l-282 444l5 -185v-259h-188v755h188l282 -444l-5 200v244h188zM1056 230v354h-215v171h413v-560c0 -140 -121 -210 -252 -210c-67 0 -131 19 -162 34v157c27 -10 78 -24 127 -24c62 0 89 23 89 78z" />
    <glyph glyph-name="uni01CB" unicode="&#x1cb;" horiz-adv-x="1114" 
d="M724 755v-755h-188l-282 444l5 -185v-259h-188v755h188l282 -444l-5 200v244h188zM1055 555v-575c0 -175 -101 -214 -200 -214c-39 0 -78 5 -102 13v152c20 -4 38 -6 53 -6c34 0 56 16 56 69v561h193zM862 623v155h193v-155h-193z" />
    <glyph glyph-name="uni01CC" unicode="&#x1cc;" horiz-adv-x="980" 
d="M59 0v555h193v-74c34 54 84 88 169 88c118 0 185 -73 185 -213v-356h-193v278c0 82 -15 122 -80 122c-62 0 -80 -38 -81 -116v-284h-193zM921 555v-575c0 -175 -101 -214 -200 -214c-39 0 -78 5 -102 13v152c20 -4 38 -6 53 -6c34 0 56 16 56 69v561h193zM728 623v155
h193v-155h-193z" />
    <glyph glyph-name="uni01CD" unicode="&#x1cd;" horiz-adv-x="709" 
d="M-15 0l272 755h207l248 -755h-220l-36 128h-233l-39 -128h-199zM274 828l-103 132h155l30 -42l31 42h142l-99 -132h-156zM345 522l-76 -246h145z" />
    <glyph glyph-name="uni01CE" unicode="&#x1ce;" horiz-adv-x="614" 
d="M560 0h-193v61c-29 -52 -74 -76 -148 -76c-112 0 -186 67 -186 166c0 117 70 176 222 176h111c-5 53 -24 70 -100 70c-68 0 -131 -13 -203 -55v167c65 40 148 60 240 60c163 0 257 -62 257 -214v-355zM233 622l-103 153h155l30 -63l31 63h142l-99 -153h-156zM283 114
c48 0 81 17 84 93v11h-65c-68 0 -85 -18 -85 -55c0 -33 22 -49 66 -49z" />
    <glyph glyph-name="uni01CF" unicode="&#x1cf;" horiz-adv-x="340" 
d="M93 828l-103 132h155l30 -42l31 42h142l-99 -132h-156zM269 755v-755h-198v755h198z" />
    <glyph glyph-name="uni01D0" unicode="&#x1d0;" horiz-adv-x="311" 
d="M76 622l-103 153h155l30 -63l31 63h142l-99 -153h-156zM59 0v555h193v-555h-193z" />
    <glyph glyph-name="uni01D1" unicode="&#x1d1;" horiz-adv-x="733" 
d="M288 828l-103 132h155l30 -42l31 42h142l-99 -132h-156zM44 318v112c0 227 137 339 322 339s323 -113 323 -339v-112c0 -226 -138 -333 -323 -333s-322 106 -322 333zM242 437v-126c0 -81 17 -166 123 -166c108 0 126 84 126 166v126c0 88 -12 172 -126 172
c-102 0 -123 -84 -123 -172z" />
    <glyph glyph-name="uni01D2" unicode="&#x1d2;" horiz-adv-x="640" 
d="M249 622l-103 153h155l30 -63l31 63h142l-99 -153h-156zM37 244v66c0 182 120 259 282 259s284 -77 284 -259v-66c0 -182 -122 -259 -284 -259s-282 77 -282 259zM239 305v-56c0 -92 24 -122 80 -122s82 30 82 122v56c0 92 -26 122 -82 122s-80 -30 -80 -122z" />
    <glyph glyph-name="uni01D3" unicode="&#x1d3;" horiz-adv-x="763" 
d="M307 828l-103 132h155l30 -42l31 42h142l-99 -132h-156zM501 755h198v-457c0 -227 -136 -313 -321 -313s-314 86 -314 313v457h199v-434c0 -114 24 -167 117 -167c68 0 121 29 121 167v434z" />
    <glyph glyph-name="uni01D4" unicode="&#x1d4;" 
d="M602 555v-555h-193v72c-34 -53 -85 -87 -169 -87c-118 0 -185 73 -185 213v357h193v-279c0 -82 15 -122 80 -122s81 42 81 128v273h193zM259 622l-103 153h155l30 -63l31 63h142l-99 -153h-156z" />
    <glyph glyph-name="uni01D5" unicode="&#x1d5;" horiz-adv-x="763" 
d="M197 806v145h163v-145h-163zM399 806v145h163v-145h-163zM501 755h198v-457c0 -227 -136 -313 -321 -313s-314 86 -314 313v457h199v-434c0 -114 24 -167 117 -167c68 0 121 29 121 167v434zM242 991v118h275v-118h-275z" />
    <glyph glyph-name="uni01D6" unicode="&#x1d6;" 
d="M602 555v-555h-193v72c-34 -53 -85 -87 -169 -87c-118 0 -185 73 -185 213v357h193v-279c0 -82 15 -122 80 -122c61 0 79 38 81 115v286h193zM204 777v118h275v-118h-275zM360 597v145h163v-145h-163zM158 597v145h163v-145h-163z" />
    <glyph glyph-name="uni01D7" unicode="&#x1d7;" horiz-adv-x="763" 
d="M205 806v145h163v-145h-163zM407 806v145h163v-145h-163zM394 1122h169l-88 -133h-158zM501 755h198v-457c0 -227 -136 -313 -321 -313s-314 86 -314 313v457h199v-434c0 -114 24 -167 117 -167c68 0 121 29 121 167v434z" />
    <glyph glyph-name="uni01D8" unicode="&#x1d8;" 
d="M602 555v-555h-193v72c-34 -53 -85 -87 -169 -87c-118 0 -185 73 -185 213v357h193v-279c0 -82 15 -122 80 -122c61 0 79 38 81 115v286h193zM152 597v145h163v-145h-163zM354 597v145h163v-145h-163zM355 932h159l-99 -153h-148z" />
    <glyph glyph-name="uni01D9" unicode="&#x1d9;" horiz-adv-x="763" 
d="M194 806v145h163v-145h-163zM396 806v145h163v-145h-163zM501 755h198v-457c0 -227 -136 -313 -321 -313s-314 86 -314 313v457h199v-434c0 -114 24 -167 117 -167c68 0 121 29 121 167v434zM298 986l-103 132h155l30 -42l31 42h142l-99 -132h-156z" />
    <glyph glyph-name="uni01DA" unicode="&#x1da;" 
d="M602 555v-555h-193v72c-34 -53 -85 -87 -169 -87c-118 0 -185 73 -185 213v357h193v-279c0 -82 15 -122 80 -122s81 42 81 128v273h193zM245 766l-103 153h155l30 -63l31 63h142l-99 -153h-156zM347 597v145h163v-145h-163zM145 597v145h163v-145h-163z" />
    <glyph glyph-name="uni01DB" unicode="&#x1db;" horiz-adv-x="763" 
d="M230 1113h169l77 -133h-158zM197 806v145h163v-145h-163zM399 806v145h163v-145h-163zM501 755h198v-457c0 -227 -136 -313 -321 -313s-314 86 -314 313v457h199v-434c0 -114 24 -167 117 -167c68 0 121 29 121 167v434z" />
    <glyph glyph-name="uni01DC" unicode="&#x1dc;" 
d="M602 555v-555h-193v72c-34 -53 -85 -87 -169 -87c-118 0 -185 73 -185 213v357h193v-279c0 -82 15 -122 80 -122c61 0 79 38 81 115v286h193zM347 597v145h163v-145h-163zM145 597v145h163v-145h-163zM156 923h159l88 -153h-148z" />
    <glyph glyph-name="uni01DD" unicode="&#x1dd;" horiz-adv-x="612" 
d="M308 -15c-162 0 -269 87 -269 259v94h337c-9 64 -47 79 -123 79c-65 0 -124 -5 -204 -39v137c76 42 144 54 242 54c201 0 284 -91 284 -259v-66c0 -172 -105 -259 -267 -259zM308 127c45 0 66 29 69 98h-141c3 -69 20 -98 72 -98z" />
    <glyph glyph-name="uni01E2" unicode="&#x1e2;" horiz-adv-x="1010" 
d="M-19 0l315 755h658v-171h-328v-115h290v-171h-290v-127h342v-171h-540v128h-197l-51 -128h-199zM532 838v118h300v-118h-300zM414 584l-123 -308h137v308h-14z" />
    <glyph glyph-name="uni01E3" unicode="&#x1e3;" horiz-adv-x="942" 
d="M33 159c0 105 70 168 222 168h111c-5 53 -25 70 -101 70c-67 0 -130 -13 -202 -55v167c62 39 151 60 233 60c70 0 124 -16 160 -51c45 34 106 51 178 51c162 0 269 -87 269 -259v-94h-337c9 -66 48 -79 131 -79c52 0 117 5 196 39v-137c-76 -43 -155 -54 -231 -54
c-117 0 -195 26 -241 78c-36 -55 -98 -78 -179 -78c-137 0 -209 67 -209 174zM313 637v118h275v-118h-275zM283 114c50 0 83 19 84 104h-65c-66 0 -85 -18 -85 -53s20 -51 66 -51zM636 427c-47 0 -69 -28 -72 -98h141c-2 67 -20 98 -69 98z" />
    <glyph glyph-name="uni01E6" unicode="&#x1e6;" horiz-adv-x="719" 
d="M668 446v-409c-82 -37 -165 -52 -265 -52c-191 0 -359 81 -359 343v92c0 260 174 349 363 349c87 0 158 -14 233 -47v-174c-73 40 -135 51 -212 51c-106 0 -186 -37 -186 -172v-106c0 -134 78 -165 165 -165c25 0 44 1 63 4v125h-103v161h301zM310 828l-103 132h155
l30 -42l31 42h142l-99 -132h-156z" />
    <glyph glyph-name="uni01E7" unicode="&#x1e7;" horiz-adv-x="659" 
d="M600 555v-510c0 -200 -137 -279 -331 -279c-107 0 -150 18 -201 38v157c61 -27 131 -39 202 -39c96 0 137 43 137 124v32c-30 -43 -75 -68 -144 -68c-143 0 -223 67 -223 249v61c0 171 78 249 223 249c68 0 114 -24 144 -65v51h193zM328 427c-53 0 -85 -30 -85 -102v-71
c0 -72 32 -102 83 -102c55 0 81 32 81 102v94c-6 60 -36 79 -79 79zM269 622l-103 153h155l30 -63l31 63h142l-99 -153h-156z" />
    <glyph glyph-name="uni01E8" unicode="&#x1e8;" horiz-adv-x="709" 
d="M269 755v-296h58l163 296h210l-202 -356l206 -399h-227l-137 298h-71v-298h-198v755h198zM288 828l-103 132h155l30 -42l31 42h142l-99 -132h-156z" />
    <glyph glyph-name="uni01E9" unicode="&#x1e9;" horiz-adv-x="612" 
d="M59 0v755h193v-408h51l88 208h219l-160 -250l160 -305h-216l-89 206h-53v-206h-193zM266 798l-103 132h155l30 -42l31 42h142l-99 -132h-156z" />
    <glyph glyph-name="uni01EA" unicode="&#x1ea;" horiz-adv-x="733" 
d="M44 318v112c0 227 137 339 322 339s323 -113 323 -339v-112c0 -210 -119 -317 -285 -331c-36 -19 -42 -38 -42 -57c0 -34 23 -40 62 -40h35v-122h-73c-80 0 -138 36 -138 115c0 46 19 81 47 108c-148 24 -251 130 -251 327zM242 437v-126c0 -81 17 -166 123 -166
c108 0 126 84 126 166v126c0 88 -12 172 -126 172c-102 0 -123 -84 -123 -172z" />
    <glyph glyph-name="uni01EB" unicode="&#x1eb;" horiz-adv-x="640" 
d="M37 244v66c0 182 120 259 282 259s284 -77 284 -259v-66c0 -152 -86 -232 -208 -253c-43 -21 -51 -41 -51 -61c0 -34 23 -40 62 -40h35v-122h-73c-80 0 -138 36 -138 115c0 44 17 78 44 105c-139 13 -237 91 -237 256zM239 305v-56c0 -92 24 -122 80 -122s82 30 82 122
v56c0 92 -26 122 -82 122s-80 -30 -80 -122z" />
    <glyph glyph-name="uni01EC" unicode="&#x1ec;" horiz-adv-x="733" 
d="M248 -117c0 46 19 81 47 108c-148 24 -251 130 -251 327v112c0 227 137 339 322 339s323 -113 323 -339v-112c0 -210 -119 -317 -285 -331c-36 -19 -42 -38 -42 -57c0 -34 23 -40 62 -40h35v-122h-73c-80 0 -138 36 -138 115zM242 437v-126c0 -81 17 -166 123 -166
c108 0 126 84 126 166v126c0 88 -12 172 -126 172c-102 0 -123 -84 -123 -172zM208 838v118h300v-118h-300z" />
    <glyph glyph-name="uni01ED" unicode="&#x1ed;" horiz-adv-x="640" 
d="M230 -117c0 44 17 78 44 105c-139 13 -237 91 -237 256v66c0 182 120 259 282 259s284 -77 284 -259v-66c0 -152 -86 -232 -208 -253c-43 -21 -51 -41 -51 -61c0 -34 23 -40 62 -40h35v-122h-73c-80 0 -138 36 -138 115zM239 305v-56c0 -92 24 -122 80 -122s82 30 82 122
v56c0 92 -26 122 -82 122s-80 -30 -80 -122zM183 637v118h275v-118h-275z" />
    <glyph glyph-name="uni01EE" unicode="&#x1ee;" horiz-adv-x="647" 
d="M49 594v161h546v-161l-208 -157c163 -16 215 -111 215 -214c0 -123 -68 -234 -300 -234c-72 0 -189 16 -259 60v175c76 -48 163 -70 246 -70c73 0 113 24 113 74c0 51 -44 70 -120 70h-136v125l209 171h-306zM237 828l-103 132h155l30 -42l31 42h142l-99 -132h-156z" />
    <glyph glyph-name="uni01EF" unicode="&#x1ef;" horiz-adv-x="556" 
d="M519 429l-206 -209c128 -15 212 -85 212 -216c0 -144 -98 -238 -306 -238c-72 0 -155 18 -203 45v151c51 -30 134 -44 175 -44c98 0 136 27 136 89c0 53 -45 79 -144 79h-101v118l193 196h-253v155h497v-126zM193 622l-103 153h155l30 -63l31 63h142l-99 -153h-156z" />
    <glyph glyph-name="uni01F1" unicode="&#x1f1;" horiz-adv-x="1387" 
d="M374 755c185 0 313 -108 313 -335v-92c0 -227 -128 -328 -313 -328h-303v755h303zM1345 755v-161l-356 -433h356v-161h-577v161l355 433h-345v161h567zM374 586h-105v-415h105c81 0 115 36 115 150v106c0 86 -22 159 -115 159z" />
    <glyph glyph-name="uni01F2" unicode="&#x1f2;" horiz-adv-x="1290" 
d="M374 755c185 0 313 -108 313 -335v-92c0 -227 -128 -328 -313 -328h-303v755h303zM1251 555v-126l-241 -287h241v-142h-481v126l256 287h-256v142h481zM374 586h-105v-415h105c81 0 115 36 115 150v106c0 86 -22 159 -115 159z" />
    <glyph glyph-name="uni01F3" unicode="&#x1f3;" horiz-adv-x="1218" 
d="M407 504v251h193v-755h-193v53c-30 -43 -75 -68 -144 -68c-143 0 -223 67 -223 249v86c0 171 78 249 223 249c68 0 114 -24 144 -65zM1179 555v-126l-241 -287h241v-142h-481v126l256 287h-256v142h481zM328 427c-53 0 -85 -30 -85 -102v-96c0 -72 32 -102 83 -102
c52 0 78 29 81 92v129c-6 60 -36 79 -79 79z" />
    <glyph glyph-name="uni01F4" unicode="&#x1f4;" horiz-adv-x="719" 
d="M668 446v-409c-82 -37 -165 -52 -265 -52c-191 0 -359 81 -359 343v92c0 260 174 349 363 349c87 0 158 -14 233 -47v-174c-73 40 -135 51 -212 51c-106 0 -186 -37 -186 -172v-106c0 -134 78 -165 165 -165c25 0 44 1 63 4v125h-103v161h301zM385 960h169l-88 -133h-158
z" />
    <glyph glyph-name="uni01F5" unicode="&#x1f5;" horiz-adv-x="659" 
d="M600 555v-510c0 -200 -137 -279 -331 -279c-107 0 -150 18 -201 38v157c61 -27 131 -39 202 -39c96 0 137 43 137 124v32c-30 -43 -75 -68 -144 -68c-143 0 -223 67 -223 249v61c0 171 78 249 223 249c68 0 114 -24 144 -65v51h193zM328 427c-53 0 -85 -30 -85 -102v-71
c0 -72 32 -102 83 -102c52 0 78 29 81 92v104c-6 60 -36 79 -79 79zM350 775h159l-99 -153h-148z" />
    <glyph glyph-name="uni01F8" unicode="&#x1f8;" horiz-adv-x="795" 
d="M724 755v-755h-188l-282 444l5 -185v-259h-188v755h188l282 -444l-5 200v244h188zM227 960h169l77 -133h-158z" />
    <glyph glyph-name="uni01F9" unicode="&#x1f9;" 
d="M59 0v555h193v-74c34 54 84 88 169 88c118 0 185 -73 185 -213v-356h-193v278c0 82 -15 122 -80 122c-62 0 -80 -38 -81 -116v-284h-193zM150 775h159l88 -153h-148z" />
    <glyph glyph-name="uni01FA" unicode="&#x1fa;" horiz-adv-x="709" 
d="M-15 0l272 755h207l248 -755h-220l-36 128h-233l-39 -128h-199zM498 922c0 -81 -59 -127 -133 -127c-72 0 -131 45 -131 127s59 132 132 132c72 0 132 -50 132 -132zM362 1215h169l-88 -133h-158zM345 522l-76 -246h145zM416 926c0 20 -10 49 -51 49s-51 -28 -51 -51
s10 -51 50 -51c42 0 52 32 52 53z" />
    <glyph glyph-name="uni01FB" unicode="&#x1fb;" horiz-adv-x="614" 
d="M560 0h-193v61c-29 -52 -74 -76 -148 -76c-112 0 -186 67 -186 166c0 117 70 176 222 176h111c-5 53 -24 70 -100 70c-68 0 -131 -13 -203 -55v167c65 40 148 60 240 60c163 0 257 -62 257 -214v-355zM439 719c0 -81 -59 -127 -133 -127c-72 0 -131 45 -131 127
s59 132 132 132c72 0 132 -50 132 -132zM300 1008h169l-88 -133h-158zM283 114c50 0 83 19 84 104h-65c-68 0 -85 -18 -85 -55c0 -33 22 -49 66 -49zM357 723c0 20 -10 49 -51 49s-51 -28 -51 -51s10 -51 50 -51c42 0 52 32 52 53z" />
    <glyph glyph-name="AEacute" unicode="&#x1fc;" horiz-adv-x="1010" 
d="M-19 0l315 755h658v-171h-328v-115h290v-171h-290v-127h342v-171h-540v128h-197l-51 -128h-199zM414 584l-123 -308h137v308h-14zM668 960h169l-88 -133h-158z" />
    <glyph glyph-name="aeacute" unicode="&#x1fd;" horiz-adv-x="942" 
d="M33 159c0 105 70 168 222 168h111c-5 53 -25 70 -101 70c-67 0 -130 -13 -202 -55v167c62 39 151 60 233 60c70 0 124 -16 160 -51c45 34 106 51 178 51c162 0 269 -87 269 -259v-94h-337c9 -66 48 -79 131 -79c52 0 117 5 196 39v-137c-76 -43 -155 -54 -231 -54
c-117 0 -195 26 -241 78c-36 -55 -98 -78 -179 -78c-137 0 -209 67 -209 174zM459 775h159l-99 -153h-148zM283 114c50 0 83 19 84 104h-65c-66 0 -85 -18 -85 -53s20 -51 66 -51zM636 427c-47 0 -69 -28 -72 -98h141c-2 67 -20 98 -69 98z" />
    <glyph glyph-name="Oslashacute" unicode="&#x1fe;" horiz-adv-x="734" 
d="M45 318v112c0 227 137 339 322 339c63 0 121 -13 169 -40l18 26h136l-68 -99c43 -55 68 -131 68 -226v-112c0 -226 -138 -333 -323 -333c-67 0 -127 14 -177 42l-18 -26h-127l64 95c-41 54 -64 127 -64 222zM492 437c0 10 0 19 -1 29l-203 -297c18 -15 43 -24 78 -24
c108 0 126 84 126 166v126zM243 437v-143l199 295c-18 13 -43 20 -76 20c-102 0 -123 -84 -123 -172zM374 960h169l-88 -133h-158z" />
    <glyph glyph-name="oslashacute" unicode="&#x1ff;" horiz-adv-x="640" 
d="M37 244v66c0 182 120 259 282 259c55 0 105 -9 148 -28l22 29h116l-63 -82c38 -41 61 -100 61 -178v-66c0 -182 -122 -259 -284 -259c-55 0 -104 9 -146 27l-21 -27h-115l61 79c-39 42 -61 101 -61 180zM328 775h159l-99 -153h-148zM239 305v-58l129 166
c-13 10 -29 14 -49 14c-56 0 -80 -30 -80 -122zM401 249v57l-130 -167c12 -8 28 -12 48 -12c56 0 82 30 82 122z" />
    <glyph glyph-name="Scommaaccent" unicode="&#x218;" horiz-adv-x="647" 
d="M358 -278h-133l14 185h151zM58 43v181c76 -48 170 -71 253 -71c70 0 102 16 102 68c0 45 -25 60 -82 68l-107 15c-133 19 -183 99 -183 217c0 185 145 247 302 247c65 0 185 -11 240 -50v-181c-63 44 -155 66 -227 66c-79 0 -118 -19 -118 -65c0 -43 30 -64 77 -70
l96 -13c148 -20 200 -117 200 -225c0 -183 -151 -241 -313 -241c-80 0 -167 14 -240 54z" />
    <glyph glyph-name="scommaaccent" unicode="&#x219;" horiz-adv-x="565" 
d="M316 -278h-133l14 185h151zM48 31v145c60 -30 142 -47 225 -47c47 0 80 12 80 36c0 23 -14 28 -56 33l-91 11c-87 12 -169 53 -169 168c0 148 137 192 257 192c67 0 161 -14 207 -43v-158c-56 34 -132 60 -208 60c-53 0 -79 -15 -79 -35s10 -28 60 -33l76 -8
c115 -11 182 -60 182 -168c0 -153 -134 -196 -262 -196c-71 0 -162 13 -222 43z" />
    <glyph glyph-name="uni021A" unicode="&#x21a;" horiz-adv-x="646" 
d="M632 755v-161h-210v-594h-198v594h-210v161h618zM371 -278h-133l14 185h151z" />
    <glyph glyph-name="uni021B" unicode="&#x21b;" horiz-adv-x="441" 
d="M18 413v142h76v146h193v-146h120v-142h-120v-211c0 -53 27 -60 65 -60c20 0 32 2 56 6v-151c-31 -8 -86 -12 -116 -12c-117 0 -198 59 -198 178v250h-76zM294 -278h-133l14 185h151z" />
    <glyph glyph-name="uni021C" unicode="&#x21c;" horiz-adv-x="645" 
d="M297 -11c-72 0 -183 16 -253 60v175c76 -44 154 -65 237 -65c80 0 122 25 122 75c0 51 -31 72 -107 72h-139v149h137c67 0 92 34 92 72c0 49 -32 76 -129 76c-67 0 -143 -26 -205 -64v174c63 34 160 55 244 55c204 0 295 -88 295 -209c0 -84 -42 -133 -117 -164
c76 -24 129 -81 129 -179c0 -113 -64 -227 -306 -227z" />
    <glyph glyph-name="uni021D" unicode="&#x21d;" horiz-adv-x="560" 
d="M244 569c203 0 272 -101 272 -208c0 -89 -54 -141 -122 -171c80 -28 134 -94 134 -193c0 -124 -87 -231 -297 -231c-88 0 -164 18 -212 45v160c51 -30 130 -43 181 -43c93 0 130 36 130 90c0 58 -35 80 -126 80h-110v146h110c97 0 121 38 121 84c0 30 -22 78 -123 78
c-48 0 -105 -12 -177 -51v162c64 35 147 52 219 52z" />
    <glyph glyph-name="uni021E" unicode="&#x21e;" horiz-adv-x="801" 
d="M730 755v-755h-198v308h-263v-308h-198v755h198v-276h263v276h198zM318 828l-103 132h155l30 -42l31 42h142l-99 -132h-156z" />
    <glyph glyph-name="uni021F" unicode="&#x21f;" 
d="M59 0v755h193v-274c34 54 84 88 169 88c118 0 185 -73 185 -213v-356h-193v278c0 82 -15 122 -80 122c-62 0 -80 -38 -81 -116v-284h-193zM81 798l-103 132h155l30 -42l31 42h142l-99 -132h-156z" />
    <glyph glyph-name="uni0226" unicode="&#x226;" horiz-adv-x="709" 
d="M-15 0l272 755h207l248 -755h-220l-36 128h-233l-39 -128h-199zM261 826v155h193v-155h-193zM345 522l-76 -246h145z" />
    <glyph glyph-name="uni0227" unicode="&#x227;" horiz-adv-x="614" 
d="M560 0h-193v61c-29 -52 -74 -76 -148 -76c-112 0 -186 67 -186 166c0 117 70 176 222 176h111c-5 53 -24 70 -100 70c-68 0 -131 -13 -203 -55v167c65 40 148 60 240 60c163 0 257 -62 257 -214v-355zM223 627v155h193v-155h-193zM283 114c50 0 83 19 84 104h-65
c-68 0 -85 -18 -85 -55c0 -33 22 -49 66 -49z" />
    <glyph glyph-name="uni0228" unicode="&#x228;" horiz-adv-x="652" 
d="M287 -97v97h-216v755h526v-161h-328v-135h290v-161h-290v-137h342v-161h-214v-38h10c70 0 110 -27 110 -86c0 -60 -41 -108 -121 -108h-112v104h86c13 0 23 3 23 15c0 11 -7 15 -17 16h-89z" />
    <glyph glyph-name="uni0229" unicode="&#x229;" horiz-adv-x="613" 
d="M502 -124c0 -60 -41 -108 -121 -108h-112v104h86c13 0 23 3 23 15s-9 16 -22 16h-84v84c-165 14 -234 103 -234 257v66c0 172 105 259 267 259s269 -87 269 -259v-94h-337c9 -64 47 -79 123 -79c65 0 124 5 204 39v-137c-60 -33 -114 -47 -182 -52v-25h10
c70 0 110 -27 110 -86zM305 427c-45 0 -67 -29 -70 -98h141c-2 69 -20 98 -71 98z" />
    <glyph glyph-name="uni022E" unicode="&#x22e;" horiz-adv-x="733" 
d="M260 826v155h193v-155h-193zM44 318v112c0 227 137 339 322 339s323 -113 323 -339v-112c0 -226 -138 -333 -323 -333s-322 106 -322 333zM242 437v-126c0 -81 17 -166 123 -166c108 0 126 84 126 166v126c0 88 -12 172 -126 172c-102 0 -123 -84 -123 -172z" />
    <glyph glyph-name="uni022F" unicode="&#x22f;" horiz-adv-x="640" 
d="M37 244v66c0 182 120 259 282 259s284 -77 284 -259v-66c0 -182 -122 -259 -284 -259s-282 77 -282 259zM239 305v-56c0 -92 24 -122 80 -122s82 30 82 122v56c0 92 -26 122 -82 122s-80 -30 -80 -122zM215 627v155h193v-155h-193z" />
    <glyph glyph-name="uni0232" unicode="&#x232;" 
d="M666 755l-233 -487v-268h-198v265l-252 490h205l151 -318l133 318h194zM193 838v118h300v-118h-300z" />
    <glyph glyph-name="uni0233" unicode="&#x233;" horiz-adv-x="612" 
d="M612 555l-195 -555l-73 -222h-190l70 194l-225 583h201l111 -356l101 356h200zM173 638v118h275v-118h-275z" />
    <glyph glyph-name="uni0237" unicode="&#x237;" horiz-adv-x="319" 
d="M260 555v-575c0 -175 -94 -214 -193 -214c-39 0 -66 5 -109 13v153c20 -4 38 -7 53 -7c34 0 56 16 56 69v561h193z" />
    <glyph glyph-name="uni0259" unicode="&#x259;" horiz-adv-x="612" 
d="M308 -15c-162 0 -269 87 -269 259v94h337c-9 64 -47 79 -123 79c-65 0 -124 -5 -204 -39v137c76 42 144 54 242 54c201 0 284 -91 284 -259v-66c0 -172 -105 -259 -267 -259zM308 127c45 0 66 29 69 98h-141c3 -69 20 -98 72 -98z" />
    <glyph glyph-name="uni02BC" unicode="&#x2bc;" horiz-adv-x="259" 
d="M40 572c13 37 26 93 26 145c0 14 -1 26 -3 39h152c2 -12 3 -25 3 -39c0 -50 -12 -109 -25 -145h-153z" />
    <glyph glyph-name="circumflex" unicode="&#x2c6;" horiz-adv-x="500" 
d="M326 775l103 -153h-155l-27 69l-34 -69h-142l99 153h156z" />
    <glyph glyph-name="caron" unicode="&#x2c7;" horiz-adv-x="563" 
d="M186 622l-103 153h155l30 -63l31 63h142l-99 -153h-156z" />
    <glyph glyph-name="breve" unicode="&#x2d8;" horiz-adv-x="531" 
d="M293 786h135c0 -130 -72 -163 -161 -163c-96 0 -164 38 -164 163h132c0 -49 6 -60 29 -60c20 0 29 8 29 60z" />
    <glyph glyph-name="dotaccent" unicode="&#x2d9;" horiz-adv-x="427" 
d="M130 627v155h193v-155h-193z" />
    <glyph glyph-name="ring" unicode="&#x2da;" horiz-adv-x="475" 
d="M392 733c0 -81 -59 -127 -133 -127c-72 0 -131 45 -131 127s59 132 132 132c72 0 132 -50 132 -132zM310 737c0 20 -10 49 -51 49s-51 -28 -51 -51s10 -51 50 -51c42 0 52 32 52 53z" />
    <glyph glyph-name="ogonek" unicode="&#x2db;" horiz-adv-x="442" 
d="M210 -117c0 89 73 140 146 161l49 -40c-70 -26 -81 -50 -81 -74c0 -34 23 -40 62 -40h35v-122h-73c-80 0 -138 36 -138 115z" />
    <glyph glyph-name="tilde" unicode="&#x2dc;" horiz-adv-x="494" 
d="M176 663c-26 0 -56 -19 -80 -35v126c18 17 47 40 80 40c43 0 125 -41 164 -41c26 0 53 18 76 34v-124c-18 -20 -49 -41 -79 -41c-42 0 -124 41 -161 41z" />
    <glyph glyph-name="hungarumlaut" unicode="&#x2dd;" horiz-adv-x="574" 
d="M156 775h159l-99 -153h-148zM346 775h159l-99 -153h-148z" />
    <glyph glyph-name="gravecmb" unicode="&#x300;" horiz-adv-x="0" 
d="M-386 756h159l88 -153h-148z" />
    <glyph glyph-name="acutecmb" unicode="&#x301;" horiz-adv-x="0" 
d="M-293 756h159l-99 -153h-148z" />
    <glyph glyph-name="uni0302" unicode="&#x302;" horiz-adv-x="0" 
d="M-186 756l103 -153h-155l-27 69l-34 -69h-142l99 153h156z" />
    <glyph glyph-name="tildecmb" unicode="&#x303;" horiz-adv-x="0" 
d="M-355 625c-26 0 -56 -19 -80 -35v126c18 17 47 40 80 40c43 0 125 -41 164 -41c26 0 53 18 76 34v-124c-18 -20 -49 -41 -79 -41c-42 0 -124 41 -161 41z" />
    <glyph glyph-name="uni0304" unicode="&#x304;" horiz-adv-x="0" 
d="M-405 658v118h275v-118h-275z" />
    <glyph glyph-name="uni0306" unicode="&#x306;" horiz-adv-x="0" 
d="M-245 756h135c0 -130 -72 -163 -161 -163c-96 0 -164 38 -164 163h132c0 -49 6 -60 29 -60c20 0 29 8 29 60z" />
    <glyph glyph-name="uni0307" unicode="&#x307;" horiz-adv-x="0" 
d="M-367 637v155h193v-155h-193z" />
    <glyph glyph-name="uni0308" unicode="&#x308;" horiz-adv-x="0" 
d="M-447 637v145h163v-145h-163zM-245 637v145h163v-145h-163z" />
    <glyph glyph-name="hookcmb" unicode="&#x309;" horiz-adv-x="0" 
d="M-113 691c0 -44 -24 -75 -39 -89h-133c23 21 42 43 42 67c0 26 -24 32 -43 32c-18 0 -45 -5 -58 -11v98c18 8 63 12 89 12c74 0 142 -35 142 -109z" />
    <glyph glyph-name="uni030A" unicode="&#x30a;" horiz-adv-x="0" 
d="M-131 719c0 -81 -59 -127 -133 -127c-72 0 -131 45 -131 127s59 132 132 132c72 0 132 -50 132 -132zM-213 723c0 20 -10 49 -51 49s-51 -28 -51 -51s10 -51 50 -51c42 0 52 32 52 53z" />
    <glyph glyph-name="uni030B" unicode="&#x30b;" horiz-adv-x="0" 
d="M-392 775h159l-99 -153h-148zM-202 775h159l-99 -153h-148z" />
    <glyph glyph-name="uni030C" unicode="&#x30c;" horiz-adv-x="0" 
d="M-360 603l-103 153h155l30 -63l31 63h142l-99 -153h-156z" />
    <glyph glyph-name="uni0310" unicode="&#x310;" horiz-adv-x="0" 
d="M-225 786h135c0 -130 -92 -163 -181 -163c-96 0 -184 38 -184 163h132c0 -49 26 -60 49 -60c20 0 49 8 49 60zM-356 809v155h163v-155h-163z" />
    <glyph glyph-name="dotbelowcmb" unicode="&#x323;" horiz-adv-x="72" 
d="M-201 -255v155h193v-155h-193z" />
    <glyph glyph-name="uni0324" unicode="&#x324;" horiz-adv-x="0" 
d="M-452 -254v145h163v-145h-163zM-250 -254v145h163v-145h-163z" />
    <glyph glyph-name="uni0325" unicode="&#x325;" horiz-adv-x="0" 
d="M-125 -201c0 -81 -59 -127 -133 -127c-72 0 -131 45 -131 127s59 132 132 132c72 0 132 -50 132 -132zM-207 -197c0 20 -10 49 -51 49s-51 -28 -51 -51s10 -51 50 -51c42 0 52 32 52 53z" />
    <glyph glyph-name="uni0327" unicode="&#x327;" horiz-adv-x="0" 
d="M-146 -124c0 -60 -41 -108 -121 -108h-112v104h86c13 0 23 3 23 15s-9 16 -22 16h-84v102h110v-43h10c70 0 110 -27 110 -86z" />
    <glyph glyph-name="uni0328" unicode="&#x328;" horiz-adv-x="0" 
d="M-379 -117c0 89 73 140 146 161l49 -40c-70 -26 -81 -50 -81 -74c0 -34 23 -40 62 -40h35v-122h-73c-80 0 -138 36 -138 115z" />
    <glyph glyph-name="uni032E" unicode="&#x32e;" horiz-adv-x="0" 
d="M-243 -86h135c0 -130 -72 -163 -161 -163c-96 0 -164 38 -164 163h132c0 -49 6 -60 29 -60c20 0 29 8 29 60z" />
    <glyph glyph-name="uni0331" unicode="&#x331;" horiz-adv-x="0" 
d="M-406 -238v118h275v-118h-275z" />
    <glyph glyph-name="uni0374" unicode="&#x374;" horiz-adv-x="269" 
d="M22 459l49 297h180l-56 -297h-173z" />
    <glyph glyph-name="uni0375" unicode="&#x375;" horiz-adv-x="282" 
d="M22 -125l49 297h180l-56 -297h-173z" />
    <glyph glyph-name="uni037E" unicode="&#x37e;" horiz-adv-x="318" 
d="M32 -125l49 297h180l-56 -297h-173zM69 371v188h193v-188h-193z" />
    <glyph glyph-name="tonos" unicode="&#x384;" horiz-adv-x="492" 
d="M216 775h159l-49 -153h-148z" />
    <glyph glyph-name="dieresistonos" unicode="&#x385;" horiz-adv-x="518" 
d="M202 776h159l-65 -154h-148zM-6 622v125h133v-125h-133zM367 622v125h133v-125h-133z" />
    <glyph glyph-name="Alphatonos" unicode="&#x386;" horiz-adv-x="709" 
d="M-15 0l272 755h207l248 -755h-220l-36 128h-233l-39 -128h-199zM46 755h159l-65 -134h-148zM345 522l-76 -246h145z" />
    <glyph glyph-name="anoteleia" unicode="&#x387;" horiz-adv-x="322" 
d="M65 238v188h193v-188h-193z" />
    <glyph glyph-name="Epsilontonos" unicode="&#x388;" horiz-adv-x="652" 
d="M611 161v-161h-540v755h526v-161h-328v-135h290v-161h-290v-137h342zM-107 755h159l-65 -134h-148z" />
    <glyph glyph-name="Etatonos" unicode="&#x389;" horiz-adv-x="801" 
d="M730 755v-755h-198v308h-263v-308h-198v755h198v-276h263v276h198zM-117 755h159l-65 -134h-148z" />
    <glyph glyph-name="Iotatonos" unicode="&#x38a;" horiz-adv-x="340" 
d="M269 755v-755h-198v755h198zM-107 755h159l-65 -134h-148z" />
    <glyph glyph-name="Omicrontonos" unicode="&#x38c;" horiz-adv-x="733" 
d="M44 318v112c0 227 137 339 322 339s323 -113 323 -339v-112c0 -226 -138 -333 -323 -333s-322 106 -322 333zM242 437v-126c0 -81 17 -166 123 -166c108 0 126 84 126 166v126c0 88 -12 172 -126 172c-102 0 -123 -84 -123 -172zM-64 755h159l-65 -134h-148z" />
    <glyph glyph-name="Upsilontonos" unicode="&#x38e;" 
d="M666 755l-233 -487v-268h-198v265l-252 490h205l151 -318l133 318h194zM-184 755h159l-65 -134h-148z" />
    <glyph glyph-name="Omegatonos" unicode="&#x38f;" horiz-adv-x="763" 
d="M710 161v-161h-282v141c40 30 77 97 77 180v116c0 86 -13 172 -122 172c-108 0 -127 -84 -127 -172v-116c0 -82 34 -146 80 -180v-141h-282v161h105c-56 47 -101 110 -101 197v72c0 227 137 339 322 339s323 -113 323 -339v-72c0 -87 -40 -150 -91 -197h98zM-28 755h159
l-65 -134h-148z" />
    <glyph glyph-name="iotadieresistonos" unicode="&#x390;" horiz-adv-x="359" 
d="M56 145v410h193v-333c0 -62 10 -82 53 -82c19 0 37 3 48 8v-151c-31 -8 -75 -12 -109 -12c-99 0 -185 41 -185 160zM130 775h159l-65 -154h-148zM-78 621v125h133v-125h-133zM295 621v125h133v-125h-133z" />
    <glyph glyph-name="Alpha" unicode="&#x391;" horiz-adv-x="709" 
d="M-15 0l272 755h207l248 -755h-220l-36 128h-233l-39 -128h-199zM345 522l-76 -246h145z" />
    <glyph glyph-name="Beta" unicode="&#x392;" horiz-adv-x="703" 
d="M407 0h-336v755h329c172 0 251 -76 251 -197c0 -84 -38 -130 -111 -160c75 -26 119 -88 119 -184c0 -113 -61 -214 -252 -214zM379 304h-115v-143h112c52 0 83 21 83 69c0 51 -34 74 -80 74zM368 596h-104v-143h107c51 0 69 30 69 68c0 41 -21 75 -72 75z" />
    <glyph glyph-name="Gamma" unicode="&#x393;" horiz-adv-x="570" 
d="M557 755v-161h-288v-594h-198v755h486z" />
    <glyph glyph-name="uni0394" unicode="&#x394;" horiz-adv-x="709" 
d="M-15 0l272 755h207l248 -755h-727zM345 522l-111 -361h213z" />
    <glyph glyph-name="Epsilon" unicode="&#x395;" horiz-adv-x="652" 
d="M611 161v-161h-540v755h526v-161h-328v-135h290v-161h-290v-137h342z" />
    <glyph glyph-name="Zeta" unicode="&#x396;" horiz-adv-x="656" 
d="M614 755v-161l-356 -433h356v-161h-577v161l355 433h-345v161h567z" />
    <glyph glyph-name="Eta" unicode="&#x397;" horiz-adv-x="801" 
d="M730 755v-755h-198v308h-263v-308h-198v755h198v-276h263v276h198z" />
    <glyph glyph-name="Theta" unicode="&#x398;" horiz-adv-x="733" 
d="M44 318v112c0 227 137 339 322 339s323 -113 323 -339v-112c0 -226 -138 -333 -323 -333s-322 106 -322 333zM242 437v-126c0 -81 17 -166 123 -166c108 0 126 84 126 166v126c0 88 -12 172 -126 172c-102 0 -123 -84 -123 -172zM454 459v-151h-174v151h174z" />
    <glyph glyph-name="Iota" unicode="&#x399;" horiz-adv-x="340" 
d="M269 755v-755h-198v755h198z" />
    <glyph glyph-name="Kappa" unicode="&#x39a;" horiz-adv-x="709" 
d="M269 755v-296h58l163 296h210l-202 -356l206 -399h-227l-137 298h-71v-298h-198v755h198z" />
    <glyph glyph-name="Lambda" unicode="&#x39b;" horiz-adv-x="709" 
d="M-15 0l272 755h207l248 -755h-220l-147 522l-161 -522h-199z" />
    <glyph glyph-name="Mu" unicode="&#x39c;" horiz-adv-x="876" 
d="M357 190l-105 227l7 -212v-205h-188v755h188l181 -365l177 365h188v-755h-188v195l7 231l-110 -236h-157z" />
    <glyph glyph-name="Nu" unicode="&#x39d;" horiz-adv-x="795" 
d="M536 0l-282 444l5 -185v-259h-188v755h188l282 -444l-5 200v244h188v-755h-188z" />
    <glyph glyph-name="Xi" unicode="&#x39e;" horiz-adv-x="678" 
d="M634 755v-161h-590v161h590zM582 459v-161h-490v161h490zM634 161v-161h-590v161h590z" />
    <glyph glyph-name="Omicron" unicode="&#x39f;" horiz-adv-x="733" 
d="M44 318v112c0 227 137 339 322 339s323 -113 323 -339v-112c0 -226 -138 -333 -323 -333s-322 106 -322 333zM242 437v-126c0 -81 17 -166 123 -166c108 0 126 84 126 166v126c0 88 -12 172 -126 172c-102 0 -123 -84 -123 -172z" />
    <glyph glyph-name="Pi" unicode="&#x3a0;" horiz-adv-x="785" 
d="M714 755v-755h-198v584h-247v-584h-198v755h643z" />
    <glyph glyph-name="Rho" unicode="&#x3a1;" horiz-adv-x="681" 
d="M658 486c0 -153 -108 -264 -274 -264h-115v-222h-198v755h309c172 0 278 -118 278 -269zM336 591h-67v-207h67c82 0 124 27 124 102c0 76 -33 105 -124 105z" />
    <glyph glyph-name="Sigma" unicode="&#x3a3;" 
d="M617 755v-161h-341l167 -200l-186 -233h360v-161h-577v141l184 249l-174 224v141h567z" />
    <glyph glyph-name="Tau" unicode="&#x3a4;" horiz-adv-x="646" 
d="M632 755v-161h-210v-594h-198v594h-210v161h618z" />
    <glyph glyph-name="Upsilon" unicode="&#x3a5;" 
d="M666 755l-233 -487v-268h-198v265l-252 490h205l151 -318l133 318h194z" />
    <glyph glyph-name="Phi" unicode="&#x3a6;" horiz-adv-x="929" 
d="M905 390v-30c0 -207 -137 -301 -322 -301h-20v-89h-198v89h-19c-185 0 -322 94 -322 301v30c0 207 137 307 322 307h19v88h198v-88h20c185 0 322 -100 322 -307zM584 539h-21v-322h21c106 0 123 80 123 136v44c0 63 -21 142 -123 142zM222 353c0 -56 17 -136 123 -136h20
v322h-20c-102 0 -123 -79 -123 -142v-44z" />
    <glyph glyph-name="Chi" unicode="&#x3a7;" horiz-adv-x="693" 
d="M-6 0l241 382l-224 373h208l133 -235l128 235h204l-224 -369l237 -386h-218l-132 247l-139 -247h-214z" />
    <glyph glyph-name="Psi" unicode="&#x3a8;" horiz-adv-x="897" 
d="M859 755v-245c0 -207 -117 -301 -302 -301h-10v-209h-198v209h-9c-185 0 -302 94 -302 301v245h198v-252c0 -56 7 -136 103 -136h10v388h198v-388h11c96 0 103 80 103 136v252h198z" />
    <glyph glyph-name="uni03A9" unicode="&#x3a9;" horiz-adv-x="763" 
d="M710 161v-161h-282v141c40 30 77 97 77 180v116c0 86 -13 172 -122 172c-108 0 -127 -84 -127 -172v-116c0 -82 34 -146 80 -180v-141h-282v161h105c-56 47 -101 110 -101 197v72c0 227 137 339 322 339s323 -113 323 -339v-72c0 -87 -40 -150 -91 -197h98z" />
    <glyph glyph-name="Iotadieresis" unicode="&#x3aa;" horiz-adv-x="340" 
d="M269 755v-755h-198v755h198zM-10 826v145h163v-145h-163zM192 826v145h163v-145h-163z" />
    <glyph glyph-name="Upsilondieresis" unicode="&#x3ab;" 
d="M666 755l-233 -487v-268h-198v265l-252 490h205l151 -318l133 318h194zM348 826v145h163v-145h-163zM146 826v145h163v-145h-163z" />
    <glyph glyph-name="alphatonos" unicode="&#x3ac;" horiz-adv-x="659" 
d="M407 0v53c-30 -43 -75 -68 -144 -68c-143 0 -223 67 -223 249v86c0 171 78 249 223 249c68 0 114 -24 144 -65v50h193v-554h-193zM326 127c52 0 78 29 81 92v129c-6 60 -36 79 -79 79c-53 0 -85 -30 -85 -102v-96c0 -72 32 -102 83 -102zM287 775h159l-49 -153h-148z" />
    <glyph glyph-name="epsilontonos" unicode="&#x3ad;" horiz-adv-x="561" 
d="M298 -12c-147 0 -260 32 -260 179c0 56 40 105 100 125c-61 23 -94 58 -94 120c0 89 80 156 270 156c61 0 155 -14 201 -43v-148c-53 28 -112 50 -188 50c-52 0 -89 -14 -89 -44c0 -28 17 -43 55 -43h118v-120h-123c-57 0 -71 -18 -71 -48c0 -31 34 -43 93 -43
c80 0 152 17 212 47v-145c-60 -30 -153 -43 -224 -43zM264 775h159l-49 -153h-148z" />
    <glyph glyph-name="etatonos" unicode="&#x3ae;" 
d="M59 0v555h193v-74c34 54 84 88 169 88c118 0 185 -73 185 -213v-578h-193v500c0 82 -15 122 -80 122c-62 0 -80 -38 -81 -116v-284h-193zM306 775h159l-49 -153h-148z" />
    <glyph glyph-name="iotatonos" unicode="&#x3af;" horiz-adv-x="359" 
d="M56 145v410h193v-333c0 -62 10 -82 53 -82c19 0 37 3 48 8v-151c-31 -8 -75 -12 -109 -12c-99 0 -185 41 -185 160zM117 775h159l-49 -153h-148z" />
    <glyph glyph-name="upsilondieresistonos" unicode="&#x3b0;" horiz-adv-x="662" 
d="M408 555h202v-311c0 -182 -118 -259 -280 -259s-278 77 -278 259v311h202v-298c0 -92 20 -122 76 -122s78 30 78 122v298zM305 776h159l-65 -154h-148zM97 622v125h133v-125h-133zM470 622v125h133v-125h-133z" />
    <glyph glyph-name="alpha" unicode="&#x3b1;" horiz-adv-x="659" 
d="M407 0v53c-30 -43 -75 -68 -144 -68c-143 0 -223 67 -223 249v86c0 171 78 249 223 249c68 0 114 -24 144 -65v50h193v-554h-193zM326 127c52 0 78 29 81 92v129c-6 60 -36 79 -79 79c-53 0 -85 -30 -85 -102v-96c0 -72 32 -102 83 -102z" />
    <glyph glyph-name="beta" unicode="&#x3b2;" horiz-adv-x="667" 
d="M379 -15c-58 0 -99 23 -127 56v-263h-193v747c0 151 104 244 278 244c161 0 273 -85 273 -194c0 -76 -28 -120 -103 -146c72 -25 123 -82 123 -173v-40c0 -116 -60 -231 -251 -231zM252 525v-288c0 -84 51 -109 99 -109c49 0 86 36 86 87v40c0 57 -18 81 -76 81h-39v131
h34c45 0 61 25 61 84c0 41 -8 79 -83 79c-66 0 -82 -40 -82 -105z" />
    <glyph glyph-name="gamma" unicode="&#x3b3;" horiz-adv-x="606" 
d="M210 -222v224l-211 553h198l113 -357l99 357h197l-203 -553v-224h-193z" />
    <glyph glyph-name="delta" unicode="&#x3b4;" horiz-adv-x="636" 
d="M254 598c0 -65 346 -1 346 -318v-36c0 -182 -122 -259 -284 -259s-282 77 -282 259v26c0 78 47 146 109 181c-39 25 -66 65 -66 136c0 148 137 182 257 182c67 0 161 -14 207 -43v-158c-56 34 -132 60 -208 60c-53 0 -79 -10 -79 -30zM398 281c0 84 -63 106 -133 125
c-20 -29 -29 -66 -29 -101v-56c0 -92 24 -122 80 -122s82 30 82 122v32z" />
    <glyph glyph-name="epsilon" unicode="&#x3b5;" horiz-adv-x="561" 
d="M298 -12c-147 0 -260 32 -260 179c0 56 40 105 100 125c-61 23 -94 58 -94 120c0 89 80 156 270 156c61 0 155 -14 201 -43v-148c-53 28 -112 50 -188 50c-52 0 -89 -14 -89 -44c0 -28 17 -43 55 -43h118v-120h-123c-57 0 -71 -18 -71 -48c0 -31 34 -43 93 -43
c80 0 152 17 212 47v-145c-60 -30 -153 -43 -224 -43z" />
    <glyph glyph-name="zeta" unicode="&#x3b6;" horiz-adv-x="505" 
d="M497 755v-152c-91 -68 -263 -193 -263 -366c0 -152 258 -80 258 -273c0 -48 -11 -99 -22 -136h-140c7 22 13 49 13 75c0 127 -311 2 -311 311c0 131 126 290 246 389h-260v152h479z" />
    <glyph glyph-name="eta" unicode="&#x3b7;" 
d="M59 0v555h193v-74c34 54 84 88 169 88c118 0 185 -73 185 -213v-578h-193v500c0 82 -15 122 -80 122c-62 0 -80 -38 -81 -116v-284h-193z" />
    <glyph glyph-name="theta" unicode="&#x3b8;" horiz-adv-x="670" 
d="M52 244v267c0 182 120 259 282 259s284 -77 284 -259v-267c0 -182 -122 -259 -284 -259s-282 77 -282 259zM334 127c56 0 82 30 82 122v64h-162v-64c0 -92 24 -122 80 -122zM254 506v-50h162v50c0 92 -26 122 -82 122s-80 -30 -80 -122z" />
    <glyph glyph-name="iota" unicode="&#x3b9;" horiz-adv-x="359" 
d="M56 145v410h193v-333c0 -62 10 -82 53 -82c19 0 37 3 48 8v-151c-31 -8 -75 -12 -109 -12c-99 0 -185 41 -185 160z" />
    <glyph glyph-name="kappa" unicode="&#x3ba;" horiz-adv-x="612" 
d="M59 0v555h193v-208h51l88 208h219l-160 -250l160 -305h-216l-89 206h-53v-206h-193z" />
    <glyph glyph-name="lambda" unicode="&#x3bb;" horiz-adv-x="615" 
d="M406 592l204 -592h-200l-102 368l-111 -368h-201l235 591c-14 11 -33 15 -56 15c-34 0 -69 -8 -91 -13v160c34 9 93 16 135 16c106 0 142 -46 187 -177z" />
    <glyph glyph-name="uni03BC" unicode="&#x3bc;" horiz-adv-x="665" 
d="M606 555v-555h-193v59c-24 -44 -66 -74 -137 -74c-9 0 -17 0 -24 2v-209h-193v777h193v-279c0 -82 15 -122 80 -122s81 42 81 128v273h193z" />
    <glyph glyph-name="nu" unicode="&#x3bd;" horiz-adv-x="606" 
d="M606 555l-204 -555h-191l-212 555h198l113 -357l99 357h197z" />
    <glyph glyph-name="xi" unicode="&#x3be;" horiz-adv-x="533" 
d="M35 198c0 118 66 172 137 194c-74 30 -115 85 -115 160c0 94 80 222 268 222c64 0 157 -13 203 -42v-158c-47 26 -107 41 -165 41c-74 0 -115 -30 -115 -87c0 -45 27 -77 98 -77h78v-130h-73c-67 0 -121 -19 -121 -82c0 -146 290 -69 290 -278c0 -62 -8 -92 -22 -133
h-140c7 19 13 47 13 61c0 145 -336 51 -336 309z" />
    <glyph glyph-name="omicron" unicode="&#x3bf;" horiz-adv-x="640" 
d="M37 244v66c0 182 120 259 282 259s284 -77 284 -259v-66c0 -182 -122 -259 -284 -259s-282 77 -282 259zM239 305v-56c0 -92 24 -122 80 -122s82 30 82 122v56c0 92 -26 122 -82 122s-80 -30 -80 -122z" />
    <glyph glyph-name="pi" unicode="&#x3c0;" horiz-adv-x="655" 
d="M403 0v413h-151v-413h-193v555h537v-555h-193z" />
    <glyph glyph-name="rho" unicode="&#x3c1;" horiz-adv-x="656" 
d="M390 -15c-57 0 -103 14 -136 43v-250h-202v532c0 182 120 259 282 259s284 -77 284 -259v-66c0 -182 -97 -259 -228 -259zM254 305v-56c0 -92 24 -122 80 -122s82 30 82 122v56c0 92 -26 122 -82 122s-80 -30 -80 -122z" />
    <glyph glyph-name="uni03C2" unicode="&#x3c2;" horiz-adv-x="543" 
d="M334 569c40 0 112 -4 177 -37v-151c-58 30 -116 38 -159 38c-68 0 -111 -29 -111 -108v-74c0 -152 278 -80 278 -273c0 -48 -11 -99 -22 -136h-140c5 22 13 49 13 75c0 127 -331 -1 -331 341v66c0 172 107 259 295 259z" />
    <glyph glyph-name="sigma" unicode="&#x3c3;" horiz-adv-x="672" 
d="M654 413h-105c33 -31 54 -74 54 -124v-45c0 -182 -122 -259 -284 -259s-282 77 -282 259v66c0 182 120 245 282 245h335v-142zM401 305c0 69 -13 106 -56 108h-26c-56 0 -80 -16 -80 -108v-56c0 -92 24 -122 80 -122s82 30 82 122v56z" />
    <glyph glyph-name="tau" unicode="&#x3c4;" horiz-adv-x="550" 
d="M11 413v142h515v-142h-166v-191c0 -62 10 -82 53 -82c25 0 58 6 69 11v-150c-31 -8 -73 -16 -130 -16c-99 0 -185 41 -185 160v268h-156z" />
    <glyph glyph-name="upsilon" unicode="&#x3c5;" horiz-adv-x="662" 
d="M408 555h202v-311c0 -182 -118 -259 -280 -259s-278 77 -278 259v311h202v-298c0 -92 20 -122 76 -122s78 30 78 122v298z" />
    <glyph glyph-name="phi" unicode="&#x3c6;" horiz-adv-x="901" 
d="M37 244v66c0 182 122 259 284 259h34v186h187v-186h49c162 0 272 -77 272 -259v-66c0 -182 -116 -259 -278 -259h-43v-207h-187v207h-40c-162 0 -278 77 -278 259zM584 427h-42v-300h42c56 0 77 30 77 122v56c0 92 -21 122 -77 122zM239 305v-56c0 -92 19 -122 75 -122
h41v300h-41c-56 0 -75 -30 -75 -122z" />
    <glyph glyph-name="chi" unicode="&#x3c7;" horiz-adv-x="588" 
d="M-1 0l192 279l-181 276h194l92 -146l92 146h180l-171 -259l196 -296h-208l-93 154l-97 -154h-196z" />
    <glyph glyph-name="psi" unicode="&#x3c8;" horiz-adv-x="910" 
d="M656 555h202v-311c0 -182 -116 -259 -278 -259h-33v-207h-187v207h-30c-162 0 -278 77 -278 259v311h202v-301c0 -92 19 -122 75 -122h31v623h187v-623h32c56 0 77 30 77 122v301z" />
    <glyph glyph-name="omega" unicode="&#x3c9;" horiz-adv-x="902" 
d="M863 294c0 -187 -82 -309 -237 -309c-82 0 -148 34 -174 107c-24 -59 -79 -107 -181 -107c-150 0 -232 103 -232 298c0 116 33 224 55 272h205c-41 -109 -56 -149 -56 -240c0 -87 8 -147 66 -147c42 0 57 32 57 116v145h173v-142c0 -83 15 -118 58 -118
c50 0 65 47 65 139c0 107 -21 159 -57 247h207c27 -60 51 -166 51 -261z" />
    <glyph glyph-name="iotadieresis" unicode="&#x3ca;" horiz-adv-x="359" 
d="M56 145v410h193v-333c0 -62 10 -82 53 -82c19 0 37 3 48 8v-151c-31 -8 -75 -12 -109 -12c-99 0 -185 41 -185 160zM-33 627v145h163v-145h-163zM169 627v145h163v-145h-163z" />
    <glyph glyph-name="upsilondieresis" unicode="&#x3cb;" horiz-adv-x="662" 
d="M408 555h202v-311c0 -182 -118 -259 -280 -259s-278 77 -278 259v311h202v-298c0 -92 20 -122 76 -122s78 30 78 122v298zM148 627v145h163v-145h-163zM350 627v145h163v-145h-163z" />
    <glyph glyph-name="omicrontonos" unicode="&#x3cc;" horiz-adv-x="640" 
d="M37 244v66c0 182 120 259 282 259s284 -77 284 -259v-66c0 -182 -122 -259 -284 -259s-282 77 -282 259zM239 305v-56c0 -92 24 -122 80 -122s82 30 82 122v56c0 92 -26 122 -82 122s-80 -30 -80 -122zM265 775h159l-49 -153h-148z" />
    <glyph glyph-name="upsilontonos" unicode="&#x3cd;" horiz-adv-x="662" 
d="M408 555h202v-311c0 -182 -118 -259 -280 -259s-278 77 -278 259v311h202v-298c0 -92 20 -122 76 -122s78 30 78 122v298zM292 775h159l-49 -153h-148z" />
    <glyph glyph-name="omegatonos" unicode="&#x3ce;" horiz-adv-x="902" 
d="M863 294c0 -187 -82 -309 -237 -309c-82 0 -148 34 -174 107c-24 -59 -79 -107 -181 -107c-150 0 -232 103 -232 298c0 116 33 224 55 272h205c-41 -109 -56 -149 -56 -240c0 -87 8 -147 66 -147c42 0 57 32 57 116v145h173v-142c0 -83 15 -118 58 -118
c50 0 65 47 65 139c0 107 -21 159 -57 247h207c27 -60 51 -166 51 -261zM406 775h159l-49 -153h-148z" />
    <glyph glyph-name="uni0400" unicode="&#x400;" horiz-adv-x="652" 
d="M611 161v-161h-540v755h526v-161h-328v-135h290v-161h-290v-137h342zM178 960h169l77 -133h-158z" />
    <glyph glyph-name="uni0401" unicode="&#x401;" horiz-adv-x="652" 
d="M611 161v-161h-540v755h526v-161h-328v-135h290v-161h-290v-137h342zM158 826v145h163v-145h-163zM360 826v145h163v-145h-163z" />
    <glyph glyph-name="uni0402" unicode="&#x402;" horiz-adv-x="838" 
d="M15 594v161h638v-161h-250v-132c36 8 78 13 128 13c195 0 288 -97 288 -244c0 -161 -94 -240 -231 -240c-31 0 -54 5 -73 9v153c13 -3 27 -5 38 -5c31 0 68 16 68 79c0 67 -70 79 -137 79c-27 0 -55 -4 -81 -11v-295h-198v594h-190z" />
    <glyph glyph-name="uni0403" unicode="&#x403;" horiz-adv-x="570" 
d="M557 755v-161h-288v-594h-198v755h486zM298 960h169l-88 -133h-158z" />
    <glyph glyph-name="uni0404" unicode="&#x404;" horiz-adv-x="640" 
d="M594 727v-183c-43 37 -133 54 -195 54c-112 0 -156 -47 -164 -138h273v-161h-274c7 -114 70 -143 169 -143c40 0 136 6 189 39v-173c-50 -27 -152 -37 -212 -37c-206 0 -337 116 -337 343v92c0 227 130 349 339 349c75 0 176 -17 212 -42z" />
    <glyph glyph-name="uni0405" unicode="&#x405;" horiz-adv-x="647" 
d="M58 43v181c76 -48 170 -71 253 -71c70 0 102 16 102 68c0 45 -25 60 -82 68l-107 15c-133 19 -183 99 -183 217c0 185 145 247 302 247c65 0 185 -11 240 -50v-181c-63 44 -155 66 -227 66c-79 0 -118 -19 -118 -65c0 -43 30 -64 77 -70l96 -13
c148 -20 200 -117 200 -225c0 -183 -151 -241 -313 -241c-80 0 -167 14 -240 54z" />
    <glyph glyph-name="uni0406" unicode="&#x406;" horiz-adv-x="340" 
d="M269 755v-755h-198v755h198z" />
    <glyph glyph-name="uni0407" unicode="&#x407;" horiz-adv-x="340" 
d="M269 755v-755h-198v755h198zM-12 826v145h163v-145h-163zM190 826v145h163v-145h-163z" />
    <glyph glyph-name="uni0408" unicode="&#x408;" horiz-adv-x="526" 
d="M261 230v354h-215v171h413v-560c0 -140 -121 -210 -252 -210c-67 0 -131 19 -162 34v157c27 -10 78 -24 127 -24c62 0 89 23 89 78z" />
    <glyph glyph-name="uni0409" unicode="&#x409;" horiz-adv-x="1076" 
d="M149 755h537v-266h114c157 0 255 -108 255 -247c0 -141 -99 -242 -252 -242h-315v585h-153v-35c0 -55 -4 -165 -9 -240c-18 -272 -111 -314 -223 -314c-30 0 -61 2 -90 9v165c9 -4 26 -7 40 -7c38 0 74 15 85 142c9 101 11 202 11 245v205zM748 318h-62v-164h62
c72 0 109 16 109 80c0 62 -28 84 -109 84z" />
    <glyph glyph-name="uni040A" unicode="&#x40a;" horiz-adv-x="1090" 
d="M700 755v-266h114c157 0 255 -108 255 -247c0 -141 -99 -242 -252 -242h-315v318h-233v-318h-198v755h198v-266h233v266h198zM762 318h-62v-164h62c72 0 109 16 109 80c0 62 -28 84 -109 84z" />
    <glyph glyph-name="uni040B" unicode="&#x40b;" horiz-adv-x="842" 
d="M15 594v161h638v-161h-250v-143c41 14 89 24 145 24c166 0 261 -76 261 -303v-172h-199v145c0 114 -35 161 -122 161c-32 0 -60 -6 -85 -14v-292h-198v594h-190z" />
    <glyph glyph-name="uni040C" unicode="&#x40c;" horiz-adv-x="709" 
d="M269 755v-296h58l163 296h210l-202 -356l206 -399h-227l-137 298h-71v-298h-198v755h198zM372 960h169l-88 -133h-158z" />
    <glyph glyph-name="uni040D" unicode="&#x40d;" horiz-adv-x="795" 
d="M71 755h188v-244l-6 -207l283 451h188v-755h-188v259l4 192l-281 -451h-188v755zM235 960h169l77 -133h-158z" />
    <glyph glyph-name="uni040E" unicode="&#x40e;" horiz-adv-x="677" 
d="M217 -12c-30 0 -67 4 -96 11v168c9 -4 40 -10 59 -10c31 0 73 2 99 45l-289 553h222l155 -346l111 346h209l-218 -539c-73 -176 -135 -228 -252 -228zM398 1001h135c0 -130 -82 -173 -171 -173c-96 0 -174 48 -174 173h132c0 -49 16 -60 39 -60c20 0 39 8 39 60z" />
    <glyph glyph-name="uni040F" unicode="&#x40f;" horiz-adv-x="778" 
d="M707 755v-755h-228v-160h-180v160h-228v755h198v-584h240v584h198z" />
    <glyph glyph-name="uni0410" unicode="&#x410;" horiz-adv-x="709" 
d="M-15 0l272 755h207l248 -755h-220l-36 128h-233l-39 -128h-199zM345 522l-76 -246h145z" />
    <glyph glyph-name="uni0411" unicode="&#x411;" horiz-adv-x="688" 
d="M613 755v-161h-344v-111h145c165 0 244 -106 244 -244s-99 -239 -245 -239h-342v755h542zM364 323h-95v-161h95c61 0 96 24 96 78c0 55 -27 83 -96 83z" />
    <glyph glyph-name="uni0412" unicode="&#x412;" horiz-adv-x="703" 
d="M407 0h-336v755h329c172 0 251 -76 251 -197c0 -84 -38 -130 -111 -160c75 -26 119 -88 119 -184c0 -113 -61 -214 -252 -214zM379 304h-115v-143h112c52 0 83 21 83 69c0 51 -34 74 -80 74zM368 596h-104v-143h107c51 0 69 30 69 68c0 41 -21 75 -72 75z" />
    <glyph glyph-name="uni0413" unicode="&#x413;" horiz-adv-x="570" 
d="M557 755v-161h-288v-594h-198v755h486z" />
    <glyph glyph-name="uni0414" unicode="&#x414;" horiz-adv-x="816" 
d="M8 -160v331h70c55 65 84 192 84 378v206h535v-584h90v-331h-180v160h-419v-160h-180zM344 546c0 -216 -31 -318 -66 -375h221v413h-155v-38z" />
    <glyph glyph-name="uni0415" unicode="&#x415;" horiz-adv-x="652" 
d="M611 161v-161h-540v755h526v-161h-328v-135h290v-161h-290v-137h342z" />
    <glyph glyph-name="uni0416" unicode="&#x416;" horiz-adv-x="1022" 
d="M223 0h-217l200 395l-196 360h204l153 -296h52v296h184v-296h52l153 296h204l-194 -356l198 -399h-221l-128 298h-64v-298h-184v298h-64z" />
    <glyph glyph-name="uni0417" unicode="&#x417;" horiz-adv-x="644" 
d="M297 -11c-72 0 -183 16 -253 60v175c76 -44 154 -65 237 -65c80 0 122 25 122 75c0 51 -31 72 -107 72h-139v149h137c67 0 92 34 92 72c0 49 -32 76 -129 76c-67 0 -143 -26 -205 -64v174c63 34 160 55 244 55c204 0 295 -88 295 -209c0 -84 -42 -133 -117 -164
c76 -24 129 -81 129 -179c0 -113 -64 -227 -306 -227z" />
    <glyph glyph-name="uni0418" unicode="&#x418;" horiz-adv-x="795" 
d="M71 755h188v-244l-6 -207l283 451h188v-755h-188v259l4 192l-281 -451h-188v755z" />
    <glyph glyph-name="uni0419" unicode="&#x419;" horiz-adv-x="795" 
d="M71 755h188v-244l-6 -207l283 451h188v-755h-188v259l4 192l-281 -451h-188v755zM433 1001h135c0 -130 -82 -173 -171 -173c-96 0 -174 48 -174 173h132c0 -49 16 -60 39 -60c20 0 39 8 39 60z" />
    <glyph glyph-name="uni041A" unicode="&#x41a;" horiz-adv-x="709" 
d="M269 755v-296h58l163 296h210l-202 -356l206 -399h-227l-137 298h-71v-298h-198v755h198z" />
    <glyph glyph-name="uni041B" unicode="&#x41b;" horiz-adv-x="754" 
d="M485 0v585h-150v-35c0 -55 -4 -165 -9 -240c-18 -272 -111 -314 -223 -314c-30 0 -61 2 -90 9v165c9 -4 26 -7 40 -7c38 0 74 15 85 142c9 101 11 202 11 245v205h534v-755h-198z" />
    <glyph glyph-name="uni041C" unicode="&#x41c;" horiz-adv-x="876" 
d="M357 190l-105 227l7 -212v-205h-188v755h188l181 -365l177 365h188v-755h-188v195l7 231l-110 -236h-157z" />
    <glyph glyph-name="uni041D" unicode="&#x41d;" horiz-adv-x="801" 
d="M730 755v-755h-198v308h-263v-308h-198v755h198v-276h263v276h198z" />
    <glyph glyph-name="uni041E" unicode="&#x41e;" horiz-adv-x="733" 
d="M44 318v112c0 227 137 339 322 339s323 -113 323 -339v-112c0 -226 -138 -333 -323 -333s-322 106 -322 333zM242 437v-126c0 -81 17 -166 123 -166c108 0 126 84 126 166v126c0 88 -12 172 -126 172c-102 0 -123 -84 -123 -172z" />
    <glyph glyph-name="uni041F" unicode="&#x41f;" horiz-adv-x="785" 
d="M714 755v-755h-198v584h-247v-584h-198v755h643z" />
    <glyph glyph-name="uni0420" unicode="&#x420;" horiz-adv-x="681" 
d="M658 486c0 -153 -108 -264 -274 -264h-115v-222h-198v755h309c172 0 278 -118 278 -269zM336 591h-67v-207h67c82 0 124 27 124 102c0 76 -33 105 -124 105z" />
    <glyph glyph-name="uni0421" unicode="&#x421;" horiz-adv-x="627" 
d="M589 727v-183c-43 37 -128 54 -190 54c-115 0 -158 -58 -158 -171v-106c0 -132 66 -165 162 -165c40 0 131 6 184 39v-173c-50 -27 -150 -37 -210 -37c-204 0 -334 116 -334 343v92c0 227 129 349 336 349c75 0 174 -17 210 -42z" />
    <glyph glyph-name="uni0422" unicode="&#x422;" horiz-adv-x="646" 
d="M632 755v-161h-210v-594h-198v594h-210v161h618z" />
    <glyph glyph-name="uni0423" unicode="&#x423;" horiz-adv-x="677" 
d="M217 -12c-30 0 -67 4 -96 11v168c9 -4 40 -10 59 -10c31 0 73 2 99 45l-289 553h222l155 -346l111 346h209l-218 -539c-73 -176 -135 -228 -252 -228z" />
    <glyph glyph-name="uni0424" unicode="&#x424;" horiz-adv-x="929" 
d="M905 390v-30c0 -207 -137 -301 -322 -301h-20v-89h-198v89h-19c-185 0 -322 94 -322 301v30c0 207 137 307 322 307h19v88h198v-88h20c185 0 322 -100 322 -307zM584 539h-21v-322h21c106 0 123 80 123 136v44c0 63 -21 142 -123 142zM222 353c0 -56 17 -136 123 -136h20
v322h-20c-102 0 -123 -79 -123 -142v-44z" />
    <glyph glyph-name="uni0425" unicode="&#x425;" horiz-adv-x="693" 
d="M-6 0l241 382l-224 373h208l133 -235l128 235h204l-224 -369l237 -386h-218l-132 247l-139 -247h-214z" />
    <glyph glyph-name="uni0426" unicode="&#x426;" horiz-adv-x="825" 
d="M508 755h198v-584h90v-331h-180v160h-545v755h198v-584h239v584z" />
    <glyph glyph-name="uni0427" unicode="&#x427;" horiz-adv-x="727" 
d="M458 755h198v-755h-198v302c-41 -14 -101 -28 -163 -28c-131 0 -252 70 -252 210v271h198v-216c0 -66 17 -98 99 -98c48 0 88 9 118 19v295z" />
    <glyph glyph-name="uni0428" unicode="&#x428;" horiz-adv-x="1076" 
d="M807 755h198v-755h-934v755h198v-584h170v584h198v-584h170v584z" />
    <glyph glyph-name="uni0429" unicode="&#x429;" horiz-adv-x="1124" 
d="M807 755h198v-584h90v-331h-180v160h-844v755h198v-584h170v584h198v-584h170v584z" />
    <glyph glyph-name="uni042A" unicode="&#x42a;" horiz-adv-x="805" 
d="M15 594v161h388v-222h101c172 0 278 -118 278 -269c0 -153 -108 -264 -274 -264h-303v594h-190zM460 369h-57v-207h57c82 0 124 27 124 102c0 76 -33 105 -124 105z" />
    <glyph glyph-name="uni042B" unicode="&#x42b;" horiz-adv-x="990" 
d="M71 755h198v-222h91c172 0 278 -118 278 -269c0 -153 -108 -264 -274 -264h-293v755zM721 755h198v-755h-198v755zM316 369h-47v-207h47c82 0 124 27 124 102c0 76 -33 105 -124 105z" />
    <glyph glyph-name="uni042C" unicode="&#x42c;" horiz-adv-x="681" 
d="M71 755h198v-222h111c172 0 278 -118 278 -269c0 -153 -108 -264 -274 -264h-313v755zM336 369h-67v-207h67c82 0 124 27 124 102c0 76 -33 105 -124 105z" />
    <glyph glyph-name="uni042D" unicode="&#x42d;" horiz-adv-x="641" 
d="M132 299v161h272c-8 91 -52 138 -163 138c-62 0 -152 -17 -195 -54v183c36 25 137 42 212 42c209 0 339 -122 339 -349v-92c0 -227 -131 -343 -337 -343c-60 0 -162 10 -212 37v173c53 -33 149 -39 189 -39c99 0 161 29 168 143h-273z" />
    <glyph glyph-name="uni042E" unicode="&#x42e;" horiz-adv-x="1042" 
d="M269 755v-291h101c12 206 135 305 311 305c185 0 317 -113 317 -339v-112c0 -226 -132 -333 -317 -333c-178 0 -303 96 -312 308h-100v-293h-198v755h198zM563 437v-126c0 -81 11 -166 117 -166c108 0 120 84 120 166v126c0 88 -6 172 -120 172
c-102 0 -117 -84 -117 -172z" />
    <glyph glyph-name="uni042F" unicode="&#x42f;" horiz-adv-x="699" 
d="M41 503c0 131 86 252 258 252h329v-755h-198v246h-47l-137 -246h-216l166 263c-102 38 -155 136 -155 240zM239 499c0 -75 42 -100 124 -100h67v197h-56c-91 0 -135 -21 -135 -97z" />
    <glyph glyph-name="uni0430" unicode="&#x430;" horiz-adv-x="614" 
d="M560 0h-193v61c-29 -52 -74 -76 -148 -76c-112 0 -186 67 -186 166c0 117 70 176 222 176h111c-5 53 -24 70 -100 70c-68 0 -131 -13 -203 -55v167c65 40 148 60 240 60c163 0 257 -62 257 -214v-355zM283 114c48 0 81 17 84 93v11h-65c-68 0 -85 -18 -85 -55
c0 -33 22 -49 66 -49z" />
    <glyph glyph-name="uni0431" unicode="&#x431;" horiz-adv-x="652" 
d="M334 -15c-162 0 -285 88 -285 288v99c0 122 9 205 80 284c57 64 150 83 226 94c56 8 171 17 220 20v-165c-45 -3 -124 -6 -202 -16c-116 -15 -171 -50 -171 -151v-9c38 45 101 77 176 77c150 0 237 -72 237 -240v-39c0 -163 -119 -242 -281 -242zM251 261v-26
c0 -78 24 -108 80 -108s82 30 82 108v26c0 78 -26 108 -82 108s-80 -30 -80 -108z" />
    <glyph glyph-name="uni0432" unicode="&#x432;" horiz-adv-x="625" 
d="M389 555c131 0 191 -54 191 -143c0 -62 -32 -97 -91 -120c59 -18 97 -63 97 -134c0 -83 -47 -158 -192 -158h-335v555h330zM336 220h-88v-91h86c39 0 67 11 67 46c0 37 -30 45 -65 45zM327 427h-79v-87h83c38 0 55 15 55 43c0 30 -19 44 -59 44z" />
    <glyph glyph-name="uni0433" unicode="&#x433;" horiz-adv-x="472" 
d="M59 0v555h399v-142h-206v-413h-193z" />
    <glyph glyph-name="uni0434" unicode="&#x434;" horiz-adv-x="705" 
d="M680 142v-282h-160v140h-348v-140h-160v282h63c21 27 37 66 49 113c9 37 14 95 14 170v130h462v-413h80zM309 409c0 -65 -7 -130 -13 -162c-8 -40 -22 -78 -38 -105h149v271h-98v-4z" />
    <glyph glyph-name="uni0435" unicode="&#x435;" horiz-adv-x="613" 
d="M574 216h-337c9 -64 47 -79 123 -79c65 0 124 5 204 39v-137c-76 -42 -144 -54 -242 -54c-201 0 -284 91 -284 259v66c0 172 105 259 267 259s269 -87 269 -259v-94zM305 427c-45 0 -67 -29 -70 -98h141c-2 69 -20 98 -71 98z" />
    <glyph glyph-name="uni0436" unicode="&#x436;" horiz-adv-x="869" 
d="M215 0h-206l161 298l-161 257h215l84 -208h37v208h179v-208h37l90 208h209l-157 -250l157 -305h-212l-85 206h-39v-206h-179v206h-40z" />
    <glyph glyph-name="uni0437" unicode="&#x437;" horiz-adv-x="561" 
d="M261 -12c-71 0 -162 13 -222 43v144c60 -27 146 -41 202 -41c67 0 103 10 103 41c0 28 -17 40 -92 40h-110v130h104c58 0 77 11 77 39s-33 37 -99 37c-45 0 -125 -18 -178 -43v147c46 29 156 43 217 43c190 0 254 -67 254 -156c0 -62 -34 -97 -94 -120
c59 -19 100 -64 100 -120c0 -147 -115 -184 -262 -184z" />
    <glyph glyph-name="uni0438" unicode="&#x438;" horiz-adv-x="669" 
d="M59 555h187v-179l-4 -116l181 295h187v-555h-187v190l3 101l-180 -291h-187v555z" />
    <glyph glyph-name="uni0439" unicode="&#x439;" horiz-adv-x="669" 
d="M59 555h187v-179l-4 -116l181 295h187v-555h-187v190l3 101l-180 -291h-187v555zM357 786h135c0 -130 -72 -163 -161 -163c-96 0 -164 38 -164 163h132c0 -49 6 -60 29 -60c20 0 29 8 29 60z" />
    <glyph glyph-name="uni043A" unicode="&#x43a;" horiz-adv-x="612" 
d="M59 0v555h193v-208h51l88 208h219l-160 -250l160 -305h-216l-89 206h-53v-206h-193z" />
    <glyph glyph-name="uni043B" unicode="&#x43b;" horiz-adv-x="638" 
d="M126 555h453v-555h-193v413h-86c-1 -84 -7 -185 -17 -245c-24 -140 -88 -177 -185 -177c-30 0 -56 3 -84 9v147c9 -3 23 -5 37 -5c28 0 50 17 59 66c13 69 16 176 16 239v108z" />
    <glyph glyph-name="uni043C" unicode="&#x43c;" horiz-adv-x="791" 
d="M322 114l-83 154l4 -117v-151h-184v555h184l155 -268l150 268h184v-555h-184v143l5 133l-88 -162h-143z" />
    <glyph glyph-name="uni043D" unicode="&#x43d;" horiz-adv-x="665" 
d="M413 0v218h-161v-218h-193v555h193v-195h161v195h193v-555h-193z" />
    <glyph glyph-name="uni043E" unicode="&#x43e;" horiz-adv-x="640" 
d="M37 244v66c0 182 120 259 282 259s284 -77 284 -259v-66c0 -182 -122 -259 -284 -259s-282 77 -282 259zM239 305v-56c0 -92 24 -122 80 -122s82 30 82 122v56c0 92 -26 122 -82 122s-80 -30 -80 -122z" />
    <glyph glyph-name="uni043F" unicode="&#x43f;" horiz-adv-x="655" 
d="M403 0v413h-151v-413h-193v555h537v-555h-193z" />
    <glyph glyph-name="uni0440" unicode="&#x440;" horiz-adv-x="660" 
d="M59 -222v777h193v-53c30 42 76 67 145 67c145 0 223 -78 223 -249v-86c0 -182 -90 -249 -233 -249c-62 0 -105 19 -135 53v-260h-193zM332 427c-46 0 -77 -21 -80 -90v-108c0 -70 27 -102 82 -102c51 0 83 30 83 102v96c0 72 -32 102 -85 102z" />
    <glyph glyph-name="uni0441" unicode="&#x441;" horiz-adv-x="550" 
d="M333 569c40 0 112 -4 177 -37v-151c-58 30 -116 38 -159 38c-68 0 -111 -29 -111 -108v-74c0 -72 45 -102 114 -102c47 0 100 9 151 37v-145c-45 -29 -102 -42 -180 -42c-201 0 -287 89 -287 259v66c0 172 107 259 295 259z" />
    <glyph glyph-name="uni0442" unicode="&#x442;" horiz-adv-x="535" 
d="M15 413v142h505v-142h-156v-413h-193v413h-156z" />
    <glyph glyph-name="uni0443" unicode="&#x443;" horiz-adv-x="612" 
d="M612 555l-195 -555l-73 -222h-190l70 194l-225 583h201l111 -356l101 356h200z" />
    <glyph glyph-name="uni0444" unicode="&#x444;" horiz-adv-x="909" 
d="M868 320v-86c0 -182 -75 -249 -204 -249c-47 0 -86 18 -116 49v-256h-187v254c-30 -30 -69 -47 -115 -47c-129 0 -204 67 -204 249v86c0 171 65 249 195 249c51 0 93 -23 124 -58v244h187v-246c31 37 74 60 125 60c130 0 195 -78 195 -249zM607 427
c-36 0 -59 -25 -59 -93v-111c0 -60 19 -96 61 -96c39 0 58 30 58 102v96c0 72 -19 102 -60 102zM301 127c42 0 60 36 60 96v111c0 68 -22 93 -58 93c-41 0 -60 -30 -60 -102v-96c0 -72 19 -102 58 -102z" />
    <glyph glyph-name="uni0445" unicode="&#x445;" horiz-adv-x="588" 
d="M-1 0l192 279l-181 276h194l92 -146l92 146h180l-171 -259l196 -296h-208l-93 154l-97 -154h-196z" />
    <glyph glyph-name="uni0446" unicode="&#x446;" horiz-adv-x="689" 
d="M59 0v555h193v-413h141v413h193v-413h80v-282h-160v140h-447z" />
    <glyph glyph-name="uni0447" unicode="&#x447;" horiz-adv-x="619" 
d="M560 555v-555h-193v203c-35 -11 -82 -20 -142 -20c-100 0 -190 46 -190 206v166h193v-133c0 -84 33 -94 80 -94c18 0 39 3 59 8v219h193z" />
    <glyph glyph-name="uni0448" unicode="&#x448;" horiz-adv-x="908" 
d="M849 555v-555h-790v555h190v-412h110v412h190v-412h110v412h190z" />
    <glyph glyph-name="uni0449" unicode="&#x449;" horiz-adv-x="952" 
d="M849 555v-413h80v-282h-160v140h-710v555h190v-412h110v412h190v-412h110v412h190z" />
    <glyph glyph-name="uni044A" unicode="&#x44a;" horiz-adv-x="662" 
d="M17 413v142h319v-161h105c133 0 201 -97 201 -194c0 -96 -69 -200 -197 -200h-302v413h-126zM360 267h-24v-138h32c56 0 81 21 81 70c0 47 -22 68 -89 68z" />
    <glyph glyph-name="uni044B" unicode="&#x44b;" horiz-adv-x="848" 
d="M535 200c0 -96 -59 -200 -187 -200h-289v555h190v-161h95c133 0 191 -97 191 -194zM789 555v-555h-193v555h193zM263 267h-14v-138h22c56 0 81 21 81 70c0 47 -22 68 -89 68z" />
    <glyph glyph-name="uni044C" unicode="&#x44c;" horiz-adv-x="578" 
d="M558 200c0 -96 -69 -200 -197 -200h-302v555h193v-161h105c133 0 201 -97 201 -194zM276 267h-24v-138h32c56 0 81 21 81 70c0 47 -22 68 -89 68z" />
    <glyph glyph-name="uni044D" unicode="&#x44d;" horiz-adv-x="559" 
d="M127 220v120h194c-12 57 -59 79 -118 79c-48 0 -105 -8 -163 -38v151c65 33 142 37 182 37c188 0 300 -87 300 -259v-66c0 -170 -91 -259 -292 -259c-78 0 -140 13 -185 42v145c51 -28 103 -37 155 -37c63 0 115 25 123 85h-196z" />
    <glyph glyph-name="uni044E" unicode="&#x44e;" horiz-adv-x="918" 
d="M59 555h193v-207h74c16 154 130 221 273 221c162 0 282 -77 282 -259v-66c0 -182 -120 -259 -282 -259c-143 0 -257 66 -273 221h-74v-206h-193v555zM521 305v-56c0 -92 22 -122 78 -122s80 30 80 122v56c0 92 -24 122 -80 122s-78 -30 -78 -122z" />
    <glyph glyph-name="uni044F" unicode="&#x44f;" horiz-adv-x="616" 
d="M39 366c0 97 68 189 201 189h317v-555h-193v173h-36l-102 -173h-203l132 188c-76 31 -116 104 -116 178zM232 363c0 -47 27 -63 83 -63h49v124h-41c-67 0 -91 -16 -91 -61z" />
    <glyph glyph-name="uni0450" unicode="&#x450;" horiz-adv-x="613" 
d="M574 310v-94h-337c9 -64 47 -79 123 -79c65 0 124 5 204 39v-137c-76 -42 -144 -54 -242 -54c-201 0 -284 91 -284 259v66c0 172 105 259 267 259s269 -87 269 -259zM128 775h159l88 -153h-148zM305 427c-45 0 -67 -29 -70 -98h141c-2 69 -20 98 -71 98z" />
    <glyph glyph-name="uni0451" unicode="&#x451;" horiz-adv-x="613" 
d="M574 216h-337c9 -64 47 -79 123 -79c65 0 124 5 204 39v-137c-76 -42 -144 -54 -242 -54c-201 0 -284 91 -284 259v66c0 172 105 259 267 259s269 -87 269 -259v-94zM123 627v145h163v-145h-163zM325 627v145h163v-145h-163zM305 427c-45 0 -67 -29 -70 -98h141
c-2 69 -20 98 -71 98z" />
    <glyph glyph-name="uni0452" unicode="&#x452;" 
d="M59 0v601h-56v112h56v42h193v-42h142v-112h-142v-120c34 54 84 88 169 88c118 0 185 -73 185 -213v-376c0 -175 -101 -214 -200 -214c-39 0 -78 5 -102 13v152c20 -4 38 -6 53 -6c34 0 56 16 56 69v284c0 82 -15 122 -80 122c-62 0 -80 -38 -81 -116v-284h-193z" />
    <glyph glyph-name="uni0453" unicode="&#x453;" horiz-adv-x="471" 
d="M59 0v555h399v-142h-206v-413h-193zM253 775h159l-99 -153h-148z" />
    <glyph glyph-name="uni0454" unicode="&#x454;" horiz-adv-x="560" 
d="M333 569c40 0 122 -4 187 -37v-151c-58 30 -113 38 -169 38c-59 0 -102 -22 -113 -79h195v-120h-196c7 -60 53 -85 117 -85c60 0 110 9 161 37v-145c-45 -29 -112 -42 -190 -42c-201 0 -287 89 -287 259v66c0 172 107 259 295 259z" />
    <glyph glyph-name="uni0455" unicode="&#x455;" horiz-adv-x="565" 
d="M48 31v145c60 -30 142 -47 225 -47c47 0 80 12 80 36c0 23 -14 28 -56 33l-91 11c-87 12 -169 53 -169 168c0 148 137 192 257 192c67 0 161 -14 207 -43v-158c-56 34 -132 60 -208 60c-53 0 -79 -15 -79 -35s10 -28 60 -33l76 -8c115 -11 182 -60 182 -168
c0 -153 -134 -196 -262 -196c-71 0 -162 13 -222 43z" />
    <glyph glyph-name="uni0456" unicode="&#x456;" horiz-adv-x="311" 
d="M59 0v555h193v-555h-193zM59 623v155h193v-155h-193z" />
    <glyph glyph-name="uni0457" unicode="&#x457;" horiz-adv-x="311" 
d="M59 0v555h193v-555h-193zM-27 627v145h163v-145h-163zM175 627v145h163v-145h-163z" />
    <glyph glyph-name="uni0458" unicode="&#x458;" horiz-adv-x="311" 
d="M252 555v-575c0 -175 -101 -214 -200 -214c-39 0 -78 5 -102 13v152c20 -4 38 -6 53 -6c34 0 56 16 56 69v561h193zM59 623v155h193v-155h-193z" />
    <glyph glyph-name="uni0459" unicode="&#x459;" horiz-adv-x="897" 
d="M879 183c0 -88 -64 -183 -180 -183h-313v413h-86c-1 -84 -7 -185 -17 -245c-24 -140 -88 -177 -185 -177c-30 0 -56 3 -84 9v147c9 -3 23 -5 37 -5c28 0 50 17 59 66c13 69 16 176 16 239v108h453v-195h116c121 0 184 -88 184 -177zM608 237h-29v-114h37
c48 0 70 15 70 56c0 38 -19 58 -78 58z" />
    <glyph glyph-name="uni045A" unicode="&#x45a;" horiz-adv-x="913" 
d="M895 183c0 -88 -64 -183 -180 -183h-313v218h-150v-218h-193v555h193v-195h150v195h193v-195h116c121 0 184 -88 184 -177zM624 237h-29v-114h37c48 0 70 15 70 56c0 38 -19 58 -78 58z" />
    <glyph glyph-name="uni045B" unicode="&#x45b;" 
d="M59 0v601h-56v112h56v42h193v-42h142v-112h-142v-120c34 54 84 88 169 88c118 0 185 -73 185 -213v-356h-193v278c0 82 -15 122 -80 122c-62 0 -80 -38 -81 -116v-284h-193z" />
    <glyph glyph-name="uni045C" unicode="&#x45c;" horiz-adv-x="612" 
d="M59 0v555h193v-208h51l88 208h219l-160 -250l160 -305h-216l-89 206h-53v-206h-193zM329 775h159l-99 -153h-148z" />
    <glyph glyph-name="uni045D" unicode="&#x45d;" horiz-adv-x="669" 
d="M59 555h187v-179l-4 -116l181 295h187v-555h-187v190l3 101l-180 -291h-187v555zM181 775h159l88 -153h-148z" />
    <glyph glyph-name="uni045E" unicode="&#x45e;" horiz-adv-x="612" 
d="M612 555l-195 -555l-73 -222h-190l70 194l-225 583h201l111 -356l101 356h200zM333 786h135c0 -130 -72 -163 -161 -163c-96 0 -164 38 -164 163h132c0 -49 6 -60 29 -60c20 0 29 8 29 60z" />
    <glyph glyph-name="uni045F" unicode="&#x45f;" horiz-adv-x="645" 
d="M242 -140v140h-183v555h193v-413h141v413h193v-555h-184v-140h-160z" />
    <glyph glyph-name="uni0462" unicode="&#x462;" horiz-adv-x="801" 
d="M20 555v131h190v99h198v-99h220v-131h-220v-86h114c157 0 255 -98 255 -237c0 -141 -99 -232 -252 -232h-315v555h-190zM470 308h-62v-164h62c72 0 109 16 109 80c0 62 -28 84 -109 84z" />
    <glyph glyph-name="uni0463" unicode="&#x463;" horiz-adv-x="658" 
d="M13 483v132h126v140h193v-140h176v-132h-176v-89h105c133 0 201 -97 201 -194c0 -96 -69 -200 -197 -200h-302v483h-126zM356 267h-24v-138h32c56 0 81 21 81 70c0 47 -22 68 -89 68z" />
    <glyph glyph-name="uni0472" unicode="&#x472;" horiz-adv-x="741" 
d="M44 318v112c0 227 141 339 326 339s327 -113 327 -339v-112c0 -226 -142 -333 -327 -333s-326 106 -326 333zM368 140c110 0 132 84 133 168h-262c0 -83 22 -168 129 -168zM368 614c-97 0 -125 -74 -129 -156h262c-3 82 -25 156 -133 156z" />
    <glyph glyph-name="uni0473" unicode="&#x473;" horiz-adv-x="640" 
d="M37 244v66c0 182 120 259 282 259s284 -77 284 -259v-66c0 -182 -122 -259 -284 -259s-282 77 -282 259zM319 121c53 0 85 26 91 102h-180c5 -76 36 -102 89 -102zM319 433c-51 0 -82 -24 -89 -92h179c-7 68 -40 92 -90 92z" />
    <glyph glyph-name="uni0474" unicode="&#x474;" horiz-adv-x="728" 
d="M-8 755h220l140 -511l67 319c29 140 81 202 211 202c30 0 55 -4 84 -11v-165c-9 4 -24 7 -38 7c-37 0 -57 -16 -74 -64l-156 -532h-207z" />
    <glyph glyph-name="uni0475" unicode="&#x475;" horiz-adv-x="623" 
d="M-1 555h198l112 -353l48 212c24 108 70 155 164 155c26 0 53 -3 81 -9v-147c-8 3 -15 5 -27 5c-21 0 -44 -10 -60 -60l-113 -358h-191z" />
    <glyph glyph-name="uni048A" unicode="&#x48a;" horiz-adv-x="882" 
d="M71 755h188v-244l-6 -207l283 451h188v-584h159l-90 -331h-150l40 160h-147v259l4 192l-281 -451h-188v755zM433 1001h135c0 -130 -82 -173 -171 -173c-96 0 -174 48 -174 173h132c0 -49 16 -60 39 -60c20 0 39 8 39 60z" />
    <glyph glyph-name="uni048B" unicode="&#x48b;" horiz-adv-x="725" 
d="M246 0h-187v555h187v-179l-4 -116l181 295h187v-413h109l-74 -282h-149l32 140h-105v190l3 101zM357 786h135c0 -130 -72 -163 -161 -163c-96 0 -164 38 -164 163h132c0 -49 6 -60 29 -60c20 0 29 8 29 60z" />
    <glyph glyph-name="uni048C" unicode="&#x48c;" horiz-adv-x="801" 
d="M20 555v131h190v99h198v-99h220v-131h-220v-86h114c157 0 255 -98 255 -237c0 -141 -99 -232 -252 -232h-315v555h-190zM470 308h-62v-164h62c72 0 109 16 109 80c0 62 -28 84 -109 84z" />
    <glyph glyph-name="uni048D" unicode="&#x48d;" horiz-adv-x="658" 
d="M13 483v132h126v140h193v-140h176v-132h-176v-89h105c133 0 201 -97 201 -194c0 -96 -69 -200 -197 -200h-302v483h-126zM356 267h-24v-138h32c56 0 81 21 81 70c0 47 -22 68 -89 68z" />
    <glyph glyph-name="uni048E" unicode="&#x48e;" horiz-adv-x="690" 
d="M668 486c0 -100 -45 -181 -123 -226l71 -131h-117l-53 97c-17 -3 -34 -4 -52 -4h-125v-222h-198v755h319c172 0 278 -118 278 -269zM307 485h117l34 -63c12 16 18 37 18 64c0 76 -43 105 -124 105h-83v-211h94z" />
    <glyph glyph-name="uni048F" unicode="&#x48f;" horiz-adv-x="690" 
d="M59 -222v777h193v-56c33 44 86 70 171 70c150 0 227 -78 227 -249v-86c0 -124 -42 -195 -115 -227l58 -119h-112l-47 98c-7 -1 -14 -1 -21 -1c-77 0 -127 20 -161 57v-264h-193zM299 264h112l41 -86c3 11 5 25 5 41v106c0 72 -28 102 -98 102c-61 0 -105 -13 -107 -95
v-103c0 -80 40 -102 109 -102h4z" />
    <glyph glyph-name="uni0490" unicode="&#x490;" horiz-adv-x="570" 
d="M71 755h316v170h170v-331h-288v-594h-198v755z" />
    <glyph glyph-name="uni0491" unicode="&#x491;" horiz-adv-x="471" 
d="M59 555h249v150h150v-292h-206v-413h-193v555z" />
    <glyph glyph-name="uni0492" unicode="&#x492;" horiz-adv-x="602" 
d="M10 288v130h90v337h486v-161h-288v-176h180v-130h-180v-288h-198v288h-90z" />
    <glyph glyph-name="uni0493" unicode="&#x493;" horiz-adv-x="503" 
d="M423 316v-130h-140v-186h-193v186h-69v130h69v239h399v-142h-206v-97h140z" />
    <glyph glyph-name="uni0494" unicode="&#x494;" horiz-adv-x="715" 
d="M71 755h496v-161h-298v-168c40 14 86 24 137 24c179 0 279 -71 279 -298v-75c0 -195 -132 -247 -221 -247c-40 0 -69 5 -94 15v150c14 -4 32 -7 55 -7c30 0 61 17 61 82v69c0 110 -39 142 -118 142c-40 0 -71 -7 -99 -16v-265h-198v755z" />
    <glyph glyph-name="uni0495" unicode="&#x495;" horiz-adv-x="594" 
d="M59 0v555h399v-142h-206v-125c31 8 65 14 99 14c147 0 223 -64 223 -242v-85c0 -160 -102 -209 -181 -209c-34 0 -73 4 -98 12v136c14 -4 25 -6 37 -6c20 0 49 9 49 56v102c0 54 -31 79 -81 79c-18 0 -34 -2 -48 -5v-140h-193z" />
    <glyph glyph-name="uni0496" unicode="&#x496;" horiz-adv-x="1078" 
d="M795 0l-128 298h-64v-298h-184v298h-64l-132 -298h-217l200 395l-196 360h204l153 -296h52v296h184v-296h52l153 296h204l-194 -356l113 -228h130v-331h-150v160h-116z" />
    <glyph glyph-name="uni0497" unicode="&#x497;" horiz-adv-x="920" 
d="M648 0l-85 206h-39v-206h-179v206h-40l-90 -206h-206l161 298l-161 257h215l84 -208h37v208h179v-208h37l90 208h209l-157 -250l84 -163h114v-282h-160v140h-93z" />
    <glyph glyph-name="uni0498" unicode="&#x498;" horiz-adv-x="640" 
d="M382 -160h-150v153c-66 7 -142 24 -193 56v181c76 -48 164 -71 247 -71c73 0 112 24 112 74c0 51 -33 73 -92 73h-144v149h128c63 0 91 28 91 66c0 49 -26 79 -106 79c-77 0 -153 -24 -215 -66v179c63 39 168 55 252 55c199 0 274 -88 274 -209c0 -82 -41 -130 -112 -161
c75 -26 124 -85 124 -182c0 -99 -39 -199 -216 -222v-154z" />
    <glyph glyph-name="uni0499" unicode="&#x499;" horiz-adv-x="561" 
d="M355 -140h-160v132c-56 5 -114 17 -156 39v144c60 -27 146 -41 202 -41c67 0 103 10 103 41c0 28 -17 40 -92 40h-110v130h104c58 0 77 11 77 39s-33 37 -99 37c-45 0 -125 -18 -178 -43v147c46 29 156 43 217 43c190 0 254 -67 254 -156c0 -62 -34 -97 -94 -120
c59 -19 100 -64 100 -120c0 -114 -69 -162 -168 -177v-135z" />
    <glyph glyph-name="uni049A" unicode="&#x49a;" horiz-adv-x="762" 
d="M269 755v-296h58l163 296h210l-202 -356l117 -228h130v-331h-150v160h-118l-137 298h-71v-298h-198v755h198z" />
    <glyph glyph-name="uni049B" unicode="&#x49b;" 
d="M59 0v555h193v-208h51l88 208h219l-160 -250l85 -163h114v-282h-160v140h-95l-89 206h-53v-206h-193z" />
    <glyph glyph-name="uni049C" unicode="&#x49c;" horiz-adv-x="830" 
d="M321 595h118v-136h18l153 296h210l-194 -356l198 -399h-227l-128 298h-30v-148h-118v148h-52v-298h-198v755h198v-296h52v136z" />
    <glyph glyph-name="uni049D" unicode="&#x49d;" horiz-adv-x="723" 
d="M294 88v118h-42v-206h-193v555h193v-208h42v118h102v-118h26l79 208h219l-152 -249l152 -306h-216l-80 206h-28v-118h-102z" />
    <glyph glyph-name="uni049E" unicode="&#x49e;" horiz-adv-x="768" 
d="M396 659v-120h-98v-80h88l163 296h210l-202 -356l206 -399h-227l-137 298h-101v-298h-198v539h-98v120h98v96h198v-96h98z" />
    <glyph glyph-name="uni049F" unicode="&#x49f;" horiz-adv-x="612" 
d="M3 601v112h56v42h193v-42h142v-112h-142v-254h51l88 208h219l-160 -250l160 -305h-216l-89 206h-53v-206h-193v601h-56z" />
    <glyph glyph-name="uni04A0" unicode="&#x4a0;" horiz-adv-x="843" 
d="M15 594v161h388v-296h58l163 296h210l-202 -356l206 -399h-227l-137 298h-71v-298h-198v594h-190z" />
    <glyph glyph-name="uni04A1" unicode="&#x4a1;" horiz-adv-x="705" 
d="M16 413v142h329v-208h51l88 208h219l-160 -250l160 -305h-216l-89 206h-53v-206h-193v413h-136z" />
    <glyph glyph-name="uni04A2" unicode="&#x4a2;" horiz-adv-x="856" 
d="M730 755v-584h109v-331h-150v160h-157v308h-263v-308h-198v755h198v-276h263v276h198z" />
    <glyph glyph-name="uni04A3" unicode="&#x4a3;" horiz-adv-x="710" 
d="M413 555h193v-413h84v-282h-160v140h-117v218h-161v-218h-193v555h193v-195h161v195z" />
    <glyph glyph-name="uni04A4" unicode="&#x4a4;" horiz-adv-x="989" 
d="M980 755v-161h-270v-594h-198v308h-243v-308h-198v755h198v-276h243v276h468z" />
    <glyph glyph-name="uni04A5" unicode="&#x4a5;" horiz-adv-x="795" 
d="M393 555h389v-142h-196v-413h-193v218h-141v-218h-193v555h193v-195h141v195z" />
    <glyph glyph-name="uni04A6" unicode="&#x4a6;" horiz-adv-x="1122" 
d="M675 755v-309c40 14 86 24 137 24c179 0 279 -71 279 -298v-95c0 -195 -132 -247 -221 -247c-40 0 -69 5 -94 15v150c14 -4 32 -7 55 -7c30 0 61 17 61 82v89c0 110 -39 142 -118 142c-40 0 -71 -7 -99 -16v-285h-198v584h-208v-584h-198v755h604z" />
    <glyph glyph-name="uni04A7" unicode="&#x4a7;" horiz-adv-x="918" 
d="M59 0v555h517v-247c31 8 66 14 105 14c137 0 217 -64 217 -242v-105c0 -160 -104 -209 -176 -209c-34 0 -76 4 -103 12v135c14 -4 22 -6 34 -6c21 0 52 9 52 56v123c0 54 -32 79 -81 79c-18 0 -34 -2 -48 -5v-160h-193v413h-131v-413h-193z" />
    <glyph glyph-name="uni04A8" unicode="&#x4a8;" horiz-adv-x="1018" 
d="M394 -15c-207 0 -353 134 -353 393v42c0 243 147 349 301 349v-171c-80 -12 -103 -73 -103 -161v-56c0 -154 57 -228 172 -228c30 0 56 2 80 7c-67 80 -112 181 -112 293c0 164 83 316 290 316c188 0 297 -121 297 -315c0 -136 -60 -235 -143 -308h9c73 0 114 10 134 18
v-164c-40 -9 -76 -15 -133 -15c-63 0 -128 18 -189 51l-11 -4c-54 -22 -134 -47 -239 -47zM577 452c0 -94 40 -168 91 -220c63 48 100 135 100 220c0 83 -13 156 -99 156c-78 0 -92 -76 -92 -156z" />
    <glyph glyph-name="uni04A9" unicode="&#x4a9;" horiz-adv-x="877" 
d="M747 126c40 0 68 6 87 14v-140c-28 -9 -75 -15 -112 -15c-55 0 -113 14 -167 37c-55 -23 -117 -37 -212 -37c-179 0 -308 93 -308 279v36c0 178 125 269 266 269v-143c-42 -11 -74 -54 -74 -126v-21c0 -97 67 -152 153 -152h28c-49 55 -80 123 -80 200
c0 131 88 242 253 242c168 0 253 -84 253 -243c0 -72 -48 -144 -110 -199c8 -1 15 -1 23 -1zM525 327c0 -61 22 -106 56 -138c38 36 56 91 56 138c0 59 -10 100 -56 100c-43 0 -56 -41 -56 -100z" />
    <glyph glyph-name="uni04AA" unicode="&#x4aa;" horiz-adv-x="628" 
d="M590 727v-183c-43 37 -128 54 -190 54c-115 0 -158 -58 -158 -171v-106c0 -132 66 -165 162 -165c40 0 131 6 184 39v-173c-38 -21 -103 -31 -159 -35v-147h-150v156c-146 32 -235 144 -235 332v92c0 227 129 349 336 349c75 0 174 -17 210 -42z" />
    <glyph glyph-name="uni04AB" unicode="&#x4ab;" horiz-adv-x="550" 
d="M333 569c40 0 112 -4 177 -37v-151c-58 30 -116 38 -159 38c-68 0 -111 -29 -111 -108v-74c0 -72 45 -102 114 -102c47 0 100 9 151 37v-145c-32 -21 -69 -33 -115 -38v-129h-160v133c-134 25 -192 110 -192 251v66c0 172 107 259 295 259z" />
    <glyph glyph-name="uni04AC" unicode="&#x4ac;" horiz-adv-x="654" 
d="M224 0v594h-210v161h618v-161h-210v-423h110v-331h-150v160h-158z" />
    <glyph glyph-name="uni04AD" unicode="&#x4ad;" horiz-adv-x="544" 
d="M15 413v142h505v-142h-156v-271h94v-282h-160v140h-127v413h-156z" />
    <glyph glyph-name="uni04AE" unicode="&#x4ae;" 
d="M666 755l-233 -487v-268h-198v265l-252 490h205l151 -318l133 318h194z" />
    <glyph glyph-name="uni04AF" unicode="&#x4af;" horiz-adv-x="606" 
d="M210 -222v224l-211 553h198l113 -357l99 357h197l-203 -553v-224h-193z" />
    <glyph glyph-name="uni04B0" unicode="&#x4b0;" horiz-adv-x="668" 
d="M566 268v-130h-134v-138h-190v138h-134v130h128l-250 487h205l151 -318l133 318h194l-233 -487h130z" />
    <glyph glyph-name="uni04B1" unicode="&#x4b1;" horiz-adv-x="598" 
d="M78 0v132h88l-169 423h198l113 -357l99 357h197l-163 -423h90v-132h-130v-222h-193v222h-130z" />
    <glyph glyph-name="uni04B2" unicode="&#x4b2;" horiz-adv-x="746" 
d="M-6 0l241 382l-224 373h208l133 -235l128 235h204l-224 -369l132 -215h140v-331h-150v160h-103l-132 247l-139 -247h-214z" />
    <glyph glyph-name="uni04B3" unicode="&#x4b3;" horiz-adv-x="629" 
d="M-1 0l192 279l-181 276h194l92 -146l92 146h180l-171 -259l102 -154h114v-282h-160v140h-68l-93 154l-97 -154h-196z" />
    <glyph glyph-name="uni04B4" unicode="&#x4b4;" horiz-adv-x="999" 
d="M205 0v594h-190v161h588v-161h-200v-423h279v584h198v-584h90v-331h-180v160h-585z" />
    <glyph glyph-name="uni04B5" unicode="&#x4b5;" horiz-adv-x="841" 
d="M16 413v142h465v-142h-136v-271h196v413h193v-413h84v-282h-160v140h-506v413h-136z" />
    <glyph glyph-name="uni04B6" unicode="&#x4b6;" horiz-adv-x="784" 
d="M657 755v-584h110v-331h-150v160h-158v294c-41 -14 -102 -29 -164 -29c-131 0 -252 70 -252 210v280h198v-235c0 -55 17 -88 99 -88c49 0 89 9 119 19v304h198z" />
    <glyph glyph-name="uni04B7" unicode="&#x4b7;" horiz-adv-x="664" 
d="M560 555v-413h84v-282h-160v140h-117v203c-35 -11 -82 -20 -142 -20c-100 0 -190 46 -190 206v166h193v-133c0 -84 33 -94 80 -94c18 0 39 3 59 8v219h193z" />
    <glyph glyph-name="uni04B8" unicode="&#x4b8;" horiz-adv-x="759" 
d="M688 755v-755h-198v297c-17 -5 -38 -10 -62 -14v-133h-118v124h-15c-131 0 -252 70 -252 210v271h198v-226c0 -48 12 -79 69 -87v153h118v-150c25 3 45 7 62 11v299h198z" />
    <glyph glyph-name="uni04B9" unicode="&#x4b9;" horiz-adv-x="682" 
d="M280 88v105h-32c-131 0 -215 46 -215 206v156h193v-123c0 -71 13 -96 54 -102v135h102v-131c17 4 33 9 48 15v206h193v-555h-193v218c-14 -5 -29 -9 -48 -13v-117h-102z" />
    <glyph glyph-name="uni04BA" unicode="&#x4ba;" horiz-adv-x="727" 
d="M71 0v755h198v-269c40 14 86 24 137 24c179 0 279 -71 279 -298v-212h-199v185c0 114 -37 156 -124 156c-37 0 -67 -7 -93 -16v-325h-198z" />
    <glyph glyph-name="uni04BB" unicode="&#x4bb;" 
d="M59 0v755h193v-274c34 54 84 88 169 88c118 0 185 -73 185 -213v-356h-193v278c0 82 -15 122 -80 122c-62 0 -80 -38 -81 -116v-284h-193z" />
    <glyph glyph-name="uni04BC" unicode="&#x4bc;" horiz-adv-x="869" 
d="M29 610h142c-4 -20 -7 -43 -7 -73c0 -36 4 -79 58 -79h8c15 206 149 311 299 311c197 0 299 -117 299 -348v-113h-401c5 -118 59 -152 172 -152c66 0 145 13 207 54v-166c-57 -44 -148 -59 -237 -59c-216 0 -331 112 -340 323h-26c-165 0 -187 98 -187 197
c0 39 5 77 13 105zM531 609c-63 0 -98 -47 -103 -151h201c-3 104 -25 151 -98 151z" />
    <glyph glyph-name="uni04BD" unicode="&#x4bd;" horiz-adv-x="772" 
d="M733 267h-1v-51h-336c9 -64 47 -79 123 -79c65 0 124 5 204 39v-137c-76 -42 -144 -54 -242 -54c-190 0 -274 81 -283 231h-28c-132 0 -153 90 -153 173c0 32 5 65 12 88h133c-6 -22 -10 -50 -10 -70c0 -38 4 -75 45 -77c8 158 111 239 267 239c162 0 269 -87 269 -259
v-43zM464 427c-45 0 -67 -29 -70 -97h141c-2 68 -20 97 -71 97z" />
    <glyph glyph-name="uni04BE" unicode="&#x4be;" horiz-adv-x="869" 
d="M29 610h142c-4 -20 -7 -43 -7 -73c0 -36 4 -79 58 -79h8c15 206 149 311 299 311c197 0 299 -117 299 -348v-113h-401c5 -118 59 -152 172 -152c66 0 145 13 207 54v-166c-45 -35 -111 -51 -180 -56v-148h-150v153c-156 29 -240 136 -247 315h-26
c-165 0 -187 98 -187 197c0 39 5 77 13 105zM531 609c-63 0 -98 -47 -103 -151h201c-3 104 -25 151 -98 151z" />
    <glyph glyph-name="uni04BF" unicode="&#x4bf;" horiz-adv-x="772" 
d="M733 267h-1v-51h-336c9 -64 47 -79 123 -79c65 0 124 5 204 39v-137c-52 -29 -101 -43 -157 -50v-129h-160v130c-137 19 -200 97 -208 226h-28c-132 0 -153 90 -153 173c0 32 5 65 12 88h133c-6 -22 -10 -50 -10 -70c0 -38 4 -75 45 -77c8 158 111 239 267 239
c162 0 269 -87 269 -259v-43zM464 427c-45 0 -67 -29 -70 -97h141c-2 68 -20 97 -71 97z" />
    <glyph glyph-name="uni04C0" unicode="&#x4c0;" horiz-adv-x="340" 
d="M269 755v-755h-198v755h198z" />
    <glyph glyph-name="uni04C1" unicode="&#x4c1;" horiz-adv-x="1022" 
d="M223 0h-217l200 395l-196 360h204l153 -296h52v296h184v-296h52l153 296h204l-194 -356l198 -399h-221l-128 298h-64v-298h-184v298h-64zM548 1001h135c0 -130 -82 -173 -171 -173c-96 0 -174 48 -174 173h132c0 -49 16 -60 39 -60c20 0 39 8 39 60z" />
    <glyph glyph-name="uni04C2" unicode="&#x4c2;" horiz-adv-x="869" 
d="M215 0h-206l161 298l-161 257h215l84 -208h37v208h179v-208h37l90 208h209l-157 -250l157 -305h-212l-85 206h-39v-206h-179v206h-40zM462 786h135c0 -130 -72 -163 -161 -163c-96 0 -164 38 -164 163h132c0 -49 6 -60 29 -60c20 0 29 8 29 60z" />
    <glyph glyph-name="uni04C3" unicode="&#x4c3;" horiz-adv-x="736" 
d="M269 755v-316h47l174 316h210l-192 -339c119 -20 182 -87 182 -266v-73c0 -195 -132 -247 -221 -247c-40 0 -69 5 -94 15v150c14 -4 32 -7 55 -7c30 0 61 17 61 82v67c0 110 -44 132 -125 132h-97v-269h-198v755h198z" />
    <glyph glyph-name="uni04C4" unicode="&#x4c4;" horiz-adv-x="637" 
d="M59 555h193v-233h40l99 233h219l-162 -253c97 -21 152 -86 152 -232v-95c0 -160 -104 -209 -174 -209c-34 0 -68 4 -95 12v135c14 -4 22 -6 34 -6c16 0 42 9 42 56v111c0 84 -39 107 -95 107h-60v-181h-193v555z" />
    <glyph glyph-name="uni04C5" unicode="&#x4c5;" horiz-adv-x="854" 
d="M149 755h547v-584h159l-90 -331h-150l40 160h-157v585h-163v-35c0 -55 -4 -165 -9 -240c-18 -272 -111 -314 -223 -314c-30 0 -61 2 -90 9v165c9 -4 26 -7 40 -7c38 0 74 15 85 142c9 101 11 202 11 245v205z" />
    <glyph glyph-name="uni04C6" unicode="&#x4c6;" horiz-adv-x="694" 
d="M386 0v413h-86c-1 -84 -7 -185 -17 -245c-24 -140 -88 -177 -185 -177c-30 0 -56 3 -84 9v147c9 -3 23 -5 37 -5c28 0 50 17 59 66c13 69 16 176 16 239v108h453v-413h109l-74 -282h-149l32 140h-111z" />
    <glyph glyph-name="uni04C7" unicode="&#x4c7;" horiz-adv-x="801" 
d="M532 70v238h-263v-308h-198v755h198v-276h263v276h198v-678c0 -195 -131 -247 -220 -247c-40 0 -69 5 -94 15v150c14 -4 32 -7 55 -7c30 0 61 17 61 82z" />
    <glyph glyph-name="uni04C8" unicode="&#x4c8;" horiz-adv-x="665" 
d="M413 555h193v-580c0 -160 -104 -209 -174 -209c-34 0 -68 4 -95 12v135c14 -4 22 -6 34 -6c16 0 42 9 42 56v255h-161v-218h-193v555h193v-195h161v195z" />
    <glyph glyph-name="uni04C9" unicode="&#x4c9;" horiz-adv-x="888" 
d="M730 755v-584h159l-90 -331h-150l40 160h-157v308h-263v-308h-198v755h198v-276h263v276h198z" />
    <glyph glyph-name="uni04CA" unicode="&#x4ca;" horiz-adv-x="721" 
d="M413 555h193v-413h109l-74 -282h-149l32 140h-111v218h-161v-218h-193v555h193v-195h161v195z" />
    <glyph glyph-name="uni04CB" unicode="&#x4cb;" horiz-adv-x="727" 
d="M656 755v-755h-157v-160h-150v331h109v131c-41 -14 -101 -28 -163 -28c-131 0 -252 70 -252 210v271h198v-226c0 -55 17 -88 99 -88c48 0 88 9 118 19v295h198z" />
    <glyph glyph-name="uni04CC" unicode="&#x4cc;" horiz-adv-x="619" 
d="M560 555v-555h-117v-140h-160v282h84v61c-35 -11 -82 -20 -142 -20c-100 0 -190 46 -190 206v166h193v-133c0 -84 33 -94 80 -94c18 0 39 3 59 8v219h193z" />
    <glyph glyph-name="uni04CD" unicode="&#x4cd;" horiz-adv-x="963" 
d="M805 755v-584h159l-90 -331h-150l40 160h-147v195l7 231l-110 -236h-157l-105 227l7 -212v-205h-188v755h188l181 -365l177 365h188z" />
    <glyph glyph-name="uni04CE" unicode="&#x4ce;" horiz-adv-x="847" 
d="M732 555v-413h109l-74 -282h-149l32 140h-102v143l5 133l-88 -162h-143l-83 154l4 -117v-151h-184v555h184l155 -268l150 268h184z" />
    <glyph glyph-name="uni04CF" unicode="&#x4cf;" horiz-adv-x="311" 
d="M59 0v755h193v-755h-193z" />
    <glyph glyph-name="uni04D0" unicode="&#x4d0;" horiz-adv-x="709" 
d="M-15 0l272 755h207l248 -755h-220l-36 128h-233l-39 -128h-199zM386 1001h135c0 -130 -82 -173 -171 -173c-96 0 -174 48 -174 173h132c0 -49 16 -60 39 -60c20 0 39 8 39 60zM345 522l-76 -246h145z" />
    <glyph glyph-name="uni04D1" unicode="&#x4d1;" horiz-adv-x="614" 
d="M560 0h-193v61c-29 -52 -74 -76 -148 -76c-112 0 -186 67 -186 166c0 117 70 176 222 176h111c-5 53 -24 70 -100 70c-68 0 -131 -13 -203 -55v167c65 40 148 60 240 60c163 0 257 -62 257 -214v-355zM324 786h135c0 -130 -72 -163 -161 -163c-96 0 -164 38 -164 163h132
c0 -49 6 -60 29 -60c20 0 29 8 29 60zM283 114c50 0 83 19 84 104h-65c-68 0 -85 -18 -85 -55c0 -33 22 -49 66 -49z" />
    <glyph glyph-name="uni04D2" unicode="&#x4d2;" horiz-adv-x="709" 
d="M-15 0l272 755h207l248 -755h-220l-36 128h-233l-39 -128h-199zM166 826v145h163v-145h-163zM368 826v145h163v-145h-163zM345 522l-76 -246h145z" />
    <glyph glyph-name="uni04D3" unicode="&#x4d3;" horiz-adv-x="614" 
d="M560 0h-193v61c-29 -52 -74 -76 -148 -76c-112 0 -186 67 -186 166c0 117 70 176 222 176h111c-5 53 -24 70 -100 70c-68 0 -131 -13 -203 -55v167c65 40 148 60 240 60c163 0 257 -62 257 -214v-355zM124 627v145h163v-145h-163zM326 627v145h163v-145h-163zM283 114
c50 0 83 19 84 104h-65c-68 0 -85 -18 -85 -55c0 -33 22 -49 66 -49z" />
    <glyph glyph-name="uni04D4" unicode="&#x4d4;" horiz-adv-x="1010" 
d="M-19 0l315 755h658v-171h-328v-115h290v-171h-290v-127h342v-171h-540v128h-197l-51 -128h-199zM414 584l-123 -308h137v308h-14z" />
    <glyph glyph-name="uni04D5" unicode="&#x4d5;" horiz-adv-x="942" 
d="M33 159c0 105 70 168 222 168h111c-5 53 -25 70 -101 70c-67 0 -130 -13 -202 -55v167c62 39 151 60 233 60c70 0 124 -16 160 -51c45 34 106 51 178 51c162 0 269 -87 269 -259v-94h-337c9 -66 48 -79 131 -79c52 0 117 5 196 39v-137c-76 -43 -155 -54 -231 -54
c-117 0 -195 26 -241 78c-36 -55 -98 -78 -179 -78c-137 0 -209 67 -209 174zM283 114c50 0 83 19 84 104h-65c-66 0 -85 -18 -85 -53s20 -51 66 -51zM636 427c-47 0 -69 -28 -72 -98h141c-2 67 -20 98 -69 98z" />
    <glyph glyph-name="uni04D6" unicode="&#x4d6;" horiz-adv-x="652" 
d="M611 161v-161h-540v755h526v-161h-328v-135h290v-161h-290v-137h342zM369 1001h135c0 -130 -82 -173 -171 -173c-96 0 -174 48 -174 173h132c0 -49 16 -60 39 -60c20 0 39 8 39 60z" />
    <glyph glyph-name="uni04D7" unicode="&#x4d7;" horiz-adv-x="613" 
d="M574 216h-337c9 -64 47 -79 123 -79c65 0 124 5 204 39v-137c-76 -42 -144 -54 -242 -54c-201 0 -284 91 -284 259v66c0 172 105 259 267 259s269 -87 269 -259v-94zM333 786h135c0 -130 -72 -163 -161 -163c-96 0 -164 38 -164 163h132c0 -49 6 -60 29 -60
c20 0 29 8 29 60zM305 427c-45 0 -67 -29 -70 -98h141c-2 69 -20 98 -71 98z" />
    <glyph glyph-name="uni04D8" unicode="&#x4d8;" horiz-adv-x="688" 
d="M275 598c-66 0 -147 -13 -209 -54v166c57 44 150 59 239 59c224 0 340 -121 340 -348v-88c0 -231 -144 -348 -302 -348c-197 0 -303 117 -303 348v113h406c-4 117 -59 152 -171 152zM341 145c63 0 99 46 105 151h-208c4 -105 30 -151 103 -151z" />
    <glyph glyph-name="uni04D9" unicode="&#x4d9;" horiz-adv-x="612" 
d="M308 -15c-162 0 -269 87 -269 259v94h337c-9 64 -47 79 -123 79c-65 0 -124 -5 -204 -39v137c76 42 144 54 242 54c201 0 284 -91 284 -259v-66c0 -172 -105 -259 -267 -259zM308 127c45 0 66 29 69 98h-141c3 -69 20 -98 72 -98z" />
    <glyph glyph-name="uni04DA" unicode="&#x4da;" horiz-adv-x="688" 
d="M275 598c-66 0 -147 -13 -209 -54v166c57 44 150 59 239 59c224 0 340 -121 340 -348v-88c0 -231 -144 -348 -302 -348c-197 0 -303 117 -303 348v113h406c-4 117 -59 152 -171 152zM341 145c63 0 99 46 105 151h-208c4 -105 30 -151 103 -151zM161 826v145h163v-145
h-163zM363 826v145h163v-145h-163z" />
    <glyph glyph-name="uni04DB" unicode="&#x4db;" horiz-adv-x="612" 
d="M308 -15c-162 0 -269 87 -269 259v94h337c-9 64 -47 79 -123 79c-65 0 -124 -5 -204 -39v137c76 42 144 54 242 54c201 0 284 -91 284 -259v-66c0 -172 -105 -259 -267 -259zM119 627v145h163v-145h-163zM321 627v145h163v-145h-163zM308 127c45 0 66 29 69 98h-141
c3 -69 20 -98 72 -98z" />
    <glyph glyph-name="uni04DC" unicode="&#x4dc;" horiz-adv-x="1022" 
d="M223 0h-217l200 395l-196 360h204l153 -296h52v296h184v-296h52l153 296h204l-194 -356l198 -399h-221l-128 298h-64v-298h-184v298h-64zM530 826v145h163v-145h-163zM328 826v145h163v-145h-163z" />
    <glyph glyph-name="uni04DD" unicode="&#x4dd;" horiz-adv-x="869" 
d="M215 0h-206l161 298l-161 257h215l84 -208h37v208h179v-208h37l90 208h209l-157 -250l157 -305h-212l-85 206h-39v-206h-179v206h-40zM454 627v145h163v-145h-163zM252 627v145h163v-145h-163z" />
    <glyph glyph-name="uni04DE" unicode="&#x4de;" horiz-adv-x="644" 
d="M297 -11c-72 0 -183 16 -253 60v175c76 -44 154 -65 237 -65c80 0 122 25 122 75c0 51 -31 72 -107 72h-139v149h137c67 0 92 34 92 72c0 49 -32 76 -129 76c-67 0 -143 -26 -205 -64v174c63 34 160 55 244 55c204 0 295 -88 295 -209c0 -84 -42 -133 -117 -164
c76 -24 129 -81 129 -179c0 -113 -64 -227 -306 -227zM343 826v145h163v-145h-163zM141 826v145h163v-145h-163z" />
    <glyph glyph-name="uni04DF" unicode="&#x4df;" horiz-adv-x="561" 
d="M261 -12c-71 0 -162 13 -222 43v144c60 -27 146 -41 202 -41c67 0 103 10 103 41c0 28 -17 40 -92 40h-110v130h104c58 0 77 11 77 39s-33 37 -99 37c-45 0 -125 -18 -178 -43v147c46 29 156 43 217 43c190 0 254 -67 254 -156c0 -62 -34 -97 -94 -120
c59 -19 100 -64 100 -120c0 -147 -115 -184 -262 -184zM300 627v145h163v-145h-163zM98 627v145h163v-145h-163z" />
    <glyph glyph-name="uni04E0" unicode="&#x4e0;" horiz-adv-x="647" 
d="M49 594v161h546v-161l-208 -157c163 -16 215 -111 215 -214c0 -123 -68 -234 -300 -234c-72 0 -189 16 -259 60v175c76 -48 163 -70 246 -70c73 0 113 24 113 74c0 51 -44 70 -120 70h-136v125l209 171h-306z" />
    <glyph glyph-name="uni04E1" unicode="&#x4e1;" horiz-adv-x="556" 
d="M519 429l-206 -209c128 -15 212 -85 212 -216c0 -144 -98 -238 -306 -238c-72 0 -155 18 -203 45v151c51 -30 134 -44 175 -44c98 0 136 27 136 89c0 53 -45 79 -144 79h-101v118l193 196h-253v155h497v-126z" />
    <glyph glyph-name="uni04E2" unicode="&#x4e2;" horiz-adv-x="795" 
d="M71 755h188v-244l-6 -207l283 451h188v-755h-188v259l4 192l-281 -451h-188v755zM248 837v118h300v-118h-300z" />
    <glyph glyph-name="uni04E3" unicode="&#x4e3;" horiz-adv-x="669" 
d="M59 555h187v-179l-4 -116l181 295h187v-555h-187v190l3 101l-180 -291h-187v555zM197 637v118h275v-118h-275z" />
    <glyph glyph-name="uni04E4" unicode="&#x4e4;" horiz-adv-x="795" 
d="M71 755h188v-244l-6 -207l283 451h188v-755h-188v259l4 192l-281 -451h-188v755zM215 826v145h163v-145h-163zM417 826v145h163v-145h-163z" />
    <glyph glyph-name="uni04E5" unicode="&#x4e5;" horiz-adv-x="669" 
d="M59 555h187v-179l-4 -116l181 295h187v-555h-187v190l3 101l-180 -291h-187v555zM354 627v145h163v-145h-163zM152 627v145h163v-145h-163z" />
    <glyph glyph-name="uni04E6" unicode="&#x4e6;" horiz-adv-x="733" 
d="M44 318v112c0 227 137 339 322 339s323 -113 323 -339v-112c0 -226 -138 -333 -323 -333s-322 106 -322 333zM242 437v-126c0 -81 17 -166 123 -166c108 0 126 84 126 166v126c0 88 -12 172 -126 172c-102 0 -123 -84 -123 -172zM184 826v145h163v-145h-163zM386 826v145
h163v-145h-163z" />
    <glyph glyph-name="uni04E7" unicode="&#x4e7;" horiz-adv-x="640" 
d="M37 244v66c0 182 120 259 282 259s284 -77 284 -259v-66c0 -182 -122 -259 -284 -259s-282 77 -282 259zM239 305v-56c0 -92 24 -122 80 -122s82 30 82 122v56c0 92 -26 122 -82 122s-80 -30 -80 -122zM137 627v145h163v-145h-163zM339 627v145h163v-145h-163z" />
    <glyph glyph-name="uni04E8" unicode="&#x4e8;" horiz-adv-x="741" 
d="M44 318v112c0 227 141 339 326 339s327 -113 327 -339v-112c0 -226 -142 -333 -327 -333s-326 106 -326 333zM368 140c110 0 132 84 133 168h-262c0 -83 22 -168 129 -168zM368 614c-97 0 -125 -74 -129 -156h262c-3 82 -25 156 -133 156z" />
    <glyph glyph-name="uni04E9" unicode="&#x4e9;" horiz-adv-x="640" 
d="M37 244v66c0 182 120 259 282 259s284 -77 284 -259v-66c0 -182 -122 -259 -284 -259s-282 77 -282 259zM319 121c53 0 85 26 91 102h-180c5 -76 36 -102 89 -102zM319 433c-51 0 -82 -24 -89 -92h179c-7 68 -40 92 -90 92z" />
    <glyph glyph-name="uni04EA" unicode="&#x4ea;" horiz-adv-x="741" 
d="M44 318v112c0 227 141 339 326 339s327 -113 327 -339v-112c0 -226 -142 -333 -327 -333s-326 106 -326 333zM368 140c110 0 132 84 133 168h-262c0 -83 22 -168 129 -168zM368 614c-97 0 -125 -74 -129 -156h262c-3 82 -25 156 -133 156zM408 826v145h163v-145h-163z
M206 826v145h163v-145h-163z" />
    <glyph glyph-name="uni04EB" unicode="&#x4eb;" horiz-adv-x="640" 
d="M37 244v66c0 182 120 259 282 259s284 -77 284 -259v-66c0 -182 -122 -259 -284 -259s-282 77 -282 259zM339 627v145h163v-145h-163zM137 627v145h163v-145h-163zM319 121c53 0 85 26 91 102h-180c5 -76 36 -102 89 -102zM319 433c-51 0 -82 -24 -89 -92h179
c-7 68 -40 92 -90 92z" />
    <glyph glyph-name="uni04EC" unicode="&#x4ec;" horiz-adv-x="641" 
d="M132 299v161h272c-8 91 -52 138 -163 138c-62 0 -152 -17 -195 -54v183c36 25 137 42 212 42c209 0 339 -122 339 -349v-92c0 -227 -131 -343 -337 -343c-60 0 -162 10 -212 37v173c53 -33 149 -39 189 -39c99 0 161 29 168 143h-273zM323 826v145h163v-145h-163z
M121 826v145h163v-145h-163z" />
    <glyph glyph-name="uni04ED" unicode="&#x4ed;" horiz-adv-x="559" 
d="M127 220v120h194c-12 57 -59 79 -118 79c-48 0 -105 -8 -163 -38v151c65 33 142 37 182 37c188 0 300 -87 300 -259v-66c0 -170 -91 -259 -292 -259c-78 0 -140 13 -185 42v145c51 -28 103 -37 155 -37c63 0 115 25 123 85h-196zM286 627v145h163v-145h-163zM84 627v145
h163v-145h-163z" />
    <glyph glyph-name="uni04EE" unicode="&#x4ee;" horiz-adv-x="677" 
d="M217 -12c-30 0 -67 4 -96 11v168c9 -4 40 -10 59 -10c31 0 73 2 99 45l-289 553h222l155 -346l111 346h209l-218 -539c-73 -176 -135 -228 -252 -228zM211 837v118h300v-118h-300z" />
    <glyph glyph-name="uni04EF" unicode="&#x4ef;" horiz-adv-x="612" 
d="M612 555l-195 -555l-73 -222h-190l70 194l-225 583h201l111 -356l101 356h200zM168 637v118h275v-118h-275z" />
    <glyph glyph-name="uni04F0" unicode="&#x4f0;" horiz-adv-x="677" 
d="M217 -12c-30 0 -67 4 -96 11v168c9 -4 40 -10 59 -10c31 0 73 2 99 45l-289 553h222l155 -346l111 346h209l-218 -539c-73 -176 -135 -228 -252 -228zM370 826v145h163v-145h-163zM168 826v145h163v-145h-163z" />
    <glyph glyph-name="uni04F1" unicode="&#x4f1;" horiz-adv-x="612" 
d="M612 555l-195 -555l-73 -222h-190l70 194l-225 583h201l111 -356l101 356h200zM325 627v145h163v-145h-163zM123 627v145h163v-145h-163z" />
    <glyph glyph-name="uni04F2" unicode="&#x4f2;" horiz-adv-x="677" 
d="M217 -12c-30 0 -67 4 -96 11v168c9 -4 40 -10 59 -10c31 0 73 2 99 45l-289 553h222l155 -346l111 346h209l-218 -539c-73 -176 -135 -228 -252 -228zM445 960h169l-88 -133h-158zM245 960h169l-88 -133h-158z" />
    <glyph glyph-name="uni04F3" unicode="&#x4f3;" horiz-adv-x="612" 
d="M612 555l-195 -555l-73 -222h-190l70 194l-225 583h201l111 -356l101 356h200zM405 775h159l-99 -153h-148zM215 775h159l-99 -153h-148z" />
    <glyph glyph-name="uni04F4" unicode="&#x4f4;" horiz-adv-x="727" 
d="M458 755h198v-755h-198v302c-41 -14 -101 -28 -163 -28c-131 0 -252 70 -252 210v271h198v-216c0 -66 17 -98 99 -98c48 0 88 9 118 19v295zM380 826v145h163v-145h-163zM178 826v145h163v-145h-163z" />
    <glyph glyph-name="uni04F5" unicode="&#x4f5;" horiz-adv-x="619" 
d="M560 555v-555h-193v203c-35 -11 -82 -20 -142 -20c-100 0 -190 46 -190 206v166h193v-133c0 -84 33 -94 80 -94c18 0 39 3 59 8v219h193zM317 627v145h163v-145h-163zM115 627v145h163v-145h-163z" />
    <glyph glyph-name="uni04F6" unicode="&#x4f6;" horiz-adv-x="570" 
d="M71 0v755h486v-161h-288v-423h110v-331h-150v160h-158z" />
    <glyph glyph-name="uni04F7" unicode="&#x4f7;" horiz-adv-x="475" 
d="M59 0v555h399v-142h-206v-271h94v-282h-160v140h-127z" />
    <glyph glyph-name="uni04F8" unicode="&#x4f8;" horiz-adv-x="990" 
d="M71 755h198v-222h91c172 0 278 -118 278 -269c0 -153 -108 -264 -274 -264h-293v755zM721 755h198v-755h-198v755zM316 369h-47v-207h47c82 0 124 27 124 102c0 76 -33 105 -124 105zM514 826v145h163v-145h-163zM312 826v145h163v-145h-163z" />
    <glyph glyph-name="uni04F9" unicode="&#x4f9;" horiz-adv-x="848" 
d="M535 200c0 -96 -59 -200 -187 -200h-289v555h190v-161h95c133 0 191 -97 191 -194zM789 555v-555h-193v555h193zM443 627v145h163v-145h-163zM241 627v145h163v-145h-163zM263 267h-14v-138h22c56 0 81 21 81 70c0 47 -22 68 -89 68z" />
    <glyph glyph-name="uni0524" unicode="&#x524;" horiz-adv-x="841" 
d="M516 0v584h-247v-584h-198v755h643v-584h110v-331h-150v160h-158z" />
    <glyph glyph-name="uni0525" unicode="&#x525;" horiz-adv-x="700" 
d="M403 0v413h-151v-413h-193v555h537v-413h84v-282h-160v140h-117z" />
    <glyph glyph-name="uni1E02" unicode="&#x1e02;" horiz-adv-x="703" 
d="M71 0v755h329c172 0 251 -76 251 -197c0 -84 -38 -130 -111 -160c75 -26 119 -88 119 -184c0 -113 -61 -214 -252 -214h-336zM233 826v155h193v-155h-193zM379 304h-115v-143h112c52 0 83 21 83 69c0 51 -34 74 -80 74zM368 596h-104v-143h107c51 0 69 30 69 68
c0 41 -21 75 -72 75z" />
    <glyph glyph-name="uni1E03" unicode="&#x1e03;" horiz-adv-x="660" 
d="M59 0v755h193v-253c30 42 76 67 145 67c145 0 223 -78 223 -249v-86c0 -182 -80 -249 -223 -249c-70 0 -115 25 -145 68v-53h-193zM332 427c-48 0 -80 -23 -80 -101v-107c2 -63 29 -92 82 -92c51 0 83 30 83 102v96c0 72 -32 102 -85 102zM334 627v155h193v-155h-193z
" />
    <glyph glyph-name="uni1E04" unicode="&#x1e04;" horiz-adv-x="703" 
d="M71 0v755h329c172 0 251 -76 251 -197c0 -84 -38 -130 -111 -160c75 -26 119 -88 119 -184c0 -113 -61 -214 -252 -214h-336zM250 -255v155h193v-155h-193zM379 304h-115v-143h112c52 0 83 21 83 69c0 51 -34 74 -80 74zM368 596h-104v-143h107c51 0 69 30 69 68
c0 41 -21 75 -72 75z" />
    <glyph glyph-name="uni1E05" unicode="&#x1e05;" horiz-adv-x="660" 
d="M59 0v755h193v-253c30 42 76 67 145 67c145 0 223 -78 223 -249v-86c0 -182 -80 -249 -223 -249c-70 0 -115 25 -145 68v-53h-193zM332 427c-46 0 -77 -21 -80 -90v-108c0 -70 27 -102 82 -102c51 0 83 30 83 102v96c0 72 -32 102 -85 102zM244 -255v155h193v-155h-193z
" />
    <glyph glyph-name="uni1E06" unicode="&#x1e06;" horiz-adv-x="703" 
d="M71 0v755h329c172 0 251 -76 251 -197c0 -84 -38 -130 -111 -160c75 -26 119 -88 119 -184c0 -113 -61 -214 -252 -214h-336zM198 -238v118h275v-118h-275zM379 304h-115v-143h112c52 0 83 21 83 69c0 51 -34 74 -80 74zM368 596h-104v-143h107c51 0 69 30 69 68
c0 41 -21 75 -72 75z" />
    <glyph glyph-name="uni1E07" unicode="&#x1e07;" horiz-adv-x="660" 
d="M59 0v755h193v-253c30 42 76 67 145 67c145 0 223 -78 223 -249v-86c0 -182 -80 -249 -223 -249c-70 0 -115 25 -145 68v-53h-193zM332 427c-48 0 -80 -23 -80 -101v-97c0 -70 27 -102 82 -102c51 0 83 30 83 102v96c0 72 -32 102 -85 102zM198 -238v118h275v-118h-275z
" />
    <glyph glyph-name="uni1E0A" unicode="&#x1e0a;" horiz-adv-x="731" 
d="M374 755c185 0 313 -108 313 -335v-92c0 -227 -128 -328 -313 -328h-303v755h303zM374 586h-105v-415h105c81 0 115 36 115 150v106c0 86 -22 159 -115 159zM225 826v155h193v-155h-193z" />
    <glyph glyph-name="uni1E0B" unicode="&#x1e0b;" horiz-adv-x="659" 
d="M407 504v251h193v-755h-193v53c-30 -43 -75 -68 -144 -68c-143 0 -223 67 -223 249v86c0 171 78 249 223 249c68 0 114 -24 144 -65zM328 427c-53 0 -85 -30 -85 -102v-96c0 -72 32 -102 83 -102c55 0 81 32 81 102v119c-6 60 -36 79 -79 79zM149 628v155h193v-155h-193z
" />
    <glyph glyph-name="uni1E0C" unicode="&#x1e0c;" horiz-adv-x="731" 
d="M374 755c185 0 313 -108 313 -335v-92c0 -227 -128 -328 -313 -328h-303v755h303zM374 586h-105v-415h105c81 0 115 36 115 150v106c0 86 -22 159 -115 159zM218 -255v155h193v-155h-193z" />
    <glyph glyph-name="uni1E0D" unicode="&#x1e0d;" horiz-adv-x="659" 
d="M407 504v251h193v-755h-193v53c-30 -43 -75 -68 -144 -68c-143 0 -223 67 -223 249v86c0 171 78 249 223 249c68 0 114 -24 144 -65zM328 427c-53 0 -85 -30 -85 -102v-96c0 -72 32 -102 83 -102c55 0 81 32 81 102v119c-6 60 -36 79 -79 79zM249 -255v155h193v-155h-193
z" />
    <glyph glyph-name="uni1E0E" unicode="&#x1e0e;" horiz-adv-x="731" 
d="M374 755c185 0 313 -108 313 -335v-92c0 -227 -128 -328 -313 -328h-303v755h303zM374 586h-105v-415h105c81 0 115 36 115 150v106c0 86 -22 159 -115 159zM188 -238v118h275v-118h-275z" />
    <glyph glyph-name="uni1E0F" unicode="&#x1e0f;" horiz-adv-x="659" 
d="M407 504v251h193v-755h-193v53c-30 -43 -75 -68 -144 -68c-143 0 -223 67 -223 249v86c0 171 78 249 223 249c68 0 114 -24 144 -65zM328 427c-53 0 -85 -30 -85 -102v-96c0 -72 32 -102 83 -102c52 0 78 29 81 92v129c-6 60 -36 79 -79 79zM209 -238v118h275v-118h-275z
" />
    <glyph glyph-name="uni1E1E" unicode="&#x1e1e;" horiz-adv-x="627" 
d="M559 429v-161h-290v-268h-198v755h526v-161h-328v-165h290zM250 826v155h193v-155h-193z" />
    <glyph glyph-name="uni1E1F" unicode="&#x1e1f;" horiz-adv-x="414" 
d="M31 413v142h65v37c0 119 82 178 195 178c34 0 88 -4 119 -12v-133c-18 3 -36 6 -51 6c-43 0 -70 -6 -70 -60v-16h110v-142h-110v-413h-193v413h-65zM-90 699v155h193v-155h-193z" />
    <glyph glyph-name="uni1E20" unicode="&#x1e20;" horiz-adv-x="719" 
d="M668 446v-409c-82 -37 -165 -52 -265 -52c-191 0 -359 81 -359 343v92c0 260 174 349 363 349c87 0 158 -14 233 -47v-174c-73 40 -135 51 -212 51c-106 0 -186 -37 -186 -172v-106c0 -134 78 -165 165 -165c25 0 44 1 63 4v125h-103v161h301zM242 838v118h300v-118h-300
z" />
    <glyph glyph-name="uni1E21" unicode="&#x1e21;" horiz-adv-x="659" 
d="M600 555v-510c0 -200 -137 -279 -331 -279c-107 0 -150 18 -201 38v157c61 -27 131 -39 202 -39c96 0 137 43 137 124v32c-30 -43 -75 -68 -144 -68c-143 0 -223 67 -223 249v61c0 171 78 249 223 249c68 0 114 -24 144 -65v51h193zM328 427c-53 0 -85 -30 -85 -102v-71
c0 -72 32 -102 83 -102c55 0 81 32 81 102v94c-6 60 -36 79 -79 79zM204 637v118h275v-118h-275z" />
    <glyph glyph-name="uni1E22" unicode="&#x1e22;" horiz-adv-x="801" 
d="M730 755v-755h-198v308h-263v-308h-198v755h198v-276h263v276h198zM306 826v155h193v-155h-193z" />
    <glyph glyph-name="uni1E23" unicode="&#x1e23;" 
d="M59 0v755h193v-274c34 54 84 88 169 88c118 0 185 -73 185 -213v-356h-193v278c0 82 -15 122 -80 122c-62 0 -80 -38 -81 -116v-284h-193zM339 627v155h193v-155h-193z" />
    <glyph glyph-name="uni1E24" unicode="&#x1e24;" horiz-adv-x="801" 
d="M730 755v-755h-198v308h-263v-308h-198v755h198v-276h263v276h198zM302 -255v155h193v-155h-193z" />
    <glyph glyph-name="uni1E25" unicode="&#x1e25;" 
d="M59 0v755h193v-274c34 54 84 88 169 88c118 0 185 -73 185 -213v-356h-193v278c0 82 -15 122 -80 122c-62 0 -80 -38 -81 -116v-284h-193zM244 -255v155h193v-155h-193z" />
    <glyph glyph-name="uni1E2A" unicode="&#x1e2a;" horiz-adv-x="801" 
d="M730 755v-755h-198v308h-263v-308h-198v755h198v-276h263v276h198zM431 -86h135c0 -130 -72 -163 -161 -163c-96 0 -164 38 -164 163h132c0 -49 6 -60 29 -60c20 0 29 8 29 60z" />
    <glyph glyph-name="uni1E2B" unicode="&#x1e2b;" 
d="M59 0v755h193v-274c34 54 84 88 169 88c118 0 185 -73 185 -213v-356h-193v278c0 82 -15 122 -80 122s-81 -42 -81 -128v-272h-193zM372 -86h135c0 -130 -72 -163 -161 -163c-96 0 -164 38 -164 163h132c0 -49 6 -60 29 -60c20 0 29 8 29 60z" />
    <glyph glyph-name="uni1E32" unicode="&#x1e32;" horiz-adv-x="709" 
d="M269 755v-296h58l163 296h210l-202 -356l206 -399h-227l-137 298h-71v-298h-198v755h198zM260 -255v155h193v-155h-193z" />
    <glyph glyph-name="uni1E33" unicode="&#x1e33;" horiz-adv-x="612" 
d="M59 0v755h193v-408h51l88 208h219l-160 -250l160 -305h-216l-89 206h-53v-206h-193zM230 -255v155h193v-155h-193z" />
    <glyph glyph-name="uni1E34" unicode="&#x1e34;" horiz-adv-x="709" 
d="M269 755v-296h58l163 296h210l-202 -356l206 -399h-227l-137 298h-71v-298h-198v755h198zM228 -238v118h275v-118h-275z" />
    <glyph glyph-name="uni1E35" unicode="&#x1e35;" horiz-adv-x="612" 
d="M59 0v755h193v-408h51l88 208h219l-160 -250l160 -305h-216l-89 206h-53v-206h-193zM186 -238v118h275v-118h-275z" />
    <glyph glyph-name="uni1E36" unicode="&#x1e36;" horiz-adv-x="574" 
d="M561 161v-161h-490v755h198v-594h292zM226 -255v155h193v-155h-193z" />
    <glyph glyph-name="uni1E37" unicode="&#x1e37;" horiz-adv-x="360" 
d="M121 -255v155h193v-155h-193zM56 145v610h193v-533c0 -62 10 -82 53 -82c19 0 37 3 48 8v-151c-31 -8 -75 -12 -109 -12c-99 0 -185 41 -185 160z" />
    <glyph glyph-name="uni1E38" unicode="&#x1e38;" horiz-adv-x="574" 
d="M561 161v-161h-490v755h198v-594h292zM13 838v118h300v-118h-300zM226 -255v155h193v-155h-193z" />
    <glyph glyph-name="uni1E39" unicode="&#x1e39;" horiz-adv-x="360" 
d="M0 848v118h300v-118h-300zM56 145v610h193v-533c0 -62 10 -82 53 -82c19 0 37 3 48 8v-151c-31 -8 -75 -12 -109 -12c-99 0 -185 41 -185 160zM121 -255v155h193v-155h-193z" />
    <glyph glyph-name="uni1E3A" unicode="&#x1e3a;" horiz-adv-x="574" 
d="M561 161v-161h-490v755h198v-594h292zM190 -238v118h275v-118h-275z" />
    <glyph glyph-name="uni1E3B" unicode="&#x1e3b;" horiz-adv-x="360" 
d="M86 -238v118h275v-118h-275zM56 145v610h193v-533c0 -62 10 -82 53 -82c19 0 37 3 48 8v-151c-31 -8 -75 -12 -109 -12c-99 0 -185 41 -185 160z" />
    <glyph glyph-name="uni1E3E" unicode="&#x1e3e;" horiz-adv-x="876" 
d="M357 190l-105 227l7 -212v-205h-188v755h188l181 -365l177 365h188v-755h-188v195l7 231l-110 -236h-157zM433 960h169l-88 -133h-158z" />
    <glyph glyph-name="uni1E3F" unicode="&#x1e3f;" horiz-adv-x="995" 
d="M59 0v555h193v-74c34 54 84 88 169 88s138 -38 161 -112c34 68 86 112 183 112c118 0 175 -73 175 -213v-356h-193v278c0 82 -5 122 -70 122c-62 0 -80 -38 -81 -116v-284h-193v278c0 82 -5 122 -70 122c-62 0 -80 -38 -81 -116v-284h-193zM530 775h159l-99 -153h-148z
" />
    <glyph glyph-name="uni1E40" unicode="&#x1e40;" horiz-adv-x="876" 
d="M357 190l-105 227l7 -212v-205h-188v755h188l181 -365l177 365h188v-755h-188v195l7 231l-110 -236h-157zM331 826v155h193v-155h-193z" />
    <glyph glyph-name="uni1E41" unicode="&#x1e41;" horiz-adv-x="995" 
d="M59 0v555h193v-74c34 54 84 88 169 88s138 -38 161 -112c34 68 86 112 183 112c118 0 175 -73 175 -213v-356h-193v278c0 82 -5 122 -70 122c-62 0 -80 -38 -81 -116v-284h-193v278c0 82 -5 122 -70 122c-62 0 -80 -38 -81 -116v-284h-193zM415 627v155h193v-155h-193z
" />
    <glyph glyph-name="uni1E42" unicode="&#x1e42;" horiz-adv-x="876" 
d="M357 190l-105 227l7 -212v-205h-188v755h188l181 -365l177 365h188v-755h-188v195l7 231l-110 -236h-157zM344 -255v155h193v-155h-193z" />
    <glyph glyph-name="uni1E43" unicode="&#x1e43;" horiz-adv-x="995" 
d="M59 0v555h193v-74c34 54 84 88 169 88s138 -38 161 -112c34 68 86 112 183 112c118 0 175 -73 175 -213v-356h-193v278c0 82 -5 122 -70 122c-62 0 -80 -38 -81 -116v-284h-193v278c0 82 -5 122 -70 122c-62 0 -80 -38 -81 -116v-284h-193zM403 -255v155h193v-155h-193z
" />
    <glyph glyph-name="uni1E44" unicode="&#x1e44;" horiz-adv-x="795" 
d="M724 755v-755h-188l-282 444l5 -185v-259h-188v755h188l282 -444l-5 200v244h188zM303 826v155h193v-155h-193z" />
    <glyph glyph-name="uni1E45" unicode="&#x1e45;" 
d="M59 0v555h193v-74c34 54 84 88 169 88c118 0 185 -73 185 -213v-356h-193v278c0 82 -15 122 -80 122c-62 0 -80 -38 -81 -116v-284h-193zM227 627v155h193v-155h-193z" />
    <glyph glyph-name="uni1E46" unicode="&#x1e46;" horiz-adv-x="795" 
d="M724 755v-755h-188l-282 444l5 -185v-259h-188v755h188l282 -444l-5 200v244h188zM310 -255v155h193v-155h-193z" />
    <glyph glyph-name="uni1E47" unicode="&#x1e47;" 
d="M59 0v555h193v-74c34 54 84 88 169 88c118 0 185 -73 185 -213v-356h-193v278c0 82 -15 122 -80 122c-62 0 -80 -38 -81 -116v-284h-193zM240 -213v155h193v-155h-193z" />
    <glyph glyph-name="uni1E48" unicode="&#x1e48;" horiz-adv-x="795" 
d="M724 755v-755h-188l-282 444l5 -185v-259h-188v755h188l282 -444l-5 200v244h188zM257 -238v118h275v-118h-275z" />
    <glyph glyph-name="uni1E49" unicode="&#x1e49;" 
d="M59 0v555h193v-74c34 54 84 88 169 88c118 0 185 -73 185 -213v-356h-193v278c0 82 -15 122 -80 122c-62 0 -80 -38 -81 -116v-284h-193zM197 -238v118h275v-118h-275z" />
    <glyph glyph-name="uni1E56" unicode="&#x1e56;" horiz-adv-x="680" 
d="M658 486c0 -153 -108 -264 -274 -264h-115v-222h-198v755h309c172 0 278 -118 278 -269zM336 591h-67v-207h67c82 0 124 27 124 102c0 76 -33 105 -124 105zM221 826v155h193v-155h-193z" />
    <glyph glyph-name="uni1E57" unicode="&#x1e57;" horiz-adv-x="660" 
d="M59 -222v777h193v-53c30 42 76 67 145 67c145 0 223 -78 223 -249v-86c0 -182 -90 -249 -233 -249c-62 0 -105 19 -135 53v-260h-193zM332 427c-46 0 -77 -21 -80 -90v-108c0 -70 27 -102 82 -102c51 0 83 30 83 102v96c0 72 -32 102 -85 102zM212 627v155h193v-155h-193
z" />
    <glyph glyph-name="uni1E58" unicode="&#x1e58;" horiz-adv-x="701" 
d="M658 503c0 -88 -38 -173 -111 -221l122 -282h-216l-95 242h-89v-242h-198v755h329c172 0 258 -121 258 -252zM325 596h-56v-197h67c82 0 124 25 124 100c0 76 -44 97 -135 97zM228 826v155h193v-155h-193z" />
    <glyph glyph-name="uni1E59" unicode="&#x1e59;" horiz-adv-x="440" 
d="M59 0v555h193v-94c33 64 90 108 169 108v-197c-12 2 -24 3 -35 3c-94 0 -131 -63 -134 -171v-204h-193zM148 627v155h193v-155h-193z" />
    <glyph glyph-name="uni1E5A" unicode="&#x1e5a;" horiz-adv-x="701" 
d="M658 503c0 -88 -38 -173 -111 -221l122 -282h-216l-95 242h-89v-242h-198v755h329c172 0 258 -121 258 -252zM325 596h-56v-197h67c82 0 124 25 124 100c0 76 -44 97 -135 97zM246 -255v155h193v-155h-193z" />
    <glyph glyph-name="uni1E5B" unicode="&#x1e5b;" horiz-adv-x="440" 
d="M59 0v555h193v-94c33 64 90 108 169 108v-197c-12 2 -24 3 -35 3c-94 0 -131 -63 -134 -171v-204h-193zM64 -255v155h193v-155h-193z" />
    <glyph glyph-name="uni1E5C" unicode="&#x1e5c;" horiz-adv-x="701" 
d="M658 503c0 -88 -38 -173 -111 -221l122 -282h-216l-95 242h-89v-242h-198v755h329c172 0 258 -121 258 -252zM173 838v118h300v-118h-300zM325 596h-56v-197h67c82 0 124 25 124 100c0 76 -44 97 -135 97zM246 -255v155h193v-155h-193z" />
    <glyph glyph-name="uni1E5D" unicode="&#x1e5d;" horiz-adv-x="440" 
d="M59 0v555h193v-94c33 64 90 108 169 108v-197c-12 2 -24 3 -35 3c-94 0 -131 -63 -134 -171v-204h-193zM107 637v118h275v-118h-275zM64 -255v155h193v-155h-193z" />
    <glyph glyph-name="uni1E5E" unicode="&#x1e5e;" horiz-adv-x="701" 
d="M658 503c0 -88 -38 -173 -111 -221l122 -282h-216l-95 242h-89v-242h-198v755h329c172 0 258 -121 258 -252zM325 596h-56v-197h67c82 0 124 25 124 100c0 76 -44 97 -135 97zM210 -238v118h275v-118h-275z" />
    <glyph glyph-name="uni1E5F" unicode="&#x1e5f;" horiz-adv-x="440" 
d="M59 0v555h193v-94c33 64 90 108 169 108v-197c-12 2 -24 3 -35 3c-94 0 -131 -63 -134 -171v-204h-193zM20 -238v118h275v-118h-275z" />
    <glyph glyph-name="uni1E60" unicode="&#x1e60;" horiz-adv-x="647" 
d="M232 826v155h193v-155h-193zM58 43v181c76 -48 170 -71 253 -71c70 0 102 16 102 68c0 45 -25 60 -82 68l-107 15c-133 19 -183 99 -183 217c0 185 145 247 302 247c65 0 185 -11 240 -50v-181c-63 44 -155 66 -227 66c-79 0 -118 -19 -118 -65c0 -43 30 -64 77 -70
l96 -13c148 -20 200 -117 200 -225c0 -183 -151 -241 -313 -241c-80 0 -167 14 -240 54z" />
    <glyph glyph-name="uni1E61" unicode="&#x1e61;" horiz-adv-x="565" 
d="M48 31v145c60 -30 142 -47 225 -47c47 0 80 12 80 36c0 23 -14 28 -56 33l-91 11c-87 12 -169 53 -169 168c0 148 137 192 257 192c67 0 161 -14 207 -43v-158c-56 34 -132 60 -208 60c-53 0 -79 -15 -79 -35s10 -28 60 -33l76 -8c115 -11 182 -60 182 -168
c0 -153 -134 -196 -262 -196c-71 0 -162 13 -222 43zM184 627v155h193v-155h-193z" />
    <glyph glyph-name="uni1E62" unicode="&#x1e62;" horiz-adv-x="647" 
d="M219 -255v155h193v-155h-193zM58 43v181c76 -48 170 -71 253 -71c70 0 102 16 102 68c0 45 -25 60 -82 68l-107 15c-133 19 -183 99 -183 217c0 185 145 247 302 247c65 0 185 -11 240 -50v-181c-63 44 -155 66 -227 66c-79 0 -118 -19 -118 -65c0 -43 30 -64 77 -70
l96 -13c148 -20 200 -117 200 -225c0 -183 -151 -241 -313 -241c-80 0 -167 14 -240 54z" />
    <glyph glyph-name="uni1E63" unicode="&#x1e63;" horiz-adv-x="565" 
d="M48 31v145c60 -30 142 -47 225 -47c47 0 80 12 80 36c0 23 -14 28 -56 33l-91 11c-87 12 -169 53 -169 168c0 148 137 192 257 192c67 0 161 -14 207 -43v-158c-56 34 -132 60 -208 60c-53 0 -79 -15 -79 -35s10 -28 60 -33l76 -8c115 -11 182 -60 182 -168
c0 -153 -134 -196 -262 -196c-71 0 -162 13 -222 43zM173 -255v155h193v-155h-193z" />
    <glyph glyph-name="uni1E6A" unicode="&#x1e6a;" horiz-adv-x="646" 
d="M632 755v-161h-210v-594h-198v594h-210v161h618zM221 826v155h193v-155h-193z" />
    <glyph glyph-name="uni1E6B" unicode="&#x1e6b;" horiz-adv-x="441" 
d="M18 413v142h76v146h193v-146h120v-142h-120v-211c0 -53 27 -60 65 -60c20 0 32 2 56 6v-151c-31 -8 -86 -12 -116 -12c-117 0 -198 59 -198 178v250h-76zM95 756v155h193v-155h-193z" />
    <glyph glyph-name="uni1E6C" unicode="&#x1e6c;" horiz-adv-x="646" 
d="M632 755v-161h-210v-594h-198v594h-210v161h618zM226 -255v155h193v-155h-193z" />
    <glyph glyph-name="uni1E6D" unicode="&#x1e6d;" horiz-adv-x="441" 
d="M18 413v142h76v146h193v-146h120v-142h-120v-211c0 -53 27 -60 65 -60c20 0 32 2 56 6v-151c-31 -8 -86 -12 -116 -12c-117 0 -198 59 -198 178v250h-76zM163 -255v155h193v-155h-193z" />
    <glyph glyph-name="uni1E6E" unicode="&#x1e6e;" horiz-adv-x="646" 
d="M632 755v-161h-210v-594h-198v594h-210v161h618zM189 -238v118h275v-118h-275z" />
    <glyph glyph-name="uni1E6F" unicode="&#x1e6f;" horiz-adv-x="441" 
d="M18 413v142h76v146h193v-146h120v-142h-120v-211c0 -53 27 -60 65 -60c20 0 32 2 56 6v-151c-31 -8 -86 -12 -116 -12c-117 0 -198 59 -198 178v250h-76zM121 -238v118h275v-118h-275z" />
    <glyph glyph-name="uni1E7C" unicode="&#x1e7c;" horiz-adv-x="708" 
d="M724 755l-273 -755h-207l-247 755h220l143 -521l154 521h210zM281 869c-26 0 -56 -19 -80 -35v126c18 17 47 40 80 40c43 0 125 -41 164 -41c26 0 53 18 76 34v-124c-18 -20 -49 -41 -79 -41c-42 0 -124 41 -161 41z" />
    <glyph glyph-name="uni1E7D" unicode="&#x1e7d;" horiz-adv-x="605" 
d="M604 555l-204 -555h-191l-212 555h198l113 -357l99 357h197zM217 663c-26 0 -56 -19 -80 -35v126c18 17 47 40 80 40c43 0 125 -41 164 -41c26 0 53 18 76 34v-124c-18 -20 -49 -41 -79 -41c-42 0 -124 41 -161 41z" />
    <glyph glyph-name="uni1E7E" unicode="&#x1e7e;" horiz-adv-x="708" 
d="M724 755l-273 -755h-207l-247 755h220l143 -521l154 521h210zM254 -255v155h193v-155h-193z" />
    <glyph glyph-name="uni1E7F" unicode="&#x1e7f;" horiz-adv-x="605" 
d="M604 555l-204 -555h-191l-212 555h198l113 -357l99 357h197zM204 -255v155h193v-155h-193z" />
    <glyph glyph-name="Wgrave" unicode="&#x1e80;" horiz-adv-x="1061" 
d="M1068 755l-209 -755h-197l-77 266l-52 212l-57 -208l-82 -270h-197l-199 755h210l101 -517l135 517h189l136 -516l100 516h199zM373 960h169l77 -133h-158z" />
    <glyph glyph-name="wgrave" unicode="&#x1e81;" horiz-adv-x="856" 
d="M849 555l-136 -555h-197l-87 337l-94 -337h-191l-138 555h182l60 -357l104 357h160l102 -359l58 359h177zM258 775h159l88 -153h-148z" />
    <glyph glyph-name="Wacute" unicode="&#x1e82;" horiz-adv-x="1061" 
d="M1068 755l-209 -755h-197l-77 266l-52 212l-57 -208l-82 -270h-197l-199 755h210l101 -517l135 517h189l136 -516l100 516h199zM537 960h169l-88 -133h-158z" />
    <glyph glyph-name="wacute" unicode="&#x1e83;" horiz-adv-x="856" 
d="M849 555l-136 -555h-197l-87 337l-94 -337h-191l-138 555h182l60 -357l104 357h160l102 -359l58 359h177zM462 775h159l-99 -153h-148z" />
    <glyph glyph-name="Wdieresis" unicode="&#x1e84;" horiz-adv-x="1061" 
d="M1068 755l-209 -755h-197l-77 266l-52 212l-57 -208l-82 -270h-197l-199 755h210l101 -517l135 517h189l136 -516l100 516h199zM359 826v145h163v-145h-163zM561 826v145h163v-145h-163z" />
    <glyph glyph-name="wdieresis" unicode="&#x1e85;" horiz-adv-x="856" 
d="M849 555l-136 -555h-197l-87 337l-94 -337h-191l-138 555h182l60 -357l104 357h160l102 -359l58 359h177zM469 627v145h163v-145h-163zM267 627v145h163v-145h-163z" />
    <glyph glyph-name="uni1E86" unicode="&#x1e86;" horiz-adv-x="1061" 
d="M1068 755l-209 -755h-197l-77 266l-52 212l-57 -208l-82 -270h-197l-199 755h210l101 -517l135 517h189l136 -516l100 516h199zM448 826v155h193v-155h-193z" />
    <glyph glyph-name="uni1E87" unicode="&#x1e87;" horiz-adv-x="856" 
d="M849 555l-136 -555h-197l-87 337l-94 -337h-191l-138 555h182l60 -357l104 357h160l102 -359l58 359h177zM338 627v155h193v-155h-193z" />
    <glyph glyph-name="uni1E88" unicode="&#x1e88;" horiz-adv-x="1061" 
d="M1068 755l-209 -755h-197l-77 266l-52 212l-57 -208l-82 -270h-197l-199 755h210l101 -517l135 517h189l136 -516l100 516h199zM441 -255v155h193v-155h-193z" />
    <glyph glyph-name="uni1E89" unicode="&#x1e89;" horiz-adv-x="856" 
d="M849 555l-136 -555h-197l-87 337l-94 -337h-191l-138 555h182l60 -357l104 357h160l102 -359l58 359h177zM331 -255v155h193v-155h-193z" />
    <glyph glyph-name="uni1E8A" unicode="&#x1e8a;" horiz-adv-x="693" 
d="M-6 0l241 382l-224 373h208l133 -235l128 235h204l-224 -369l237 -386h-218l-132 247l-139 -247h-214zM259 826v155h193v-155h-193z" />
    <glyph glyph-name="uni1E8B" unicode="&#x1e8b;" horiz-adv-x="588" 
d="M-1 0l192 279l-181 276h194l92 -146l92 146h180l-171 -259l196 -296h-208l-93 154l-97 -154h-196zM194 627v155h193v-155h-193z" />
    <glyph glyph-name="uni1E8E" unicode="&#x1e8e;" 
d="M666 755l-233 -487v-268h-198v265l-252 490h205l151 -318l133 318h194zM230 826v155h193v-155h-193z" />
    </font>
</defs>
</svg>
