<svg xmlns="http://www.w3.org/2000/svg"  viewBox="0 0 48 48" width="54px" height="54px" fill="#ec0000"><path d="M 24 2 C 18.494917 2 14 6.494921 14 12 C 14 17.505079 18.494917 22 24 22 C 29.505083 22 34 17.505079 34 12 C 34 6.494921 29.505083 2 24 2 z M 24 5 C 27.883764 5 31 8.1162385 31 12 C 31 15.883762 27.883764 19 24 19 C 20.116236 19 17 15.883762 17 12 C 17 8.1162385 20.116236 5 24 5 z M 11.978516 26 C 9.7987044 26 8 27.798705 8 29.978516 L 8 31.5 C 8 35.104167 10.27927 37.892227 13.306641 39.5625 C 16.334011 41.232773 20.168103 42 24 42 C 27.831897 42 31.665989 41.232773 34.693359 39.5625 C 37.274641 38.138345 39.217335 35.862616 39.761719 33 L 40.001953 33 L 40.001953 29.978516 C 40.001953 27.798705 38.201295 26 36.021484 26 L 11.978516 26 z M 11.978516 29 L 21.691406 29 L 23.142578 32.142578 L 20.505859 38.736328 C 18.346934 38.415664 16.334046 37.808224 14.755859 36.9375 C 12.34573 35.607773 11 33.895833 11 31.5 L 11 29.978516 C 11 29.420326 11.420326 29 11.978516 29 z M 26.308594 29 L 36.021484 29 C 36.579674 29 37.001953 29.420326 37.001953 29.978516 L 37.001953 30 L 37 30 L 37 31.5 C 37 33.895833 35.65427 35.607773 33.244141 36.9375 C 31.665954 37.808224 29.653066 38.415664 27.494141 38.736328 L 24.857422 32.142578 L 26.308594 29 z"/></svg>