<svg xmlns="http://www.w3.org/2000/svg"  viewBox="0 0 48 48" width="54px" height="54px" fill="#ec0000"><path d="M 21 4 C 15.494917 4 11 8.494921 11 14 C 11 19.505079 15.494917 24 21 24 C 26.505083 24 31 19.505079 31 14 C 31 8.494921 26.505083 4 21 4 z M 21 7 C 24.883764 7 28 10.116238 28 14 C 28 17.883762 24.883764 21 21 21 C 17.116236 21 14 17.883762 14 14 C 14 10.116238 17.116236 7 21 7 z M 35 24 C 28.925 24 24 28.925 24 35 C 24 41.075 28.925 46 35 46 C 41.075 46 46 41.075 46 35 C 46 28.925 41.075 24 35 24 z M 9.5 28 C 7.02 28 5 30.02 5 32.5 L 5 33.699219 C 5 39.479219 12.03 44 21 44 C 22.49 44 23.929062 43.870859 25.289062 43.630859 C 24.549063 42.800859 23.910391 41.880859 23.400391 40.880859 C 22.630391 40.960859 21.83 41 21 41 C 12.97 41 8 37.209219 8 33.699219 L 8 32.5 C 8 31.67 8.67 31 9.5 31 L 22.630859 31 C 22.970859 29.93 23.450781 28.93 24.050781 28 L 9.5 28 z M 35 28 C 35.48 28 35.908453 28.305766 36.064453 28.759766 L 37.177734 32 L 40.875 32 C 41.358 32 41.787406 32.308625 41.941406 32.765625 C 42.095406 33.223625 41.939687 33.729484 41.554688 34.021484 L 38.560547 36.292969 L 39.574219 39.539062 C 39.720219 40.005063 39.548391 40.510969 39.150391 40.792969 C 38.955391 40.930969 38.727 41 38.5 41 C 38.263 41 38.025172 40.925391 37.826172 40.775391 L 35 38.660156 L 32.173828 40.775391 C 31.783828 41.068391 31.248609 41.076922 30.849609 40.794922 C 30.451609 40.512922 30.279781 40.005063 30.425781 39.539062 L 31.439453 36.294922 L 28.445312 34.021484 C 28.060312 33.729484 27.904594 33.225578 28.058594 32.767578 C 28.213594 32.309578 28.642 32 29.125 32 L 32.822266 32 L 33.935547 28.759766 C 34.091547 28.305766 34.52 28 35 28 z"/></svg>