<svg xmlns="http://www.w3.org/2000/svg"  viewBox="0 0 48 48" width="64px" height="64px" fill="#7b7979"><path d="M 18 4 C 12.486 4 8 8.486 8 14 C 8 19.514 12.486 24 18 24 C 20.252 24 22.326 23.241469 24 21.980469 L 24 17.587891 C 22.775 19.627891 20.548 21 18 21 C 14.141 21 11 17.859 11 14 C 11 10.141 14.141 7 18 7 C 20.548 7 22.775 8.3721094 24 10.412109 L 24 8.5 C 24 7.732 24.140719 6.9975 24.386719 6.3125 C 22.652719 4.8695 20.427 4 18 4 z M 30.5 4 C 28.032499 4 26 6.0324991 26 8.5 L 26 22.5 A 1.50015 1.50015 0 0 0 28.332031 23.748047 L 33.955078 20 L 41.5 20 C 43.967501 20 46 17.967501 46 15.5 L 46 8.5 C 46 6.0324991 43.967501 4 41.5 4 L 30.5 4 z M 30.5 7 L 41.5 7 C 42.346499 7 43 7.6535009 43 8.5 L 43 15.5 C 43 16.346499 42.346499 17 41.5 17 L 33.5 17 A 1.50015 1.50015 0 0 0 32.667969 17.251953 L 29 19.697266 L 29 8.5 C 29 7.6535009 29.653501 7 30.5 7 z M 6.5 28 C 4.019 28 2 30.019 2 32.5 L 2 34 C 2 39.607 9.028 44 18 44 C 26.972 44 34 39.607 34 34 L 34 32.5 C 34 30.019 31.981 28 29.5 28 L 6.5 28 z M 6.5 31 L 29.5 31 C 30.327 31 31 31.673 31 32.5 L 31 34 C 31 37.794 25.047 41 18 41 C 10.953 41 5 37.794 5 34 L 5 32.5 C 5 31.673 5.673 31 6.5 31 z"/></svg>