<svg xmlns="http://www.w3.org/2000/svg"  viewBox="0 0 48 48" width="64px" height="64px" fill="#7b7979"><path d="M 9.4238281 9 C 7.5088734 9 5.9238281 10.585045 5.9238281 12.5 L 5.9238281 31.5 C 5.9238281 33.414955 7.5088734 35 9.4238281 35 L 38.423828 35 C 40.338783 35 41.923828 33.414955 41.923828 31.5 L 41.923828 12.5 C 41.923828 10.585045 40.338783 9 38.423828 9 L 9.4238281 9 z M 9.4238281 12 L 38.423828 12 C 38.718873 12 38.923828 12.204955 38.923828 12.5 L 38.923828 31.5 C 38.923828 31.795045 38.718873 32 38.423828 32 L 9.4238281 32 C 9.1287829 32 8.9238281 31.795045 8.9238281 31.5 L 8.9238281 12.5 C 8.9238281 12.204955 9.1287829 12 9.4238281 12 z M 13.5 15 A 1.50015 1.50015 0 1 0 13.5 18 L 20.5 18 A 1.50015 1.50015 0 1 0 20.5 15 L 13.5 15 z M 27.5 15 A 1.50015 1.50015 0 1 0 27.5 18 L 34.5 18 A 1.50015 1.50015 0 1 0 34.5 15 L 27.5 15 z M 13.5 20 A 1.50015 1.50015 0 1 0 13.5 23 L 20.5 23 A 1.50015 1.50015 0 1 0 20.5 20 L 13.5 20 z M 27.5 20 A 1.50015 1.50015 0 1 0 27.5 23 L 34.5 23 A 1.50015 1.50015 0 1 0 34.5 20 L 27.5 20 z M 13.5 25 A 1.50015 1.50015 0 1 0 13.5 28 L 20.5 28 A 1.50015 1.50015 0 1 0 20.5 25 L 13.5 25 z M 27.5 25 A 1.50015 1.50015 0 1 0 27.5 28 L 31.5 28 A 1.50015 1.50015 0 1 0 31.5 25 L 27.5 25 z M 3.4238281 36 A 1.50015 1.50015 0 1 0 3.4238281 39 L 44.423828 39 A 1.50015 1.50015 0 1 0 44.423828 36 L 3.4238281 36 z"/></svg>