<svg xmlns="http://www.w3.org/2000/svg"  viewBox="0 0 48 48" width="64px" height="64px" fill="#7b7979"><path d="M 21.498047 3 C 11.27456 3 2.9980469 11.547519 2.9980469 22 C 2.9980469 27.500733 5.2895142 32.465735 8.9472656 35.935547 A 1.50015 1.50015 0 0 0 8.9472656 35.9375 C 10.238853 37.161938 10.998047 38.77056 10.998047 40.46875 L 10.998047 43.5 A 1.50015 1.50015 0 1 0 13.998047 43.5 L 13.998047 40.46875 C 13.998047 37.87494 12.836131 35.489327 11.011719 33.759766 C 7.9354699 30.841578 5.9980469 26.669267 5.9980469 22 C 5.9980469 13.122481 12.943534 6 21.498047 6 C 29.557548 6 36.146365 12.335983 36.888672 20.492188 A 1.50015 1.50015 0 0 0 37.210938 21.292969 L 42 27.279297 C 42.03073 27.317717 42.045147 27.270609 41.998047 27.287109 L 38.001953 28.683594 A 1.50015 1.50015 0 0 0 36.998047 30.099609 L 36.998047 36.339844 C 36.998047 36.99103 36.589806 37.55617 35.972656 37.761719 L 30.392578 39.621094 C 28.968637 40.09516 27.998047 41.440453 27.998047 42.941406 L 27.998047 43.5 A 1.50015 1.50015 0 1 0 30.998047 43.5 L 30.998047 42.941406 C 30.998047 42.72036 31.129785 42.538684 31.339844 42.46875 L 36.921875 40.607422 C 38.754725 39.996971 39.998047 38.270658 39.998047 36.339844 L 39.998047 31.164062 L 42.990234 30.117188 C 44.901185 29.447671 45.609015 26.985878 44.34375 25.404297 L 39.78125 19.701172 C 38.669199 10.333191 30.953989 3 21.498047 3 z M 21 11 C 14.925 11 10 15.925 10 22 C 10 28.075 14.925 33 21 33 C 27.075 33 32 28.075 32 22 C 32 15.925 27.075 11 21 11 z M 21 14 C 21.552 14 22 14.448 22 15 L 22 21 L 28 21 C 28.552 21 29 21.448 29 22 C 29 22.552 28.552 23 28 23 L 22 23 L 22 29 C 22 29.552 21.552 30 21 30 C 20.448 30 20 29.552 20 29 L 20 23 L 14 23 C 13.448 23 13 22.552 13 22 C 13 21.448 13.448 21 14 21 L 20 21 L 20 15 C 20 14.448 20.448 14 21 14 z"/></svg>