<svg xmlns="http://www.w3.org/2000/svg"  viewBox="0 0 48 48" width="64px" height="64px" fill="#7b7979"><path d="M 9.5 6 C 6.4802259 6 4 8.4802259 4 11.5 L 4 25.5 L 4 36.5 C 4 39.519774 6.4802259 42 9.5 42 L 38.5 42 C 41.519774 42 44 39.519774 44 36.5 L 44 11.5 C 44 8.4802259 41.519774 6 38.5 6 L 9.5 6 z M 9.5 9 L 38.5 9 C 39.898226 9 41 10.101774 41 11.5 L 41 36.5 C 41 37.898226 39.898226 39 38.5 39 L 9.5 39 C 8.1017741 39 7 37.898226 7 36.5 L 7 27 L 9.5 27 C 10.027 27 10.515156 26.724484 10.785156 26.271484 L 12.302734 23.746094 L 15.128906 30.109375 C 15.368906 30.648375 15.903141 30.997 16.494141 31 C 17.091141 30.976 17.621234 30.658094 17.865234 30.121094 L 21.332031 22.492188 L 25.087891 33.005859 C 25.289891 33.570859 25.808203 33.960094 26.408203 33.996094 C 26.439203 33.998094 26.471 34 26.5 34 C 27.065 34 27.586797 33.681875 27.841797 33.171875 L 31.427734 26 L 32.5 26 C 32.5 26 32.501953 26 32.501953 26 A 2.5 2.5 0 0 0 34.5 27 A 2.5 2.5 0 0 0 34.5 22 A 2.5 2.5 0 0 0 32.501953 23 C 32.501953 23 32.5 23 32.5 23 L 30.5 23 C 29.932 23 29.412203 23.320125 29.158203 23.828125 L 26.730469 28.685547 L 22.912109 17.994141 C 22.706109 17.419141 22.1725 17.026953 21.5625 17.001953 C 20.9475 16.967953 20.386766 17.322906 20.134766 17.878906 L 16.515625 25.841797 L 13.869141 19.890625 C 13.642141 19.378625 13.150797 19.037906 12.591797 19.003906 C 12.024797 18.973906 11.500891 19.248516 11.212891 19.728516 L 8.6503906 24 L 7 24 L 7 11.5 C 7 10.101774 8.1017741 9 9.5 9 z"/></svg>